%
M48
M72
T01C0.01900
T02C0.01969
T03C0.02756
T04C0.03150
T05C0.03200
T06C0.03600
T07C0.03937
T08C0.04000
T09C0.04331
T10C0.05118
T11C0.05600
T12C0.12598
%
T01
X294640Y95122
X348827Y206031
X348827Y245031
T02
X111181Y65772
X128277Y73451
X100827Y93531
X90981Y97572
X118329Y98675
X127249Y97756
X159827Y97531
X171731Y102611
X187008Y98505
X187617Y106532
X164963Y114011
X189369Y123605
X218327Y137031
X216709Y144505
X207053Y150807
X179141Y145415
X156141Y131626
X232260Y100579
X241327Y101031
X253717Y101979
X256827Y107031
X241327Y121031
X242899Y140347
X271204Y153242
X282827Y145531
X281283Y139079
X299376Y136510
X310827Y120531
X308827Y111531
X283827Y84531
X317202Y82486
X222827Y94531
X171376Y89939
X51827Y169531
X132900Y174058
X150840Y174509
X149851Y186884
X177040Y195573
X196596Y189656
X220089Y191233
X231292Y187735
X257827Y206531
X272827Y224531
X261644Y226495
X245089Y237233
X241827Y232531
X231890Y238531
X213089Y240233
X190262Y257928
X201827Y260531
X177115Y249112
X150238Y240921
X150085Y228245
X163714Y226012
X201589Y208233
X295089Y186233
X306677Y176531
X300252Y171531
X335815Y187788
X340787Y179374
X386827Y181531
X331805Y211140
X305192Y214240
X321598Y225179
X334370Y225523
X341006Y254654
X341547Y261536
X342840Y269870
X322899Y263240
X319702Y287281
X320321Y294947
X297428Y317444
X297408Y329808
X311371Y339384
X244827Y307031
X223111Y291831
X214215Y284803
X202415Y284678
X231827Y263031
X151609Y282359
X95742Y288934
X144550Y315191
X144274Y329900
X144234Y344825
X125794Y344526
X108720Y344341
X117155Y325834
X201429Y349571
X209429Y349571
X236139Y345421
X217620Y329941
X51827Y242531
X402827Y223531
T03
X271197Y288531
X263126Y283413
X256827Y283413
X250528Y283413
X242457Y288531
X253677Y293649
X259976Y293649
T04
X59567Y279777
X53567Y279777
X47567Y279777
X41567Y279777
X42567Y221277
X48567Y221277
X54567Y221277
X60567Y221277
X60567Y206777
X54567Y206777
X48567Y206777
X42567Y206777
X43567Y148277
X49567Y148277
X55567Y148277
X61567Y148277
T05
X221827Y246531
X221834Y260256
X271834Y260256
X271827Y246531
X303217Y150740
X311091Y150740
X318965Y150740
X326839Y150740
T06
X393827Y247531
X403827Y247531
X403827Y257531
X393827Y257531
X393827Y267531
X403827Y267531
X403827Y277531
X393827Y277531
X393827Y287531
X403827Y287531
T07
X389606Y132531
T08
X386827Y169531
X376827Y169531
X366827Y169531
X356827Y169531
X396827Y169531
X406827Y169531
X294744Y124994
X294744Y114994
X292827Y79531
X266827Y162531
X256827Y162531
X246827Y162531
X236827Y162531
X226827Y162531
X216827Y162531
X279665Y204311
X289665Y204311
X188997Y232816
X178997Y232816
X168997Y232816
X167326Y287631
X177326Y287631
X187326Y287631
X75694Y294290
X65694Y294290
X55694Y294290
X311827Y319878
X321827Y319878
T09
X321827Y348531
X259827Y348531
T10
X360079Y132531
T11
X120402Y164831
X120402Y178610
X120402Y192390
X120383Y236752
X120383Y250531
X120383Y264311
T12
X69504Y320134
X392316Y320205
X392316Y91741
X69504Y91748
M30
