M48
;GenerationSoftware,Autodesk,EAGLE,9.4.2*%
;CreationDate,2019-06-10T15:33:18Z*%
FMAT,2
ICI,OFF
METRIC,TZ,000.000
T11C0.500
T10C0.800
T9C0.813
T8C0.914
T7C1.000
T6C1.016
T5C1.500
T4C2.000
T3C2.500
T2C3.500
T1C4.000
%
G90
M71
T1
X38000Y10000
X78000Y10000
X38000Y146000
X78000Y146000
T2
X10511Y20415
X10629Y55462
X10629Y97472
X10275Y118712
X10393Y133817
X10629Y42010
T3
X93211Y72644
X75437Y72644
X75438Y26924
X93218Y26924
T4
X44450Y119238
X44450Y133238
X44450Y55768
X44450Y41768
T5
X16510Y37338
X16510Y44958
X100203Y34544
X16510Y130048
X16510Y137668
X16510Y93980
X16510Y101600
X100203Y119634
X100203Y112014
X16510Y114808
X16510Y122428
X100203Y42164
X100330Y82042
X100330Y89662
X100330Y66802
X100330Y74422
X16510Y24130
X16510Y16510
X16510Y60198
X16510Y52578
T6
X69647Y66361
X69647Y63821
X69647Y61281
X67515Y79657
X70055Y79657
X72595Y79657
X74576Y123377
X74576Y125917
X74576Y128457
T7
X74168Y43434
X94488Y51054
X74168Y33274
X74168Y35814
X74168Y38354
X74168Y40894
X74168Y45974
X74168Y48514
X74168Y51054
X74168Y53594
X74168Y56134
X74168Y58674
X94488Y30734
X94488Y33274
X94488Y35814
X94488Y38354
X94488Y40894
X94488Y43434
X94488Y45974
X94488Y48514
X74168Y30734
X94488Y53594
X94488Y56134
X94488Y58674
X74168Y68834
X74168Y66294
X74168Y63754
X74168Y61214
T8
X33020Y113030
X33020Y128270
X33020Y95250
X33020Y35560
X33020Y50800
X33020Y17780
X33020Y33020
X29990Y2140
X29990Y17380
X33020Y110490
X36068Y79883
X36068Y95123
T9
X70367Y52688
X42672Y15875
X66233Y131902
X69264Y143387
X66724Y143387
X69850Y123444
X69850Y125984
X41656Y106045
X41656Y103505
X48768Y103632
X46228Y103632
X70104Y111887
X70104Y114427
X70104Y118872
X67564Y118872
X93472Y87249
X93472Y89789
X85852Y87249
X85852Y89789
X93472Y94869
X93472Y92329
X85852Y92329
X85852Y94869
X83566Y101092
X83566Y98552
X88392Y100584
X88392Y108204
X78653Y81490
X78653Y84030
X81504Y78894
X81504Y86514
X71374Y100330
X71374Y97790
X77470Y90805
X69850Y90805
X77470Y93980
X69850Y93980
X48514Y90805
X109093Y56769
X109093Y59309
X110871Y50673
X108331Y50673
X48514Y93345
X42672Y90805
X42672Y93345
X48514Y15875
X42672Y13335
X48514Y13335
X66233Y139522
X76902Y19214
X84522Y19214
X100524Y12483
X100524Y15023
X92904Y12483
X92904Y15023
X100524Y20103
X100524Y17563
X92904Y17563
X92904Y20103
X89527Y26942
X89527Y24402
X85588Y22498
X85588Y30118
X83883Y4957
X83883Y7497
X88840Y4355
X88840Y11975
X78426Y25564
X78426Y23024
X84522Y16039
X70367Y55228
X76902Y16039
X67564Y41402
X70104Y41402
X70104Y36957
X70104Y34417
X89564Y81728
X89564Y78172
X46228Y26162
X48768Y26162
X41656Y26035
X41656Y28575
X71272Y48457
X71272Y45917
X65214Y65226
X65214Y67766
X65038Y54211
X65038Y61831
T10
X65850Y128148
X65850Y126238
X65850Y124328
X65850Y50678
X65850Y48768
X65850Y46858
T11
X89660Y84715
X85925Y64143
X43815Y57658
X82897Y112453
X97280Y14521
X106786Y33056
X80478Y53777
X88499Y66511
X78079Y138516
X70517Y72578
X82837Y72056
X87014Y72087
X97871Y64166
X98556Y61864
X106194Y12365
X42825Y40593
X42450Y41768
X42450Y43093
X42450Y44443
X42450Y45768
X42825Y46943
X43825Y47668
X45075Y47668
X46075Y46943
X46450Y45768
X46450Y44443
X46450Y43093
X46450Y41768
X46075Y40593
X42825Y56943
X79284Y69922
X82412Y66227
X43815Y117348
X43815Y135128
X65496Y12358
X66620Y12259
X43815Y39878
X85892Y54834
X45085Y57658
X45085Y135128
X45085Y117348
X46075Y134413
X46450Y133238
X46450Y131913
X46450Y130588
X46450Y129238
X46075Y128063
X45075Y127338
X43825Y127338
X42825Y128063
X42450Y129238
X42450Y130588
X42450Y131913
X42450Y133238
X42825Y134413
X46075Y118063
X46450Y119238
X46450Y120563
X46450Y121913
X46450Y123238
X46075Y124413
X45075Y125138
X43825Y125138
X42825Y124413
X42450Y123238
X42450Y121913
X42450Y120563
X42450Y119238
X42825Y118063
X66763Y13305
X67142Y37082
X66266Y35693
X66343Y38167
X65220Y38072
X42450Y55768
X42450Y54443
X42450Y53118
X42450Y51768
X42825Y50593
X43825Y49868
X45075Y49868
X46075Y50593
X46450Y51768
X46450Y53118
X46450Y54443
X46450Y55768
X46075Y56943
X45085Y39878
M30