G75*
%MOIN*%
%OFA0B0*%
%FSLAX25Y25*%
%IPPOS*%
%LPD*%
%AMOC8*
5,1,8,0,0,1.08239X$1,22.5*
%
%ADD10C,0.01100*%
%ADD11C,0.00600*%
%ADD12C,0.01200*%
%ADD13C,0.03000*%
%ADD14C,0.00800*%
%ADD15R,0.58000X0.57000*%
%ADD16C,0.00500*%
%ADD17C,0.00900*%
%ADD18C,0.00400*%
%ADD19C,0.00300*%
D10*
X0095181Y0062630D02*
X0096165Y0061646D01*
X0097149Y0061646D01*
X0095181Y0062630D02*
X0095181Y0067551D01*
X0098134Y0067551D01*
X0099118Y0066567D01*
X0099118Y0064598D01*
X0098134Y0063614D01*
X0095181Y0063614D01*
X0101536Y0067551D02*
X0102521Y0067551D01*
X0104489Y0065583D01*
X0104489Y0067551D02*
X0104489Y0063614D01*
X0106998Y0064598D02*
X0106998Y0066567D01*
X0107982Y0067551D01*
X0109950Y0067551D01*
X0110934Y0066567D01*
X0110934Y0064598D01*
X0109950Y0063614D01*
X0107982Y0063614D01*
X0106998Y0064598D01*
X0113173Y0064598D02*
X0113173Y0063614D01*
X0114157Y0063614D01*
X0114157Y0064598D01*
X0113173Y0064598D01*
X0116576Y0067551D02*
X0117560Y0067551D01*
X0119528Y0065583D01*
X0119528Y0067551D02*
X0119528Y0063614D01*
X0122037Y0064598D02*
X0122037Y0066567D01*
X0123021Y0067551D01*
X0124990Y0067551D01*
X0125974Y0066567D01*
X0125974Y0064598D01*
X0124990Y0063614D01*
X0123021Y0063614D01*
X0122037Y0064598D01*
X0128303Y0063614D02*
X0129287Y0064598D01*
X0129287Y0068535D01*
X0130271Y0067551D02*
X0128303Y0067551D01*
X0133584Y0067551D02*
X0133584Y0063614D01*
X0134568Y0063614D02*
X0132600Y0063614D01*
X0133584Y0067551D02*
X0134568Y0067551D01*
X0133584Y0069519D02*
X0133584Y0070504D01*
X0137077Y0066567D02*
X0137077Y0063614D01*
X0137077Y0066567D02*
X0138061Y0067551D01*
X0141013Y0067551D01*
X0141013Y0063614D01*
X0143522Y0064598D02*
X0143522Y0066567D01*
X0144506Y0067551D01*
X0146475Y0067551D01*
X0147459Y0066567D01*
X0147459Y0064598D01*
X0146475Y0063614D01*
X0144506Y0063614D01*
X0143522Y0064598D01*
X0149968Y0063614D02*
X0149968Y0069519D01*
X0151936Y0067551D01*
X0153904Y0069519D01*
X0153904Y0063614D01*
X0156413Y0063614D02*
X0159366Y0063614D01*
X0160350Y0064598D01*
X0160350Y0067551D01*
X0162859Y0067551D02*
X0165811Y0067551D01*
X0166795Y0066567D01*
X0166795Y0064598D01*
X0165811Y0063614D01*
X0162859Y0063614D01*
X0162859Y0062630D02*
X0162859Y0067551D01*
X0162859Y0062630D02*
X0163843Y0061646D01*
X0164827Y0061646D01*
X0158382Y0061646D02*
X0157397Y0061646D01*
X0156413Y0062630D01*
X0156413Y0067551D01*
X0169214Y0067551D02*
X0170198Y0067551D01*
X0172167Y0065583D01*
X0172167Y0067551D02*
X0172167Y0063614D01*
X0174676Y0065583D02*
X0178612Y0065583D01*
X0178612Y0066567D02*
X0178612Y0064598D01*
X0177628Y0063614D01*
X0175660Y0063614D01*
X0174676Y0065583D02*
X0174676Y0066567D01*
X0175660Y0067551D01*
X0177628Y0067551D01*
X0178612Y0066567D01*
X0181121Y0066567D02*
X0181121Y0063614D01*
X0181121Y0066567D02*
X0182105Y0067551D01*
X0185058Y0067551D01*
X0185058Y0063614D01*
X0187567Y0063614D02*
X0191503Y0063614D01*
X0191503Y0069519D01*
X0187567Y0069519D01*
X0189535Y0066567D02*
X0191503Y0066567D01*
X0194012Y0066567D02*
X0194012Y0063614D01*
X0194012Y0066567D02*
X0194996Y0067551D01*
X0197949Y0067551D01*
X0197949Y0063614D01*
X0200458Y0065583D02*
X0200458Y0066567D01*
X0201442Y0067551D01*
X0203410Y0067551D01*
X0204394Y0066567D01*
X0204394Y0064598D01*
X0203410Y0063614D01*
X0201442Y0063614D01*
X0200458Y0065583D02*
X0204394Y0065583D01*
X0206903Y0066567D02*
X0206903Y0064598D01*
X0207887Y0063614D01*
X0210840Y0063614D01*
X0210840Y0061646D02*
X0210840Y0067551D01*
X0207887Y0067551D01*
X0206903Y0066567D01*
X0213349Y0068535D02*
X0213349Y0064598D01*
X0214333Y0063614D01*
X0216301Y0063614D01*
X0217285Y0064598D01*
X0217285Y0068535D01*
X0216301Y0069519D01*
X0214333Y0069519D01*
X0213349Y0068535D01*
X0233544Y0309004D02*
X0235512Y0309004D01*
X0236496Y0309988D01*
X0236496Y0311956D01*
X0235512Y0312941D01*
X0233544Y0312941D01*
X0232560Y0311956D01*
X0232560Y0310972D01*
X0236496Y0310972D01*
X0239005Y0309004D02*
X0241958Y0309004D01*
X0242942Y0309988D01*
X0242942Y0311956D01*
X0241958Y0312941D01*
X0239005Y0312941D01*
X0239005Y0314909D02*
X0239005Y0309004D01*
X0245451Y0309988D02*
X0245451Y0311956D01*
X0246435Y0312941D01*
X0248403Y0312941D01*
X0249387Y0311956D01*
X0249387Y0309988D01*
X0248403Y0309004D01*
X0246435Y0309004D01*
X0245451Y0309988D01*
X0251896Y0309004D02*
X0251896Y0311956D01*
X0252880Y0312941D01*
X0255833Y0312941D01*
X0255833Y0309004D01*
X0264787Y0309004D02*
X0267740Y0309004D01*
X0268724Y0309988D01*
X0268724Y0311956D01*
X0267740Y0312941D01*
X0264787Y0312941D01*
X0264787Y0308020D01*
X0265771Y0307036D01*
X0266756Y0307036D01*
X0271233Y0309004D02*
X0271233Y0311956D01*
X0272217Y0312941D01*
X0275169Y0312941D01*
X0275169Y0309004D01*
X0277498Y0309004D02*
X0279466Y0309004D01*
X0278482Y0309004D02*
X0278482Y0312941D01*
X0279466Y0312941D01*
X0278482Y0314909D02*
X0278482Y0315893D01*
X0281885Y0312941D02*
X0282869Y0312941D01*
X0284838Y0310972D01*
X0284838Y0309004D02*
X0284838Y0312941D01*
X0287346Y0311956D02*
X0288331Y0312941D01*
X0290299Y0312941D01*
X0291283Y0311956D01*
X0291283Y0309988D01*
X0290299Y0309004D01*
X0288331Y0309004D01*
X0287346Y0309988D01*
X0287346Y0311956D01*
X0293612Y0312941D02*
X0295580Y0312941D01*
X0294596Y0313925D02*
X0294596Y0309988D01*
X0293612Y0309004D01*
X0297909Y0309004D02*
X0299877Y0309004D01*
X0298893Y0309004D02*
X0298893Y0312941D01*
X0299877Y0312941D01*
X0298893Y0314909D02*
X0298893Y0315893D01*
X0302386Y0311956D02*
X0302386Y0309004D01*
X0302386Y0311956D02*
X0303370Y0312941D01*
X0306323Y0312941D01*
X0306323Y0309004D01*
X0308831Y0309988D02*
X0309816Y0309004D01*
X0311784Y0309004D01*
X0312768Y0309988D01*
X0312768Y0311956D01*
X0311784Y0312941D01*
X0309816Y0312941D01*
X0308831Y0311956D01*
X0308831Y0309988D01*
X0315277Y0309004D02*
X0315277Y0311956D01*
X0316261Y0312941D01*
X0317245Y0311956D01*
X0317245Y0309004D01*
X0319214Y0309004D02*
X0319214Y0312941D01*
X0318229Y0312941D01*
X0317245Y0311956D01*
X0328168Y0312941D02*
X0328168Y0308020D01*
X0329152Y0307036D01*
X0330136Y0307036D01*
X0331120Y0309004D02*
X0328168Y0309004D01*
X0331120Y0309004D02*
X0332105Y0309988D01*
X0332105Y0312941D01*
X0334613Y0312941D02*
X0334613Y0308020D01*
X0335598Y0307036D01*
X0336582Y0307036D01*
X0337566Y0309004D02*
X0334613Y0309004D01*
X0337566Y0309004D02*
X0338550Y0309988D01*
X0338550Y0311956D01*
X0337566Y0312941D01*
X0334613Y0312941D01*
X0340969Y0312941D02*
X0341953Y0312941D01*
X0343921Y0310972D01*
X0343921Y0309004D02*
X0343921Y0312941D01*
X0346430Y0311956D02*
X0346430Y0310972D01*
X0350367Y0310972D01*
X0350367Y0309988D02*
X0350367Y0311956D01*
X0349383Y0312941D01*
X0347414Y0312941D01*
X0346430Y0311956D01*
X0347414Y0309004D02*
X0349383Y0309004D01*
X0350367Y0309988D01*
X0352876Y0309004D02*
X0352876Y0311956D01*
X0353860Y0312941D01*
X0356812Y0312941D01*
X0356812Y0309004D01*
X0359321Y0310972D02*
X0363258Y0310972D01*
X0363258Y0309988D02*
X0363258Y0311956D01*
X0362274Y0312941D01*
X0360305Y0312941D01*
X0359321Y0311956D01*
X0359321Y0310972D01*
X0360305Y0309004D02*
X0362274Y0309004D01*
X0363258Y0309988D01*
X0372212Y0309988D02*
X0373196Y0309004D01*
X0376149Y0309004D01*
X0375165Y0310972D02*
X0376149Y0311956D01*
X0375165Y0312941D01*
X0372212Y0312941D01*
X0373196Y0310972D02*
X0375165Y0310972D01*
X0373196Y0310972D02*
X0372212Y0309988D01*
X0378658Y0309988D02*
X0379642Y0309004D01*
X0382594Y0309004D01*
X0381610Y0310972D02*
X0382594Y0311956D01*
X0381610Y0312941D01*
X0378658Y0312941D01*
X0379642Y0310972D02*
X0381610Y0310972D01*
X0379642Y0310972D02*
X0378658Y0309988D01*
X0385103Y0310972D02*
X0389040Y0310972D01*
X0389040Y0309988D02*
X0389040Y0311956D01*
X0388056Y0312941D01*
X0386087Y0312941D01*
X0385103Y0311956D01*
X0385103Y0310972D01*
X0386087Y0309004D02*
X0388056Y0309004D01*
X0389040Y0309988D01*
X0391369Y0309004D02*
X0393337Y0309004D01*
X0392353Y0309004D02*
X0392353Y0314909D01*
X0393337Y0314909D01*
X0395846Y0311956D02*
X0395846Y0310972D01*
X0399782Y0310972D01*
X0399782Y0309988D02*
X0399782Y0311956D01*
X0398798Y0312941D01*
X0396830Y0312941D01*
X0395846Y0311956D01*
X0396830Y0309004D02*
X0398798Y0309004D01*
X0399782Y0309988D01*
X0402201Y0312941D02*
X0403185Y0312941D01*
X0405154Y0310972D01*
X0405154Y0309004D02*
X0405154Y0312941D01*
X0408466Y0312941D02*
X0408466Y0309004D01*
X0407482Y0309004D02*
X0409451Y0309004D01*
X0411959Y0309988D02*
X0412944Y0309004D01*
X0413928Y0309988D01*
X0414912Y0309004D01*
X0415896Y0309988D01*
X0415896Y0312941D01*
X0411959Y0312941D02*
X0411959Y0309988D01*
X0409451Y0312941D02*
X0408466Y0312941D01*
X0408466Y0314909D02*
X0408466Y0315893D01*
D11*
X0478823Y0273615D02*
X0479390Y0274182D01*
X0479957Y0273615D01*
X0479957Y0272480D01*
X0480524Y0271913D01*
X0481091Y0272480D01*
X0481091Y0274182D01*
X0478823Y0273615D02*
X0478823Y0271913D01*
X0478823Y0270592D02*
X0479390Y0270025D01*
X0481659Y0270025D01*
X0481091Y0269458D02*
X0481091Y0270592D01*
X0480524Y0268043D02*
X0478823Y0268043D01*
X0480524Y0268043D02*
X0481091Y0267476D01*
X0481091Y0265774D01*
X0478823Y0265774D01*
X0479957Y0264360D02*
X0479957Y0262091D01*
X0479390Y0262091D02*
X0480524Y0262091D01*
X0481091Y0262658D01*
X0481091Y0263793D01*
X0480524Y0264360D01*
X0479957Y0264360D01*
X0478823Y0263793D02*
X0478823Y0262658D01*
X0479390Y0262091D01*
X0478823Y0260677D02*
X0480524Y0260677D01*
X0481091Y0260110D01*
X0481091Y0258408D01*
X0478823Y0258408D01*
X0479390Y0256994D02*
X0480524Y0256994D01*
X0481091Y0256427D01*
X0481091Y0255292D01*
X0480524Y0254725D01*
X0479390Y0254725D01*
X0478823Y0255292D01*
X0478823Y0256427D01*
X0479390Y0256994D01*
X0479390Y0253311D02*
X0478823Y0252743D01*
X0478823Y0251042D01*
X0477688Y0251042D02*
X0481091Y0251042D01*
X0481091Y0252743D01*
X0480524Y0253311D01*
X0479390Y0253311D01*
X0478823Y0249627D02*
X0480524Y0249627D01*
X0481091Y0249060D01*
X0480524Y0248493D01*
X0478823Y0248493D01*
X0478823Y0247359D02*
X0481091Y0247359D01*
X0481091Y0247926D01*
X0480524Y0248493D01*
X0480524Y0245944D02*
X0481091Y0245377D01*
X0481091Y0244243D01*
X0480524Y0243676D01*
X0479390Y0243676D01*
X0478823Y0244243D01*
X0478823Y0245377D01*
X0479390Y0245944D01*
X0480524Y0245944D01*
X0481091Y0242261D02*
X0481091Y0240560D01*
X0480524Y0239992D01*
X0479390Y0239992D01*
X0478823Y0240560D01*
X0478823Y0242261D01*
X0479390Y0234895D02*
X0478823Y0234328D01*
X0478823Y0233193D01*
X0479390Y0232626D01*
X0480524Y0233193D02*
X0480524Y0234328D01*
X0479957Y0234895D01*
X0479390Y0234895D01*
X0480524Y0233193D02*
X0481091Y0232626D01*
X0481659Y0232626D01*
X0482226Y0233193D01*
X0482226Y0234328D01*
X0481659Y0234895D01*
X0482226Y0231212D02*
X0478823Y0231212D01*
X0480524Y0231212D02*
X0480524Y0228943D01*
X0480524Y0227528D02*
X0481091Y0226961D01*
X0481091Y0225827D01*
X0480524Y0225260D01*
X0479390Y0225260D01*
X0478823Y0225827D01*
X0478823Y0226961D01*
X0479390Y0227528D01*
X0480524Y0227528D01*
X0478823Y0228943D02*
X0482226Y0228943D01*
X0481659Y0223845D02*
X0480524Y0223845D01*
X0479957Y0223278D01*
X0479957Y0221577D01*
X0479957Y0222711D02*
X0478823Y0223845D01*
X0478823Y0221577D02*
X0482226Y0221577D01*
X0482226Y0223278D01*
X0481659Y0223845D01*
X0480524Y0216479D02*
X0480524Y0214210D01*
X0479957Y0209113D02*
X0479390Y0209113D01*
X0478823Y0208546D01*
X0478823Y0206844D01*
X0482226Y0206844D01*
X0482226Y0208546D01*
X0481659Y0209113D01*
X0481091Y0209113D01*
X0480524Y0208546D01*
X0480524Y0206844D01*
X0480524Y0208546D02*
X0479957Y0209113D01*
X0479390Y0205430D02*
X0478823Y0204862D01*
X0478823Y0203728D01*
X0479390Y0203161D01*
X0481659Y0203161D01*
X0482226Y0203728D01*
X0482226Y0204862D01*
X0481659Y0205430D01*
X0481659Y0201746D02*
X0480524Y0201746D01*
X0479957Y0201179D01*
X0479957Y0199478D01*
X0478823Y0199478D02*
X0482226Y0199478D01*
X0482226Y0201179D01*
X0481659Y0201746D01*
X0480524Y0194380D02*
X0479957Y0194380D01*
X0479957Y0192112D01*
X0479390Y0192112D02*
X0480524Y0192112D01*
X0481091Y0192679D01*
X0481091Y0193813D01*
X0480524Y0194380D01*
X0478823Y0193813D02*
X0478823Y0192679D01*
X0479390Y0192112D01*
X0479957Y0190697D02*
X0479957Y0188428D01*
X0479390Y0188428D02*
X0480524Y0188428D01*
X0481091Y0188996D01*
X0481091Y0190130D01*
X0480524Y0190697D01*
X0479957Y0190697D01*
X0478823Y0190130D02*
X0478823Y0188996D01*
X0479390Y0188428D01*
X0481091Y0187061D02*
X0481091Y0186493D01*
X0479957Y0185359D01*
X0478823Y0185359D02*
X0481091Y0185359D01*
X0480524Y0184038D02*
X0480524Y0182904D01*
X0481659Y0183471D02*
X0482226Y0184038D01*
X0481659Y0183471D02*
X0478823Y0183471D01*
X0478823Y0177806D02*
X0478823Y0176105D01*
X0479390Y0175537D01*
X0480524Y0175537D01*
X0481091Y0176105D01*
X0481091Y0177806D01*
X0482226Y0177806D02*
X0478823Y0177806D01*
X0478823Y0174123D02*
X0478823Y0172421D01*
X0479390Y0171854D01*
X0479957Y0172421D01*
X0479957Y0174123D01*
X0480524Y0174123D02*
X0478823Y0174123D01*
X0480524Y0174123D02*
X0481091Y0173556D01*
X0481091Y0172421D01*
X0480524Y0170440D02*
X0479957Y0170440D01*
X0479957Y0168171D01*
X0479390Y0168171D02*
X0480524Y0168171D01*
X0481091Y0168738D01*
X0481091Y0169873D01*
X0480524Y0170440D01*
X0478823Y0169873D02*
X0478823Y0168738D01*
X0479390Y0168171D01*
X0478823Y0166757D02*
X0478823Y0164488D01*
X0482226Y0164488D01*
X0374606Y0078599D02*
X0371906Y0078599D01*
X0371406Y0075399D01*
X0368906Y0074399D02*
X0366306Y0076199D01*
X0364406Y0074399D01*
X0366206Y0071799D01*
X0365106Y0069299D02*
X0362106Y0068699D01*
X0362106Y0066099D01*
X0365106Y0065599D01*
X0366106Y0062899D02*
X0364406Y0060499D01*
X0366306Y0058599D01*
X0368706Y0060299D01*
X0369706Y0059699D01*
X0371606Y0064199D01*
X0366106Y0062893D02*
X0366010Y0063059D01*
X0365917Y0063226D01*
X0365829Y0063396D01*
X0365745Y0063568D01*
X0365665Y0063741D01*
X0365589Y0063917D01*
X0365517Y0064094D01*
X0365450Y0064273D01*
X0365386Y0064454D01*
X0365327Y0064636D01*
X0365273Y0064819D01*
X0365222Y0065004D01*
X0365176Y0065189D01*
X0365135Y0065376D01*
X0365098Y0065564D01*
X0365116Y0069299D02*
X0365166Y0069487D01*
X0365221Y0069674D01*
X0365280Y0069860D01*
X0365344Y0070044D01*
X0365412Y0070227D01*
X0365485Y0070408D01*
X0365562Y0070587D01*
X0365643Y0070764D01*
X0365729Y0070940D01*
X0365818Y0071113D01*
X0365912Y0071284D01*
X0366010Y0071452D01*
X0366112Y0071619D01*
X0366217Y0071782D01*
X0371606Y0064299D02*
X0371499Y0064354D01*
X0371393Y0064411D01*
X0371290Y0064473D01*
X0371188Y0064537D01*
X0371089Y0064605D01*
X0370992Y0064676D01*
X0370897Y0064750D01*
X0370805Y0064827D01*
X0370715Y0064908D01*
X0370628Y0064991D01*
X0370544Y0065077D01*
X0370463Y0065165D01*
X0370385Y0065257D01*
X0370309Y0065351D01*
X0370237Y0065447D01*
X0370168Y0065545D01*
X0370102Y0065646D01*
X0370040Y0065749D01*
X0369981Y0065854D01*
X0369925Y0065960D01*
X0369873Y0066069D01*
X0369825Y0066179D01*
X0369780Y0066291D01*
X0369739Y0066404D01*
X0369702Y0066518D01*
X0369668Y0066634D01*
X0369639Y0066750D01*
X0369613Y0066868D01*
X0369591Y0066986D01*
X0369572Y0067105D01*
X0369558Y0067224D01*
X0369548Y0067344D01*
X0369541Y0067464D01*
X0369539Y0067585D01*
X0369541Y0067705D01*
X0369546Y0067825D01*
X0369555Y0067945D01*
X0369569Y0068065D01*
X0369586Y0068184D01*
X0369607Y0068302D01*
X0369632Y0068420D01*
X0369661Y0068537D01*
X0369694Y0068652D01*
X0369730Y0068767D01*
X0369770Y0068880D01*
X0369814Y0068992D01*
X0369862Y0069103D01*
X0369913Y0069212D01*
X0369967Y0069319D01*
X0370026Y0069424D01*
X0370087Y0069528D01*
X0370152Y0069629D01*
X0370220Y0069728D01*
X0370292Y0069825D01*
X0370366Y0069919D01*
X0370444Y0070011D01*
X0370524Y0070100D01*
X0370608Y0070187D01*
X0370694Y0070271D01*
X0370783Y0070352D01*
X0370875Y0070430D01*
X0370969Y0070505D01*
X0371065Y0070576D01*
X0371164Y0070645D01*
X0371265Y0070710D01*
X0371368Y0070772D01*
X0371473Y0070831D01*
X0371580Y0070886D01*
X0371689Y0070938D01*
X0371799Y0070985D01*
X0371911Y0071030D01*
X0372024Y0071070D01*
X0372139Y0071107D01*
X0372255Y0071140D01*
X0372371Y0071170D01*
X0372489Y0071195D01*
X0372607Y0071217D01*
X0372726Y0071234D01*
X0372846Y0071248D01*
X0372966Y0071258D01*
X0373086Y0071264D01*
X0373206Y0071266D01*
X0373326Y0071264D01*
X0373446Y0071258D01*
X0373566Y0071248D01*
X0373686Y0071234D01*
X0373805Y0071217D01*
X0373923Y0071195D01*
X0374041Y0071170D01*
X0374157Y0071140D01*
X0374273Y0071107D01*
X0374388Y0071070D01*
X0374501Y0071030D01*
X0374613Y0070985D01*
X0374723Y0070938D01*
X0374832Y0070886D01*
X0374939Y0070831D01*
X0375044Y0070772D01*
X0375147Y0070710D01*
X0375248Y0070645D01*
X0375347Y0070576D01*
X0375443Y0070505D01*
X0375537Y0070430D01*
X0375629Y0070352D01*
X0375718Y0070271D01*
X0375804Y0070187D01*
X0375888Y0070100D01*
X0375968Y0070011D01*
X0376046Y0069919D01*
X0376120Y0069825D01*
X0376192Y0069728D01*
X0376260Y0069629D01*
X0376325Y0069528D01*
X0376386Y0069424D01*
X0376445Y0069319D01*
X0376499Y0069212D01*
X0376550Y0069103D01*
X0376598Y0068992D01*
X0376642Y0068880D01*
X0376682Y0068767D01*
X0376718Y0068652D01*
X0376751Y0068537D01*
X0376780Y0068420D01*
X0376805Y0068302D01*
X0376826Y0068184D01*
X0376843Y0068065D01*
X0376857Y0067945D01*
X0376866Y0067825D01*
X0376871Y0067705D01*
X0376873Y0067585D01*
X0376871Y0067464D01*
X0376864Y0067344D01*
X0376854Y0067224D01*
X0376840Y0067105D01*
X0376821Y0066986D01*
X0376799Y0066868D01*
X0376773Y0066750D01*
X0376744Y0066634D01*
X0376710Y0066518D01*
X0376673Y0066404D01*
X0376632Y0066291D01*
X0376587Y0066179D01*
X0376539Y0066069D01*
X0376487Y0065960D01*
X0376431Y0065854D01*
X0376372Y0065749D01*
X0376310Y0065646D01*
X0376244Y0065545D01*
X0376175Y0065447D01*
X0376103Y0065351D01*
X0376027Y0065257D01*
X0375949Y0065165D01*
X0375868Y0065077D01*
X0375784Y0064991D01*
X0375697Y0064908D01*
X0375607Y0064827D01*
X0375515Y0064750D01*
X0375420Y0064676D01*
X0375323Y0064605D01*
X0375224Y0064537D01*
X0375122Y0064473D01*
X0375019Y0064411D01*
X0374913Y0064354D01*
X0374806Y0064299D01*
X0374806Y0064199D02*
X0376806Y0059699D01*
X0377806Y0060299D01*
X0380206Y0058599D01*
X0382006Y0060499D01*
X0380406Y0062899D01*
X0381406Y0065599D02*
X0384406Y0066099D01*
X0384406Y0068699D01*
X0381406Y0069299D01*
X0380306Y0071799D02*
X0382106Y0074399D01*
X0380206Y0076199D01*
X0377606Y0074399D01*
X0375106Y0075399D02*
X0374606Y0078599D01*
X0375181Y0075405D02*
X0375374Y0075358D01*
X0375567Y0075305D01*
X0375758Y0075248D01*
X0375947Y0075187D01*
X0376135Y0075121D01*
X0376322Y0075050D01*
X0376506Y0074975D01*
X0376689Y0074896D01*
X0376870Y0074812D01*
X0377049Y0074724D01*
X0377225Y0074632D01*
X0377400Y0074535D01*
X0377572Y0074435D01*
X0380298Y0071745D02*
X0380398Y0071583D01*
X0380495Y0071418D01*
X0380588Y0071251D01*
X0380676Y0071082D01*
X0380761Y0070912D01*
X0380842Y0070739D01*
X0380919Y0070564D01*
X0380992Y0070388D01*
X0381061Y0070210D01*
X0381126Y0070030D01*
X0381187Y0069850D01*
X0381243Y0069667D01*
X0381296Y0069484D01*
X0381344Y0069299D01*
X0381400Y0065583D02*
X0381357Y0065383D01*
X0381310Y0065185D01*
X0381258Y0064988D01*
X0381200Y0064792D01*
X0381139Y0064597D01*
X0381072Y0064404D01*
X0381001Y0064213D01*
X0380925Y0064023D01*
X0380844Y0063836D01*
X0380759Y0063650D01*
X0380669Y0063467D01*
X0380575Y0063286D01*
X0380476Y0063107D01*
X0380373Y0062931D01*
X0371353Y0075424D02*
X0371166Y0075379D01*
X0370980Y0075330D01*
X0370795Y0075276D01*
X0370612Y0075218D01*
X0370430Y0075156D01*
X0370249Y0075090D01*
X0370070Y0075020D01*
X0369893Y0074946D01*
X0369717Y0074867D01*
X0369544Y0074785D01*
X0369372Y0074698D01*
X0369202Y0074608D01*
X0369034Y0074514D01*
X0368869Y0074416D01*
X0354653Y0068811D02*
X0354653Y0065408D01*
X0354653Y0067110D02*
X0352384Y0067110D01*
X0352384Y0068811D02*
X0352384Y0065408D01*
X0350969Y0065975D02*
X0350402Y0065408D01*
X0348701Y0065408D01*
X0348701Y0067110D01*
X0349268Y0067677D01*
X0350402Y0067677D01*
X0350402Y0066543D02*
X0348701Y0066543D01*
X0347286Y0066543D02*
X0346152Y0067677D01*
X0345585Y0067677D01*
X0344217Y0067110D02*
X0343650Y0067677D01*
X0341948Y0067677D01*
X0341948Y0068811D02*
X0341948Y0065408D01*
X0343650Y0065408D01*
X0344217Y0065975D01*
X0344217Y0067110D01*
X0347286Y0067677D02*
X0347286Y0065408D01*
X0350402Y0066543D02*
X0350969Y0065975D01*
X0347333Y0071408D02*
X0346199Y0071408D01*
X0345631Y0071975D01*
X0345631Y0074244D01*
X0346199Y0074811D01*
X0347333Y0074811D01*
X0347900Y0074244D01*
X0347900Y0071975D01*
X0347333Y0071408D01*
X0344217Y0071408D02*
X0342515Y0071408D01*
X0341948Y0071975D01*
X0341948Y0073110D01*
X0342515Y0073677D01*
X0344217Y0073677D01*
X0344217Y0070274D01*
X0340534Y0071975D02*
X0340534Y0073110D01*
X0339967Y0073677D01*
X0338832Y0073677D01*
X0338265Y0073110D01*
X0338265Y0072543D01*
X0340534Y0072543D01*
X0340534Y0071975D02*
X0339967Y0071408D01*
X0338832Y0071408D01*
X0336851Y0071408D02*
X0336851Y0073677D01*
X0335149Y0073677D01*
X0334582Y0073110D01*
X0334582Y0071408D01*
X0335149Y0067677D02*
X0334582Y0067110D01*
X0334582Y0065408D01*
X0336284Y0065408D01*
X0336851Y0065975D01*
X0336284Y0066543D01*
X0334582Y0066543D01*
X0335149Y0067677D02*
X0336284Y0067677D01*
X0338265Y0067677D02*
X0338265Y0065975D01*
X0338832Y0065408D01*
X0339399Y0065975D01*
X0339967Y0065408D01*
X0340534Y0065975D01*
X0340534Y0067677D01*
X0333168Y0067677D02*
X0333168Y0065408D01*
X0333168Y0066543D02*
X0332033Y0067677D01*
X0331466Y0067677D01*
X0330098Y0067110D02*
X0329531Y0067677D01*
X0328397Y0067677D01*
X0327830Y0067110D01*
X0327830Y0066543D01*
X0330098Y0066543D01*
X0330098Y0067110D02*
X0330098Y0065975D01*
X0329531Y0065408D01*
X0328397Y0065408D01*
X0203028Y0084239D02*
X0201326Y0084239D01*
X0200759Y0084806D01*
X0200759Y0087075D01*
X0201326Y0087642D01*
X0203028Y0087642D01*
X0203028Y0084239D01*
X0199345Y0084806D02*
X0199345Y0085940D01*
X0198778Y0086508D01*
X0197643Y0086508D01*
X0197076Y0085940D01*
X0197076Y0085373D01*
X0199345Y0085373D01*
X0199345Y0084806D02*
X0198778Y0084239D01*
X0197643Y0084239D01*
X0195662Y0084239D02*
X0193960Y0084239D01*
X0193393Y0084806D01*
X0193960Y0085373D01*
X0195094Y0085373D01*
X0195662Y0085940D01*
X0195094Y0086508D01*
X0193393Y0086508D01*
X0191978Y0086508D02*
X0191411Y0086508D01*
X0191411Y0084239D01*
X0191978Y0084239D02*
X0190844Y0084239D01*
X0189523Y0084806D02*
X0188956Y0084239D01*
X0187254Y0084239D01*
X0187254Y0083672D02*
X0187254Y0086508D01*
X0188956Y0086508D01*
X0189523Y0085940D01*
X0189523Y0084806D01*
X0188389Y0083105D02*
X0187822Y0083105D01*
X0187254Y0083672D01*
X0185840Y0084239D02*
X0185840Y0086508D01*
X0184138Y0086508D01*
X0183571Y0085940D01*
X0183571Y0084239D01*
X0182157Y0084806D02*
X0182157Y0085940D01*
X0181590Y0086508D01*
X0180455Y0086508D01*
X0179888Y0085940D01*
X0179888Y0085373D01*
X0182157Y0085373D01*
X0182157Y0084806D02*
X0181590Y0084239D01*
X0180455Y0084239D01*
X0178474Y0084806D02*
X0178474Y0085940D01*
X0177906Y0086508D01*
X0176205Y0086508D01*
X0176205Y0087642D02*
X0176205Y0084239D01*
X0177906Y0084239D01*
X0178474Y0084806D01*
X0171107Y0084239D02*
X0169973Y0084239D01*
X0170540Y0084239D02*
X0170540Y0086508D01*
X0171107Y0086508D01*
X0170540Y0087642D02*
X0170540Y0088209D01*
X0168652Y0086508D02*
X0166950Y0086508D01*
X0166383Y0085940D01*
X0166383Y0084239D01*
X0168652Y0084239D02*
X0168652Y0086508D01*
X0161286Y0087642D02*
X0159017Y0084239D01*
X0159017Y0087642D01*
X0157602Y0085940D02*
X0157602Y0084806D01*
X0157035Y0084239D01*
X0155901Y0084239D01*
X0155334Y0084806D01*
X0155334Y0085940D01*
X0155901Y0086508D01*
X0157035Y0086508D01*
X0157602Y0085940D01*
X0153919Y0085373D02*
X0152785Y0086508D01*
X0152218Y0086508D01*
X0150850Y0086508D02*
X0149716Y0086508D01*
X0150283Y0087075D02*
X0150283Y0084806D01*
X0149716Y0084239D01*
X0148395Y0084239D02*
X0148395Y0087642D01*
X0147827Y0086508D02*
X0146693Y0086508D01*
X0146126Y0085940D01*
X0146126Y0084239D01*
X0148395Y0085940D02*
X0147827Y0086508D01*
X0153919Y0086508D02*
X0153919Y0084239D01*
X0161286Y0084239D02*
X0161286Y0087642D01*
X0141028Y0087642D02*
X0141028Y0084239D01*
X0139894Y0085373D01*
X0138760Y0084239D01*
X0138760Y0087642D01*
X0136778Y0086508D02*
X0135644Y0086508D01*
X0135077Y0085940D01*
X0135077Y0084239D01*
X0136778Y0084239D01*
X0137345Y0084806D01*
X0136778Y0085373D01*
X0135077Y0085373D01*
X0133662Y0084239D02*
X0132528Y0084239D01*
X0133095Y0084239D02*
X0133095Y0087642D01*
X0133662Y0087642D01*
X0131207Y0085940D02*
X0130639Y0086508D01*
X0129505Y0086508D01*
X0128938Y0085940D01*
X0128938Y0085373D01*
X0131207Y0085373D01*
X0131207Y0084806D02*
X0131207Y0085940D01*
X0131207Y0084806D02*
X0130639Y0084239D01*
X0129505Y0084239D01*
X0127523Y0084239D02*
X0125822Y0084239D01*
X0125255Y0084806D01*
X0125822Y0085373D01*
X0126956Y0085373D01*
X0127523Y0085940D01*
X0126956Y0086508D01*
X0125255Y0086508D01*
X0191411Y0087642D02*
X0191411Y0088209D01*
X0217103Y0143186D02*
X0219238Y0143186D01*
X0220305Y0144254D01*
X0216035Y0148524D01*
X0216035Y0144254D01*
X0217103Y0143186D01*
X0220305Y0144254D02*
X0220305Y0148524D01*
X0219238Y0149591D01*
X0217103Y0149591D01*
X0216035Y0148524D01*
X0222481Y0148524D02*
X0223548Y0149591D01*
X0225683Y0149591D01*
X0226751Y0148524D01*
X0228926Y0148524D02*
X0229994Y0149591D01*
X0232129Y0149591D01*
X0233196Y0148524D01*
X0228926Y0148524D02*
X0228926Y0147456D01*
X0233196Y0143186D01*
X0228926Y0143186D01*
X0226751Y0143186D02*
X0222481Y0147456D01*
X0222481Y0148524D01*
X0222481Y0143186D02*
X0226751Y0143186D01*
X0235372Y0143186D02*
X0239642Y0143186D01*
X0237507Y0143186D02*
X0237507Y0149591D01*
X0239642Y0147456D01*
X0241817Y0146389D02*
X0242885Y0145321D01*
X0246087Y0145321D01*
X0243952Y0145321D02*
X0241817Y0143186D01*
X0241817Y0146389D02*
X0241817Y0148524D01*
X0242885Y0149591D01*
X0246087Y0149591D01*
X0246087Y0143186D01*
X0248263Y0144254D02*
X0249330Y0143186D01*
X0251465Y0143186D01*
X0252533Y0144254D01*
X0252533Y0148524D01*
X0251465Y0149591D01*
X0249330Y0149591D01*
X0248263Y0148524D01*
X0186902Y0147085D02*
X0186902Y0153085D01*
X0186900Y0153145D01*
X0186895Y0153206D01*
X0186886Y0153265D01*
X0186873Y0153324D01*
X0186857Y0153383D01*
X0186837Y0153440D01*
X0186814Y0153495D01*
X0186787Y0153550D01*
X0186758Y0153602D01*
X0186725Y0153653D01*
X0186689Y0153702D01*
X0186651Y0153748D01*
X0186609Y0153792D01*
X0186565Y0153834D01*
X0186519Y0153872D01*
X0186470Y0153908D01*
X0186419Y0153941D01*
X0186367Y0153970D01*
X0186312Y0153997D01*
X0186257Y0154020D01*
X0186200Y0154040D01*
X0186141Y0154056D01*
X0186082Y0154069D01*
X0186023Y0154078D01*
X0185962Y0154083D01*
X0185902Y0154085D01*
X0174902Y0154085D01*
X0174842Y0154083D01*
X0174781Y0154078D01*
X0174722Y0154069D01*
X0174663Y0154056D01*
X0174604Y0154040D01*
X0174547Y0154020D01*
X0174492Y0153997D01*
X0174437Y0153970D01*
X0174385Y0153941D01*
X0174334Y0153908D01*
X0174285Y0153872D01*
X0174239Y0153834D01*
X0174195Y0153792D01*
X0174153Y0153748D01*
X0174115Y0153702D01*
X0174079Y0153653D01*
X0174046Y0153602D01*
X0174017Y0153550D01*
X0173990Y0153495D01*
X0173967Y0153440D01*
X0173947Y0153383D01*
X0173931Y0153324D01*
X0173918Y0153265D01*
X0173909Y0153206D01*
X0173904Y0153145D01*
X0173902Y0153085D01*
X0173902Y0147085D01*
X0173904Y0147025D01*
X0173909Y0146964D01*
X0173918Y0146905D01*
X0173931Y0146846D01*
X0173947Y0146787D01*
X0173967Y0146730D01*
X0173990Y0146675D01*
X0174017Y0146620D01*
X0174046Y0146568D01*
X0174079Y0146517D01*
X0174115Y0146468D01*
X0174153Y0146422D01*
X0174195Y0146378D01*
X0174239Y0146336D01*
X0174285Y0146298D01*
X0174334Y0146262D01*
X0174385Y0146229D01*
X0174437Y0146200D01*
X0174492Y0146173D01*
X0174547Y0146150D01*
X0174604Y0146130D01*
X0174663Y0146114D01*
X0174722Y0146101D01*
X0174781Y0146092D01*
X0174842Y0146087D01*
X0174902Y0146085D01*
X0185902Y0146085D01*
X0185962Y0146087D01*
X0186023Y0146092D01*
X0186082Y0146101D01*
X0186141Y0146114D01*
X0186200Y0146130D01*
X0186257Y0146150D01*
X0186312Y0146173D01*
X0186367Y0146200D01*
X0186419Y0146229D01*
X0186470Y0146262D01*
X0186519Y0146298D01*
X0186565Y0146336D01*
X0186609Y0146378D01*
X0186651Y0146422D01*
X0186689Y0146468D01*
X0186725Y0146517D01*
X0186758Y0146568D01*
X0186787Y0146620D01*
X0186814Y0146675D01*
X0186837Y0146730D01*
X0186857Y0146787D01*
X0186873Y0146846D01*
X0186886Y0146905D01*
X0186895Y0146964D01*
X0186900Y0147025D01*
X0186902Y0147085D01*
X0187066Y0246502D02*
X0176066Y0246502D01*
X0176006Y0246504D01*
X0175945Y0246509D01*
X0175886Y0246518D01*
X0175827Y0246531D01*
X0175768Y0246547D01*
X0175711Y0246567D01*
X0175656Y0246590D01*
X0175601Y0246617D01*
X0175549Y0246646D01*
X0175498Y0246679D01*
X0175449Y0246715D01*
X0175403Y0246753D01*
X0175359Y0246795D01*
X0175317Y0246839D01*
X0175279Y0246885D01*
X0175243Y0246934D01*
X0175210Y0246985D01*
X0175181Y0247037D01*
X0175154Y0247092D01*
X0175131Y0247147D01*
X0175111Y0247204D01*
X0175095Y0247263D01*
X0175082Y0247322D01*
X0175073Y0247381D01*
X0175068Y0247442D01*
X0175066Y0247502D01*
X0175066Y0253502D01*
X0175068Y0253562D01*
X0175073Y0253623D01*
X0175082Y0253682D01*
X0175095Y0253741D01*
X0175111Y0253800D01*
X0175131Y0253857D01*
X0175154Y0253912D01*
X0175181Y0253967D01*
X0175210Y0254019D01*
X0175243Y0254070D01*
X0175279Y0254119D01*
X0175317Y0254165D01*
X0175359Y0254209D01*
X0175403Y0254251D01*
X0175449Y0254289D01*
X0175498Y0254325D01*
X0175549Y0254358D01*
X0175601Y0254387D01*
X0175656Y0254414D01*
X0175711Y0254437D01*
X0175768Y0254457D01*
X0175827Y0254473D01*
X0175886Y0254486D01*
X0175945Y0254495D01*
X0176006Y0254500D01*
X0176066Y0254502D01*
X0187066Y0254502D01*
X0187126Y0254500D01*
X0187187Y0254495D01*
X0187246Y0254486D01*
X0187305Y0254473D01*
X0187364Y0254457D01*
X0187421Y0254437D01*
X0187476Y0254414D01*
X0187531Y0254387D01*
X0187583Y0254358D01*
X0187634Y0254325D01*
X0187683Y0254289D01*
X0187729Y0254251D01*
X0187773Y0254209D01*
X0187815Y0254165D01*
X0187853Y0254119D01*
X0187889Y0254070D01*
X0187922Y0254019D01*
X0187951Y0253967D01*
X0187978Y0253912D01*
X0188001Y0253857D01*
X0188021Y0253800D01*
X0188037Y0253741D01*
X0188050Y0253682D01*
X0188059Y0253623D01*
X0188064Y0253562D01*
X0188066Y0253502D01*
X0188066Y0247502D01*
X0188064Y0247442D01*
X0188059Y0247381D01*
X0188050Y0247322D01*
X0188037Y0247263D01*
X0188021Y0247204D01*
X0188001Y0247147D01*
X0187978Y0247092D01*
X0187951Y0247037D01*
X0187922Y0246985D01*
X0187889Y0246934D01*
X0187853Y0246885D01*
X0187815Y0246839D01*
X0187773Y0246795D01*
X0187729Y0246753D01*
X0187683Y0246715D01*
X0187634Y0246679D01*
X0187583Y0246646D01*
X0187531Y0246617D01*
X0187476Y0246590D01*
X0187421Y0246567D01*
X0187364Y0246547D01*
X0187305Y0246531D01*
X0187246Y0246518D01*
X0187187Y0246509D01*
X0187126Y0246504D01*
X0187066Y0246502D01*
D12*
X0170816Y0290740D02*
X0416803Y0290740D01*
X0416605Y0304054D02*
X0171619Y0304054D01*
D13*
X0239116Y0327672D02*
X0241952Y0324836D01*
X0247623Y0324836D01*
X0250459Y0327672D01*
X0250459Y0339015D01*
X0247623Y0341851D01*
X0241952Y0341851D01*
X0239116Y0339015D01*
X0257532Y0339015D02*
X0260367Y0341851D01*
X0268875Y0341851D01*
X0268875Y0324836D01*
X0260367Y0324836D01*
X0257532Y0327672D01*
X0257532Y0339015D01*
X0275947Y0333344D02*
X0275947Y0324836D01*
X0287290Y0324836D02*
X0287290Y0336179D01*
X0278783Y0336179D01*
X0275947Y0333344D01*
X0294363Y0333344D02*
X0294363Y0327672D01*
X0297199Y0324836D01*
X0302870Y0324836D01*
X0305706Y0327672D01*
X0305706Y0333344D01*
X0302870Y0336179D01*
X0297199Y0336179D01*
X0294363Y0333344D01*
X0312779Y0333344D02*
X0312779Y0324836D01*
X0318450Y0324836D02*
X0318450Y0333344D01*
X0315614Y0336179D01*
X0312779Y0333344D01*
X0318450Y0333344D02*
X0321286Y0336179D01*
X0324122Y0336179D01*
X0324122Y0324836D01*
X0331194Y0330508D02*
X0342537Y0330508D01*
X0342537Y0327672D02*
X0342537Y0333344D01*
X0339702Y0336179D01*
X0334030Y0336179D01*
X0331194Y0333344D01*
X0331194Y0330508D01*
X0334030Y0324836D02*
X0339702Y0324836D01*
X0342537Y0327672D01*
D14*
X0340343Y0300591D02*
X0340343Y0295887D01*
X0340343Y0298239D02*
X0339559Y0299023D01*
X0337991Y0299023D01*
X0337207Y0298239D01*
X0337207Y0295887D01*
X0335279Y0296671D02*
X0335279Y0298239D01*
X0334495Y0299023D01*
X0332927Y0299023D01*
X0332143Y0298239D01*
X0332143Y0297455D01*
X0335279Y0297455D01*
X0335279Y0296671D02*
X0334495Y0295887D01*
X0332927Y0295887D01*
X0330214Y0295887D02*
X0328646Y0295887D01*
X0329430Y0295887D02*
X0329430Y0300591D01*
X0330214Y0300591D01*
X0326838Y0299023D02*
X0324486Y0299023D01*
X0323702Y0298239D01*
X0323702Y0296671D01*
X0324486Y0295887D01*
X0326838Y0295887D01*
X0326838Y0294319D02*
X0326838Y0299023D01*
X0321774Y0298239D02*
X0320990Y0299023D01*
X0318638Y0299023D01*
X0319422Y0297455D02*
X0318638Y0296671D01*
X0319422Y0295887D01*
X0321774Y0295887D01*
X0320990Y0297455D02*
X0321774Y0298239D01*
X0320990Y0297455D02*
X0319422Y0297455D01*
X0311645Y0296671D02*
X0311645Y0299023D01*
X0311645Y0296671D02*
X0310861Y0295887D01*
X0308509Y0295887D01*
X0308509Y0299023D01*
X0306581Y0298239D02*
X0305797Y0299023D01*
X0303445Y0299023D01*
X0304229Y0297455D02*
X0303445Y0296671D01*
X0304229Y0295887D01*
X0306581Y0295887D01*
X0305797Y0297455D02*
X0306581Y0298239D01*
X0305797Y0297455D02*
X0304229Y0297455D01*
X0296452Y0295887D02*
X0294884Y0295887D01*
X0295668Y0295887D02*
X0295668Y0300591D01*
X0296452Y0300591D01*
X0293076Y0299023D02*
X0292292Y0299023D01*
X0292292Y0295887D01*
X0293076Y0295887D02*
X0291508Y0295887D01*
X0288132Y0295887D02*
X0286564Y0299023D01*
X0284635Y0298239D02*
X0283851Y0299023D01*
X0282283Y0299023D01*
X0281499Y0298239D01*
X0281499Y0297455D01*
X0284635Y0297455D01*
X0284635Y0296671D02*
X0284635Y0298239D01*
X0284635Y0296671D02*
X0283851Y0295887D01*
X0282283Y0295887D01*
X0288132Y0295887D02*
X0289700Y0299023D01*
X0292292Y0300591D02*
X0292292Y0301375D01*
X0274507Y0299023D02*
X0274507Y0296671D01*
X0273723Y0295887D01*
X0272939Y0296671D01*
X0272155Y0295887D01*
X0271371Y0296671D01*
X0271371Y0299023D01*
X0269442Y0299023D02*
X0268658Y0299023D01*
X0268658Y0295887D01*
X0269442Y0295887D02*
X0267874Y0295887D01*
X0265282Y0296671D02*
X0265282Y0299807D01*
X0266066Y0299023D02*
X0264498Y0299023D01*
X0262690Y0298239D02*
X0261906Y0299023D01*
X0260338Y0299023D01*
X0259554Y0298239D01*
X0259554Y0295887D01*
X0257626Y0295887D02*
X0256058Y0295887D01*
X0256842Y0295887D02*
X0256842Y0299023D01*
X0257626Y0299023D01*
X0256842Y0300591D02*
X0256842Y0301375D01*
X0254249Y0299023D02*
X0251897Y0299023D01*
X0251113Y0298239D01*
X0251113Y0295887D01*
X0254249Y0295887D02*
X0254249Y0299023D01*
X0262690Y0300591D02*
X0262690Y0295887D01*
X0264498Y0295887D02*
X0265282Y0296671D01*
X0268658Y0300591D02*
X0268658Y0301375D01*
X0244121Y0298239D02*
X0243337Y0299023D01*
X0241769Y0299023D01*
X0240985Y0298239D01*
X0240985Y0297455D01*
X0244121Y0297455D01*
X0244121Y0296671D02*
X0244121Y0298239D01*
X0244121Y0296671D02*
X0243337Y0295887D01*
X0241769Y0295887D01*
X0239057Y0296671D02*
X0238273Y0295887D01*
X0235921Y0295887D01*
X0233992Y0296671D02*
X0233208Y0295887D01*
X0231640Y0295887D01*
X0230856Y0296671D01*
X0230856Y0298239D01*
X0231640Y0299023D01*
X0233208Y0299023D01*
X0233992Y0298239D01*
X0233992Y0296671D01*
X0235921Y0299023D02*
X0238273Y0299023D01*
X0239057Y0298239D01*
X0239057Y0296671D01*
X0228928Y0295887D02*
X0227360Y0295887D01*
X0228144Y0295887D02*
X0228144Y0300591D01*
X0228928Y0300591D01*
X0225552Y0298239D02*
X0224768Y0299023D01*
X0223200Y0299023D01*
X0222416Y0298239D01*
X0222416Y0296671D01*
X0223200Y0295887D01*
X0224768Y0295887D01*
X0225552Y0296671D01*
X0225552Y0298239D01*
X0220487Y0298239D02*
X0219703Y0299023D01*
X0217351Y0299023D01*
X0217351Y0295103D01*
X0218135Y0294319D01*
X0218919Y0294319D01*
X0219703Y0295887D02*
X0217351Y0295887D01*
X0215423Y0295887D02*
X0213855Y0295887D01*
X0214639Y0295887D02*
X0214639Y0299023D01*
X0215423Y0299023D01*
X0214639Y0300591D02*
X0214639Y0301375D01*
X0212047Y0298239D02*
X0211263Y0299023D01*
X0208911Y0299023D01*
X0206198Y0299023D02*
X0204630Y0299023D01*
X0203846Y0298239D01*
X0203846Y0295887D01*
X0206198Y0295887D01*
X0206982Y0296671D01*
X0206198Y0297455D01*
X0203846Y0297455D01*
X0201918Y0295887D02*
X0200350Y0295887D01*
X0201134Y0295887D02*
X0201134Y0300591D01*
X0201918Y0300591D01*
X0208911Y0295887D02*
X0211263Y0295887D01*
X0212047Y0296671D01*
X0212047Y0298239D01*
X0219703Y0295887D02*
X0220487Y0296671D01*
X0220487Y0298239D01*
X0193478Y0300591D02*
X0192694Y0300591D01*
X0192694Y0295887D01*
X0193478Y0295887D02*
X0191910Y0295887D01*
X0190101Y0295887D02*
X0188533Y0295887D01*
X0189317Y0295887D02*
X0189317Y0299023D01*
X0190101Y0299023D01*
X0189317Y0300591D02*
X0189317Y0301375D01*
X0186725Y0299023D02*
X0185941Y0299023D01*
X0185157Y0298239D01*
X0184373Y0299023D01*
X0183589Y0298239D01*
X0183589Y0295887D01*
X0185157Y0295887D02*
X0185157Y0298239D01*
X0186725Y0299023D02*
X0186725Y0295887D01*
X0181661Y0295887D02*
X0180093Y0295887D01*
X0180877Y0295887D02*
X0180877Y0299023D01*
X0181661Y0299023D01*
X0180877Y0300591D02*
X0180877Y0301375D01*
X0178285Y0299023D02*
X0176717Y0299023D01*
X0177501Y0299807D02*
X0177501Y0296671D01*
X0176717Y0295887D01*
X0174908Y0295887D02*
X0172556Y0295887D01*
X0171772Y0296671D01*
X0172556Y0297455D01*
X0174124Y0297455D01*
X0174908Y0298239D01*
X0174124Y0299023D01*
X0171772Y0299023D01*
X0300479Y0259245D02*
X0302580Y0259245D01*
X0303281Y0258544D01*
X0302580Y0257844D01*
X0301179Y0257844D01*
X0300479Y0257143D01*
X0301179Y0256443D01*
X0303281Y0256443D01*
X0305083Y0257844D02*
X0307885Y0257844D01*
X0307885Y0258544D02*
X0307184Y0259245D01*
X0305783Y0259245D01*
X0305083Y0258544D01*
X0305083Y0257844D01*
X0305783Y0256443D02*
X0307184Y0256443D01*
X0307885Y0257143D01*
X0307885Y0258544D01*
X0309553Y0259245D02*
X0310954Y0259245D01*
X0310254Y0259946D02*
X0310254Y0257143D01*
X0309553Y0256443D01*
X0312756Y0256443D02*
X0314858Y0256443D01*
X0315558Y0257143D01*
X0314858Y0257844D01*
X0312756Y0257844D01*
X0312756Y0258544D02*
X0312756Y0256443D01*
X0312756Y0258544D02*
X0313456Y0259245D01*
X0314858Y0259245D01*
X0317360Y0259245D02*
X0318060Y0258544D01*
X0320162Y0258544D01*
X0320162Y0256443D02*
X0318060Y0256443D01*
X0317360Y0257143D01*
X0317360Y0257844D01*
X0318060Y0258544D01*
X0317360Y0259245D02*
X0317360Y0259946D01*
X0318060Y0260646D01*
X0320162Y0260646D01*
X0320162Y0256443D01*
X0326434Y0256443D02*
X0327835Y0256443D01*
X0327135Y0256443D02*
X0327135Y0260646D01*
X0327835Y0260646D01*
X0329637Y0258544D02*
X0330337Y0259245D01*
X0331739Y0259245D01*
X0332439Y0258544D01*
X0332439Y0257143D01*
X0331739Y0256443D01*
X0330337Y0256443D01*
X0329637Y0257844D02*
X0332439Y0257844D01*
X0334107Y0256443D02*
X0335508Y0256443D01*
X0334808Y0256443D02*
X0334808Y0259245D01*
X0335508Y0259245D01*
X0334808Y0260646D02*
X0334808Y0261347D01*
X0335575Y0263943D02*
X0333473Y0263943D01*
X0333473Y0266044D01*
X0334174Y0266745D01*
X0335575Y0266745D01*
X0335575Y0265344D02*
X0333473Y0265344D01*
X0335575Y0265344D02*
X0336276Y0264643D01*
X0335575Y0263943D01*
X0338077Y0263943D02*
X0338077Y0268146D01*
X0340880Y0268146D02*
X0340880Y0263943D01*
X0339479Y0265344D01*
X0338077Y0263943D01*
X0338011Y0259245D02*
X0337310Y0258544D01*
X0337310Y0256443D01*
X0340112Y0256443D02*
X0340112Y0259245D01*
X0338011Y0259245D01*
X0341914Y0258544D02*
X0341914Y0256443D01*
X0344016Y0256443D01*
X0344716Y0257143D01*
X0344016Y0257844D01*
X0341914Y0257844D01*
X0341914Y0258544D02*
X0342615Y0259245D01*
X0344016Y0259245D01*
X0346518Y0259946D02*
X0347218Y0260646D01*
X0349320Y0260646D01*
X0349320Y0256443D01*
X0347218Y0256443D01*
X0346518Y0257143D01*
X0346518Y0259946D01*
X0347285Y0263943D02*
X0347285Y0266044D01*
X0347986Y0266745D01*
X0349387Y0266745D01*
X0350088Y0266044D01*
X0351756Y0266745D02*
X0353157Y0266745D01*
X0352456Y0267446D02*
X0352456Y0264643D01*
X0351756Y0263943D01*
X0350088Y0263943D02*
X0350088Y0268146D01*
X0354892Y0266745D02*
X0355592Y0266745D01*
X0356993Y0265344D01*
X0356993Y0263943D02*
X0356993Y0266745D01*
X0358795Y0266044D02*
X0359496Y0266745D01*
X0360897Y0266745D01*
X0361597Y0266044D01*
X0361597Y0264643D01*
X0360897Y0263943D01*
X0359496Y0263943D01*
X0358795Y0264643D01*
X0358795Y0266044D01*
X0363399Y0263943D02*
X0363399Y0268146D01*
X0366201Y0268146D02*
X0363399Y0263943D01*
X0366201Y0263943D02*
X0366201Y0268146D01*
X0372607Y0266044D02*
X0372607Y0263943D01*
X0372607Y0266044D02*
X0373307Y0266745D01*
X0375409Y0266745D01*
X0375409Y0263943D01*
X0377077Y0263943D02*
X0378478Y0263943D01*
X0377778Y0263943D02*
X0377778Y0266745D01*
X0378478Y0266745D01*
X0377778Y0268146D02*
X0377778Y0268847D01*
X0384884Y0268146D02*
X0384884Y0263943D01*
X0386986Y0263943D01*
X0387686Y0264643D01*
X0387686Y0266044D01*
X0386986Y0266745D01*
X0384884Y0266745D01*
X0389488Y0266044D02*
X0389488Y0265344D01*
X0392290Y0265344D01*
X0392290Y0266044D02*
X0391590Y0266745D01*
X0390188Y0266745D01*
X0389488Y0266044D01*
X0390188Y0263943D02*
X0391590Y0263943D01*
X0392290Y0264643D01*
X0392290Y0266044D01*
X0394092Y0266044D02*
X0394792Y0266745D01*
X0396894Y0266745D01*
X0396894Y0263943D01*
X0398696Y0263943D02*
X0400797Y0263943D01*
X0401498Y0264643D01*
X0401498Y0266044D01*
X0400797Y0266745D01*
X0398696Y0266745D01*
X0398696Y0263242D01*
X0399396Y0262541D01*
X0400097Y0262541D01*
X0403166Y0263943D02*
X0404567Y0263943D01*
X0403867Y0263943D02*
X0403867Y0266745D01*
X0404567Y0266745D01*
X0403867Y0268146D02*
X0403867Y0268847D01*
X0406369Y0266745D02*
X0408471Y0266745D01*
X0409171Y0266044D01*
X0408471Y0265344D01*
X0407069Y0265344D01*
X0406369Y0264643D01*
X0407069Y0263943D01*
X0409171Y0263943D01*
X0410973Y0265344D02*
X0413775Y0265344D01*
X0413775Y0266044D02*
X0413075Y0266745D01*
X0411673Y0266745D01*
X0410973Y0266044D01*
X0410973Y0265344D01*
X0411673Y0263943D02*
X0413075Y0263943D01*
X0413775Y0264643D01*
X0413775Y0266044D01*
X0415577Y0264643D02*
X0415577Y0267446D01*
X0416277Y0268146D01*
X0418379Y0268146D01*
X0418379Y0263943D01*
X0416277Y0263943D01*
X0415577Y0264643D01*
X0394092Y0263943D02*
X0394092Y0266044D01*
X0363132Y0260646D02*
X0363132Y0256443D01*
X0361030Y0256443D01*
X0360330Y0257143D01*
X0360330Y0258544D01*
X0361030Y0259245D01*
X0363132Y0259245D01*
X0358528Y0259245D02*
X0358528Y0257143D01*
X0357827Y0256443D01*
X0355726Y0256443D01*
X0355726Y0255742D02*
X0356426Y0255041D01*
X0357127Y0255041D01*
X0355726Y0255742D02*
X0355726Y0259245D01*
X0331672Y0263943D02*
X0330271Y0263943D01*
X0330971Y0263943D02*
X0330971Y0268146D01*
X0331672Y0268146D01*
X0328603Y0266044D02*
X0327902Y0266745D01*
X0326501Y0266745D01*
X0325800Y0266044D01*
X0325800Y0265344D01*
X0328603Y0265344D01*
X0328603Y0266044D02*
X0328603Y0264643D01*
X0327902Y0263943D01*
X0326501Y0263943D01*
X0323999Y0263943D02*
X0321897Y0263943D01*
X0321196Y0264643D01*
X0321897Y0265344D01*
X0323298Y0265344D01*
X0323999Y0266044D01*
X0323298Y0266745D01*
X0321196Y0266745D01*
X0314791Y0268146D02*
X0314791Y0264643D01*
X0314090Y0263943D01*
X0312689Y0263943D01*
X0311988Y0264643D01*
X0311988Y0268146D01*
X0310187Y0268146D02*
X0310187Y0263943D01*
X0310187Y0265344D02*
X0307384Y0268146D01*
X0309486Y0266044D02*
X0307384Y0263943D01*
X0329637Y0258544D02*
X0329637Y0257844D01*
X0369281Y0295103D02*
X0370065Y0294319D01*
X0370849Y0294319D01*
X0371633Y0295887D02*
X0369281Y0295887D01*
X0369281Y0295103D02*
X0369281Y0299023D01*
X0372417Y0299023D02*
X0372417Y0296671D01*
X0371633Y0295887D01*
X0374345Y0295887D02*
X0376697Y0295887D01*
X0377481Y0296671D01*
X0377481Y0298239D01*
X0376697Y0299023D01*
X0374345Y0299023D01*
X0374345Y0295103D01*
X0375129Y0294319D01*
X0375913Y0294319D01*
X0379410Y0296671D02*
X0379410Y0298239D01*
X0380194Y0299023D01*
X0381762Y0299023D01*
X0382546Y0298239D01*
X0382546Y0296671D01*
X0381762Y0295887D01*
X0380194Y0295887D01*
X0379410Y0296671D01*
X0384354Y0295887D02*
X0385922Y0295887D01*
X0385138Y0295887D02*
X0385138Y0300591D01*
X0385922Y0300591D01*
X0387850Y0298239D02*
X0388634Y0299023D01*
X0390202Y0299023D01*
X0390986Y0298239D01*
X0390986Y0296671D01*
X0390202Y0295887D01*
X0388634Y0295887D01*
X0387850Y0296671D01*
X0387850Y0298239D01*
X0392914Y0298239D02*
X0393698Y0299023D01*
X0396051Y0299023D01*
X0396051Y0295887D01*
X0397979Y0295887D02*
X0397979Y0298239D01*
X0398763Y0299023D01*
X0400331Y0299023D01*
X0401115Y0298239D01*
X0403043Y0299023D02*
X0405395Y0299023D01*
X0406179Y0298239D01*
X0406179Y0296671D01*
X0405395Y0295887D01*
X0403043Y0295887D01*
X0401115Y0295887D02*
X0401115Y0300591D01*
X0408107Y0298239D02*
X0408107Y0297455D01*
X0411243Y0297455D01*
X0411243Y0298239D02*
X0410459Y0299023D01*
X0408891Y0299023D01*
X0408107Y0298239D01*
X0408891Y0295887D02*
X0410459Y0295887D01*
X0411243Y0296671D01*
X0411243Y0298239D01*
X0413172Y0300591D02*
X0416308Y0300591D01*
X0414740Y0300591D02*
X0414740Y0295887D01*
X0392914Y0295887D02*
X0392914Y0298239D01*
X0362288Y0299023D02*
X0360720Y0299023D01*
X0361504Y0299807D02*
X0361504Y0296671D01*
X0360720Y0295887D01*
X0358912Y0295887D02*
X0358912Y0300591D01*
X0358128Y0299023D02*
X0356560Y0299023D01*
X0355776Y0298239D01*
X0355776Y0295887D01*
X0353848Y0296671D02*
X0353064Y0297455D01*
X0350712Y0297455D01*
X0350712Y0298239D02*
X0350712Y0295887D01*
X0353064Y0295887D01*
X0353848Y0296671D01*
X0353064Y0299023D02*
X0351496Y0299023D01*
X0350712Y0298239D01*
X0348784Y0299023D02*
X0347216Y0299023D01*
X0348000Y0299807D02*
X0348000Y0296671D01*
X0347216Y0295887D01*
X0358128Y0299023D02*
X0358912Y0298239D01*
X0343166Y0143941D02*
X0337166Y0143941D01*
X0337106Y0143939D01*
X0337045Y0143934D01*
X0336986Y0143925D01*
X0336927Y0143912D01*
X0336868Y0143896D01*
X0336811Y0143876D01*
X0336756Y0143853D01*
X0336701Y0143826D01*
X0336649Y0143797D01*
X0336598Y0143764D01*
X0336549Y0143728D01*
X0336503Y0143690D01*
X0336459Y0143648D01*
X0336417Y0143604D01*
X0336379Y0143558D01*
X0336343Y0143509D01*
X0336310Y0143458D01*
X0336281Y0143406D01*
X0336254Y0143351D01*
X0336231Y0143296D01*
X0336211Y0143239D01*
X0336195Y0143180D01*
X0336182Y0143121D01*
X0336173Y0143062D01*
X0336168Y0143001D01*
X0336166Y0142941D01*
X0336166Y0131941D01*
X0336168Y0131881D01*
X0336173Y0131820D01*
X0336182Y0131761D01*
X0336195Y0131702D01*
X0336211Y0131643D01*
X0336231Y0131586D01*
X0336254Y0131531D01*
X0336281Y0131476D01*
X0336310Y0131424D01*
X0336343Y0131373D01*
X0336379Y0131324D01*
X0336417Y0131278D01*
X0336459Y0131234D01*
X0336503Y0131192D01*
X0336549Y0131154D01*
X0336598Y0131118D01*
X0336649Y0131085D01*
X0336701Y0131056D01*
X0336756Y0131029D01*
X0336811Y0131006D01*
X0336868Y0130986D01*
X0336927Y0130970D01*
X0336986Y0130957D01*
X0337045Y0130948D01*
X0337106Y0130943D01*
X0337166Y0130941D01*
X0343166Y0130941D01*
X0343226Y0130943D01*
X0343287Y0130948D01*
X0343346Y0130957D01*
X0343405Y0130970D01*
X0343464Y0130986D01*
X0343521Y0131006D01*
X0343576Y0131029D01*
X0343631Y0131056D01*
X0343683Y0131085D01*
X0343734Y0131118D01*
X0343783Y0131154D01*
X0343829Y0131192D01*
X0343873Y0131234D01*
X0343915Y0131278D01*
X0343953Y0131324D01*
X0343989Y0131373D01*
X0344022Y0131424D01*
X0344051Y0131476D01*
X0344078Y0131531D01*
X0344101Y0131586D01*
X0344121Y0131643D01*
X0344137Y0131702D01*
X0344150Y0131761D01*
X0344159Y0131820D01*
X0344164Y0131881D01*
X0344166Y0131941D01*
X0344166Y0142941D01*
X0344164Y0143001D01*
X0344159Y0143062D01*
X0344150Y0143121D01*
X0344137Y0143180D01*
X0344121Y0143239D01*
X0344101Y0143296D01*
X0344078Y0143351D01*
X0344051Y0143406D01*
X0344022Y0143458D01*
X0343989Y0143509D01*
X0343953Y0143558D01*
X0343915Y0143604D01*
X0343873Y0143648D01*
X0343829Y0143690D01*
X0343783Y0143728D01*
X0343734Y0143764D01*
X0343683Y0143797D01*
X0343631Y0143826D01*
X0343576Y0143853D01*
X0343521Y0143876D01*
X0343464Y0143896D01*
X0343405Y0143912D01*
X0343346Y0143925D01*
X0343287Y0143934D01*
X0343226Y0143939D01*
X0343166Y0143941D01*
X0298210Y0144083D02*
X0298210Y0133083D01*
X0298208Y0133023D01*
X0298203Y0132962D01*
X0298194Y0132903D01*
X0298181Y0132844D01*
X0298165Y0132785D01*
X0298145Y0132728D01*
X0298122Y0132673D01*
X0298095Y0132618D01*
X0298066Y0132566D01*
X0298033Y0132515D01*
X0297997Y0132466D01*
X0297959Y0132420D01*
X0297917Y0132376D01*
X0297873Y0132334D01*
X0297827Y0132296D01*
X0297778Y0132260D01*
X0297727Y0132227D01*
X0297675Y0132198D01*
X0297620Y0132171D01*
X0297565Y0132148D01*
X0297508Y0132128D01*
X0297449Y0132112D01*
X0297390Y0132099D01*
X0297331Y0132090D01*
X0297270Y0132085D01*
X0297210Y0132083D01*
X0291210Y0132083D01*
X0291150Y0132085D01*
X0291089Y0132090D01*
X0291030Y0132099D01*
X0290971Y0132112D01*
X0290912Y0132128D01*
X0290855Y0132148D01*
X0290800Y0132171D01*
X0290745Y0132198D01*
X0290693Y0132227D01*
X0290642Y0132260D01*
X0290593Y0132296D01*
X0290547Y0132334D01*
X0290503Y0132376D01*
X0290461Y0132420D01*
X0290423Y0132466D01*
X0290387Y0132515D01*
X0290354Y0132566D01*
X0290325Y0132618D01*
X0290298Y0132673D01*
X0290275Y0132728D01*
X0290255Y0132785D01*
X0290239Y0132844D01*
X0290226Y0132903D01*
X0290217Y0132962D01*
X0290212Y0133023D01*
X0290210Y0133083D01*
X0290210Y0144083D01*
X0290212Y0144143D01*
X0290217Y0144204D01*
X0290226Y0144263D01*
X0290239Y0144322D01*
X0290255Y0144381D01*
X0290275Y0144438D01*
X0290298Y0144493D01*
X0290325Y0144548D01*
X0290354Y0144600D01*
X0290387Y0144651D01*
X0290423Y0144700D01*
X0290461Y0144746D01*
X0290503Y0144790D01*
X0290547Y0144832D01*
X0290593Y0144870D01*
X0290642Y0144906D01*
X0290693Y0144939D01*
X0290745Y0144968D01*
X0290800Y0144995D01*
X0290855Y0145018D01*
X0290912Y0145038D01*
X0290971Y0145054D01*
X0291030Y0145067D01*
X0291089Y0145076D01*
X0291150Y0145081D01*
X0291210Y0145083D01*
X0297210Y0145083D01*
X0297270Y0145081D01*
X0297331Y0145076D01*
X0297390Y0145067D01*
X0297449Y0145054D01*
X0297508Y0145038D01*
X0297565Y0145018D01*
X0297620Y0144995D01*
X0297675Y0144968D01*
X0297727Y0144939D01*
X0297778Y0144906D01*
X0297827Y0144870D01*
X0297873Y0144832D01*
X0297917Y0144790D01*
X0297959Y0144746D01*
X0297997Y0144700D01*
X0298033Y0144651D01*
X0298066Y0144600D01*
X0298095Y0144548D01*
X0298122Y0144493D01*
X0298145Y0144438D01*
X0298165Y0144381D01*
X0298181Y0144322D01*
X0298194Y0144263D01*
X0298203Y0144204D01*
X0298208Y0144143D01*
X0298210Y0144083D01*
X0375710Y0107139D02*
X0375710Y0096139D01*
X0375712Y0096079D01*
X0375717Y0096018D01*
X0375726Y0095959D01*
X0375739Y0095900D01*
X0375755Y0095841D01*
X0375775Y0095784D01*
X0375798Y0095729D01*
X0375825Y0095674D01*
X0375854Y0095622D01*
X0375887Y0095571D01*
X0375923Y0095522D01*
X0375961Y0095476D01*
X0376003Y0095432D01*
X0376047Y0095390D01*
X0376093Y0095352D01*
X0376142Y0095316D01*
X0376193Y0095283D01*
X0376245Y0095254D01*
X0376300Y0095227D01*
X0376355Y0095204D01*
X0376412Y0095184D01*
X0376471Y0095168D01*
X0376530Y0095155D01*
X0376589Y0095146D01*
X0376650Y0095141D01*
X0376710Y0095139D01*
X0382710Y0095139D01*
X0382770Y0095141D01*
X0382831Y0095146D01*
X0382890Y0095155D01*
X0382949Y0095168D01*
X0383008Y0095184D01*
X0383065Y0095204D01*
X0383120Y0095227D01*
X0383175Y0095254D01*
X0383227Y0095283D01*
X0383278Y0095316D01*
X0383327Y0095352D01*
X0383373Y0095390D01*
X0383417Y0095432D01*
X0383459Y0095476D01*
X0383497Y0095522D01*
X0383533Y0095571D01*
X0383566Y0095622D01*
X0383595Y0095674D01*
X0383622Y0095729D01*
X0383645Y0095784D01*
X0383665Y0095841D01*
X0383681Y0095900D01*
X0383694Y0095959D01*
X0383703Y0096018D01*
X0383708Y0096079D01*
X0383710Y0096139D01*
X0383710Y0107139D01*
X0383708Y0107199D01*
X0383703Y0107260D01*
X0383694Y0107319D01*
X0383681Y0107378D01*
X0383665Y0107437D01*
X0383645Y0107494D01*
X0383622Y0107549D01*
X0383595Y0107604D01*
X0383566Y0107656D01*
X0383533Y0107707D01*
X0383497Y0107756D01*
X0383459Y0107802D01*
X0383417Y0107846D01*
X0383373Y0107888D01*
X0383327Y0107926D01*
X0383278Y0107962D01*
X0383227Y0107995D01*
X0383175Y0108024D01*
X0383120Y0108051D01*
X0383065Y0108074D01*
X0383008Y0108094D01*
X0382949Y0108110D01*
X0382890Y0108123D01*
X0382831Y0108132D01*
X0382770Y0108137D01*
X0382710Y0108139D01*
X0376710Y0108139D01*
X0376650Y0108137D01*
X0376589Y0108132D01*
X0376530Y0108123D01*
X0376471Y0108110D01*
X0376412Y0108094D01*
X0376355Y0108074D01*
X0376300Y0108051D01*
X0376245Y0108024D01*
X0376193Y0107995D01*
X0376142Y0107962D01*
X0376093Y0107926D01*
X0376047Y0107888D01*
X0376003Y0107846D01*
X0375961Y0107802D01*
X0375923Y0107756D01*
X0375887Y0107707D01*
X0375854Y0107656D01*
X0375825Y0107604D01*
X0375798Y0107549D01*
X0375775Y0107494D01*
X0375755Y0107437D01*
X0375739Y0107378D01*
X0375726Y0107319D01*
X0375717Y0107260D01*
X0375712Y0107199D01*
X0375710Y0107139D01*
X0273494Y0076752D02*
X0273494Y0061004D01*
X0271526Y0061004D01*
X0264833Y0061004D02*
X0249872Y0061004D01*
X0243179Y0061004D02*
X0241211Y0061004D01*
X0241211Y0076752D01*
X0243179Y0076752D01*
X0249872Y0076752D02*
X0264833Y0076752D01*
X0271526Y0076752D02*
X0273494Y0076752D01*
D15*
X0413081Y0225084D03*
D16*
X0307289Y0164393D02*
X0307289Y0161391D01*
X0307289Y0162892D02*
X0302785Y0162892D01*
X0302785Y0159789D02*
X0305788Y0159789D01*
X0307289Y0158288D01*
X0305788Y0156787D01*
X0302785Y0156787D01*
X0303536Y0155185D02*
X0302785Y0154435D01*
X0302785Y0152183D01*
X0307289Y0152183D01*
X0307289Y0154435D01*
X0306538Y0155185D01*
X0305788Y0155185D01*
X0305037Y0154435D01*
X0305037Y0152183D01*
X0305037Y0154435D02*
X0304287Y0155185D01*
X0303536Y0155185D01*
X0305037Y0156787D02*
X0305037Y0159789D01*
X0302035Y0150581D02*
X0302035Y0147579D01*
X0304287Y0145977D02*
X0302785Y0144476D01*
X0304287Y0142975D01*
X0307289Y0142975D01*
X0306538Y0141373D02*
X0305788Y0141373D01*
X0305037Y0140623D01*
X0304287Y0141373D01*
X0303536Y0141373D01*
X0302785Y0140623D01*
X0302785Y0139122D01*
X0303536Y0138371D01*
X0303536Y0136820D02*
X0302785Y0136820D01*
X0302785Y0136069D01*
X0303536Y0136069D01*
X0303536Y0136820D01*
X0303536Y0134468D02*
X0302785Y0133717D01*
X0302785Y0132216D01*
X0303536Y0131465D01*
X0305037Y0132966D02*
X0305037Y0133717D01*
X0304287Y0134468D01*
X0303536Y0134468D01*
X0305037Y0133717D02*
X0305788Y0134468D01*
X0306538Y0134468D01*
X0307289Y0133717D01*
X0307289Y0132216D01*
X0306538Y0131465D01*
X0306538Y0138371D02*
X0307289Y0139122D01*
X0307289Y0140623D01*
X0306538Y0141373D01*
X0305037Y0140623D02*
X0305037Y0139872D01*
X0304287Y0145977D02*
X0307289Y0145977D01*
X0333282Y0147247D02*
X0334033Y0146497D01*
X0333282Y0147247D02*
X0333282Y0148749D01*
X0334033Y0149499D01*
X0334783Y0149499D01*
X0335534Y0148749D01*
X0335534Y0147247D01*
X0336284Y0146497D01*
X0337035Y0146497D01*
X0337786Y0147247D01*
X0337786Y0148749D01*
X0337035Y0149499D01*
X0337786Y0152602D02*
X0337786Y0154103D01*
X0337786Y0153353D02*
X0334033Y0153353D01*
X0333282Y0152602D01*
X0333282Y0151851D01*
X0334033Y0151101D01*
X0333282Y0155705D02*
X0336284Y0158707D01*
X0337035Y0158707D01*
X0337786Y0157957D01*
X0337786Y0156455D01*
X0337035Y0155705D01*
X0333282Y0155705D02*
X0333282Y0158707D01*
X0267606Y0137599D02*
X0259732Y0137599D01*
X0253826Y0134450D01*
X0254220Y0134450D01*
X0267606Y0137599D02*
X0267606Y0117127D01*
X0261700Y0117127D01*
X0261700Y0101379D01*
X0267606Y0101379D01*
X0267606Y0080906D01*
X0267606Y0080513D02*
X0260126Y0080513D01*
X0253826Y0084056D01*
X0259732Y0093505D02*
X0259732Y0097048D01*
X0258157Y0095473D02*
X0261307Y0095473D01*
X0208485Y0109253D02*
X0208494Y0109979D01*
X0208521Y0110705D01*
X0208565Y0111430D01*
X0208627Y0112154D01*
X0208708Y0112875D01*
X0208805Y0113595D01*
X0208921Y0114312D01*
X0209054Y0115026D01*
X0209204Y0115737D01*
X0209372Y0116444D01*
X0209557Y0117146D01*
X0209759Y0117843D01*
X0209979Y0118536D01*
X0210215Y0119223D01*
X0210468Y0119903D01*
X0210738Y0120578D01*
X0211024Y0121245D01*
X0211326Y0121906D01*
X0211645Y0122558D01*
X0211979Y0123203D01*
X0212330Y0123839D01*
X0212695Y0124467D01*
X0213076Y0125085D01*
X0213472Y0125694D01*
X0213883Y0126293D01*
X0214309Y0126882D01*
X0214748Y0127460D01*
X0215202Y0128027D01*
X0215670Y0128582D01*
X0216151Y0129126D01*
X0216645Y0129659D01*
X0217153Y0130178D01*
X0217672Y0130686D01*
X0218205Y0131180D01*
X0218749Y0131661D01*
X0219304Y0132129D01*
X0219871Y0132583D01*
X0220449Y0133022D01*
X0221038Y0133448D01*
X0221637Y0133859D01*
X0222246Y0134255D01*
X0222864Y0134636D01*
X0223492Y0135001D01*
X0224128Y0135352D01*
X0224773Y0135686D01*
X0225425Y0136005D01*
X0226086Y0136307D01*
X0226753Y0136593D01*
X0227428Y0136863D01*
X0228108Y0137116D01*
X0228795Y0137352D01*
X0229488Y0137572D01*
X0230185Y0137774D01*
X0230887Y0137959D01*
X0231594Y0138127D01*
X0232305Y0138277D01*
X0233019Y0138410D01*
X0233736Y0138526D01*
X0234456Y0138623D01*
X0235177Y0138704D01*
X0235901Y0138766D01*
X0236626Y0138810D01*
X0237352Y0138837D01*
X0238078Y0138846D01*
X0238804Y0138837D01*
X0239530Y0138810D01*
X0240255Y0138766D01*
X0240979Y0138704D01*
X0241700Y0138623D01*
X0242420Y0138526D01*
X0243137Y0138410D01*
X0243851Y0138277D01*
X0244562Y0138127D01*
X0245269Y0137959D01*
X0245971Y0137774D01*
X0246668Y0137572D01*
X0247361Y0137352D01*
X0248048Y0137116D01*
X0248728Y0136863D01*
X0249403Y0136593D01*
X0250070Y0136307D01*
X0250731Y0136005D01*
X0251383Y0135686D01*
X0252028Y0135352D01*
X0252664Y0135001D01*
X0253292Y0134636D01*
X0253910Y0134255D01*
X0254519Y0133859D01*
X0255118Y0133448D01*
X0255707Y0133022D01*
X0256285Y0132583D01*
X0256852Y0132129D01*
X0257407Y0131661D01*
X0257951Y0131180D01*
X0258484Y0130686D01*
X0259003Y0130178D01*
X0259511Y0129659D01*
X0260005Y0129126D01*
X0260486Y0128582D01*
X0260954Y0128027D01*
X0261408Y0127460D01*
X0261847Y0126882D01*
X0262273Y0126293D01*
X0262684Y0125694D01*
X0263080Y0125085D01*
X0263461Y0124467D01*
X0263826Y0123839D01*
X0264177Y0123203D01*
X0264511Y0122558D01*
X0264830Y0121906D01*
X0265132Y0121245D01*
X0265418Y0120578D01*
X0265688Y0119903D01*
X0265941Y0119223D01*
X0266177Y0118536D01*
X0266397Y0117843D01*
X0266599Y0117146D01*
X0266784Y0116444D01*
X0266952Y0115737D01*
X0267102Y0115026D01*
X0267235Y0114312D01*
X0267351Y0113595D01*
X0267448Y0112875D01*
X0267529Y0112154D01*
X0267591Y0111430D01*
X0267635Y0110705D01*
X0267662Y0109979D01*
X0267671Y0109253D01*
X0267662Y0108527D01*
X0267635Y0107801D01*
X0267591Y0107076D01*
X0267529Y0106352D01*
X0267448Y0105631D01*
X0267351Y0104911D01*
X0267235Y0104194D01*
X0267102Y0103480D01*
X0266952Y0102769D01*
X0266784Y0102062D01*
X0266599Y0101360D01*
X0266397Y0100663D01*
X0266177Y0099970D01*
X0265941Y0099283D01*
X0265688Y0098603D01*
X0265418Y0097928D01*
X0265132Y0097261D01*
X0264830Y0096600D01*
X0264511Y0095948D01*
X0264177Y0095303D01*
X0263826Y0094667D01*
X0263461Y0094039D01*
X0263080Y0093421D01*
X0262684Y0092812D01*
X0262273Y0092213D01*
X0261847Y0091624D01*
X0261408Y0091046D01*
X0260954Y0090479D01*
X0260486Y0089924D01*
X0260005Y0089380D01*
X0259511Y0088847D01*
X0259003Y0088328D01*
X0258484Y0087820D01*
X0257951Y0087326D01*
X0257407Y0086845D01*
X0256852Y0086377D01*
X0256285Y0085923D01*
X0255707Y0085484D01*
X0255118Y0085058D01*
X0254519Y0084647D01*
X0253910Y0084251D01*
X0253292Y0083870D01*
X0252664Y0083505D01*
X0252028Y0083154D01*
X0251383Y0082820D01*
X0250731Y0082501D01*
X0250070Y0082199D01*
X0249403Y0081913D01*
X0248728Y0081643D01*
X0248048Y0081390D01*
X0247361Y0081154D01*
X0246668Y0080934D01*
X0245971Y0080732D01*
X0245269Y0080547D01*
X0244562Y0080379D01*
X0243851Y0080229D01*
X0243137Y0080096D01*
X0242420Y0079980D01*
X0241700Y0079883D01*
X0240979Y0079802D01*
X0240255Y0079740D01*
X0239530Y0079696D01*
X0238804Y0079669D01*
X0238078Y0079660D01*
X0237352Y0079669D01*
X0236626Y0079696D01*
X0235901Y0079740D01*
X0235177Y0079802D01*
X0234456Y0079883D01*
X0233736Y0079980D01*
X0233019Y0080096D01*
X0232305Y0080229D01*
X0231594Y0080379D01*
X0230887Y0080547D01*
X0230185Y0080732D01*
X0229488Y0080934D01*
X0228795Y0081154D01*
X0228108Y0081390D01*
X0227428Y0081643D01*
X0226753Y0081913D01*
X0226086Y0082199D01*
X0225425Y0082501D01*
X0224773Y0082820D01*
X0224128Y0083154D01*
X0223492Y0083505D01*
X0222864Y0083870D01*
X0222246Y0084251D01*
X0221637Y0084647D01*
X0221038Y0085058D01*
X0220449Y0085484D01*
X0219871Y0085923D01*
X0219304Y0086377D01*
X0218749Y0086845D01*
X0218205Y0087326D01*
X0217672Y0087820D01*
X0217153Y0088328D01*
X0216645Y0088847D01*
X0216151Y0089380D01*
X0215670Y0089924D01*
X0215202Y0090479D01*
X0214748Y0091046D01*
X0214309Y0091624D01*
X0213883Y0092213D01*
X0213472Y0092812D01*
X0213076Y0093421D01*
X0212695Y0094039D01*
X0212330Y0094667D01*
X0211979Y0095303D01*
X0211645Y0095948D01*
X0211326Y0096600D01*
X0211024Y0097261D01*
X0210738Y0097928D01*
X0210468Y0098603D01*
X0210215Y0099283D01*
X0209979Y0099970D01*
X0209759Y0100663D01*
X0209557Y0101360D01*
X0209372Y0102062D01*
X0209204Y0102769D01*
X0209054Y0103480D01*
X0208921Y0104194D01*
X0208805Y0104911D01*
X0208708Y0105631D01*
X0208627Y0106352D01*
X0208565Y0107076D01*
X0208521Y0107801D01*
X0208494Y0108527D01*
X0208485Y0109253D01*
X0214456Y0095473D02*
X0218393Y0095473D01*
X0264852Y0073878D02*
X0264852Y0063878D01*
X0297075Y0094003D02*
X0297077Y0094076D01*
X0297083Y0094150D01*
X0297093Y0094222D01*
X0297107Y0094294D01*
X0297124Y0094366D01*
X0297146Y0094436D01*
X0297171Y0094505D01*
X0297200Y0094572D01*
X0297233Y0094638D01*
X0297269Y0094702D01*
X0297308Y0094763D01*
X0297351Y0094823D01*
X0297397Y0094880D01*
X0297446Y0094935D01*
X0297498Y0094987D01*
X0297553Y0095036D01*
X0297610Y0095082D01*
X0297670Y0095125D01*
X0297731Y0095164D01*
X0297795Y0095200D01*
X0297861Y0095233D01*
X0297928Y0095262D01*
X0297997Y0095287D01*
X0298067Y0095309D01*
X0298139Y0095326D01*
X0298211Y0095340D01*
X0298283Y0095350D01*
X0298357Y0095356D01*
X0298430Y0095358D01*
X0298503Y0095356D01*
X0298577Y0095350D01*
X0298649Y0095340D01*
X0298721Y0095326D01*
X0298793Y0095309D01*
X0298863Y0095287D01*
X0298932Y0095262D01*
X0298999Y0095233D01*
X0299065Y0095200D01*
X0299129Y0095164D01*
X0299190Y0095125D01*
X0299250Y0095082D01*
X0299307Y0095036D01*
X0299362Y0094987D01*
X0299414Y0094935D01*
X0299463Y0094880D01*
X0299509Y0094823D01*
X0299552Y0094763D01*
X0299591Y0094702D01*
X0299627Y0094638D01*
X0299660Y0094572D01*
X0299689Y0094505D01*
X0299714Y0094436D01*
X0299736Y0094366D01*
X0299753Y0094294D01*
X0299767Y0094222D01*
X0299777Y0094150D01*
X0299783Y0094076D01*
X0299785Y0094003D01*
X0299783Y0093930D01*
X0299777Y0093856D01*
X0299767Y0093784D01*
X0299753Y0093712D01*
X0299736Y0093640D01*
X0299714Y0093570D01*
X0299689Y0093501D01*
X0299660Y0093434D01*
X0299627Y0093368D01*
X0299591Y0093304D01*
X0299552Y0093243D01*
X0299509Y0093183D01*
X0299463Y0093126D01*
X0299414Y0093071D01*
X0299362Y0093019D01*
X0299307Y0092970D01*
X0299250Y0092924D01*
X0299190Y0092881D01*
X0299129Y0092842D01*
X0299065Y0092806D01*
X0298999Y0092773D01*
X0298932Y0092744D01*
X0298863Y0092719D01*
X0298793Y0092697D01*
X0298721Y0092680D01*
X0298649Y0092666D01*
X0298577Y0092656D01*
X0298503Y0092650D01*
X0298430Y0092648D01*
X0298357Y0092650D01*
X0298283Y0092656D01*
X0298211Y0092666D01*
X0298139Y0092680D01*
X0298067Y0092697D01*
X0297997Y0092719D01*
X0297928Y0092744D01*
X0297861Y0092773D01*
X0297795Y0092806D01*
X0297731Y0092842D01*
X0297670Y0092881D01*
X0297610Y0092924D01*
X0297553Y0092970D01*
X0297498Y0093019D01*
X0297446Y0093071D01*
X0297397Y0093126D01*
X0297351Y0093183D01*
X0297308Y0093243D01*
X0297269Y0093304D01*
X0297233Y0093368D01*
X0297200Y0093434D01*
X0297171Y0093501D01*
X0297146Y0093570D01*
X0297124Y0093640D01*
X0297107Y0093712D01*
X0297093Y0093784D01*
X0297083Y0093856D01*
X0297077Y0093930D01*
X0297075Y0094003D01*
X0302446Y0095893D02*
X0315044Y0095893D01*
X0315044Y0115578D01*
X0302446Y0115578D01*
X0302446Y0095893D01*
X0331336Y0105563D02*
X0333836Y0105563D01*
X0332586Y0104313D02*
X0332586Y0106813D01*
X0385396Y0106598D02*
X0389900Y0106598D01*
X0388399Y0105097D01*
X0389900Y0103496D02*
X0389900Y0101994D01*
X0389900Y0102745D02*
X0386147Y0102745D01*
X0385396Y0101994D01*
X0385396Y0101244D01*
X0386147Y0100493D01*
X0386147Y0098892D02*
X0385396Y0098141D01*
X0385396Y0096640D01*
X0386147Y0095889D01*
X0387648Y0096640D02*
X0387648Y0098141D01*
X0386897Y0098892D01*
X0386147Y0098892D01*
X0387648Y0096640D02*
X0388399Y0095889D01*
X0389149Y0095889D01*
X0389900Y0096640D01*
X0389900Y0098141D01*
X0389149Y0098892D01*
X0385396Y0105097D02*
X0385396Y0108100D01*
D17*
X0237733Y0070577D02*
X0237733Y0069893D01*
X0236365Y0068525D01*
X0236365Y0066474D01*
X0236365Y0068525D02*
X0234997Y0069893D01*
X0234997Y0070577D01*
X0233129Y0069209D02*
X0231761Y0070577D01*
X0231761Y0066474D01*
X0233129Y0066474D02*
X0230393Y0066474D01*
D18*
X0236801Y0094428D02*
X0236034Y0095195D01*
X0236034Y0096730D01*
X0236801Y0097497D01*
X0236034Y0099032D02*
X0240638Y0099032D01*
X0240638Y0101333D01*
X0239871Y0102101D01*
X0238336Y0102101D01*
X0237569Y0101333D01*
X0237569Y0099032D01*
X0237569Y0100566D02*
X0236034Y0102101D01*
X0236034Y0103635D02*
X0236034Y0106705D01*
X0236034Y0108239D02*
X0239103Y0111309D01*
X0239871Y0111309D01*
X0240638Y0110541D01*
X0240638Y0109007D01*
X0239871Y0108239D01*
X0240638Y0105170D02*
X0236034Y0105170D01*
X0236034Y0108239D02*
X0236034Y0111309D01*
X0236034Y0112843D02*
X0239103Y0115913D01*
X0239871Y0115913D01*
X0240638Y0115145D01*
X0240638Y0113611D01*
X0239871Y0112843D01*
X0236034Y0112843D02*
X0236034Y0115913D01*
X0236801Y0117447D02*
X0239871Y0120517D01*
X0236801Y0120517D01*
X0236034Y0119749D01*
X0236034Y0118215D01*
X0236801Y0117447D01*
X0239871Y0117447D01*
X0240638Y0118215D01*
X0240638Y0119749D01*
X0239871Y0120517D01*
X0240638Y0105170D02*
X0239103Y0103635D01*
X0239871Y0097497D02*
X0240638Y0096730D01*
X0240638Y0095195D01*
X0239871Y0094428D01*
X0236801Y0094428D01*
X0291761Y0119473D02*
X0292528Y0118706D01*
X0294063Y0118706D01*
X0294830Y0119473D01*
X0296365Y0118706D02*
X0299434Y0118706D01*
X0296365Y0121775D01*
X0296365Y0122543D01*
X0297132Y0123310D01*
X0298667Y0123310D01*
X0299434Y0122543D01*
X0300969Y0123310D02*
X0304038Y0123310D01*
X0304038Y0121008D01*
X0302503Y0121775D01*
X0301736Y0121775D01*
X0300969Y0121008D01*
X0300969Y0119473D01*
X0301736Y0118706D01*
X0303271Y0118706D01*
X0304038Y0119473D01*
X0305573Y0119473D02*
X0306340Y0118706D01*
X0307875Y0118706D01*
X0308642Y0119473D01*
X0308642Y0120241D01*
X0307875Y0121008D01*
X0306340Y0121008D01*
X0305573Y0120241D01*
X0305573Y0119473D01*
X0306340Y0121008D02*
X0305573Y0121775D01*
X0305573Y0122543D01*
X0306340Y0123310D01*
X0307875Y0123310D01*
X0308642Y0122543D01*
X0308642Y0121775D01*
X0307875Y0121008D01*
X0310176Y0123310D02*
X0313246Y0123310D01*
X0313246Y0118706D01*
X0314780Y0119473D02*
X0315548Y0118706D01*
X0317082Y0118706D01*
X0317850Y0119473D01*
X0317850Y0122543D01*
X0317082Y0123310D01*
X0315548Y0123310D01*
X0314780Y0122543D01*
X0313246Y0121008D02*
X0311711Y0121008D01*
X0319384Y0121008D02*
X0320152Y0120241D01*
X0322454Y0120241D01*
X0322454Y0118706D02*
X0322454Y0123310D01*
X0320152Y0123310D01*
X0319384Y0122543D01*
X0319384Y0121008D01*
X0294830Y0122543D02*
X0294063Y0123310D01*
X0292528Y0123310D01*
X0291761Y0122543D01*
X0291761Y0121775D01*
X0292528Y0121008D01*
X0291761Y0120241D01*
X0291761Y0119473D01*
X0292528Y0121008D02*
X0293295Y0121008D01*
X0272266Y0161420D02*
X0269196Y0161420D01*
X0268429Y0162187D01*
X0268429Y0163721D01*
X0269196Y0164489D01*
X0268429Y0166023D02*
X0271498Y0169093D01*
X0272266Y0169093D01*
X0273033Y0168325D01*
X0273033Y0166791D01*
X0272266Y0166023D01*
X0272266Y0164489D02*
X0273033Y0163721D01*
X0273033Y0162187D01*
X0272266Y0161420D01*
X0268429Y0166023D02*
X0268429Y0169093D01*
X0269196Y0170627D02*
X0272266Y0173697D01*
X0269196Y0173697D01*
X0268429Y0172929D01*
X0268429Y0171395D01*
X0269196Y0170627D01*
X0272266Y0170627D01*
X0273033Y0171395D01*
X0273033Y0172929D01*
X0272266Y0173697D01*
X0300252Y0199499D02*
X0301019Y0198731D01*
X0302554Y0198731D01*
X0303321Y0199499D01*
X0303321Y0201033D02*
X0301787Y0201801D01*
X0301019Y0201801D01*
X0300252Y0201033D01*
X0300252Y0199499D01*
X0303321Y0201033D02*
X0303321Y0203335D01*
X0300252Y0203335D01*
X0306391Y0203335D02*
X0306391Y0198731D01*
X0307925Y0198731D02*
X0304856Y0198731D01*
X0307925Y0201801D02*
X0306391Y0203335D01*
X0309460Y0202568D02*
X0310227Y0203335D01*
X0311762Y0203335D01*
X0312529Y0202568D01*
X0312529Y0199499D01*
X0311762Y0198731D01*
X0310227Y0198731D01*
X0309460Y0199499D01*
X0332064Y0198766D02*
X0332831Y0199533D01*
X0335133Y0199533D01*
X0335133Y0197999D01*
X0334366Y0197231D01*
X0332831Y0197231D01*
X0332064Y0197999D01*
X0332064Y0198766D01*
X0333598Y0201068D02*
X0332064Y0201835D01*
X0333598Y0201068D02*
X0335133Y0199533D01*
X0336668Y0197231D02*
X0339737Y0197231D01*
X0338202Y0197231D02*
X0338202Y0201835D01*
X0339737Y0200301D01*
X0341272Y0201068D02*
X0342039Y0201835D01*
X0343574Y0201835D01*
X0344341Y0201068D01*
X0344341Y0197999D01*
X0343574Y0197231D01*
X0342039Y0197231D01*
X0341272Y0197999D01*
X0340737Y0210731D02*
X0337668Y0210731D01*
X0339202Y0210731D02*
X0339202Y0215335D01*
X0340737Y0213801D01*
X0342272Y0214568D02*
X0343039Y0215335D01*
X0344574Y0215335D01*
X0345341Y0214568D01*
X0345341Y0211499D01*
X0344574Y0210731D01*
X0343039Y0210731D01*
X0342272Y0211499D01*
X0336133Y0213033D02*
X0333831Y0215335D01*
X0333831Y0210731D01*
X0333064Y0213033D02*
X0336133Y0213033D01*
X0335633Y0220231D02*
X0332564Y0220231D01*
X0335633Y0220231D02*
X0332564Y0223301D01*
X0332564Y0224068D01*
X0333331Y0224835D01*
X0334866Y0224835D01*
X0335633Y0224068D01*
X0338702Y0224835D02*
X0338702Y0220231D01*
X0337168Y0220231D02*
X0340237Y0220231D01*
X0341772Y0220999D02*
X0342539Y0220231D01*
X0344074Y0220231D01*
X0344841Y0220999D01*
X0344841Y0224068D01*
X0344074Y0224835D01*
X0342539Y0224835D01*
X0341772Y0224068D01*
X0340237Y0223301D02*
X0338702Y0224835D01*
X0338202Y0231231D02*
X0338202Y0235835D01*
X0339737Y0234301D01*
X0341272Y0235068D02*
X0342039Y0235835D01*
X0343574Y0235835D01*
X0344341Y0235068D01*
X0344341Y0231999D01*
X0343574Y0231231D01*
X0342039Y0231231D01*
X0341272Y0231999D01*
X0339737Y0231231D02*
X0336668Y0231231D01*
X0335133Y0231999D02*
X0332064Y0235068D01*
X0332064Y0231999D01*
X0332831Y0231231D01*
X0334366Y0231231D01*
X0335133Y0231999D01*
X0335133Y0235068D01*
X0334366Y0235835D01*
X0332831Y0235835D01*
X0332064Y0235068D01*
X0298592Y0229415D02*
X0298592Y0226345D01*
X0297824Y0225578D01*
X0296290Y0225578D01*
X0295522Y0226345D01*
X0293988Y0225578D02*
X0290918Y0225578D01*
X0289384Y0225578D02*
X0286315Y0225578D01*
X0287849Y0225578D02*
X0287849Y0230182D01*
X0289384Y0228647D01*
X0292453Y0230182D02*
X0293988Y0228647D01*
X0295522Y0229415D02*
X0296290Y0230182D01*
X0297824Y0230182D01*
X0298592Y0229415D01*
X0292453Y0230182D02*
X0292453Y0225578D01*
X0292391Y0219835D02*
X0292391Y0215231D01*
X0293925Y0215231D02*
X0290856Y0215231D01*
X0289321Y0215999D02*
X0288554Y0215231D01*
X0287019Y0215231D01*
X0286252Y0215999D01*
X0286252Y0216766D01*
X0287019Y0217533D01*
X0287787Y0217533D01*
X0287019Y0217533D02*
X0286252Y0218301D01*
X0286252Y0219068D01*
X0287019Y0219835D01*
X0288554Y0219835D01*
X0289321Y0219068D01*
X0292391Y0219835D02*
X0293925Y0218301D01*
X0295460Y0219068D02*
X0296227Y0219835D01*
X0297762Y0219835D01*
X0298529Y0219068D01*
X0298529Y0215999D01*
X0297762Y0215231D01*
X0296227Y0215231D01*
X0295460Y0215999D01*
X0264533Y0216721D02*
X0264533Y0215187D01*
X0263766Y0214420D01*
X0260696Y0214420D01*
X0259929Y0215187D01*
X0259929Y0216721D01*
X0260696Y0217489D01*
X0259929Y0219023D02*
X0262998Y0222093D01*
X0263766Y0222093D01*
X0264533Y0221325D01*
X0264533Y0219791D01*
X0263766Y0219023D01*
X0263766Y0217489D02*
X0264533Y0216721D01*
X0259929Y0219023D02*
X0259929Y0222093D01*
X0259929Y0223627D02*
X0259929Y0226697D01*
X0259929Y0225162D02*
X0264533Y0225162D01*
X0262998Y0223627D01*
X0290413Y0236550D02*
X0290413Y0239619D01*
X0291180Y0240386D01*
X0292715Y0240386D01*
X0293482Y0239619D01*
X0293482Y0238852D01*
X0292715Y0238084D01*
X0290413Y0238084D01*
X0290413Y0236550D02*
X0291180Y0235782D01*
X0292715Y0235782D01*
X0293482Y0236550D01*
X0295017Y0236550D02*
X0295784Y0235782D01*
X0297319Y0235782D01*
X0298086Y0236550D01*
X0298086Y0239619D01*
X0297319Y0240386D01*
X0295784Y0240386D01*
X0295017Y0239619D01*
D19*
X0344656Y0118895D02*
X0344038Y0118278D01*
X0346507Y0115809D01*
X0345890Y0115192D01*
X0344656Y0115192D01*
X0344038Y0115809D01*
X0344038Y0118278D01*
X0344656Y0118895D02*
X0345890Y0118895D01*
X0346507Y0118278D01*
X0346507Y0115809D01*
X0347721Y0115192D02*
X0350190Y0115192D01*
X0347721Y0117661D01*
X0347721Y0118278D01*
X0348339Y0118895D01*
X0349573Y0118895D01*
X0350190Y0118278D01*
X0351405Y0118278D02*
X0351405Y0117044D01*
X0352022Y0116427D01*
X0353873Y0116427D01*
X0352639Y0116427D02*
X0351405Y0115192D01*
X0353873Y0115192D02*
X0353873Y0118895D01*
X0352022Y0118895D01*
X0351405Y0118278D01*
X0351664Y0111126D02*
X0351047Y0110509D01*
X0351047Y0109275D01*
X0351664Y0108657D01*
X0353516Y0108657D01*
X0353516Y0107423D02*
X0353516Y0111126D01*
X0351664Y0111126D01*
X0349833Y0110509D02*
X0349216Y0111126D01*
X0347981Y0111126D01*
X0347364Y0110509D01*
X0347364Y0109892D01*
X0349833Y0107423D01*
X0347364Y0107423D01*
X0346150Y0107423D02*
X0343681Y0107423D01*
X0344915Y0107423D02*
X0344915Y0111126D01*
X0346150Y0109892D01*
X0351047Y0107423D02*
X0352282Y0108657D01*
X0352224Y0095652D02*
X0351606Y0095034D01*
X0351606Y0093800D01*
X0352224Y0093183D01*
X0354075Y0093183D01*
X0352841Y0093183D02*
X0351606Y0091948D01*
X0350392Y0091948D02*
X0347923Y0094417D01*
X0347923Y0095034D01*
X0348540Y0095652D01*
X0349775Y0095652D01*
X0350392Y0095034D01*
X0352224Y0095652D02*
X0354075Y0095652D01*
X0354075Y0091948D01*
X0350392Y0091948D02*
X0347923Y0091948D01*
X0346709Y0091948D02*
X0344240Y0094417D01*
X0344240Y0095034D01*
X0344857Y0095652D01*
X0346092Y0095652D01*
X0346709Y0095034D01*
X0346709Y0091948D02*
X0344240Y0091948D01*
X0327784Y0091597D02*
X0327167Y0090980D01*
X0324698Y0090980D01*
X0324081Y0091597D01*
X0324081Y0092832D01*
X0324698Y0093449D01*
X0324698Y0094663D02*
X0324081Y0095280D01*
X0324081Y0096515D01*
X0324698Y0097132D01*
X0325315Y0097132D01*
X0325933Y0096515D01*
X0325933Y0095898D01*
X0325933Y0096515D02*
X0326550Y0097132D01*
X0327167Y0097132D01*
X0327784Y0096515D01*
X0327784Y0095280D01*
X0327167Y0094663D01*
X0327167Y0093449D02*
X0327784Y0092832D01*
X0327784Y0091597D01*
X0327167Y0098346D02*
X0327784Y0098964D01*
X0327784Y0100198D01*
X0327167Y0100815D01*
X0326550Y0100815D01*
X0325933Y0100198D01*
X0325315Y0100815D01*
X0324698Y0100815D01*
X0324081Y0100198D01*
X0324081Y0098964D01*
X0324698Y0098346D01*
X0325933Y0099581D02*
X0325933Y0100198D01*
X0327784Y0102030D02*
X0327784Y0104498D01*
X0327784Y0103264D02*
X0324081Y0103264D01*
M02*
