%
M48
M72
T01C0.01969
T02C0.03150
T03C0.03200
T04C0.03600
T05C0.03937
T06C0.04000
T07C0.04331
T08C0.05118
T09C0.05200
T10C0.05500
T11C0.05600
T12C0.07087
T13C0.13780
T14C0.20866
%
T01
X220924Y79084
X233930Y121883
X234056Y126788
X248804Y123288
X265907Y141286
X272179Y142545
X280229Y156531
X273430Y157312
X283229Y165531
X280229Y176531
X248930Y189312
X241804Y195907
X235847Y193433
X269930Y194312
X296566Y207007
X301403Y201955
X311451Y207657
X315787Y200317
X319532Y212813
X312427Y217769
X319373Y222873
X312618Y227866
X318801Y232863
X312531Y237866
X307729Y244031
X327101Y240069
X343991Y227924
X361559Y214333
X366300Y210734
X354646Y206015
X346857Y201393
X341424Y202584
X352905Y200485
X346638Y193943
X346528Y182821
X352455Y183020
X365108Y177644
X360808Y174359
X372591Y174359
X385744Y171502
X391747Y165265
X411754Y155169
X390964Y148620
X392444Y138204
X393198Y129915
X402488Y126122
X402649Y120944
X393543Y122380
X410428Y126479
X395109Y112092
X376352Y112319
X364881Y100842
X378998Y90648
X371767Y85701
X345765Y88985
X314126Y81022
X309381Y84306
X307798Y88890
X325717Y106223
X325896Y114072
X315213Y121837
X304849Y113492
X296490Y120540
X299921Y125424
X300460Y131271
X314424Y148084
X319924Y153584
X329424Y146584
X350153Y137985
X354506Y145440
X365202Y137985
X329611Y125237
X415838Y109147
X439193Y160642
X400424Y180584
X386406Y182113
X373161Y187531
X379924Y199584
X386802Y204954
X405943Y205410
X379924Y219084
X373001Y219855
X420580Y232006
X407424Y260084
X423863Y266674
X427863Y266674
X431863Y266674
X431863Y270674
X427863Y270674
X423863Y270674
X443424Y261084
X431863Y285674
X427863Y285674
X423863Y285674
X423863Y289674
X427863Y289674
X431863Y289674
X387457Y287674
X382457Y287674
X377457Y287674
X326417Y252154
X357228Y245586
X276585Y285800
X276585Y289800
X272585Y289800
X268585Y289800
X264585Y289800
X260585Y289800
X260585Y285800
X264585Y285800
X268585Y285800
X272585Y285800
X249971Y285716
X241804Y283800
X234817Y289804
X247971Y292216
X263299Y330780
X259826Y335719
X266455Y336553
X172237Y284752
X165347Y284752
X158457Y284752
X151568Y284752
X144678Y284752
X144678Y277862
X151568Y277862
X158457Y277862
X165347Y277862
X172237Y277862
X172237Y270972
X165347Y270972
X158457Y270972
X151568Y270972
X144678Y270972
X144678Y241445
X151568Y241445
X158457Y241445
X165347Y241445
X172237Y241445
X172237Y234555
X165347Y234555
X158457Y234555
X151568Y234555
X144678Y234555
X144678Y227665
X151568Y227665
X158457Y227665
X165347Y227665
X172237Y227665
X236734Y217653
X242910Y215250
X248910Y219750
X241804Y228682
X266063Y241531
X270832Y242462
X273625Y227534
X172237Y184358
X165347Y184358
X158457Y184358
X151568Y184358
X144678Y184358
X144678Y177468
X151568Y177468
X158457Y177468
X165347Y177468
X172237Y177468
X172237Y170579
X165347Y170579
X158457Y170579
X151568Y170579
X144678Y170579
X144678Y141051
X151568Y141051
X158457Y141051
X165347Y141051
X172237Y141051
X172237Y134161
X165347Y134161
X158457Y134161
X151568Y134161
X144678Y134161
X144678Y127271
X151568Y127271
X158457Y127271
X165347Y127271
X172237Y127271
X426754Y188669
T02
X167347Y191858
X149568Y191858
X149568Y220165
X167347Y220165
X167347Y292252
X149568Y292252
X149568Y119771
X167347Y119771
T03
X202229Y136208
X222229Y136208
X222229Y176208
X202229Y176208
X202229Y236208
X222229Y236208
X222229Y276208
X202229Y276208
X395576Y200531
X395729Y187531
X395729Y174531
X435729Y174531
X435729Y187531
X435576Y200531
X305716Y68704
X297842Y68704
X289968Y68704
X282094Y68704
T04
X462678Y216657
X472678Y216657
X472678Y226657
X462678Y226657
X462678Y236657
X472678Y236657
X472678Y246657
X462678Y246657
X462678Y256657
X472678Y256657
T05
X282229Y186031
X267229Y233531
X279729Y255031
X271229Y134031
X224299Y109253
T06
X283854Y121751
X283854Y131751
X329198Y159563
X339198Y159563
X349198Y159563
X359198Y159563
X369198Y159563
X379198Y159563
X417440Y132248
X427440Y132248
X443943Y136719
X453943Y136719
X463914Y136845
X473914Y136845
X401220Y88808
X401220Y78808
X411135Y63531
X291043Y160635
X291043Y170635
X291043Y180635
X323029Y188492
X333029Y188492
X291007Y250614
X291007Y260614
X291007Y270614
X159080Y315226
X149080Y315226
X139080Y315226
T07
X158457Y292252
X158457Y220165
X158457Y191858
X158457Y119771
T08
X253826Y109253
X213833Y342420
X193360Y342420
X153597Y342420
X133124Y342420
T09
X107229Y271531
X107229Y241531
X107229Y171531
X107229Y141531
X381906Y229571
X445339Y230571
X428229Y278531
X369905Y277341
X268229Y278531
X268229Y348531
X428229Y348531
T10
X388229Y325531
X358229Y325531
T11
X315740Y304048
X315740Y290268
T12
X127229Y276031
X87229Y276031
X87229Y236031
X127229Y236031
X127229Y176031
X87229Y176031
X87229Y136031
X127229Y136031
T13
X103932Y91707
X426745Y91700
X426745Y320164
X103932Y320092
T14
X64135Y280815
X64135Y231602
X64135Y180421
X64135Y131208
M30
