G75*
%MOIN*%
%OFA0B0*%
%FSLAX25Y25*%
%IPPOS*%
%LPD*%
%AMOC8*
5,1,8,0,0,1.08239X$1,22.5*
%
%ADD10R,0.02375X0.05524*%
%ADD11R,0.04737X0.05131*%
%ADD12R,0.05131X0.04737*%
%ADD13R,0.06700X0.08700*%
%ADD14R,0.15800X0.08700*%
%ADD15R,0.16800X0.05100*%
%ADD16C,0.08200*%
%ADD17R,0.08674X0.05524*%
%ADD18C,0.06800*%
%ADD19R,0.05500X0.21900*%
%ADD20C,0.05556*%
%ADD21C,0.07400*%
%ADD22R,0.06800X0.03300*%
%ADD23R,0.35249X0.21272*%
%ADD24OC8,0.06000*%
%ADD25C,0.06400*%
%ADD26OC8,0.06400*%
%ADD27R,0.05918X0.08280*%
%ADD28R,0.03162X0.05918*%
%ADD29C,0.09200*%
%ADD30C,0.04737*%
%ADD31C,0.05918*%
%ADD32OC8,0.09300*%
%ADD33R,0.06000X0.06000*%
%ADD34R,0.08674X0.06509*%
%ADD35R,0.06706X0.03950*%
%ADD36R,0.07100X0.02900*%
%ADD37R,0.07178X0.09383*%
%ADD38R,0.16548X0.28359*%
%ADD39C,0.22800*%
%ADD40C,0.04369*%
%ADD41C,0.05550*%
D10*
X0142416Y0169114D03*
X0144975Y0169114D03*
X0147534Y0169114D03*
X0150093Y0169114D03*
X0150093Y0186096D03*
X0147534Y0186096D03*
X0144975Y0186096D03*
X0142416Y0186096D03*
X0142409Y0242107D03*
X0144968Y0242107D03*
X0147528Y0242107D03*
X0150087Y0242107D03*
X0150087Y0259089D03*
X0147528Y0259089D03*
X0144968Y0259089D03*
X0142409Y0259089D03*
D11*
X0141299Y0267098D03*
X0141299Y0273791D03*
X0158821Y0259185D03*
X0165514Y0259185D03*
X0150098Y0234480D03*
X0150098Y0227787D03*
X0141133Y0227841D03*
X0141133Y0234534D03*
X0141127Y0200378D03*
X0141127Y0193685D03*
X0157800Y0186064D03*
X0164493Y0186064D03*
X0189215Y0165122D03*
X0195908Y0165122D03*
X0149627Y0161378D03*
X0149627Y0154685D03*
X0141108Y0154675D03*
X0141108Y0161368D03*
X0284205Y0138054D03*
X0290898Y0138054D03*
X0290931Y0129976D03*
X0284239Y0129976D03*
X0284250Y0121606D03*
X0290943Y0121606D03*
X0291020Y0106823D03*
X0284327Y0106823D03*
X0284237Y0098334D03*
X0290929Y0098334D03*
X0378710Y0148620D03*
X0378710Y0155313D03*
X0391827Y0130878D03*
X0391827Y0124185D03*
X0407110Y0208199D03*
X0407110Y0214892D03*
X0301880Y0311744D03*
X0301880Y0318437D03*
X0301952Y0327738D03*
X0301952Y0334431D03*
X0283173Y0343531D03*
X0276480Y0343531D03*
X0270173Y0343531D03*
X0263480Y0343531D03*
X0187074Y0341253D03*
X0187074Y0334560D03*
X0149771Y0325080D03*
X0149771Y0318388D03*
D12*
X0163517Y0324219D03*
X0170210Y0324219D03*
X0167827Y0238878D03*
X0167827Y0232185D03*
X0167827Y0225878D03*
X0167827Y0219185D03*
X0169827Y0167878D03*
X0169827Y0161185D03*
X0169827Y0154878D03*
X0169827Y0148185D03*
X0184783Y0151633D03*
X0191476Y0151633D03*
X0338477Y0208928D03*
X0338477Y0215621D03*
X0353288Y0217447D03*
X0353288Y0224140D03*
X0349709Y0295481D03*
X0343016Y0295481D03*
X0360110Y0295403D03*
X0366802Y0295403D03*
X0345986Y0347545D03*
X0339293Y0347545D03*
X0332173Y0347531D03*
X0325480Y0347531D03*
X0400228Y0130869D03*
X0400228Y0124176D03*
X0378827Y0117878D03*
X0378827Y0111185D03*
D13*
X0364038Y0333931D03*
X0355038Y0333931D03*
X0346038Y0333931D03*
X0329685Y0333954D03*
X0320685Y0333954D03*
X0311685Y0333954D03*
D14*
X0320785Y0309154D03*
X0355138Y0309131D03*
D15*
X0285627Y0320931D03*
X0261027Y0320931D03*
D16*
X0194234Y0277792D03*
X0194234Y0267792D03*
X0194234Y0257792D03*
X0176969Y0293003D03*
X0166969Y0293003D03*
X0156969Y0293003D03*
X0285524Y0217646D03*
X0295524Y0217646D03*
X0273827Y0184531D03*
X0263827Y0184531D03*
X0194542Y0183701D03*
X0194542Y0193701D03*
X0194542Y0203701D03*
X0219787Y0128971D03*
X0229787Y0128971D03*
X0239823Y0128936D03*
X0249823Y0128936D03*
X0378744Y0127994D03*
X0378744Y0137994D03*
D17*
X0364827Y0137783D03*
X0364827Y0129909D03*
X0364827Y0122035D03*
X0364827Y0114161D03*
X0364827Y0106287D03*
X0364827Y0098413D03*
X0364827Y0090539D03*
X0301047Y0090539D03*
X0301047Y0098413D03*
X0301047Y0106287D03*
X0301047Y0114161D03*
X0301047Y0122035D03*
X0301047Y0129909D03*
X0301047Y0137783D03*
X0301047Y0145657D03*
X0364827Y0145657D03*
D18*
X0332827Y0158531D02*
X0332827Y0164531D01*
X0322827Y0164531D02*
X0322827Y0158531D01*
X0312827Y0158531D02*
X0312827Y0164531D01*
X0302827Y0164531D02*
X0302827Y0158531D01*
X0292827Y0158531D02*
X0292827Y0164531D01*
X0282827Y0164531D02*
X0282827Y0158531D01*
X0359827Y0166531D02*
X0359827Y0172531D01*
X0369827Y0172531D02*
X0369827Y0166531D01*
X0379827Y0166531D02*
X0379827Y0172531D01*
X0389827Y0172531D02*
X0389827Y0166531D01*
X0399827Y0166531D02*
X0399827Y0172531D01*
X0409827Y0172531D02*
X0409827Y0166531D01*
D19*
X0113426Y0300496D03*
X0113426Y0339696D03*
D20*
X0277119Y0284509D02*
X0277119Y0279753D01*
X0283418Y0279753D02*
X0283418Y0284509D01*
X0289717Y0284509D02*
X0289717Y0279753D01*
X0286567Y0289990D02*
X0286567Y0294746D01*
X0280268Y0294746D02*
X0280268Y0289990D01*
D21*
X0269048Y0290549D02*
X0269048Y0283949D01*
X0297788Y0283949D02*
X0297788Y0290549D01*
D22*
X0312681Y0269740D03*
X0312681Y0264740D03*
X0312681Y0259740D03*
X0312681Y0254740D03*
X0312681Y0249740D03*
X0312681Y0244740D03*
X0312681Y0239740D03*
X0312681Y0234740D03*
X0333902Y0234740D03*
X0333902Y0239740D03*
X0333902Y0244740D03*
X0333902Y0249740D03*
X0333902Y0254740D03*
X0333902Y0259740D03*
X0333902Y0264740D03*
X0333902Y0269740D03*
D23*
X0051827Y0271791D03*
X0051827Y0229271D03*
X0051827Y0198791D03*
X0051827Y0156271D03*
D24*
X0232102Y0233538D03*
X0247827Y0233531D03*
X0247827Y0283531D03*
X0232102Y0283538D03*
X0237091Y0160740D03*
X0244965Y0160740D03*
X0252839Y0160740D03*
D25*
X0403827Y0287531D03*
D26*
X0403827Y0277531D03*
X0393827Y0277531D03*
X0393827Y0287531D03*
X0393827Y0267531D03*
X0393827Y0257531D03*
X0403827Y0257531D03*
X0403827Y0267531D03*
X0403827Y0247531D03*
X0393827Y0247531D03*
D27*
X0286231Y0077262D03*
X0286231Y0064664D03*
X0264577Y0064664D03*
X0264577Y0077262D03*
D28*
X0201307Y0122295D03*
X0196189Y0122295D03*
X0191465Y0122295D03*
X0186346Y0122295D03*
X0186346Y0143161D03*
X0191465Y0143161D03*
X0196189Y0143161D03*
X0201307Y0143161D03*
D29*
X0124602Y0163831D02*
X0116202Y0163831D01*
X0116202Y0177610D02*
X0124602Y0177610D01*
X0124602Y0191390D02*
X0116202Y0191390D01*
X0116183Y0236752D02*
X0124583Y0236752D01*
X0124583Y0250531D02*
X0116183Y0250531D01*
X0116183Y0264311D02*
X0124583Y0264311D01*
D30*
X0148047Y0136531D03*
D31*
X0177575Y0136531D03*
D32*
X0370827Y0065531D03*
D33*
X0229217Y0160740D03*
D34*
X0114432Y0063756D03*
X0147109Y0063756D03*
X0147109Y0117889D03*
X0114432Y0117889D03*
D35*
X0136873Y0103441D03*
X0136873Y0099110D03*
X0136873Y0094779D03*
X0136873Y0090448D03*
X0136873Y0086118D03*
X0136873Y0081787D03*
X0136873Y0077456D03*
X0136873Y0073126D03*
D36*
X0156383Y0332449D03*
X0156383Y0337449D03*
X0156383Y0342449D03*
X0156383Y0347449D03*
X0177283Y0347449D03*
X0177283Y0342449D03*
X0177283Y0337449D03*
X0177283Y0332449D03*
D37*
X0181099Y0311743D03*
X0164485Y0311743D03*
D38*
X0201142Y0325531D03*
X0240512Y0325531D03*
D39*
X0392316Y0320205D03*
X0069504Y0320134D03*
X0069504Y0091748D03*
X0392316Y0091741D03*
D40*
X0356327Y0117031D03*
X0356827Y0125531D03*
X0350827Y0133531D03*
X0350827Y0140531D03*
X0338827Y0151531D03*
X0356827Y0159531D03*
X0338827Y0176531D03*
X0327827Y0205531D03*
X0317049Y0208168D03*
X0316049Y0224168D03*
X0333853Y0228046D03*
X0327635Y0239749D03*
X0322899Y0260240D03*
X0341547Y0261536D03*
X0345840Y0266870D03*
X0347827Y0282531D03*
X0337777Y0289613D03*
X0371850Y0301773D03*
X0363899Y0325240D03*
X0370899Y0333240D03*
X0353322Y0342437D03*
X0336899Y0330240D03*
X0329899Y0324240D03*
X0317020Y0342656D03*
X0307036Y0343375D03*
X0294904Y0348731D03*
X0259245Y0335088D03*
X0284899Y0327240D03*
X0293036Y0314375D03*
X0287468Y0309862D03*
X0215695Y0258850D03*
X0158089Y0236886D03*
X0155238Y0241921D03*
X0184827Y0221531D03*
X0162019Y0214659D03*
X0150778Y0216478D03*
X0178500Y0203334D03*
X0221595Y0209702D03*
X0254532Y0210221D03*
X0227532Y0178221D03*
X0209827Y0151531D03*
X0196098Y0129966D03*
X0179532Y0108221D03*
X0154792Y0090462D03*
X0169386Y0085795D03*
X0194827Y0069531D03*
X0197827Y0075531D03*
X0198827Y0083531D03*
X0128019Y0111364D03*
X0125104Y0065976D03*
X0156840Y0152509D03*
X0161265Y0157499D03*
X0158014Y0163434D03*
X0155351Y0168884D03*
X0069120Y0164092D03*
X0065120Y0164092D03*
X0061120Y0164092D03*
X0057120Y0164092D03*
X0053120Y0164092D03*
X0049120Y0164092D03*
X0045120Y0164092D03*
X0041120Y0164092D03*
X0037120Y0164092D03*
X0037120Y0160092D03*
X0041120Y0160092D03*
X0045120Y0160092D03*
X0049120Y0160092D03*
X0053120Y0160092D03*
X0057120Y0160092D03*
X0061120Y0160092D03*
X0065120Y0160092D03*
X0069120Y0160092D03*
X0069120Y0156092D03*
X0065120Y0156092D03*
X0061120Y0156092D03*
X0057120Y0156092D03*
X0053120Y0156092D03*
X0049120Y0156092D03*
X0045120Y0156092D03*
X0041120Y0156092D03*
X0037120Y0156092D03*
X0037120Y0191092D03*
X0037120Y0195092D03*
X0037120Y0199092D03*
X0041120Y0199092D03*
X0045120Y0199092D03*
X0049120Y0199092D03*
X0053120Y0199092D03*
X0057120Y0199092D03*
X0061120Y0199092D03*
X0065120Y0199092D03*
X0069120Y0199092D03*
X0069120Y0195092D03*
X0065120Y0195092D03*
X0061120Y0195092D03*
X0057120Y0195092D03*
X0053120Y0195092D03*
X0049120Y0195092D03*
X0045120Y0195092D03*
X0041120Y0195092D03*
X0041120Y0191092D03*
X0045120Y0191092D03*
X0049120Y0191092D03*
X0053120Y0191092D03*
X0057120Y0191092D03*
X0061120Y0191092D03*
X0065120Y0191092D03*
X0069120Y0191092D03*
X0069120Y0229092D03*
X0069120Y0233092D03*
X0069120Y0237092D03*
X0065120Y0237092D03*
X0061120Y0237092D03*
X0057120Y0237092D03*
X0053120Y0237092D03*
X0049120Y0237092D03*
X0045120Y0237092D03*
X0041120Y0237092D03*
X0037120Y0237092D03*
X0037120Y0233092D03*
X0041120Y0233092D03*
X0045120Y0233092D03*
X0049120Y0233092D03*
X0053120Y0233092D03*
X0057120Y0233092D03*
X0061120Y0233092D03*
X0065120Y0233092D03*
X0065120Y0229092D03*
X0061120Y0229092D03*
X0057120Y0229092D03*
X0053120Y0229092D03*
X0049120Y0229092D03*
X0045120Y0229092D03*
X0041120Y0229092D03*
X0037120Y0229092D03*
X0037120Y0264092D03*
X0037120Y0268092D03*
X0037120Y0272092D03*
X0041120Y0272092D03*
X0045120Y0272092D03*
X0049120Y0272092D03*
X0053120Y0272092D03*
X0057120Y0272092D03*
X0061120Y0272092D03*
X0065120Y0272092D03*
X0069120Y0272092D03*
X0069120Y0268092D03*
X0065120Y0268092D03*
X0061120Y0268092D03*
X0057120Y0268092D03*
X0053120Y0268092D03*
X0049120Y0268092D03*
X0045120Y0268092D03*
X0041120Y0268092D03*
X0041120Y0264092D03*
X0045120Y0264092D03*
X0049120Y0264092D03*
X0053120Y0264092D03*
X0057120Y0264092D03*
X0061120Y0264092D03*
X0065120Y0264092D03*
X0069120Y0264092D03*
X0113411Y0323041D03*
X0104720Y0342341D03*
X0121794Y0342526D03*
X0166717Y0343162D03*
X0193391Y0343072D03*
X0188656Y0314223D03*
X0188386Y0308707D03*
X0286035Y0244740D03*
X0350827Y0209531D03*
X0371049Y0210168D03*
X0381905Y0210336D03*
X0402827Y0223531D03*
X0386827Y0181531D03*
X0391827Y0148531D03*
X0311395Y0129857D03*
X0310827Y0122531D03*
X0309827Y0114531D03*
X0308827Y0106531D03*
X0332827Y0094531D03*
X0306827Y0079531D03*
X0311827Y0074531D03*
X0316933Y0069895D03*
X0320827Y0064531D03*
X0310827Y0137531D03*
X0309141Y0145415D03*
X0292798Y0147727D03*
X0276827Y0144531D03*
D41*
X0061567Y0148277D03*
X0055567Y0148277D03*
X0049567Y0148277D03*
X0043567Y0148277D03*
X0042567Y0206777D03*
X0048567Y0206777D03*
X0054567Y0206777D03*
X0060567Y0206777D03*
X0060567Y0221277D03*
X0054567Y0221277D03*
X0048567Y0221277D03*
X0042567Y0221277D03*
X0041567Y0279777D03*
X0047567Y0279777D03*
X0053567Y0279777D03*
X0059567Y0279777D03*
M02*
