M48
;GenerationSoftware,Autodesk,EAGLE,9.2.2*%
;CreationDate,2018-12-09T18:53:24Z*%
FMAT,2
ICI,OFF
METRIC,TZ,000.000
T14C0.500
T13C0.800
T12C0.813
T11C0.914
T10C1.000
T9C1.016
T8C1.100
T7C1.300
T6C1.321
T5C1.397
T4C1.422
T3C1.800
T2C3.300
T1C5.300
%
G90
M71
T1
X0Y59000
X0Y46500
X0Y21000
X0Y33500
T2
X11339Y68977
X93333Y68995
X11339Y10967
X93333Y10965
T3
X5461Y24765
X15621Y24765
X15621Y34925
X5461Y34925
X15621Y45085
X15621Y55245
X5461Y45085
X5461Y55245
T4
X19682Y8489
X16182Y8489
T5
X82550Y70358
X74930Y70358
T6
X11176Y23622
X92710Y76200
X52070Y58420
X92710Y58420
X52070Y76200
X11176Y31242
X11176Y49022
X11176Y56642
T7
X33053Y74648
X38253Y74648
X22953Y74648
X17753Y74648
X40991Y10054
T8
X24188Y61905
X24188Y43595
X24188Y36405
X24188Y18095
T9
X21806Y67741
X88368Y3810
X57865Y33554
X57865Y31014
X61952Y4383
X59412Y4383
X56872Y4383
X54332Y4383
X57865Y28474
X80256Y28202
X77716Y28202
X104242Y23698
X99720Y23698
X104242Y17196
X99720Y17196
X75176Y28202
X72636Y28202
X70096Y28202
X67556Y28202
X24346Y67741
X19266Y67741
X57855Y56409
X57855Y53869
X57855Y51329
X65989Y35550
X68529Y35550
X56039Y21138
X56039Y18598
X99241Y27480
X96701Y27480
X101774Y27512
X104314Y27512
X85850Y10230
X85850Y7690
T10
X33491Y10054
T11
X101460Y52864
X104000Y52864
X104000Y50324
X101460Y50324
X104000Y47784
X101460Y47784
X104000Y45244
X101460Y45244
X104000Y42704
X101460Y42704
T12
X94576Y38608
X35306Y22270
X40386Y32430
X35306Y32430
X40386Y47670
X35306Y47670
X40386Y57830
X84416Y38608
X35306Y57830
X50050Y18433
X50050Y20973
X52808Y14691
X50268Y14691
X63352Y29889
X49303Y42781
X49303Y45321
X50625Y39588
X40386Y22270
X84455Y35306
X94615Y35306
X94615Y32004
X84455Y32004
X48085Y39588
X63352Y32429
X63352Y27349
T13
X54991Y52451
X55626Y34925
X52832Y21717
X51943Y46990
X21930Y18095
X26446Y18095
X21930Y36405
X26446Y36405
X80899Y46228
X97155Y46355
X21930Y43595
X26446Y43595
X21930Y61905
X26446Y61905
X77035Y58007
T14
X51480Y23560
X82087Y33930
X64915Y46820
X65061Y44283
X78723Y35306
X78047Y44405
X65101Y41728
X67023Y48651
X66850Y51720
X71986Y36935
X71958Y34110
X63296Y42986
X80205Y10698
X84297Y16145
X55118Y27432
X54046Y33631
X51520Y49022
X92617Y56424
X62103Y49657
X58600Y40086
X63345Y45551
X55880Y29718
X81807Y8976
X88179Y8940
X95631Y17399
X96139Y19304
X92451Y28442
X66672Y14654
X66717Y16647
X64150Y38554
X56120Y24851
X61880Y26592
X59248Y18290
X64004Y18620
X72879Y22721
X67661Y19483
X93633Y56424
X60120Y19531
X83621Y22777
X76701Y22721
X75585Y31960
X20688Y23500
X22438Y23500
X24188Y23500
X25938Y23500
X27688Y23500
X20688Y21750
X22438Y21750
X24188Y21750
X25938Y21750
X27688Y21750
X20688Y20000
X22438Y20000
X24188Y20000
X25938Y20000
X93633Y55408
X20688Y34500
X24188Y34500
X25938Y34500
X27688Y34500
X20688Y32750
X22438Y32750
X24188Y32750
X25938Y32750
X27688Y32750
X20688Y31000
X22438Y31000
X24188Y31000
X25938Y31000
X27688Y31000
X22438Y34500
X73639Y40509
X54192Y60266
X76620Y13287
X63728Y8253
X53176Y60266
X83812Y20672
X20688Y49000
X22438Y49000
X24188Y49000
X25938Y49000
X27688Y49000
X20688Y47250
X22438Y47250
X24188Y47250
X25938Y47250
X27688Y47250
X20688Y45500
X22438Y45500
X24188Y45500
X25938Y45500
X27688Y45500
X20688Y60000
X24188Y60000
X25938Y60000
X27688Y60000
X20688Y58250
X22438Y58250
X24188Y58250
X25938Y58250
X27688Y58250
X20688Y56500
X22438Y56500
X24188Y56500
X25938Y56500
X27688Y56500
X22438Y60000
X83444Y29650
X52160Y60266
X76677Y32795
X75395Y42114
X51144Y60266
X71764Y10275
X62631Y9015
X83900Y18758
X81919Y31235
X78578Y31960
X76980Y41200
X73463Y34160
X73578Y38596
X89154Y18415
X86213Y18393
X79533Y16202
X88188Y19799
X86172Y19708
X63323Y48091
X60257Y21016
X62121Y10251
X73984Y24615
X83245Y25422
X63048Y40418
X72042Y38827
X50128Y60266
X50128Y61282
X51144Y61282
X52160Y61282
X82188Y39731
X87049Y39847
X53176Y61282
X54192Y61282
X74676Y50052
X53441Y45467
X59946Y45676
X62892Y66660
X60499Y70907
X71520Y57016
X69511Y54282
X85647Y33541
X92335Y35595
X52502Y37028
X53391Y27630
X41054Y7760
X67613Y24905
X65200Y26683
X63803Y25286
X87425Y53734
X90259Y46349
X91601Y56424
X79687Y56424
X51199Y70929
X50317Y72184
X52000Y72395
X43845Y36805
X47168Y35758
X43390Y19877
X43358Y18631
X44070Y42957
X47163Y43490
X47433Y60245
X43583Y61283
X47136Y18988
X45358Y37433
X45358Y45758
X45358Y59758
X96569Y53988
X80440Y38367
X80440Y43320
X60783Y16442
X88525Y27086
X71314Y45566
X70661Y39129
X46925Y61396
X45639Y42347
X91601Y61250
X92617Y61250
X53073Y23879
X52731Y49258
X93633Y61250
X93633Y60234
X92617Y60234
X91601Y60234
X91601Y55408
X92617Y55408
X27688Y20000
M30