%
M48
M72
T01C0.01969
T02C0.02756
T03C0.03600
T04C0.04000
T05C0.04331
T06C0.05200
T07C0.05600
T08C0.12598
%
T01
X112760Y69479
X95827Y87531
X93260Y96579
X119360Y102279
X136827Y95531
X138260Y89579
X184827Y102531
X197827Y119531
X231827Y131531
X231827Y143531
X218260Y144579
X251827Y137531
X232260Y107579
X221827Y90531
X197827Y74531
X184827Y75531
X139827Y129531
X149840Y171273
X161740Y184873
X177040Y202573
X184827Y203531
X216827Y198531
X216827Y192531
X242260Y193579
X275020Y197126
X278827Y182531
X304260Y188579
X342827Y178531
X370218Y164044
X347218Y157044
X302827Y167531
X379260Y124579
X365260Y123579
X356260Y112579
X374260Y103579
X373260Y93579
X354760Y93079
X354260Y82579
X373260Y83579
X289827Y81531
X395827Y129531
X403827Y129531
X403827Y167531
X408827Y187531
X413827Y187531
X408827Y208531
X411827Y213531
X390827Y209531
X367327Y224731
X363627Y228831
X358927Y224531
X338557Y213131
X342827Y208531
X312444Y223195
X315227Y241131
X312827Y250531
X311327Y258631
X305627Y256431
X299827Y253531
X295827Y250531
X259827Y249531
X257827Y255531
X239260Y256579
X225827Y245531
X242260Y238579
X245827Y227531
X251827Y227531
X259827Y219531
X272827Y219531
X224827Y232531
X196827Y245531
X189827Y240531
X184827Y226531
X177640Y225573
X158827Y232531
X150085Y228245
X165827Y244531
X175640Y248473
X150540Y248273
X112920Y229241
X96120Y232641
X89540Y278273
X156340Y285173
X167827Y280531
X191827Y276531
X203160Y288579
X222560Y288279
X234260Y280579
X280012Y294714
X286827Y290531
X298827Y290531
X332218Y273644
X348218Y276844
X362218Y280044
X379027Y269631
X382827Y259531
X375839Y242563
X367236Y242583
X344418Y241544
X335627Y248131
X330827Y261531
X385783Y286836
X371827Y299531
X379827Y305531
X415827Y293531
X344820Y327441
X322820Y345441
X295920Y329741
X309120Y323941
X353420Y349441
X367120Y347941
X236420Y345641
X217620Y329941
X171720Y330741
X144720Y333741
X93220Y332841
X92920Y317841
T02
X242457Y288531
X253677Y293649
X259976Y293649
X271197Y288531
X263126Y283413
X256827Y283413
X250528Y283413
T03
X126827Y285531
X116827Y285531
T04
X98827Y266531
X88827Y266531
X78827Y266531
X78827Y252531
X88827Y252531
X98827Y252531
X98827Y211531
X88827Y211531
X78827Y211531
X78827Y197531
X88827Y197531
X98827Y197531
X179827Y146531
X179827Y136531
X174827Y121531
X164827Y121531
X164827Y109531
X174827Y109531
X164127Y88531
X194827Y162531
X204827Y162531
X216827Y162531
X226827Y162531
X236827Y162531
X246827Y162531
X256827Y162531
X266827Y162531
X354527Y195631
X364527Y195631
X374527Y195631
X384527Y195631
X394527Y195631
X404527Y195631
X401079Y224531
X391079Y224531
X391079Y234531
X401079Y234531
X401079Y244531
X391079Y244531
X314527Y271531
X303127Y271531
X304543Y238649
X304543Y227249
X220927Y263131
X210927Y263131
X200927Y263131
T05
X259827Y349531
X314827Y349531
T06
X364227Y87531
T07
X47827Y197642
X47827Y211421
X47827Y252642
X47827Y266421
T08
X69504Y320134
X392316Y320205
X52504Y131748
X69504Y91748
X392316Y91741
M30
