G75*
%MOIN*%
%OFA0B0*%
%FSLAX25Y25*%
%IPPOS*%
%LPD*%
%AMOC8*
5,1,8,0,0,1.08239X$1,22.5*
%
%ADD10C,0.00600*%
%ADD11C,0.01200*%
%ADD12C,0.00500*%
%ADD13C,0.00800*%
%ADD14C,0.00300*%
%ADD15C,0.00400*%
%ADD16C,0.00200*%
%ADD17R,0.25000X0.00200*%
%ADD18R,0.26000X0.00200*%
%ADD19R,0.26600X0.00200*%
%ADD20R,0.27000X0.00200*%
%ADD21R,0.27400X0.00200*%
%ADD22R,0.27600X0.00200*%
%ADD23R,0.01800X0.00200*%
%ADD24R,0.01600X0.00200*%
%ADD25R,0.01400X0.00200*%
%ADD26R,0.01200X0.00200*%
%ADD27R,0.02000X0.00200*%
%ADD28R,0.02400X0.00200*%
%ADD29R,0.02600X0.00200*%
%ADD30R,0.02200X0.00200*%
%ADD31R,0.03200X0.00200*%
%ADD32R,0.03000X0.00200*%
%ADD33R,0.02800X0.00200*%
%ADD34R,0.01000X0.00200*%
%ADD35R,0.00800X0.00200*%
%ADD36R,0.00600X0.00200*%
%ADD37R,0.00400X0.00200*%
%ADD38R,0.00200X0.00200*%
%ADD39R,0.23600X0.00200*%
%ADD40R,0.23200X0.00200*%
%ADD41R,0.23000X0.00200*%
%ADD42R,0.22600X0.00200*%
%ADD43R,0.22000X0.00200*%
%ADD44R,0.21200X0.00200*%
%ADD45R,0.01181X0.00591*%
%ADD46R,0.01181X0.01181*%
%ADD47R,0.05906X0.05906*%
%ADD48R,0.02362X0.04331*%
%ADD49C,0.00900*%
%ADD50C,0.00700*%
%ADD51C,0.00004*%
D10*
X0159627Y0084031D02*
X0161627Y0084031D01*
X0159627Y0084031D02*
X0159627Y0086031D01*
X0159627Y0091031D02*
X0159627Y0093031D01*
X0161627Y0093031D01*
X0166627Y0093031D02*
X0168627Y0093031D01*
X0168627Y0091031D01*
X0168627Y0086031D02*
X0168627Y0084031D01*
X0166627Y0084031D01*
X0214327Y0157531D02*
X0211827Y0160031D01*
X0211827Y0165031D01*
X0214327Y0167531D01*
X0219327Y0167531D01*
X0221827Y0165031D01*
X0224327Y0167531D01*
X0229327Y0167531D01*
X0231827Y0165031D01*
X0234327Y0167531D01*
X0239327Y0167531D01*
X0241827Y0165031D01*
X0244327Y0167531D01*
X0249327Y0167531D01*
X0251827Y0165031D01*
X0254327Y0167531D01*
X0259327Y0167531D01*
X0261827Y0165031D01*
X0264327Y0167531D01*
X0269327Y0167531D01*
X0271827Y0165031D01*
X0271827Y0160031D01*
X0269327Y0157531D01*
X0264327Y0157531D01*
X0261827Y0160031D01*
X0259327Y0157531D01*
X0254327Y0157531D01*
X0251827Y0160031D01*
X0249327Y0157531D01*
X0244327Y0157531D01*
X0241827Y0160031D01*
X0239327Y0157531D01*
X0234327Y0157531D01*
X0231827Y0160031D01*
X0229327Y0157531D01*
X0224327Y0157531D01*
X0221827Y0160031D01*
X0219327Y0157531D01*
X0214327Y0157531D01*
X0282327Y0196031D02*
X0325327Y0196031D01*
X0325387Y0196033D01*
X0325448Y0196038D01*
X0325507Y0196047D01*
X0325566Y0196060D01*
X0325625Y0196076D01*
X0325682Y0196096D01*
X0325737Y0196119D01*
X0325792Y0196146D01*
X0325844Y0196175D01*
X0325895Y0196208D01*
X0325944Y0196244D01*
X0325990Y0196282D01*
X0326034Y0196324D01*
X0326076Y0196368D01*
X0326114Y0196414D01*
X0326150Y0196463D01*
X0326183Y0196514D01*
X0326212Y0196566D01*
X0326239Y0196621D01*
X0326262Y0196676D01*
X0326282Y0196733D01*
X0326298Y0196792D01*
X0326311Y0196851D01*
X0326320Y0196910D01*
X0326325Y0196971D01*
X0326327Y0197031D01*
X0326327Y0201031D01*
X0326327Y0210031D02*
X0326327Y0214031D01*
X0326325Y0214091D01*
X0326320Y0214152D01*
X0326311Y0214211D01*
X0326298Y0214270D01*
X0326282Y0214329D01*
X0326262Y0214386D01*
X0326239Y0214441D01*
X0326212Y0214496D01*
X0326183Y0214548D01*
X0326150Y0214599D01*
X0326114Y0214648D01*
X0326076Y0214694D01*
X0326034Y0214738D01*
X0325990Y0214780D01*
X0325944Y0214818D01*
X0325895Y0214854D01*
X0325844Y0214887D01*
X0325792Y0214916D01*
X0325737Y0214943D01*
X0325682Y0214966D01*
X0325625Y0214986D01*
X0325566Y0215002D01*
X0325507Y0215015D01*
X0325448Y0215024D01*
X0325387Y0215029D01*
X0325327Y0215031D01*
X0282327Y0215031D01*
X0282267Y0215029D01*
X0282206Y0215024D01*
X0282147Y0215015D01*
X0282088Y0215002D01*
X0282029Y0214986D01*
X0281972Y0214966D01*
X0281917Y0214943D01*
X0281862Y0214916D01*
X0281810Y0214887D01*
X0281759Y0214854D01*
X0281710Y0214818D01*
X0281664Y0214780D01*
X0281620Y0214738D01*
X0281578Y0214694D01*
X0281540Y0214648D01*
X0281504Y0214599D01*
X0281471Y0214548D01*
X0281442Y0214496D01*
X0281415Y0214441D01*
X0281392Y0214386D01*
X0281372Y0214329D01*
X0281356Y0214270D01*
X0281343Y0214211D01*
X0281334Y0214152D01*
X0281329Y0214091D01*
X0281327Y0214031D01*
X0281327Y0210031D01*
X0281327Y0201031D02*
X0281327Y0197031D01*
X0281329Y0196971D01*
X0281334Y0196910D01*
X0281343Y0196851D01*
X0281356Y0196792D01*
X0281372Y0196733D01*
X0281392Y0196676D01*
X0281415Y0196621D01*
X0281442Y0196566D01*
X0281471Y0196514D01*
X0281504Y0196463D01*
X0281540Y0196414D01*
X0281578Y0196368D01*
X0281620Y0196324D01*
X0281664Y0196282D01*
X0281710Y0196244D01*
X0281759Y0196208D01*
X0281810Y0196175D01*
X0281862Y0196146D01*
X0281917Y0196119D01*
X0281972Y0196096D01*
X0282029Y0196076D01*
X0282088Y0196060D01*
X0282147Y0196047D01*
X0282206Y0196038D01*
X0282267Y0196033D01*
X0282327Y0196031D01*
X0301327Y0203031D02*
X0301327Y0205531D01*
X0301327Y0208031D01*
X0302827Y0208031D02*
X0302827Y0203031D01*
X0304827Y0203031D01*
X0304827Y0208031D01*
X0302827Y0208031D01*
X0306327Y0208031D02*
X0306327Y0205531D01*
X0306327Y0203031D01*
X0325800Y0240543D02*
X0344327Y0222016D01*
X0363842Y0241531D01*
X0344327Y0261046D01*
X0325800Y0242520D01*
X0325800Y0240543D01*
X0327639Y0241531D02*
X0327641Y0241606D01*
X0327647Y0241680D01*
X0327657Y0241754D01*
X0327670Y0241827D01*
X0327688Y0241900D01*
X0327709Y0241971D01*
X0327734Y0242042D01*
X0327763Y0242111D01*
X0327796Y0242178D01*
X0327832Y0242243D01*
X0327871Y0242307D01*
X0327913Y0242368D01*
X0327959Y0242427D01*
X0328008Y0242484D01*
X0328060Y0242537D01*
X0328114Y0242588D01*
X0328171Y0242637D01*
X0328231Y0242681D01*
X0328293Y0242723D01*
X0328357Y0242762D01*
X0328423Y0242797D01*
X0328490Y0242828D01*
X0328560Y0242856D01*
X0328630Y0242880D01*
X0328702Y0242901D01*
X0328775Y0242917D01*
X0328848Y0242930D01*
X0328923Y0242939D01*
X0328997Y0242944D01*
X0329072Y0242945D01*
X0329146Y0242942D01*
X0329221Y0242935D01*
X0329294Y0242924D01*
X0329368Y0242910D01*
X0329440Y0242891D01*
X0329511Y0242869D01*
X0329581Y0242843D01*
X0329650Y0242813D01*
X0329716Y0242780D01*
X0329781Y0242743D01*
X0329844Y0242703D01*
X0329905Y0242659D01*
X0329963Y0242613D01*
X0330019Y0242563D01*
X0330072Y0242511D01*
X0330123Y0242456D01*
X0330170Y0242398D01*
X0330214Y0242338D01*
X0330255Y0242275D01*
X0330293Y0242211D01*
X0330327Y0242145D01*
X0330358Y0242076D01*
X0330385Y0242007D01*
X0330408Y0241936D01*
X0330427Y0241864D01*
X0330443Y0241791D01*
X0330455Y0241717D01*
X0330463Y0241643D01*
X0330467Y0241568D01*
X0330467Y0241494D01*
X0330463Y0241419D01*
X0330455Y0241345D01*
X0330443Y0241271D01*
X0330427Y0241198D01*
X0330408Y0241126D01*
X0330385Y0241055D01*
X0330358Y0240986D01*
X0330327Y0240917D01*
X0330293Y0240851D01*
X0330255Y0240787D01*
X0330214Y0240724D01*
X0330170Y0240664D01*
X0330123Y0240606D01*
X0330072Y0240551D01*
X0330019Y0240499D01*
X0329963Y0240449D01*
X0329905Y0240403D01*
X0329844Y0240359D01*
X0329781Y0240319D01*
X0329716Y0240282D01*
X0329650Y0240249D01*
X0329581Y0240219D01*
X0329511Y0240193D01*
X0329440Y0240171D01*
X0329368Y0240152D01*
X0329294Y0240138D01*
X0329221Y0240127D01*
X0329146Y0240120D01*
X0329072Y0240117D01*
X0328997Y0240118D01*
X0328923Y0240123D01*
X0328848Y0240132D01*
X0328775Y0240145D01*
X0328702Y0240161D01*
X0328630Y0240182D01*
X0328560Y0240206D01*
X0328490Y0240234D01*
X0328423Y0240265D01*
X0328357Y0240300D01*
X0328293Y0240339D01*
X0328231Y0240381D01*
X0328171Y0240425D01*
X0328114Y0240474D01*
X0328060Y0240525D01*
X0328008Y0240578D01*
X0327959Y0240635D01*
X0327913Y0240694D01*
X0327871Y0240755D01*
X0327832Y0240819D01*
X0327796Y0240884D01*
X0327763Y0240951D01*
X0327734Y0241020D01*
X0327709Y0241091D01*
X0327688Y0241162D01*
X0327670Y0241235D01*
X0327657Y0241308D01*
X0327647Y0241382D01*
X0327641Y0241456D01*
X0327639Y0241531D01*
X0366788Y0249423D02*
X0366788Y0251125D01*
X0367355Y0251692D01*
X0369623Y0251692D01*
X0370191Y0251125D01*
X0370191Y0249423D01*
X0366788Y0249423D01*
X0367355Y0253107D02*
X0367922Y0253107D01*
X0368489Y0253674D01*
X0368489Y0254808D01*
X0369056Y0255375D01*
X0369623Y0255375D01*
X0370191Y0254808D01*
X0370191Y0253674D01*
X0369623Y0253107D01*
X0369056Y0253107D01*
X0368489Y0253674D01*
X0368489Y0254808D02*
X0367922Y0255375D01*
X0367355Y0255375D01*
X0366788Y0254808D01*
X0366788Y0253674D01*
X0367355Y0253107D01*
X0366791Y0273727D02*
X0366791Y0275429D01*
X0367358Y0275996D01*
X0369627Y0275996D01*
X0370194Y0275429D01*
X0370194Y0273727D01*
X0366791Y0273727D01*
X0367358Y0277411D02*
X0367925Y0277411D01*
X0368492Y0277978D01*
X0368492Y0279679D01*
X0367358Y0279679D02*
X0369627Y0279679D01*
X0370194Y0279112D01*
X0370194Y0277978D01*
X0369627Y0277411D01*
X0367358Y0277411D02*
X0366791Y0277978D01*
X0366791Y0279112D01*
X0367358Y0279679D01*
X0300027Y0307231D02*
X0300027Y0320431D01*
X0300027Y0327431D02*
X0300027Y0340631D01*
X0266627Y0340631D01*
X0266627Y0327431D01*
X0260127Y0323931D02*
X0257127Y0323931D01*
X0258627Y0325431D02*
X0258627Y0322431D01*
X0266627Y0320431D02*
X0266627Y0315531D01*
X0274927Y0307231D01*
X0266627Y0307231D02*
X0300027Y0307231D01*
X0323839Y0316716D02*
X0348437Y0316716D01*
X0348437Y0330338D01*
X0323839Y0330338D01*
X0323839Y0316716D01*
X0274927Y0340631D02*
X0266627Y0332331D01*
X0266168Y0347854D02*
X0265034Y0347854D01*
X0264467Y0348421D01*
X0264467Y0349556D02*
X0265601Y0350123D01*
X0266168Y0350123D01*
X0266736Y0349556D01*
X0266736Y0348421D01*
X0266168Y0347854D01*
X0268150Y0347854D02*
X0268717Y0347854D01*
X0268717Y0348421D01*
X0268150Y0348421D01*
X0268150Y0347854D01*
X0269992Y0348421D02*
X0272260Y0350690D01*
X0272260Y0348421D01*
X0271693Y0347854D01*
X0270559Y0347854D01*
X0269992Y0348421D01*
X0269992Y0350690D01*
X0270559Y0351257D01*
X0271693Y0351257D01*
X0272260Y0350690D01*
X0273675Y0351257D02*
X0273675Y0348988D01*
X0274809Y0347854D01*
X0275943Y0348988D01*
X0275943Y0351257D01*
X0266736Y0351257D02*
X0264467Y0351257D01*
X0264467Y0349556D01*
X0298167Y0349856D02*
X0300436Y0349856D01*
X0299868Y0351557D02*
X0298167Y0349856D01*
X0299868Y0351557D02*
X0299868Y0348154D01*
X0301850Y0348154D02*
X0302417Y0348154D01*
X0302417Y0348721D01*
X0301850Y0348721D01*
X0301850Y0348154D01*
X0303692Y0348154D02*
X0303692Y0348721D01*
X0305960Y0350990D01*
X0305960Y0351557D01*
X0303692Y0351557D01*
X0307375Y0351557D02*
X0307375Y0349288D01*
X0308509Y0348154D01*
X0309643Y0349288D01*
X0309643Y0351557D01*
X0266627Y0315531D02*
X0266627Y0307231D01*
X0253579Y0309031D02*
X0253579Y0315437D01*
X0253579Y0312234D02*
X0249309Y0312234D01*
X0247134Y0313302D02*
X0247134Y0309031D01*
X0243931Y0309031D01*
X0242863Y0310099D01*
X0242863Y0313302D01*
X0240688Y0314369D02*
X0240688Y0310099D01*
X0239620Y0309031D01*
X0237485Y0309031D01*
X0236418Y0310099D01*
X0240688Y0314369D01*
X0239620Y0315437D01*
X0237485Y0315437D01*
X0236418Y0314369D01*
X0236418Y0310099D01*
X0234243Y0310099D02*
X0233175Y0309031D01*
X0231040Y0309031D01*
X0229972Y0310099D01*
X0227797Y0310099D02*
X0226730Y0309031D01*
X0224594Y0309031D01*
X0223527Y0310099D01*
X0225662Y0312234D02*
X0226730Y0312234D01*
X0227797Y0311166D01*
X0227797Y0310099D01*
X0226730Y0312234D02*
X0227797Y0313302D01*
X0227797Y0314369D01*
X0226730Y0315437D01*
X0224594Y0315437D01*
X0223527Y0314369D01*
X0229972Y0314369D02*
X0231040Y0315437D01*
X0233175Y0315437D01*
X0234243Y0314369D01*
X0234243Y0313302D01*
X0233175Y0312234D01*
X0234243Y0311166D01*
X0234243Y0310099D01*
X0233175Y0312234D02*
X0232107Y0312234D01*
X0234227Y0304237D02*
X0236362Y0304237D01*
X0235294Y0304237D02*
X0235294Y0297831D01*
X0234227Y0297831D02*
X0236362Y0297831D01*
X0238524Y0297831D02*
X0242794Y0297831D01*
X0240659Y0297831D02*
X0240659Y0304237D01*
X0238524Y0302102D01*
X0249309Y0309031D02*
X0249309Y0315437D01*
X0198702Y0314690D02*
X0197102Y0314690D01*
X0197102Y0318690D02*
X0198702Y0318690D01*
X0198702Y0321490D02*
X0197102Y0321490D01*
X0197102Y0325290D02*
X0198702Y0325290D01*
X0198702Y0328090D02*
X0197102Y0328090D01*
X0197102Y0332090D02*
X0198702Y0332090D01*
X0198702Y0334890D02*
X0197102Y0334890D01*
X0197102Y0338690D02*
X0198702Y0338690D01*
X0198702Y0341490D02*
X0197102Y0341490D01*
X0197102Y0345490D02*
X0198702Y0345490D01*
X0148827Y0324331D02*
X0145827Y0324331D01*
X0147327Y0322831D02*
X0147327Y0325831D01*
X0139827Y0328031D02*
X0139827Y0337831D01*
X0126327Y0351331D01*
X0139827Y0351331D02*
X0085827Y0351331D01*
X0085827Y0328031D01*
X0085827Y0320631D02*
X0085827Y0297331D01*
X0139827Y0297331D01*
X0139827Y0320631D01*
X0139827Y0310831D02*
X0126327Y0297331D01*
X0122827Y0290531D02*
X0130827Y0290531D01*
X0131827Y0289531D01*
X0131827Y0281531D01*
X0130827Y0280531D01*
X0122827Y0280531D01*
X0121827Y0281531D01*
X0120827Y0280531D01*
X0112827Y0280531D01*
X0111827Y0281531D01*
X0111827Y0289531D01*
X0112827Y0290531D01*
X0120827Y0290531D01*
X0121827Y0289531D01*
X0122827Y0290531D01*
X0139827Y0337831D02*
X0139827Y0351331D01*
X0108627Y0241431D02*
X0079027Y0241431D01*
X0079027Y0238731D01*
X0071127Y0234031D02*
X0071127Y0231031D01*
X0072627Y0232531D02*
X0069627Y0232531D01*
X0079027Y0226331D02*
X0079027Y0223631D01*
X0108627Y0223631D01*
X0108627Y0226331D01*
X0108627Y0238731D02*
X0108627Y0241431D01*
X0324680Y0139059D02*
X0324680Y0137358D01*
X0328083Y0137358D01*
X0328083Y0139059D01*
X0327516Y0139627D01*
X0326948Y0139627D01*
X0326381Y0139059D01*
X0326381Y0137358D01*
X0326381Y0139059D02*
X0325814Y0139627D01*
X0325247Y0139627D01*
X0324680Y0139059D01*
X0325247Y0135943D02*
X0324680Y0135376D01*
X0324680Y0133675D01*
X0328083Y0133675D01*
X0328083Y0135376D01*
X0327516Y0135943D01*
X0325247Y0135943D01*
X0325814Y0128577D02*
X0328650Y0128577D01*
X0329217Y0128010D01*
X0329217Y0127443D01*
X0328083Y0126876D02*
X0328083Y0128577D01*
X0328083Y0126876D02*
X0327516Y0126309D01*
X0325814Y0126309D01*
X0326381Y0124894D02*
X0325814Y0124327D01*
X0325814Y0122625D01*
X0324680Y0122625D02*
X0328083Y0122625D01*
X0328083Y0124327D01*
X0327516Y0124894D01*
X0326381Y0124894D01*
X0332259Y0124149D02*
X0332259Y0121881D01*
X0332259Y0123015D02*
X0335661Y0123015D01*
X0335661Y0120466D02*
X0333960Y0120466D01*
X0333393Y0119899D01*
X0333393Y0118198D01*
X0335661Y0118198D01*
X0335094Y0116783D02*
X0333960Y0116783D01*
X0333393Y0116216D01*
X0333393Y0115082D01*
X0333960Y0114514D01*
X0335094Y0114514D01*
X0335661Y0115082D01*
X0335661Y0116216D01*
X0335094Y0116783D01*
X0335661Y0113100D02*
X0333960Y0113100D01*
X0333393Y0112533D01*
X0333960Y0111966D01*
X0335661Y0111966D01*
X0335661Y0110831D02*
X0333393Y0110831D01*
X0333393Y0111398D01*
X0333960Y0111966D01*
X0333960Y0109417D02*
X0334527Y0109417D01*
X0334527Y0107148D01*
X0333960Y0107148D02*
X0333393Y0107715D01*
X0333393Y0108850D01*
X0333960Y0109417D01*
X0335661Y0108850D02*
X0335661Y0107715D01*
X0335094Y0107148D01*
X0333960Y0107148D01*
X0338259Y0107575D02*
X0341661Y0107575D01*
X0339960Y0107575D02*
X0339960Y0105307D01*
X0339960Y0103892D02*
X0339960Y0102758D01*
X0339960Y0103892D02*
X0341094Y0103892D01*
X0341661Y0103325D01*
X0341661Y0102191D01*
X0341094Y0101623D01*
X0338826Y0101623D01*
X0338259Y0102191D01*
X0338259Y0103325D01*
X0338826Y0103892D01*
X0338259Y0105307D02*
X0341661Y0105307D01*
X0335661Y0102050D02*
X0333960Y0102050D01*
X0333393Y0101483D01*
X0333393Y0099782D01*
X0335661Y0099782D01*
X0335094Y0098367D02*
X0333960Y0098367D01*
X0333393Y0097800D01*
X0333393Y0096666D01*
X0333960Y0096099D01*
X0335094Y0096099D01*
X0335661Y0096666D01*
X0335661Y0097800D01*
X0335094Y0098367D01*
X0339393Y0096526D02*
X0342229Y0096526D01*
X0342796Y0095959D01*
X0342796Y0095391D01*
X0341661Y0094824D02*
X0341661Y0096526D01*
X0341661Y0094824D02*
X0341094Y0094257D01*
X0339393Y0094257D01*
X0339960Y0092843D02*
X0339393Y0092275D01*
X0339393Y0090574D01*
X0338259Y0090574D02*
X0341661Y0090574D01*
X0341661Y0092275D01*
X0341094Y0092843D01*
X0339960Y0092843D01*
X0335661Y0091001D02*
X0335661Y0089300D01*
X0335094Y0088732D01*
X0333960Y0088732D01*
X0333393Y0089300D01*
X0333393Y0091001D01*
X0332259Y0091001D02*
X0335661Y0091001D01*
X0334527Y0087318D02*
X0334527Y0085049D01*
X0333960Y0085049D02*
X0333393Y0085616D01*
X0333393Y0086751D01*
X0333960Y0087318D01*
X0334527Y0087318D01*
X0335661Y0086751D02*
X0335661Y0085616D01*
X0335094Y0085049D01*
X0333960Y0085049D01*
X0333393Y0083635D02*
X0333393Y0081933D01*
X0333960Y0081366D01*
X0334527Y0081933D01*
X0334527Y0083068D01*
X0335094Y0083635D01*
X0335661Y0083068D01*
X0335661Y0081366D01*
X0335661Y0079952D02*
X0335661Y0078250D01*
X0335094Y0077683D01*
X0334527Y0078250D01*
X0334527Y0079952D01*
X0333960Y0079952D02*
X0335661Y0079952D01*
X0333960Y0079952D02*
X0333393Y0079384D01*
X0333393Y0078250D01*
X0333960Y0076268D02*
X0333393Y0075701D01*
X0333393Y0074000D01*
X0332259Y0074000D02*
X0335661Y0074000D01*
X0335661Y0075701D01*
X0335094Y0076268D01*
X0333960Y0076268D01*
X0338259Y0078250D02*
X0338259Y0079384D01*
X0338826Y0079952D01*
X0339393Y0079952D01*
X0339960Y0079384D01*
X0340527Y0079952D01*
X0341094Y0079952D01*
X0341661Y0079384D01*
X0341661Y0078250D01*
X0341094Y0077683D01*
X0339960Y0078817D02*
X0339960Y0079384D01*
X0338826Y0077683D02*
X0338259Y0078250D01*
X0339393Y0076268D02*
X0341661Y0075134D01*
X0339393Y0074000D01*
X0341094Y0081366D02*
X0341094Y0081933D01*
X0341661Y0081933D01*
X0341661Y0081366D01*
X0341094Y0081366D01*
X0339960Y0083208D02*
X0339960Y0085476D01*
X0341661Y0084909D02*
X0338259Y0084909D01*
X0339960Y0083208D01*
X0328083Y0082678D02*
X0327516Y0082111D01*
X0325247Y0084379D01*
X0327516Y0084379D01*
X0328083Y0083812D01*
X0328083Y0082678D01*
X0327516Y0082111D02*
X0325247Y0082111D01*
X0324680Y0082678D01*
X0324680Y0083812D01*
X0325247Y0084379D01*
X0327516Y0080836D02*
X0328083Y0080836D01*
X0328083Y0080269D01*
X0327516Y0080269D01*
X0327516Y0080836D01*
X0328083Y0078855D02*
X0328083Y0076586D01*
X0328083Y0077720D02*
X0324680Y0077720D01*
X0325814Y0076586D01*
X0325814Y0075172D02*
X0328083Y0074037D01*
X0325814Y0072903D01*
X0326381Y0089477D02*
X0326381Y0090611D01*
X0324680Y0089477D02*
X0328083Y0089477D01*
X0324680Y0089477D02*
X0324680Y0091746D01*
X0326381Y0093160D02*
X0325814Y0093727D01*
X0325814Y0094862D01*
X0326381Y0095429D01*
X0326948Y0095429D01*
X0326948Y0093160D01*
X0326381Y0093160D02*
X0327516Y0093160D01*
X0328083Y0093727D01*
X0328083Y0094862D01*
X0328083Y0096843D02*
X0328083Y0098545D01*
X0327516Y0099112D01*
X0326381Y0099112D01*
X0325814Y0098545D01*
X0325814Y0096843D01*
X0324680Y0096843D02*
X0328083Y0096843D01*
X0328083Y0104210D02*
X0325814Y0106478D01*
X0325247Y0106478D01*
X0324680Y0105911D01*
X0324680Y0104777D01*
X0325247Y0104210D01*
X0328083Y0104210D02*
X0328083Y0106478D01*
X0327516Y0107893D02*
X0325247Y0110161D01*
X0327516Y0110161D01*
X0328083Y0109594D01*
X0328083Y0108460D01*
X0327516Y0107893D01*
X0325247Y0107893D01*
X0324680Y0108460D01*
X0324680Y0109594D01*
X0325247Y0110161D01*
X0325814Y0111576D02*
X0324680Y0112710D01*
X0328083Y0112710D01*
X0328083Y0111576D02*
X0328083Y0113845D01*
X0328083Y0115259D02*
X0327516Y0115259D01*
X0325247Y0117528D01*
X0324680Y0117528D01*
X0324680Y0115259D01*
X0338259Y0122308D02*
X0341661Y0122308D01*
X0341661Y0120606D01*
X0341094Y0120039D01*
X0339960Y0120039D01*
X0339393Y0120606D01*
X0339393Y0122308D01*
X0339960Y0118625D02*
X0341661Y0118625D01*
X0339960Y0118625D02*
X0339393Y0118057D01*
X0339393Y0116356D01*
X0341661Y0116356D01*
X0341661Y0114941D02*
X0341661Y0113240D01*
X0341094Y0112673D01*
X0340527Y0113240D01*
X0340527Y0114941D01*
X0339960Y0114941D02*
X0341661Y0114941D01*
X0339960Y0114941D02*
X0339393Y0114374D01*
X0339393Y0113240D01*
X0335661Y0125564D02*
X0333393Y0127832D01*
X0333393Y0125564D02*
X0335661Y0127832D01*
X0338259Y0127405D02*
X0338259Y0129674D01*
X0338259Y0128540D02*
X0341661Y0128540D01*
X0341661Y0131089D02*
X0341661Y0133357D01*
X0341661Y0131089D02*
X0338259Y0131089D01*
X0363691Y0127101D02*
X0365960Y0127101D01*
X0366527Y0127669D01*
X0366527Y0128990D02*
X0366527Y0129557D01*
X0365960Y0129557D01*
X0365960Y0128990D01*
X0366527Y0128990D01*
X0364258Y0127669D02*
X0364258Y0126534D01*
X0364825Y0125120D02*
X0366527Y0125120D01*
X0364825Y0125120D02*
X0364258Y0124553D01*
X0364258Y0122851D01*
X0366527Y0122851D01*
X0366527Y0121437D02*
X0364258Y0121437D01*
X0363124Y0120302D01*
X0364258Y0119168D01*
X0366527Y0119168D01*
X0364825Y0119168D02*
X0364825Y0121437D01*
X0370624Y0122050D02*
X0372892Y0122050D01*
X0374027Y0120916D01*
X0372892Y0119782D01*
X0370624Y0119782D01*
X0371191Y0123465D02*
X0373460Y0123465D01*
X0374027Y0124032D01*
X0374027Y0125166D01*
X0373460Y0125734D01*
X0373460Y0127148D02*
X0374027Y0127715D01*
X0374027Y0128850D01*
X0373460Y0129417D01*
X0373460Y0127148D02*
X0371191Y0127148D01*
X0370624Y0127715D01*
X0370624Y0128850D01*
X0371191Y0129417D01*
X0371191Y0125734D02*
X0370624Y0125166D01*
X0370624Y0124032D01*
X0371191Y0123465D01*
X0378124Y0123465D02*
X0381527Y0125734D01*
X0378124Y0125734D01*
X0378124Y0127148D02*
X0378124Y0128850D01*
X0378691Y0129417D01*
X0380960Y0129417D01*
X0381527Y0128850D01*
X0381527Y0127148D01*
X0378124Y0127148D01*
X0378124Y0123465D02*
X0381527Y0123465D01*
X0380960Y0122050D02*
X0379825Y0122050D01*
X0379825Y0120916D01*
X0378691Y0119782D02*
X0378124Y0120349D01*
X0378124Y0121483D01*
X0378691Y0122050D01*
X0378691Y0119782D02*
X0380960Y0119782D01*
X0381527Y0120349D01*
X0381527Y0121483D01*
X0380960Y0122050D01*
D11*
X0320782Y0111942D02*
X0319648Y0113076D01*
X0320782Y0111942D02*
X0320782Y0109673D01*
X0319648Y0108539D01*
X0315110Y0108539D01*
X0313976Y0109673D01*
X0313976Y0111942D01*
X0315110Y0113076D01*
X0315110Y0105710D02*
X0313976Y0104576D01*
X0313976Y0101173D01*
X0320782Y0101173D01*
X0320782Y0104576D01*
X0319648Y0105710D01*
X0315110Y0105710D01*
X0317379Y0098344D02*
X0320782Y0098344D01*
X0317379Y0098344D02*
X0316245Y0097209D01*
X0316245Y0093807D01*
X0320782Y0093807D01*
X0319648Y0090977D02*
X0317379Y0090977D01*
X0316245Y0089843D01*
X0316245Y0087575D01*
X0317379Y0086440D01*
X0319648Y0086440D01*
X0320782Y0087575D01*
X0320782Y0089843D01*
X0319648Y0090977D01*
X0320782Y0083611D02*
X0317379Y0083611D01*
X0316245Y0082477D01*
X0317379Y0081343D01*
X0320782Y0081343D01*
X0320782Y0079074D02*
X0316245Y0079074D01*
X0316245Y0080208D01*
X0317379Y0081343D01*
X0317379Y0076245D02*
X0318513Y0076245D01*
X0318513Y0071708D01*
X0317379Y0071708D02*
X0319648Y0071708D01*
X0320782Y0072842D01*
X0320782Y0075111D01*
X0317379Y0076245D02*
X0316245Y0075111D01*
X0316245Y0072842D01*
X0317379Y0071708D01*
X0128635Y0197631D02*
X0128635Y0206839D01*
X0124031Y0211443D01*
X0119427Y0206839D01*
X0119427Y0197631D01*
X0119427Y0204537D02*
X0128635Y0204537D01*
X0126333Y0252631D02*
X0119427Y0252631D01*
X0119427Y0266443D01*
X0126333Y0266443D01*
X0128635Y0264141D01*
X0128635Y0261839D01*
X0126333Y0259537D01*
X0119427Y0259537D01*
X0126333Y0259537D02*
X0128635Y0257235D01*
X0128635Y0254933D01*
X0126333Y0252631D01*
D12*
X0086257Y0108852D02*
X0086257Y0068341D01*
X0133367Y0068341D01*
X0133364Y0068339D02*
X0133364Y0108852D01*
X0086257Y0108852D01*
X0150169Y0108083D02*
X0152421Y0108083D01*
X0153171Y0108833D01*
X0153171Y0110335D01*
X0152421Y0111085D01*
X0150169Y0111085D01*
X0150169Y0106581D01*
X0151670Y0108083D02*
X0153171Y0106581D01*
X0154773Y0106581D02*
X0157775Y0111085D01*
X0154773Y0111085D02*
X0157775Y0106581D01*
X0160627Y0098785D02*
X0159877Y0098035D01*
X0159877Y0095032D01*
X0160627Y0094281D01*
X0162129Y0094281D01*
X0162879Y0095032D01*
X0162879Y0096533D01*
X0161378Y0096533D01*
X0162879Y0098035D02*
X0162129Y0098785D01*
X0160627Y0098785D01*
X0164481Y0098785D02*
X0166733Y0098785D01*
X0167483Y0098035D01*
X0167483Y0096533D01*
X0166733Y0095783D01*
X0164481Y0095783D01*
X0164481Y0094281D02*
X0164481Y0098785D01*
X0169085Y0098785D02*
X0170586Y0098785D01*
X0169835Y0098785D02*
X0169835Y0094281D01*
X0169085Y0094281D02*
X0170586Y0094281D01*
X0172154Y0095032D02*
X0172905Y0094281D01*
X0174406Y0094281D01*
X0175156Y0095032D01*
X0175156Y0098035D01*
X0174406Y0098785D01*
X0172905Y0098785D01*
X0172154Y0098035D01*
X0172154Y0095032D01*
X0176758Y0095032D02*
X0177508Y0094281D01*
X0179010Y0094281D01*
X0179760Y0095032D01*
X0179760Y0096533D01*
X0179010Y0097284D01*
X0178259Y0097284D01*
X0176758Y0096533D01*
X0176758Y0098785D01*
X0179760Y0098785D01*
X0156775Y0118581D02*
X0153773Y0123085D01*
X0152171Y0123085D02*
X0149169Y0123085D01*
X0150670Y0123085D02*
X0150670Y0118581D01*
X0153773Y0118581D02*
X0156775Y0123085D01*
X0210047Y0153531D02*
X0210047Y0058649D01*
X0273827Y0058649D01*
X0273827Y0153531D01*
X0210047Y0153531D01*
X0206910Y0165981D02*
X0205408Y0165981D01*
X0204658Y0166732D01*
X0207660Y0169735D01*
X0207660Y0166732D01*
X0206910Y0165981D01*
X0204658Y0166732D02*
X0204658Y0169735D01*
X0205408Y0170485D01*
X0206910Y0170485D01*
X0207660Y0169735D01*
X0203056Y0169735D02*
X0203056Y0166732D01*
X0202306Y0165981D01*
X0200805Y0165981D01*
X0200054Y0166732D01*
X0200054Y0169735D01*
X0200805Y0170485D01*
X0202306Y0170485D01*
X0203056Y0169735D01*
X0198486Y0170485D02*
X0196985Y0170485D01*
X0197735Y0170485D02*
X0197735Y0165981D01*
X0196985Y0165981D02*
X0198486Y0165981D01*
X0195383Y0168233D02*
X0194633Y0167483D01*
X0192381Y0167483D01*
X0192381Y0165981D02*
X0192381Y0170485D01*
X0194633Y0170485D01*
X0195383Y0169735D01*
X0195383Y0168233D01*
X0190779Y0168233D02*
X0190779Y0166732D01*
X0190029Y0165981D01*
X0188527Y0165981D01*
X0187777Y0166732D01*
X0187777Y0169735D01*
X0188527Y0170485D01*
X0190029Y0170485D01*
X0190779Y0169735D01*
X0190779Y0168233D02*
X0189278Y0168233D01*
X0212590Y0170704D02*
X0213091Y0170203D01*
X0214092Y0170203D01*
X0214592Y0170704D01*
X0214592Y0171705D01*
X0213591Y0171705D01*
X0212590Y0172705D02*
X0212590Y0170704D01*
X0212590Y0172705D02*
X0213091Y0173206D01*
X0214092Y0173206D01*
X0214592Y0172705D01*
X0215813Y0173206D02*
X0217815Y0170203D01*
X0217815Y0173206D01*
X0219036Y0173206D02*
X0220537Y0173206D01*
X0221038Y0172705D01*
X0221038Y0170704D01*
X0220537Y0170203D01*
X0219036Y0170203D01*
X0219036Y0173206D01*
X0215813Y0173206D02*
X0215813Y0170203D01*
X0233856Y0170304D02*
X0234356Y0169803D01*
X0235357Y0169803D01*
X0235857Y0170304D01*
X0235857Y0171305D01*
X0235357Y0171805D01*
X0234857Y0171805D01*
X0233856Y0171305D01*
X0233856Y0172806D01*
X0235857Y0172806D01*
X0237078Y0172806D02*
X0237078Y0170804D01*
X0238079Y0169803D01*
X0239080Y0170804D01*
X0239080Y0172806D01*
X0244013Y0173106D02*
X0246015Y0173106D01*
X0245014Y0173106D02*
X0245014Y0170103D01*
X0247236Y0170103D02*
X0249238Y0172105D01*
X0247236Y0172105D02*
X0249238Y0170103D01*
X0253913Y0169703D02*
X0253913Y0172706D01*
X0255414Y0172706D01*
X0255915Y0172205D01*
X0255915Y0171205D01*
X0255414Y0170704D01*
X0253913Y0170704D01*
X0254914Y0170704D02*
X0255915Y0169703D01*
X0257136Y0169703D02*
X0259138Y0171705D01*
X0257136Y0171705D02*
X0259138Y0169703D01*
X0263027Y0169659D02*
X0263027Y0172662D01*
X0264528Y0172662D01*
X0265028Y0172161D01*
X0265028Y0171161D01*
X0264528Y0170660D01*
X0263027Y0170660D01*
X0264027Y0170660D02*
X0265028Y0169659D01*
X0266249Y0170160D02*
X0266750Y0169659D01*
X0267751Y0169659D01*
X0268251Y0170160D01*
X0268251Y0170660D01*
X0267751Y0171161D01*
X0266750Y0171161D01*
X0266249Y0171661D01*
X0266249Y0172161D01*
X0266750Y0172662D01*
X0267751Y0172662D01*
X0268251Y0172161D01*
X0269472Y0172662D02*
X0271474Y0172662D01*
X0270473Y0172662D02*
X0270473Y0169659D01*
X0314716Y0159780D02*
X0317218Y0159780D01*
X0317718Y0159280D01*
X0317718Y0158779D01*
X0316717Y0158279D02*
X0316717Y0159780D01*
X0316717Y0158279D02*
X0316217Y0157779D01*
X0314716Y0157779D01*
X0314716Y0156558D02*
X0314716Y0155056D01*
X0315216Y0154556D01*
X0316217Y0154556D01*
X0316717Y0155056D01*
X0316717Y0156558D01*
X0317218Y0156558D02*
X0314716Y0156558D01*
X0317218Y0156558D02*
X0317718Y0156057D01*
X0317718Y0155557D01*
X0318965Y0156020D02*
X0321967Y0156020D01*
X0321967Y0154519D01*
X0321467Y0154019D01*
X0320466Y0154019D01*
X0319966Y0154519D01*
X0319966Y0156020D01*
X0320466Y0157241D02*
X0319966Y0157742D01*
X0319966Y0158743D01*
X0320466Y0159243D01*
X0320966Y0159243D01*
X0320966Y0157241D01*
X0320466Y0157241D02*
X0321467Y0157241D01*
X0321967Y0157742D01*
X0321967Y0158743D01*
X0314716Y0153372D02*
X0314716Y0152871D01*
X0315716Y0151870D01*
X0314716Y0151870D02*
X0316717Y0151870D01*
X0315716Y0150649D02*
X0315716Y0148648D01*
X0315216Y0148648D02*
X0314716Y0149148D01*
X0314716Y0150149D01*
X0315216Y0150649D01*
X0315716Y0150649D01*
X0316717Y0150149D02*
X0316717Y0149148D01*
X0316217Y0148648D01*
X0315216Y0148648D01*
X0315216Y0147426D02*
X0316717Y0147426D01*
X0315216Y0147426D02*
X0314716Y0146926D01*
X0314716Y0145425D01*
X0316717Y0145425D01*
X0316717Y0144204D02*
X0316717Y0142202D01*
X0313715Y0142202D01*
X0313715Y0144204D01*
X0315216Y0143203D02*
X0315216Y0142202D01*
X0319966Y0141628D02*
X0320466Y0141128D01*
X0321467Y0141128D01*
X0321967Y0141628D01*
X0321967Y0143129D01*
X0322468Y0143129D02*
X0319966Y0143129D01*
X0319966Y0141628D01*
X0320466Y0139907D02*
X0321967Y0139907D01*
X0320466Y0139907D02*
X0319966Y0139406D01*
X0319966Y0137905D01*
X0321967Y0137905D01*
X0321967Y0136757D02*
X0321967Y0135757D01*
X0321967Y0136257D02*
X0319966Y0136257D01*
X0319966Y0135757D01*
X0318965Y0136257D02*
X0318464Y0136257D01*
X0316717Y0135757D02*
X0316717Y0137258D01*
X0316217Y0137758D01*
X0315716Y0137258D01*
X0315716Y0136257D01*
X0315216Y0135757D01*
X0314716Y0136257D01*
X0314716Y0137758D01*
X0314716Y0134535D02*
X0314716Y0133034D01*
X0315216Y0132534D01*
X0315716Y0133034D01*
X0315716Y0134035D01*
X0316217Y0134535D01*
X0316717Y0134035D01*
X0316717Y0132534D01*
X0315716Y0131313D02*
X0315716Y0129311D01*
X0315216Y0129311D02*
X0314716Y0129811D01*
X0314716Y0130812D01*
X0315216Y0131313D01*
X0315716Y0131313D01*
X0316717Y0130812D02*
X0316717Y0129811D01*
X0316217Y0129311D01*
X0315216Y0129311D01*
X0316717Y0128163D02*
X0316717Y0127163D01*
X0316717Y0127663D02*
X0313715Y0127663D01*
X0313715Y0127163D01*
X0315216Y0125941D02*
X0315716Y0125941D01*
X0315716Y0123940D01*
X0315216Y0123940D02*
X0314716Y0124440D01*
X0314716Y0125441D01*
X0315216Y0125941D01*
X0316717Y0125441D02*
X0316717Y0124440D01*
X0316217Y0123940D01*
X0315216Y0123940D01*
X0314716Y0122755D02*
X0314716Y0122255D01*
X0315716Y0121254D01*
X0314716Y0121254D02*
X0316717Y0121254D01*
X0316717Y0120106D02*
X0316717Y0119106D01*
X0316717Y0119606D02*
X0314716Y0119606D01*
X0314716Y0119106D01*
X0313715Y0119606D02*
X0313214Y0119606D01*
X0313715Y0117885D02*
X0316717Y0117885D01*
X0315716Y0116884D01*
X0316717Y0115883D01*
X0313715Y0115883D01*
X0318965Y0115883D02*
X0319966Y0116884D01*
X0318965Y0117885D01*
X0321967Y0117885D01*
X0321467Y0119106D02*
X0321967Y0119606D01*
X0321967Y0120607D01*
X0321467Y0121107D01*
X0320466Y0121107D01*
X0319966Y0120607D01*
X0319966Y0119606D01*
X0320466Y0119106D01*
X0321467Y0119106D01*
X0321967Y0122328D02*
X0319966Y0122328D01*
X0319966Y0123830D01*
X0320466Y0124330D01*
X0321967Y0124330D01*
X0321967Y0125551D02*
X0321967Y0126552D01*
X0321967Y0126052D02*
X0319966Y0126052D01*
X0319966Y0125551D01*
X0318965Y0126052D02*
X0318464Y0126052D01*
X0319966Y0127700D02*
X0319966Y0128700D01*
X0319465Y0128200D02*
X0321467Y0128200D01*
X0321967Y0128700D01*
X0321467Y0129848D02*
X0321967Y0130349D01*
X0321967Y0131349D01*
X0321467Y0131850D01*
X0320466Y0131850D01*
X0319966Y0131349D01*
X0319966Y0130349D01*
X0320466Y0129848D01*
X0321467Y0129848D01*
X0321967Y0133071D02*
X0319966Y0133071D01*
X0320966Y0133071D02*
X0319966Y0134072D01*
X0319966Y0134572D01*
X0322968Y0142129D02*
X0322968Y0142629D01*
X0322468Y0143129D01*
X0321967Y0147573D02*
X0318965Y0147573D01*
X0321967Y0149575D01*
X0318965Y0149575D01*
X0320466Y0150796D02*
X0321467Y0150796D01*
X0321967Y0151296D01*
X0321967Y0152297D01*
X0321467Y0152798D01*
X0320466Y0152798D01*
X0319966Y0152297D01*
X0319966Y0151296D01*
X0320466Y0150796D01*
X0305827Y0142941D02*
X0305827Y0118531D01*
X0281417Y0118531D01*
X0281417Y0142941D01*
X0305827Y0142941D01*
X0305039Y0135854D02*
X0305039Y0125618D01*
X0287716Y0130736D02*
X0287718Y0130889D01*
X0287724Y0131043D01*
X0287734Y0131196D01*
X0287748Y0131348D01*
X0287766Y0131501D01*
X0287788Y0131652D01*
X0287813Y0131803D01*
X0287843Y0131954D01*
X0287877Y0132104D01*
X0287914Y0132252D01*
X0287955Y0132400D01*
X0288000Y0132546D01*
X0288049Y0132692D01*
X0288102Y0132836D01*
X0288158Y0132978D01*
X0288218Y0133119D01*
X0288282Y0133259D01*
X0288349Y0133397D01*
X0288420Y0133533D01*
X0288495Y0133667D01*
X0288572Y0133799D01*
X0288654Y0133929D01*
X0288738Y0134057D01*
X0288826Y0134183D01*
X0288917Y0134306D01*
X0289011Y0134427D01*
X0289109Y0134545D01*
X0289209Y0134661D01*
X0289313Y0134774D01*
X0289419Y0134885D01*
X0289528Y0134993D01*
X0289640Y0135098D01*
X0289754Y0135199D01*
X0289872Y0135298D01*
X0289991Y0135394D01*
X0290113Y0135487D01*
X0290238Y0135576D01*
X0290365Y0135663D01*
X0290494Y0135745D01*
X0290625Y0135825D01*
X0290758Y0135901D01*
X0290893Y0135974D01*
X0291030Y0136043D01*
X0291169Y0136108D01*
X0291309Y0136170D01*
X0291451Y0136228D01*
X0291594Y0136283D01*
X0291739Y0136334D01*
X0291885Y0136381D01*
X0292032Y0136424D01*
X0292180Y0136463D01*
X0292329Y0136499D01*
X0292479Y0136530D01*
X0292630Y0136558D01*
X0292781Y0136582D01*
X0292934Y0136602D01*
X0293086Y0136618D01*
X0293239Y0136630D01*
X0293392Y0136638D01*
X0293545Y0136642D01*
X0293699Y0136642D01*
X0293852Y0136638D01*
X0294005Y0136630D01*
X0294158Y0136618D01*
X0294310Y0136602D01*
X0294463Y0136582D01*
X0294614Y0136558D01*
X0294765Y0136530D01*
X0294915Y0136499D01*
X0295064Y0136463D01*
X0295212Y0136424D01*
X0295359Y0136381D01*
X0295505Y0136334D01*
X0295650Y0136283D01*
X0295793Y0136228D01*
X0295935Y0136170D01*
X0296075Y0136108D01*
X0296214Y0136043D01*
X0296351Y0135974D01*
X0296486Y0135901D01*
X0296619Y0135825D01*
X0296750Y0135745D01*
X0296879Y0135663D01*
X0297006Y0135576D01*
X0297131Y0135487D01*
X0297253Y0135394D01*
X0297372Y0135298D01*
X0297490Y0135199D01*
X0297604Y0135098D01*
X0297716Y0134993D01*
X0297825Y0134885D01*
X0297931Y0134774D01*
X0298035Y0134661D01*
X0298135Y0134545D01*
X0298233Y0134427D01*
X0298327Y0134306D01*
X0298418Y0134183D01*
X0298506Y0134057D01*
X0298590Y0133929D01*
X0298672Y0133799D01*
X0298749Y0133667D01*
X0298824Y0133533D01*
X0298895Y0133397D01*
X0298962Y0133259D01*
X0299026Y0133119D01*
X0299086Y0132978D01*
X0299142Y0132836D01*
X0299195Y0132692D01*
X0299244Y0132546D01*
X0299289Y0132400D01*
X0299330Y0132252D01*
X0299367Y0132104D01*
X0299401Y0131954D01*
X0299431Y0131803D01*
X0299456Y0131652D01*
X0299478Y0131501D01*
X0299496Y0131348D01*
X0299510Y0131196D01*
X0299520Y0131043D01*
X0299526Y0130889D01*
X0299528Y0130736D01*
X0299526Y0130583D01*
X0299520Y0130429D01*
X0299510Y0130276D01*
X0299496Y0130124D01*
X0299478Y0129971D01*
X0299456Y0129820D01*
X0299431Y0129669D01*
X0299401Y0129518D01*
X0299367Y0129368D01*
X0299330Y0129220D01*
X0299289Y0129072D01*
X0299244Y0128926D01*
X0299195Y0128780D01*
X0299142Y0128636D01*
X0299086Y0128494D01*
X0299026Y0128353D01*
X0298962Y0128213D01*
X0298895Y0128075D01*
X0298824Y0127939D01*
X0298749Y0127805D01*
X0298672Y0127673D01*
X0298590Y0127543D01*
X0298506Y0127415D01*
X0298418Y0127289D01*
X0298327Y0127166D01*
X0298233Y0127045D01*
X0298135Y0126927D01*
X0298035Y0126811D01*
X0297931Y0126698D01*
X0297825Y0126587D01*
X0297716Y0126479D01*
X0297604Y0126374D01*
X0297490Y0126273D01*
X0297372Y0126174D01*
X0297253Y0126078D01*
X0297131Y0125985D01*
X0297006Y0125896D01*
X0296879Y0125809D01*
X0296750Y0125727D01*
X0296619Y0125647D01*
X0296486Y0125571D01*
X0296351Y0125498D01*
X0296214Y0125429D01*
X0296075Y0125364D01*
X0295935Y0125302D01*
X0295793Y0125244D01*
X0295650Y0125189D01*
X0295505Y0125138D01*
X0295359Y0125091D01*
X0295212Y0125048D01*
X0295064Y0125009D01*
X0294915Y0124973D01*
X0294765Y0124942D01*
X0294614Y0124914D01*
X0294463Y0124890D01*
X0294310Y0124870D01*
X0294158Y0124854D01*
X0294005Y0124842D01*
X0293852Y0124834D01*
X0293699Y0124830D01*
X0293545Y0124830D01*
X0293392Y0124834D01*
X0293239Y0124842D01*
X0293086Y0124854D01*
X0292934Y0124870D01*
X0292781Y0124890D01*
X0292630Y0124914D01*
X0292479Y0124942D01*
X0292329Y0124973D01*
X0292180Y0125009D01*
X0292032Y0125048D01*
X0291885Y0125091D01*
X0291739Y0125138D01*
X0291594Y0125189D01*
X0291451Y0125244D01*
X0291309Y0125302D01*
X0291169Y0125364D01*
X0291030Y0125429D01*
X0290893Y0125498D01*
X0290758Y0125571D01*
X0290625Y0125647D01*
X0290494Y0125727D01*
X0290365Y0125809D01*
X0290238Y0125896D01*
X0290113Y0125985D01*
X0289991Y0126078D01*
X0289872Y0126174D01*
X0289754Y0126273D01*
X0289640Y0126374D01*
X0289528Y0126479D01*
X0289419Y0126587D01*
X0289313Y0126698D01*
X0289209Y0126811D01*
X0289109Y0126927D01*
X0289011Y0127045D01*
X0288917Y0127166D01*
X0288826Y0127289D01*
X0288738Y0127415D01*
X0288654Y0127543D01*
X0288572Y0127673D01*
X0288495Y0127805D01*
X0288420Y0127939D01*
X0288349Y0128075D01*
X0288282Y0128213D01*
X0288218Y0128353D01*
X0288158Y0128494D01*
X0288102Y0128636D01*
X0288049Y0128780D01*
X0288000Y0128926D01*
X0287955Y0129072D01*
X0287914Y0129220D01*
X0287877Y0129368D01*
X0287843Y0129518D01*
X0287813Y0129669D01*
X0287788Y0129820D01*
X0287766Y0129971D01*
X0287748Y0130124D01*
X0287734Y0130276D01*
X0287724Y0130429D01*
X0287718Y0130583D01*
X0287716Y0130736D01*
X0282205Y0125618D02*
X0282205Y0135854D01*
X0318965Y0115883D02*
X0321967Y0115883D01*
X0360268Y0116004D02*
X0360268Y0175059D01*
X0382827Y0168031D02*
X0402827Y0168031D01*
X0415386Y0175059D02*
X0415386Y0116004D01*
X0402827Y0150531D02*
X0382827Y0150531D01*
X0382613Y0150503D01*
X0382398Y0150480D01*
X0382182Y0150463D01*
X0381966Y0150451D01*
X0381750Y0150444D01*
X0381534Y0150442D01*
X0381317Y0150446D01*
X0381101Y0150455D01*
X0380886Y0150469D01*
X0380670Y0150489D01*
X0380455Y0150513D01*
X0380241Y0150544D01*
X0380028Y0150579D01*
X0379815Y0150619D01*
X0379604Y0150665D01*
X0379394Y0150716D01*
X0379185Y0150772D01*
X0378977Y0150833D01*
X0378772Y0150899D01*
X0378567Y0150970D01*
X0378365Y0151046D01*
X0378164Y0151127D01*
X0377966Y0151213D01*
X0377770Y0151304D01*
X0377576Y0151400D01*
X0377384Y0151500D01*
X0377195Y0151605D01*
X0377008Y0151714D01*
X0376825Y0151828D01*
X0376644Y0151947D01*
X0376466Y0152070D01*
X0376291Y0152197D01*
X0376119Y0152328D01*
X0375951Y0152464D01*
X0375786Y0152604D01*
X0375624Y0152747D01*
X0375466Y0152895D01*
X0375312Y0153046D01*
X0375161Y0153201D01*
X0375014Y0153360D01*
X0374871Y0153522D01*
X0374732Y0153688D01*
X0374598Y0153857D01*
X0374467Y0154030D01*
X0374341Y0154205D01*
X0374219Y0154384D01*
X0374101Y0154565D01*
X0373988Y0154750D01*
X0373879Y0154937D01*
X0373775Y0155126D01*
X0373676Y0155318D01*
X0373581Y0155513D01*
X0373492Y0155710D01*
X0373407Y0155908D01*
X0373327Y0156109D01*
X0373252Y0156312D01*
X0373181Y0156517D01*
X0373116Y0156723D01*
X0373056Y0156931D01*
X0373001Y0157140D01*
X0372951Y0157350D01*
X0372907Y0157562D01*
X0372867Y0157775D01*
X0372833Y0157988D01*
X0372804Y0158202D01*
X0372780Y0158417D01*
X0372762Y0158633D01*
X0372749Y0158849D01*
X0372741Y0159065D01*
X0372738Y0159281D01*
X0372741Y0159497D01*
X0372749Y0159713D01*
X0372762Y0159929D01*
X0372780Y0160145D01*
X0372804Y0160360D01*
X0372833Y0160574D01*
X0372867Y0160787D01*
X0372907Y0161000D01*
X0372951Y0161212D01*
X0373001Y0161422D01*
X0373056Y0161631D01*
X0373116Y0161839D01*
X0373181Y0162045D01*
X0373252Y0162250D01*
X0373327Y0162453D01*
X0373407Y0162654D01*
X0373492Y0162852D01*
X0373581Y0163049D01*
X0373676Y0163244D01*
X0373775Y0163436D01*
X0373879Y0163625D01*
X0373988Y0163812D01*
X0374101Y0163997D01*
X0374219Y0164178D01*
X0374341Y0164357D01*
X0374467Y0164532D01*
X0374598Y0164705D01*
X0374732Y0164874D01*
X0374871Y0165040D01*
X0375014Y0165202D01*
X0375161Y0165361D01*
X0375312Y0165516D01*
X0375466Y0165667D01*
X0375624Y0165815D01*
X0375786Y0165958D01*
X0375951Y0166098D01*
X0376119Y0166234D01*
X0376291Y0166365D01*
X0376466Y0166492D01*
X0376644Y0166615D01*
X0376825Y0166734D01*
X0377008Y0166848D01*
X0377195Y0166957D01*
X0377384Y0167062D01*
X0377576Y0167162D01*
X0377770Y0167258D01*
X0377966Y0167349D01*
X0378164Y0167435D01*
X0378365Y0167516D01*
X0378567Y0167592D01*
X0378772Y0167663D01*
X0378977Y0167729D01*
X0379185Y0167790D01*
X0379394Y0167846D01*
X0379604Y0167897D01*
X0379815Y0167943D01*
X0380028Y0167983D01*
X0380241Y0168018D01*
X0380455Y0168049D01*
X0380670Y0168073D01*
X0380886Y0168093D01*
X0381101Y0168107D01*
X0381317Y0168116D01*
X0381534Y0168120D01*
X0381750Y0168118D01*
X0381966Y0168111D01*
X0382182Y0168099D01*
X0382398Y0168082D01*
X0382613Y0168059D01*
X0382827Y0168031D01*
X0402827Y0168031D02*
X0403040Y0168028D01*
X0403253Y0168021D01*
X0403466Y0168008D01*
X0403678Y0167990D01*
X0403890Y0167966D01*
X0404101Y0167938D01*
X0404311Y0167904D01*
X0404521Y0167865D01*
X0404730Y0167822D01*
X0404937Y0167773D01*
X0405143Y0167719D01*
X0405348Y0167660D01*
X0405551Y0167596D01*
X0405753Y0167527D01*
X0405953Y0167454D01*
X0406151Y0167375D01*
X0406347Y0167292D01*
X0406541Y0167204D01*
X0406733Y0167111D01*
X0406922Y0167013D01*
X0407109Y0166911D01*
X0407294Y0166805D01*
X0407476Y0166694D01*
X0407655Y0166578D01*
X0407831Y0166459D01*
X0408005Y0166335D01*
X0408175Y0166207D01*
X0408342Y0166074D01*
X0408506Y0165938D01*
X0408666Y0165798D01*
X0408823Y0165654D01*
X0408976Y0165506D01*
X0409126Y0165354D01*
X0409272Y0165199D01*
X0409414Y0165040D01*
X0409553Y0164878D01*
X0409687Y0164713D01*
X0409817Y0164544D01*
X0409943Y0164372D01*
X0410065Y0164197D01*
X0410183Y0164020D01*
X0410296Y0163839D01*
X0410405Y0163656D01*
X0410509Y0163470D01*
X0410609Y0163282D01*
X0410704Y0163091D01*
X0410794Y0162898D01*
X0410880Y0162703D01*
X0410961Y0162506D01*
X0411037Y0162307D01*
X0411108Y0162106D01*
X0411175Y0161904D01*
X0411236Y0161700D01*
X0411292Y0161494D01*
X0411344Y0161287D01*
X0411390Y0161079D01*
X0411431Y0160870D01*
X0411468Y0160660D01*
X0411499Y0160450D01*
X0411525Y0160238D01*
X0411545Y0160026D01*
X0411561Y0159813D01*
X0411571Y0159601D01*
X0411576Y0159388D01*
X0411576Y0159174D01*
X0411571Y0158961D01*
X0411561Y0158749D01*
X0411545Y0158536D01*
X0411525Y0158324D01*
X0411499Y0158112D01*
X0411468Y0157902D01*
X0411431Y0157692D01*
X0411390Y0157483D01*
X0411344Y0157275D01*
X0411292Y0157068D01*
X0411236Y0156862D01*
X0411175Y0156658D01*
X0411108Y0156456D01*
X0411037Y0156255D01*
X0410961Y0156056D01*
X0410880Y0155859D01*
X0410794Y0155664D01*
X0410704Y0155471D01*
X0410609Y0155280D01*
X0410509Y0155092D01*
X0410405Y0154906D01*
X0410296Y0154723D01*
X0410183Y0154542D01*
X0410065Y0154365D01*
X0409943Y0154190D01*
X0409817Y0154018D01*
X0409687Y0153849D01*
X0409553Y0153684D01*
X0409414Y0153522D01*
X0409272Y0153363D01*
X0409126Y0153208D01*
X0408976Y0153056D01*
X0408823Y0152908D01*
X0408666Y0152764D01*
X0408506Y0152624D01*
X0408342Y0152488D01*
X0408175Y0152355D01*
X0408005Y0152227D01*
X0407831Y0152103D01*
X0407655Y0151984D01*
X0407476Y0151868D01*
X0407294Y0151757D01*
X0407109Y0151651D01*
X0406922Y0151549D01*
X0406733Y0151451D01*
X0406541Y0151358D01*
X0406347Y0151270D01*
X0406151Y0151187D01*
X0405953Y0151108D01*
X0405753Y0151035D01*
X0405551Y0150966D01*
X0405348Y0150902D01*
X0405143Y0150843D01*
X0404937Y0150789D01*
X0404730Y0150740D01*
X0404521Y0150697D01*
X0404311Y0150658D01*
X0404101Y0150624D01*
X0403890Y0150596D01*
X0403678Y0150572D01*
X0403466Y0150554D01*
X0403253Y0150541D01*
X0403040Y0150534D01*
X0402827Y0150531D01*
X0402160Y0202003D02*
X0401160Y0203004D01*
X0401660Y0203004D02*
X0400159Y0203004D01*
X0400159Y0202003D02*
X0400159Y0205006D01*
X0401660Y0205006D01*
X0402160Y0204505D01*
X0402160Y0203505D01*
X0401660Y0203004D01*
X0403381Y0202504D02*
X0403882Y0202003D01*
X0404883Y0202003D01*
X0405383Y0202504D01*
X0405383Y0203004D01*
X0404883Y0203505D01*
X0403882Y0203505D01*
X0403381Y0204005D01*
X0403381Y0204505D01*
X0403882Y0205006D01*
X0404883Y0205006D01*
X0405383Y0204505D01*
X0406604Y0205006D02*
X0408606Y0205006D01*
X0407605Y0205006D02*
X0407605Y0202003D01*
X0397619Y0202059D02*
X0395618Y0204061D01*
X0394397Y0204561D02*
X0394397Y0203561D01*
X0393896Y0203060D01*
X0392395Y0203060D01*
X0393396Y0203060D02*
X0394397Y0202059D01*
X0395618Y0202059D02*
X0397619Y0204061D01*
X0394397Y0204561D02*
X0393896Y0205062D01*
X0392395Y0205062D01*
X0392395Y0202059D01*
X0388019Y0201859D02*
X0386018Y0203861D01*
X0384797Y0204862D02*
X0382795Y0204862D01*
X0383796Y0204862D02*
X0383796Y0201859D01*
X0386018Y0201859D02*
X0388019Y0203861D01*
X0377577Y0202860D02*
X0377577Y0204862D01*
X0377577Y0202860D02*
X0376576Y0201859D01*
X0375575Y0202860D01*
X0375575Y0204862D01*
X0374354Y0204862D02*
X0372352Y0204862D01*
X0372352Y0203361D01*
X0373353Y0203861D01*
X0373854Y0203861D01*
X0374354Y0203361D01*
X0374354Y0202360D01*
X0373854Y0201859D01*
X0372853Y0201859D01*
X0372352Y0202360D01*
X0359842Y0202260D02*
X0359842Y0204261D01*
X0359342Y0204762D01*
X0357840Y0204762D01*
X0357840Y0201759D01*
X0359342Y0201759D01*
X0359842Y0202260D01*
X0356619Y0201759D02*
X0356619Y0204762D01*
X0354618Y0204762D02*
X0356619Y0201759D01*
X0354618Y0201759D02*
X0354618Y0204762D01*
X0353397Y0204261D02*
X0352896Y0204762D01*
X0351895Y0204762D01*
X0351395Y0204261D01*
X0351395Y0202260D01*
X0351895Y0201759D01*
X0352896Y0201759D01*
X0353397Y0202260D01*
X0353397Y0203261D01*
X0352396Y0203261D01*
X0309795Y0245311D02*
X0310545Y0246062D01*
X0310545Y0249064D01*
X0309795Y0249815D01*
X0308294Y0249815D01*
X0307543Y0249064D01*
X0307543Y0246062D01*
X0308294Y0245311D01*
X0309795Y0245311D01*
X0305942Y0249815D02*
X0302939Y0245311D01*
X0301371Y0245311D02*
X0299870Y0245311D01*
X0300620Y0245311D02*
X0300620Y0249815D01*
X0299870Y0249815D02*
X0301371Y0249815D01*
X0219517Y0284533D02*
X0219517Y0304218D01*
X0207706Y0304218D01*
X0207706Y0284533D01*
X0219517Y0284533D01*
X0219517Y0300281D02*
X0207706Y0300281D01*
X0207706Y0302249D01*
X0219517Y0302249D01*
X0219517Y0300281D01*
X0219517Y0300778D02*
X0207706Y0300778D01*
X0207706Y0301277D02*
X0219517Y0301277D01*
X0219517Y0301775D02*
X0207706Y0301775D01*
X0221276Y0306634D02*
X0221276Y0339134D01*
X0253776Y0339134D01*
X0253776Y0306634D01*
X0221276Y0306634D01*
X0133975Y0277635D02*
X0133975Y0276133D01*
X0133225Y0275383D01*
X0130973Y0275383D01*
X0132474Y0275383D02*
X0133975Y0273881D01*
X0130973Y0273881D02*
X0130973Y0278385D01*
X0133225Y0278385D01*
X0133975Y0277635D01*
X0129371Y0278385D02*
X0129371Y0273881D01*
X0127870Y0275383D01*
X0126369Y0273881D01*
X0126369Y0278385D01*
X0124767Y0277635D02*
X0124767Y0276133D01*
X0124017Y0275383D01*
X0121765Y0275383D01*
X0121765Y0273881D02*
X0121765Y0278385D01*
X0124017Y0278385D01*
X0124767Y0277635D01*
X0115560Y0277635D02*
X0115560Y0276133D01*
X0114809Y0275383D01*
X0112557Y0275383D01*
X0112557Y0273881D02*
X0112557Y0278385D01*
X0114809Y0278385D01*
X0115560Y0277635D01*
X0110956Y0278385D02*
X0109454Y0278385D01*
X0110205Y0278385D02*
X0110205Y0274632D01*
X0109454Y0273881D01*
X0108704Y0273881D01*
X0107953Y0274632D01*
X0117161Y0273131D02*
X0120164Y0273131D01*
X0319760Y0301081D02*
X0319760Y0305585D01*
X0322012Y0305585D01*
X0322763Y0304835D01*
X0322763Y0303333D01*
X0322012Y0302583D01*
X0319760Y0302583D01*
X0321262Y0302583D02*
X0322763Y0301081D01*
X0324364Y0301081D02*
X0327367Y0301081D01*
X0328968Y0301832D02*
X0329719Y0301081D01*
X0331220Y0301081D01*
X0331971Y0301832D01*
X0331971Y0303333D01*
X0330469Y0303333D01*
X0328968Y0301832D02*
X0328968Y0304835D01*
X0329719Y0305585D01*
X0331220Y0305585D01*
X0331971Y0304835D01*
X0333572Y0304084D02*
X0335073Y0305585D01*
X0335073Y0301081D01*
X0333572Y0301081D02*
X0336575Y0301081D01*
X0338176Y0301081D02*
X0341179Y0301081D01*
X0339677Y0301081D02*
X0339677Y0305585D01*
X0338176Y0304084D01*
X0342780Y0304084D02*
X0344281Y0305585D01*
X0344281Y0301081D01*
X0342780Y0301081D02*
X0345782Y0301081D01*
X0347384Y0301081D02*
X0347384Y0301832D01*
X0350386Y0304835D01*
X0350386Y0305585D01*
X0347384Y0305585D01*
X0327367Y0305585D02*
X0324364Y0305585D01*
X0324364Y0301081D01*
X0324364Y0303333D02*
X0325865Y0303333D01*
X0356220Y0318020D02*
X0356220Y0342429D01*
X0380630Y0342429D01*
X0380630Y0318020D01*
X0356220Y0318020D01*
X0357008Y0325106D02*
X0357008Y0335342D01*
X0362519Y0330224D02*
X0362521Y0330377D01*
X0362527Y0330531D01*
X0362537Y0330684D01*
X0362551Y0330836D01*
X0362569Y0330989D01*
X0362591Y0331140D01*
X0362616Y0331291D01*
X0362646Y0331442D01*
X0362680Y0331592D01*
X0362717Y0331740D01*
X0362758Y0331888D01*
X0362803Y0332034D01*
X0362852Y0332180D01*
X0362905Y0332324D01*
X0362961Y0332466D01*
X0363021Y0332607D01*
X0363085Y0332747D01*
X0363152Y0332885D01*
X0363223Y0333021D01*
X0363298Y0333155D01*
X0363375Y0333287D01*
X0363457Y0333417D01*
X0363541Y0333545D01*
X0363629Y0333671D01*
X0363720Y0333794D01*
X0363814Y0333915D01*
X0363912Y0334033D01*
X0364012Y0334149D01*
X0364116Y0334262D01*
X0364222Y0334373D01*
X0364331Y0334481D01*
X0364443Y0334586D01*
X0364557Y0334687D01*
X0364675Y0334786D01*
X0364794Y0334882D01*
X0364916Y0334975D01*
X0365041Y0335064D01*
X0365168Y0335151D01*
X0365297Y0335233D01*
X0365428Y0335313D01*
X0365561Y0335389D01*
X0365696Y0335462D01*
X0365833Y0335531D01*
X0365972Y0335596D01*
X0366112Y0335658D01*
X0366254Y0335716D01*
X0366397Y0335771D01*
X0366542Y0335822D01*
X0366688Y0335869D01*
X0366835Y0335912D01*
X0366983Y0335951D01*
X0367132Y0335987D01*
X0367282Y0336018D01*
X0367433Y0336046D01*
X0367584Y0336070D01*
X0367737Y0336090D01*
X0367889Y0336106D01*
X0368042Y0336118D01*
X0368195Y0336126D01*
X0368348Y0336130D01*
X0368502Y0336130D01*
X0368655Y0336126D01*
X0368808Y0336118D01*
X0368961Y0336106D01*
X0369113Y0336090D01*
X0369266Y0336070D01*
X0369417Y0336046D01*
X0369568Y0336018D01*
X0369718Y0335987D01*
X0369867Y0335951D01*
X0370015Y0335912D01*
X0370162Y0335869D01*
X0370308Y0335822D01*
X0370453Y0335771D01*
X0370596Y0335716D01*
X0370738Y0335658D01*
X0370878Y0335596D01*
X0371017Y0335531D01*
X0371154Y0335462D01*
X0371289Y0335389D01*
X0371422Y0335313D01*
X0371553Y0335233D01*
X0371682Y0335151D01*
X0371809Y0335064D01*
X0371934Y0334975D01*
X0372056Y0334882D01*
X0372175Y0334786D01*
X0372293Y0334687D01*
X0372407Y0334586D01*
X0372519Y0334481D01*
X0372628Y0334373D01*
X0372734Y0334262D01*
X0372838Y0334149D01*
X0372938Y0334033D01*
X0373036Y0333915D01*
X0373130Y0333794D01*
X0373221Y0333671D01*
X0373309Y0333545D01*
X0373393Y0333417D01*
X0373475Y0333287D01*
X0373552Y0333155D01*
X0373627Y0333021D01*
X0373698Y0332885D01*
X0373765Y0332747D01*
X0373829Y0332607D01*
X0373889Y0332466D01*
X0373945Y0332324D01*
X0373998Y0332180D01*
X0374047Y0332034D01*
X0374092Y0331888D01*
X0374133Y0331740D01*
X0374170Y0331592D01*
X0374204Y0331442D01*
X0374234Y0331291D01*
X0374259Y0331140D01*
X0374281Y0330989D01*
X0374299Y0330836D01*
X0374313Y0330684D01*
X0374323Y0330531D01*
X0374329Y0330377D01*
X0374331Y0330224D01*
X0374329Y0330071D01*
X0374323Y0329917D01*
X0374313Y0329764D01*
X0374299Y0329612D01*
X0374281Y0329459D01*
X0374259Y0329308D01*
X0374234Y0329157D01*
X0374204Y0329006D01*
X0374170Y0328856D01*
X0374133Y0328708D01*
X0374092Y0328560D01*
X0374047Y0328414D01*
X0373998Y0328268D01*
X0373945Y0328124D01*
X0373889Y0327982D01*
X0373829Y0327841D01*
X0373765Y0327701D01*
X0373698Y0327563D01*
X0373627Y0327427D01*
X0373552Y0327293D01*
X0373475Y0327161D01*
X0373393Y0327031D01*
X0373309Y0326903D01*
X0373221Y0326777D01*
X0373130Y0326654D01*
X0373036Y0326533D01*
X0372938Y0326415D01*
X0372838Y0326299D01*
X0372734Y0326186D01*
X0372628Y0326075D01*
X0372519Y0325967D01*
X0372407Y0325862D01*
X0372293Y0325761D01*
X0372175Y0325662D01*
X0372056Y0325566D01*
X0371934Y0325473D01*
X0371809Y0325384D01*
X0371682Y0325297D01*
X0371553Y0325215D01*
X0371422Y0325135D01*
X0371289Y0325059D01*
X0371154Y0324986D01*
X0371017Y0324917D01*
X0370878Y0324852D01*
X0370738Y0324790D01*
X0370596Y0324732D01*
X0370453Y0324677D01*
X0370308Y0324626D01*
X0370162Y0324579D01*
X0370015Y0324536D01*
X0369867Y0324497D01*
X0369718Y0324461D01*
X0369568Y0324430D01*
X0369417Y0324402D01*
X0369266Y0324378D01*
X0369113Y0324358D01*
X0368961Y0324342D01*
X0368808Y0324330D01*
X0368655Y0324322D01*
X0368502Y0324318D01*
X0368348Y0324318D01*
X0368195Y0324322D01*
X0368042Y0324330D01*
X0367889Y0324342D01*
X0367737Y0324358D01*
X0367584Y0324378D01*
X0367433Y0324402D01*
X0367282Y0324430D01*
X0367132Y0324461D01*
X0366983Y0324497D01*
X0366835Y0324536D01*
X0366688Y0324579D01*
X0366542Y0324626D01*
X0366397Y0324677D01*
X0366254Y0324732D01*
X0366112Y0324790D01*
X0365972Y0324852D01*
X0365833Y0324917D01*
X0365696Y0324986D01*
X0365561Y0325059D01*
X0365428Y0325135D01*
X0365297Y0325215D01*
X0365168Y0325297D01*
X0365041Y0325384D01*
X0364916Y0325473D01*
X0364794Y0325566D01*
X0364675Y0325662D01*
X0364557Y0325761D01*
X0364443Y0325862D01*
X0364331Y0325967D01*
X0364222Y0326075D01*
X0364116Y0326186D01*
X0364012Y0326299D01*
X0363912Y0326415D01*
X0363814Y0326533D01*
X0363720Y0326654D01*
X0363629Y0326777D01*
X0363541Y0326903D01*
X0363457Y0327031D01*
X0363375Y0327161D01*
X0363298Y0327293D01*
X0363223Y0327427D01*
X0363152Y0327563D01*
X0363085Y0327701D01*
X0363021Y0327841D01*
X0362961Y0327982D01*
X0362905Y0328124D01*
X0362852Y0328268D01*
X0362803Y0328414D01*
X0362758Y0328560D01*
X0362717Y0328708D01*
X0362680Y0328856D01*
X0362646Y0329006D01*
X0362616Y0329157D01*
X0362591Y0329308D01*
X0362569Y0329459D01*
X0362551Y0329612D01*
X0362537Y0329764D01*
X0362527Y0329917D01*
X0362521Y0330071D01*
X0362519Y0330224D01*
X0379843Y0335342D02*
X0379843Y0325106D01*
X0059309Y0158569D02*
X0058391Y0159486D01*
X0055639Y0159486D01*
X0055639Y0153981D01*
X0058391Y0153981D01*
X0059309Y0154899D01*
X0059309Y0158569D01*
X0053784Y0159486D02*
X0053784Y0153981D01*
X0050114Y0159486D01*
X0050114Y0153981D01*
X0048259Y0154899D02*
X0048259Y0156734D01*
X0046425Y0156734D01*
X0048259Y0158569D02*
X0047342Y0159486D01*
X0045507Y0159486D01*
X0044590Y0158569D01*
X0044590Y0154899D01*
X0045507Y0153981D01*
X0047342Y0153981D01*
X0048259Y0154899D01*
X0048270Y0150486D02*
X0050104Y0150486D01*
X0051022Y0149569D01*
X0047352Y0145899D01*
X0048270Y0144981D01*
X0050104Y0144981D01*
X0051022Y0145899D01*
X0051022Y0149569D01*
X0052877Y0150486D02*
X0052877Y0146816D01*
X0054712Y0144981D01*
X0056547Y0146816D01*
X0056547Y0150486D01*
X0058401Y0150486D02*
X0060236Y0148651D01*
X0060236Y0146816D01*
X0058401Y0144981D01*
X0047352Y0145899D02*
X0047352Y0149569D01*
X0048270Y0150486D01*
X0045504Y0150486D02*
X0043669Y0148651D01*
X0043669Y0146816D01*
X0045504Y0144981D01*
X0355577Y0072284D02*
X0357078Y0073785D01*
X0358579Y0072284D01*
X0358579Y0069281D01*
X0360181Y0069281D02*
X0360181Y0073785D01*
X0363183Y0069281D01*
X0363183Y0073785D01*
X0364785Y0073785D02*
X0367787Y0073785D01*
X0366286Y0073785D02*
X0366286Y0069281D01*
X0369389Y0069281D02*
X0372391Y0069281D01*
X0370890Y0069281D02*
X0370890Y0073785D01*
X0369389Y0072284D01*
X0358579Y0071533D02*
X0355577Y0071533D01*
X0355577Y0072284D02*
X0355577Y0069281D01*
D13*
X0363223Y0138308D02*
X0363223Y0140410D01*
X0363924Y0141110D01*
X0365325Y0141110D01*
X0366026Y0140410D01*
X0366026Y0138308D01*
X0367427Y0138308D02*
X0363223Y0138308D01*
X0366026Y0139709D02*
X0367427Y0141110D01*
X0367427Y0142912D02*
X0363223Y0142912D01*
X0363223Y0145714D01*
X0363223Y0147516D02*
X0364624Y0148917D01*
X0363223Y0150318D01*
X0367427Y0150318D01*
X0367427Y0152119D02*
X0367427Y0154922D01*
X0367427Y0153521D02*
X0363223Y0153521D01*
X0364624Y0152119D01*
X0363924Y0156723D02*
X0363223Y0157424D01*
X0363223Y0158825D01*
X0363924Y0159526D01*
X0364624Y0159526D01*
X0367427Y0156723D01*
X0367427Y0159526D01*
X0367427Y0161327D02*
X0367427Y0163429D01*
X0366726Y0164130D01*
X0366026Y0164130D01*
X0365325Y0163429D01*
X0365325Y0161327D01*
X0367427Y0161327D02*
X0363223Y0161327D01*
X0363223Y0163429D01*
X0363924Y0164130D01*
X0364624Y0164130D01*
X0365325Y0163429D01*
X0367427Y0147516D02*
X0363223Y0147516D01*
X0365325Y0144313D02*
X0365325Y0142912D01*
X0408223Y0144130D02*
X0408223Y0141327D01*
X0412427Y0141327D01*
X0412427Y0139526D02*
X0411026Y0138125D01*
X0411026Y0138825D02*
X0411026Y0136723D01*
X0412427Y0136723D02*
X0408223Y0136723D01*
X0408223Y0138825D01*
X0408924Y0139526D01*
X0410325Y0139526D01*
X0411026Y0138825D01*
X0410325Y0141327D02*
X0410325Y0142729D01*
X0407344Y0183889D02*
X0405943Y0183889D01*
X0406644Y0183889D02*
X0406644Y0188092D01*
X0407344Y0188092D02*
X0405943Y0188092D01*
X0404142Y0187392D02*
X0403441Y0188092D01*
X0401339Y0188092D01*
X0401339Y0183889D01*
X0403441Y0183889D01*
X0404142Y0184589D01*
X0404142Y0187392D01*
X0402027Y0190631D02*
X0399527Y0193131D01*
X0397027Y0190631D01*
X0392027Y0190631D01*
X0389527Y0193131D01*
X0387027Y0190631D01*
X0382027Y0190631D01*
X0379527Y0193131D01*
X0377027Y0190631D01*
X0372027Y0190631D01*
X0369527Y0193131D01*
X0367027Y0190631D01*
X0362027Y0190631D01*
X0359527Y0193131D01*
X0357027Y0190631D01*
X0352027Y0190631D01*
X0349527Y0193131D01*
X0349527Y0198131D01*
X0352027Y0200631D01*
X0357027Y0200631D01*
X0359527Y0198131D01*
X0362027Y0200631D01*
X0367027Y0200631D01*
X0369527Y0198131D01*
X0372027Y0200631D01*
X0377027Y0200631D01*
X0379527Y0198131D01*
X0382027Y0200631D01*
X0387027Y0200631D01*
X0389527Y0198131D01*
X0392027Y0200631D01*
X0397027Y0200631D01*
X0399527Y0198131D01*
X0402027Y0200631D01*
X0407027Y0200631D01*
X0409527Y0198131D01*
X0409527Y0193131D01*
X0407027Y0190631D01*
X0402027Y0190631D01*
X0399538Y0188092D02*
X0396735Y0188092D01*
X0398137Y0188092D02*
X0398137Y0183889D01*
X0393533Y0185991D02*
X0392131Y0185991D01*
X0392131Y0188092D02*
X0394934Y0188092D01*
X0392131Y0188092D02*
X0392131Y0183889D01*
X0385726Y0188092D02*
X0382924Y0183889D01*
X0376518Y0188092D02*
X0373716Y0188092D01*
X0375117Y0188092D02*
X0375117Y0183889D01*
X0371914Y0183889D02*
X0370513Y0185290D01*
X0371214Y0185290D02*
X0369112Y0185290D01*
X0369112Y0183889D02*
X0369112Y0188092D01*
X0371214Y0188092D01*
X0371914Y0187392D01*
X0371914Y0185991D01*
X0371214Y0185290D01*
X0367310Y0185991D02*
X0364508Y0185991D01*
X0364508Y0186691D02*
X0365909Y0188092D01*
X0367310Y0186691D01*
X0367310Y0183889D01*
X0364508Y0183889D02*
X0364508Y0186691D01*
X0362706Y0188092D02*
X0362706Y0184589D01*
X0362006Y0183889D01*
X0360605Y0183889D01*
X0359904Y0184589D01*
X0359904Y0188092D01*
X0317347Y0186735D02*
X0315212Y0186735D01*
X0316280Y0186735D02*
X0316280Y0189938D01*
X0315212Y0188870D01*
X0313664Y0186735D02*
X0311529Y0186735D01*
X0312597Y0186735D02*
X0312597Y0189938D01*
X0311529Y0188870D01*
X0309981Y0189404D02*
X0309447Y0189938D01*
X0308380Y0189938D01*
X0307846Y0189404D01*
X0307846Y0187269D01*
X0308380Y0186735D01*
X0309447Y0186735D01*
X0309981Y0187269D01*
X0296519Y0188559D02*
X0294384Y0188559D01*
X0295985Y0190160D01*
X0295985Y0186957D01*
X0292836Y0187491D02*
X0292302Y0186957D01*
X0291235Y0186957D01*
X0290701Y0187491D01*
X0290701Y0189626D01*
X0291235Y0190160D01*
X0292302Y0190160D01*
X0292836Y0189626D01*
X0352073Y0216809D02*
X0352073Y0220012D01*
X0353675Y0220012D01*
X0354209Y0219478D01*
X0354209Y0218411D01*
X0353675Y0217877D01*
X0352073Y0217877D01*
X0353141Y0217877D02*
X0354209Y0216809D01*
X0355757Y0216809D02*
X0357892Y0216809D01*
X0356824Y0216809D02*
X0356824Y0220012D01*
X0355757Y0218944D01*
X0359440Y0219478D02*
X0359973Y0220012D01*
X0361041Y0220012D01*
X0361575Y0219478D01*
X0359440Y0217343D01*
X0359973Y0216809D01*
X0361041Y0216809D01*
X0361575Y0217343D01*
X0361575Y0219478D01*
X0359440Y0219478D02*
X0359440Y0217343D01*
X0386079Y0222031D02*
X0386079Y0227031D01*
X0388579Y0229531D01*
X0403579Y0229531D01*
X0406079Y0232031D01*
X0406079Y0237031D01*
X0403579Y0239531D01*
X0388579Y0239531D01*
X0386079Y0242031D01*
X0386079Y0247031D01*
X0388579Y0249531D01*
X0403579Y0249531D01*
X0406079Y0247031D01*
X0406079Y0242031D01*
X0403579Y0239531D01*
X0403579Y0229531D02*
X0406079Y0227031D01*
X0406079Y0222031D01*
X0403579Y0219531D01*
X0388579Y0219531D01*
X0386079Y0222031D01*
X0391396Y0217321D02*
X0392463Y0217321D01*
X0391929Y0217321D02*
X0391929Y0214118D01*
X0391396Y0214118D02*
X0392463Y0214118D01*
X0393851Y0214652D02*
X0394385Y0214118D01*
X0395452Y0214118D01*
X0395986Y0214652D01*
X0395986Y0215186D01*
X0395452Y0215719D01*
X0394385Y0215719D01*
X0393851Y0216253D01*
X0393851Y0216787D01*
X0394385Y0217321D01*
X0395452Y0217321D01*
X0395986Y0216787D01*
X0397534Y0217321D02*
X0399136Y0217321D01*
X0399669Y0216787D01*
X0399669Y0215719D01*
X0399136Y0215186D01*
X0397534Y0215186D01*
X0397534Y0214118D02*
X0397534Y0217321D01*
X0407398Y0222031D02*
X0407398Y0227031D01*
X0388579Y0229531D02*
X0386079Y0232031D01*
X0386079Y0237031D01*
X0388579Y0239531D01*
X0393083Y0252130D02*
X0406961Y0256953D01*
X0406961Y0252031D01*
X0372512Y0252031D01*
X0372512Y0254216D01*
X0382059Y0256579D02*
X0382059Y0262484D01*
X0397807Y0262484D01*
X0397807Y0256579D01*
X0382059Y0256579D01*
X0372512Y0264216D02*
X0372512Y0264748D01*
X0382059Y0266579D02*
X0382059Y0272484D01*
X0397807Y0272484D01*
X0397807Y0266579D01*
X0382059Y0266579D01*
X0372512Y0274748D02*
X0372512Y0276933D01*
X0406961Y0276933D01*
X0406961Y0274748D01*
X0413617Y0275153D02*
X0414317Y0275854D01*
X0415718Y0275854D01*
X0416419Y0275153D01*
X0416419Y0274453D01*
X0413617Y0271650D01*
X0416419Y0271650D01*
X0406961Y0264748D02*
X0406961Y0264216D01*
X0413617Y0259453D02*
X0415018Y0260854D01*
X0415018Y0256650D01*
X0413617Y0256650D02*
X0416419Y0256650D01*
X0358929Y0262279D02*
X0358395Y0261745D01*
X0357328Y0261745D01*
X0356794Y0262279D01*
X0356794Y0262813D01*
X0357328Y0263347D01*
X0358395Y0263347D01*
X0358929Y0262813D01*
X0358929Y0262279D01*
X0358395Y0263347D02*
X0358929Y0263881D01*
X0358929Y0264414D01*
X0358395Y0264948D01*
X0357328Y0264948D01*
X0356794Y0264414D01*
X0356794Y0263881D01*
X0357328Y0263347D01*
X0355246Y0264414D02*
X0354712Y0264948D01*
X0353645Y0264948D01*
X0353111Y0264414D01*
X0353111Y0262279D01*
X0353645Y0261745D01*
X0354712Y0261745D01*
X0355246Y0262279D01*
X0318827Y0269031D02*
X0316327Y0266531D01*
X0311327Y0266531D01*
X0308827Y0269031D01*
X0306327Y0266531D01*
X0301327Y0266531D01*
X0298827Y0269031D01*
X0298827Y0274031D01*
X0301327Y0276531D01*
X0306327Y0276531D01*
X0308827Y0274031D01*
X0311327Y0276531D01*
X0316327Y0276531D01*
X0318827Y0274031D01*
X0318827Y0269031D01*
X0307043Y0242949D02*
X0302043Y0242949D01*
X0299543Y0240449D01*
X0299543Y0235449D01*
X0302043Y0232949D01*
X0299543Y0230449D01*
X0299543Y0225449D01*
X0302043Y0222949D01*
X0307043Y0222949D01*
X0309543Y0225449D01*
X0309543Y0230449D01*
X0307043Y0232949D01*
X0309543Y0235449D01*
X0309543Y0240449D01*
X0307043Y0242949D01*
X0225927Y0260631D02*
X0223427Y0258131D01*
X0218427Y0258131D01*
X0215927Y0260631D01*
X0213427Y0258131D01*
X0208427Y0258131D01*
X0205927Y0260631D01*
X0203427Y0258131D01*
X0198427Y0258131D01*
X0195927Y0260631D01*
X0195927Y0265631D01*
X0198427Y0268131D01*
X0203427Y0268131D01*
X0205927Y0265631D01*
X0208427Y0268131D01*
X0213427Y0268131D01*
X0215927Y0265631D01*
X0218427Y0268131D01*
X0223427Y0268131D01*
X0225927Y0265631D01*
X0225927Y0260631D01*
X0172437Y0265070D02*
X0172437Y0253993D01*
X0161217Y0253993D01*
X0161217Y0265070D01*
X0172437Y0265070D01*
X0111365Y0290566D02*
X0111365Y0295503D01*
X0106428Y0290566D01*
X0107662Y0289331D01*
X0110131Y0289331D01*
X0111365Y0290566D01*
X0106428Y0290566D02*
X0106428Y0295503D01*
X0107662Y0296738D01*
X0110131Y0296738D01*
X0111365Y0295503D01*
X0101346Y0296738D02*
X0101346Y0289331D01*
X0098877Y0289331D02*
X0103815Y0289331D01*
X0098877Y0294269D02*
X0101346Y0296738D01*
X0096264Y0295503D02*
X0095030Y0296738D01*
X0092561Y0296738D01*
X0091327Y0295503D01*
X0091327Y0290566D01*
X0092561Y0289331D01*
X0095030Y0289331D01*
X0096264Y0290566D01*
X0096480Y0306931D02*
X0094012Y0306931D01*
X0092777Y0308166D01*
X0097715Y0313103D01*
X0097715Y0308166D01*
X0096480Y0306931D01*
X0092777Y0308166D02*
X0092777Y0313103D01*
X0094012Y0314338D01*
X0096480Y0314338D01*
X0097715Y0313103D01*
X0100328Y0313103D02*
X0100328Y0308166D01*
X0105265Y0313103D01*
X0105265Y0308166D01*
X0104031Y0306931D01*
X0101562Y0306931D01*
X0100328Y0308166D01*
X0100328Y0313103D02*
X0101562Y0314338D01*
X0104031Y0314338D01*
X0105265Y0313103D01*
X0107878Y0311869D02*
X0107878Y0308166D01*
X0109112Y0306931D01*
X0112816Y0306931D01*
X0112816Y0311869D01*
X0115429Y0310634D02*
X0117897Y0310634D01*
X0115429Y0306931D02*
X0115429Y0314338D01*
X0120366Y0314338D01*
X0130529Y0313103D02*
X0130529Y0311869D01*
X0131764Y0310634D01*
X0134233Y0310634D01*
X0135467Y0309400D01*
X0135467Y0308166D01*
X0134233Y0306931D01*
X0131764Y0306931D01*
X0130529Y0308166D01*
X0130529Y0309400D01*
X0131764Y0310634D01*
X0134233Y0310634D02*
X0135467Y0311869D01*
X0135467Y0313103D01*
X0134233Y0314338D01*
X0131764Y0314338D01*
X0130529Y0313103D01*
X0138080Y0313103D02*
X0138080Y0308166D01*
X0143017Y0313103D01*
X0143017Y0308166D01*
X0141783Y0306931D01*
X0139314Y0306931D01*
X0138080Y0308166D01*
X0138080Y0313103D02*
X0139314Y0314338D01*
X0141783Y0314338D01*
X0143017Y0313103D01*
X0145630Y0314338D02*
X0145630Y0309400D01*
X0148099Y0306931D01*
X0150568Y0309400D01*
X0150568Y0314338D01*
X0151835Y0307262D02*
X0151835Y0299856D01*
X0156773Y0299856D01*
X0159386Y0299856D02*
X0164323Y0304793D01*
X0164323Y0306028D01*
X0163089Y0307262D01*
X0160620Y0307262D01*
X0159386Y0306028D01*
X0159386Y0299856D02*
X0164323Y0299856D01*
X0166936Y0301090D02*
X0168171Y0299856D01*
X0170640Y0299856D01*
X0171874Y0301090D01*
X0171874Y0303559D01*
X0170640Y0304793D01*
X0169405Y0304793D01*
X0166936Y0303559D01*
X0166936Y0307262D01*
X0171874Y0307262D01*
X0174487Y0307262D02*
X0179424Y0307262D01*
X0179424Y0306028D01*
X0174487Y0301090D01*
X0174487Y0299856D01*
X0182037Y0301090D02*
X0183272Y0299856D01*
X0185740Y0299856D01*
X0186975Y0301090D01*
X0186975Y0303559D01*
X0185740Y0304793D01*
X0184506Y0304793D01*
X0182037Y0303559D01*
X0182037Y0307262D01*
X0186975Y0307262D01*
X0189588Y0307262D02*
X0189588Y0299856D01*
X0189588Y0303559D02*
X0194525Y0303559D01*
X0197138Y0302325D02*
X0199607Y0299856D01*
X0202076Y0302325D01*
X0202076Y0307262D01*
X0197138Y0307262D02*
X0197138Y0302325D01*
X0194525Y0299856D02*
X0194525Y0307262D01*
X0149223Y0307262D02*
X0144285Y0307262D01*
X0146754Y0307262D02*
X0146754Y0299856D01*
X0103827Y0269031D02*
X0101327Y0271531D01*
X0096327Y0271531D01*
X0093827Y0269031D01*
X0091327Y0271531D01*
X0086327Y0271531D01*
X0083827Y0269031D01*
X0081327Y0271531D01*
X0076327Y0271531D01*
X0073827Y0269031D01*
X0073827Y0264031D01*
X0076327Y0261531D01*
X0081327Y0261531D01*
X0083827Y0264031D01*
X0086327Y0261531D01*
X0091327Y0261531D01*
X0093827Y0264031D01*
X0096327Y0261531D01*
X0101327Y0261531D01*
X0103827Y0264031D01*
X0103827Y0269031D01*
X0101327Y0257531D02*
X0096327Y0257531D01*
X0093827Y0255031D01*
X0091327Y0257531D01*
X0086327Y0257531D01*
X0083827Y0255031D01*
X0081327Y0257531D01*
X0076327Y0257531D01*
X0073827Y0255031D01*
X0073827Y0250031D01*
X0076327Y0247531D01*
X0081327Y0247531D01*
X0083827Y0250031D01*
X0086327Y0247531D01*
X0091327Y0247531D01*
X0093827Y0250031D01*
X0096327Y0247531D01*
X0101327Y0247531D01*
X0103827Y0250031D01*
X0103827Y0255031D01*
X0101327Y0257531D01*
X0061213Y0246145D02*
X0032079Y0246145D01*
X0032079Y0272917D01*
X0061213Y0272917D01*
X0061213Y0246145D01*
X0037492Y0247130D02*
X0037492Y0247819D01*
X0036114Y0249197D01*
X0032669Y0249197D01*
X0032669Y0256086D02*
X0036114Y0256086D01*
X0037492Y0257464D01*
X0037492Y0261598D01*
X0036114Y0262976D01*
X0032669Y0262976D01*
X0032669Y0269866D02*
X0036114Y0269866D01*
X0037492Y0271244D01*
X0037492Y0271933D01*
X0085227Y0306931D02*
X0090164Y0306931D01*
X0087696Y0306931D02*
X0087696Y0314338D01*
X0085227Y0311869D01*
X0267927Y0314934D02*
X0272864Y0314934D01*
X0275477Y0312466D02*
X0275477Y0311231D01*
X0275477Y0312466D02*
X0280415Y0317403D01*
X0280415Y0318638D01*
X0275477Y0318638D01*
X0271630Y0318638D02*
X0267927Y0314934D01*
X0271630Y0311231D02*
X0271630Y0318638D01*
X0283028Y0317403D02*
X0283028Y0312466D01*
X0287965Y0317403D01*
X0287965Y0312466D01*
X0286731Y0311231D01*
X0284262Y0311231D01*
X0283028Y0312466D01*
X0290578Y0312466D02*
X0290578Y0316169D01*
X0287965Y0317403D02*
X0286731Y0318638D01*
X0284262Y0318638D01*
X0283028Y0317403D01*
X0295516Y0316169D02*
X0295516Y0311231D01*
X0291812Y0311231D01*
X0290578Y0312466D01*
X0298129Y0311231D02*
X0298129Y0318638D01*
X0303066Y0318638D01*
X0300597Y0314934D02*
X0298129Y0314934D01*
X0288280Y0305138D02*
X0289515Y0303903D01*
X0289515Y0302669D01*
X0288280Y0301434D01*
X0289515Y0300200D01*
X0289515Y0298966D01*
X0288280Y0297731D01*
X0285812Y0297731D01*
X0284577Y0298966D01*
X0281964Y0298966D02*
X0280730Y0297731D01*
X0278261Y0297731D01*
X0277027Y0298966D01*
X0277027Y0303903D01*
X0278261Y0305138D01*
X0280730Y0305138D01*
X0281964Y0303903D01*
X0284577Y0303903D02*
X0285812Y0305138D01*
X0288280Y0305138D01*
X0288280Y0301434D02*
X0287046Y0301434D01*
X0172437Y0210070D02*
X0161217Y0210070D01*
X0161217Y0198993D01*
X0172437Y0198993D01*
X0172437Y0210070D01*
X0103827Y0209031D02*
X0101327Y0206531D01*
X0096327Y0206531D01*
X0093827Y0209031D01*
X0091327Y0206531D01*
X0086327Y0206531D01*
X0083827Y0209031D01*
X0081327Y0206531D01*
X0076327Y0206531D01*
X0073827Y0209031D01*
X0073827Y0214031D01*
X0076327Y0216531D01*
X0081327Y0216531D01*
X0083827Y0214031D01*
X0086327Y0216531D01*
X0091327Y0216531D01*
X0093827Y0214031D01*
X0096327Y0216531D01*
X0101327Y0216531D01*
X0103827Y0214031D01*
X0103827Y0209031D01*
X0101327Y0202531D02*
X0096327Y0202531D01*
X0093827Y0200031D01*
X0091327Y0202531D01*
X0086327Y0202531D01*
X0083827Y0200031D01*
X0081327Y0202531D01*
X0076327Y0202531D01*
X0073827Y0200031D01*
X0073827Y0195031D01*
X0076327Y0192531D01*
X0081327Y0192531D01*
X0083827Y0195031D01*
X0086327Y0192531D01*
X0091327Y0192531D01*
X0093827Y0195031D01*
X0096327Y0192531D01*
X0101327Y0192531D01*
X0103827Y0195031D01*
X0103827Y0200031D01*
X0101327Y0202531D01*
X0061213Y0191145D02*
X0032079Y0191145D01*
X0032079Y0217917D01*
X0061213Y0217917D01*
X0061213Y0191145D01*
X0037492Y0192130D02*
X0037492Y0192819D01*
X0036114Y0194197D01*
X0032669Y0194197D01*
X0032669Y0201086D02*
X0036114Y0201086D01*
X0037492Y0202464D01*
X0037492Y0206598D01*
X0036114Y0207976D01*
X0032669Y0207976D01*
X0032669Y0214866D02*
X0036114Y0214866D01*
X0037492Y0216244D01*
X0037492Y0216933D01*
X0187827Y0161031D02*
X0187827Y0156031D01*
X0190327Y0153531D01*
X0195327Y0153531D01*
X0197827Y0156031D01*
X0200327Y0153531D01*
X0205327Y0153531D01*
X0207827Y0156031D01*
X0207827Y0161031D01*
X0205327Y0163531D01*
X0200327Y0163531D01*
X0197827Y0161031D01*
X0195327Y0163531D01*
X0190327Y0163531D01*
X0187827Y0161031D01*
X0177327Y0126531D02*
X0172327Y0126531D01*
X0169827Y0124031D01*
X0167327Y0126531D01*
X0162327Y0126531D01*
X0159827Y0124031D01*
X0159827Y0119031D01*
X0162327Y0116531D01*
X0167327Y0116531D01*
X0169827Y0119031D01*
X0172327Y0116531D01*
X0177327Y0116531D01*
X0179827Y0119031D01*
X0179827Y0124031D01*
X0177327Y0126531D01*
X0177327Y0114531D02*
X0172327Y0114531D01*
X0169827Y0112031D01*
X0167327Y0114531D01*
X0162327Y0114531D01*
X0159827Y0112031D01*
X0159827Y0107031D01*
X0162327Y0104531D01*
X0167327Y0104531D01*
X0169827Y0107031D01*
X0172327Y0104531D01*
X0177327Y0104531D01*
X0179827Y0107031D01*
X0179827Y0112031D01*
X0177327Y0114531D01*
D14*
X0188827Y0114584D02*
X0188827Y0110881D01*
X0188827Y0112116D02*
X0190679Y0112116D01*
X0191296Y0112733D01*
X0191296Y0113967D01*
X0190679Y0114584D01*
X0188827Y0114584D01*
X0190062Y0112116D02*
X0191296Y0110881D01*
X0192510Y0110881D02*
X0194979Y0110881D01*
X0193745Y0110881D02*
X0193745Y0114584D01*
X0192510Y0113350D01*
X0196194Y0113350D02*
X0196194Y0113967D01*
X0196811Y0114584D01*
X0198045Y0114584D01*
X0198662Y0113967D01*
X0198662Y0113350D01*
X0198045Y0112733D01*
X0196811Y0112733D01*
X0196194Y0113350D01*
X0196811Y0112733D02*
X0196194Y0112116D01*
X0196194Y0111499D01*
X0196811Y0110881D01*
X0198045Y0110881D01*
X0198662Y0111499D01*
X0198662Y0112116D01*
X0198045Y0112733D01*
X0196045Y0122581D02*
X0196662Y0123199D01*
X0196662Y0123816D01*
X0196045Y0124433D01*
X0194194Y0124433D01*
X0194194Y0123199D01*
X0194811Y0122581D01*
X0196045Y0122581D01*
X0194194Y0124433D02*
X0195428Y0125667D01*
X0196662Y0126284D01*
X0192979Y0125667D02*
X0192979Y0124433D01*
X0192362Y0123816D01*
X0190510Y0123816D01*
X0190510Y0122581D02*
X0190510Y0126284D01*
X0192362Y0126284D01*
X0192979Y0125667D01*
X0191745Y0123816D02*
X0192979Y0122581D01*
X0191877Y0141881D02*
X0191877Y0145584D01*
X0193728Y0145584D01*
X0194346Y0144967D01*
X0194346Y0143733D01*
X0193728Y0143116D01*
X0191877Y0143116D01*
X0193111Y0143116D02*
X0194346Y0141881D01*
X0195560Y0142499D02*
X0196177Y0141881D01*
X0197411Y0141881D01*
X0198029Y0142499D01*
X0198029Y0143116D01*
X0197411Y0143733D01*
X0196794Y0143733D01*
X0197411Y0143733D02*
X0198029Y0144350D01*
X0198029Y0144967D01*
X0197411Y0145584D01*
X0196177Y0145584D01*
X0195560Y0144967D01*
X0139262Y0172381D02*
X0136794Y0172381D01*
X0139262Y0174850D01*
X0139262Y0175467D01*
X0138645Y0176084D01*
X0137411Y0176084D01*
X0136794Y0175467D01*
X0135579Y0175467D02*
X0135579Y0174233D01*
X0134962Y0173616D01*
X0133110Y0173616D01*
X0133110Y0172381D02*
X0133110Y0176084D01*
X0134962Y0176084D01*
X0135579Y0175467D01*
X0134345Y0173616D02*
X0135579Y0172381D01*
X0137759Y0179381D02*
X0137759Y0181850D01*
X0138993Y0183084D01*
X0140228Y0181850D01*
X0140228Y0179381D01*
X0140228Y0181233D02*
X0137759Y0181233D01*
X0136544Y0181233D02*
X0134076Y0181233D01*
X0132861Y0183084D02*
X0130392Y0183084D01*
X0130392Y0179381D01*
X0132861Y0179381D01*
X0131627Y0181233D02*
X0130392Y0181233D01*
X0129178Y0180616D02*
X0129178Y0179999D01*
X0128561Y0179381D01*
X0127327Y0179381D01*
X0126709Y0179999D01*
X0125495Y0179381D02*
X0125495Y0183084D01*
X0126709Y0182467D02*
X0126709Y0181850D01*
X0127327Y0181233D01*
X0128561Y0181233D01*
X0129178Y0180616D01*
X0129178Y0182467D02*
X0128561Y0183084D01*
X0127327Y0183084D01*
X0126709Y0182467D01*
X0125495Y0179381D02*
X0123026Y0183084D01*
X0123026Y0179381D01*
X0121812Y0179381D02*
X0119343Y0179381D01*
X0119343Y0183084D01*
X0121812Y0183084D01*
X0120577Y0181233D02*
X0119343Y0181233D01*
X0118129Y0180616D02*
X0118129Y0179999D01*
X0117511Y0179381D01*
X0116277Y0179381D01*
X0115660Y0179999D01*
X0114446Y0180616D02*
X0114446Y0183084D01*
X0115660Y0182467D02*
X0115660Y0181850D01*
X0116277Y0181233D01*
X0117511Y0181233D01*
X0118129Y0180616D01*
X0118129Y0182467D02*
X0117511Y0183084D01*
X0116277Y0183084D01*
X0115660Y0182467D01*
X0114446Y0180616D02*
X0113211Y0179381D01*
X0111977Y0180616D01*
X0111977Y0183084D01*
X0133210Y0184881D02*
X0133210Y0188584D01*
X0135062Y0188584D01*
X0135679Y0187967D01*
X0135679Y0186733D01*
X0135062Y0186116D01*
X0133210Y0186116D01*
X0134445Y0186116D02*
X0135679Y0184881D01*
X0136894Y0184881D02*
X0139362Y0184881D01*
X0138128Y0184881D02*
X0138128Y0188584D01*
X0136894Y0187350D01*
X0152377Y0181467D02*
X0152377Y0178999D01*
X0152994Y0178381D01*
X0154228Y0178381D01*
X0154846Y0178999D01*
X0156060Y0178999D02*
X0156677Y0178381D01*
X0157911Y0178381D01*
X0158529Y0178999D01*
X0158529Y0179616D01*
X0157911Y0180233D01*
X0156060Y0180233D01*
X0156060Y0178999D01*
X0156060Y0180233D02*
X0157294Y0181467D01*
X0158529Y0182084D01*
X0154846Y0181467D02*
X0154228Y0182084D01*
X0152994Y0182084D01*
X0152377Y0181467D01*
X0179810Y0191799D02*
X0179810Y0194267D01*
X0180428Y0194884D01*
X0181662Y0194884D01*
X0182279Y0194267D01*
X0183494Y0194267D02*
X0183494Y0193650D01*
X0184111Y0193033D01*
X0185962Y0193033D01*
X0185962Y0191799D02*
X0185962Y0194267D01*
X0185345Y0194884D01*
X0184111Y0194884D01*
X0183494Y0194267D01*
X0183494Y0191799D02*
X0184111Y0191181D01*
X0185345Y0191181D01*
X0185962Y0191799D01*
X0182279Y0191799D02*
X0181662Y0191181D01*
X0180428Y0191181D01*
X0179810Y0191799D01*
X0153077Y0215049D02*
X0153077Y0216283D01*
X0152460Y0216901D01*
X0153077Y0218115D02*
X0150608Y0220584D01*
X0149991Y0220584D01*
X0149374Y0219967D01*
X0149374Y0218732D01*
X0149991Y0218115D01*
X0149991Y0216901D02*
X0149374Y0216283D01*
X0149374Y0215049D01*
X0149991Y0214432D01*
X0152460Y0214432D01*
X0153077Y0215049D01*
X0153077Y0218115D02*
X0153077Y0220584D01*
X0151225Y0221798D02*
X0151225Y0224267D01*
X0149374Y0223650D02*
X0151225Y0221798D01*
X0149374Y0223650D02*
X0153077Y0223650D01*
X0163577Y0221467D02*
X0163577Y0218999D01*
X0164194Y0218381D01*
X0165428Y0218381D01*
X0166046Y0218999D01*
X0167260Y0218381D02*
X0169729Y0218381D01*
X0170943Y0218381D02*
X0173412Y0220850D01*
X0173412Y0221467D01*
X0172795Y0222084D01*
X0171560Y0222084D01*
X0170943Y0221467D01*
X0168494Y0222084D02*
X0168494Y0218381D01*
X0170943Y0218381D02*
X0173412Y0218381D01*
X0178537Y0219558D02*
X0178537Y0223262D01*
X0180389Y0223262D01*
X0181006Y0222644D01*
X0181006Y0221410D01*
X0180389Y0220793D01*
X0178537Y0220793D01*
X0179772Y0220793D02*
X0181006Y0219558D01*
X0182221Y0220176D02*
X0182838Y0219558D01*
X0184072Y0219558D01*
X0184689Y0220176D01*
X0184689Y0221410D01*
X0184072Y0222027D01*
X0183455Y0222027D01*
X0182221Y0221410D01*
X0182221Y0223262D01*
X0184689Y0223262D01*
X0168494Y0222084D02*
X0167260Y0220850D01*
X0166046Y0221467D02*
X0165428Y0222084D01*
X0164194Y0222084D01*
X0163577Y0221467D01*
X0153660Y0234732D02*
X0154277Y0235349D01*
X0154277Y0236583D01*
X0153660Y0237201D01*
X0154277Y0238415D02*
X0151808Y0240884D01*
X0151191Y0240884D01*
X0150574Y0240267D01*
X0150574Y0239032D01*
X0151191Y0238415D01*
X0151191Y0237201D02*
X0150574Y0236583D01*
X0150574Y0235349D01*
X0151191Y0234732D01*
X0153660Y0234732D01*
X0154277Y0238415D02*
X0154277Y0240884D01*
X0153660Y0242098D02*
X0154277Y0242715D01*
X0154277Y0243950D01*
X0153660Y0244567D01*
X0152425Y0244567D01*
X0151808Y0243950D01*
X0151808Y0243333D01*
X0152425Y0242098D01*
X0150574Y0242098D01*
X0150574Y0244567D01*
X0138762Y0241533D02*
X0136294Y0241533D01*
X0138145Y0243384D01*
X0138145Y0239681D01*
X0138245Y0237384D02*
X0138862Y0236767D01*
X0138862Y0236150D01*
X0138245Y0235533D01*
X0136394Y0235533D01*
X0135179Y0235533D02*
X0132710Y0235533D01*
X0131496Y0237384D02*
X0129027Y0237384D01*
X0129027Y0233681D01*
X0131496Y0233681D01*
X0130262Y0235533D02*
X0129027Y0235533D01*
X0127813Y0234916D02*
X0127813Y0234299D01*
X0127196Y0233681D01*
X0125961Y0233681D01*
X0125344Y0234299D01*
X0124130Y0233681D02*
X0124130Y0237384D01*
X0125344Y0236767D02*
X0125961Y0237384D01*
X0127196Y0237384D01*
X0127813Y0236767D01*
X0127196Y0235533D02*
X0127813Y0234916D01*
X0127196Y0235533D02*
X0125961Y0235533D01*
X0125344Y0236150D01*
X0125344Y0236767D01*
X0124130Y0233681D02*
X0121661Y0237384D01*
X0121661Y0233681D01*
X0120447Y0233681D02*
X0117978Y0233681D01*
X0117978Y0237384D01*
X0120447Y0237384D01*
X0119212Y0235533D02*
X0117978Y0235533D01*
X0116764Y0234916D02*
X0116764Y0234299D01*
X0116146Y0233681D01*
X0114912Y0233681D01*
X0114295Y0234299D01*
X0113080Y0234916D02*
X0113080Y0237384D01*
X0114295Y0236767D02*
X0114295Y0236150D01*
X0114912Y0235533D01*
X0116146Y0235533D01*
X0116764Y0234916D01*
X0116764Y0236767D02*
X0116146Y0237384D01*
X0114912Y0237384D01*
X0114295Y0236767D01*
X0113080Y0234916D02*
X0111846Y0233681D01*
X0110612Y0234916D01*
X0110612Y0237384D01*
X0128927Y0239681D02*
X0128927Y0243384D01*
X0130779Y0243384D01*
X0131396Y0242767D01*
X0131396Y0241533D01*
X0130779Y0240916D01*
X0128927Y0240916D01*
X0130162Y0240916D02*
X0131396Y0239681D01*
X0132610Y0239681D02*
X0135079Y0239681D01*
X0133845Y0239681D02*
X0133845Y0243384D01*
X0132610Y0242150D01*
X0136394Y0237384D02*
X0138245Y0237384D01*
X0138245Y0235533D02*
X0138862Y0234916D01*
X0138862Y0234299D01*
X0138245Y0233681D01*
X0136394Y0233681D01*
X0136394Y0237384D01*
X0136794Y0230584D02*
X0136794Y0228733D01*
X0138028Y0229350D01*
X0138645Y0229350D01*
X0139262Y0228733D01*
X0139262Y0227499D01*
X0138645Y0226881D01*
X0137411Y0226881D01*
X0136794Y0227499D01*
X0135579Y0226881D02*
X0133110Y0226881D01*
X0131896Y0226881D02*
X0130662Y0228116D01*
X0131279Y0228116D02*
X0129427Y0228116D01*
X0129427Y0226881D02*
X0129427Y0230584D01*
X0131279Y0230584D01*
X0131896Y0229967D01*
X0131896Y0228733D01*
X0131279Y0228116D01*
X0133110Y0229350D02*
X0134345Y0230584D01*
X0134345Y0226881D01*
X0136794Y0230584D02*
X0139262Y0230584D01*
X0165677Y0237962D02*
X0165677Y0241666D01*
X0167528Y0241666D01*
X0168146Y0241048D01*
X0168146Y0239814D01*
X0167528Y0239197D01*
X0165677Y0239197D01*
X0166911Y0239197D02*
X0168146Y0237962D01*
X0169360Y0238580D02*
X0169360Y0239197D01*
X0169977Y0239814D01*
X0171211Y0239814D01*
X0171829Y0239197D01*
X0171829Y0238580D01*
X0171211Y0237962D01*
X0169977Y0237962D01*
X0169360Y0238580D01*
X0169977Y0239814D02*
X0169360Y0240431D01*
X0169360Y0241048D01*
X0169977Y0241666D01*
X0171211Y0241666D01*
X0171829Y0241048D01*
X0171829Y0240431D01*
X0171211Y0239814D01*
X0183874Y0244299D02*
X0184491Y0243681D01*
X0186960Y0243681D01*
X0187577Y0244299D01*
X0187577Y0245533D01*
X0186960Y0246150D01*
X0187577Y0247364D02*
X0185108Y0249833D01*
X0184491Y0249833D01*
X0183874Y0249216D01*
X0183874Y0247982D01*
X0184491Y0247364D01*
X0184491Y0246150D02*
X0183874Y0245533D01*
X0183874Y0244299D01*
X0187577Y0247364D02*
X0187577Y0249833D01*
X0186960Y0251048D02*
X0187577Y0251665D01*
X0187577Y0252899D01*
X0186960Y0253516D01*
X0186342Y0253516D01*
X0185725Y0252899D01*
X0185725Y0251048D01*
X0186960Y0251048D01*
X0185725Y0251048D02*
X0184491Y0252282D01*
X0183874Y0253516D01*
X0203974Y0253699D02*
X0203974Y0252464D01*
X0203974Y0253082D02*
X0207677Y0253082D01*
X0207677Y0253699D02*
X0207677Y0252464D01*
X0207060Y0251250D02*
X0204591Y0251250D01*
X0203974Y0250633D01*
X0203974Y0248781D01*
X0207677Y0248781D01*
X0207677Y0250633D01*
X0207060Y0251250D01*
X0207677Y0254920D02*
X0203974Y0254920D01*
X0203974Y0256771D01*
X0204591Y0257389D01*
X0205825Y0257389D01*
X0206442Y0256771D01*
X0206442Y0254920D01*
X0206442Y0256154D02*
X0207677Y0257389D01*
X0213974Y0256613D02*
X0213974Y0254761D01*
X0217677Y0254761D01*
X0217677Y0253540D02*
X0217677Y0252306D01*
X0217677Y0252923D02*
X0213974Y0252923D01*
X0213974Y0252306D02*
X0213974Y0253540D01*
X0214591Y0251092D02*
X0213974Y0250474D01*
X0213974Y0248623D01*
X0217677Y0248623D01*
X0217677Y0250474D01*
X0217060Y0251092D01*
X0214591Y0251092D01*
X0216442Y0254761D02*
X0216442Y0256613D01*
X0215825Y0257230D01*
X0214591Y0257230D01*
X0213974Y0256613D01*
X0216442Y0255996D02*
X0217677Y0257230D01*
X0218294Y0247409D02*
X0218294Y0244940D01*
X0217677Y0243719D02*
X0217677Y0242484D01*
X0217677Y0243102D02*
X0213974Y0243102D01*
X0213974Y0243719D02*
X0213974Y0242484D01*
X0213974Y0241270D02*
X0217677Y0241270D01*
X0213974Y0238801D01*
X0217677Y0238801D01*
X0217060Y0237587D02*
X0213974Y0237587D01*
X0213974Y0235118D02*
X0217060Y0235118D01*
X0217677Y0235735D01*
X0217677Y0236970D01*
X0217060Y0237587D01*
X0207677Y0238960D02*
X0207677Y0240811D01*
X0207060Y0241428D01*
X0206442Y0241428D01*
X0205825Y0240811D01*
X0205825Y0238960D01*
X0205825Y0240811D02*
X0205208Y0241428D01*
X0204591Y0241428D01*
X0203974Y0240811D01*
X0203974Y0238960D01*
X0207677Y0238960D01*
X0207677Y0242643D02*
X0207677Y0243877D01*
X0207677Y0243260D02*
X0203974Y0243260D01*
X0203974Y0242643D02*
X0203974Y0243877D01*
X0208294Y0245098D02*
X0208294Y0247567D01*
X0156677Y0257849D02*
X0156677Y0259083D01*
X0156060Y0259701D01*
X0156677Y0260915D02*
X0154208Y0263384D01*
X0153591Y0263384D01*
X0152974Y0262767D01*
X0152974Y0261532D01*
X0153591Y0260915D01*
X0153591Y0259701D02*
X0152974Y0259083D01*
X0152974Y0257849D01*
X0153591Y0257232D01*
X0156060Y0257232D01*
X0156677Y0257849D01*
X0156677Y0260915D02*
X0156677Y0263384D01*
X0156060Y0264598D02*
X0156677Y0265215D01*
X0156677Y0266450D01*
X0156060Y0267067D01*
X0155442Y0267067D01*
X0154825Y0266450D01*
X0154825Y0265833D01*
X0154825Y0266450D02*
X0154208Y0267067D01*
X0153591Y0267067D01*
X0152974Y0266450D01*
X0152974Y0265215D01*
X0153591Y0264598D01*
X0176977Y0274881D02*
X0176977Y0278584D01*
X0178828Y0278584D01*
X0179446Y0277967D01*
X0179446Y0276733D01*
X0178828Y0276116D01*
X0176977Y0276116D01*
X0178211Y0276116D02*
X0179446Y0274881D01*
X0180660Y0274881D02*
X0183129Y0274881D01*
X0181894Y0274881D02*
X0181894Y0278584D01*
X0180660Y0277350D01*
X0184343Y0277967D02*
X0184960Y0278584D01*
X0186195Y0278584D01*
X0186812Y0277967D01*
X0186812Y0277350D01*
X0186195Y0276733D01*
X0186812Y0276116D01*
X0186812Y0275499D01*
X0186195Y0274881D01*
X0184960Y0274881D01*
X0184343Y0275499D01*
X0185577Y0276733D02*
X0186195Y0276733D01*
X0190051Y0291355D02*
X0191285Y0291355D01*
X0191902Y0291972D01*
X0193117Y0291972D02*
X0193734Y0291355D01*
X0194968Y0291355D01*
X0195585Y0291972D01*
X0195585Y0293206D01*
X0194968Y0293823D01*
X0194351Y0293823D01*
X0193117Y0293206D01*
X0193117Y0295058D01*
X0195585Y0295058D01*
X0196800Y0293823D02*
X0198034Y0295058D01*
X0198034Y0291355D01*
X0196800Y0291355D02*
X0199269Y0291355D01*
X0191902Y0294441D02*
X0191285Y0295058D01*
X0190051Y0295058D01*
X0189433Y0294441D01*
X0189433Y0291972D01*
X0190051Y0291355D01*
X0205432Y0308740D02*
X0208568Y0311876D01*
X0207000Y0311876D02*
X0207000Y0308740D01*
X0208568Y0308740D02*
X0205432Y0311876D01*
X0205432Y0310308D02*
X0208568Y0310308D01*
X0220368Y0295872D02*
X0222220Y0295872D01*
X0222837Y0295255D01*
X0222837Y0292786D01*
X0222220Y0292169D01*
X0220368Y0292169D01*
X0220368Y0295872D01*
X0224051Y0294638D02*
X0225286Y0295872D01*
X0225286Y0292169D01*
X0226520Y0292169D02*
X0224051Y0292169D01*
X0301974Y0291582D02*
X0302591Y0292200D01*
X0303208Y0292200D01*
X0303825Y0291582D01*
X0304442Y0292200D01*
X0305060Y0292200D01*
X0305677Y0291582D01*
X0305677Y0290348D01*
X0305060Y0289731D01*
X0305060Y0288516D02*
X0305677Y0287899D01*
X0305677Y0286665D01*
X0305060Y0286048D01*
X0302591Y0286048D01*
X0301974Y0286665D01*
X0301974Y0287899D01*
X0302591Y0288516D01*
X0302591Y0289731D02*
X0301974Y0290348D01*
X0301974Y0291582D01*
X0303825Y0291582D02*
X0303825Y0290965D01*
X0302591Y0284833D02*
X0301974Y0284216D01*
X0301974Y0282364D01*
X0305677Y0282364D01*
X0305677Y0284216D01*
X0305060Y0284833D01*
X0302591Y0284833D01*
X0303208Y0281150D02*
X0305677Y0281150D01*
X0303825Y0281150D02*
X0303825Y0278681D01*
X0303208Y0278681D02*
X0301974Y0279916D01*
X0303208Y0281150D01*
X0303208Y0278681D02*
X0305677Y0278681D01*
X0311974Y0279916D02*
X0313208Y0281150D01*
X0315677Y0281150D01*
X0315677Y0282364D02*
X0315677Y0284216D01*
X0315060Y0284833D01*
X0312591Y0284833D01*
X0311974Y0284216D01*
X0311974Y0282364D01*
X0315677Y0282364D01*
X0313825Y0281150D02*
X0313825Y0278681D01*
X0313208Y0278681D02*
X0311974Y0279916D01*
X0313208Y0278681D02*
X0315677Y0278681D01*
X0319927Y0280881D02*
X0319927Y0284584D01*
X0321779Y0284584D01*
X0322396Y0283967D01*
X0322396Y0282733D01*
X0321779Y0282116D01*
X0319927Y0282116D01*
X0321162Y0282116D02*
X0322396Y0280881D01*
X0323610Y0280881D02*
X0326079Y0280881D01*
X0324845Y0280881D02*
X0324845Y0284584D01*
X0323610Y0283350D01*
X0327294Y0282733D02*
X0329145Y0282733D01*
X0329762Y0282116D01*
X0329762Y0281499D01*
X0329145Y0280881D01*
X0327911Y0280881D01*
X0327294Y0281499D01*
X0327294Y0282733D01*
X0328528Y0283967D01*
X0329762Y0284584D01*
X0315677Y0286665D02*
X0315677Y0287899D01*
X0315060Y0288516D01*
X0315677Y0289731D02*
X0313208Y0292200D01*
X0312591Y0292200D01*
X0311974Y0291582D01*
X0311974Y0290348D01*
X0312591Y0289731D01*
X0312591Y0288516D02*
X0311974Y0287899D01*
X0311974Y0286665D01*
X0312591Y0286048D01*
X0315060Y0286048D01*
X0315677Y0286665D01*
X0315677Y0289731D02*
X0315677Y0292200D01*
X0316825Y0309898D02*
X0314357Y0309898D01*
X0316825Y0312367D01*
X0316825Y0312984D01*
X0316208Y0313601D01*
X0314974Y0313601D01*
X0314357Y0312984D01*
X0313142Y0312984D02*
X0312525Y0313601D01*
X0310673Y0313601D01*
X0310673Y0309898D01*
X0312525Y0309898D01*
X0313142Y0310515D01*
X0313142Y0312984D01*
X0345143Y0289695D02*
X0346994Y0289695D01*
X0347612Y0289078D01*
X0347612Y0287843D01*
X0346994Y0287226D01*
X0345143Y0287226D01*
X0346377Y0287226D02*
X0347612Y0285992D01*
X0348826Y0287843D02*
X0351295Y0287843D01*
X0350678Y0285992D02*
X0350678Y0289695D01*
X0348826Y0287843D01*
X0345143Y0285992D02*
X0345143Y0289695D01*
X0357749Y0298436D02*
X0357749Y0302139D01*
X0359601Y0302139D01*
X0360218Y0301522D01*
X0360218Y0300287D01*
X0359601Y0299670D01*
X0357749Y0299670D01*
X0358984Y0299670D02*
X0360218Y0298436D01*
X0361433Y0299053D02*
X0362050Y0298436D01*
X0363284Y0298436D01*
X0363901Y0299053D01*
X0363901Y0299670D01*
X0363284Y0300287D01*
X0362667Y0300287D01*
X0363284Y0300287D02*
X0363901Y0300904D01*
X0363901Y0301522D01*
X0363284Y0302139D01*
X0362050Y0302139D01*
X0361433Y0301522D01*
X0365116Y0301522D02*
X0365733Y0302139D01*
X0366967Y0302139D01*
X0367584Y0301522D01*
X0367584Y0300904D01*
X0365116Y0298436D01*
X0367584Y0298436D01*
X0359930Y0278139D02*
X0357461Y0278139D01*
X0357461Y0276287D01*
X0358696Y0276904D01*
X0359313Y0276904D01*
X0359930Y0276287D01*
X0359930Y0275053D01*
X0359313Y0274436D01*
X0358079Y0274436D01*
X0357461Y0275053D01*
X0356247Y0275053D02*
X0355630Y0274436D01*
X0354396Y0274436D01*
X0353778Y0275053D01*
X0353778Y0277522D01*
X0354396Y0278139D01*
X0355630Y0278139D01*
X0356247Y0277522D01*
X0337762Y0270184D02*
X0337762Y0269567D01*
X0335294Y0267099D01*
X0335294Y0266481D01*
X0334079Y0266481D02*
X0331610Y0266481D01*
X0334079Y0268950D01*
X0334079Y0269567D01*
X0333462Y0270184D01*
X0332228Y0270184D01*
X0331610Y0269567D01*
X0330396Y0269567D02*
X0329779Y0270184D01*
X0328545Y0270184D01*
X0327927Y0269567D01*
X0327927Y0267099D01*
X0328545Y0266481D01*
X0329779Y0266481D01*
X0330396Y0267099D01*
X0335294Y0270184D02*
X0337762Y0270184D01*
X0324912Y0263184D02*
X0324912Y0262567D01*
X0322443Y0260099D01*
X0322443Y0259481D01*
X0321229Y0259481D02*
X0318760Y0259481D01*
X0319994Y0259481D02*
X0319994Y0263184D01*
X0318760Y0261950D01*
X0317546Y0262567D02*
X0316928Y0263184D01*
X0315694Y0263184D01*
X0315077Y0262567D01*
X0315077Y0260099D01*
X0315694Y0259481D01*
X0316928Y0259481D01*
X0317546Y0260099D01*
X0322443Y0263184D02*
X0324912Y0263184D01*
X0297929Y0239067D02*
X0297929Y0238450D01*
X0297311Y0237833D01*
X0297929Y0237216D01*
X0297929Y0236599D01*
X0297311Y0235981D01*
X0296077Y0235981D01*
X0295460Y0236599D01*
X0294246Y0236599D02*
X0294246Y0239067D01*
X0293628Y0239684D01*
X0291777Y0239684D01*
X0291777Y0235981D01*
X0293628Y0235981D01*
X0294246Y0236599D01*
X0296694Y0237833D02*
X0297311Y0237833D01*
X0297929Y0239067D02*
X0297311Y0239684D01*
X0296077Y0239684D01*
X0295460Y0239067D01*
X0293628Y0229484D02*
X0291777Y0229484D01*
X0291777Y0225781D01*
X0293628Y0225781D01*
X0294246Y0226399D01*
X0294246Y0228867D01*
X0293628Y0229484D01*
X0295460Y0227633D02*
X0297929Y0227633D01*
X0297311Y0229484D02*
X0295460Y0227633D01*
X0297311Y0229484D02*
X0297311Y0225781D01*
X0296780Y0220215D02*
X0294311Y0217747D01*
X0296780Y0217747D01*
X0296780Y0220215D02*
X0294311Y0220215D01*
X0293097Y0219598D02*
X0290628Y0219598D01*
X0290628Y0217747D02*
X0290628Y0221450D01*
X0289413Y0221450D02*
X0289413Y0217747D01*
X0286945Y0217747D02*
X0286945Y0221450D01*
X0288179Y0220215D01*
X0289413Y0221450D01*
X0285730Y0221450D02*
X0284496Y0220833D01*
X0283261Y0219598D01*
X0285113Y0219598D01*
X0285730Y0218981D01*
X0285730Y0218364D01*
X0285113Y0217747D01*
X0283879Y0217747D01*
X0283261Y0218364D01*
X0283261Y0219598D01*
X0282047Y0217747D02*
X0279578Y0217747D01*
X0280813Y0217747D02*
X0280813Y0221450D01*
X0279578Y0220215D01*
X0293097Y0221450D02*
X0293097Y0217747D01*
X0318518Y0226969D02*
X0319136Y0226352D01*
X0320370Y0226352D01*
X0320987Y0226969D01*
X0322202Y0226969D02*
X0322202Y0226352D01*
X0322202Y0226969D02*
X0324670Y0229438D01*
X0324670Y0230055D01*
X0322202Y0230055D01*
X0320987Y0229438D02*
X0320370Y0230055D01*
X0319136Y0230055D01*
X0318518Y0229438D01*
X0318518Y0226969D01*
X0363736Y0216137D02*
X0366205Y0216137D01*
X0367733Y0216742D02*
X0367733Y0220445D01*
X0371416Y0220445D02*
X0371416Y0216742D01*
X0373885Y0216742D01*
X0375099Y0216742D02*
X0375099Y0220445D01*
X0376951Y0220445D01*
X0377568Y0219828D01*
X0377568Y0217359D01*
X0376951Y0216742D01*
X0375099Y0216742D01*
X0372650Y0218594D02*
X0371416Y0218594D01*
X0371416Y0220445D02*
X0373885Y0220445D01*
X0378782Y0219211D02*
X0380016Y0220445D01*
X0380016Y0216742D01*
X0378782Y0216742D02*
X0381251Y0216742D01*
X0370201Y0216742D02*
X0367733Y0216742D01*
X0364971Y0217371D02*
X0364971Y0214902D01*
X0345111Y0174184D02*
X0343877Y0174184D01*
X0343260Y0173567D01*
X0342046Y0173567D02*
X0341428Y0174184D01*
X0340194Y0174184D01*
X0339577Y0173567D01*
X0339577Y0171099D01*
X0340194Y0170481D01*
X0341428Y0170481D01*
X0342046Y0171099D01*
X0343260Y0170481D02*
X0345729Y0172950D01*
X0345729Y0173567D01*
X0345111Y0174184D01*
X0345729Y0170481D02*
X0343260Y0170481D01*
X0342162Y0152484D02*
X0340928Y0152484D01*
X0340310Y0151867D01*
X0339096Y0151867D02*
X0339096Y0150633D01*
X0338479Y0150016D01*
X0336627Y0150016D01*
X0336627Y0148781D02*
X0336627Y0152484D01*
X0338479Y0152484D01*
X0339096Y0151867D01*
X0337862Y0150016D02*
X0339096Y0148781D01*
X0340310Y0148781D02*
X0342779Y0151250D01*
X0342779Y0151867D01*
X0342162Y0152484D01*
X0343994Y0150633D02*
X0346462Y0150633D01*
X0345845Y0152484D02*
X0345845Y0148781D01*
X0343994Y0150633D02*
X0345845Y0152484D01*
X0342779Y0148781D02*
X0340310Y0148781D01*
X0306653Y0161767D02*
X0306653Y0162384D01*
X0306653Y0161767D02*
X0305419Y0160533D01*
X0305419Y0158681D01*
X0305419Y0160533D02*
X0304185Y0161767D01*
X0304185Y0162384D01*
X0302970Y0161767D02*
X0302970Y0160533D01*
X0302353Y0159916D01*
X0300501Y0159916D01*
X0300501Y0158681D02*
X0300501Y0162384D01*
X0302353Y0162384D01*
X0302970Y0161767D01*
X0301736Y0159916D02*
X0302970Y0158681D01*
X0302970Y0156384D02*
X0300501Y0156384D01*
X0299287Y0156384D02*
X0296818Y0156384D01*
X0296818Y0152681D01*
X0299287Y0152681D01*
X0298053Y0154533D02*
X0296818Y0154533D01*
X0295604Y0153916D02*
X0295604Y0153299D01*
X0294987Y0152681D01*
X0293752Y0152681D01*
X0293135Y0153299D01*
X0291921Y0152681D02*
X0289452Y0152681D01*
X0289452Y0156384D01*
X0291921Y0156384D01*
X0293135Y0155767D02*
X0293135Y0155150D01*
X0293752Y0154533D01*
X0294987Y0154533D01*
X0295604Y0153916D01*
X0295604Y0155767D02*
X0294987Y0156384D01*
X0293752Y0156384D01*
X0293135Y0155767D01*
X0290686Y0154533D02*
X0289452Y0154533D01*
X0288238Y0154533D02*
X0287620Y0153916D01*
X0285769Y0153916D01*
X0287003Y0153916D02*
X0288238Y0152681D01*
X0288238Y0154533D02*
X0288238Y0155767D01*
X0287620Y0156384D01*
X0285769Y0156384D01*
X0285769Y0152681D01*
X0285769Y0158681D02*
X0285769Y0161150D01*
X0287003Y0162384D01*
X0288238Y0161150D01*
X0288238Y0158681D01*
X0289452Y0159299D02*
X0290069Y0158681D01*
X0291304Y0158681D01*
X0291921Y0159299D01*
X0291921Y0161767D02*
X0291304Y0162384D01*
X0290069Y0162384D01*
X0289452Y0161767D01*
X0289452Y0159299D01*
X0288238Y0160533D02*
X0285769Y0160533D01*
X0284555Y0162384D02*
X0282086Y0162384D01*
X0282086Y0158681D01*
X0282086Y0160533D02*
X0283320Y0160533D01*
X0283212Y0166981D02*
X0280743Y0166981D01*
X0283212Y0169450D01*
X0283212Y0170067D01*
X0282595Y0170684D01*
X0281360Y0170684D01*
X0280743Y0170067D01*
X0279529Y0170067D02*
X0278911Y0170684D01*
X0277677Y0170684D01*
X0277060Y0170067D01*
X0275846Y0170067D02*
X0275228Y0170684D01*
X0273994Y0170684D01*
X0273377Y0170067D01*
X0273377Y0167599D01*
X0273994Y0166981D01*
X0275228Y0166981D01*
X0275846Y0167599D01*
X0277060Y0166981D02*
X0279529Y0169450D01*
X0279529Y0170067D01*
X0279529Y0166981D02*
X0277060Y0166981D01*
X0289452Y0166533D02*
X0290686Y0166533D01*
X0289452Y0168384D02*
X0289452Y0164681D01*
X0291921Y0164681D01*
X0293135Y0165299D02*
X0293752Y0164681D01*
X0294987Y0164681D01*
X0295604Y0165299D01*
X0295604Y0165916D01*
X0294987Y0166533D01*
X0293752Y0166533D01*
X0293135Y0167150D01*
X0293135Y0167767D01*
X0293752Y0168384D01*
X0294987Y0168384D01*
X0295604Y0167767D01*
X0296818Y0168384D02*
X0298670Y0168384D01*
X0299287Y0167767D01*
X0299287Y0166533D01*
X0298670Y0165916D01*
X0296818Y0165916D01*
X0296818Y0164681D02*
X0296818Y0168384D01*
X0291921Y0168384D02*
X0289452Y0168384D01*
X0293135Y0162384D02*
X0295604Y0162384D01*
X0294370Y0162384D02*
X0294370Y0158681D01*
X0296818Y0159299D02*
X0297436Y0158681D01*
X0298670Y0158681D01*
X0299287Y0159299D01*
X0299287Y0161767D01*
X0298670Y0162384D01*
X0297436Y0162384D01*
X0296818Y0161767D01*
X0296818Y0159299D01*
X0301736Y0156384D02*
X0301736Y0152681D01*
X0306991Y0106516D02*
X0306374Y0105899D01*
X0306374Y0104665D01*
X0306991Y0104048D01*
X0307608Y0104048D01*
X0308225Y0104665D01*
X0308225Y0106516D01*
X0306991Y0106516D02*
X0309460Y0106516D01*
X0310077Y0105899D01*
X0310077Y0104665D01*
X0309460Y0104048D01*
X0310077Y0102833D02*
X0310077Y0100364D01*
X0310077Y0099150D02*
X0308842Y0097916D01*
X0308842Y0098533D02*
X0308842Y0096681D01*
X0310077Y0096681D02*
X0306374Y0096681D01*
X0306374Y0098533D01*
X0306991Y0099150D01*
X0308225Y0099150D01*
X0308842Y0098533D01*
X0307608Y0100364D02*
X0306374Y0101599D01*
X0310077Y0101599D01*
X0302177Y0092684D02*
X0302177Y0088981D01*
X0300943Y0088981D02*
X0303412Y0088981D01*
X0300943Y0091450D02*
X0302177Y0092684D01*
X0299729Y0092067D02*
X0299111Y0092684D01*
X0297877Y0092684D01*
X0297260Y0092067D01*
X0296046Y0092067D02*
X0295428Y0092684D01*
X0294194Y0092684D01*
X0293577Y0092067D01*
X0293577Y0089599D01*
X0294194Y0088981D01*
X0295428Y0088981D01*
X0296046Y0089599D01*
X0297260Y0088981D02*
X0299729Y0091450D01*
X0299729Y0092067D01*
X0299729Y0088981D02*
X0297260Y0088981D01*
X0286860Y0098481D02*
X0286860Y0099099D01*
X0289329Y0101567D01*
X0289329Y0102184D01*
X0286860Y0102184D01*
X0285646Y0101567D02*
X0285028Y0102184D01*
X0283177Y0102184D01*
X0283177Y0098481D01*
X0283177Y0099716D02*
X0285028Y0099716D01*
X0285646Y0100333D01*
X0285646Y0101567D01*
X0284411Y0099716D02*
X0285646Y0098481D01*
X0345327Y0099367D02*
X0345327Y0096899D01*
X0345945Y0096281D01*
X0347179Y0096281D01*
X0347796Y0096899D01*
X0349010Y0096281D02*
X0351479Y0098750D01*
X0351479Y0099367D01*
X0350862Y0099984D01*
X0349628Y0099984D01*
X0349010Y0099367D01*
X0347796Y0099367D02*
X0347179Y0099984D01*
X0345945Y0099984D01*
X0345327Y0099367D01*
X0349010Y0096281D02*
X0351479Y0096281D01*
X0352694Y0096899D02*
X0355162Y0099367D01*
X0355162Y0096899D01*
X0354545Y0096281D01*
X0353311Y0096281D01*
X0352694Y0096899D01*
X0352694Y0099367D01*
X0353311Y0099984D01*
X0354545Y0099984D01*
X0355162Y0099367D01*
X0367374Y0098449D02*
X0371077Y0098449D01*
X0371077Y0097215D02*
X0371077Y0099684D01*
X0370460Y0100898D02*
X0371077Y0101515D01*
X0371077Y0102750D01*
X0370460Y0103367D01*
X0367991Y0103367D01*
X0367374Y0102750D01*
X0367374Y0101515D01*
X0367991Y0100898D01*
X0368608Y0100898D01*
X0369225Y0101515D01*
X0369225Y0103367D01*
X0367374Y0098449D02*
X0368608Y0097215D01*
X0367991Y0096001D02*
X0367374Y0095383D01*
X0367374Y0094149D01*
X0367991Y0093532D01*
X0370460Y0093532D01*
X0371077Y0094149D01*
X0371077Y0095383D01*
X0370460Y0096001D01*
X0198162Y0095184D02*
X0198162Y0094567D01*
X0195694Y0092099D01*
X0195694Y0091481D01*
X0194479Y0091481D02*
X0192010Y0091481D01*
X0190796Y0091481D02*
X0189562Y0092716D01*
X0190179Y0092716D02*
X0188327Y0092716D01*
X0188327Y0091481D02*
X0188327Y0095184D01*
X0190179Y0095184D01*
X0190796Y0094567D01*
X0190796Y0093333D01*
X0190179Y0092716D01*
X0192010Y0093950D02*
X0193245Y0095184D01*
X0193245Y0091481D01*
X0195694Y0095184D02*
X0198162Y0095184D01*
X0151162Y0091967D02*
X0151162Y0089499D01*
X0150545Y0088881D01*
X0149311Y0088881D01*
X0148694Y0089499D01*
X0147479Y0088881D02*
X0146245Y0090116D01*
X0146862Y0090116D02*
X0145010Y0090116D01*
X0145010Y0088881D02*
X0145010Y0092584D01*
X0146862Y0092584D01*
X0147479Y0091967D01*
X0147479Y0090733D01*
X0146862Y0090116D01*
X0148694Y0091350D02*
X0149311Y0090733D01*
X0151162Y0090733D01*
X0151162Y0091967D02*
X0150545Y0092584D01*
X0149311Y0092584D01*
X0148694Y0091967D01*
X0148694Y0091350D01*
X0071695Y0182181D02*
X0070460Y0182181D01*
X0069843Y0182799D01*
X0068629Y0182181D02*
X0066160Y0182181D01*
X0068629Y0184650D01*
X0068629Y0185267D01*
X0068011Y0185884D01*
X0066777Y0185884D01*
X0066160Y0185267D01*
X0064946Y0185267D02*
X0064328Y0185884D01*
X0063094Y0185884D01*
X0062477Y0185267D01*
X0062477Y0182799D01*
X0063094Y0182181D01*
X0064328Y0182181D01*
X0064946Y0182799D01*
X0069843Y0184650D02*
X0070460Y0184033D01*
X0072312Y0184033D01*
X0072312Y0185267D02*
X0071695Y0185884D01*
X0070460Y0185884D01*
X0069843Y0185267D01*
X0069843Y0184650D01*
X0072312Y0185267D02*
X0072312Y0182799D01*
X0071695Y0182181D01*
X0071345Y0222281D02*
X0070111Y0222281D01*
X0069494Y0222899D01*
X0069494Y0223516D01*
X0070111Y0224133D01*
X0071345Y0224133D01*
X0071962Y0223516D01*
X0071962Y0222899D01*
X0071345Y0222281D01*
X0071345Y0224133D02*
X0071962Y0224750D01*
X0071962Y0225367D01*
X0071345Y0225984D01*
X0070111Y0225984D01*
X0069494Y0225367D01*
X0069494Y0224750D01*
X0070111Y0224133D01*
X0068279Y0224750D02*
X0068279Y0225367D01*
X0067662Y0225984D01*
X0066428Y0225984D01*
X0065810Y0225367D01*
X0064596Y0225367D02*
X0063979Y0225984D01*
X0062745Y0225984D01*
X0062127Y0225367D01*
X0062127Y0222899D01*
X0062745Y0222281D01*
X0063979Y0222281D01*
X0064596Y0222899D01*
X0065810Y0222281D02*
X0068279Y0224750D01*
X0068279Y0222281D02*
X0065810Y0222281D01*
X0064828Y0237681D02*
X0063594Y0237681D01*
X0062977Y0238299D01*
X0062977Y0240767D01*
X0063594Y0241384D01*
X0064828Y0241384D01*
X0065446Y0240767D01*
X0066660Y0240767D02*
X0067277Y0241384D01*
X0068511Y0241384D01*
X0069129Y0240767D01*
X0069129Y0240150D01*
X0068511Y0239533D01*
X0069129Y0238916D01*
X0069129Y0238299D01*
X0068511Y0237681D01*
X0067277Y0237681D01*
X0066660Y0238299D01*
X0065446Y0238299D02*
X0064828Y0237681D01*
X0067894Y0239533D02*
X0068511Y0239533D01*
X0070343Y0238299D02*
X0070343Y0240767D01*
X0070960Y0241384D01*
X0072195Y0241384D01*
X0072812Y0240767D01*
X0070343Y0238299D01*
X0070960Y0237681D01*
X0072195Y0237681D01*
X0072812Y0238299D01*
X0072812Y0240767D01*
X0072162Y0277381D02*
X0069694Y0277381D01*
X0070928Y0277381D02*
X0070928Y0281084D01*
X0069694Y0279850D01*
X0068479Y0279850D02*
X0067862Y0279233D01*
X0068479Y0278616D01*
X0068479Y0277999D01*
X0067862Y0277381D01*
X0066628Y0277381D01*
X0066010Y0277999D01*
X0064796Y0277999D02*
X0064179Y0277381D01*
X0062945Y0277381D01*
X0062327Y0277999D01*
X0062327Y0280467D01*
X0062945Y0281084D01*
X0064179Y0281084D01*
X0064796Y0280467D01*
X0066010Y0280467D02*
X0066628Y0281084D01*
X0067862Y0281084D01*
X0068479Y0280467D01*
X0068479Y0279850D01*
X0067862Y0279233D02*
X0067245Y0279233D01*
X0220776Y0349105D02*
X0221393Y0348488D01*
X0222628Y0348488D01*
X0223245Y0349105D01*
X0224459Y0350339D02*
X0226928Y0350339D01*
X0228142Y0349722D02*
X0228759Y0350339D01*
X0229994Y0350339D01*
X0230611Y0349722D01*
X0230611Y0349105D01*
X0229994Y0348488D01*
X0228759Y0348488D01*
X0228142Y0349105D01*
X0228142Y0349722D01*
X0228759Y0350339D02*
X0228142Y0350956D01*
X0228142Y0351574D01*
X0228759Y0352191D01*
X0229994Y0352191D01*
X0230611Y0351574D01*
X0230611Y0350956D01*
X0229994Y0350339D01*
X0226311Y0348488D02*
X0226311Y0352191D01*
X0224459Y0350339D01*
X0223245Y0351574D02*
X0222628Y0352191D01*
X0221393Y0352191D01*
X0220776Y0351574D01*
X0220776Y0349105D01*
X0340769Y0348063D02*
X0344472Y0348063D01*
X0344472Y0346829D02*
X0344472Y0349298D01*
X0343855Y0350512D02*
X0344472Y0351129D01*
X0344472Y0352364D01*
X0343855Y0352981D01*
X0343238Y0352981D01*
X0342620Y0352364D01*
X0342620Y0351747D01*
X0342620Y0352364D02*
X0342003Y0352981D01*
X0341386Y0352981D01*
X0340769Y0352364D01*
X0340769Y0351129D01*
X0341386Y0350512D01*
X0340769Y0348063D02*
X0342003Y0346829D01*
X0341386Y0345615D02*
X0340769Y0344997D01*
X0340769Y0343763D01*
X0341386Y0343146D01*
X0343855Y0343146D01*
X0344472Y0343763D01*
X0344472Y0344997D01*
X0343855Y0345615D01*
D15*
X0337095Y0350232D02*
X0336495Y0349631D01*
X0335294Y0349631D01*
X0334693Y0350232D01*
X0334693Y0350832D01*
X0335294Y0351433D01*
X0336495Y0351433D01*
X0337095Y0350832D01*
X0337095Y0350232D01*
X0336495Y0351433D02*
X0337095Y0352033D01*
X0337095Y0352634D01*
X0336495Y0353234D01*
X0335294Y0353234D01*
X0334693Y0352634D01*
X0334693Y0352033D01*
X0335294Y0351433D01*
X0333412Y0349631D02*
X0331010Y0349631D01*
X0332211Y0349631D02*
X0332211Y0353234D01*
X0331010Y0352033D01*
X0329729Y0352634D02*
X0329128Y0353234D01*
X0327927Y0353234D01*
X0327327Y0352634D01*
X0327327Y0350232D01*
X0327927Y0349631D01*
X0329128Y0349631D01*
X0329729Y0350232D01*
X0321827Y0335617D02*
X0321827Y0333214D01*
X0321827Y0334415D02*
X0318224Y0334415D01*
X0319425Y0333214D01*
X0318824Y0331933D02*
X0318224Y0331333D01*
X0318224Y0330132D01*
X0318824Y0329531D01*
X0321226Y0329531D01*
X0321827Y0330132D01*
X0321827Y0331333D01*
X0321226Y0331933D01*
X0318740Y0309066D02*
X0312047Y0309066D01*
X0312047Y0304735D02*
X0318740Y0304735D01*
X0276977Y0277068D02*
X0276210Y0277835D01*
X0273908Y0277835D01*
X0273908Y0273231D01*
X0276210Y0273231D01*
X0276977Y0273999D01*
X0276977Y0274766D01*
X0276210Y0275533D01*
X0273908Y0275533D01*
X0272373Y0275533D02*
X0269304Y0275533D01*
X0267769Y0274766D02*
X0267769Y0273999D01*
X0267002Y0273231D01*
X0264700Y0273231D01*
X0264700Y0277835D01*
X0267002Y0277835D01*
X0267769Y0277068D01*
X0267769Y0276301D01*
X0267002Y0275533D01*
X0264700Y0275533D01*
X0263165Y0274766D02*
X0263165Y0273999D01*
X0262398Y0273231D01*
X0260863Y0273231D01*
X0260096Y0273999D01*
X0258561Y0273999D02*
X0258561Y0277835D01*
X0260096Y0277068D02*
X0260863Y0277835D01*
X0262398Y0277835D01*
X0263165Y0277068D01*
X0262398Y0275533D02*
X0263165Y0274766D01*
X0262398Y0275533D02*
X0260863Y0275533D01*
X0260096Y0276301D01*
X0260096Y0277068D01*
X0258561Y0273999D02*
X0257794Y0273231D01*
X0256259Y0273231D01*
X0255492Y0273999D01*
X0255492Y0277835D01*
X0249354Y0277835D02*
X0247819Y0277835D01*
X0248586Y0277835D02*
X0248586Y0273231D01*
X0247819Y0273231D02*
X0249354Y0273231D01*
X0246284Y0273231D02*
X0246284Y0277835D01*
X0243215Y0277835D02*
X0246284Y0273231D01*
X0243215Y0273231D02*
X0243215Y0277835D01*
X0241680Y0277835D02*
X0240146Y0277835D01*
X0240913Y0277835D02*
X0240913Y0273231D01*
X0240146Y0273231D02*
X0241680Y0273231D01*
X0238611Y0273231D02*
X0238611Y0277835D01*
X0237076Y0276301D01*
X0235542Y0277835D01*
X0235542Y0273231D01*
X0267002Y0275533D02*
X0267769Y0274766D01*
X0276210Y0275533D02*
X0276977Y0276301D01*
X0276977Y0277068D01*
X0162076Y0255371D02*
X0162078Y0255420D01*
X0162084Y0255469D01*
X0162093Y0255517D01*
X0162107Y0255564D01*
X0162124Y0255610D01*
X0162145Y0255654D01*
X0162169Y0255697D01*
X0162197Y0255738D01*
X0162227Y0255776D01*
X0162261Y0255812D01*
X0162297Y0255845D01*
X0162336Y0255874D01*
X0162377Y0255901D01*
X0162421Y0255925D01*
X0162465Y0255944D01*
X0162512Y0255961D01*
X0162559Y0255973D01*
X0162607Y0255982D01*
X0162656Y0255987D01*
X0162705Y0255988D01*
X0162754Y0255985D01*
X0162803Y0255978D01*
X0162851Y0255968D01*
X0162898Y0255953D01*
X0162943Y0255935D01*
X0162987Y0255913D01*
X0163029Y0255888D01*
X0163069Y0255860D01*
X0163107Y0255828D01*
X0163142Y0255794D01*
X0163174Y0255757D01*
X0163203Y0255718D01*
X0163229Y0255676D01*
X0163252Y0255632D01*
X0163271Y0255587D01*
X0163286Y0255541D01*
X0163298Y0255493D01*
X0163306Y0255444D01*
X0163310Y0255396D01*
X0163310Y0255346D01*
X0163306Y0255298D01*
X0163298Y0255249D01*
X0163286Y0255201D01*
X0163271Y0255155D01*
X0163252Y0255110D01*
X0163229Y0255066D01*
X0163203Y0255024D01*
X0163174Y0254985D01*
X0163142Y0254948D01*
X0163107Y0254914D01*
X0163069Y0254882D01*
X0163029Y0254854D01*
X0162987Y0254829D01*
X0162943Y0254807D01*
X0162898Y0254789D01*
X0162851Y0254774D01*
X0162803Y0254764D01*
X0162754Y0254757D01*
X0162705Y0254754D01*
X0162656Y0254755D01*
X0162607Y0254760D01*
X0162559Y0254769D01*
X0162512Y0254781D01*
X0162465Y0254798D01*
X0162421Y0254817D01*
X0162377Y0254841D01*
X0162336Y0254868D01*
X0162297Y0254897D01*
X0162261Y0254930D01*
X0162227Y0254966D01*
X0162197Y0255004D01*
X0162169Y0255045D01*
X0162145Y0255088D01*
X0162124Y0255132D01*
X0162107Y0255178D01*
X0162093Y0255225D01*
X0162084Y0255273D01*
X0162078Y0255322D01*
X0162076Y0255371D01*
X0160096Y0252033D02*
X0157027Y0252033D01*
X0158561Y0250499D02*
X0158561Y0253568D01*
X0158027Y0268033D02*
X0161096Y0268033D01*
X0105745Y0245834D02*
X0103342Y0245834D01*
X0104544Y0245834D02*
X0104544Y0242231D01*
X0102061Y0242231D02*
X0102061Y0245834D01*
X0099659Y0245834D02*
X0102061Y0242231D01*
X0099659Y0242231D02*
X0099659Y0245834D01*
X0098378Y0244633D02*
X0098378Y0242231D01*
X0098378Y0244033D02*
X0095976Y0244033D01*
X0095976Y0244633D02*
X0095976Y0242231D01*
X0095976Y0244633D02*
X0097177Y0245834D01*
X0098378Y0244633D01*
X0094695Y0245834D02*
X0092293Y0245834D01*
X0093494Y0245834D02*
X0093494Y0242231D01*
X0091012Y0244033D02*
X0088610Y0244033D01*
X0087329Y0245234D02*
X0086728Y0245834D01*
X0085527Y0245834D01*
X0084927Y0245234D01*
X0084927Y0242832D01*
X0085527Y0242231D01*
X0086728Y0242231D01*
X0087329Y0242832D01*
X0103128Y0222434D02*
X0103128Y0218831D01*
X0101927Y0218831D02*
X0104329Y0218831D01*
X0105610Y0219432D02*
X0108012Y0221834D01*
X0108012Y0219432D01*
X0107411Y0218831D01*
X0106210Y0218831D01*
X0105610Y0219432D01*
X0105610Y0221834D01*
X0106210Y0222434D01*
X0107411Y0222434D01*
X0108012Y0221834D01*
X0109293Y0221233D02*
X0109293Y0219432D01*
X0109894Y0218831D01*
X0111695Y0218831D01*
X0111695Y0221233D01*
X0112976Y0220633D02*
X0114177Y0220633D01*
X0112976Y0222434D02*
X0115378Y0222434D01*
X0112976Y0222434D02*
X0112976Y0218831D01*
X0103128Y0222434D02*
X0101927Y0221233D01*
X0120342Y0220633D02*
X0122144Y0220633D01*
X0122745Y0220032D01*
X0122745Y0219432D01*
X0122144Y0218831D01*
X0120943Y0218831D01*
X0120342Y0219432D01*
X0120342Y0220633D01*
X0121544Y0221834D01*
X0122745Y0222434D01*
X0124026Y0221834D02*
X0124626Y0222434D01*
X0125827Y0222434D01*
X0126428Y0221834D01*
X0126428Y0221233D01*
X0125827Y0220633D01*
X0126428Y0220032D01*
X0126428Y0219432D01*
X0125827Y0218831D01*
X0124626Y0218831D01*
X0124026Y0219432D01*
X0125227Y0220633D02*
X0125827Y0220633D01*
X0127709Y0220032D02*
X0127709Y0222434D01*
X0127709Y0220032D02*
X0128910Y0218831D01*
X0130111Y0220032D01*
X0130111Y0222434D01*
X0158027Y0213033D02*
X0161096Y0213033D01*
X0162076Y0200371D02*
X0162078Y0200420D01*
X0162084Y0200469D01*
X0162093Y0200517D01*
X0162107Y0200564D01*
X0162124Y0200610D01*
X0162145Y0200654D01*
X0162169Y0200697D01*
X0162197Y0200738D01*
X0162227Y0200776D01*
X0162261Y0200812D01*
X0162297Y0200845D01*
X0162336Y0200874D01*
X0162377Y0200901D01*
X0162421Y0200925D01*
X0162465Y0200944D01*
X0162512Y0200961D01*
X0162559Y0200973D01*
X0162607Y0200982D01*
X0162656Y0200987D01*
X0162705Y0200988D01*
X0162754Y0200985D01*
X0162803Y0200978D01*
X0162851Y0200968D01*
X0162898Y0200953D01*
X0162943Y0200935D01*
X0162987Y0200913D01*
X0163029Y0200888D01*
X0163069Y0200860D01*
X0163107Y0200828D01*
X0163142Y0200794D01*
X0163174Y0200757D01*
X0163203Y0200718D01*
X0163229Y0200676D01*
X0163252Y0200632D01*
X0163271Y0200587D01*
X0163286Y0200541D01*
X0163298Y0200493D01*
X0163306Y0200444D01*
X0163310Y0200396D01*
X0163310Y0200346D01*
X0163306Y0200298D01*
X0163298Y0200249D01*
X0163286Y0200201D01*
X0163271Y0200155D01*
X0163252Y0200110D01*
X0163229Y0200066D01*
X0163203Y0200024D01*
X0163174Y0199985D01*
X0163142Y0199948D01*
X0163107Y0199914D01*
X0163069Y0199882D01*
X0163029Y0199854D01*
X0162987Y0199829D01*
X0162943Y0199807D01*
X0162898Y0199789D01*
X0162851Y0199774D01*
X0162803Y0199764D01*
X0162754Y0199757D01*
X0162705Y0199754D01*
X0162656Y0199755D01*
X0162607Y0199760D01*
X0162559Y0199769D01*
X0162512Y0199781D01*
X0162465Y0199798D01*
X0162421Y0199817D01*
X0162377Y0199841D01*
X0162336Y0199868D01*
X0162297Y0199897D01*
X0162261Y0199930D01*
X0162227Y0199966D01*
X0162197Y0200004D01*
X0162169Y0200045D01*
X0162145Y0200088D01*
X0162124Y0200132D01*
X0162107Y0200178D01*
X0162093Y0200225D01*
X0162084Y0200273D01*
X0162078Y0200322D01*
X0162076Y0200371D01*
X0160096Y0197033D02*
X0157027Y0197033D01*
X0158561Y0195499D02*
X0158561Y0198568D01*
X0105627Y0156355D02*
X0104859Y0157122D01*
X0101790Y0157122D01*
X0101023Y0156355D01*
X0101023Y0154053D01*
X0105627Y0154053D01*
X0105627Y0156355D01*
X0104859Y0152518D02*
X0105627Y0151751D01*
X0105627Y0150216D01*
X0104859Y0149449D01*
X0104859Y0147914D02*
X0103325Y0147914D01*
X0102557Y0147147D01*
X0102557Y0145612D01*
X0103325Y0144845D01*
X0104859Y0144845D01*
X0105627Y0145612D01*
X0105627Y0147147D01*
X0104859Y0147914D01*
X0102557Y0149449D02*
X0103325Y0150216D01*
X0103325Y0151751D01*
X0104092Y0152518D01*
X0104859Y0152518D01*
X0101790Y0152518D02*
X0101023Y0151751D01*
X0101023Y0150216D01*
X0101790Y0149449D01*
X0102557Y0149449D01*
X0102557Y0143310D02*
X0102557Y0142543D01*
X0104092Y0141008D01*
X0105627Y0141008D02*
X0102557Y0141008D01*
X0102557Y0139474D02*
X0102557Y0137172D01*
X0103325Y0136405D01*
X0104859Y0136405D01*
X0105627Y0137172D01*
X0105627Y0139474D01*
X0105627Y0134870D02*
X0105627Y0133335D01*
X0105627Y0134103D02*
X0102557Y0134103D01*
X0102557Y0133335D01*
X0101023Y0134103D02*
X0100256Y0134103D01*
X0101023Y0131801D02*
X0105627Y0131801D01*
X0105627Y0128731D02*
X0101023Y0128731D01*
X0102557Y0130266D01*
X0101023Y0131801D01*
X0226718Y0074595D02*
X0226718Y0069991D01*
X0229787Y0069991D01*
X0231322Y0070758D02*
X0232089Y0069991D01*
X0233624Y0069991D01*
X0234391Y0070758D01*
X0234391Y0071526D01*
X0233624Y0072293D01*
X0232089Y0072293D01*
X0231322Y0073060D01*
X0231322Y0073828D01*
X0232089Y0074595D01*
X0233624Y0074595D01*
X0234391Y0073828D01*
X0235926Y0074595D02*
X0238228Y0074595D01*
X0238995Y0073828D01*
X0238995Y0072293D01*
X0238228Y0071526D01*
X0235926Y0071526D01*
X0235926Y0069991D02*
X0235926Y0074595D01*
X0240530Y0072293D02*
X0243599Y0072293D01*
X0245134Y0073060D02*
X0246668Y0074595D01*
X0246668Y0069991D01*
X0245134Y0069991D02*
X0248203Y0069991D01*
X0249738Y0069991D02*
X0252807Y0073060D01*
X0252807Y0073828D01*
X0252040Y0074595D01*
X0250505Y0074595D01*
X0249738Y0073828D01*
X0249738Y0069991D02*
X0252807Y0069991D01*
X0229787Y0074595D02*
X0226718Y0074595D01*
X0226718Y0072293D02*
X0228253Y0072293D01*
X0382576Y0336850D02*
X0382576Y0341454D01*
X0384878Y0341454D01*
X0385645Y0340687D01*
X0385645Y0339152D01*
X0384878Y0338385D01*
X0382576Y0338385D01*
X0384110Y0338385D02*
X0385645Y0336850D01*
X0387180Y0336850D02*
X0390249Y0336850D01*
X0391783Y0337618D02*
X0392551Y0336850D01*
X0394085Y0336850D01*
X0394853Y0337618D01*
X0394853Y0338385D01*
X0394085Y0339152D01*
X0392551Y0339152D01*
X0391783Y0339920D01*
X0391783Y0340687D01*
X0392551Y0341454D01*
X0394085Y0341454D01*
X0394853Y0340687D01*
X0396387Y0341454D02*
X0396387Y0336850D01*
X0399457Y0336850D01*
X0397922Y0339152D02*
X0396387Y0339152D01*
X0396387Y0341454D02*
X0399457Y0341454D01*
X0400991Y0341454D02*
X0404061Y0341454D01*
X0402526Y0341454D02*
X0402526Y0336850D01*
X0390249Y0341454D02*
X0387180Y0341454D01*
X0387180Y0336850D01*
X0387180Y0339152D02*
X0388714Y0339152D01*
D16*
X0399612Y0271099D02*
X0399245Y0270732D01*
X0399245Y0269998D01*
X0399612Y0269631D01*
X0399612Y0271099D02*
X0399979Y0271099D01*
X0401447Y0269631D01*
X0401447Y0271099D01*
X0401447Y0259918D02*
X0401447Y0258450D01*
X0401447Y0259184D02*
X0399245Y0259184D01*
X0399979Y0258450D01*
X0406894Y0249634D02*
X0406427Y0249167D01*
X0406427Y0247298D01*
X0406894Y0246831D01*
X0407828Y0246831D01*
X0408295Y0247298D01*
X0408295Y0248233D01*
X0407361Y0248233D01*
X0408295Y0249167D02*
X0407828Y0249634D01*
X0406894Y0249634D01*
X0409189Y0249634D02*
X0411057Y0246831D01*
X0411057Y0249634D01*
X0411951Y0249634D02*
X0413353Y0249634D01*
X0413820Y0249167D01*
X0413820Y0247298D01*
X0413353Y0246831D01*
X0411951Y0246831D01*
X0411951Y0249634D01*
X0409189Y0249634D02*
X0409189Y0246831D01*
X0408927Y0245434D02*
X0410328Y0245434D01*
X0410795Y0244967D01*
X0410795Y0244033D01*
X0410328Y0243565D01*
X0408927Y0243565D01*
X0408927Y0242631D02*
X0408927Y0245434D01*
X0409861Y0243565D02*
X0410795Y0242631D01*
X0411689Y0243098D02*
X0412156Y0242631D01*
X0413090Y0242631D01*
X0413557Y0243098D01*
X0413557Y0243565D01*
X0413090Y0244033D01*
X0412156Y0244033D01*
X0411689Y0244500D01*
X0411689Y0244967D01*
X0412156Y0245434D01*
X0413090Y0245434D01*
X0413557Y0244967D01*
X0414451Y0245434D02*
X0416320Y0245434D01*
X0415386Y0245434D02*
X0415386Y0242631D01*
X0413486Y0239534D02*
X0413486Y0236731D01*
X0414420Y0236731D02*
X0412551Y0236731D01*
X0411657Y0236731D02*
X0409789Y0236731D01*
X0410723Y0236731D02*
X0410723Y0239534D01*
X0409789Y0238600D01*
X0408895Y0239067D02*
X0408428Y0239534D01*
X0407027Y0239534D01*
X0407027Y0236731D01*
X0408428Y0236731D01*
X0408895Y0237198D01*
X0408895Y0239067D01*
X0409727Y0235534D02*
X0411128Y0235534D01*
X0411595Y0235067D01*
X0411595Y0233198D01*
X0411128Y0232731D01*
X0409727Y0232731D01*
X0409727Y0235534D01*
X0412489Y0234600D02*
X0413423Y0235534D01*
X0413423Y0232731D01*
X0412489Y0232731D02*
X0414357Y0232731D01*
X0415251Y0233198D02*
X0415719Y0232731D01*
X0416653Y0232731D01*
X0417120Y0233198D01*
X0417120Y0233665D01*
X0416653Y0234133D01*
X0416186Y0234133D01*
X0416653Y0234133D02*
X0417120Y0234600D01*
X0417120Y0235067D01*
X0416653Y0235534D01*
X0415719Y0235534D01*
X0415251Y0235067D01*
X0412551Y0238600D02*
X0413486Y0239534D01*
X0413571Y0228534D02*
X0414039Y0228067D01*
X0414039Y0227600D01*
X0413571Y0227133D01*
X0414039Y0226665D01*
X0414039Y0226198D01*
X0413571Y0225731D01*
X0412637Y0225731D01*
X0412170Y0226198D01*
X0411256Y0226198D02*
X0411256Y0225731D01*
X0410789Y0225731D01*
X0410789Y0226198D01*
X0411256Y0226198D01*
X0409895Y0226198D02*
X0409428Y0225731D01*
X0408494Y0225731D01*
X0408027Y0226198D01*
X0408961Y0227133D02*
X0409428Y0227133D01*
X0409895Y0226665D01*
X0409895Y0226198D01*
X0409428Y0227133D02*
X0409895Y0227600D01*
X0409895Y0228067D01*
X0409428Y0228534D01*
X0408494Y0228534D01*
X0408027Y0228067D01*
X0410127Y0224634D02*
X0411528Y0224634D01*
X0411995Y0224167D01*
X0411995Y0222298D01*
X0411528Y0221831D01*
X0410127Y0221831D01*
X0410127Y0224634D01*
X0412889Y0223700D02*
X0413823Y0224634D01*
X0413823Y0221831D01*
X0412889Y0221831D02*
X0414757Y0221831D01*
X0415651Y0221831D02*
X0417520Y0223700D01*
X0417520Y0224167D01*
X0417053Y0224634D01*
X0416119Y0224634D01*
X0415651Y0224167D01*
X0415867Y0225731D02*
X0416801Y0226665D01*
X0416801Y0228534D01*
X0414933Y0228534D02*
X0414933Y0226665D01*
X0415867Y0225731D01*
X0413571Y0227133D02*
X0413104Y0227133D01*
X0412170Y0228067D02*
X0412637Y0228534D01*
X0413571Y0228534D01*
X0415651Y0221831D02*
X0417520Y0221831D01*
X0379328Y0261994D02*
X0379695Y0262361D01*
X0379695Y0263094D01*
X0379328Y0263461D01*
X0377860Y0263461D01*
X0377493Y0263094D01*
X0377493Y0262361D01*
X0377860Y0261994D01*
X0379328Y0261994D01*
X0379695Y0264203D02*
X0377493Y0264203D01*
X0379695Y0265671D01*
X0377493Y0265671D01*
X0317327Y0213531D02*
X0290327Y0213531D01*
X0290327Y0210531D02*
X0317327Y0210531D01*
X0317460Y0210529D01*
X0317592Y0210524D01*
X0317724Y0210515D01*
X0317857Y0210503D01*
X0317988Y0210487D01*
X0318120Y0210468D01*
X0318250Y0210445D01*
X0318380Y0210419D01*
X0318510Y0210389D01*
X0318638Y0210356D01*
X0318766Y0210320D01*
X0318892Y0210280D01*
X0319018Y0210237D01*
X0319142Y0210190D01*
X0319265Y0210140D01*
X0319386Y0210087D01*
X0319506Y0210031D01*
X0317327Y0213531D02*
X0317521Y0213529D01*
X0317716Y0213522D01*
X0317910Y0213510D01*
X0318104Y0213493D01*
X0318298Y0213472D01*
X0318491Y0213446D01*
X0318683Y0213415D01*
X0318874Y0213380D01*
X0319065Y0213340D01*
X0319254Y0213295D01*
X0319443Y0213246D01*
X0319630Y0213192D01*
X0319816Y0213134D01*
X0320000Y0213071D01*
X0320183Y0213004D01*
X0320364Y0212932D01*
X0320543Y0212856D01*
X0320720Y0212776D01*
X0320895Y0212691D01*
X0321069Y0212602D01*
X0321240Y0212509D01*
X0321408Y0212412D01*
X0321574Y0212310D01*
X0321738Y0212205D01*
X0321899Y0212096D01*
X0322058Y0211982D01*
X0322213Y0211865D01*
X0322366Y0211745D01*
X0322516Y0211620D01*
X0322662Y0211492D01*
X0322806Y0211361D01*
X0322946Y0211226D01*
X0323083Y0211087D01*
X0323216Y0210945D01*
X0323346Y0210801D01*
X0323473Y0210653D01*
X0323596Y0210501D01*
X0323715Y0210347D01*
X0323830Y0210191D01*
X0323941Y0210031D01*
X0319506Y0201031D02*
X0319386Y0200975D01*
X0319265Y0200922D01*
X0319142Y0200872D01*
X0319018Y0200825D01*
X0318892Y0200782D01*
X0318766Y0200742D01*
X0318638Y0200706D01*
X0318510Y0200673D01*
X0318380Y0200643D01*
X0318250Y0200617D01*
X0318120Y0200594D01*
X0317988Y0200575D01*
X0317857Y0200559D01*
X0317724Y0200547D01*
X0317592Y0200538D01*
X0317460Y0200533D01*
X0317327Y0200531D01*
X0290327Y0200531D01*
X0290327Y0197531D02*
X0317327Y0197531D01*
X0317326Y0197531D02*
X0317521Y0197533D01*
X0317715Y0197540D01*
X0317910Y0197552D01*
X0318104Y0197569D01*
X0318297Y0197590D01*
X0318490Y0197616D01*
X0318682Y0197647D01*
X0318874Y0197682D01*
X0319064Y0197722D01*
X0319254Y0197767D01*
X0319442Y0197816D01*
X0319629Y0197870D01*
X0319815Y0197928D01*
X0319999Y0197991D01*
X0320182Y0198058D01*
X0320363Y0198130D01*
X0320542Y0198206D01*
X0320719Y0198286D01*
X0320895Y0198371D01*
X0321068Y0198460D01*
X0321239Y0198553D01*
X0321407Y0198650D01*
X0321574Y0198752D01*
X0321737Y0198857D01*
X0321898Y0198967D01*
X0322057Y0199080D01*
X0322212Y0199197D01*
X0322365Y0199318D01*
X0322515Y0199442D01*
X0322661Y0199570D01*
X0322805Y0199702D01*
X0322945Y0199837D01*
X0323082Y0199975D01*
X0323215Y0200117D01*
X0323345Y0200262D01*
X0323472Y0200410D01*
X0323595Y0200561D01*
X0323714Y0200715D01*
X0323829Y0200872D01*
X0323941Y0201031D01*
X0307827Y0205531D02*
X0306327Y0205531D01*
X0301327Y0205531D02*
X0299827Y0205531D01*
X0290327Y0213531D02*
X0290132Y0213529D01*
X0289937Y0213522D01*
X0289743Y0213510D01*
X0289549Y0213493D01*
X0289356Y0213472D01*
X0289163Y0213446D01*
X0288970Y0213415D01*
X0288779Y0213380D01*
X0288588Y0213340D01*
X0288399Y0213295D01*
X0288211Y0213246D01*
X0288023Y0213192D01*
X0287838Y0213134D01*
X0287653Y0213071D01*
X0287471Y0213004D01*
X0287290Y0212932D01*
X0287111Y0212856D01*
X0286933Y0212776D01*
X0286758Y0212691D01*
X0286585Y0212602D01*
X0286414Y0212509D01*
X0286245Y0212411D01*
X0286079Y0212310D01*
X0285915Y0212205D01*
X0285754Y0212095D01*
X0285596Y0211982D01*
X0285440Y0211865D01*
X0285288Y0211744D01*
X0285138Y0211620D01*
X0284991Y0211492D01*
X0284848Y0211360D01*
X0284708Y0211225D01*
X0284571Y0211087D01*
X0284437Y0210945D01*
X0284307Y0210800D01*
X0284181Y0210652D01*
X0284058Y0210501D01*
X0283939Y0210347D01*
X0283824Y0210190D01*
X0283712Y0210031D01*
X0283713Y0201031D02*
X0283824Y0200871D01*
X0283939Y0200715D01*
X0284058Y0200561D01*
X0284181Y0200409D01*
X0284308Y0200261D01*
X0284438Y0200117D01*
X0284571Y0199975D01*
X0284708Y0199836D01*
X0284848Y0199701D01*
X0284992Y0199570D01*
X0285138Y0199442D01*
X0285288Y0199317D01*
X0285441Y0199197D01*
X0285596Y0199080D01*
X0285755Y0198966D01*
X0285916Y0198857D01*
X0286080Y0198752D01*
X0286246Y0198650D01*
X0286414Y0198553D01*
X0286585Y0198460D01*
X0286759Y0198371D01*
X0286934Y0198286D01*
X0287111Y0198206D01*
X0287290Y0198130D01*
X0287471Y0198058D01*
X0287654Y0197991D01*
X0287838Y0197928D01*
X0288024Y0197870D01*
X0288211Y0197816D01*
X0288400Y0197767D01*
X0288589Y0197722D01*
X0288780Y0197682D01*
X0288971Y0197647D01*
X0289163Y0197616D01*
X0289356Y0197590D01*
X0289550Y0197569D01*
X0289744Y0197552D01*
X0289938Y0197540D01*
X0290133Y0197533D01*
X0290327Y0197531D01*
X0290327Y0200531D02*
X0290194Y0200533D01*
X0290062Y0200538D01*
X0289930Y0200547D01*
X0289797Y0200559D01*
X0289666Y0200575D01*
X0289534Y0200594D01*
X0289404Y0200617D01*
X0289274Y0200643D01*
X0289144Y0200673D01*
X0289016Y0200706D01*
X0288888Y0200742D01*
X0288762Y0200782D01*
X0288636Y0200825D01*
X0288512Y0200872D01*
X0288389Y0200922D01*
X0288268Y0200975D01*
X0288148Y0201031D01*
X0288148Y0210031D02*
X0288268Y0210087D01*
X0288389Y0210140D01*
X0288512Y0210190D01*
X0288636Y0210237D01*
X0288762Y0210280D01*
X0288888Y0210320D01*
X0289016Y0210356D01*
X0289144Y0210389D01*
X0289274Y0210419D01*
X0289404Y0210445D01*
X0289534Y0210468D01*
X0289666Y0210487D01*
X0289797Y0210503D01*
X0289930Y0210515D01*
X0290062Y0210524D01*
X0290194Y0210529D01*
X0290327Y0210531D01*
D17*
X0106827Y0161331D03*
D18*
X0106927Y0161131D03*
D19*
X0106827Y0160931D03*
D20*
X0106827Y0160731D03*
D21*
X0106827Y0160531D03*
D22*
X0106927Y0160331D03*
D23*
X0119827Y0160131D03*
X0093827Y0160131D03*
X0094627Y0148131D03*
X0094827Y0147931D03*
X0094227Y0139731D03*
X0094427Y0139531D03*
X0094627Y0139331D03*
X0096627Y0137731D03*
X0096827Y0137531D03*
X0115027Y0132131D03*
X0115027Y0131931D03*
D24*
X0115127Y0131731D03*
X0115127Y0131531D03*
X0115127Y0131331D03*
X0119927Y0125931D03*
X0097927Y0125931D03*
X0097127Y0137131D03*
X0096927Y0137331D03*
X0093927Y0140131D03*
X0093727Y0143131D03*
X0095527Y0144531D03*
X0095127Y0147531D03*
X0094927Y0147731D03*
X0094527Y0148331D03*
X0094327Y0148531D03*
X0094127Y0148731D03*
X0093927Y0149131D03*
X0120127Y0159931D03*
D25*
X0120227Y0159731D03*
X0093627Y0159931D03*
X0093627Y0149931D03*
X0093627Y0149731D03*
X0093827Y0149531D03*
X0093827Y0149331D03*
X0094027Y0148931D03*
X0095227Y0147331D03*
X0095427Y0147131D03*
X0095427Y0146931D03*
X0095627Y0146531D03*
X0095627Y0146331D03*
X0095627Y0144731D03*
X0093627Y0142931D03*
X0093627Y0140731D03*
X0093627Y0140531D03*
X0093827Y0140331D03*
X0094027Y0139931D03*
X0097227Y0136931D03*
X0097227Y0136731D03*
X0097427Y0136531D03*
X0097427Y0136331D03*
X0097627Y0126531D03*
X0097627Y0126331D03*
X0097827Y0126131D03*
X0115027Y0130931D03*
X0115027Y0131131D03*
X0120227Y0126331D03*
X0120227Y0126131D03*
D26*
X0120327Y0126531D03*
X0120327Y0126731D03*
X0120327Y0126931D03*
X0120327Y0127131D03*
X0120327Y0127331D03*
X0120327Y0127531D03*
X0120327Y0127731D03*
X0120327Y0127931D03*
X0120327Y0128131D03*
X0120327Y0128331D03*
X0120327Y0128531D03*
X0120327Y0128731D03*
X0120327Y0128931D03*
X0120327Y0129131D03*
X0120327Y0129331D03*
X0120327Y0129531D03*
X0120327Y0129731D03*
X0120327Y0129931D03*
X0120327Y0130131D03*
X0120327Y0130331D03*
X0120327Y0130531D03*
X0120327Y0130731D03*
X0120327Y0130931D03*
X0120327Y0131131D03*
X0120327Y0131331D03*
X0120327Y0131531D03*
X0120327Y0131731D03*
X0120327Y0131931D03*
X0120327Y0132131D03*
X0120327Y0132331D03*
X0120327Y0132531D03*
X0120327Y0132731D03*
X0120327Y0132931D03*
X0120327Y0133131D03*
X0120327Y0133331D03*
X0120327Y0133531D03*
X0120327Y0133731D03*
X0120327Y0133931D03*
X0120327Y0134131D03*
X0120327Y0134331D03*
X0120327Y0134531D03*
X0120327Y0134731D03*
X0120327Y0134931D03*
X0120327Y0135131D03*
X0120327Y0135331D03*
X0120327Y0135531D03*
X0120327Y0135731D03*
X0120327Y0135931D03*
X0120327Y0136131D03*
X0120327Y0136331D03*
X0120327Y0136531D03*
X0120327Y0136731D03*
X0120327Y0136931D03*
X0120327Y0137131D03*
X0120327Y0137331D03*
X0120327Y0137531D03*
X0120327Y0137731D03*
X0120327Y0137931D03*
X0120327Y0138131D03*
X0120327Y0138331D03*
X0120327Y0138531D03*
X0120327Y0138731D03*
X0120327Y0138931D03*
X0120327Y0139131D03*
X0120327Y0139331D03*
X0120327Y0139531D03*
X0120327Y0139731D03*
X0120327Y0139931D03*
X0120327Y0140131D03*
X0120327Y0140331D03*
X0120327Y0140531D03*
X0120327Y0140731D03*
X0120327Y0140931D03*
X0120327Y0141131D03*
X0120327Y0141331D03*
X0120327Y0141531D03*
X0120327Y0141731D03*
X0120327Y0141931D03*
X0120327Y0142131D03*
X0120327Y0142331D03*
X0120327Y0142531D03*
X0120327Y0142731D03*
X0120327Y0142931D03*
X0120327Y0143131D03*
X0120327Y0143331D03*
X0120327Y0143531D03*
X0120327Y0143731D03*
X0120327Y0143931D03*
X0120327Y0144131D03*
X0120327Y0144331D03*
X0120327Y0144531D03*
X0120327Y0144731D03*
X0120327Y0144931D03*
X0120327Y0145131D03*
X0120327Y0145331D03*
X0120327Y0145531D03*
X0120327Y0145731D03*
X0120327Y0145931D03*
X0120327Y0146131D03*
X0120327Y0146331D03*
X0120327Y0146531D03*
X0120327Y0146731D03*
X0120327Y0146931D03*
X0120327Y0147131D03*
X0120327Y0147331D03*
X0120327Y0147531D03*
X0120327Y0147731D03*
X0120327Y0147931D03*
X0120327Y0148131D03*
X0120327Y0148331D03*
X0120327Y0148531D03*
X0120327Y0148731D03*
X0120327Y0148931D03*
X0120327Y0149131D03*
X0120327Y0149331D03*
X0120327Y0149531D03*
X0120327Y0149731D03*
X0120327Y0149931D03*
X0120327Y0150131D03*
X0120327Y0150331D03*
X0120327Y0150531D03*
X0120327Y0150731D03*
X0120327Y0150931D03*
X0120327Y0151131D03*
X0120327Y0151331D03*
X0120327Y0151531D03*
X0120327Y0151731D03*
X0120327Y0151931D03*
X0120327Y0152131D03*
X0120327Y0152331D03*
X0120327Y0152531D03*
X0120327Y0152731D03*
X0120327Y0152931D03*
X0120327Y0153131D03*
X0120327Y0153331D03*
X0120327Y0153531D03*
X0120327Y0153731D03*
X0120327Y0153931D03*
X0120327Y0154131D03*
X0120327Y0154331D03*
X0120327Y0154531D03*
X0120327Y0154731D03*
X0120327Y0154931D03*
X0120327Y0155131D03*
X0120327Y0155331D03*
X0120327Y0155531D03*
X0120327Y0155731D03*
X0120327Y0155931D03*
X0120327Y0156131D03*
X0120327Y0156331D03*
X0120327Y0156531D03*
X0120327Y0156731D03*
X0120327Y0156931D03*
X0120327Y0157131D03*
X0120327Y0157331D03*
X0120327Y0157531D03*
X0120327Y0157731D03*
X0120327Y0157931D03*
X0120327Y0158131D03*
X0120327Y0158331D03*
X0120327Y0158531D03*
X0120327Y0158731D03*
X0120327Y0158931D03*
X0120327Y0159131D03*
X0120327Y0159331D03*
X0120327Y0159531D03*
X0093527Y0159531D03*
X0093527Y0159331D03*
X0093527Y0159131D03*
X0093527Y0158931D03*
X0093527Y0158731D03*
X0093527Y0158531D03*
X0093527Y0158331D03*
X0093527Y0158131D03*
X0093527Y0157931D03*
X0093527Y0157731D03*
X0093527Y0157531D03*
X0093527Y0157331D03*
X0093527Y0157131D03*
X0093527Y0156931D03*
X0093527Y0156731D03*
X0093527Y0156531D03*
X0093527Y0156331D03*
X0093527Y0156131D03*
X0093527Y0155931D03*
X0093527Y0155731D03*
X0093527Y0155531D03*
X0093527Y0155331D03*
X0093527Y0155131D03*
X0093527Y0154931D03*
X0093527Y0154731D03*
X0093527Y0154531D03*
X0093527Y0154331D03*
X0093527Y0154131D03*
X0093527Y0153931D03*
X0093527Y0153731D03*
X0093527Y0153531D03*
X0093527Y0153331D03*
X0093527Y0153131D03*
X0093527Y0152931D03*
X0093527Y0152731D03*
X0093527Y0152531D03*
X0093527Y0152331D03*
X0093527Y0152131D03*
X0093527Y0151931D03*
X0093527Y0151731D03*
X0093527Y0151531D03*
X0093527Y0151331D03*
X0093527Y0151131D03*
X0093527Y0150931D03*
X0093527Y0150731D03*
X0093527Y0150531D03*
X0093527Y0150331D03*
X0093527Y0150131D03*
X0095527Y0146731D03*
X0095727Y0146131D03*
X0095727Y0145931D03*
X0095727Y0145731D03*
X0095727Y0145531D03*
X0095727Y0145331D03*
X0095727Y0145131D03*
X0095727Y0144931D03*
X0093527Y0142731D03*
X0093527Y0142531D03*
X0093527Y0142331D03*
X0093527Y0142131D03*
X0093527Y0141931D03*
X0093527Y0141731D03*
X0093527Y0141531D03*
X0093527Y0141331D03*
X0093527Y0141131D03*
X0093527Y0140931D03*
X0097527Y0136131D03*
X0097527Y0135931D03*
X0097527Y0135731D03*
X0097527Y0135531D03*
X0097527Y0135331D03*
X0097527Y0135131D03*
X0097527Y0134931D03*
X0097527Y0134731D03*
X0097527Y0134531D03*
X0097527Y0134331D03*
X0097527Y0134131D03*
X0097527Y0133931D03*
X0097527Y0133731D03*
X0097527Y0133531D03*
X0097527Y0133331D03*
X0097527Y0133131D03*
X0097527Y0132931D03*
X0097527Y0132731D03*
X0097527Y0132531D03*
X0097527Y0132331D03*
X0097527Y0132131D03*
X0097527Y0131931D03*
X0097527Y0131731D03*
X0097527Y0131531D03*
X0097527Y0131331D03*
X0097527Y0131131D03*
X0097527Y0130931D03*
X0097527Y0130731D03*
X0097527Y0130531D03*
X0097527Y0130331D03*
X0097527Y0130131D03*
X0097527Y0129931D03*
X0097527Y0129731D03*
X0097527Y0129531D03*
X0097527Y0129331D03*
X0097527Y0129131D03*
X0097527Y0128931D03*
X0097527Y0128731D03*
X0097527Y0128531D03*
X0097527Y0128331D03*
X0097527Y0128131D03*
X0097527Y0127931D03*
X0097527Y0127731D03*
X0097527Y0127531D03*
X0097527Y0127331D03*
X0097527Y0127131D03*
X0097527Y0126931D03*
X0097527Y0126731D03*
X0115127Y0130331D03*
X0115127Y0130531D03*
X0115127Y0130731D03*
X0093527Y0159731D03*
D27*
X0095127Y0144331D03*
X0096127Y0138131D03*
X0096327Y0137931D03*
X0115127Y0132731D03*
X0115127Y0132531D03*
X0115127Y0132331D03*
D28*
X0115127Y0133531D03*
X0115127Y0133731D03*
X0094927Y0144131D03*
X0094527Y0143731D03*
X0094327Y0143531D03*
D29*
X0094627Y0143931D03*
X0115027Y0134331D03*
X0115027Y0134131D03*
X0115027Y0133931D03*
D30*
X0115027Y0133331D03*
X0115027Y0133131D03*
X0115027Y0132931D03*
X0095827Y0138331D03*
X0095627Y0138531D03*
X0095427Y0138731D03*
X0095027Y0138931D03*
X0094827Y0139131D03*
X0094227Y0143331D03*
D31*
X0115127Y0135531D03*
D32*
X0115027Y0135331D03*
X0115027Y0135131D03*
X0115027Y0134931D03*
D33*
X0115127Y0134731D03*
X0115127Y0134531D03*
D34*
X0115027Y0130131D03*
X0115027Y0129931D03*
D35*
X0115127Y0129731D03*
X0115127Y0129531D03*
X0115127Y0129331D03*
D36*
X0115027Y0129131D03*
X0115027Y0128931D03*
D37*
X0115127Y0128731D03*
X0115127Y0128531D03*
X0115127Y0128331D03*
D38*
X0115027Y0128131D03*
D39*
X0108927Y0125731D03*
D40*
X0108927Y0125531D03*
D41*
X0109027Y0125331D03*
D42*
X0109027Y0125131D03*
D43*
X0108927Y0124931D03*
D44*
X0108927Y0124731D03*
D45*
X0373563Y0211073D03*
X0373563Y0215797D03*
D46*
X0373563Y0213435D03*
D47*
X0394854Y0259531D03*
X0394854Y0269531D03*
D48*
X0316772Y0306901D03*
D49*
X0266971Y0265084D02*
X0264569Y0265084D01*
X0265770Y0265084D02*
X0265770Y0261481D01*
X0262827Y0262082D02*
X0262227Y0261481D01*
X0261026Y0261481D01*
X0260425Y0262082D01*
X0260425Y0264484D01*
X0261026Y0265084D01*
X0262227Y0265084D01*
X0262827Y0264484D01*
X0258684Y0265084D02*
X0256282Y0265084D01*
X0256282Y0261481D01*
X0258684Y0261481D01*
X0257483Y0263283D02*
X0256282Y0263283D01*
X0254540Y0261481D02*
X0252138Y0261481D01*
X0252138Y0265084D01*
X0250397Y0265084D02*
X0247994Y0265084D01*
X0247994Y0261481D01*
X0250397Y0261481D01*
X0249195Y0263283D02*
X0247994Y0263283D01*
X0246253Y0262682D02*
X0246253Y0262082D01*
X0245652Y0261481D01*
X0244451Y0261481D01*
X0243851Y0262082D01*
X0244451Y0263283D02*
X0245652Y0263283D01*
X0246253Y0262682D01*
X0246253Y0264484D02*
X0245652Y0265084D01*
X0244451Y0265084D01*
X0243851Y0264484D01*
X0243851Y0263883D01*
X0244451Y0263283D01*
X0242109Y0260881D02*
X0239707Y0260881D01*
X0236765Y0263283D02*
X0235564Y0263283D01*
X0235564Y0265084D02*
X0237966Y0265084D01*
X0235564Y0265084D02*
X0235564Y0261481D01*
X0233822Y0261481D02*
X0231420Y0261481D01*
X0231420Y0265084D01*
X0233822Y0265084D01*
X0232621Y0263283D02*
X0231420Y0263283D01*
X0229679Y0263283D02*
X0229078Y0262682D01*
X0227277Y0262682D01*
X0227277Y0261481D02*
X0227277Y0265084D01*
X0229078Y0265084D01*
X0229679Y0264484D01*
X0229679Y0263283D01*
X0228478Y0262682D02*
X0229679Y0261481D01*
D50*
X0229252Y0183487D02*
X0232405Y0183487D01*
X0233456Y0182436D01*
X0233456Y0178232D01*
X0232405Y0177181D01*
X0229252Y0177181D01*
X0229252Y0183487D01*
X0227010Y0183487D02*
X0222807Y0183487D01*
X0224909Y0183487D02*
X0224909Y0177181D01*
X0218463Y0180334D02*
X0216361Y0180334D01*
X0216361Y0177181D02*
X0216361Y0183487D01*
X0220565Y0183487D01*
X0235698Y0183487D02*
X0237799Y0183487D01*
X0236749Y0183487D02*
X0236749Y0177181D01*
X0237799Y0177181D02*
X0235698Y0177181D01*
X0239995Y0180334D02*
X0244198Y0180334D01*
X0246440Y0180334D02*
X0248542Y0180334D01*
X0246440Y0177181D02*
X0250644Y0177181D01*
X0252886Y0178232D02*
X0253937Y0177181D01*
X0256038Y0177181D01*
X0257089Y0178232D01*
X0257089Y0179283D01*
X0256038Y0180334D01*
X0253937Y0180334D01*
X0252886Y0181385D01*
X0252886Y0182436D01*
X0253937Y0183487D01*
X0256038Y0183487D01*
X0257089Y0182436D01*
X0259331Y0183487D02*
X0262484Y0183487D01*
X0263535Y0182436D01*
X0263535Y0180334D01*
X0262484Y0179283D01*
X0259331Y0179283D01*
X0259331Y0177181D02*
X0259331Y0183487D01*
X0250644Y0183487D02*
X0246440Y0183487D01*
X0246440Y0177181D01*
D51*
X0250330Y0281996D02*
X0250728Y0282021D01*
X0251103Y0282173D01*
X0251480Y0282498D01*
X0251708Y0282875D01*
X0251808Y0283274D01*
X0251808Y0283377D01*
X0251756Y0283773D01*
X0251583Y0284150D01*
X0251230Y0284500D01*
X0250831Y0284728D01*
X0250454Y0284777D01*
X0250077Y0284728D01*
X0249676Y0284552D01*
X0249326Y0284226D01*
X0249125Y0283825D01*
X0249027Y0283450D01*
X0249103Y0283049D01*
X0249250Y0282674D01*
X0249575Y0282297D01*
X0249952Y0282072D01*
X0250330Y0281996D01*
X0255389Y0283049D02*
X0255541Y0282674D01*
X0255866Y0282297D01*
X0256265Y0282072D01*
X0256642Y0281996D01*
X0257016Y0282021D01*
X0257420Y0282173D01*
X0257798Y0282498D01*
X0257998Y0282875D01*
X0258123Y0283274D01*
X0258123Y0283377D01*
X0258071Y0283773D01*
X0257895Y0284150D01*
X0257518Y0284500D01*
X0257144Y0284728D01*
X0256767Y0284777D01*
X0256368Y0284728D01*
X0255991Y0284552D01*
X0255644Y0284226D01*
X0255416Y0283825D01*
X0255337Y0283450D01*
X0255389Y0283049D01*
X0261655Y0283450D02*
X0261704Y0283049D01*
X0261853Y0282674D01*
X0262178Y0282297D01*
X0262556Y0282072D01*
X0262930Y0281996D01*
X0263334Y0282021D01*
X0263711Y0282173D01*
X0264110Y0282498D01*
X0264311Y0282875D01*
X0264435Y0283274D01*
X0264435Y0283377D01*
X0264359Y0283773D01*
X0264186Y0284150D01*
X0263836Y0284500D01*
X0263459Y0284728D01*
X0263057Y0284777D01*
X0262680Y0284728D01*
X0262282Y0284552D01*
X0261929Y0284226D01*
X0261728Y0283825D01*
X0261655Y0283450D01*
X0260201Y0292272D02*
X0260578Y0292421D01*
X0260952Y0292747D01*
X0261177Y0293124D01*
X0261281Y0293498D01*
X0261281Y0293623D01*
X0261229Y0294000D01*
X0261053Y0294399D01*
X0260703Y0294751D01*
X0260299Y0294949D01*
X0259927Y0295025D01*
X0259550Y0294949D01*
X0259148Y0294776D01*
X0258798Y0294447D01*
X0258598Y0294076D01*
X0258500Y0293672D01*
X0258571Y0293297D01*
X0258723Y0292923D01*
X0259048Y0292519D01*
X0259425Y0292321D01*
X0259797Y0292245D01*
X0260201Y0292272D01*
X0254963Y0293498D02*
X0254963Y0293623D01*
X0254890Y0294000D01*
X0254713Y0294399D01*
X0254363Y0294751D01*
X0253986Y0294949D01*
X0253587Y0295025D01*
X0253210Y0294949D01*
X0252833Y0294776D01*
X0252459Y0294447D01*
X0252258Y0294076D01*
X0252182Y0293672D01*
X0252234Y0293297D01*
X0252383Y0292923D01*
X0252709Y0292519D01*
X0253086Y0292321D01*
X0253484Y0292245D01*
X0253861Y0292272D01*
X0254236Y0292421D01*
X0254640Y0292747D01*
X0254838Y0293124D01*
X0254963Y0293498D01*
M02*
