G75*
%MOIN*%
%OFA0B0*%
%FSLAX25Y25*%
%IPPOS*%
%LPD*%
%AMOC8*
5,1,8,0,0,1.08239X$1,22.5*
%
%ADD10C,0.01100*%
%ADD11C,0.00600*%
%ADD12R,0.00025X0.00025*%
%ADD13R,0.00050X0.00025*%
%ADD14R,0.00075X0.00025*%
%ADD15R,0.00100X0.00025*%
%ADD16R,0.00225X0.00025*%
%ADD17R,0.00100X0.00025*%
%ADD18R,0.00350X0.00025*%
%ADD19R,0.00150X0.00025*%
%ADD20R,0.00425X0.00025*%
%ADD21R,0.00175X0.00025*%
%ADD22R,0.00500X0.00025*%
%ADD23R,0.00200X0.00025*%
%ADD24R,0.00550X0.00025*%
%ADD25R,0.00025X0.00025*%
%ADD26R,0.00200X0.00025*%
%ADD27R,0.00600X0.00025*%
%ADD28R,0.00250X0.00025*%
%ADD29R,0.00675X0.00025*%
%ADD30R,0.00275X0.00025*%
%ADD31R,0.00725X0.00025*%
%ADD32R,0.00050X0.00025*%
%ADD33R,0.00325X0.00025*%
%ADD34R,0.00775X0.00025*%
%ADD35R,0.00075X0.00025*%
%ADD36R,0.00325X0.00025*%
%ADD37R,0.00825X0.00025*%
%ADD38R,0.00075X0.00025*%
%ADD39R,0.00450X0.00025*%
%ADD40R,0.01200X0.00025*%
%ADD41R,0.00275X0.00025*%
%ADD42R,0.00125X0.00025*%
%ADD43R,0.00125X0.00025*%
%ADD44R,0.00575X0.00025*%
%ADD45R,0.00600X0.00025*%
%ADD46R,0.00025X0.00025*%
%ADD47R,0.01225X0.00025*%
%ADD48R,0.00325X0.00025*%
%ADD49R,0.00150X0.00025*%
%ADD50R,0.00175X0.00025*%
%ADD51R,0.00650X0.00025*%
%ADD52R,0.00825X0.00025*%
%ADD53R,0.01225X0.00025*%
%ADD54R,0.00650X0.00025*%
%ADD55R,0.00350X0.00025*%
%ADD56R,0.00175X0.00025*%
%ADD57R,0.00975X0.00025*%
%ADD58R,0.01050X0.00025*%
%ADD59R,0.01250X0.00025*%
%ADD60R,0.01000X0.00025*%
%ADD61R,0.00400X0.00025*%
%ADD62R,0.00225X0.00025*%
%ADD63R,0.01175X0.00025*%
%ADD64R,0.00125X0.00025*%
%ADD65R,0.01325X0.00025*%
%ADD66R,0.00475X0.00025*%
%ADD67R,0.01025X0.00025*%
%ADD68R,0.01275X0.00025*%
%ADD69R,0.00375X0.00025*%
%ADD70R,0.02750X0.00025*%
%ADD71R,0.00900X0.00025*%
%ADD72R,0.01100X0.00025*%
%ADD73R,0.01400X0.00025*%
%ADD74R,0.00700X0.00025*%
%ADD75R,0.02775X0.00025*%
%ADD76R,0.00950X0.00025*%
%ADD77R,0.01175X0.00025*%
%ADD78R,0.01600X0.00025*%
%ADD79R,0.00725X0.00025*%
%ADD80R,0.02850X0.00025*%
%ADD81R,0.02825X0.00025*%
%ADD82R,0.00750X0.00025*%
%ADD83R,0.02900X0.00025*%
%ADD84R,0.00075X0.00025*%
%ADD85R,0.02850X0.00025*%
%ADD86R,0.00800X0.00025*%
%ADD87R,0.03000X0.00025*%
%ADD88R,0.00250X0.00025*%
%ADD89R,0.00850X0.00025*%
%ADD90R,0.04600X0.00025*%
%ADD91R,0.00875X0.00025*%
%ADD92R,0.04575X0.00025*%
%ADD93R,0.00875X0.00025*%
%ADD94R,0.04550X0.00025*%
%ADD95R,0.00775X0.00025*%
%ADD96R,0.00900X0.00025*%
%ADD97R,0.04475X0.00025*%
%ADD98R,0.00800X0.00025*%
%ADD99R,0.04425X0.00025*%
%ADD100R,0.00825X0.00025*%
%ADD101R,0.00175X0.00025*%
%ADD102R,0.02825X0.00025*%
%ADD103R,0.00925X0.00025*%
%ADD104R,0.04400X0.00025*%
%ADD105R,0.02800X0.00025*%
%ADD106R,0.00950X0.00025*%
%ADD107R,0.04350X0.00025*%
%ADD108R,0.00850X0.00025*%
%ADD109R,0.00750X0.00025*%
%ADD110R,0.00450X0.00025*%
%ADD111R,0.04000X0.00025*%
%ADD112R,0.04250X0.00025*%
%ADD113R,0.01025X0.00025*%
%ADD114R,0.03550X0.00025*%
%ADD115R,0.04150X0.00025*%
%ADD116R,0.01150X0.00025*%
%ADD117R,0.01075X0.00025*%
%ADD118R,0.03525X0.00025*%
%ADD119R,0.03975X0.00025*%
%ADD120R,0.00925X0.00025*%
%ADD121R,0.01275X0.00025*%
%ADD122R,0.01125X0.00025*%
%ADD123R,0.03525X0.00025*%
%ADD124R,0.03800X0.00025*%
%ADD125R,0.02425X0.00025*%
%ADD126R,0.03475X0.00025*%
%ADD127R,0.02525X0.00025*%
%ADD128R,0.02475X0.00025*%
%ADD129R,0.01325X0.00025*%
%ADD130R,0.03475X0.00025*%
%ADD131R,0.02275X0.00025*%
%ADD132R,0.02625X0.00025*%
%ADD133R,0.01575X0.00025*%
%ADD134R,0.00300X0.00025*%
%ADD135R,0.02750X0.00025*%
%ADD136R,0.00625X0.00025*%
%ADD137R,0.01950X0.00025*%
%ADD138R,0.04350X0.00025*%
%ADD139R,0.03050X0.00025*%
%ADD140R,0.01925X0.00025*%
%ADD141R,0.04325X0.00025*%
%ADD142R,0.02925X0.00025*%
%ADD143R,0.01975X0.00025*%
%ADD144R,0.04275X0.00025*%
%ADD145R,0.02925X0.00025*%
%ADD146R,0.00225X0.00025*%
%ADD147R,0.02100X0.00025*%
%ADD148R,0.04200X0.00025*%
%ADD149R,0.03250X0.00025*%
%ADD150R,0.02200X0.00025*%
%ADD151R,0.04150X0.00025*%
%ADD152R,0.03200X0.00025*%
%ADD153R,0.02450X0.00025*%
%ADD154R,0.04100X0.00025*%
%ADD155R,0.03200X0.00025*%
%ADD156R,0.03125X0.00025*%
%ADD157R,0.03175X0.00025*%
%ADD158R,0.03175X0.00025*%
%ADD159R,0.03750X0.00025*%
%ADD160R,0.03150X0.00025*%
%ADD161R,0.03225X0.00025*%
%ADD162R,0.03750X0.00025*%
%ADD163R,0.03150X0.00025*%
%ADD164R,0.02725X0.00025*%
%ADD165R,0.03275X0.00025*%
%ADD166R,0.02700X0.00025*%
%ADD167R,0.01825X0.00025*%
%ADD168R,0.01225X0.00025*%
%ADD169R,0.03300X0.00025*%
%ADD170R,0.02675X0.00025*%
%ADD171R,0.03725X0.00025*%
%ADD172R,0.02675X0.00025*%
%ADD173R,0.01075X0.00025*%
%ADD174R,0.01000X0.00025*%
%ADD175R,0.02775X0.00025*%
%ADD176R,0.00525X0.00025*%
%ADD177R,0.03775X0.00025*%
%ADD178R,0.02925X0.00025*%
%ADD179R,0.00300X0.00025*%
%ADD180R,0.00425X0.00025*%
%ADD181R,0.03775X0.00025*%
%ADD182R,0.02975X0.00025*%
%ADD183R,0.00425X0.00025*%
%ADD184R,0.00575X0.00025*%
%ADD185R,0.03100X0.00025*%
%ADD186R,0.01025X0.00025*%
%ADD187R,0.00675X0.00025*%
%ADD188R,0.02800X0.00025*%
%ADD189R,0.03225X0.00025*%
%ADD190R,0.01750X0.00025*%
%ADD191R,0.03275X0.00025*%
%ADD192R,0.00725X0.00025*%
%ADD193R,0.01575X0.00025*%
%ADD194R,0.03350X0.00025*%
%ADD195R,0.00700X0.00025*%
%ADD196R,0.01550X0.00025*%
%ADD197R,0.01575X0.00025*%
%ADD198R,0.01600X0.00025*%
%ADD199R,0.01500X0.00025*%
%ADD200R,0.01475X0.00025*%
%ADD201R,0.01550X0.00025*%
%ADD202R,0.00625X0.00025*%
%ADD203R,0.01475X0.00025*%
%ADD204R,0.01425X0.00025*%
%ADD205R,0.01450X0.00025*%
%ADD206R,0.01475X0.00025*%
%ADD207R,0.01425X0.00025*%
%ADD208R,0.01425X0.00025*%
%ADD209R,0.00675X0.00025*%
%ADD210R,0.01700X0.00025*%
%ADD211R,0.01425X0.00025*%
%ADD212R,0.00675X0.00025*%
%ADD213R,0.01450X0.00025*%
%ADD214R,0.01650X0.00025*%
%ADD215R,0.01400X0.00025*%
%ADD216R,0.01625X0.00025*%
%ADD217R,0.01500X0.00025*%
%ADD218R,0.00025X0.00025*%
%ADD219R,0.00625X0.00025*%
%ADD220R,0.01375X0.00025*%
%ADD221R,0.00825X0.00025*%
%ADD222R,0.01375X0.00025*%
%ADD223R,0.00625X0.00025*%
%ADD224R,0.01375X0.00025*%
%ADD225R,0.00775X0.00025*%
%ADD226R,0.01350X0.00025*%
%ADD227R,0.01350X0.00025*%
%ADD228R,0.01025X0.00025*%
%ADD229R,0.00575X0.00025*%
%ADD230R,0.00550X0.00025*%
%ADD231R,0.00475X0.00025*%
%ADD232R,0.01050X0.00025*%
%ADD233R,0.00525X0.00025*%
%ADD234R,0.00500X0.00025*%
%ADD235R,0.01325X0.00025*%
%ADD236R,0.01525X0.00025*%
%ADD237R,0.01300X0.00025*%
%ADD238R,0.01300X0.00025*%
%ADD239R,0.00275X0.00025*%
%ADD240R,0.01075X0.00025*%
%ADD241R,0.00275X0.00025*%
%ADD242R,0.01075X0.00025*%
%ADD243R,0.01675X0.00025*%
%ADD244R,0.01725X0.00025*%
%ADD245R,0.00225X0.00025*%
%ADD246R,0.01800X0.00025*%
%ADD247R,0.01100X0.00025*%
%ADD248R,0.01875X0.00025*%
%ADD249R,0.01325X0.00025*%
%ADD250R,0.01900X0.00025*%
%ADD251R,0.02000X0.00025*%
%ADD252R,0.00525X0.00025*%
%ADD253R,0.01125X0.00025*%
%ADD254R,0.00125X0.00025*%
%ADD255R,0.02725X0.00025*%
%ADD256R,0.01125X0.00025*%
%ADD257R,0.02725X0.00025*%
%ADD258R,0.01150X0.00025*%
%ADD259R,0.02675X0.00025*%
%ADD260R,0.02650X0.00025*%
%ADD261R,0.02650X0.00025*%
%ADD262R,0.01175X0.00025*%
%ADD263R,0.02600X0.00025*%
%ADD264R,0.02600X0.00025*%
%ADD265R,0.01200X0.00025*%
%ADD266R,0.01225X0.00025*%
%ADD267R,0.00375X0.00025*%
%ADD268R,0.02550X0.00025*%
%ADD269R,0.01275X0.00025*%
%ADD270R,0.02550X0.00025*%
%ADD271R,0.00400X0.00025*%
%ADD272R,0.02525X0.00025*%
%ADD273R,0.00425X0.00025*%
%ADD274R,0.02500X0.00025*%
%ADD275R,0.02475X0.00025*%
%ADD276R,0.01525X0.00025*%
%ADD277R,0.02450X0.00025*%
%ADD278R,0.01525X0.00025*%
%ADD279R,0.02425X0.00025*%
%ADD280R,0.01625X0.00025*%
%ADD281R,0.02425X0.00025*%
%ADD282R,0.02400X0.00025*%
%ADD283R,0.01475X0.00025*%
%ADD284R,0.02400X0.00025*%
%ADD285R,0.01575X0.00025*%
%ADD286R,0.02500X0.00025*%
%ADD287R,0.03050X0.00025*%
%ADD288R,0.03075X0.00025*%
%ADD289R,0.02275X0.00025*%
%ADD290R,0.03075X0.00025*%
%ADD291R,0.03075X0.00025*%
%ADD292R,0.02325X0.00025*%
%ADD293R,0.02525X0.00025*%
%ADD294R,0.02350X0.00025*%
%ADD295R,0.03100X0.00025*%
%ADD296R,0.00475X0.00025*%
%ADD297R,0.03125X0.00025*%
%ADD298R,0.03125X0.00025*%
%ADD299R,0.02875X0.00025*%
%ADD300R,0.02625X0.00025*%
%ADD301R,0.02875X0.00025*%
%ADD302R,0.03025X0.00025*%
%ADD303R,0.00575X0.00025*%
%ADD304R,0.03225X0.00025*%
%ADD305R,0.03075X0.00025*%
%ADD306R,0.03300X0.00025*%
%ADD307R,0.03125X0.00025*%
%ADD308R,0.03325X0.00025*%
%ADD309R,0.03375X0.00025*%
%ADD310R,0.03000X0.00025*%
%ADD311R,0.03400X0.00025*%
%ADD312R,0.03400X0.00025*%
%ADD313R,0.03425X0.00025*%
%ADD314R,0.03250X0.00025*%
%ADD315R,0.02950X0.00025*%
%ADD316R,0.03425X0.00025*%
%ADD317R,0.03275X0.00025*%
%ADD318R,0.03450X0.00025*%
%ADD319R,0.02900X0.00025*%
%ADD320R,0.03425X0.00025*%
%ADD321R,0.03325X0.00025*%
%ADD322R,0.03350X0.00025*%
%ADD323R,0.03375X0.00025*%
%ADD324R,0.03500X0.00025*%
%ADD325R,0.03325X0.00025*%
%ADD326R,0.03550X0.00025*%
%ADD327R,0.03625X0.00025*%
%ADD328R,0.02725X0.00025*%
%ADD329R,0.03650X0.00025*%
%ADD330R,0.02700X0.00025*%
%ADD331R,0.01625X0.00025*%
%ADD332R,0.02675X0.00025*%
%ADD333R,0.01675X0.00025*%
%ADD334R,0.03775X0.00025*%
%ADD335R,0.01725X0.00025*%
%ADD336R,0.03825X0.00025*%
%ADD337R,0.01775X0.00025*%
%ADD338R,0.03875X0.00025*%
%ADD339R,0.02925X0.00025*%
%ADD340R,0.01850X0.00025*%
%ADD341R,0.03925X0.00025*%
%ADD342R,0.05875X0.00025*%
%ADD343R,0.02575X0.00025*%
%ADD344R,0.05925X0.00025*%
%ADD345R,0.02575X0.00025*%
%ADD346R,0.06000X0.00025*%
%ADD347R,0.02575X0.00025*%
%ADD348R,0.06025X0.00025*%
%ADD349R,0.06075X0.00025*%
%ADD350R,0.06125X0.00025*%
%ADD351R,0.06200X0.00025*%
%ADD352R,0.06250X0.00025*%
%ADD353R,0.06300X0.00025*%
%ADD354R,0.06350X0.00025*%
%ADD355R,0.02575X0.00025*%
%ADD356R,0.06425X0.00025*%
%ADD357R,0.06450X0.00025*%
%ADD358R,0.02475X0.00025*%
%ADD359R,0.06500X0.00025*%
%ADD360R,0.06550X0.00025*%
%ADD361R,0.06625X0.00025*%
%ADD362R,0.06700X0.00025*%
%ADD363R,0.06775X0.00025*%
%ADD364R,0.02375X0.00025*%
%ADD365R,0.06850X0.00025*%
%ADD366R,0.02375X0.00025*%
%ADD367R,0.06900X0.00025*%
%ADD368R,0.07000X0.00025*%
%ADD369R,0.02350X0.00025*%
%ADD370R,0.02325X0.00025*%
%ADD371R,0.07125X0.00025*%
%ADD372R,0.02300X0.00025*%
%ADD373R,0.09525X0.00025*%
%ADD374R,0.09550X0.00025*%
%ADD375R,0.02250X0.00025*%
%ADD376R,0.09550X0.00025*%
%ADD377R,0.02225X0.00025*%
%ADD378R,0.09600X0.00025*%
%ADD379R,0.02225X0.00025*%
%ADD380R,0.09600X0.00025*%
%ADD381R,0.09625X0.00025*%
%ADD382R,0.02175X0.00025*%
%ADD383R,0.09625X0.00025*%
%ADD384R,0.02150X0.00025*%
%ADD385R,0.09675X0.00025*%
%ADD386R,0.02150X0.00025*%
%ADD387R,0.09675X0.00025*%
%ADD388R,0.02125X0.00025*%
%ADD389R,0.09700X0.00025*%
%ADD390R,0.02100X0.00025*%
%ADD391R,0.09725X0.00025*%
%ADD392R,0.02075X0.00025*%
%ADD393R,0.09750X0.00025*%
%ADD394R,0.02050X0.00025*%
%ADD395R,0.09775X0.00025*%
%ADD396R,0.02050X0.00025*%
%ADD397R,0.09775X0.00025*%
%ADD398R,0.09825X0.00025*%
%ADD399R,0.09825X0.00025*%
%ADD400R,0.09875X0.00025*%
%ADD401R,0.09900X0.00025*%
%ADD402R,0.09900X0.00025*%
%ADD403R,0.09950X0.00025*%
%ADD404R,0.09975X0.00025*%
%ADD405R,0.10025X0.00025*%
%ADD406R,0.10075X0.00025*%
%ADD407R,0.10100X0.00025*%
%ADD408R,0.02125X0.00025*%
%ADD409R,0.10125X0.00025*%
%ADD410R,0.02125X0.00025*%
%ADD411R,0.10175X0.00025*%
%ADD412R,0.10200X0.00025*%
%ADD413R,0.02175X0.00025*%
%ADD414R,0.10275X0.00025*%
%ADD415R,0.10325X0.00025*%
%ADD416R,0.10400X0.00025*%
%ADD417R,0.02300X0.00025*%
%ADD418R,0.12725X0.00025*%
%ADD419R,0.12725X0.00025*%
%ADD420R,0.01800X0.00025*%
%ADD421R,0.02025X0.00025*%
%ADD422R,0.12725X0.00025*%
%ADD423R,0.15225X0.00025*%
%ADD424R,0.15275X0.00025*%
%ADD425R,0.15325X0.00025*%
%ADD426R,0.15400X0.00025*%
%ADD427R,0.15425X0.00025*%
%ADD428R,0.15475X0.00025*%
%ADD429R,0.15500X0.00025*%
%ADD430R,0.15550X0.00025*%
%ADD431R,0.15600X0.00025*%
%ADD432R,0.15625X0.00025*%
%ADD433R,0.15650X0.00025*%
%ADD434R,0.15675X0.00025*%
%ADD435R,0.15750X0.00025*%
%ADD436R,0.15775X0.00025*%
%ADD437R,0.15800X0.00025*%
%ADD438R,0.15800X0.00025*%
%ADD439R,0.15825X0.00025*%
%ADD440R,0.15875X0.00025*%
%ADD441R,0.15900X0.00025*%
%ADD442R,0.15925X0.00025*%
%ADD443R,0.15925X0.00025*%
%ADD444R,0.03700X0.00025*%
%ADD445R,0.12250X0.00025*%
%ADD446R,0.12250X0.00025*%
%ADD447R,0.03725X0.00025*%
%ADD448R,0.12225X0.00025*%
%ADD449R,0.03775X0.00025*%
%ADD450R,0.02025X0.00025*%
%ADD451R,0.02075X0.00025*%
%ADD452R,0.02075X0.00025*%
%ADD453R,0.12225X0.00025*%
%ADD454R,0.12200X0.00025*%
%ADD455R,0.12225X0.00025*%
%ADD456R,0.12175X0.00025*%
%ADD457R,0.12175X0.00025*%
%ADD458R,0.02175X0.00025*%
%ADD459R,0.09675X0.00025*%
%ADD460R,0.02200X0.00025*%
%ADD461R,0.00325X0.00025*%
%ADD462R,0.02225X0.00025*%
%ADD463R,0.09375X0.00025*%
%ADD464R,0.09175X0.00025*%
%ADD465R,0.00525X0.00025*%
%ADD466R,0.00975X0.00025*%
%ADD467R,0.08975X0.00025*%
%ADD468R,0.08775X0.00025*%
%ADD469R,0.08225X0.00025*%
%ADD470R,0.01275X0.00025*%
%ADD471R,0.00925X0.00025*%
%ADD472R,0.07000X0.00025*%
%ADD473R,0.06700X0.00025*%
%ADD474R,0.06400X0.00025*%
%ADD475R,0.06275X0.00025*%
%ADD476R,0.06150X0.00025*%
%ADD477R,0.06050X0.00025*%
%ADD478R,0.05950X0.00025*%
%ADD479R,0.05875X0.00025*%
%ADD480R,0.00975X0.00025*%
%ADD481R,0.03625X0.00025*%
%ADD482R,0.05775X0.00025*%
%ADD483R,0.03950X0.00025*%
%ADD484R,0.05675X0.00025*%
%ADD485R,0.04225X0.00025*%
%ADD486R,0.05600X0.00025*%
%ADD487R,0.04325X0.00025*%
%ADD488R,0.05550X0.00025*%
%ADD489R,0.04425X0.00025*%
%ADD490R,0.05475X0.00025*%
%ADD491R,0.04500X0.00025*%
%ADD492R,0.05400X0.00025*%
%ADD493R,0.00925X0.00025*%
%ADD494R,0.05300X0.00025*%
%ADD495R,0.04625X0.00025*%
%ADD496R,0.05225X0.00025*%
%ADD497R,0.04675X0.00025*%
%ADD498R,0.05175X0.00025*%
%ADD499R,0.04725X0.00025*%
%ADD500R,0.05100X0.00025*%
%ADD501R,0.04750X0.00025*%
%ADD502R,0.05025X0.00025*%
%ADD503R,0.04800X0.00025*%
%ADD504R,0.04975X0.00025*%
%ADD505R,0.04825X0.00025*%
%ADD506R,0.04900X0.00025*%
%ADD507R,0.04850X0.00025*%
%ADD508R,0.04875X0.00025*%
%ADD509R,0.04875X0.00025*%
%ADD510R,0.04675X0.00025*%
%ADD511R,0.01525X0.00025*%
%ADD512R,0.04925X0.00025*%
%ADD513R,0.04525X0.00025*%
%ADD514R,0.04950X0.00025*%
%ADD515R,0.04475X0.00025*%
%ADD516R,0.00375X0.00025*%
%ADD517R,0.04950X0.00025*%
%ADD518R,0.04425X0.00025*%
%ADD519R,0.04975X0.00025*%
%ADD520R,0.04500X0.00025*%
%ADD521R,0.00375X0.00025*%
%ADD522R,0.05000X0.00025*%
%ADD523R,0.01650X0.00025*%
%ADD524R,0.05000X0.00025*%
%ADD525R,0.05125X0.00025*%
%ADD526R,0.00725X0.00025*%
%ADD527R,0.05025X0.00025*%
%ADD528R,0.01125X0.00025*%
%ADD529R,0.05050X0.00025*%
%ADD530R,0.04925X0.00025*%
%ADD531R,0.05050X0.00025*%
%ADD532R,0.04825X0.00025*%
%ADD533R,0.03575X0.00025*%
%ADD534R,0.04650X0.00025*%
%ADD535R,0.04575X0.00025*%
%ADD536R,0.04450X0.00025*%
%ADD537R,0.04375X0.00025*%
%ADD538R,0.00975X0.00025*%
%ADD539R,0.04175X0.00025*%
%ADD540R,0.04100X0.00025*%
%ADD541R,0.04025X0.00025*%
%ADD542R,0.03175X0.00025*%
%ADD543R,0.03175X0.00025*%
%ADD544R,0.03700X0.00025*%
%ADD545R,0.03625X0.00025*%
%ADD546R,0.00875X0.00025*%
%ADD547R,0.02825X0.00025*%
%ADD548R,0.03575X0.00025*%
%ADD549R,0.00875X0.00025*%
%ADD550R,0.01175X0.00025*%
%ADD551R,0.03500X0.00025*%
%ADD552R,0.01875X0.00025*%
%ADD553R,0.01950X0.00025*%
%ADD554R,0.01775X0.00025*%
%ADD555R,0.03275X0.00025*%
%ADD556R,0.02125X0.00025*%
%ADD557R,0.02325X0.00025*%
%ADD558R,0.02975X0.00025*%
%ADD559R,0.01375X0.00025*%
%ADD560R,0.02375X0.00025*%
%ADD561R,0.02025X0.00025*%
%ADD562R,0.02825X0.00025*%
%ADD563R,0.03575X0.00025*%
%ADD564R,0.02025X0.00025*%
%ADD565R,0.04200X0.00025*%
%ADD566R,0.04400X0.00025*%
%ADD567R,0.02250X0.00025*%
%ADD568R,0.01925X0.00025*%
%ADD569R,0.02175X0.00025*%
%ADD570R,0.02775X0.00025*%
%ADD571R,0.04575X0.00025*%
%ADD572R,0.01825X0.00025*%
%ADD573R,0.04525X0.00025*%
%ADD574R,0.01775X0.00025*%
%ADD575R,0.04375X0.00025*%
%ADD576R,0.04325X0.00025*%
%ADD577R,0.04050X0.00025*%
%ADD578R,0.02775X0.00025*%
%ADD579R,0.03925X0.00025*%
%ADD580R,0.03875X0.00025*%
%ADD581R,0.03800X0.00025*%
%ADD582R,0.03675X0.00025*%
%ADD583R,0.03625X0.00025*%
%ADD584R,0.03600X0.00025*%
%ADD585R,0.02875X0.00025*%
%ADD586R,0.03475X0.00025*%
%ADD587R,0.03375X0.00025*%
%ADD588R,0.03025X0.00025*%
%ADD589R,0.02950X0.00025*%
%ADD590R,0.02325X0.00025*%
%ADD591R,0.01875X0.00025*%
%ADD592R,0.01925X0.00025*%
%ADD593R,0.01250X0.00025*%
%ADD594R,0.01900X0.00025*%
%ADD595R,0.01875X0.00025*%
%ADD596R,0.02075X0.00025*%
%ADD597R,0.01700X0.00025*%
%ADD598R,0.01675X0.00025*%
%ADD599R,0.01725X0.00025*%
%ADD600R,0.01750X0.00025*%
%ADD601R,0.03925X0.00025*%
%ADD602R,0.01850X0.00025*%
%ADD603R,0.04775X0.00025*%
%ADD604R,0.02525X0.00025*%
%ADD605R,0.01975X0.00025*%
%ADD606R,0.02475X0.00025*%
%ADD607R,0.05025X0.00025*%
%ADD608R,0.05100X0.00025*%
%ADD609R,0.05175X0.00025*%
%ADD610R,0.05275X0.00025*%
%ADD611R,0.05350X0.00025*%
%ADD612R,0.05375X0.00025*%
%ADD613R,0.05075X0.00025*%
%ADD614R,0.04725X0.00025*%
%ADD615R,0.02000X0.00025*%
%ADD616R,0.04325X0.00025*%
%ADD617R,0.01975X0.00025*%
%ADD618R,0.04225X0.00025*%
%ADD619R,0.04125X0.00025*%
%ADD620R,0.04050X0.00025*%
%ADD621R,0.03975X0.00025*%
%ADD622R,0.03325X0.00025*%
%ADD623R,0.02875X0.00025*%
%ADD624R,0.01825X0.00025*%
%ADD625R,0.01825X0.00025*%
%ADD626R,0.02275X0.00025*%
%ADD627R,0.00475X0.00025*%
%ADD628R,0.05175X0.00025*%
%ADD629R,0.05325X0.00025*%
%ADD630R,0.05975X0.00025*%
%ADD631R,0.01725X0.00025*%
%ADD632R,0.06000X0.00025*%
%ADD633R,0.04125X0.00025*%
%ADD634R,0.01675X0.00025*%
%ADD635R,0.00025X0.00025*%
%ADD636R,0.01625X0.00025*%
%ADD637R,0.01775X0.00025*%
%ADD638R,0.04175X0.00025*%
%ADD639C,0.01200*%
%ADD640C,0.03000*%
%ADD641C,0.00800*%
%ADD642R,0.69000X0.57000*%
D10*
X0212673Y0177797D02*
X0212673Y0182718D01*
X0215625Y0182718D01*
X0216609Y0181734D01*
X0216609Y0179765D01*
X0215625Y0178781D01*
X0212673Y0178781D01*
X0212673Y0177797D02*
X0213657Y0176813D01*
X0214641Y0176813D01*
X0221981Y0178781D02*
X0221981Y0182718D01*
X0221981Y0180750D02*
X0220012Y0182718D01*
X0219028Y0182718D01*
X0224489Y0181734D02*
X0225474Y0182718D01*
X0227442Y0182718D01*
X0228426Y0181734D01*
X0228426Y0179765D01*
X0227442Y0178781D01*
X0225474Y0178781D01*
X0224489Y0179765D01*
X0224489Y0181734D01*
X0230665Y0179765D02*
X0230665Y0178781D01*
X0231649Y0178781D01*
X0231649Y0179765D01*
X0230665Y0179765D01*
X0234068Y0182718D02*
X0235052Y0182718D01*
X0237020Y0180750D01*
X0237020Y0182718D02*
X0237020Y0178781D01*
X0239529Y0179765D02*
X0239529Y0181734D01*
X0240513Y0182718D01*
X0242481Y0182718D01*
X0243466Y0181734D01*
X0243466Y0179765D01*
X0242481Y0178781D01*
X0240513Y0178781D01*
X0239529Y0179765D01*
X0245794Y0178781D02*
X0246778Y0179765D01*
X0246778Y0183702D01*
X0245794Y0182718D02*
X0247763Y0182718D01*
X0251075Y0182718D02*
X0251075Y0178781D01*
X0250091Y0178781D02*
X0252060Y0178781D01*
X0254568Y0178781D02*
X0254568Y0181734D01*
X0255553Y0182718D01*
X0258505Y0182718D01*
X0258505Y0178781D01*
X0261014Y0179765D02*
X0261014Y0181734D01*
X0261998Y0182718D01*
X0263966Y0182718D01*
X0264951Y0181734D01*
X0264951Y0179765D01*
X0263966Y0178781D01*
X0261998Y0178781D01*
X0261014Y0179765D01*
X0267459Y0178781D02*
X0267459Y0184686D01*
X0269428Y0182718D01*
X0271396Y0184686D01*
X0271396Y0178781D01*
X0273905Y0178781D02*
X0276857Y0178781D01*
X0277842Y0179765D01*
X0277842Y0182718D01*
X0280350Y0182718D02*
X0283303Y0182718D01*
X0284287Y0181734D01*
X0284287Y0179765D01*
X0283303Y0178781D01*
X0280350Y0178781D01*
X0280350Y0177797D02*
X0280350Y0182718D01*
X0286706Y0182718D02*
X0287690Y0182718D01*
X0289658Y0180750D01*
X0289658Y0182718D02*
X0289658Y0178781D01*
X0292167Y0180750D02*
X0296104Y0180750D01*
X0296104Y0181734D02*
X0295120Y0182718D01*
X0293151Y0182718D01*
X0292167Y0181734D01*
X0292167Y0180750D01*
X0293151Y0178781D02*
X0295120Y0178781D01*
X0296104Y0179765D01*
X0296104Y0181734D01*
X0298613Y0181734D02*
X0299597Y0182718D01*
X0302549Y0182718D01*
X0302549Y0178781D01*
X0305058Y0178781D02*
X0308995Y0178781D01*
X0308995Y0184686D01*
X0305058Y0184686D01*
X0307026Y0181734D02*
X0308995Y0181734D01*
X0311504Y0181734D02*
X0312488Y0182718D01*
X0315440Y0182718D01*
X0315440Y0178781D01*
X0317949Y0180750D02*
X0321886Y0180750D01*
X0321886Y0181734D02*
X0320902Y0182718D01*
X0318933Y0182718D01*
X0317949Y0181734D01*
X0317949Y0180750D01*
X0318933Y0178781D02*
X0320902Y0178781D01*
X0321886Y0179765D01*
X0321886Y0181734D01*
X0324395Y0181734D02*
X0324395Y0179765D01*
X0325379Y0178781D01*
X0328331Y0178781D01*
X0328331Y0176813D02*
X0328331Y0182718D01*
X0325379Y0182718D01*
X0324395Y0181734D01*
X0330840Y0183702D02*
X0331824Y0184686D01*
X0333793Y0184686D01*
X0334777Y0183702D01*
X0334777Y0179765D01*
X0333793Y0178781D01*
X0331824Y0178781D01*
X0330840Y0179765D01*
X0330840Y0183702D01*
X0311504Y0181734D02*
X0311504Y0178781D01*
X0298613Y0178781D02*
X0298613Y0181734D01*
X0282319Y0176813D02*
X0281335Y0176813D01*
X0280350Y0177797D01*
X0275873Y0176813D02*
X0274889Y0176813D01*
X0273905Y0177797D01*
X0273905Y0182718D01*
X0252060Y0182718D02*
X0251075Y0182718D01*
X0251075Y0184686D02*
X0251075Y0185671D01*
X0273115Y0310315D02*
X0274099Y0310315D01*
X0273115Y0310315D02*
X0272130Y0311299D01*
X0272130Y0316220D01*
X0272130Y0312283D02*
X0275083Y0312283D01*
X0276067Y0313267D01*
X0276067Y0316220D01*
X0278576Y0316220D02*
X0281528Y0316220D01*
X0282513Y0315236D01*
X0282513Y0313267D01*
X0281528Y0312283D01*
X0278576Y0312283D01*
X0278576Y0311299D02*
X0278576Y0316220D01*
X0278576Y0311299D02*
X0279560Y0310315D01*
X0280544Y0310315D01*
X0284931Y0316220D02*
X0285916Y0316220D01*
X0287884Y0314251D01*
X0287884Y0312283D02*
X0287884Y0316220D01*
X0290393Y0315236D02*
X0290393Y0314251D01*
X0294329Y0314251D01*
X0294329Y0313267D02*
X0294329Y0315236D01*
X0293345Y0316220D01*
X0291377Y0316220D01*
X0290393Y0315236D01*
X0291377Y0312283D02*
X0293345Y0312283D01*
X0294329Y0313267D01*
X0296838Y0312283D02*
X0296838Y0315236D01*
X0297822Y0316220D01*
X0300775Y0316220D01*
X0300775Y0312283D01*
X0303284Y0314251D02*
X0307220Y0314251D01*
X0307220Y0313267D02*
X0307220Y0315236D01*
X0306236Y0316220D01*
X0304268Y0316220D01*
X0303284Y0315236D01*
X0303284Y0314251D01*
X0304268Y0312283D02*
X0306236Y0312283D01*
X0307220Y0313267D01*
X0316175Y0313267D02*
X0317159Y0314251D01*
X0319127Y0314251D01*
X0320111Y0315236D01*
X0319127Y0316220D01*
X0316175Y0316220D01*
X0316175Y0313267D02*
X0317159Y0312283D01*
X0320111Y0312283D01*
X0322620Y0313267D02*
X0323604Y0314251D01*
X0325573Y0314251D01*
X0326557Y0315236D01*
X0325573Y0316220D01*
X0322620Y0316220D01*
X0322620Y0313267D02*
X0323604Y0312283D01*
X0326557Y0312283D01*
X0329066Y0314251D02*
X0333002Y0314251D01*
X0333002Y0313267D02*
X0333002Y0315236D01*
X0332018Y0316220D01*
X0330050Y0316220D01*
X0329066Y0315236D01*
X0329066Y0314251D01*
X0330050Y0312283D02*
X0332018Y0312283D01*
X0333002Y0313267D01*
X0335331Y0312283D02*
X0337299Y0312283D01*
X0336315Y0312283D02*
X0336315Y0318188D01*
X0337299Y0318188D01*
X0339808Y0315236D02*
X0339808Y0314251D01*
X0343745Y0314251D01*
X0343745Y0313267D02*
X0343745Y0315236D01*
X0342761Y0316220D01*
X0340792Y0316220D01*
X0339808Y0315236D01*
X0340792Y0312283D02*
X0342761Y0312283D01*
X0343745Y0313267D01*
X0346164Y0316220D02*
X0347148Y0316220D01*
X0349116Y0314251D01*
X0349116Y0312283D02*
X0349116Y0316220D01*
X0352429Y0316220D02*
X0352429Y0312283D01*
X0353413Y0312283D02*
X0351445Y0312283D01*
X0352429Y0316220D02*
X0353413Y0316220D01*
X0352429Y0318188D02*
X0352429Y0319172D01*
X0355922Y0316220D02*
X0355922Y0313267D01*
X0356906Y0312283D01*
X0357890Y0313267D01*
X0358874Y0312283D01*
X0359859Y0313267D01*
X0359859Y0316220D01*
X0263176Y0316220D02*
X0263176Y0312283D01*
X0261208Y0312283D02*
X0261208Y0315236D01*
X0260224Y0316220D01*
X0259239Y0315236D01*
X0259239Y0312283D01*
X0256731Y0313267D02*
X0255747Y0312283D01*
X0253778Y0312283D01*
X0252794Y0313267D01*
X0252794Y0315236D01*
X0253778Y0316220D01*
X0255747Y0316220D01*
X0256731Y0315236D01*
X0256731Y0313267D01*
X0261208Y0315236D02*
X0262192Y0316220D01*
X0263176Y0316220D01*
X0250285Y0316220D02*
X0250285Y0312283D01*
X0246348Y0312283D02*
X0246348Y0315236D01*
X0247333Y0316220D01*
X0250285Y0316220D01*
X0243840Y0316220D02*
X0242856Y0316220D01*
X0242856Y0312283D01*
X0243840Y0312283D02*
X0241871Y0312283D01*
X0238559Y0313267D02*
X0237574Y0312283D01*
X0238559Y0313267D02*
X0238559Y0317204D01*
X0239543Y0316220D02*
X0237574Y0316220D01*
X0235246Y0315236D02*
X0235246Y0313267D01*
X0234262Y0312283D01*
X0232293Y0312283D01*
X0231309Y0313267D01*
X0231309Y0315236D01*
X0232293Y0316220D01*
X0234262Y0316220D01*
X0235246Y0315236D01*
X0228800Y0316220D02*
X0228800Y0312283D01*
X0228800Y0314251D02*
X0226832Y0316220D01*
X0225848Y0316220D01*
X0223429Y0316220D02*
X0222445Y0316220D01*
X0222445Y0312283D01*
X0223429Y0312283D02*
X0221461Y0312283D01*
X0219132Y0312283D02*
X0219132Y0316220D01*
X0216179Y0316220D01*
X0215195Y0315236D01*
X0215195Y0312283D01*
X0212686Y0313267D02*
X0211702Y0312283D01*
X0208750Y0312283D01*
X0208750Y0311299D02*
X0208750Y0316220D01*
X0211702Y0316220D01*
X0212686Y0315236D01*
X0212686Y0313267D01*
X0210718Y0310315D02*
X0209734Y0310315D01*
X0208750Y0311299D01*
X0199795Y0312283D02*
X0199795Y0316220D01*
X0196843Y0316220D01*
X0195859Y0315236D01*
X0195859Y0312283D01*
X0193350Y0313267D02*
X0192366Y0312283D01*
X0190397Y0312283D01*
X0189413Y0313267D01*
X0189413Y0315236D01*
X0190397Y0316220D01*
X0192366Y0316220D01*
X0193350Y0315236D01*
X0193350Y0313267D01*
X0186904Y0313267D02*
X0186904Y0315236D01*
X0185920Y0316220D01*
X0182968Y0316220D01*
X0182968Y0318188D02*
X0182968Y0312283D01*
X0185920Y0312283D01*
X0186904Y0313267D01*
X0180459Y0313267D02*
X0180459Y0315236D01*
X0179475Y0316220D01*
X0177506Y0316220D01*
X0176522Y0315236D01*
X0176522Y0314251D01*
X0180459Y0314251D01*
X0180459Y0313267D02*
X0179475Y0312283D01*
X0177506Y0312283D01*
X0222445Y0318188D02*
X0222445Y0319172D01*
X0242856Y0319172D02*
X0242856Y0318188D01*
D11*
X0085690Y0104831D02*
X0084555Y0104831D01*
X0085690Y0104831D02*
X0086257Y0105398D01*
X0086257Y0106533D01*
X0085690Y0107100D01*
X0084555Y0107100D01*
X0083988Y0106533D01*
X0083988Y0105966D01*
X0086257Y0105966D01*
X0087625Y0107100D02*
X0088192Y0107100D01*
X0089326Y0105966D01*
X0089326Y0107100D02*
X0089326Y0104831D01*
X0090741Y0104831D02*
X0092442Y0104831D01*
X0093009Y0105398D01*
X0092442Y0105966D01*
X0090741Y0105966D01*
X0090741Y0106533D02*
X0090741Y0104831D01*
X0090741Y0106533D02*
X0091308Y0107100D01*
X0092442Y0107100D01*
X0094424Y0107100D02*
X0094424Y0105398D01*
X0094991Y0104831D01*
X0095558Y0105398D01*
X0096125Y0104831D01*
X0096692Y0105398D01*
X0096692Y0107100D01*
X0098107Y0107100D02*
X0099808Y0107100D01*
X0100375Y0106533D01*
X0100375Y0105398D01*
X0099808Y0104831D01*
X0098107Y0104831D01*
X0098107Y0108234D01*
X0100190Y0110731D02*
X0098290Y0112631D01*
X0099990Y0115031D01*
X0098990Y0117731D02*
X0095990Y0118231D01*
X0095990Y0120831D01*
X0098990Y0121431D01*
X0100090Y0123931D02*
X0098290Y0126531D01*
X0100190Y0128331D01*
X0102790Y0126531D01*
X0105290Y0127531D02*
X0105790Y0130731D01*
X0108490Y0130731D01*
X0108990Y0127531D01*
X0111490Y0126531D02*
X0114090Y0128331D01*
X0115990Y0126531D01*
X0114190Y0123931D01*
X0115290Y0121431D02*
X0118290Y0120831D01*
X0118290Y0118231D01*
X0115290Y0117731D01*
X0114290Y0115031D02*
X0115890Y0112631D01*
X0114090Y0110731D01*
X0111690Y0112431D01*
X0110690Y0111831D01*
X0108690Y0116331D01*
X0105490Y0116331D02*
X0103590Y0111831D01*
X0102590Y0112431D01*
X0100190Y0110731D01*
X0101743Y0107100D02*
X0102310Y0107100D01*
X0103445Y0105966D01*
X0103445Y0107100D02*
X0103445Y0104831D01*
X0104859Y0104831D02*
X0106561Y0104831D01*
X0107128Y0105398D01*
X0106561Y0105966D01*
X0104859Y0105966D01*
X0104859Y0106533D02*
X0104859Y0104831D01*
X0104859Y0106533D02*
X0105426Y0107100D01*
X0106561Y0107100D01*
X0108542Y0106533D02*
X0110811Y0106533D01*
X0112226Y0106533D02*
X0114494Y0106533D01*
X0115909Y0106533D02*
X0115909Y0104831D01*
X0115909Y0106533D02*
X0116476Y0107100D01*
X0118177Y0107100D01*
X0118177Y0104831D01*
X0119592Y0105966D02*
X0121860Y0105966D01*
X0121860Y0106533D02*
X0121293Y0107100D01*
X0120159Y0107100D01*
X0119592Y0106533D01*
X0119592Y0105966D01*
X0120159Y0104831D02*
X0121293Y0104831D01*
X0121860Y0105398D01*
X0121860Y0106533D01*
X0123275Y0106533D02*
X0123275Y0105398D01*
X0123842Y0104831D01*
X0125544Y0104831D01*
X0125544Y0103697D02*
X0125544Y0107100D01*
X0123842Y0107100D01*
X0123275Y0106533D01*
X0126958Y0107667D02*
X0127525Y0108234D01*
X0128660Y0108234D01*
X0129227Y0107667D01*
X0129227Y0105398D01*
X0128660Y0104831D01*
X0127525Y0104831D01*
X0126958Y0105398D01*
X0126958Y0107667D01*
X0110811Y0108234D02*
X0110811Y0104831D01*
X0108542Y0104831D02*
X0108542Y0108234D01*
X0099989Y0115026D02*
X0099893Y0115192D01*
X0099800Y0115359D01*
X0099712Y0115529D01*
X0099628Y0115701D01*
X0099548Y0115874D01*
X0099472Y0116050D01*
X0099400Y0116227D01*
X0099333Y0116406D01*
X0099269Y0116587D01*
X0099210Y0116769D01*
X0099156Y0116952D01*
X0099105Y0117137D01*
X0099059Y0117322D01*
X0099018Y0117509D01*
X0098981Y0117697D01*
X0099000Y0121432D02*
X0099050Y0121620D01*
X0099105Y0121807D01*
X0099164Y0121993D01*
X0099228Y0122177D01*
X0099296Y0122360D01*
X0099369Y0122541D01*
X0099446Y0122720D01*
X0099527Y0122897D01*
X0099613Y0123073D01*
X0099702Y0123246D01*
X0099796Y0123417D01*
X0099894Y0123585D01*
X0099996Y0123752D01*
X0100101Y0123915D01*
X0105490Y0116431D02*
X0105383Y0116486D01*
X0105277Y0116543D01*
X0105174Y0116605D01*
X0105072Y0116669D01*
X0104973Y0116737D01*
X0104876Y0116808D01*
X0104781Y0116882D01*
X0104689Y0116959D01*
X0104599Y0117040D01*
X0104512Y0117123D01*
X0104428Y0117209D01*
X0104347Y0117297D01*
X0104269Y0117389D01*
X0104193Y0117483D01*
X0104121Y0117579D01*
X0104052Y0117677D01*
X0103986Y0117778D01*
X0103924Y0117881D01*
X0103865Y0117986D01*
X0103809Y0118092D01*
X0103757Y0118201D01*
X0103709Y0118311D01*
X0103664Y0118423D01*
X0103623Y0118536D01*
X0103586Y0118650D01*
X0103552Y0118766D01*
X0103523Y0118882D01*
X0103497Y0119000D01*
X0103475Y0119118D01*
X0103456Y0119237D01*
X0103442Y0119356D01*
X0103432Y0119476D01*
X0103425Y0119596D01*
X0103423Y0119717D01*
X0103425Y0119837D01*
X0103430Y0119957D01*
X0103439Y0120077D01*
X0103453Y0120197D01*
X0103470Y0120316D01*
X0103491Y0120434D01*
X0103516Y0120552D01*
X0103545Y0120669D01*
X0103578Y0120784D01*
X0103614Y0120899D01*
X0103654Y0121012D01*
X0103698Y0121124D01*
X0103746Y0121235D01*
X0103797Y0121344D01*
X0103851Y0121451D01*
X0103910Y0121556D01*
X0103971Y0121660D01*
X0104036Y0121761D01*
X0104104Y0121860D01*
X0104176Y0121957D01*
X0104250Y0122051D01*
X0104328Y0122143D01*
X0104408Y0122232D01*
X0104492Y0122319D01*
X0104578Y0122403D01*
X0104667Y0122484D01*
X0104759Y0122562D01*
X0104853Y0122637D01*
X0104949Y0122708D01*
X0105048Y0122777D01*
X0105149Y0122842D01*
X0105252Y0122904D01*
X0105357Y0122963D01*
X0105464Y0123018D01*
X0105573Y0123070D01*
X0105683Y0123117D01*
X0105795Y0123162D01*
X0105908Y0123202D01*
X0106023Y0123239D01*
X0106139Y0123272D01*
X0106255Y0123302D01*
X0106373Y0123327D01*
X0106491Y0123349D01*
X0106610Y0123366D01*
X0106730Y0123380D01*
X0106850Y0123390D01*
X0106970Y0123396D01*
X0107090Y0123398D01*
X0107210Y0123396D01*
X0107330Y0123390D01*
X0107450Y0123380D01*
X0107570Y0123366D01*
X0107689Y0123349D01*
X0107807Y0123327D01*
X0107925Y0123302D01*
X0108041Y0123272D01*
X0108157Y0123239D01*
X0108272Y0123202D01*
X0108385Y0123162D01*
X0108497Y0123117D01*
X0108607Y0123070D01*
X0108716Y0123018D01*
X0108823Y0122963D01*
X0108928Y0122904D01*
X0109031Y0122842D01*
X0109132Y0122777D01*
X0109231Y0122708D01*
X0109327Y0122637D01*
X0109421Y0122562D01*
X0109513Y0122484D01*
X0109602Y0122403D01*
X0109688Y0122319D01*
X0109772Y0122232D01*
X0109852Y0122143D01*
X0109930Y0122051D01*
X0110004Y0121957D01*
X0110076Y0121860D01*
X0110144Y0121761D01*
X0110209Y0121660D01*
X0110270Y0121556D01*
X0110329Y0121451D01*
X0110383Y0121344D01*
X0110434Y0121235D01*
X0110482Y0121124D01*
X0110526Y0121012D01*
X0110566Y0120899D01*
X0110602Y0120784D01*
X0110635Y0120669D01*
X0110664Y0120552D01*
X0110689Y0120434D01*
X0110710Y0120316D01*
X0110727Y0120197D01*
X0110741Y0120077D01*
X0110750Y0119957D01*
X0110755Y0119837D01*
X0110757Y0119717D01*
X0110755Y0119596D01*
X0110748Y0119476D01*
X0110738Y0119356D01*
X0110724Y0119237D01*
X0110705Y0119118D01*
X0110683Y0119000D01*
X0110657Y0118882D01*
X0110628Y0118766D01*
X0110594Y0118650D01*
X0110557Y0118536D01*
X0110516Y0118423D01*
X0110471Y0118311D01*
X0110423Y0118201D01*
X0110371Y0118092D01*
X0110315Y0117986D01*
X0110256Y0117881D01*
X0110194Y0117778D01*
X0110128Y0117677D01*
X0110059Y0117579D01*
X0109987Y0117483D01*
X0109911Y0117389D01*
X0109833Y0117297D01*
X0109752Y0117209D01*
X0109668Y0117123D01*
X0109581Y0117040D01*
X0109491Y0116959D01*
X0109399Y0116882D01*
X0109304Y0116808D01*
X0109207Y0116737D01*
X0109108Y0116669D01*
X0109006Y0116605D01*
X0108903Y0116543D01*
X0108797Y0116486D01*
X0108690Y0116431D01*
X0114256Y0115063D02*
X0114359Y0115239D01*
X0114458Y0115418D01*
X0114552Y0115599D01*
X0114642Y0115782D01*
X0114727Y0115968D01*
X0114808Y0116155D01*
X0114884Y0116345D01*
X0114955Y0116536D01*
X0115022Y0116729D01*
X0115083Y0116924D01*
X0115141Y0117120D01*
X0115193Y0117317D01*
X0115240Y0117515D01*
X0115283Y0117715D01*
X0111456Y0126568D02*
X0111284Y0126668D01*
X0111109Y0126765D01*
X0110933Y0126857D01*
X0110754Y0126945D01*
X0110573Y0127029D01*
X0110390Y0127108D01*
X0110206Y0127183D01*
X0110019Y0127254D01*
X0109831Y0127320D01*
X0109642Y0127381D01*
X0109451Y0127438D01*
X0109258Y0127491D01*
X0109065Y0127538D01*
X0114181Y0123878D02*
X0114281Y0123716D01*
X0114378Y0123551D01*
X0114471Y0123384D01*
X0114559Y0123215D01*
X0114644Y0123045D01*
X0114725Y0122872D01*
X0114802Y0122697D01*
X0114875Y0122521D01*
X0114944Y0122343D01*
X0115009Y0122163D01*
X0115070Y0121983D01*
X0115126Y0121800D01*
X0115179Y0121617D01*
X0115227Y0121432D01*
X0105237Y0127556D02*
X0105050Y0127511D01*
X0104864Y0127462D01*
X0104679Y0127408D01*
X0104496Y0127350D01*
X0104314Y0127288D01*
X0104133Y0127222D01*
X0103954Y0127152D01*
X0103777Y0127078D01*
X0103601Y0126999D01*
X0103428Y0126917D01*
X0103256Y0126830D01*
X0103086Y0126740D01*
X0102918Y0126646D01*
X0102753Y0126548D01*
X0102941Y0137646D02*
X0104075Y0137646D01*
X0103508Y0137646D02*
X0103508Y0139915D01*
X0104075Y0139915D01*
X0103508Y0141049D02*
X0103508Y0141616D01*
X0102714Y0143936D02*
X0101580Y0145070D01*
X0100446Y0143936D01*
X0100446Y0147339D01*
X0102714Y0147339D02*
X0102714Y0143936D01*
X0099031Y0144503D02*
X0098464Y0145070D01*
X0096762Y0145070D01*
X0096762Y0145637D02*
X0096762Y0143936D01*
X0098464Y0143936D01*
X0099031Y0144503D01*
X0098464Y0146204D02*
X0097330Y0146204D01*
X0096762Y0145637D01*
X0095348Y0143936D02*
X0094214Y0143936D01*
X0094781Y0143936D02*
X0094781Y0147339D01*
X0095348Y0147339D01*
X0092892Y0145637D02*
X0092325Y0146204D01*
X0091191Y0146204D01*
X0090624Y0145637D01*
X0090624Y0145070D01*
X0092892Y0145070D01*
X0092892Y0144503D02*
X0092892Y0145637D01*
X0092892Y0144503D02*
X0092325Y0143936D01*
X0091191Y0143936D01*
X0089209Y0143936D02*
X0087508Y0143936D01*
X0086941Y0144503D01*
X0087508Y0145070D01*
X0088642Y0145070D01*
X0089209Y0145637D01*
X0088642Y0146204D01*
X0086941Y0146204D01*
X0088302Y0141049D02*
X0090571Y0138780D01*
X0090003Y0139347D02*
X0088302Y0137646D01*
X0090571Y0137646D02*
X0090571Y0141049D01*
X0091985Y0141049D02*
X0091985Y0138213D01*
X0092552Y0137646D01*
X0093687Y0137646D01*
X0094254Y0138213D01*
X0094254Y0141049D01*
X0099351Y0139347D02*
X0099351Y0137646D01*
X0099351Y0139347D02*
X0099919Y0139915D01*
X0101620Y0139915D01*
X0101620Y0137646D01*
X0109173Y0138780D02*
X0111442Y0138780D01*
X0111442Y0138213D02*
X0111442Y0139347D01*
X0110875Y0139915D01*
X0109740Y0139915D01*
X0109173Y0139347D01*
X0109173Y0138780D01*
X0109740Y0137646D02*
X0110875Y0137646D01*
X0111442Y0138213D01*
X0112856Y0137646D02*
X0114558Y0137646D01*
X0115125Y0138213D01*
X0115125Y0139347D01*
X0114558Y0139915D01*
X0112856Y0139915D01*
X0112856Y0141049D02*
X0112856Y0137646D01*
X0116539Y0137646D02*
X0116539Y0139347D01*
X0117107Y0139915D01*
X0118241Y0139915D01*
X0118241Y0138780D02*
X0116539Y0138780D01*
X0116539Y0137646D02*
X0118241Y0137646D01*
X0118808Y0138213D01*
X0118241Y0138780D01*
X0120223Y0137646D02*
X0120223Y0141049D01*
X0121357Y0139915D01*
X0122491Y0141049D01*
X0122491Y0137646D01*
X0122971Y0143936D02*
X0122971Y0147339D01*
X0120703Y0143936D01*
X0120703Y0147339D01*
X0119288Y0145637D02*
X0119288Y0144503D01*
X0118721Y0143936D01*
X0117587Y0143936D01*
X0117020Y0144503D01*
X0117020Y0145637D01*
X0117587Y0146204D01*
X0118721Y0146204D01*
X0119288Y0145637D01*
X0115605Y0145070D02*
X0114471Y0146204D01*
X0113904Y0146204D01*
X0112536Y0146204D02*
X0111402Y0146204D01*
X0111969Y0146771D02*
X0111969Y0144503D01*
X0111402Y0143936D01*
X0110080Y0143936D02*
X0110080Y0147339D01*
X0109513Y0146204D02*
X0108379Y0146204D01*
X0107812Y0145637D01*
X0107812Y0143936D01*
X0110080Y0145637D02*
X0109513Y0146204D01*
X0115605Y0146204D02*
X0115605Y0143936D01*
X0109897Y0163214D02*
X0109330Y0163214D01*
X0108763Y0163781D01*
X0108763Y0166617D01*
X0110464Y0166617D01*
X0111032Y0166050D01*
X0111032Y0164915D01*
X0110464Y0164348D01*
X0108763Y0164348D01*
X0107348Y0164348D02*
X0107348Y0166617D01*
X0105647Y0166617D01*
X0105080Y0166050D01*
X0105080Y0164348D01*
X0103665Y0164915D02*
X0103665Y0166050D01*
X0103098Y0166617D01*
X0101964Y0166617D01*
X0101397Y0166050D01*
X0101397Y0165483D01*
X0103665Y0165483D01*
X0103665Y0164915D02*
X0103098Y0164348D01*
X0101964Y0164348D01*
X0099982Y0164915D02*
X0099982Y0166050D01*
X0099415Y0166617D01*
X0097714Y0166617D01*
X0097714Y0167751D02*
X0097714Y0164348D01*
X0099415Y0164348D01*
X0099982Y0164915D01*
X0092616Y0164348D02*
X0091482Y0164348D01*
X0092049Y0164348D02*
X0092049Y0166617D01*
X0092616Y0166617D01*
X0092049Y0167751D02*
X0092049Y0168318D01*
X0090160Y0166617D02*
X0088459Y0166617D01*
X0087892Y0166050D01*
X0087892Y0164348D01*
X0090160Y0164348D02*
X0090160Y0166617D01*
X0112353Y0164348D02*
X0113487Y0164348D01*
X0112920Y0164348D02*
X0112920Y0166617D01*
X0113487Y0166617D01*
X0112920Y0167751D02*
X0112920Y0168318D01*
X0114902Y0166617D02*
X0116603Y0166617D01*
X0117170Y0166050D01*
X0116603Y0165483D01*
X0115469Y0165483D01*
X0114902Y0164915D01*
X0115469Y0164348D01*
X0117170Y0164348D01*
X0118585Y0165483D02*
X0120853Y0165483D01*
X0120853Y0166050D02*
X0120286Y0166617D01*
X0119152Y0166617D01*
X0118585Y0166050D01*
X0118585Y0165483D01*
X0119152Y0164348D02*
X0120286Y0164348D01*
X0120853Y0164915D01*
X0120853Y0166050D01*
X0122268Y0167184D02*
X0122835Y0167751D01*
X0124536Y0167751D01*
X0124536Y0164348D01*
X0122835Y0164348D01*
X0122268Y0164915D01*
X0122268Y0167184D01*
X0225702Y0171317D02*
X0226270Y0171884D01*
X0227404Y0171884D01*
X0227971Y0172451D01*
X0227404Y0173018D01*
X0225702Y0173018D01*
X0225702Y0171317D02*
X0226270Y0170749D01*
X0227971Y0170749D01*
X0229292Y0170749D02*
X0229859Y0171317D01*
X0229859Y0173585D01*
X0230426Y0173018D02*
X0229292Y0173018D01*
X0231841Y0172451D02*
X0231841Y0170749D01*
X0231841Y0172451D02*
X0232408Y0173018D01*
X0234110Y0173018D01*
X0234110Y0170749D01*
X0235524Y0171884D02*
X0237793Y0171884D01*
X0237793Y0172451D02*
X0237226Y0173018D01*
X0236091Y0173018D01*
X0235524Y0172451D01*
X0235524Y0171884D01*
X0236091Y0170749D02*
X0237226Y0170749D01*
X0237793Y0171317D01*
X0237793Y0172451D01*
X0239207Y0172451D02*
X0239207Y0170749D01*
X0239207Y0172451D02*
X0239774Y0173018D01*
X0241476Y0173018D01*
X0241476Y0170749D01*
X0242890Y0171317D02*
X0242890Y0172451D01*
X0243458Y0173018D01*
X0244592Y0173018D01*
X0245159Y0172451D01*
X0245159Y0171317D01*
X0244592Y0170749D01*
X0243458Y0170749D01*
X0242890Y0171317D01*
X0246574Y0171317D02*
X0247141Y0170749D01*
X0248842Y0170749D01*
X0248842Y0169615D02*
X0248842Y0173018D01*
X0247141Y0173018D01*
X0246574Y0172451D01*
X0246574Y0171317D01*
X0250257Y0170749D02*
X0250257Y0172451D01*
X0250824Y0173018D01*
X0251391Y0172451D01*
X0251391Y0170749D01*
X0252525Y0170749D02*
X0252525Y0173018D01*
X0251958Y0173018D01*
X0251391Y0172451D01*
X0253940Y0172451D02*
X0254507Y0173018D01*
X0255641Y0173018D01*
X0256208Y0172451D01*
X0256208Y0171317D01*
X0255641Y0170749D01*
X0254507Y0170749D01*
X0253940Y0171317D01*
X0253940Y0172451D01*
X0257623Y0173018D02*
X0259324Y0173018D01*
X0259892Y0172451D01*
X0259892Y0171317D01*
X0259324Y0170749D01*
X0257623Y0170749D01*
X0264989Y0171317D02*
X0264989Y0171884D01*
X0265556Y0172451D01*
X0266691Y0172451D01*
X0267258Y0173018D01*
X0267258Y0173585D01*
X0266691Y0174152D01*
X0265556Y0174152D01*
X0264989Y0173585D01*
X0264989Y0171317D02*
X0265556Y0170749D01*
X0266691Y0170749D01*
X0267258Y0171317D01*
X0268672Y0170749D02*
X0268672Y0174152D01*
X0268672Y0172451D02*
X0270941Y0172451D01*
X0272356Y0172451D02*
X0272923Y0173018D01*
X0274057Y0173018D01*
X0274624Y0172451D01*
X0274624Y0171317D01*
X0274057Y0170749D01*
X0272923Y0170749D01*
X0272356Y0171317D01*
X0272356Y0172451D01*
X0270941Y0174152D02*
X0270941Y0170749D01*
X0276039Y0170749D02*
X0277173Y0171884D01*
X0276606Y0171884D02*
X0278307Y0171884D01*
X0278307Y0170749D02*
X0278307Y0174152D01*
X0276606Y0174152D01*
X0276039Y0173585D01*
X0276039Y0172451D01*
X0276606Y0171884D01*
X0283405Y0172451D02*
X0285674Y0172451D01*
X0290771Y0173018D02*
X0291338Y0172451D01*
X0293040Y0172451D01*
X0293040Y0174152D02*
X0291338Y0174152D01*
X0290771Y0173585D01*
X0290771Y0173018D01*
X0291338Y0172451D02*
X0290771Y0171884D01*
X0290771Y0171317D01*
X0291338Y0170749D01*
X0293040Y0170749D01*
X0293040Y0174152D01*
X0294454Y0173585D02*
X0295022Y0174152D01*
X0296156Y0174152D01*
X0296723Y0173585D01*
X0296723Y0171317D01*
X0296156Y0170749D01*
X0295022Y0170749D01*
X0294454Y0171317D01*
X0298138Y0172451D02*
X0298705Y0171884D01*
X0300406Y0171884D01*
X0300406Y0170749D02*
X0300406Y0174152D01*
X0298705Y0174152D01*
X0298138Y0173585D01*
X0298138Y0172451D01*
X0305504Y0172451D02*
X0305504Y0171884D01*
X0307772Y0171884D01*
X0307772Y0172451D02*
X0307205Y0173018D01*
X0306071Y0173018D01*
X0305504Y0172451D01*
X0306071Y0170749D02*
X0307205Y0170749D01*
X0307772Y0171317D01*
X0307772Y0172451D01*
X0309187Y0172451D02*
X0309187Y0171884D01*
X0311456Y0171884D01*
X0311456Y0172451D02*
X0310888Y0173018D01*
X0309754Y0173018D01*
X0309187Y0172451D01*
X0309754Y0170749D02*
X0310888Y0170749D01*
X0311456Y0171317D01*
X0311456Y0172451D01*
X0312823Y0173018D02*
X0313391Y0173018D01*
X0314525Y0171884D01*
X0314525Y0173018D02*
X0314525Y0170749D01*
X0316413Y0170749D02*
X0316413Y0173585D01*
X0315846Y0174152D01*
X0315846Y0172451D02*
X0316980Y0172451D01*
X0322078Y0173018D02*
X0323779Y0173018D01*
X0324347Y0172451D01*
X0324347Y0171317D01*
X0323779Y0170749D01*
X0322078Y0170749D01*
X0322078Y0174152D01*
X0325761Y0172451D02*
X0325761Y0170749D01*
X0327463Y0170749D01*
X0328030Y0171317D01*
X0327463Y0171884D01*
X0325761Y0171884D01*
X0325761Y0172451D02*
X0326328Y0173018D01*
X0327463Y0173018D01*
X0329444Y0172451D02*
X0329444Y0171884D01*
X0331713Y0171884D01*
X0331713Y0172451D02*
X0331146Y0173018D01*
X0330011Y0173018D01*
X0329444Y0172451D01*
X0330011Y0170749D02*
X0331146Y0170749D01*
X0331713Y0171317D01*
X0331713Y0172451D01*
X0333127Y0170749D02*
X0335396Y0170749D01*
X0335396Y0174152D01*
D12*
X0118953Y0156774D03*
X0117553Y0160774D03*
X0102353Y0156624D03*
X0105603Y0150174D03*
X0105003Y0149174D03*
X0104553Y0148574D03*
X0111203Y0150474D03*
X0111303Y0150724D03*
X0116753Y0148374D03*
D13*
X0116765Y0148399D03*
X0117215Y0149349D03*
X0116940Y0150349D03*
X0111165Y0150499D03*
X0105590Y0150199D03*
X0104990Y0149199D03*
X0104565Y0148599D03*
X0101265Y0151349D03*
X0101965Y0156199D03*
X0114690Y0159749D03*
X0115990Y0159449D03*
X0118990Y0156849D03*
X0118965Y0156799D03*
D14*
X0116003Y0159474D03*
X0114553Y0159424D03*
X0111653Y0149824D03*
X0116753Y0148424D03*
X0117203Y0149374D03*
D15*
X0117190Y0149399D03*
X0116765Y0148449D03*
X0111640Y0149849D03*
X0105565Y0150249D03*
X0104965Y0149249D03*
X0100290Y0148799D03*
X0110665Y0159649D03*
X0117515Y0160749D03*
X0118990Y0156899D03*
D16*
X0116078Y0159549D03*
X0104678Y0155749D03*
X0101378Y0151399D03*
X0107428Y0149049D03*
X0115978Y0148449D03*
D17*
X0116765Y0148474D03*
X0116915Y0150374D03*
X0111265Y0150774D03*
X0111115Y0150524D03*
X0111290Y0148924D03*
X0106915Y0148974D03*
X0105565Y0150274D03*
X0104340Y0149224D03*
X0104565Y0148674D03*
X0100290Y0148774D03*
X0101965Y0156174D03*
X0100190Y0156774D03*
X0099990Y0159974D03*
X0110740Y0158274D03*
X0111065Y0157374D03*
X0116290Y0160974D03*
D18*
X0116165Y0159674D03*
X0117240Y0158374D03*
X0117165Y0157574D03*
X0110865Y0158374D03*
X0101365Y0157374D03*
X0101365Y0157324D03*
X0101340Y0157474D03*
X0101315Y0157574D03*
X0100340Y0157024D03*
X0111240Y0151074D03*
X0107440Y0149074D03*
X0115990Y0148474D03*
X0116690Y0148674D03*
X0116640Y0149874D03*
D19*
X0117165Y0149449D03*
X0116765Y0148499D03*
X0111590Y0149899D03*
X0111240Y0150849D03*
X0105565Y0150349D03*
X0100215Y0156799D03*
X0100040Y0159899D03*
X0110765Y0158299D03*
X0111090Y0157399D03*
X0114815Y0158249D03*
X0118965Y0156949D03*
X0117965Y0155099D03*
D20*
X0110903Y0158399D03*
X0104203Y0160899D03*
X0105603Y0150749D03*
X0104453Y0149649D03*
X0116003Y0148499D03*
X0116503Y0149399D03*
D21*
X0117153Y0149474D03*
X0116853Y0150424D03*
X0116753Y0148524D03*
X0112803Y0149324D03*
X0105553Y0150374D03*
X0104303Y0155924D03*
X0100053Y0159874D03*
X0103353Y0161874D03*
X0103553Y0161624D03*
X0103603Y0161574D03*
X0103653Y0161524D03*
X0103703Y0161474D03*
X0116053Y0159524D03*
D22*
X0116240Y0159774D03*
X0117190Y0157774D03*
X0118290Y0158224D03*
X0117440Y0155124D03*
X0115590Y0151574D03*
X0116015Y0148524D03*
X0111315Y0151224D03*
X0109565Y0149074D03*
X0103615Y0149624D03*
X0100315Y0159424D03*
X0105240Y0161674D03*
X0110940Y0158424D03*
D23*
X0103915Y0161249D03*
X0103865Y0161299D03*
X0103765Y0161399D03*
X0103540Y0161649D03*
X0103490Y0161699D03*
X0103440Y0161749D03*
X0103365Y0161849D03*
X0100065Y0159849D03*
X0100240Y0156849D03*
X0101940Y0156099D03*
X0111240Y0150899D03*
X0111540Y0149949D03*
X0116740Y0148549D03*
X0117115Y0149499D03*
D24*
X0116615Y0149849D03*
X0116115Y0150349D03*
X0115465Y0151699D03*
X0115440Y0151749D03*
X0116015Y0148549D03*
X0117465Y0155199D03*
X0117440Y0155499D03*
X0117190Y0157849D03*
X0117190Y0158099D03*
X0117190Y0158149D03*
X0116265Y0159799D03*
X0114540Y0158399D03*
X0113690Y0161449D03*
X0104315Y0160749D03*
X0100365Y0159349D03*
X0100465Y0157349D03*
X0104315Y0150299D03*
X0103590Y0149599D03*
D25*
X0104553Y0148549D03*
X0112203Y0148649D03*
X0112853Y0148649D03*
X0117253Y0149299D03*
X0118303Y0156699D03*
X0100153Y0156699D03*
X0099953Y0160049D03*
D26*
X0100090Y0159824D03*
X0102590Y0158574D03*
X0103890Y0161274D03*
X0103840Y0161324D03*
X0103790Y0161374D03*
X0103740Y0161424D03*
X0103515Y0161674D03*
X0103465Y0161724D03*
X0103390Y0161824D03*
X0113740Y0161524D03*
X0111240Y0150874D03*
X0112840Y0148674D03*
X0116740Y0148574D03*
X0105565Y0150424D03*
X0104865Y0149324D03*
D27*
X0104315Y0150274D03*
X0103565Y0149574D03*
X0107415Y0149524D03*
X0111365Y0151274D03*
X0115390Y0151874D03*
X0116365Y0150624D03*
X0116090Y0150274D03*
X0116065Y0150224D03*
X0116040Y0148574D03*
X0117490Y0155324D03*
X0117465Y0155374D03*
X0117465Y0155424D03*
X0117190Y0157974D03*
X0117190Y0158024D03*
X0117190Y0158074D03*
X0116265Y0159824D03*
X0114640Y0160174D03*
X0105365Y0161524D03*
X0102340Y0157274D03*
X0100490Y0157424D03*
D28*
X0100265Y0156899D03*
X0101940Y0156049D03*
X0102690Y0158549D03*
X0100115Y0159749D03*
X0103965Y0161199D03*
X0104015Y0161149D03*
X0116115Y0159599D03*
X0116790Y0150449D03*
X0116740Y0148599D03*
X0111140Y0150149D03*
X0111240Y0150949D03*
X0106965Y0149099D03*
D29*
X0103903Y0149799D03*
X0103103Y0155999D03*
X0103153Y0156349D03*
X0100553Y0157649D03*
X0100453Y0159199D03*
X0104403Y0160649D03*
X0114253Y0158749D03*
X0114353Y0158599D03*
X0117353Y0157349D03*
X0117303Y0157199D03*
X0117753Y0157599D03*
X0117803Y0157649D03*
X0117853Y0157749D03*
X0115353Y0151999D03*
X0116053Y0148599D03*
X0111403Y0151299D03*
X0110603Y0150499D03*
D30*
X0111228Y0150974D03*
X0116728Y0148624D03*
X0114428Y0159324D03*
X0114378Y0159974D03*
X0104078Y0161074D03*
X0104028Y0161124D03*
X0102778Y0158524D03*
X0100278Y0156924D03*
D31*
X0100503Y0159124D03*
X0103103Y0156474D03*
X0103053Y0155924D03*
X0104303Y0150224D03*
X0110503Y0150324D03*
X0115353Y0152024D03*
X0116053Y0148624D03*
X0117303Y0157124D03*
X0118053Y0157974D03*
X0116953Y0160474D03*
D32*
X0118740Y0157974D03*
X0118990Y0156874D03*
X0118965Y0156824D03*
X0104515Y0155724D03*
X0104190Y0155874D03*
X0100165Y0156724D03*
X0099965Y0160024D03*
X0100290Y0148724D03*
X0103965Y0149124D03*
X0104190Y0149124D03*
X0104565Y0148624D03*
X0106940Y0148924D03*
X0111315Y0148874D03*
X0117240Y0149324D03*
D33*
X0117053Y0149549D03*
X0116703Y0148649D03*
X0111253Y0151049D03*
X0101953Y0155999D03*
X0104103Y0161049D03*
X0114653Y0160099D03*
X0116153Y0159649D03*
X0117253Y0158399D03*
D34*
X0116628Y0155449D03*
X0109028Y0157699D03*
X0104478Y0160549D03*
X0100528Y0159099D03*
X0103028Y0155899D03*
X0104328Y0150199D03*
X0110478Y0150249D03*
X0116078Y0148649D03*
D35*
X0111278Y0150749D03*
X0109628Y0149049D03*
X0106928Y0148949D03*
X0104578Y0148649D03*
X0100278Y0148749D03*
X0100178Y0156749D03*
X0099978Y0159999D03*
D36*
X0100178Y0159649D03*
X0100328Y0156999D03*
X0102878Y0158499D03*
X0104128Y0160999D03*
X0114378Y0159299D03*
X0117178Y0157549D03*
X0105578Y0150649D03*
X0103978Y0148649D03*
D37*
X0102428Y0155274D03*
X0104928Y0156224D03*
X0115628Y0149824D03*
X0116078Y0148674D03*
X0117428Y0157424D03*
D38*
X0105578Y0150224D03*
X0104978Y0149224D03*
X0112228Y0148674D03*
D39*
X0110840Y0148974D03*
X0115740Y0151474D03*
X0117340Y0155624D03*
X0118615Y0157374D03*
X0109140Y0157574D03*
X0104615Y0156074D03*
X0101965Y0155924D03*
X0100415Y0157174D03*
X0101215Y0157774D03*
X0100290Y0159474D03*
X0105215Y0161724D03*
X0105615Y0150774D03*
X0103965Y0148674D03*
D40*
X0102440Y0150999D03*
X0108990Y0156649D03*
X0108790Y0157849D03*
X0109990Y0158099D03*
X0105765Y0160949D03*
X0100815Y0157849D03*
X0115115Y0152099D03*
X0116265Y0148699D03*
X0116865Y0156249D03*
D41*
X0113828Y0159349D03*
X0110828Y0158349D03*
X0117328Y0160649D03*
X0108328Y0151349D03*
X0112278Y0148799D03*
X0112828Y0148699D03*
D42*
X0112228Y0148699D03*
X0111278Y0148949D03*
X0106928Y0148999D03*
X0105578Y0150299D03*
X0102478Y0158599D03*
X0114528Y0159399D03*
X0116028Y0159499D03*
X0117578Y0154849D03*
X0116878Y0150399D03*
X0116628Y0149899D03*
D43*
X0111253Y0150799D03*
X0104553Y0148699D03*
X0104253Y0155899D03*
X0101953Y0156149D03*
X0100003Y0159949D03*
D44*
X0100478Y0157399D03*
X0102028Y0155849D03*
X0103978Y0148699D03*
X0117478Y0155249D03*
X0117478Y0155299D03*
X0117178Y0157899D03*
X0117178Y0157949D03*
D45*
X0117190Y0157999D03*
X0117190Y0158049D03*
X0118290Y0158199D03*
X0117465Y0155399D03*
X0117490Y0155349D03*
X0117615Y0154949D03*
X0115390Y0151849D03*
X0115415Y0151799D03*
X0116065Y0150249D03*
X0114490Y0158449D03*
X0105340Y0161549D03*
X0104365Y0160699D03*
X0100390Y0159299D03*
X0100490Y0157449D03*
X0104765Y0156149D03*
X0102515Y0148699D03*
D46*
X0100278Y0148699D03*
X0111328Y0148849D03*
X0111678Y0149799D03*
X0111028Y0157349D03*
X0110728Y0158249D03*
X0113828Y0159399D03*
D47*
X0116403Y0160174D03*
X0116553Y0160324D03*
X0118453Y0157124D03*
X0111603Y0161824D03*
X0116253Y0148724D03*
D48*
X0116528Y0149374D03*
X0112828Y0148724D03*
X0107378Y0149574D03*
X0105578Y0150674D03*
X0114728Y0158274D03*
X0117178Y0157524D03*
X0117278Y0160624D03*
D49*
X0114490Y0159374D03*
X0113840Y0159374D03*
X0118965Y0156974D03*
X0105565Y0150324D03*
X0104340Y0150374D03*
X0106915Y0149024D03*
X0112240Y0148724D03*
X0101315Y0151374D03*
X0101940Y0156124D03*
D50*
X0100228Y0156824D03*
X0111578Y0149924D03*
X0106928Y0149074D03*
X0104528Y0148724D03*
D51*
X0103990Y0148724D03*
X0104090Y0150024D03*
X0103140Y0156074D03*
X0103165Y0156224D03*
X0103165Y0156274D03*
X0103165Y0156324D03*
X0103140Y0156374D03*
X0100540Y0157574D03*
X0100440Y0159224D03*
X0110565Y0150474D03*
X0112815Y0149274D03*
X0115840Y0149974D03*
X0115915Y0150024D03*
X0115965Y0150074D03*
X0116015Y0150124D03*
X0116040Y0150174D03*
X0117615Y0154974D03*
X0117315Y0157224D03*
X0117315Y0157274D03*
X0117340Y0157324D03*
X0117690Y0157524D03*
X0117865Y0157774D03*
X0117890Y0157824D03*
X0117915Y0157874D03*
X0117965Y0157924D03*
X0114415Y0158524D03*
D52*
X0116603Y0155274D03*
X0116603Y0155224D03*
X0116603Y0155174D03*
X0102503Y0148724D03*
D53*
X0102478Y0155399D03*
X0102278Y0157199D03*
X0100828Y0157799D03*
X0100778Y0158749D03*
X0111778Y0161599D03*
X0116378Y0154699D03*
X0116228Y0148749D03*
X0114778Y0148799D03*
D54*
X0114715Y0148749D03*
X0115715Y0149899D03*
X0115790Y0149949D03*
X0115940Y0150049D03*
X0115990Y0150099D03*
X0115365Y0151949D03*
X0110565Y0150449D03*
X0104415Y0149599D03*
X0104065Y0149999D03*
X0104115Y0150049D03*
X0104165Y0150099D03*
X0104315Y0150249D03*
X0103840Y0149749D03*
X0103140Y0156049D03*
X0103165Y0156199D03*
X0103165Y0156249D03*
X0103165Y0156299D03*
X0100540Y0157599D03*
X0100415Y0159249D03*
X0105415Y0161449D03*
X0114390Y0158549D03*
X0114765Y0159699D03*
X0117015Y0160499D03*
X0117990Y0157949D03*
X0117940Y0157899D03*
X0117915Y0157849D03*
X0117315Y0157249D03*
D55*
X0114690Y0158299D03*
X0111190Y0157449D03*
X0110790Y0159699D03*
X0101365Y0157399D03*
X0101365Y0157349D03*
X0101365Y0157299D03*
X0101340Y0157449D03*
X0101340Y0157499D03*
X0100215Y0159599D03*
X0110840Y0148949D03*
X0112815Y0148749D03*
D56*
X0112253Y0148749D03*
X0107403Y0149599D03*
X0105553Y0150399D03*
X0104903Y0149299D03*
X0118953Y0156999D03*
D57*
X0110278Y0157349D03*
X0102428Y0157949D03*
X0101028Y0156049D03*
X0100978Y0155899D03*
X0104128Y0148749D03*
D58*
X0102515Y0148749D03*
X0102240Y0150349D03*
X0102240Y0150399D03*
X0102240Y0150449D03*
X0102265Y0150499D03*
X0101115Y0155149D03*
X0101140Y0156249D03*
X0108865Y0157799D03*
X0110165Y0157699D03*
X0110190Y0157649D03*
X0110590Y0155999D03*
X0112665Y0148899D03*
D59*
X0116215Y0148774D03*
X0116890Y0156274D03*
X0109940Y0158174D03*
X0111790Y0161574D03*
X0100790Y0158724D03*
X0102465Y0151074D03*
D60*
X0102215Y0150224D03*
X0102215Y0149674D03*
X0102215Y0149624D03*
X0104090Y0148774D03*
X0112640Y0148874D03*
X0112890Y0149224D03*
X0114740Y0148774D03*
X0116390Y0150474D03*
X0116490Y0154874D03*
X0110565Y0156024D03*
X0110265Y0157424D03*
X0110240Y0157474D03*
X0110240Y0157524D03*
X0110215Y0157574D03*
X0102915Y0156624D03*
X0101040Y0156074D03*
X0101015Y0156024D03*
D61*
X0100365Y0157074D03*
X0100265Y0159524D03*
X0104190Y0160924D03*
X0105165Y0161774D03*
X0114640Y0160124D03*
X0117215Y0155824D03*
X0117315Y0155674D03*
X0115840Y0151424D03*
X0112815Y0148774D03*
X0111265Y0151124D03*
X0105590Y0150724D03*
X0100815Y0149274D03*
D62*
X0105553Y0150474D03*
X0111253Y0148974D03*
X0112253Y0148774D03*
X0116403Y0150674D03*
X0109403Y0156774D03*
X0110803Y0158324D03*
X0116103Y0159574D03*
X0118303Y0158274D03*
D63*
X0113553Y0161224D03*
X0110003Y0158074D03*
X0105753Y0160974D03*
X0100753Y0158774D03*
X0100803Y0157924D03*
X0101303Y0156474D03*
X0102403Y0150924D03*
X0102503Y0148774D03*
D64*
X0100728Y0148774D03*
X0104678Y0150124D03*
X0104928Y0149274D03*
X0111628Y0149874D03*
X0117178Y0149424D03*
X0118978Y0156924D03*
X0117478Y0158524D03*
X0117478Y0160724D03*
X0100028Y0159924D03*
D65*
X0101428Y0156549D03*
X0104728Y0160199D03*
X0113128Y0150899D03*
X0113278Y0150649D03*
X0113378Y0150499D03*
X0116178Y0148799D03*
X0116328Y0154649D03*
D66*
X0115703Y0151499D03*
X0112803Y0149299D03*
X0112803Y0148799D03*
X0110753Y0150649D03*
X0109303Y0156749D03*
X0100303Y0159449D03*
D67*
X0101078Y0155199D03*
X0105078Y0156299D03*
X0110228Y0157549D03*
X0105678Y0161099D03*
X0116478Y0154849D03*
X0118228Y0157999D03*
X0102228Y0150299D03*
X0102228Y0150249D03*
X0104078Y0148799D03*
D68*
X0102503Y0148799D03*
X0116403Y0160199D03*
X0111803Y0161549D03*
D69*
X0117228Y0160599D03*
X0117178Y0157599D03*
X0117228Y0155799D03*
X0105578Y0150699D03*
X0100678Y0148799D03*
X0101378Y0157199D03*
X0101378Y0157249D03*
X0101328Y0157549D03*
X0104178Y0160949D03*
D70*
X0112490Y0160174D03*
X0112590Y0160224D03*
X0104265Y0152474D03*
X0115465Y0148824D03*
D71*
X0112590Y0148824D03*
X0100715Y0149024D03*
X0100990Y0155424D03*
X0100965Y0155574D03*
X0110365Y0156624D03*
X0110365Y0156674D03*
X0110365Y0156724D03*
X0110365Y0156774D03*
X0110365Y0156824D03*
X0110440Y0156224D03*
X0116565Y0155024D03*
X0118565Y0157274D03*
X0116315Y0159974D03*
D72*
X0116390Y0160124D03*
X0116140Y0159924D03*
X0116815Y0156074D03*
X0116815Y0156024D03*
X0116815Y0155974D03*
X0116815Y0155924D03*
X0115165Y0152074D03*
X0112715Y0148924D03*
X0104040Y0148824D03*
X0102290Y0150624D03*
X0102315Y0150724D03*
X0102340Y0150774D03*
X0101165Y0155074D03*
X0102290Y0157224D03*
X0100765Y0158074D03*
X0104640Y0160324D03*
X0105715Y0161024D03*
X0111715Y0161774D03*
X0111740Y0161724D03*
X0110665Y0155924D03*
D73*
X0113015Y0151074D03*
X0113715Y0150124D03*
X0108215Y0150024D03*
X0108140Y0150074D03*
X0108065Y0150124D03*
X0107890Y0150224D03*
X0102515Y0148824D03*
X0116990Y0156374D03*
X0117015Y0156424D03*
X0117190Y0156724D03*
X0111890Y0161324D03*
X0111815Y0161424D03*
X0100865Y0158624D03*
D74*
X0100465Y0159174D03*
X0100565Y0157724D03*
X0102065Y0155824D03*
X0103090Y0155974D03*
X0103115Y0156424D03*
X0109065Y0157674D03*
X0109215Y0156724D03*
X0114240Y0158774D03*
X0117290Y0157174D03*
X0117815Y0157674D03*
X0118590Y0157324D03*
X0116590Y0149824D03*
X0110740Y0150574D03*
X0110665Y0150524D03*
X0110515Y0150374D03*
X0104415Y0149574D03*
X0103990Y0149874D03*
X0104015Y0149924D03*
X0103940Y0149824D03*
X0104215Y0150124D03*
X0100565Y0148824D03*
X0105440Y0161424D03*
D75*
X0105428Y0158049D03*
X0112178Y0159999D03*
X0112728Y0157749D03*
X0112178Y0151599D03*
X0115428Y0148849D03*
X0104228Y0152449D03*
D76*
X0102465Y0155299D03*
X0101040Y0155249D03*
X0101015Y0155299D03*
X0100965Y0155799D03*
X0100965Y0155849D03*
X0100990Y0155949D03*
X0100615Y0158949D03*
X0105640Y0161149D03*
X0110290Y0157299D03*
X0110315Y0157199D03*
X0110340Y0157099D03*
X0116540Y0154949D03*
X0118540Y0157249D03*
X0116765Y0160399D03*
X0112615Y0148849D03*
D77*
X0107403Y0149199D03*
X0104003Y0148849D03*
X0102403Y0150949D03*
X0100803Y0157899D03*
D78*
X0102540Y0155699D03*
X0104840Y0160049D03*
X0105890Y0160699D03*
X0114465Y0160649D03*
X0114565Y0160749D03*
X0115015Y0152249D03*
X0102590Y0148849D03*
D79*
X0103528Y0149549D03*
X0100578Y0148849D03*
X0103078Y0155949D03*
X0100578Y0157749D03*
X0100478Y0159149D03*
X0116628Y0155799D03*
D80*
X0113440Y0156774D03*
X0107915Y0152074D03*
X0103115Y0148924D03*
X0103065Y0148974D03*
X0103015Y0149024D03*
X0115390Y0148874D03*
D81*
X0112153Y0151624D03*
X0107953Y0152124D03*
X0104203Y0152424D03*
X0103153Y0148874D03*
X0113403Y0156824D03*
X0113303Y0156974D03*
D82*
X0114190Y0158824D03*
X0115065Y0161274D03*
X0118265Y0158124D03*
X0116615Y0155774D03*
X0116615Y0155724D03*
X0116615Y0155674D03*
X0116615Y0155624D03*
X0116615Y0155574D03*
X0116615Y0155524D03*
X0116615Y0155474D03*
X0117615Y0155024D03*
X0116365Y0150574D03*
X0110490Y0150274D03*
X0110440Y0150174D03*
X0103090Y0156524D03*
X0104465Y0160574D03*
X0105515Y0161324D03*
X0100590Y0148874D03*
D83*
X0115340Y0148899D03*
D84*
X0111303Y0148899D03*
X0110853Y0148899D03*
X0104703Y0150099D03*
X0116353Y0160949D03*
D85*
X0113390Y0156849D03*
X0113440Y0156749D03*
X0109665Y0149649D03*
X0104165Y0152399D03*
X0103040Y0148999D03*
X0103090Y0148949D03*
X0103140Y0148899D03*
X0105590Y0157999D03*
X0105165Y0159499D03*
D86*
X0105540Y0161299D03*
X0116890Y0160449D03*
X0116615Y0155399D03*
X0116615Y0155349D03*
X0116615Y0155299D03*
X0117615Y0155049D03*
X0110440Y0150149D03*
X0112840Y0149249D03*
X0107440Y0149499D03*
X0104415Y0149549D03*
X0100615Y0148899D03*
D87*
X0104040Y0152324D03*
X0107115Y0151374D03*
X0107765Y0151924D03*
X0112065Y0151724D03*
X0115290Y0148924D03*
D88*
X0117090Y0149524D03*
X0110840Y0148924D03*
X0105565Y0150524D03*
X0100265Y0156874D03*
X0100140Y0159724D03*
X0100115Y0159774D03*
X0103990Y0161174D03*
X0111140Y0157424D03*
D89*
X0108990Y0157724D03*
X0105590Y0161224D03*
X0100565Y0159024D03*
X0116590Y0155124D03*
X0110915Y0149074D03*
X0100640Y0148924D03*
D90*
X0107615Y0155649D03*
X0114465Y0148949D03*
D91*
X0110403Y0156349D03*
X0108953Y0157749D03*
X0100653Y0148949D03*
D92*
X0114453Y0148974D03*
X0105803Y0158624D03*
D93*
X0104528Y0160474D03*
X0110378Y0156574D03*
X0110378Y0156524D03*
X0110378Y0156474D03*
X0110378Y0156424D03*
X0110428Y0156274D03*
X0116578Y0155074D03*
X0116378Y0150524D03*
X0110878Y0149124D03*
X0100678Y0148974D03*
X0116828Y0160424D03*
D94*
X0107065Y0157149D03*
X0107065Y0157049D03*
X0112990Y0155399D03*
X0114440Y0148999D03*
D95*
X0110953Y0148999D03*
X0110453Y0150199D03*
X0110753Y0150549D03*
X0117303Y0157099D03*
X0117403Y0157399D03*
D96*
X0117465Y0157449D03*
X0116565Y0155049D03*
X0114090Y0158899D03*
X0116340Y0159999D03*
X0110365Y0156799D03*
X0110365Y0156749D03*
X0110365Y0156699D03*
X0110365Y0156649D03*
X0110415Y0156299D03*
X0110440Y0156249D03*
X0104990Y0156249D03*
X0105615Y0161199D03*
X0110840Y0149149D03*
X0100690Y0148999D03*
D97*
X0114428Y0149024D03*
D98*
X0110940Y0149024D03*
X0104315Y0150174D03*
X0103015Y0155874D03*
X0103040Y0156574D03*
X0100540Y0159074D03*
X0104490Y0160524D03*
X0105565Y0161274D03*
X0114140Y0158874D03*
X0116615Y0155374D03*
X0116615Y0155324D03*
X0117615Y0155074D03*
D99*
X0106978Y0157249D03*
X0114428Y0149049D03*
D100*
X0116378Y0150549D03*
X0110928Y0149049D03*
X0102978Y0155849D03*
X0105578Y0161249D03*
X0118578Y0157299D03*
D101*
X0117428Y0160699D03*
X0103828Y0161349D03*
X0103728Y0161449D03*
X0103678Y0161499D03*
X0103628Y0161549D03*
X0103578Y0161599D03*
X0115928Y0151399D03*
X0106928Y0149049D03*
D102*
X0107928Y0152099D03*
X0102978Y0149049D03*
X0113428Y0156799D03*
X0113328Y0156949D03*
D103*
X0110478Y0156149D03*
X0110328Y0157149D03*
X0102278Y0157249D03*
X0100978Y0155549D03*
X0100978Y0155499D03*
X0100978Y0155449D03*
X0102628Y0153649D03*
X0100728Y0149049D03*
X0116378Y0150499D03*
D104*
X0114415Y0149074D03*
D105*
X0102940Y0149074D03*
X0105515Y0158024D03*
X0107115Y0158424D03*
X0112215Y0160024D03*
X0112365Y0160124D03*
X0113290Y0157024D03*
X0113340Y0156924D03*
D106*
X0110490Y0156124D03*
X0110340Y0157074D03*
X0110340Y0157124D03*
X0110315Y0157174D03*
X0110315Y0157224D03*
X0104565Y0160424D03*
X0100990Y0155924D03*
X0100965Y0155874D03*
X0100965Y0155824D03*
X0101015Y0155324D03*
X0100765Y0149074D03*
X0107290Y0149124D03*
X0116540Y0154974D03*
X0116340Y0160024D03*
D107*
X0105965Y0158599D03*
X0114415Y0149099D03*
D108*
X0116565Y0149799D03*
X0116590Y0155099D03*
X0116590Y0155149D03*
X0110390Y0156399D03*
X0113615Y0161349D03*
X0104515Y0160499D03*
X0110890Y0149099D03*
D109*
X0109515Y0149099D03*
X0104865Y0156199D03*
X0103090Y0156499D03*
X0103065Y0156549D03*
X0114165Y0158849D03*
X0116615Y0155749D03*
X0116615Y0155699D03*
X0116615Y0155649D03*
X0116615Y0155599D03*
X0116615Y0155549D03*
X0116615Y0155499D03*
D110*
X0117365Y0155599D03*
X0117615Y0154899D03*
X0117190Y0157699D03*
X0114615Y0158349D03*
X0111290Y0151199D03*
X0107390Y0149549D03*
X0107440Y0149099D03*
X0103640Y0149649D03*
X0100390Y0157149D03*
X0101240Y0157749D03*
X0104240Y0160849D03*
D111*
X0106715Y0157449D03*
X0106790Y0156949D03*
X0102290Y0149099D03*
D112*
X0107590Y0156024D03*
X0113265Y0159724D03*
X0114390Y0149124D03*
D113*
X0109553Y0149124D03*
X0102203Y0149724D03*
X0102203Y0149774D03*
X0102203Y0149824D03*
X0102203Y0149874D03*
X0102203Y0149924D03*
X0102203Y0149974D03*
X0102203Y0150024D03*
X0102203Y0150074D03*
X0102203Y0150124D03*
X0102203Y0150174D03*
X0101103Y0155174D03*
X0101053Y0156124D03*
X0102453Y0155324D03*
X0104603Y0160374D03*
X0110203Y0157624D03*
D114*
X0113265Y0156424D03*
X0106340Y0157674D03*
X0102090Y0149124D03*
D115*
X0114365Y0149149D03*
D116*
X0109565Y0149149D03*
X0102290Y0149549D03*
X0102365Y0150849D03*
X0102390Y0150899D03*
X0101190Y0155049D03*
X0101240Y0156399D03*
X0100790Y0157949D03*
X0100790Y0157999D03*
X0100740Y0158799D03*
X0104665Y0160299D03*
X0111665Y0161799D03*
X0115065Y0161249D03*
X0116390Y0160149D03*
X0116615Y0160349D03*
X0116840Y0156199D03*
X0116415Y0154749D03*
D117*
X0118503Y0157199D03*
X0110653Y0155949D03*
X0110153Y0157749D03*
X0105703Y0161049D03*
X0100703Y0158849D03*
X0101153Y0156299D03*
X0101153Y0155099D03*
X0102303Y0150649D03*
X0107353Y0149149D03*
D118*
X0102103Y0149149D03*
D119*
X0108953Y0149424D03*
X0114303Y0149174D03*
D120*
X0110828Y0149174D03*
X0102928Y0155824D03*
X0100978Y0155524D03*
X0100978Y0155474D03*
X0101028Y0155274D03*
X0105628Y0161174D03*
X0117478Y0157474D03*
D121*
X0116353Y0154674D03*
X0109553Y0149174D03*
X0102653Y0153674D03*
X0104703Y0160224D03*
D122*
X0100728Y0158824D03*
X0100778Y0158024D03*
X0101228Y0156374D03*
X0108828Y0157824D03*
X0110078Y0157924D03*
X0116828Y0156174D03*
X0116828Y0156124D03*
X0116828Y0155874D03*
X0116428Y0154774D03*
X0107378Y0149174D03*
D123*
X0102128Y0149174D03*
X0107928Y0156224D03*
X0113278Y0156474D03*
D124*
X0113165Y0160349D03*
X0113190Y0160399D03*
X0113215Y0160449D03*
X0113265Y0160499D03*
X0107790Y0156149D03*
X0114265Y0149199D03*
D125*
X0110053Y0149199D03*
X0114053Y0154999D03*
X0112753Y0157899D03*
X0102153Y0156749D03*
D126*
X0102153Y0149199D03*
X0113453Y0155949D03*
D127*
X0108128Y0152524D03*
X0102128Y0156674D03*
X0114778Y0149224D03*
D128*
X0110003Y0149224D03*
X0105953Y0156674D03*
D129*
X0109878Y0158274D03*
X0100828Y0158674D03*
X0102528Y0151174D03*
X0107478Y0149224D03*
X0113178Y0150824D03*
X0113328Y0150574D03*
X0113428Y0150424D03*
D130*
X0113278Y0156524D03*
X0102178Y0149224D03*
D131*
X0102428Y0151449D03*
X0107828Y0158249D03*
X0112578Y0158149D03*
X0114128Y0154899D03*
X0114778Y0149249D03*
X0114778Y0161149D03*
D132*
X0112753Y0157799D03*
X0113153Y0157299D03*
X0109903Y0149249D03*
D133*
X0110778Y0150049D03*
X0107628Y0149249D03*
X0107478Y0150549D03*
X0105428Y0156449D03*
X0102528Y0155649D03*
X0114528Y0160699D03*
D134*
X0113715Y0161499D03*
X0117340Y0158449D03*
X0117440Y0158499D03*
X0111240Y0150999D03*
X0105565Y0150599D03*
X0104315Y0150349D03*
X0104315Y0149249D03*
X0102365Y0157299D03*
D135*
X0102815Y0151699D03*
X0102615Y0149249D03*
X0113240Y0157099D03*
X0113215Y0157149D03*
D136*
X0114428Y0158499D03*
X0114628Y0160199D03*
X0109078Y0157649D03*
X0105378Y0161499D03*
X0100528Y0157549D03*
X0115378Y0151899D03*
X0116028Y0150149D03*
X0100828Y0149249D03*
D137*
X0114690Y0149274D03*
X0108590Y0159074D03*
X0108490Y0159124D03*
X0104465Y0158274D03*
X0101165Y0158274D03*
X0112640Y0160824D03*
D138*
X0109015Y0149274D03*
D139*
X0109615Y0149724D03*
X0107715Y0151874D03*
X0112040Y0151774D03*
X0108140Y0156324D03*
X0105190Y0159424D03*
X0102965Y0149274D03*
D140*
X0114678Y0149299D03*
X0108428Y0159149D03*
D141*
X0109003Y0149299D03*
D142*
X0107828Y0151999D03*
X0108178Y0156349D03*
X0103078Y0149299D03*
D143*
X0114703Y0149324D03*
X0104953Y0159874D03*
X0102153Y0157024D03*
D144*
X0106903Y0157324D03*
X0109003Y0149324D03*
D145*
X0103128Y0149324D03*
X0106228Y0156774D03*
X0113428Y0156724D03*
D146*
X0114453Y0159349D03*
X0104353Y0155949D03*
X0105553Y0150499D03*
X0105553Y0150449D03*
X0100103Y0159799D03*
X0103403Y0161799D03*
X0116553Y0149349D03*
D147*
X0114740Y0149349D03*
X0114165Y0154699D03*
X0112465Y0158349D03*
X0109140Y0158799D03*
X0105040Y0153499D03*
X0104840Y0153149D03*
D148*
X0106865Y0157349D03*
X0108990Y0149349D03*
D149*
X0103340Y0149349D03*
X0103140Y0151799D03*
X0113540Y0156099D03*
X0115165Y0149499D03*
D150*
X0114765Y0149374D03*
X0105140Y0153624D03*
X0104765Y0153024D03*
X0102165Y0156874D03*
X0112240Y0158874D03*
X0112240Y0159374D03*
X0112540Y0158224D03*
D151*
X0106815Y0157374D03*
X0108990Y0149374D03*
D152*
X0111965Y0151924D03*
X0113340Y0156624D03*
X0106365Y0156824D03*
X0105190Y0159374D03*
X0103340Y0149374D03*
D153*
X0104540Y0152699D03*
X0106765Y0151249D03*
X0108140Y0152649D03*
X0108140Y0152699D03*
X0114865Y0149399D03*
X0112365Y0159599D03*
X0107490Y0158349D03*
X0105090Y0159649D03*
D154*
X0106790Y0157399D03*
X0108990Y0149399D03*
D155*
X0103340Y0149399D03*
X0103890Y0152249D03*
D156*
X0105928Y0157874D03*
X0112678Y0157574D03*
X0115178Y0149424D03*
D157*
X0111978Y0151874D03*
X0109578Y0149774D03*
X0103328Y0149424D03*
D158*
X0111978Y0151899D03*
X0115178Y0149449D03*
X0108078Y0156299D03*
X0105978Y0157849D03*
X0112678Y0157549D03*
D159*
X0115165Y0149749D03*
X0115265Y0149649D03*
X0115315Y0149599D03*
X0108865Y0149449D03*
D160*
X0103315Y0149449D03*
X0103290Y0149499D03*
X0113565Y0156199D03*
X0113365Y0156649D03*
D161*
X0112678Y0157524D03*
X0115178Y0149474D03*
D162*
X0115290Y0149624D03*
X0115140Y0149774D03*
X0108890Y0149474D03*
D163*
X0103290Y0149474D03*
X0113565Y0156224D03*
D164*
X0109678Y0149599D03*
X0109478Y0149499D03*
D165*
X0115153Y0149524D03*
X0112853Y0159024D03*
X0112853Y0159074D03*
X0106753Y0158474D03*
D166*
X0105340Y0158074D03*
X0106090Y0156724D03*
X0106740Y0150874D03*
X0109565Y0149524D03*
X0113915Y0155124D03*
X0113190Y0157224D03*
X0112740Y0157774D03*
D167*
X0112703Y0160924D03*
X0109503Y0158574D03*
X0108353Y0158074D03*
X0108103Y0159324D03*
X0108003Y0159374D03*
X0107253Y0150724D03*
X0103903Y0149524D03*
D168*
X0102328Y0149524D03*
X0100828Y0157824D03*
X0105778Y0160924D03*
X0109978Y0158124D03*
D169*
X0112840Y0159149D03*
X0113515Y0156049D03*
X0115140Y0149549D03*
X0103790Y0152199D03*
X0106090Y0157799D03*
D170*
X0112078Y0158549D03*
X0113178Y0157249D03*
X0109628Y0149549D03*
D171*
X0112028Y0152274D03*
X0115078Y0154374D03*
X0115078Y0154424D03*
X0115328Y0149574D03*
X0106428Y0158524D03*
D172*
X0105128Y0159574D03*
X0112078Y0158524D03*
X0109678Y0149574D03*
X0104328Y0152524D03*
D173*
X0102303Y0150674D03*
X0102253Y0150474D03*
X0102253Y0149574D03*
X0101153Y0156274D03*
X0110153Y0157774D03*
X0116703Y0160374D03*
D174*
X0116365Y0160049D03*
X0116240Y0159949D03*
X0113590Y0161299D03*
X0110240Y0157499D03*
X0110265Y0157399D03*
X0110540Y0156049D03*
X0116515Y0154899D03*
X0104590Y0160399D03*
X0100665Y0158899D03*
X0101065Y0156149D03*
X0101040Y0156099D03*
X0102215Y0149699D03*
X0102215Y0149649D03*
X0102215Y0149599D03*
D175*
X0107978Y0152174D03*
X0109678Y0149624D03*
X0113228Y0157124D03*
X0112278Y0160074D03*
D176*
X0114578Y0158374D03*
X0117178Y0158174D03*
X0117178Y0157824D03*
X0115528Y0151624D03*
X0116128Y0150424D03*
X0116128Y0150374D03*
X0104428Y0149624D03*
X0105278Y0161624D03*
D177*
X0113153Y0160324D03*
X0113353Y0160624D03*
X0115203Y0149724D03*
X0115253Y0149674D03*
D178*
X0112103Y0151674D03*
X0109653Y0149674D03*
X0112703Y0157674D03*
D179*
X0116140Y0159624D03*
X0118240Y0156724D03*
X0111240Y0151024D03*
X0105565Y0150624D03*
X0104465Y0149674D03*
X0101940Y0156024D03*
X0100315Y0156974D03*
X0100165Y0159674D03*
X0104115Y0161024D03*
D180*
X0101253Y0157724D03*
X0103653Y0149674D03*
X0114653Y0158324D03*
X0116203Y0159724D03*
D181*
X0113328Y0160599D03*
X0113128Y0160299D03*
X0115078Y0154499D03*
X0115228Y0149699D03*
D182*
X0112078Y0151699D03*
X0109628Y0149699D03*
X0107778Y0151949D03*
X0105178Y0159449D03*
X0112628Y0159299D03*
D183*
X0117328Y0155649D03*
X0118228Y0156749D03*
X0115778Y0151449D03*
X0116378Y0150649D03*
X0103678Y0149699D03*
X0100378Y0157099D03*
X0100278Y0159499D03*
X0105178Y0161749D03*
D184*
X0109103Y0157624D03*
X0117453Y0155474D03*
X0115403Y0151824D03*
X0115453Y0151724D03*
X0103803Y0149724D03*
D185*
X0107315Y0151499D03*
X0107490Y0151649D03*
X0107540Y0151699D03*
X0107590Y0151749D03*
X0109590Y0149749D03*
X0113565Y0156299D03*
X0105865Y0157899D03*
D186*
X0110203Y0157599D03*
X0101103Y0156199D03*
X0102203Y0150199D03*
X0102203Y0150149D03*
X0102203Y0150099D03*
X0102203Y0150049D03*
X0102203Y0149999D03*
X0102203Y0149949D03*
X0102203Y0149899D03*
X0102203Y0149849D03*
X0102203Y0149799D03*
X0102203Y0149749D03*
D187*
X0103878Y0149774D03*
X0103128Y0156024D03*
X0104828Y0156174D03*
X0104428Y0160624D03*
X0114278Y0158724D03*
X0114328Y0158624D03*
X0114378Y0158574D03*
X0114628Y0160224D03*
X0117728Y0157574D03*
X0117778Y0157624D03*
X0115678Y0149874D03*
D188*
X0114665Y0149799D03*
X0113865Y0155149D03*
X0113290Y0156999D03*
X0113265Y0157049D03*
X0112240Y0160049D03*
X0112415Y0160149D03*
X0106140Y0156749D03*
X0107965Y0152149D03*
D189*
X0109553Y0149799D03*
X0111953Y0151949D03*
X0113653Y0155199D03*
D190*
X0114115Y0149824D03*
X0107315Y0150674D03*
X0107465Y0159674D03*
X0107390Y0159724D03*
X0106240Y0160424D03*
X0106165Y0160474D03*
X0106090Y0160524D03*
X0105940Y0160624D03*
X0104890Y0159974D03*
D191*
X0112878Y0158974D03*
X0112878Y0158924D03*
X0112678Y0157474D03*
X0113528Y0156074D03*
X0109528Y0149824D03*
D192*
X0110503Y0150299D03*
X0115353Y0152049D03*
X0115653Y0149849D03*
X0117603Y0154999D03*
X0117303Y0157149D03*
X0114203Y0158799D03*
X0113653Y0161399D03*
X0105503Y0161349D03*
D193*
X0109703Y0158449D03*
X0108803Y0156599D03*
X0114003Y0149849D03*
D194*
X0111915Y0152099D03*
X0109515Y0149849D03*
X0112840Y0159249D03*
D195*
X0114290Y0158699D03*
X0118265Y0158149D03*
X0110515Y0150349D03*
X0103990Y0149899D03*
X0103965Y0149849D03*
X0103115Y0156449D03*
X0100565Y0157699D03*
X0104440Y0160599D03*
X0105465Y0161399D03*
D196*
X0105890Y0160724D03*
X0104815Y0160074D03*
X0107515Y0150524D03*
X0107565Y0150474D03*
X0113965Y0149874D03*
X0115015Y0152224D03*
D197*
X0110428Y0149874D03*
X0102528Y0155674D03*
D198*
X0102540Y0155724D03*
X0101515Y0154824D03*
X0100990Y0158474D03*
X0107465Y0150574D03*
X0108590Y0149874D03*
X0112840Y0151274D03*
X0114540Y0160724D03*
D199*
X0115040Y0161199D03*
X0109765Y0158399D03*
X0108590Y0157949D03*
X0115015Y0152199D03*
X0113940Y0149899D03*
X0102640Y0151349D03*
D200*
X0107653Y0150399D03*
X0110503Y0149899D03*
X0111853Y0161349D03*
D201*
X0100965Y0158499D03*
X0101465Y0154849D03*
X0102690Y0153699D03*
X0107540Y0150499D03*
X0108515Y0149899D03*
D202*
X0115753Y0149924D03*
X0114453Y0158474D03*
X0105403Y0161474D03*
X0100403Y0159274D03*
X0100503Y0157474D03*
X0103153Y0156174D03*
X0103153Y0156124D03*
D203*
X0105853Y0160774D03*
X0113853Y0149974D03*
X0113903Y0149924D03*
D204*
X0113803Y0150024D03*
X0113753Y0150074D03*
X0110553Y0149924D03*
X0102603Y0151274D03*
X0102503Y0155524D03*
X0100903Y0158574D03*
X0117153Y0156674D03*
D205*
X0117115Y0156624D03*
X0117090Y0156574D03*
X0117065Y0156524D03*
X0117040Y0156474D03*
X0115040Y0152174D03*
X0112940Y0151174D03*
X0108440Y0149924D03*
X0107765Y0150324D03*
X0107690Y0150374D03*
X0108640Y0157924D03*
X0109790Y0158374D03*
X0111840Y0161374D03*
X0104040Y0158324D03*
D206*
X0100928Y0158549D03*
X0107728Y0150349D03*
X0112928Y0151199D03*
X0113878Y0149949D03*
D207*
X0110603Y0149949D03*
X0107803Y0150299D03*
X0101503Y0156599D03*
X0105853Y0160799D03*
X0117003Y0156399D03*
X0117053Y0156499D03*
X0116253Y0154599D03*
D208*
X0117028Y0156449D03*
X0117178Y0156699D03*
X0113778Y0150049D03*
X0108378Y0149949D03*
X0100878Y0158599D03*
X0111828Y0161399D03*
D209*
X0114328Y0158649D03*
X0117328Y0157299D03*
X0117728Y0157549D03*
X0117828Y0157699D03*
X0117878Y0157799D03*
X0116378Y0150599D03*
X0115878Y0149999D03*
X0110528Y0150399D03*
X0104028Y0149949D03*
X0102428Y0155249D03*
X0103128Y0156399D03*
D210*
X0106715Y0160124D03*
X0106790Y0160074D03*
X0106965Y0159974D03*
X0107215Y0159824D03*
X0108440Y0158024D03*
X0110765Y0149974D03*
D211*
X0108328Y0149974D03*
X0107978Y0150174D03*
X0107828Y0150274D03*
X0112978Y0151124D03*
D212*
X0115353Y0151974D03*
X0110553Y0150424D03*
X0104053Y0149974D03*
X0100553Y0157624D03*
X0100553Y0157674D03*
X0103253Y0158424D03*
X0114303Y0158674D03*
X0117853Y0157724D03*
D213*
X0117140Y0156649D03*
X0117115Y0156599D03*
X0117090Y0156549D03*
X0112965Y0151149D03*
X0113840Y0149999D03*
X0110740Y0150099D03*
X0102615Y0151299D03*
X0101390Y0154899D03*
X0102515Y0155549D03*
D214*
X0102665Y0151399D03*
X0107415Y0150599D03*
X0110790Y0149999D03*
X0116140Y0154549D03*
X0114690Y0160849D03*
D215*
X0111815Y0161449D03*
X0109815Y0158349D03*
X0105315Y0156399D03*
X0102515Y0155499D03*
X0104765Y0160149D03*
X0107865Y0150249D03*
X0107940Y0150199D03*
X0108015Y0150149D03*
X0108090Y0150099D03*
X0108190Y0150049D03*
X0108265Y0149999D03*
X0112990Y0151099D03*
X0113690Y0150149D03*
X0113740Y0150099D03*
D216*
X0110778Y0150024D03*
D217*
X0110765Y0150074D03*
X0107640Y0150424D03*
X0102515Y0155574D03*
X0101440Y0154874D03*
X0101565Y0156624D03*
X0116215Y0154574D03*
D218*
X0118028Y0155124D03*
X0104728Y0150074D03*
D219*
X0104128Y0150074D03*
X0100528Y0157524D03*
X0104378Y0160674D03*
X0113678Y0161424D03*
X0118278Y0158174D03*
X0115378Y0151924D03*
D220*
X0110728Y0150124D03*
X0117228Y0156774D03*
X0105828Y0160824D03*
D221*
X0103403Y0158399D03*
X0103003Y0156599D03*
X0100553Y0159049D03*
X0104303Y0150149D03*
X0116603Y0155199D03*
X0116603Y0155249D03*
X0118253Y0158099D03*
D222*
X0111503Y0161874D03*
X0109853Y0158324D03*
X0108903Y0156624D03*
X0104753Y0160174D03*
X0101453Y0156574D03*
X0102503Y0155474D03*
X0101353Y0154924D03*
X0113053Y0151024D03*
X0113603Y0150224D03*
X0113653Y0150174D03*
D223*
X0116053Y0150199D03*
X0110753Y0150599D03*
X0103153Y0156099D03*
X0103153Y0156149D03*
X0100503Y0157499D03*
X0118253Y0156799D03*
D224*
X0116978Y0156349D03*
X0113028Y0151049D03*
X0113628Y0150199D03*
X0102578Y0151249D03*
X0113478Y0161199D03*
D225*
X0113628Y0161374D03*
X0116628Y0155424D03*
X0110478Y0150224D03*
D226*
X0113065Y0150999D03*
X0113090Y0150949D03*
X0113440Y0150399D03*
X0113490Y0150349D03*
X0113540Y0150299D03*
X0113590Y0150249D03*
X0115065Y0152149D03*
X0117240Y0156799D03*
X0115990Y0159899D03*
X0111940Y0161299D03*
X0109865Y0158299D03*
X0108690Y0157899D03*
X0105815Y0160849D03*
X0103865Y0158349D03*
X0102540Y0151199D03*
D227*
X0102565Y0151224D03*
X0113090Y0150974D03*
X0113115Y0150924D03*
X0113465Y0150374D03*
X0113515Y0150324D03*
X0113565Y0150274D03*
X0116290Y0154624D03*
X0116440Y0160274D03*
X0111815Y0161474D03*
D228*
X0118528Y0157224D03*
X0102328Y0157974D03*
X0101078Y0156174D03*
X0102228Y0150324D03*
X0102228Y0150274D03*
D229*
X0111003Y0158449D03*
X0117453Y0155449D03*
X0118603Y0157349D03*
X0116103Y0150299D03*
D230*
X0116115Y0150324D03*
X0115490Y0151674D03*
X0117465Y0155224D03*
X0117415Y0155524D03*
X0117190Y0157874D03*
X0117190Y0158124D03*
X0114515Y0158424D03*
X0110740Y0150624D03*
X0104715Y0156124D03*
X0100465Y0157324D03*
X0105315Y0161574D03*
D231*
X0100428Y0157224D03*
X0104328Y0150324D03*
X0115678Y0151524D03*
X0117378Y0155574D03*
X0117178Y0157724D03*
X0117178Y0158224D03*
D232*
X0116365Y0160074D03*
X0113590Y0161274D03*
X0110165Y0157724D03*
X0110165Y0157674D03*
X0109065Y0156674D03*
X0110615Y0155974D03*
X0116465Y0154824D03*
X0105690Y0161074D03*
X0103590Y0158374D03*
X0100690Y0158874D03*
X0101115Y0156224D03*
X0102265Y0150524D03*
X0102240Y0150424D03*
X0102240Y0150374D03*
D233*
X0111328Y0151249D03*
X0116128Y0150399D03*
X0117178Y0157799D03*
X0117178Y0158199D03*
X0117128Y0160549D03*
X0109128Y0157599D03*
X0104278Y0160799D03*
X0100328Y0159399D03*
D234*
X0100440Y0157249D03*
X0104665Y0156099D03*
X0105265Y0161649D03*
X0114640Y0160149D03*
X0117440Y0155149D03*
X0115565Y0151599D03*
X0116140Y0150449D03*
D235*
X0113403Y0150449D03*
X0113153Y0150849D03*
X0109903Y0158249D03*
X0111803Y0161499D03*
X0111553Y0161849D03*
X0102503Y0155449D03*
D236*
X0104803Y0160099D03*
X0107603Y0150449D03*
D237*
X0102490Y0151124D03*
X0102490Y0155424D03*
X0109915Y0158224D03*
X0111990Y0161274D03*
X0111790Y0161524D03*
X0115090Y0152124D03*
X0113240Y0150724D03*
X0113265Y0150674D03*
X0113290Y0150624D03*
X0113365Y0150524D03*
X0113390Y0150474D03*
D238*
X0113340Y0150549D03*
X0113315Y0150599D03*
X0113240Y0150699D03*
X0113215Y0150749D03*
X0113190Y0150799D03*
X0116490Y0160299D03*
X0100815Y0158699D03*
X0101315Y0154949D03*
X0102515Y0151149D03*
D239*
X0105553Y0150549D03*
X0104453Y0155999D03*
X0100303Y0156949D03*
X0100153Y0159699D03*
X0104053Y0161099D03*
X0118603Y0157399D03*
D240*
X0116378Y0160099D03*
X0110128Y0157799D03*
X0104628Y0160349D03*
X0102278Y0150599D03*
X0102278Y0150549D03*
D241*
X0105553Y0150574D03*
X0104403Y0155974D03*
D242*
X0101178Y0156324D03*
X0101128Y0155124D03*
X0102278Y0150574D03*
X0110128Y0157824D03*
D243*
X0105478Y0156474D03*
X0101028Y0158424D03*
X0107378Y0150624D03*
X0114728Y0160874D03*
D244*
X0114753Y0160899D03*
X0107253Y0159799D03*
X0106353Y0160349D03*
X0104253Y0158299D03*
X0107353Y0150649D03*
D245*
X0110728Y0150674D03*
X0111228Y0150924D03*
X0101928Y0156074D03*
X0109178Y0157524D03*
X0110728Y0159674D03*
X0117378Y0160674D03*
X0103928Y0161224D03*
X0103428Y0161774D03*
D246*
X0104915Y0159949D03*
X0107690Y0159549D03*
X0107790Y0159499D03*
X0107290Y0150699D03*
D247*
X0102340Y0150749D03*
X0102315Y0150699D03*
X0102465Y0155349D03*
X0101190Y0156349D03*
X0102240Y0157999D03*
X0110090Y0157899D03*
X0110115Y0157849D03*
X0112140Y0161199D03*
X0111740Y0161749D03*
X0113565Y0161249D03*
X0116815Y0156099D03*
X0116815Y0156049D03*
X0116815Y0155999D03*
X0116815Y0155949D03*
X0116440Y0154799D03*
D248*
X0107228Y0150749D03*
X0102128Y0157099D03*
D249*
X0105253Y0156374D03*
X0105803Y0160874D03*
X0115053Y0161224D03*
X0116403Y0160224D03*
X0116953Y0156324D03*
X0113153Y0150874D03*
X0113203Y0150774D03*
D250*
X0107190Y0150774D03*
X0102140Y0157074D03*
X0108390Y0159174D03*
X0109415Y0158624D03*
X0112665Y0160874D03*
D251*
X0102165Y0156999D03*
X0101190Y0158249D03*
X0108615Y0156549D03*
X0107140Y0150799D03*
D252*
X0105653Y0150799D03*
X0103103Y0158449D03*
X0100453Y0157299D03*
X0105303Y0161599D03*
X0117403Y0155549D03*
X0117453Y0155099D03*
X0115503Y0151649D03*
D253*
X0110053Y0157999D03*
X0111753Y0161699D03*
X0102353Y0150799D03*
D254*
X0111253Y0150824D03*
D255*
X0112203Y0151574D03*
X0106753Y0150824D03*
X0113203Y0157174D03*
X0112503Y0159674D03*
D256*
X0112103Y0161224D03*
X0110053Y0157974D03*
X0110103Y0157874D03*
X0102153Y0158024D03*
X0102353Y0150824D03*
D257*
X0104303Y0152499D03*
X0106753Y0150849D03*
X0108003Y0152199D03*
X0113203Y0157199D03*
X0112553Y0160199D03*
D258*
X0111765Y0161674D03*
X0110040Y0158024D03*
X0105140Y0156324D03*
X0101265Y0156424D03*
X0100790Y0157974D03*
X0102365Y0150874D03*
X0116840Y0156224D03*
X0118490Y0157174D03*
D259*
X0107253Y0158399D03*
X0106753Y0150899D03*
D260*
X0106740Y0150924D03*
X0106740Y0150974D03*
X0113165Y0157274D03*
X0113040Y0157424D03*
D261*
X0105240Y0158099D03*
X0104365Y0152549D03*
X0106740Y0150949D03*
X0108065Y0152299D03*
X0112240Y0151549D03*
D262*
X0102428Y0150974D03*
X0101228Y0155024D03*
X0102478Y0155374D03*
X0104678Y0160274D03*
X0111778Y0161624D03*
D263*
X0112440Y0159649D03*
X0112090Y0158599D03*
X0113965Y0155099D03*
X0108090Y0152349D03*
X0106740Y0151049D03*
X0106740Y0150999D03*
X0104415Y0152599D03*
X0105115Y0159599D03*
D264*
X0108340Y0156424D03*
X0108090Y0152374D03*
X0106740Y0151074D03*
X0106740Y0151024D03*
X0112290Y0151524D03*
X0113140Y0157324D03*
D265*
X0116390Y0154724D03*
X0102440Y0151024D03*
X0100815Y0157874D03*
X0101990Y0158074D03*
D266*
X0101353Y0156499D03*
X0101253Y0154999D03*
X0102453Y0151049D03*
X0105203Y0156349D03*
X0104703Y0160249D03*
X0112053Y0161249D03*
D267*
X0109153Y0157549D03*
X0105103Y0161849D03*
X0101303Y0157599D03*
X0100353Y0157049D03*
X0111253Y0151099D03*
X0117253Y0155749D03*
D268*
X0113140Y0157349D03*
X0113115Y0157399D03*
X0112090Y0158649D03*
X0112340Y0151349D03*
X0108140Y0152499D03*
X0106740Y0151099D03*
D269*
X0102478Y0151099D03*
X0110778Y0155899D03*
X0109928Y0158199D03*
X0116928Y0156299D03*
X0118428Y0157099D03*
D270*
X0113990Y0155074D03*
X0113140Y0157374D03*
X0107365Y0158374D03*
X0108140Y0152474D03*
X0106740Y0151124D03*
X0112340Y0151324D03*
X0112340Y0151374D03*
D271*
X0111265Y0151149D03*
X0117290Y0155699D03*
X0117190Y0157649D03*
X0117190Y0158299D03*
X0117215Y0158349D03*
X0118290Y0158249D03*
X0116190Y0159699D03*
X0105140Y0161799D03*
X0100240Y0159549D03*
X0101265Y0157699D03*
X0101290Y0157649D03*
X0101965Y0155949D03*
X0104565Y0156049D03*
D272*
X0105053Y0158149D03*
X0106753Y0151149D03*
D273*
X0111278Y0151174D03*
X0102428Y0155224D03*
X0101278Y0157674D03*
X0100378Y0157124D03*
X0104228Y0160874D03*
X0117178Y0160574D03*
X0117178Y0158274D03*
X0117178Y0157674D03*
D274*
X0112340Y0151474D03*
X0112340Y0151424D03*
X0108140Y0152574D03*
X0106765Y0151174D03*
X0102640Y0151624D03*
D275*
X0102603Y0151599D03*
X0106753Y0151199D03*
X0108403Y0156449D03*
X0115053Y0160999D03*
D276*
X0100953Y0158524D03*
X0112903Y0151224D03*
D277*
X0108140Y0152624D03*
X0108140Y0152674D03*
X0106765Y0151224D03*
X0104565Y0152724D03*
X0102140Y0156724D03*
X0112765Y0157874D03*
X0115015Y0161024D03*
D278*
X0105878Y0160749D03*
X0102528Y0155599D03*
X0112878Y0151249D03*
D279*
X0106778Y0151274D03*
X0102578Y0151574D03*
X0112128Y0158724D03*
X0112728Y0157924D03*
D280*
X0108503Y0157999D03*
X0102553Y0155749D03*
X0101003Y0158449D03*
X0112803Y0151299D03*
D281*
X0106778Y0151299D03*
X0104578Y0152749D03*
X0114978Y0161049D03*
D282*
X0105090Y0159674D03*
X0104940Y0158174D03*
X0104615Y0152774D03*
X0102515Y0151524D03*
X0106790Y0151324D03*
X0108140Y0152724D03*
X0108140Y0152774D03*
D283*
X0102628Y0151324D03*
X0104778Y0160124D03*
D284*
X0112140Y0158749D03*
X0112715Y0157949D03*
X0108140Y0152749D03*
X0106790Y0151349D03*
X0102540Y0151549D03*
D285*
X0102653Y0151374D03*
X0108553Y0157974D03*
X0114503Y0160674D03*
D286*
X0112765Y0157849D03*
X0114015Y0155049D03*
X0112340Y0151449D03*
X0112340Y0151399D03*
X0108140Y0152549D03*
X0108140Y0152599D03*
X0102140Y0156699D03*
D287*
X0103990Y0152299D03*
X0103015Y0151749D03*
X0107165Y0151399D03*
D288*
X0107203Y0151424D03*
X0113553Y0156324D03*
D289*
X0105053Y0159724D03*
X0104703Y0152924D03*
X0102403Y0151424D03*
D290*
X0107253Y0151449D03*
X0107653Y0151799D03*
X0107703Y0151849D03*
X0106303Y0156799D03*
D291*
X0112678Y0157624D03*
X0113378Y0156674D03*
X0107678Y0151824D03*
X0107278Y0151474D03*
D292*
X0104653Y0152824D03*
X0102453Y0151474D03*
X0108453Y0156474D03*
X0107753Y0158274D03*
X0114103Y0154924D03*
D293*
X0112328Y0151499D03*
X0104478Y0152649D03*
X0102678Y0151649D03*
D294*
X0102490Y0151499D03*
X0104665Y0152849D03*
X0108115Y0152849D03*
X0108115Y0152899D03*
X0114090Y0154949D03*
X0112640Y0158049D03*
X0107665Y0158299D03*
X0102165Y0156799D03*
D295*
X0103940Y0152274D03*
X0107340Y0151524D03*
X0107465Y0151624D03*
X0107515Y0151674D03*
X0107565Y0151724D03*
X0107615Y0151774D03*
X0112015Y0151824D03*
X0113565Y0156274D03*
D296*
X0117178Y0157749D03*
X0117178Y0158249D03*
X0116228Y0159749D03*
X0115628Y0151549D03*
X0101978Y0155899D03*
X0100428Y0157199D03*
X0105228Y0161699D03*
D297*
X0105178Y0159399D03*
X0112678Y0157599D03*
X0107428Y0151599D03*
X0107378Y0151549D03*
D298*
X0107403Y0151574D03*
D299*
X0107878Y0152049D03*
X0112128Y0151649D03*
X0112578Y0159699D03*
D300*
X0112078Y0158574D03*
X0108078Y0152324D03*
X0104378Y0152574D03*
X0102728Y0151674D03*
D301*
X0102903Y0151724D03*
D302*
X0112053Y0151749D03*
D303*
X0115428Y0151774D03*
X0117478Y0155274D03*
X0117178Y0157924D03*
X0117078Y0160524D03*
X0104328Y0160724D03*
X0100378Y0159324D03*
X0100478Y0157374D03*
D304*
X0103103Y0151774D03*
X0113553Y0156124D03*
X0113453Y0156374D03*
D305*
X0112028Y0151799D03*
X0106928Y0158449D03*
D306*
X0108015Y0156274D03*
X0112840Y0159124D03*
X0111940Y0152024D03*
X0103190Y0151824D03*
D307*
X0112003Y0151849D03*
X0113553Y0156249D03*
D308*
X0111928Y0152049D03*
X0103228Y0151849D03*
X0106428Y0156849D03*
D309*
X0103278Y0151874D03*
D310*
X0107740Y0151899D03*
X0112690Y0157649D03*
D311*
X0113290Y0156549D03*
X0111940Y0152149D03*
X0107965Y0156249D03*
X0105215Y0159299D03*
X0103640Y0152099D03*
X0103315Y0151899D03*
D312*
X0103365Y0151924D03*
X0103590Y0152074D03*
X0103665Y0152124D03*
X0113565Y0155224D03*
D313*
X0106203Y0157749D03*
X0103553Y0152049D03*
X0103403Y0151949D03*
D314*
X0103840Y0152224D03*
X0111940Y0151974D03*
X0106040Y0157824D03*
D315*
X0113790Y0155174D03*
X0107815Y0151974D03*
D316*
X0103428Y0151974D03*
X0106478Y0156874D03*
X0113478Y0155974D03*
D317*
X0112853Y0158999D03*
X0112853Y0159049D03*
X0112853Y0159099D03*
X0105203Y0159349D03*
X0111953Y0151999D03*
D318*
X0103465Y0151999D03*
D319*
X0104140Y0152374D03*
X0107865Y0152024D03*
X0105665Y0157974D03*
X0105165Y0159474D03*
D320*
X0103503Y0152024D03*
D321*
X0111928Y0152074D03*
D322*
X0111915Y0152124D03*
X0113515Y0156024D03*
X0113290Y0156574D03*
X0112840Y0159224D03*
D323*
X0113503Y0155999D03*
X0103703Y0152149D03*
D324*
X0111965Y0152174D03*
X0105215Y0159274D03*
D325*
X0105203Y0159324D03*
X0112853Y0159174D03*
X0103753Y0152174D03*
D326*
X0111990Y0152199D03*
X0113265Y0156449D03*
D327*
X0112003Y0152224D03*
D328*
X0108028Y0152224D03*
X0112078Y0158474D03*
D329*
X0112015Y0152249D03*
D330*
X0108040Y0152249D03*
X0108290Y0156399D03*
X0112065Y0158499D03*
X0105140Y0159549D03*
D331*
X0109653Y0158474D03*
X0114603Y0160774D03*
X0115003Y0152274D03*
D332*
X0108053Y0152274D03*
D333*
X0102553Y0155799D03*
X0115003Y0152299D03*
D334*
X0112053Y0152299D03*
X0106553Y0157549D03*
X0113103Y0160249D03*
X0113303Y0160549D03*
D335*
X0112753Y0160974D03*
X0112753Y0161024D03*
X0107303Y0159774D03*
X0107053Y0159924D03*
X0106553Y0160224D03*
X0106403Y0160324D03*
X0106303Y0160374D03*
X0115003Y0152324D03*
D336*
X0112053Y0152324D03*
D337*
X0115003Y0152349D03*
X0108403Y0158049D03*
X0107603Y0159599D03*
X0105553Y0156499D03*
D338*
X0112053Y0152349D03*
D339*
X0104103Y0152349D03*
D340*
X0102115Y0157124D03*
X0112690Y0161124D03*
X0115015Y0152374D03*
D341*
X0112053Y0152374D03*
X0107753Y0156124D03*
D342*
X0113028Y0152399D03*
D343*
X0108103Y0152399D03*
D344*
X0113028Y0152424D03*
D345*
X0108128Y0152424D03*
D346*
X0113040Y0152449D03*
D347*
X0108128Y0152449D03*
X0106028Y0156699D03*
X0102128Y0156649D03*
D348*
X0113053Y0152474D03*
D349*
X0113053Y0152499D03*
D350*
X0113053Y0152524D03*
D351*
X0113065Y0152549D03*
D352*
X0113065Y0152574D03*
D353*
X0113065Y0152599D03*
D354*
X0113065Y0152624D03*
D355*
X0104453Y0152624D03*
X0105153Y0158124D03*
X0112103Y0158624D03*
X0112753Y0157824D03*
D356*
X0113053Y0152649D03*
D357*
X0113040Y0152674D03*
D358*
X0114028Y0155024D03*
X0104528Y0152674D03*
D359*
X0113040Y0152699D03*
D360*
X0113040Y0152724D03*
X0107415Y0155074D03*
D361*
X0113028Y0152749D03*
D362*
X0113015Y0152774D03*
D363*
X0113003Y0152799D03*
D364*
X0108128Y0152799D03*
X0104628Y0152799D03*
X0102828Y0153799D03*
X0112678Y0157999D03*
X0114878Y0161099D03*
D365*
X0107415Y0155024D03*
X0112990Y0152824D03*
D366*
X0114078Y0154974D03*
X0112328Y0159574D03*
X0114928Y0161074D03*
X0107578Y0158324D03*
X0108128Y0152824D03*
D367*
X0112965Y0152849D03*
D368*
X0112940Y0152874D03*
D369*
X0108115Y0152874D03*
X0112665Y0158024D03*
D370*
X0112628Y0158074D03*
X0114828Y0161124D03*
X0104678Y0152874D03*
D371*
X0112903Y0152899D03*
D372*
X0104690Y0152899D03*
X0101365Y0158099D03*
D373*
X0111703Y0152924D03*
D374*
X0111715Y0152949D03*
X0108040Y0154849D03*
D375*
X0105165Y0153649D03*
X0104740Y0152949D03*
X0102165Y0156849D03*
X0112215Y0158849D03*
X0112265Y0159349D03*
D376*
X0111715Y0152974D03*
D377*
X0104753Y0152974D03*
X0102803Y0153774D03*
D378*
X0111715Y0152999D03*
D379*
X0104753Y0152999D03*
X0112553Y0158199D03*
X0112253Y0159499D03*
X0117953Y0157049D03*
D380*
X0111715Y0153024D03*
D381*
X0111728Y0153049D03*
D382*
X0104778Y0153049D03*
X0112528Y0158249D03*
D383*
X0111728Y0153074D03*
D384*
X0114165Y0154774D03*
X0105090Y0153574D03*
X0104790Y0153074D03*
X0101265Y0158174D03*
D385*
X0111728Y0153149D03*
X0111728Y0153099D03*
D386*
X0114165Y0154749D03*
X0112490Y0158299D03*
X0112215Y0159449D03*
X0107990Y0158199D03*
X0102190Y0156899D03*
X0104815Y0153099D03*
D387*
X0111728Y0153124D03*
D388*
X0104828Y0153124D03*
X0112478Y0158324D03*
D389*
X0111740Y0153174D03*
D390*
X0114165Y0154724D03*
X0108565Y0156524D03*
X0108065Y0158174D03*
X0108990Y0158874D03*
X0109090Y0158824D03*
X0112565Y0160674D03*
X0102190Y0156924D03*
X0105015Y0153474D03*
X0104840Y0153174D03*
D391*
X0111728Y0153199D03*
D392*
X0112453Y0158399D03*
X0108953Y0158899D03*
X0105003Y0153449D03*
X0104853Y0153199D03*
D393*
X0111740Y0153224D03*
D394*
X0114165Y0154624D03*
X0117665Y0156874D03*
X0117715Y0156924D03*
X0112440Y0158424D03*
X0112590Y0160724D03*
X0108890Y0158924D03*
X0108790Y0158974D03*
X0104990Y0159824D03*
X0105715Y0156574D03*
X0104990Y0153424D03*
X0104965Y0153374D03*
X0104915Y0153324D03*
X0104890Y0153274D03*
X0104865Y0153224D03*
D395*
X0111728Y0153249D03*
D396*
X0109215Y0158749D03*
X0108840Y0158949D03*
X0112590Y0160749D03*
X0117640Y0156849D03*
X0117690Y0156899D03*
X0104965Y0153399D03*
X0104940Y0153349D03*
X0104915Y0153299D03*
X0104890Y0153249D03*
X0102190Y0156949D03*
D397*
X0111728Y0153274D03*
D398*
X0111728Y0153299D03*
D399*
X0111728Y0153324D03*
D400*
X0111728Y0153349D03*
D401*
X0111715Y0153374D03*
D402*
X0111715Y0153399D03*
D403*
X0111715Y0153424D03*
D404*
X0111703Y0153449D03*
D405*
X0111678Y0153474D03*
D406*
X0111678Y0153499D03*
D407*
X0111665Y0153524D03*
D408*
X0105053Y0153524D03*
D409*
X0111653Y0153549D03*
D410*
X0109053Y0158849D03*
X0112553Y0160649D03*
X0105003Y0159799D03*
X0101253Y0158199D03*
X0105053Y0153549D03*
D411*
X0111653Y0153574D03*
D412*
X0111640Y0153599D03*
D413*
X0114153Y0154799D03*
X0105103Y0153599D03*
X0101303Y0158149D03*
D414*
X0111628Y0153624D03*
D415*
X0111603Y0153649D03*
D416*
X0111565Y0153674D03*
D417*
X0112590Y0158124D03*
X0112190Y0158824D03*
X0105190Y0153674D03*
X0102165Y0156824D03*
D418*
X0110428Y0153749D03*
X0110428Y0153699D03*
D419*
X0110428Y0153724D03*
X0110428Y0153774D03*
D420*
X0107740Y0159524D03*
X0102740Y0153724D03*
D421*
X0102778Y0153749D03*
X0104978Y0159849D03*
X0108728Y0158999D03*
X0112428Y0158449D03*
X0114178Y0154599D03*
X0114178Y0154549D03*
D422*
X0110453Y0153799D03*
D423*
X0109203Y0153824D03*
D424*
X0109178Y0153849D03*
D425*
X0109153Y0153874D03*
D426*
X0109140Y0153899D03*
D427*
X0109128Y0153924D03*
D428*
X0109103Y0153949D03*
D429*
X0109090Y0153974D03*
D430*
X0109065Y0153999D03*
D431*
X0109065Y0154024D03*
D432*
X0109053Y0154049D03*
D433*
X0109040Y0154074D03*
D434*
X0109028Y0154099D03*
D435*
X0109015Y0154124D03*
D436*
X0109003Y0154149D03*
D437*
X0108990Y0154174D03*
D438*
X0108990Y0154199D03*
D439*
X0108978Y0154224D03*
D440*
X0108978Y0154249D03*
D441*
X0108965Y0154274D03*
D442*
X0108953Y0154299D03*
D443*
X0108953Y0154324D03*
D444*
X0113365Y0155899D03*
X0115090Y0154349D03*
D445*
X0107090Y0154349D03*
X0107015Y0154449D03*
X0106990Y0154499D03*
X0106965Y0154549D03*
X0106940Y0154599D03*
D446*
X0106940Y0154574D03*
X0106915Y0154624D03*
X0106965Y0154524D03*
X0107015Y0154474D03*
X0107040Y0154424D03*
X0107065Y0154374D03*
D447*
X0105228Y0159199D03*
X0115078Y0154449D03*
X0115078Y0154399D03*
D448*
X0107053Y0154399D03*
X0106903Y0154649D03*
D449*
X0106678Y0156924D03*
X0105228Y0159174D03*
X0113128Y0160274D03*
X0113278Y0160524D03*
X0115078Y0154524D03*
X0115078Y0154474D03*
D450*
X0114178Y0154574D03*
X0117778Y0156974D03*
X0102178Y0156974D03*
D451*
X0112578Y0160699D03*
X0114178Y0154649D03*
D452*
X0114178Y0154674D03*
X0109178Y0158774D03*
X0114878Y0160974D03*
X0101228Y0158224D03*
D453*
X0106878Y0154674D03*
D454*
X0106865Y0154699D03*
X0106840Y0154749D03*
D455*
X0106853Y0154724D03*
D456*
X0106828Y0154774D03*
D457*
X0106803Y0154799D03*
D458*
X0112503Y0158274D03*
X0112203Y0159424D03*
X0114153Y0154824D03*
D459*
X0108003Y0154824D03*
D460*
X0108515Y0156499D03*
X0112290Y0158899D03*
X0112215Y0159399D03*
X0114140Y0154849D03*
X0105040Y0159749D03*
D461*
X0102953Y0158474D03*
X0101353Y0157424D03*
X0100203Y0159624D03*
X0104503Y0156024D03*
X0117303Y0158424D03*
X0117403Y0158474D03*
X0117603Y0154874D03*
D462*
X0114128Y0154874D03*
X0105828Y0156624D03*
X0104728Y0158224D03*
X0101328Y0158124D03*
D463*
X0108078Y0154874D03*
D464*
X0108103Y0154899D03*
D465*
X0102003Y0155874D03*
X0100453Y0157274D03*
X0100353Y0159374D03*
X0104303Y0160774D03*
X0117453Y0155174D03*
X0117603Y0154924D03*
X0118253Y0156774D03*
D466*
X0116528Y0154924D03*
X0110528Y0156074D03*
X0110278Y0157324D03*
X0110278Y0157374D03*
X0105028Y0156274D03*
D467*
X0108103Y0154924D03*
D468*
X0108103Y0154949D03*
D469*
X0107928Y0154974D03*
D470*
X0108728Y0157874D03*
X0101378Y0156524D03*
X0101278Y0154974D03*
D471*
X0101003Y0155349D03*
X0101003Y0155399D03*
X0100953Y0155599D03*
X0100953Y0155649D03*
X0100953Y0155699D03*
X0100953Y0155749D03*
X0110353Y0156849D03*
X0110353Y0156899D03*
X0110353Y0156949D03*
X0110353Y0156999D03*
X0110353Y0157049D03*
X0110453Y0156199D03*
X0116553Y0154999D03*
X0118253Y0158049D03*
X0104553Y0160449D03*
D472*
X0107390Y0154999D03*
D473*
X0107415Y0155049D03*
D474*
X0107390Y0155099D03*
D475*
X0107378Y0155124D03*
D476*
X0107390Y0155149D03*
D477*
X0107390Y0155174D03*
D478*
X0107390Y0155199D03*
D479*
X0107403Y0155224D03*
D480*
X0108903Y0157774D03*
X0110303Y0157274D03*
X0105653Y0161124D03*
X0101003Y0155974D03*
X0101053Y0155224D03*
X0118253Y0158024D03*
D481*
X0113453Y0155249D03*
D482*
X0107403Y0155249D03*
D483*
X0113290Y0155274D03*
D484*
X0107428Y0155274D03*
D485*
X0113153Y0155299D03*
D486*
X0107440Y0155299D03*
D487*
X0113103Y0155324D03*
D488*
X0107440Y0155324D03*
D489*
X0105203Y0158999D03*
X0113053Y0155349D03*
D490*
X0107453Y0155349D03*
D491*
X0107040Y0157024D03*
X0113015Y0155374D03*
D492*
X0107465Y0155374D03*
D493*
X0110453Y0156174D03*
X0110353Y0156874D03*
X0110353Y0156924D03*
X0110353Y0156974D03*
X0110353Y0157024D03*
X0113603Y0161324D03*
X0102503Y0157924D03*
X0100603Y0158974D03*
X0100953Y0155774D03*
X0100953Y0155724D03*
X0100953Y0155674D03*
X0100953Y0155624D03*
X0101003Y0155374D03*
D494*
X0107465Y0155399D03*
D495*
X0112953Y0155424D03*
D496*
X0107478Y0155424D03*
X0107228Y0155774D03*
D497*
X0112928Y0155449D03*
D498*
X0107478Y0155449D03*
D499*
X0112903Y0155474D03*
D500*
X0107490Y0155474D03*
D501*
X0107590Y0155599D03*
X0107415Y0155899D03*
X0112890Y0155499D03*
D502*
X0107503Y0155499D03*
D503*
X0107565Y0155574D03*
X0112865Y0155524D03*
D504*
X0107528Y0155524D03*
D505*
X0112853Y0155549D03*
D506*
X0112790Y0155649D03*
X0107540Y0155549D03*
D507*
X0112840Y0155574D03*
D508*
X0112828Y0155599D03*
D509*
X0112803Y0155624D03*
X0105553Y0158674D03*
D510*
X0107603Y0155624D03*
D511*
X0105378Y0156424D03*
X0102528Y0155624D03*
X0109728Y0158424D03*
D512*
X0112778Y0155674D03*
D513*
X0107628Y0155674D03*
D514*
X0105465Y0158699D03*
X0105115Y0158899D03*
X0112765Y0155699D03*
X0113090Y0159749D03*
D515*
X0107653Y0155699D03*
D516*
X0101378Y0157224D03*
X0101378Y0157274D03*
X0101328Y0157524D03*
X0100228Y0159574D03*
X0105078Y0161874D03*
X0105128Y0161824D03*
X0117178Y0157624D03*
X0117278Y0155724D03*
D517*
X0112765Y0155724D03*
D518*
X0107653Y0155724D03*
D519*
X0112753Y0155749D03*
D520*
X0112915Y0159899D03*
X0107040Y0157199D03*
X0107615Y0155749D03*
D521*
X0101953Y0155974D03*
X0101303Y0157624D03*
X0104153Y0160974D03*
X0117203Y0158324D03*
X0117253Y0155774D03*
D522*
X0112740Y0155774D03*
D523*
X0102565Y0155774D03*
X0105915Y0160674D03*
X0114665Y0160824D03*
D524*
X0112715Y0155799D03*
D525*
X0107253Y0155799D03*
D526*
X0100578Y0157774D03*
X0105478Y0161374D03*
X0116628Y0155824D03*
X0117378Y0157374D03*
D527*
X0112703Y0155824D03*
X0107303Y0155824D03*
D528*
X0110078Y0157949D03*
X0105728Y0160999D03*
X0100778Y0158049D03*
X0116828Y0156149D03*
X0116828Y0155899D03*
X0116828Y0155849D03*
D529*
X0112690Y0155849D03*
D530*
X0107328Y0155849D03*
D531*
X0112690Y0155874D03*
X0113140Y0159774D03*
D532*
X0107378Y0155874D03*
X0105128Y0158924D03*
D533*
X0113403Y0155924D03*
D534*
X0107440Y0155924D03*
D535*
X0107478Y0155949D03*
X0107078Y0157099D03*
D536*
X0107015Y0157224D03*
X0107515Y0155974D03*
D537*
X0107553Y0155999D03*
D538*
X0110503Y0156099D03*
X0110303Y0157249D03*
X0110253Y0157449D03*
X0117503Y0157499D03*
X0101003Y0155999D03*
D539*
X0107628Y0156049D03*
D540*
X0107665Y0156074D03*
X0106140Y0158574D03*
D541*
X0107703Y0156099D03*
D542*
X0113503Y0156349D03*
X0113553Y0156149D03*
D543*
X0113553Y0156174D03*
D544*
X0107840Y0156174D03*
X0106515Y0157574D03*
D545*
X0107878Y0156199D03*
D546*
X0110403Y0156324D03*
X0110403Y0156374D03*
X0118253Y0158074D03*
D547*
X0113378Y0156874D03*
X0112728Y0157724D03*
X0108228Y0156374D03*
D548*
X0105228Y0159249D03*
X0113278Y0156399D03*
D549*
X0110378Y0156449D03*
X0110378Y0156499D03*
X0110378Y0156549D03*
X0110378Y0156599D03*
X0109128Y0156699D03*
X0100578Y0158999D03*
D550*
X0102078Y0158049D03*
X0101278Y0156449D03*
X0110028Y0158049D03*
X0111778Y0161649D03*
X0118478Y0157149D03*
D551*
X0113265Y0156499D03*
X0106590Y0158499D03*
X0106290Y0157699D03*
D552*
X0105603Y0156524D03*
X0108203Y0159274D03*
X0108303Y0159224D03*
D553*
X0108540Y0159099D03*
X0109365Y0158649D03*
X0105665Y0156549D03*
D554*
X0108703Y0156574D03*
X0107653Y0159574D03*
X0107553Y0159624D03*
X0106003Y0160574D03*
D555*
X0112878Y0158949D03*
X0112678Y0157499D03*
X0113328Y0156599D03*
D556*
X0105778Y0156599D03*
X0104628Y0158249D03*
D557*
X0104828Y0158199D03*
X0105078Y0159699D03*
X0105878Y0156649D03*
X0112178Y0158799D03*
D558*
X0113403Y0156699D03*
D559*
X0117203Y0156749D03*
X0116403Y0160249D03*
X0100853Y0158649D03*
D560*
X0102153Y0156774D03*
X0112153Y0158774D03*
X0112703Y0157974D03*
D561*
X0112603Y0160774D03*
X0109253Y0158724D03*
X0117603Y0156824D03*
D562*
X0113353Y0156899D03*
D563*
X0106553Y0156899D03*
D564*
X0108153Y0158149D03*
X0109303Y0158699D03*
X0117753Y0156949D03*
X0117803Y0156999D03*
D565*
X0106890Y0156974D03*
D566*
X0106990Y0156999D03*
D567*
X0107915Y0158224D03*
X0112565Y0158174D03*
X0117940Y0157024D03*
D568*
X0112653Y0160849D03*
X0102153Y0157049D03*
D569*
X0105028Y0159774D03*
X0112228Y0159474D03*
X0117978Y0157074D03*
D570*
X0113253Y0157074D03*
X0112153Y0159974D03*
X0105153Y0159524D03*
D571*
X0105178Y0158974D03*
X0107078Y0157124D03*
X0107078Y0157074D03*
D572*
X0108053Y0159349D03*
X0112703Y0161099D03*
X0102103Y0157149D03*
X0101103Y0158349D03*
D573*
X0107053Y0157174D03*
D574*
X0102078Y0157174D03*
X0101078Y0158374D03*
X0112728Y0161074D03*
X0114778Y0160924D03*
D575*
X0106953Y0157274D03*
D576*
X0106928Y0157299D03*
D577*
X0106740Y0157424D03*
D578*
X0112303Y0160099D03*
X0112953Y0157449D03*
D579*
X0106678Y0157474D03*
D580*
X0106628Y0157499D03*
X0105228Y0159149D03*
X0112678Y0159949D03*
D581*
X0113165Y0160374D03*
X0113215Y0160424D03*
X0113240Y0160474D03*
X0113315Y0160574D03*
X0106590Y0157524D03*
D582*
X0106478Y0157599D03*
D583*
X0106428Y0157624D03*
X0105228Y0159224D03*
D584*
X0106390Y0157649D03*
D585*
X0112703Y0157699D03*
D586*
X0106253Y0157724D03*
D587*
X0106153Y0157774D03*
X0112853Y0159274D03*
D588*
X0105803Y0157924D03*
D589*
X0105740Y0157949D03*
D590*
X0112303Y0159549D03*
X0112603Y0158099D03*
D591*
X0108303Y0158099D03*
X0108253Y0159249D03*
D592*
X0108228Y0158124D03*
D593*
X0109965Y0158149D03*
X0105790Y0160899D03*
D594*
X0104940Y0159899D03*
X0108340Y0159199D03*
X0112665Y0161149D03*
X0114815Y0160949D03*
X0101140Y0158299D03*
D595*
X0101128Y0158324D03*
X0104928Y0159924D03*
D596*
X0112453Y0158374D03*
D597*
X0112765Y0160999D03*
X0107090Y0159899D03*
X0107015Y0159949D03*
X0106915Y0159999D03*
X0106840Y0160049D03*
X0106740Y0160099D03*
X0106590Y0160199D03*
X0106515Y0160249D03*
X0105915Y0160649D03*
X0101040Y0158399D03*
D598*
X0109628Y0158499D03*
D599*
X0109578Y0158524D03*
X0107128Y0159874D03*
X0106878Y0160024D03*
X0106628Y0160174D03*
X0106478Y0160274D03*
D600*
X0106190Y0160449D03*
X0106115Y0160499D03*
X0106040Y0160549D03*
X0105965Y0160599D03*
X0107340Y0159749D03*
X0107440Y0159699D03*
X0107515Y0159649D03*
X0109540Y0158549D03*
X0112740Y0161049D03*
D601*
X0106278Y0158549D03*
D602*
X0108140Y0159299D03*
X0109465Y0158599D03*
X0112690Y0160899D03*
D603*
X0105678Y0158649D03*
D604*
X0105103Y0159624D03*
X0112103Y0158674D03*
X0112403Y0159624D03*
D605*
X0109328Y0158674D03*
D606*
X0112128Y0158699D03*
D607*
X0105378Y0158724D03*
D608*
X0105290Y0158749D03*
D609*
X0105203Y0158774D03*
D610*
X0105128Y0158799D03*
D611*
X0105040Y0158824D03*
D612*
X0104978Y0158849D03*
D613*
X0105103Y0158874D03*
D614*
X0105153Y0158949D03*
D615*
X0108690Y0159024D03*
D616*
X0105228Y0159024D03*
D617*
X0108628Y0159049D03*
X0112628Y0160799D03*
D618*
X0105228Y0159049D03*
D619*
X0105228Y0159074D03*
D620*
X0105240Y0159099D03*
D621*
X0105228Y0159124D03*
D622*
X0112853Y0159199D03*
D623*
X0112578Y0159324D03*
D624*
X0107978Y0159399D03*
X0107878Y0159449D03*
D625*
X0107828Y0159474D03*
X0107928Y0159424D03*
D626*
X0112278Y0159524D03*
D627*
X0110853Y0159724D03*
X0113703Y0161474D03*
X0104253Y0160824D03*
D628*
X0113203Y0159799D03*
D629*
X0113278Y0159824D03*
D630*
X0113603Y0159849D03*
D631*
X0107178Y0159849D03*
X0106678Y0160149D03*
X0106428Y0160299D03*
X0106278Y0160399D03*
X0104878Y0159999D03*
D632*
X0113640Y0159874D03*
D633*
X0112753Y0159924D03*
D634*
X0104853Y0160024D03*
D635*
G36*
X0099944Y0160073D02*
X0099927Y0160058D01*
X0099912Y0160075D01*
X0099929Y0160090D01*
X0099944Y0160073D01*
G37*
D636*
X0114628Y0160799D03*
D637*
X0112728Y0160949D03*
D638*
X0113753Y0161174D03*
D639*
X0117179Y0292593D02*
X0361590Y0292593D01*
X0360892Y0307908D02*
X0117481Y0307908D01*
D640*
X0254177Y0328876D02*
X0257012Y0326040D01*
X0262684Y0326040D01*
X0265520Y0328876D01*
X0265520Y0340219D01*
X0262684Y0343055D01*
X0257012Y0343055D01*
X0254177Y0340219D01*
X0272592Y0340219D02*
X0272592Y0328876D01*
X0275428Y0326040D01*
X0283935Y0326040D01*
X0283935Y0343055D01*
X0275428Y0343055D01*
X0272592Y0340219D01*
X0291008Y0334548D02*
X0291008Y0326040D01*
X0302351Y0326040D02*
X0302351Y0337383D01*
X0293844Y0337383D01*
X0291008Y0334548D01*
X0309424Y0334548D02*
X0309424Y0328876D01*
X0312260Y0326040D01*
X0317931Y0326040D01*
X0320767Y0328876D01*
X0320767Y0334548D01*
X0317931Y0337383D01*
X0312260Y0337383D01*
X0309424Y0334548D01*
X0327840Y0334548D02*
X0327840Y0326040D01*
X0333511Y0326040D02*
X0333511Y0334548D01*
X0330675Y0337383D01*
X0327840Y0334548D01*
X0333511Y0334548D02*
X0336347Y0337383D01*
X0339183Y0337383D01*
X0339183Y0326040D01*
X0346255Y0331712D02*
X0357598Y0331712D01*
X0357598Y0328876D02*
X0357598Y0334548D01*
X0354763Y0337383D01*
X0349091Y0337383D01*
X0346255Y0334548D01*
X0346255Y0331712D01*
X0349091Y0326040D02*
X0354763Y0326040D01*
X0357598Y0328876D01*
D641*
X0357058Y0303375D02*
X0360194Y0303375D01*
X0358626Y0303375D02*
X0358626Y0298671D01*
X0355130Y0299455D02*
X0354346Y0298671D01*
X0352778Y0298671D01*
X0351994Y0300239D02*
X0355130Y0300239D01*
X0355130Y0301023D02*
X0354346Y0301807D01*
X0352778Y0301807D01*
X0351994Y0301023D01*
X0351994Y0300239D01*
X0350065Y0301023D02*
X0350065Y0299455D01*
X0349281Y0298671D01*
X0346929Y0298671D01*
X0345001Y0298671D02*
X0345001Y0303375D01*
X0344217Y0301807D02*
X0342649Y0301807D01*
X0341865Y0301023D01*
X0341865Y0298671D01*
X0339937Y0298671D02*
X0339937Y0301807D01*
X0337585Y0301807D01*
X0336801Y0301023D01*
X0336801Y0298671D01*
X0334872Y0299455D02*
X0334088Y0298671D01*
X0332520Y0298671D01*
X0331736Y0299455D01*
X0331736Y0301023D01*
X0332520Y0301807D01*
X0334088Y0301807D01*
X0334872Y0301023D01*
X0334872Y0299455D01*
X0329808Y0298671D02*
X0328240Y0298671D01*
X0329024Y0298671D02*
X0329024Y0303375D01*
X0329808Y0303375D01*
X0326432Y0301023D02*
X0326432Y0299455D01*
X0325648Y0298671D01*
X0324080Y0298671D01*
X0323296Y0299455D01*
X0323296Y0301023D01*
X0324080Y0301807D01*
X0325648Y0301807D01*
X0326432Y0301023D01*
X0321368Y0301023D02*
X0321368Y0299455D01*
X0320584Y0298671D01*
X0318232Y0298671D01*
X0318232Y0297887D02*
X0318232Y0301807D01*
X0320584Y0301807D01*
X0321368Y0301023D01*
X0319800Y0297103D02*
X0319016Y0297103D01*
X0318232Y0297887D01*
X0316303Y0299455D02*
X0315519Y0298671D01*
X0313167Y0298671D01*
X0313167Y0297887D02*
X0313951Y0297103D01*
X0314735Y0297103D01*
X0313167Y0297887D02*
X0313167Y0301807D01*
X0316303Y0301807D02*
X0316303Y0299455D01*
X0306175Y0301807D02*
X0304607Y0301807D01*
X0305391Y0302591D02*
X0305391Y0299455D01*
X0304607Y0298671D01*
X0302798Y0298671D02*
X0302798Y0303375D01*
X0302014Y0301807D02*
X0300446Y0301807D01*
X0299662Y0301023D01*
X0299662Y0298671D01*
X0297734Y0299455D02*
X0296950Y0298671D01*
X0294598Y0298671D01*
X0294598Y0301023D01*
X0295382Y0301807D01*
X0296950Y0301807D01*
X0296950Y0300239D02*
X0294598Y0300239D01*
X0296950Y0300239D02*
X0297734Y0299455D01*
X0302014Y0301807D02*
X0302798Y0301023D01*
X0292670Y0301807D02*
X0291102Y0301807D01*
X0291886Y0302591D02*
X0291886Y0299455D01*
X0291102Y0298671D01*
X0284229Y0298671D02*
X0284229Y0303375D01*
X0283445Y0301807D02*
X0281877Y0301807D01*
X0281093Y0301023D01*
X0281093Y0298671D01*
X0279165Y0299455D02*
X0278381Y0298671D01*
X0276813Y0298671D01*
X0276029Y0300239D02*
X0279165Y0300239D01*
X0279165Y0301023D02*
X0278381Y0301807D01*
X0276813Y0301807D01*
X0276029Y0301023D01*
X0276029Y0300239D01*
X0274101Y0298671D02*
X0272533Y0298671D01*
X0273317Y0298671D02*
X0273317Y0303375D01*
X0274101Y0303375D01*
X0270724Y0301807D02*
X0268372Y0301807D01*
X0267588Y0301023D01*
X0267588Y0299455D01*
X0268372Y0298671D01*
X0270724Y0298671D01*
X0270724Y0297103D02*
X0270724Y0301807D01*
X0265660Y0301023D02*
X0264876Y0301807D01*
X0262524Y0301807D01*
X0263308Y0300239D02*
X0264876Y0300239D01*
X0265660Y0301023D01*
X0265660Y0298671D02*
X0263308Y0298671D01*
X0262524Y0299455D01*
X0263308Y0300239D01*
X0255531Y0299455D02*
X0254747Y0298671D01*
X0252395Y0298671D01*
X0252395Y0301807D01*
X0250467Y0301023D02*
X0249683Y0301807D01*
X0247331Y0301807D01*
X0248115Y0300239D02*
X0247331Y0299455D01*
X0248115Y0298671D01*
X0250467Y0298671D01*
X0249683Y0300239D02*
X0250467Y0301023D01*
X0249683Y0300239D02*
X0248115Y0300239D01*
X0255531Y0299455D02*
X0255531Y0301807D01*
X0240338Y0303375D02*
X0239554Y0303375D01*
X0239554Y0298671D01*
X0240338Y0298671D02*
X0238770Y0298671D01*
X0236962Y0298671D02*
X0235394Y0298671D01*
X0236178Y0298671D02*
X0236178Y0301807D01*
X0236962Y0301807D01*
X0236178Y0303375D02*
X0236178Y0304159D01*
X0233586Y0301807D02*
X0232018Y0298671D01*
X0230450Y0301807D01*
X0228522Y0301023D02*
X0227738Y0301807D01*
X0226170Y0301807D01*
X0225386Y0301023D01*
X0225386Y0300239D01*
X0228522Y0300239D01*
X0228522Y0299455D02*
X0228522Y0301023D01*
X0228522Y0299455D02*
X0227738Y0298671D01*
X0226170Y0298671D01*
X0218393Y0299455D02*
X0217609Y0298671D01*
X0216825Y0299455D01*
X0216041Y0298671D01*
X0215257Y0299455D01*
X0215257Y0301807D01*
X0213329Y0301807D02*
X0212545Y0301807D01*
X0212545Y0298671D01*
X0213329Y0298671D02*
X0211761Y0298671D01*
X0209169Y0299455D02*
X0208385Y0298671D01*
X0209169Y0299455D02*
X0209169Y0302591D01*
X0209953Y0301807D02*
X0208385Y0301807D01*
X0206576Y0301023D02*
X0205792Y0301807D01*
X0204224Y0301807D01*
X0203440Y0301023D01*
X0203440Y0298671D01*
X0201512Y0298671D02*
X0199944Y0298671D01*
X0200728Y0298671D02*
X0200728Y0301807D01*
X0201512Y0301807D01*
X0200728Y0303375D02*
X0200728Y0304159D01*
X0198136Y0301807D02*
X0195784Y0301807D01*
X0195000Y0301023D01*
X0195000Y0298671D01*
X0198136Y0298671D02*
X0198136Y0301807D01*
X0206576Y0303375D02*
X0206576Y0298671D01*
X0218393Y0299455D02*
X0218393Y0301807D01*
X0212545Y0303375D02*
X0212545Y0304159D01*
X0188007Y0301023D02*
X0187223Y0301807D01*
X0185655Y0301807D01*
X0184871Y0301023D01*
X0184871Y0300239D01*
X0188007Y0300239D01*
X0188007Y0299455D02*
X0188007Y0301023D01*
X0188007Y0299455D02*
X0187223Y0298671D01*
X0185655Y0298671D01*
X0182943Y0299455D02*
X0182159Y0298671D01*
X0179807Y0298671D01*
X0177878Y0299455D02*
X0177094Y0298671D01*
X0175526Y0298671D01*
X0174742Y0299455D01*
X0174742Y0301023D01*
X0175526Y0301807D01*
X0177094Y0301807D01*
X0177878Y0301023D01*
X0177878Y0299455D01*
X0179807Y0301807D02*
X0182159Y0301807D01*
X0182943Y0301023D01*
X0182943Y0299455D01*
X0172814Y0298671D02*
X0171246Y0298671D01*
X0172030Y0298671D02*
X0172030Y0303375D01*
X0172814Y0303375D01*
X0169438Y0301023D02*
X0169438Y0299455D01*
X0168654Y0298671D01*
X0167086Y0298671D01*
X0166302Y0299455D01*
X0166302Y0301023D01*
X0167086Y0301807D01*
X0168654Y0301807D01*
X0169438Y0301023D01*
X0164374Y0301023D02*
X0164374Y0299455D01*
X0163590Y0298671D01*
X0161238Y0298671D01*
X0161238Y0297887D02*
X0161238Y0301807D01*
X0163590Y0301807D01*
X0164374Y0301023D01*
X0162806Y0297103D02*
X0162022Y0297103D01*
X0161238Y0297887D01*
X0159309Y0298671D02*
X0157741Y0298671D01*
X0158525Y0298671D02*
X0158525Y0301807D01*
X0159309Y0301807D01*
X0158525Y0303375D02*
X0158525Y0304159D01*
X0155933Y0301023D02*
X0155149Y0301807D01*
X0152797Y0301807D01*
X0150085Y0301807D02*
X0148517Y0301807D01*
X0147733Y0301023D01*
X0147733Y0298671D01*
X0150085Y0298671D01*
X0150869Y0299455D01*
X0150085Y0300239D01*
X0147733Y0300239D01*
X0145804Y0298671D02*
X0144236Y0298671D01*
X0145020Y0298671D02*
X0145020Y0303375D01*
X0145804Y0303375D01*
X0137364Y0303375D02*
X0136580Y0303375D01*
X0136580Y0298671D01*
X0137364Y0298671D02*
X0135796Y0298671D01*
X0133988Y0298671D02*
X0132420Y0298671D01*
X0133204Y0298671D02*
X0133204Y0301807D01*
X0133988Y0301807D01*
X0133204Y0303375D02*
X0133204Y0304159D01*
X0130611Y0301807D02*
X0129827Y0301807D01*
X0129043Y0301023D01*
X0128259Y0301807D01*
X0127475Y0301023D01*
X0127475Y0298671D01*
X0129043Y0298671D02*
X0129043Y0301023D01*
X0130611Y0301807D02*
X0130611Y0298671D01*
X0125547Y0298671D02*
X0123979Y0298671D01*
X0124763Y0298671D02*
X0124763Y0301807D01*
X0125547Y0301807D01*
X0124763Y0303375D02*
X0124763Y0304159D01*
X0122171Y0301807D02*
X0120603Y0301807D01*
X0121387Y0302591D02*
X0121387Y0299455D01*
X0120603Y0298671D01*
X0118795Y0298671D02*
X0116443Y0298671D01*
X0115659Y0299455D01*
X0116443Y0300239D01*
X0118011Y0300239D01*
X0118795Y0301023D01*
X0118011Y0301807D01*
X0115659Y0301807D01*
X0152797Y0298671D02*
X0155149Y0298671D01*
X0155933Y0299455D01*
X0155933Y0301023D01*
X0209972Y0287082D02*
X0209972Y0286382D01*
X0209972Y0284980D02*
X0209972Y0282178D01*
X0210672Y0282178D02*
X0209271Y0282178D01*
X0209972Y0284980D02*
X0210672Y0284980D01*
X0212474Y0284280D02*
X0212474Y0282178D01*
X0212474Y0284280D02*
X0213175Y0284980D01*
X0215276Y0284980D01*
X0215276Y0282178D01*
X0217078Y0282178D02*
X0219180Y0282178D01*
X0219880Y0282879D01*
X0219880Y0284280D01*
X0219180Y0284980D01*
X0217078Y0284980D01*
X0217078Y0281477D01*
X0217778Y0280777D01*
X0218479Y0280777D01*
X0222382Y0282178D02*
X0223784Y0282178D01*
X0224484Y0282879D01*
X0224484Y0284280D01*
X0223784Y0284980D01*
X0222382Y0284980D01*
X0221682Y0284280D01*
X0221682Y0283579D01*
X0224484Y0283579D01*
X0226286Y0282178D02*
X0226286Y0286382D01*
X0227687Y0284980D01*
X0229088Y0286382D01*
X0229088Y0282178D01*
X0235494Y0282178D02*
X0237595Y0282178D01*
X0238296Y0282879D01*
X0238296Y0284980D01*
X0240098Y0284280D02*
X0240798Y0284980D01*
X0242900Y0284980D01*
X0242900Y0286382D02*
X0242900Y0282178D01*
X0240798Y0282178D01*
X0240098Y0282879D01*
X0240098Y0284280D01*
X0235494Y0284980D02*
X0235494Y0281477D01*
X0236194Y0280777D01*
X0236895Y0280777D01*
X0249305Y0282178D02*
X0251407Y0284280D01*
X0252108Y0283579D02*
X0249305Y0286382D01*
X0252108Y0286382D02*
X0252108Y0282178D01*
X0253909Y0282879D02*
X0253909Y0286382D01*
X0256712Y0286382D02*
X0256712Y0282879D01*
X0256011Y0282178D01*
X0254610Y0282178D01*
X0253909Y0282879D01*
X0263117Y0282879D02*
X0263818Y0283579D01*
X0265219Y0283579D01*
X0265920Y0284280D01*
X0265219Y0284980D01*
X0263117Y0284980D01*
X0263117Y0282879D02*
X0263818Y0282178D01*
X0265920Y0282178D01*
X0267721Y0283579D02*
X0270523Y0283579D01*
X0270523Y0282879D02*
X0270523Y0284280D01*
X0269823Y0284980D01*
X0268422Y0284980D01*
X0267721Y0284280D01*
X0267721Y0283579D01*
X0268422Y0282178D02*
X0269823Y0282178D01*
X0270523Y0282879D01*
X0272192Y0282178D02*
X0273593Y0282178D01*
X0272892Y0282178D02*
X0272892Y0286382D01*
X0273593Y0286382D01*
X0275394Y0284280D02*
X0275394Y0282178D01*
X0277496Y0282178D01*
X0278197Y0282879D01*
X0277496Y0283579D01*
X0275394Y0283579D01*
X0275394Y0284280D02*
X0276095Y0284980D01*
X0277496Y0284980D01*
X0279998Y0286382D02*
X0279998Y0282178D01*
X0281399Y0283579D01*
X0282801Y0282178D01*
X0282801Y0286382D01*
X0289206Y0284280D02*
X0289206Y0282178D01*
X0289206Y0284280D02*
X0289907Y0284980D01*
X0291308Y0284980D01*
X0292008Y0284280D01*
X0293677Y0284980D02*
X0295078Y0284980D01*
X0294377Y0285681D02*
X0294377Y0282879D01*
X0293677Y0282178D01*
X0292008Y0282178D02*
X0292008Y0286382D01*
X0296813Y0284980D02*
X0297513Y0284980D01*
X0298914Y0283579D01*
X0298914Y0282178D02*
X0298914Y0284980D01*
X0300716Y0284280D02*
X0301416Y0284980D01*
X0302818Y0284980D01*
X0303518Y0284280D01*
X0303518Y0282879D01*
X0302818Y0282178D01*
X0301416Y0282178D01*
X0300716Y0282879D01*
X0300716Y0284280D01*
X0305320Y0282178D02*
X0305320Y0286382D01*
X0308122Y0286382D02*
X0305320Y0282178D01*
X0308122Y0282178D02*
X0308122Y0286382D01*
X0314528Y0284280D02*
X0314528Y0282178D01*
X0314528Y0284280D02*
X0315228Y0284980D01*
X0317330Y0284980D01*
X0317330Y0282178D01*
X0318998Y0282178D02*
X0320399Y0282178D01*
X0319699Y0282178D02*
X0319699Y0284980D01*
X0320399Y0284980D01*
X0319699Y0286382D02*
X0319699Y0287082D01*
X0326805Y0286382D02*
X0326805Y0282178D01*
X0328907Y0282178D01*
X0329607Y0282879D01*
X0329607Y0284280D01*
X0328907Y0284980D01*
X0326805Y0284980D01*
X0331409Y0284280D02*
X0332109Y0284980D01*
X0333510Y0284980D01*
X0334211Y0284280D01*
X0334211Y0282879D01*
X0333510Y0282178D01*
X0332109Y0282178D01*
X0331409Y0283579D02*
X0334211Y0283579D01*
X0336013Y0284280D02*
X0336013Y0282178D01*
X0336013Y0284280D02*
X0336713Y0284980D01*
X0338815Y0284980D01*
X0338815Y0282178D01*
X0340617Y0282178D02*
X0342718Y0282178D01*
X0343419Y0282879D01*
X0343419Y0284280D01*
X0342718Y0284980D01*
X0340617Y0284980D01*
X0340617Y0281477D01*
X0341317Y0280777D01*
X0342018Y0280777D01*
X0345087Y0282178D02*
X0346488Y0282178D01*
X0345788Y0282178D02*
X0345788Y0284980D01*
X0346488Y0284980D01*
X0345788Y0286382D02*
X0345788Y0287082D01*
X0348290Y0284980D02*
X0350392Y0284980D01*
X0351092Y0284280D01*
X0350392Y0283579D01*
X0348990Y0283579D01*
X0348290Y0282879D01*
X0348990Y0282178D01*
X0351092Y0282178D01*
X0352894Y0283579D02*
X0355696Y0283579D01*
X0355696Y0282879D02*
X0355696Y0284280D01*
X0354995Y0284980D01*
X0353594Y0284980D01*
X0352894Y0284280D01*
X0352894Y0283579D01*
X0353594Y0282178D02*
X0354995Y0282178D01*
X0355696Y0282879D01*
X0357498Y0282879D02*
X0357498Y0285681D01*
X0358198Y0286382D01*
X0360300Y0286382D01*
X0360300Y0282178D01*
X0358198Y0282178D01*
X0357498Y0282879D01*
X0331409Y0283579D02*
X0331409Y0284280D01*
X0345001Y0301023D02*
X0344217Y0301807D01*
X0346929Y0301807D02*
X0349281Y0301807D01*
X0350065Y0301023D01*
X0355130Y0301023D02*
X0355130Y0299455D01*
X0284229Y0301023D02*
X0283445Y0301807D01*
X0279165Y0301023D02*
X0279165Y0299455D01*
X0323162Y0153635D02*
X0323162Y0148931D01*
X0325514Y0148931D01*
X0326298Y0149715D01*
X0326298Y0151283D01*
X0325514Y0152067D01*
X0323162Y0152067D01*
X0321234Y0151283D02*
X0320450Y0152067D01*
X0318882Y0152067D01*
X0318098Y0151283D01*
X0318098Y0150499D01*
X0321234Y0150499D01*
X0321234Y0149715D02*
X0321234Y0151283D01*
X0321234Y0149715D02*
X0320450Y0148931D01*
X0318882Y0148931D01*
X0316169Y0148931D02*
X0316169Y0149715D01*
X0315385Y0149715D01*
X0315385Y0148931D01*
X0316169Y0148931D01*
X0316169Y0151283D02*
X0316169Y0152067D01*
X0315385Y0152067D01*
X0315385Y0151283D01*
X0316169Y0151283D01*
X0328226Y0151283D02*
X0329010Y0152067D01*
X0330578Y0152067D01*
X0331362Y0151283D01*
X0331362Y0149715D01*
X0330578Y0148931D01*
X0329010Y0148931D01*
X0328226Y0149715D01*
X0328226Y0151283D01*
X0333291Y0148931D02*
X0333291Y0153635D01*
X0336427Y0153635D02*
X0333291Y0148931D01*
X0336427Y0148931D02*
X0336427Y0153635D01*
D642*
X0310327Y0117031D03*
M02*
