%
M48
M72
T01C0.01969
T02C0.03600
T03C0.04000
T04C0.04331
T05C0.05200
T06C0.05600
T07C0.12598
%
T01
X130827Y75531
X140260Y93579
X184827Y102531
X197827Y119531
X231827Y131531
X231827Y143531
X218260Y144579
X251827Y137531
X302827Y167531
X304260Y188579
X342827Y178531
X370218Y164044
X347218Y157044
X395827Y129531
X403827Y129531
X403827Y167531
X408827Y187531
X413827Y187531
X408827Y208531
X411827Y213531
X390827Y209531
X367327Y224731
X363627Y228831
X358927Y224531
X338557Y213131
X342827Y208531
X312444Y223195
X315227Y241131
X312827Y250531
X311327Y258631
X305627Y256431
X299827Y253531
X295827Y250531
X259827Y249531
X257827Y255531
X219827Y239531
X224827Y232531
X245827Y227531
X251827Y227531
X259827Y219531
X272827Y219531
X216827Y198531
X216827Y192531
X184827Y203531
X177040Y202573
X166240Y184973
X148285Y219545
X158827Y232531
X165827Y244531
X150540Y248273
X176540Y263273
X191827Y276531
X167827Y280531
X156340Y285173
X89540Y278273
X189827Y240531
X196827Y245531
X184827Y226531
X286827Y290531
X300827Y290531
X348218Y276844
X362218Y280044
X379027Y269631
X382827Y259531
X375839Y242563
X367236Y242583
X344418Y241544
X335627Y248131
X330827Y261531
X385783Y286836
X371827Y299531
X384827Y306531
X415827Y293531
X309120Y323941
X234120Y350941
X232920Y329141
X135920Y341141
X141827Y129531
X221827Y90531
X197827Y74531
X289827Y81531
X364127Y79831
X364127Y74531
T02
X126827Y285531
X116827Y285531
T03
X98827Y266531
X88827Y266531
X78827Y266531
X78827Y252531
X88827Y252531
X98827Y252531
X98827Y211531
X88827Y211531
X78827Y211531
X78827Y197531
X88827Y197531
X98827Y197531
X192827Y158531
X202827Y158531
X216827Y162531
X226827Y162531
X236827Y162531
X246827Y162531
X256827Y162531
X266827Y162531
X354527Y195631
X364527Y195631
X374527Y195631
X384527Y195631
X394527Y195631
X404527Y195631
X401079Y224531
X391079Y224531
X391079Y234531
X401079Y234531
X401079Y244531
X391079Y244531
X314527Y271531
X303127Y271531
X304543Y238649
X304543Y227249
X209827Y253531
X199827Y253531
X189827Y253531
X174827Y115531
X164827Y115531
X164827Y104531
X174827Y104531
T04
X259827Y349531
X314827Y349531
T05
X364227Y100531
T06
X47827Y197642
X47827Y211421
X47827Y252642
X47827Y266421
T07
X69504Y320134
X392316Y320205
X52504Y131748
X69504Y91748
X392316Y91741
M30
