G75*
%MOIN*%
%OFA0B0*%
%FSLAX25Y25*%
%IPPOS*%
%LPD*%
%AMOC8*
5,1,8,0,0,1.08239X$1,22.5*
%
%ADD10OC8,0.08000*%
%ADD11C,0.08000*%
%ADD12C,0.09000*%
%ADD13C,0.06000*%
%ADD14C,0.06600*%
%ADD15OC8,0.10600*%
%ADD16C,0.22600*%
%ADD17C,0.04169*%
%ADD18R,0.07096X0.07096*%
D10*
X0391079Y0224531D03*
X0401079Y0224531D03*
X0401079Y0234531D03*
X0391079Y0234531D03*
X0391079Y0244531D03*
X0401079Y0244531D03*
D11*
X0314527Y0271531D03*
X0303127Y0271531D03*
X0304543Y0238649D03*
X0304543Y0227249D03*
X0354527Y0195631D03*
X0364527Y0195631D03*
X0374527Y0195631D03*
X0384527Y0195631D03*
X0394527Y0195631D03*
X0404527Y0195631D03*
X0209827Y0253531D03*
X0199827Y0253531D03*
X0189827Y0253531D03*
X0098827Y0252531D03*
X0088827Y0252531D03*
X0078827Y0252531D03*
X0078827Y0266531D03*
X0088827Y0266531D03*
X0098827Y0266531D03*
X0098827Y0211531D03*
X0088827Y0211531D03*
X0078827Y0211531D03*
X0078827Y0197531D03*
X0088827Y0197531D03*
X0098827Y0197531D03*
X0192827Y0158531D03*
X0202827Y0158531D03*
X0174827Y0115531D03*
X0164827Y0115531D03*
X0164827Y0104531D03*
X0174827Y0104531D03*
D12*
X0052027Y0197642D02*
X0043627Y0197642D01*
X0043627Y0211421D02*
X0052027Y0211421D01*
X0052027Y0252642D02*
X0043627Y0252642D01*
X0043627Y0266421D02*
X0052027Y0266421D01*
D13*
X0116827Y0282831D02*
X0116827Y0288231D01*
X0126827Y0288231D02*
X0126827Y0282831D01*
D14*
X0216827Y0165531D02*
X0216827Y0159531D01*
X0226827Y0159531D02*
X0226827Y0165531D01*
X0236827Y0165531D02*
X0236827Y0159531D01*
X0246827Y0159531D02*
X0246827Y0165531D01*
X0256827Y0165531D02*
X0256827Y0159531D01*
X0266827Y0159531D02*
X0266827Y0165531D01*
D15*
X0364227Y0100531D03*
D16*
X0392316Y0091741D03*
X0069504Y0091748D03*
X0052504Y0131748D03*
X0069504Y0320134D03*
X0392316Y0320205D03*
D17*
X0130827Y0075531D03*
X0140260Y0093579D03*
X0184827Y0102531D03*
X0197827Y0119531D03*
X0231827Y0131531D03*
X0231827Y0143531D03*
X0218260Y0144579D03*
X0251827Y0137531D03*
X0302827Y0167531D03*
X0304260Y0188579D03*
X0342827Y0178531D03*
X0370218Y0164044D03*
X0347218Y0157044D03*
X0395827Y0129531D03*
X0403827Y0129531D03*
X0403827Y0167531D03*
X0408827Y0187531D03*
X0413827Y0187531D03*
X0408827Y0208531D03*
X0411827Y0213531D03*
X0390827Y0209531D03*
X0367327Y0224731D03*
X0363627Y0228831D03*
X0358927Y0224531D03*
X0338557Y0213131D03*
X0342827Y0208531D03*
X0312444Y0223195D03*
X0315227Y0241131D03*
X0312827Y0250531D03*
X0311327Y0258631D03*
X0305627Y0256431D03*
X0299827Y0253531D03*
X0295827Y0250531D03*
X0259827Y0249531D03*
X0257827Y0255531D03*
X0219827Y0239531D03*
X0224827Y0232531D03*
X0245827Y0227531D03*
X0251827Y0227531D03*
X0259827Y0219531D03*
X0272827Y0219531D03*
X0216827Y0198531D03*
X0216827Y0192531D03*
X0184827Y0203531D03*
X0177040Y0202573D03*
X0166240Y0184973D03*
X0148285Y0219545D03*
X0158827Y0232531D03*
X0165827Y0244531D03*
X0150540Y0248273D03*
X0176540Y0263273D03*
X0191827Y0276531D03*
X0167827Y0280531D03*
X0156340Y0285173D03*
X0089540Y0278273D03*
X0189827Y0240531D03*
X0196827Y0245531D03*
X0184827Y0226531D03*
X0286827Y0290531D03*
X0300827Y0290531D03*
X0348218Y0276844D03*
X0362218Y0280044D03*
X0379027Y0269631D03*
X0382827Y0259531D03*
X0375839Y0242563D03*
X0367236Y0242583D03*
X0344418Y0241544D03*
X0335627Y0248131D03*
X0330827Y0261531D03*
X0385783Y0286836D03*
X0371827Y0299531D03*
X0384827Y0306531D03*
X0415827Y0293531D03*
X0309120Y0323941D03*
X0234120Y0350941D03*
X0232920Y0329141D03*
X0135920Y0341141D03*
X0141827Y0129531D03*
X0221827Y0090531D03*
X0197827Y0074531D03*
X0289827Y0081531D03*
X0364127Y0079831D03*
X0364127Y0074531D03*
D18*
X0314827Y0349531D03*
X0259827Y0349531D03*
M02*
