G75*
%MOIN*%
%OFA0B0*%
%FSLAX25Y25*%
%IPPOS*%
%LPD*%
%AMOC8*
5,1,8,0,0,1.08239X$1,22.5*
%
%ADD10C,0.00500*%
%ADD11C,0.01200*%
%ADD12C,0.00800*%
%ADD13C,0.00600*%
%ADD14C,0.00300*%
%ADD15C,0.00200*%
%ADD16C,0.00400*%
%ADD17R,0.01181X0.00591*%
%ADD18R,0.01181X0.01181*%
%ADD19R,0.05906X0.05906*%
%ADD20R,0.02362X0.04331*%
%ADD21C,0.00394*%
D10*
X0150169Y0106581D02*
X0150169Y0111085D01*
X0152421Y0111085D01*
X0153171Y0110335D01*
X0153171Y0108833D01*
X0152421Y0108083D01*
X0150169Y0108083D01*
X0151670Y0108083D02*
X0153171Y0106581D01*
X0154773Y0106581D02*
X0157775Y0111085D01*
X0154773Y0111085D02*
X0157775Y0106581D01*
X0156775Y0118581D02*
X0153773Y0123085D01*
X0152171Y0123085D02*
X0149169Y0123085D01*
X0150670Y0123085D02*
X0150670Y0118581D01*
X0153773Y0118581D02*
X0156775Y0123085D01*
X0134827Y0121382D02*
X0134827Y0116531D01*
X0134827Y0125319D02*
X0134827Y0130169D01*
X0134827Y0134106D02*
X0134827Y0138957D01*
X0134827Y0142894D02*
X0134827Y0147744D01*
X0134827Y0151681D02*
X0134827Y0156531D01*
X0130608Y0156531D01*
X0130413Y0160291D02*
X0131247Y0160291D01*
X0130830Y0160291D02*
X0130830Y0161959D01*
X0130413Y0161959D01*
X0130830Y0162793D02*
X0130830Y0163210D01*
X0130413Y0164791D02*
X0131664Y0164791D01*
X0132081Y0165208D01*
X0131664Y0165625D01*
X0130830Y0165625D01*
X0130413Y0166042D01*
X0130830Y0166459D01*
X0132081Y0166459D01*
X0129319Y0166459D02*
X0128068Y0166459D01*
X0127651Y0166042D01*
X0128068Y0165625D01*
X0128902Y0165625D01*
X0129319Y0165208D01*
X0128902Y0164791D01*
X0127651Y0164791D01*
X0126556Y0165625D02*
X0124888Y0165625D01*
X0124888Y0166042D02*
X0125305Y0166459D01*
X0126139Y0166459D01*
X0126556Y0166042D01*
X0126556Y0165625D01*
X0126139Y0164791D02*
X0125305Y0164791D01*
X0124888Y0165208D01*
X0124888Y0166042D01*
X0123881Y0164791D02*
X0123047Y0164791D01*
X0123464Y0164791D02*
X0123464Y0167293D01*
X0123047Y0167293D01*
X0121952Y0166042D02*
X0121952Y0165625D01*
X0120284Y0165625D01*
X0120284Y0166042D02*
X0120701Y0166459D01*
X0121535Y0166459D01*
X0121952Y0166042D01*
X0121535Y0164791D02*
X0120701Y0164791D01*
X0120284Y0165208D01*
X0120284Y0166042D01*
X0119233Y0166459D02*
X0118816Y0166459D01*
X0117982Y0165625D01*
X0117982Y0164791D02*
X0117982Y0166459D01*
X0116558Y0166459D02*
X0116558Y0164791D01*
X0116141Y0164791D02*
X0116975Y0164791D01*
X0116558Y0166459D02*
X0116141Y0166459D01*
X0116558Y0167293D02*
X0116558Y0167710D01*
X0115046Y0167293D02*
X0115046Y0164791D01*
X0114212Y0165625D01*
X0113378Y0164791D01*
X0113378Y0167293D01*
X0113378Y0162793D02*
X0114212Y0161959D01*
X0115046Y0162793D01*
X0115046Y0160291D01*
X0116141Y0160708D02*
X0116558Y0160291D01*
X0117392Y0160291D01*
X0117809Y0160708D01*
X0117809Y0161542D01*
X0117392Y0161959D01*
X0116558Y0161959D01*
X0116141Y0161542D01*
X0116141Y0160708D01*
X0118903Y0160291D02*
X0118903Y0161959D01*
X0120154Y0161959D01*
X0120571Y0161542D01*
X0120571Y0160291D01*
X0121665Y0160291D02*
X0122499Y0160291D01*
X0122082Y0160291D02*
X0122082Y0161959D01*
X0121665Y0161959D01*
X0122082Y0162793D02*
X0122082Y0163210D01*
X0123507Y0161959D02*
X0124341Y0161959D01*
X0123924Y0162376D02*
X0123924Y0160708D01*
X0124341Y0160291D01*
X0125349Y0160708D02*
X0125766Y0160291D01*
X0126600Y0160291D01*
X0127017Y0160708D01*
X0127017Y0161542D01*
X0126600Y0161959D01*
X0125766Y0161959D01*
X0125349Y0161542D01*
X0125349Y0160708D01*
X0128111Y0161125D02*
X0128945Y0161959D01*
X0129362Y0161959D01*
X0128111Y0161959D02*
X0128111Y0160291D01*
X0126671Y0156531D02*
X0122451Y0156531D01*
X0120158Y0155311D02*
X0120158Y0154894D01*
X0119741Y0154476D01*
X0118490Y0154476D01*
X0118490Y0153225D02*
X0119741Y0153225D01*
X0120158Y0153642D01*
X0120158Y0154059D01*
X0119741Y0154476D01*
X0120158Y0155311D02*
X0119741Y0155728D01*
X0118490Y0155728D01*
X0118490Y0153225D01*
X0117395Y0153642D02*
X0117395Y0155311D01*
X0116978Y0155728D01*
X0115727Y0155728D01*
X0115727Y0153225D01*
X0116978Y0153225D01*
X0117395Y0153642D01*
X0118514Y0156531D02*
X0114295Y0156531D01*
X0111871Y0154894D02*
X0111871Y0152808D01*
X0111454Y0152391D01*
X0111037Y0152391D01*
X0110620Y0153225D02*
X0111871Y0153225D01*
X0110620Y0153225D02*
X0110203Y0153642D01*
X0110203Y0154894D01*
X0109108Y0154476D02*
X0108691Y0154894D01*
X0107440Y0154894D01*
X0107440Y0155728D02*
X0107440Y0153225D01*
X0108691Y0153225D01*
X0109108Y0153642D01*
X0109108Y0154476D01*
X0110358Y0156531D02*
X0106139Y0156531D01*
X0103584Y0155728D02*
X0103584Y0155311D01*
X0101915Y0153642D01*
X0101915Y0153225D01*
X0100821Y0153225D02*
X0099153Y0153225D01*
X0099987Y0153225D02*
X0099987Y0155728D01*
X0099153Y0154894D01*
X0098059Y0155311D02*
X0096391Y0153642D01*
X0096808Y0153225D01*
X0097642Y0153225D01*
X0098059Y0153642D01*
X0098059Y0155311D01*
X0097642Y0155728D01*
X0096808Y0155728D01*
X0096391Y0155311D01*
X0096391Y0153642D01*
X0095297Y0153225D02*
X0093628Y0153225D01*
X0095297Y0154894D01*
X0095297Y0155311D01*
X0094879Y0155728D01*
X0094045Y0155728D01*
X0093628Y0155311D01*
X0094046Y0156531D02*
X0089827Y0156531D01*
X0089827Y0151681D01*
X0089772Y0153225D02*
X0089772Y0154476D01*
X0089355Y0154894D01*
X0088104Y0154894D01*
X0088104Y0153225D01*
X0087009Y0153225D02*
X0085758Y0153225D01*
X0085341Y0153642D01*
X0085758Y0154059D01*
X0087009Y0154059D01*
X0087009Y0154476D02*
X0087009Y0153225D01*
X0087009Y0154476D02*
X0086592Y0154894D01*
X0085758Y0154894D01*
X0084247Y0155728D02*
X0083413Y0155728D01*
X0083830Y0155728D02*
X0083830Y0153642D01*
X0083413Y0153225D01*
X0082996Y0153225D01*
X0082579Y0153642D01*
X0078722Y0154476D02*
X0077054Y0154476D01*
X0078305Y0155728D01*
X0078305Y0153225D01*
X0076090Y0153225D02*
X0075673Y0153225D01*
X0075673Y0153642D01*
X0076090Y0153642D01*
X0076090Y0153225D01*
X0074579Y0153642D02*
X0074162Y0153225D01*
X0073328Y0153225D01*
X0072911Y0153642D01*
X0074579Y0155311D01*
X0074579Y0153642D01*
X0072911Y0153642D02*
X0072911Y0155311D01*
X0073328Y0155728D01*
X0074162Y0155728D01*
X0074579Y0155311D01*
X0071817Y0154894D02*
X0070982Y0153225D01*
X0070148Y0154894D01*
X0059309Y0154899D02*
X0059309Y0158569D01*
X0058391Y0159486D01*
X0055639Y0159486D01*
X0055639Y0153981D01*
X0058391Y0153981D01*
X0059309Y0154899D01*
X0058401Y0150486D02*
X0060236Y0148651D01*
X0060236Y0146816D01*
X0058401Y0144981D01*
X0056547Y0146816D02*
X0056547Y0150486D01*
X0056547Y0146816D02*
X0054712Y0144981D01*
X0052877Y0146816D01*
X0052877Y0150486D01*
X0051022Y0149569D02*
X0047352Y0145899D01*
X0048270Y0144981D01*
X0050104Y0144981D01*
X0051022Y0145899D01*
X0051022Y0149569D01*
X0050104Y0150486D01*
X0048270Y0150486D01*
X0047352Y0149569D01*
X0047352Y0145899D01*
X0045504Y0144981D02*
X0043669Y0146816D01*
X0043669Y0148651D01*
X0045504Y0150486D01*
X0045507Y0153981D02*
X0047342Y0153981D01*
X0048259Y0154899D01*
X0048259Y0156734D01*
X0046425Y0156734D01*
X0048259Y0158569D02*
X0047342Y0159486D01*
X0045507Y0159486D01*
X0044590Y0158569D01*
X0044590Y0154899D01*
X0045507Y0153981D01*
X0050114Y0153981D02*
X0050114Y0159486D01*
X0053784Y0153981D01*
X0053784Y0159486D01*
X0071245Y0148749D02*
X0071245Y0146247D01*
X0072496Y0146247D01*
X0072913Y0146664D01*
X0072913Y0147498D01*
X0072496Y0147915D01*
X0071245Y0147915D01*
X0074008Y0146664D02*
X0074425Y0147081D01*
X0075676Y0147081D01*
X0075676Y0147498D02*
X0075676Y0146247D01*
X0074425Y0146247D01*
X0074008Y0146664D01*
X0074425Y0147915D02*
X0075259Y0147915D01*
X0075676Y0147498D01*
X0076770Y0147498D02*
X0077187Y0147915D01*
X0078438Y0147915D01*
X0078021Y0147081D02*
X0077187Y0147081D01*
X0076770Y0147498D01*
X0076770Y0146247D02*
X0078021Y0146247D01*
X0078438Y0146664D01*
X0078021Y0147081D01*
X0079532Y0147081D02*
X0081200Y0147081D01*
X0081200Y0147498D01*
X0080783Y0147915D01*
X0079949Y0147915D01*
X0079532Y0147498D01*
X0079532Y0146664D01*
X0079949Y0146247D01*
X0080783Y0146247D01*
X0082295Y0146664D02*
X0082295Y0147498D01*
X0082712Y0147915D01*
X0083963Y0147915D01*
X0083963Y0148749D02*
X0083963Y0146247D01*
X0082712Y0146247D01*
X0082295Y0146664D01*
X0083676Y0144249D02*
X0083676Y0141747D01*
X0084927Y0141747D01*
X0085344Y0142164D01*
X0085344Y0142998D01*
X0084927Y0143415D01*
X0083676Y0143415D01*
X0086438Y0143415D02*
X0086438Y0142164D01*
X0086855Y0141747D01*
X0088106Y0141747D01*
X0088106Y0141330D02*
X0087689Y0140913D01*
X0087272Y0140913D01*
X0088106Y0141330D02*
X0088106Y0143415D01*
X0089827Y0142894D02*
X0089827Y0147744D01*
X0089487Y0147498D02*
X0089070Y0147915D01*
X0088236Y0147915D01*
X0087819Y0147498D01*
X0087819Y0146664D01*
X0088236Y0146247D01*
X0089070Y0146247D01*
X0089487Y0146664D01*
X0089487Y0147498D01*
X0090582Y0147915D02*
X0091833Y0147915D01*
X0092250Y0147498D01*
X0092250Y0146247D01*
X0090582Y0146247D02*
X0090582Y0147915D01*
X0092380Y0144249D02*
X0091963Y0143832D01*
X0091963Y0142164D01*
X0092380Y0141747D01*
X0093214Y0141747D01*
X0093631Y0142164D01*
X0093631Y0142998D01*
X0092797Y0142998D01*
X0093631Y0143832D02*
X0093214Y0144249D01*
X0092380Y0144249D01*
X0094725Y0144249D02*
X0094725Y0141747D01*
X0094725Y0142998D02*
X0096393Y0142998D01*
X0096393Y0144249D02*
X0096393Y0141747D01*
X0100250Y0142164D02*
X0100667Y0142581D01*
X0101918Y0142581D01*
X0101918Y0142998D02*
X0101918Y0141747D01*
X0100667Y0141747D01*
X0100250Y0142164D01*
X0100667Y0143415D02*
X0101501Y0143415D01*
X0101918Y0142998D01*
X0103012Y0143415D02*
X0104263Y0143415D01*
X0104680Y0142998D01*
X0104680Y0141747D01*
X0105775Y0142164D02*
X0105775Y0142998D01*
X0106192Y0143415D01*
X0107443Y0143415D01*
X0107443Y0144249D02*
X0107443Y0141747D01*
X0106192Y0141747D01*
X0105775Y0142164D01*
X0103012Y0141747D02*
X0103012Y0143415D01*
X0102882Y0146247D02*
X0103299Y0146664D01*
X0103299Y0147498D01*
X0102882Y0147915D01*
X0102048Y0147915D01*
X0101631Y0147498D01*
X0101631Y0146664D01*
X0102048Y0146247D01*
X0102882Y0146247D01*
X0104394Y0146247D02*
X0104394Y0147915D01*
X0105645Y0147915D01*
X0106062Y0147498D01*
X0106062Y0146247D01*
X0107990Y0146247D02*
X0107990Y0148749D01*
X0107156Y0148749D02*
X0108824Y0148749D01*
X0109918Y0147915D02*
X0111586Y0146247D01*
X0109918Y0146247D02*
X0111586Y0147915D01*
X0111299Y0144249D02*
X0112967Y0144249D01*
X0112133Y0144249D02*
X0112133Y0141747D01*
X0114062Y0141747D02*
X0114062Y0144249D01*
X0114062Y0141747D02*
X0115730Y0141747D01*
X0100537Y0146247D02*
X0100537Y0147498D01*
X0100120Y0147915D01*
X0099703Y0147498D01*
X0099703Y0146247D01*
X0098869Y0146247D02*
X0098869Y0147915D01*
X0099286Y0147915D01*
X0099703Y0147498D01*
X0097775Y0147498D02*
X0097775Y0147081D01*
X0096106Y0147081D01*
X0096106Y0147498D02*
X0096523Y0147915D01*
X0097358Y0147915D01*
X0097775Y0147498D01*
X0097358Y0146247D02*
X0096523Y0146247D01*
X0096106Y0146664D01*
X0096106Y0147498D01*
X0097983Y0156531D02*
X0102202Y0156531D01*
X0101915Y0155728D02*
X0103584Y0155728D01*
X0113378Y0160291D02*
X0113378Y0162793D01*
X0132254Y0161959D02*
X0132254Y0160291D01*
X0132254Y0161959D02*
X0133505Y0161959D01*
X0133923Y0161542D01*
X0133923Y0160291D01*
X0135017Y0160708D02*
X0135434Y0160291D01*
X0136685Y0160291D01*
X0136685Y0159874D02*
X0136685Y0161959D01*
X0135434Y0161959D01*
X0135017Y0161542D01*
X0135017Y0160708D01*
X0135851Y0159457D02*
X0136268Y0159457D01*
X0136685Y0159874D01*
X0140541Y0160291D02*
X0140541Y0162793D01*
X0142210Y0160291D01*
X0142210Y0162793D01*
X0143304Y0161542D02*
X0143304Y0160708D01*
X0143721Y0160291D01*
X0144555Y0160291D01*
X0144972Y0160708D01*
X0144972Y0161542D01*
X0144555Y0161959D01*
X0143721Y0161959D01*
X0143304Y0161542D01*
X0146066Y0161542D02*
X0146483Y0161959D01*
X0147734Y0161959D01*
X0147734Y0162793D02*
X0147734Y0160291D01*
X0146483Y0160291D01*
X0146066Y0160708D01*
X0146066Y0161542D01*
X0147361Y0163957D02*
X0147778Y0163957D01*
X0148195Y0164374D01*
X0148195Y0166459D01*
X0146944Y0166459D01*
X0146527Y0166042D01*
X0146527Y0165208D01*
X0146944Y0164791D01*
X0148195Y0164791D01*
X0149289Y0165208D02*
X0149706Y0164791D01*
X0150957Y0164791D01*
X0150957Y0164374D02*
X0150540Y0163957D01*
X0150123Y0163957D01*
X0150957Y0164374D02*
X0150957Y0166459D01*
X0149289Y0166459D02*
X0149289Y0165208D01*
X0149246Y0161959D02*
X0150080Y0161959D01*
X0150497Y0161542D01*
X0150497Y0161125D01*
X0148829Y0161125D01*
X0148829Y0161542D02*
X0149246Y0161959D01*
X0148829Y0161542D02*
X0148829Y0160708D01*
X0149246Y0160291D01*
X0150080Y0160291D01*
X0144225Y0164791D02*
X0144225Y0166459D01*
X0145059Y0166459D02*
X0145476Y0166459D01*
X0145059Y0166459D02*
X0144225Y0165625D01*
X0143130Y0165625D02*
X0141462Y0165625D01*
X0141462Y0166042D02*
X0141879Y0166459D01*
X0142713Y0166459D01*
X0143130Y0166042D01*
X0143130Y0165625D01*
X0142713Y0164791D02*
X0141879Y0164791D01*
X0141462Y0165208D01*
X0141462Y0166042D01*
X0140368Y0166042D02*
X0140368Y0164791D01*
X0140368Y0166042D02*
X0139951Y0166459D01*
X0138700Y0166459D01*
X0138700Y0164791D01*
X0137606Y0164791D02*
X0135938Y0164791D01*
X0135938Y0167293D01*
X0137606Y0167293D01*
X0136772Y0166042D02*
X0135938Y0166042D01*
X0187777Y0166732D02*
X0188527Y0165981D01*
X0190029Y0165981D01*
X0190779Y0166732D01*
X0190779Y0168233D01*
X0189278Y0168233D01*
X0187777Y0166732D02*
X0187777Y0169735D01*
X0188527Y0170485D01*
X0190029Y0170485D01*
X0190779Y0169735D01*
X0192381Y0170485D02*
X0192381Y0165981D01*
X0192381Y0167483D02*
X0194633Y0167483D01*
X0195383Y0168233D01*
X0195383Y0169735D01*
X0194633Y0170485D01*
X0192381Y0170485D01*
X0196985Y0170485D02*
X0198486Y0170485D01*
X0197735Y0170485D02*
X0197735Y0165981D01*
X0196985Y0165981D02*
X0198486Y0165981D01*
X0200054Y0166732D02*
X0200805Y0165981D01*
X0202306Y0165981D01*
X0203056Y0166732D01*
X0203056Y0169735D01*
X0202306Y0170485D01*
X0200805Y0170485D01*
X0200054Y0169735D01*
X0200054Y0166732D01*
X0204658Y0166732D02*
X0207660Y0169735D01*
X0207660Y0166732D01*
X0206910Y0165981D01*
X0205408Y0165981D01*
X0204658Y0166732D01*
X0204658Y0169735D01*
X0205408Y0170485D01*
X0206910Y0170485D01*
X0207660Y0169735D01*
X0212590Y0170704D02*
X0212590Y0172705D01*
X0213091Y0173206D01*
X0214092Y0173206D01*
X0214592Y0172705D01*
X0214592Y0171705D02*
X0213591Y0171705D01*
X0214592Y0171705D02*
X0214592Y0170704D01*
X0214092Y0170203D01*
X0213091Y0170203D01*
X0212590Y0170704D01*
X0215813Y0170203D02*
X0215813Y0173206D01*
X0217815Y0170203D01*
X0217815Y0173206D01*
X0219036Y0173206D02*
X0220537Y0173206D01*
X0221038Y0172705D01*
X0221038Y0170704D01*
X0220537Y0170203D01*
X0219036Y0170203D01*
X0219036Y0173206D01*
X0233856Y0172806D02*
X0233856Y0171305D01*
X0234857Y0171805D01*
X0235357Y0171805D01*
X0235857Y0171305D01*
X0235857Y0170304D01*
X0235357Y0169803D01*
X0234356Y0169803D01*
X0233856Y0170304D01*
X0233856Y0172806D02*
X0235857Y0172806D01*
X0237078Y0172806D02*
X0237078Y0170804D01*
X0238079Y0169803D01*
X0239080Y0170804D01*
X0239080Y0172806D01*
X0244013Y0173106D02*
X0246015Y0173106D01*
X0245014Y0173106D02*
X0245014Y0170103D01*
X0247236Y0170103D02*
X0249238Y0172105D01*
X0247236Y0172105D02*
X0249238Y0170103D01*
X0253913Y0169703D02*
X0253913Y0172706D01*
X0255414Y0172706D01*
X0255915Y0172205D01*
X0255915Y0171205D01*
X0255414Y0170704D01*
X0253913Y0170704D01*
X0254914Y0170704D02*
X0255915Y0169703D01*
X0257136Y0169703D02*
X0259138Y0171705D01*
X0257136Y0171705D02*
X0259138Y0169703D01*
X0263027Y0169659D02*
X0263027Y0172662D01*
X0264528Y0172662D01*
X0265028Y0172161D01*
X0265028Y0171161D01*
X0264528Y0170660D01*
X0263027Y0170660D01*
X0264027Y0170660D02*
X0265028Y0169659D01*
X0266249Y0170160D02*
X0266750Y0169659D01*
X0267751Y0169659D01*
X0268251Y0170160D01*
X0268251Y0170660D01*
X0267751Y0171161D01*
X0266750Y0171161D01*
X0266249Y0171661D01*
X0266249Y0172161D01*
X0266750Y0172662D01*
X0267751Y0172662D01*
X0268251Y0172161D01*
X0269472Y0172662D02*
X0271474Y0172662D01*
X0270473Y0172662D02*
X0270473Y0169659D01*
X0273827Y0153531D02*
X0273827Y0058649D01*
X0210047Y0058649D01*
X0210047Y0153531D01*
X0273827Y0153531D01*
X0281417Y0142941D02*
X0281417Y0118531D01*
X0305827Y0118531D01*
X0305827Y0142941D01*
X0281417Y0142941D01*
X0282205Y0135854D02*
X0282205Y0125618D01*
X0287716Y0130736D02*
X0287718Y0130889D01*
X0287724Y0131043D01*
X0287734Y0131196D01*
X0287748Y0131348D01*
X0287766Y0131501D01*
X0287788Y0131652D01*
X0287813Y0131803D01*
X0287843Y0131954D01*
X0287877Y0132104D01*
X0287914Y0132252D01*
X0287955Y0132400D01*
X0288000Y0132546D01*
X0288049Y0132692D01*
X0288102Y0132836D01*
X0288158Y0132978D01*
X0288218Y0133119D01*
X0288282Y0133259D01*
X0288349Y0133397D01*
X0288420Y0133533D01*
X0288495Y0133667D01*
X0288572Y0133799D01*
X0288654Y0133929D01*
X0288738Y0134057D01*
X0288826Y0134183D01*
X0288917Y0134306D01*
X0289011Y0134427D01*
X0289109Y0134545D01*
X0289209Y0134661D01*
X0289313Y0134774D01*
X0289419Y0134885D01*
X0289528Y0134993D01*
X0289640Y0135098D01*
X0289754Y0135199D01*
X0289872Y0135298D01*
X0289991Y0135394D01*
X0290113Y0135487D01*
X0290238Y0135576D01*
X0290365Y0135663D01*
X0290494Y0135745D01*
X0290625Y0135825D01*
X0290758Y0135901D01*
X0290893Y0135974D01*
X0291030Y0136043D01*
X0291169Y0136108D01*
X0291309Y0136170D01*
X0291451Y0136228D01*
X0291594Y0136283D01*
X0291739Y0136334D01*
X0291885Y0136381D01*
X0292032Y0136424D01*
X0292180Y0136463D01*
X0292329Y0136499D01*
X0292479Y0136530D01*
X0292630Y0136558D01*
X0292781Y0136582D01*
X0292934Y0136602D01*
X0293086Y0136618D01*
X0293239Y0136630D01*
X0293392Y0136638D01*
X0293545Y0136642D01*
X0293699Y0136642D01*
X0293852Y0136638D01*
X0294005Y0136630D01*
X0294158Y0136618D01*
X0294310Y0136602D01*
X0294463Y0136582D01*
X0294614Y0136558D01*
X0294765Y0136530D01*
X0294915Y0136499D01*
X0295064Y0136463D01*
X0295212Y0136424D01*
X0295359Y0136381D01*
X0295505Y0136334D01*
X0295650Y0136283D01*
X0295793Y0136228D01*
X0295935Y0136170D01*
X0296075Y0136108D01*
X0296214Y0136043D01*
X0296351Y0135974D01*
X0296486Y0135901D01*
X0296619Y0135825D01*
X0296750Y0135745D01*
X0296879Y0135663D01*
X0297006Y0135576D01*
X0297131Y0135487D01*
X0297253Y0135394D01*
X0297372Y0135298D01*
X0297490Y0135199D01*
X0297604Y0135098D01*
X0297716Y0134993D01*
X0297825Y0134885D01*
X0297931Y0134774D01*
X0298035Y0134661D01*
X0298135Y0134545D01*
X0298233Y0134427D01*
X0298327Y0134306D01*
X0298418Y0134183D01*
X0298506Y0134057D01*
X0298590Y0133929D01*
X0298672Y0133799D01*
X0298749Y0133667D01*
X0298824Y0133533D01*
X0298895Y0133397D01*
X0298962Y0133259D01*
X0299026Y0133119D01*
X0299086Y0132978D01*
X0299142Y0132836D01*
X0299195Y0132692D01*
X0299244Y0132546D01*
X0299289Y0132400D01*
X0299330Y0132252D01*
X0299367Y0132104D01*
X0299401Y0131954D01*
X0299431Y0131803D01*
X0299456Y0131652D01*
X0299478Y0131501D01*
X0299496Y0131348D01*
X0299510Y0131196D01*
X0299520Y0131043D01*
X0299526Y0130889D01*
X0299528Y0130736D01*
X0299526Y0130583D01*
X0299520Y0130429D01*
X0299510Y0130276D01*
X0299496Y0130124D01*
X0299478Y0129971D01*
X0299456Y0129820D01*
X0299431Y0129669D01*
X0299401Y0129518D01*
X0299367Y0129368D01*
X0299330Y0129220D01*
X0299289Y0129072D01*
X0299244Y0128926D01*
X0299195Y0128780D01*
X0299142Y0128636D01*
X0299086Y0128494D01*
X0299026Y0128353D01*
X0298962Y0128213D01*
X0298895Y0128075D01*
X0298824Y0127939D01*
X0298749Y0127805D01*
X0298672Y0127673D01*
X0298590Y0127543D01*
X0298506Y0127415D01*
X0298418Y0127289D01*
X0298327Y0127166D01*
X0298233Y0127045D01*
X0298135Y0126927D01*
X0298035Y0126811D01*
X0297931Y0126698D01*
X0297825Y0126587D01*
X0297716Y0126479D01*
X0297604Y0126374D01*
X0297490Y0126273D01*
X0297372Y0126174D01*
X0297253Y0126078D01*
X0297131Y0125985D01*
X0297006Y0125896D01*
X0296879Y0125809D01*
X0296750Y0125727D01*
X0296619Y0125647D01*
X0296486Y0125571D01*
X0296351Y0125498D01*
X0296214Y0125429D01*
X0296075Y0125364D01*
X0295935Y0125302D01*
X0295793Y0125244D01*
X0295650Y0125189D01*
X0295505Y0125138D01*
X0295359Y0125091D01*
X0295212Y0125048D01*
X0295064Y0125009D01*
X0294915Y0124973D01*
X0294765Y0124942D01*
X0294614Y0124914D01*
X0294463Y0124890D01*
X0294310Y0124870D01*
X0294158Y0124854D01*
X0294005Y0124842D01*
X0293852Y0124834D01*
X0293699Y0124830D01*
X0293545Y0124830D01*
X0293392Y0124834D01*
X0293239Y0124842D01*
X0293086Y0124854D01*
X0292934Y0124870D01*
X0292781Y0124890D01*
X0292630Y0124914D01*
X0292479Y0124942D01*
X0292329Y0124973D01*
X0292180Y0125009D01*
X0292032Y0125048D01*
X0291885Y0125091D01*
X0291739Y0125138D01*
X0291594Y0125189D01*
X0291451Y0125244D01*
X0291309Y0125302D01*
X0291169Y0125364D01*
X0291030Y0125429D01*
X0290893Y0125498D01*
X0290758Y0125571D01*
X0290625Y0125647D01*
X0290494Y0125727D01*
X0290365Y0125809D01*
X0290238Y0125896D01*
X0290113Y0125985D01*
X0289991Y0126078D01*
X0289872Y0126174D01*
X0289754Y0126273D01*
X0289640Y0126374D01*
X0289528Y0126479D01*
X0289419Y0126587D01*
X0289313Y0126698D01*
X0289209Y0126811D01*
X0289109Y0126927D01*
X0289011Y0127045D01*
X0288917Y0127166D01*
X0288826Y0127289D01*
X0288738Y0127415D01*
X0288654Y0127543D01*
X0288572Y0127673D01*
X0288495Y0127805D01*
X0288420Y0127939D01*
X0288349Y0128075D01*
X0288282Y0128213D01*
X0288218Y0128353D01*
X0288158Y0128494D01*
X0288102Y0128636D01*
X0288049Y0128780D01*
X0288000Y0128926D01*
X0287955Y0129072D01*
X0287914Y0129220D01*
X0287877Y0129368D01*
X0287843Y0129518D01*
X0287813Y0129669D01*
X0287788Y0129820D01*
X0287766Y0129971D01*
X0287748Y0130124D01*
X0287734Y0130276D01*
X0287724Y0130429D01*
X0287718Y0130583D01*
X0287716Y0130736D01*
X0305039Y0125618D02*
X0305039Y0135854D01*
X0360268Y0116004D02*
X0360268Y0175059D01*
X0382827Y0168031D02*
X0402827Y0168031D01*
X0415386Y0175059D02*
X0415386Y0116004D01*
X0371790Y0080285D02*
X0371790Y0075781D01*
X0370289Y0075781D02*
X0373291Y0075781D01*
X0370289Y0078784D02*
X0371790Y0080285D01*
X0368687Y0080285D02*
X0365685Y0080285D01*
X0367186Y0080285D02*
X0367186Y0075781D01*
X0364083Y0075781D02*
X0364083Y0080285D01*
X0361081Y0080285D02*
X0364083Y0075781D01*
X0361081Y0075781D02*
X0361081Y0080285D01*
X0359479Y0078784D02*
X0359479Y0075781D01*
X0359479Y0078033D02*
X0356477Y0078033D01*
X0356477Y0078784D02*
X0357978Y0080285D01*
X0359479Y0078784D01*
X0356477Y0078784D02*
X0356477Y0075781D01*
X0382827Y0150531D02*
X0402827Y0150531D01*
X0403040Y0150534D01*
X0403253Y0150541D01*
X0403466Y0150554D01*
X0403678Y0150572D01*
X0403890Y0150596D01*
X0404101Y0150624D01*
X0404311Y0150658D01*
X0404521Y0150697D01*
X0404730Y0150740D01*
X0404937Y0150789D01*
X0405143Y0150843D01*
X0405348Y0150902D01*
X0405551Y0150966D01*
X0405753Y0151035D01*
X0405953Y0151108D01*
X0406151Y0151187D01*
X0406347Y0151270D01*
X0406541Y0151358D01*
X0406733Y0151451D01*
X0406922Y0151549D01*
X0407109Y0151651D01*
X0407294Y0151757D01*
X0407476Y0151868D01*
X0407655Y0151984D01*
X0407831Y0152103D01*
X0408005Y0152227D01*
X0408175Y0152355D01*
X0408342Y0152488D01*
X0408506Y0152624D01*
X0408666Y0152764D01*
X0408823Y0152908D01*
X0408976Y0153056D01*
X0409126Y0153208D01*
X0409272Y0153363D01*
X0409414Y0153522D01*
X0409553Y0153684D01*
X0409687Y0153849D01*
X0409817Y0154018D01*
X0409943Y0154190D01*
X0410065Y0154365D01*
X0410183Y0154542D01*
X0410296Y0154723D01*
X0410405Y0154906D01*
X0410509Y0155092D01*
X0410609Y0155280D01*
X0410704Y0155471D01*
X0410794Y0155664D01*
X0410880Y0155859D01*
X0410961Y0156056D01*
X0411037Y0156255D01*
X0411108Y0156456D01*
X0411175Y0156658D01*
X0411236Y0156862D01*
X0411292Y0157068D01*
X0411344Y0157275D01*
X0411390Y0157483D01*
X0411431Y0157692D01*
X0411468Y0157902D01*
X0411499Y0158112D01*
X0411525Y0158324D01*
X0411545Y0158536D01*
X0411561Y0158749D01*
X0411571Y0158961D01*
X0411576Y0159174D01*
X0411576Y0159388D01*
X0411571Y0159601D01*
X0411561Y0159813D01*
X0411545Y0160026D01*
X0411525Y0160238D01*
X0411499Y0160450D01*
X0411468Y0160660D01*
X0411431Y0160870D01*
X0411390Y0161079D01*
X0411344Y0161287D01*
X0411292Y0161494D01*
X0411236Y0161700D01*
X0411175Y0161904D01*
X0411108Y0162106D01*
X0411037Y0162307D01*
X0410961Y0162506D01*
X0410880Y0162703D01*
X0410794Y0162898D01*
X0410704Y0163091D01*
X0410609Y0163282D01*
X0410509Y0163470D01*
X0410405Y0163656D01*
X0410296Y0163839D01*
X0410183Y0164020D01*
X0410065Y0164197D01*
X0409943Y0164372D01*
X0409817Y0164544D01*
X0409687Y0164713D01*
X0409553Y0164878D01*
X0409414Y0165040D01*
X0409272Y0165199D01*
X0409126Y0165354D01*
X0408976Y0165506D01*
X0408823Y0165654D01*
X0408666Y0165798D01*
X0408506Y0165938D01*
X0408342Y0166074D01*
X0408175Y0166207D01*
X0408005Y0166335D01*
X0407831Y0166459D01*
X0407655Y0166578D01*
X0407476Y0166694D01*
X0407294Y0166805D01*
X0407109Y0166911D01*
X0406922Y0167013D01*
X0406733Y0167111D01*
X0406541Y0167204D01*
X0406347Y0167292D01*
X0406151Y0167375D01*
X0405953Y0167454D01*
X0405753Y0167527D01*
X0405551Y0167596D01*
X0405348Y0167660D01*
X0405143Y0167719D01*
X0404937Y0167773D01*
X0404730Y0167822D01*
X0404521Y0167865D01*
X0404311Y0167904D01*
X0404101Y0167938D01*
X0403890Y0167966D01*
X0403678Y0167990D01*
X0403466Y0168008D01*
X0403253Y0168021D01*
X0403040Y0168028D01*
X0402827Y0168031D01*
X0382827Y0168031D02*
X0382613Y0168059D01*
X0382398Y0168082D01*
X0382182Y0168099D01*
X0381966Y0168111D01*
X0381750Y0168118D01*
X0381534Y0168120D01*
X0381317Y0168116D01*
X0381101Y0168107D01*
X0380886Y0168093D01*
X0380670Y0168073D01*
X0380455Y0168049D01*
X0380241Y0168018D01*
X0380028Y0167983D01*
X0379815Y0167943D01*
X0379604Y0167897D01*
X0379394Y0167846D01*
X0379185Y0167790D01*
X0378977Y0167729D01*
X0378772Y0167663D01*
X0378567Y0167592D01*
X0378365Y0167516D01*
X0378164Y0167435D01*
X0377966Y0167349D01*
X0377770Y0167258D01*
X0377576Y0167162D01*
X0377384Y0167062D01*
X0377195Y0166957D01*
X0377008Y0166848D01*
X0376825Y0166734D01*
X0376644Y0166615D01*
X0376466Y0166492D01*
X0376291Y0166365D01*
X0376119Y0166234D01*
X0375951Y0166098D01*
X0375786Y0165958D01*
X0375624Y0165815D01*
X0375466Y0165667D01*
X0375312Y0165516D01*
X0375161Y0165361D01*
X0375014Y0165202D01*
X0374871Y0165040D01*
X0374732Y0164874D01*
X0374598Y0164705D01*
X0374467Y0164532D01*
X0374341Y0164357D01*
X0374219Y0164178D01*
X0374101Y0163997D01*
X0373988Y0163812D01*
X0373879Y0163625D01*
X0373775Y0163436D01*
X0373676Y0163244D01*
X0373581Y0163049D01*
X0373492Y0162852D01*
X0373407Y0162654D01*
X0373327Y0162453D01*
X0373252Y0162250D01*
X0373181Y0162045D01*
X0373116Y0161839D01*
X0373056Y0161631D01*
X0373001Y0161422D01*
X0372951Y0161212D01*
X0372907Y0161000D01*
X0372867Y0160787D01*
X0372833Y0160574D01*
X0372804Y0160360D01*
X0372780Y0160145D01*
X0372762Y0159929D01*
X0372749Y0159713D01*
X0372741Y0159497D01*
X0372738Y0159281D01*
X0372741Y0159065D01*
X0372749Y0158849D01*
X0372762Y0158633D01*
X0372780Y0158417D01*
X0372804Y0158202D01*
X0372833Y0157988D01*
X0372867Y0157775D01*
X0372907Y0157562D01*
X0372951Y0157350D01*
X0373001Y0157140D01*
X0373056Y0156931D01*
X0373116Y0156723D01*
X0373181Y0156517D01*
X0373252Y0156312D01*
X0373327Y0156109D01*
X0373407Y0155908D01*
X0373492Y0155710D01*
X0373581Y0155513D01*
X0373676Y0155318D01*
X0373775Y0155126D01*
X0373879Y0154937D01*
X0373988Y0154750D01*
X0374101Y0154565D01*
X0374219Y0154384D01*
X0374341Y0154205D01*
X0374467Y0154030D01*
X0374598Y0153857D01*
X0374732Y0153688D01*
X0374871Y0153522D01*
X0375014Y0153360D01*
X0375161Y0153201D01*
X0375312Y0153046D01*
X0375466Y0152895D01*
X0375624Y0152747D01*
X0375786Y0152604D01*
X0375951Y0152464D01*
X0376119Y0152328D01*
X0376291Y0152197D01*
X0376466Y0152070D01*
X0376644Y0151947D01*
X0376825Y0151828D01*
X0377008Y0151714D01*
X0377195Y0151605D01*
X0377384Y0151500D01*
X0377576Y0151400D01*
X0377770Y0151304D01*
X0377966Y0151213D01*
X0378164Y0151127D01*
X0378365Y0151046D01*
X0378567Y0150970D01*
X0378772Y0150899D01*
X0378977Y0150833D01*
X0379185Y0150772D01*
X0379394Y0150716D01*
X0379604Y0150665D01*
X0379815Y0150619D01*
X0380028Y0150579D01*
X0380241Y0150544D01*
X0380455Y0150513D01*
X0380670Y0150489D01*
X0380886Y0150469D01*
X0381101Y0150455D01*
X0381317Y0150446D01*
X0381534Y0150442D01*
X0381750Y0150444D01*
X0381966Y0150451D01*
X0382182Y0150463D01*
X0382398Y0150480D01*
X0382613Y0150503D01*
X0382827Y0150531D01*
X0380876Y0201859D02*
X0381877Y0202860D01*
X0381877Y0204862D01*
X0379875Y0204862D02*
X0379875Y0202860D01*
X0380876Y0201859D01*
X0378654Y0202360D02*
X0378154Y0201859D01*
X0377153Y0201859D01*
X0376652Y0202360D01*
X0376652Y0203361D02*
X0377653Y0203861D01*
X0378154Y0203861D01*
X0378654Y0203361D01*
X0378654Y0202360D01*
X0376652Y0203361D02*
X0376652Y0204862D01*
X0378654Y0204862D01*
X0387095Y0204862D02*
X0389097Y0204862D01*
X0388096Y0204862D02*
X0388096Y0201859D01*
X0390318Y0201859D02*
X0392319Y0203861D01*
X0390318Y0203861D02*
X0392319Y0201859D01*
X0396695Y0202059D02*
X0396695Y0205062D01*
X0398196Y0205062D01*
X0398697Y0204561D01*
X0398697Y0203561D01*
X0398196Y0203060D01*
X0396695Y0203060D01*
X0397696Y0203060D02*
X0398697Y0202059D01*
X0399918Y0202059D02*
X0401919Y0204061D01*
X0399918Y0204061D02*
X0401919Y0202059D01*
X0404459Y0202003D02*
X0404459Y0205006D01*
X0405960Y0205006D01*
X0406460Y0204505D01*
X0406460Y0203505D01*
X0405960Y0203004D01*
X0404459Y0203004D01*
X0405460Y0203004D02*
X0406460Y0202003D01*
X0407681Y0202504D02*
X0408182Y0202003D01*
X0409183Y0202003D01*
X0409683Y0202504D01*
X0409683Y0203004D01*
X0409183Y0203505D01*
X0408182Y0203505D01*
X0407681Y0204005D01*
X0407681Y0204505D01*
X0408182Y0205006D01*
X0409183Y0205006D01*
X0409683Y0204505D01*
X0410904Y0205006D02*
X0412906Y0205006D01*
X0411905Y0205006D02*
X0411905Y0202003D01*
X0364142Y0202260D02*
X0364142Y0204261D01*
X0363642Y0204762D01*
X0362140Y0204762D01*
X0362140Y0201759D01*
X0363642Y0201759D01*
X0364142Y0202260D01*
X0360919Y0201759D02*
X0360919Y0204762D01*
X0358918Y0204762D02*
X0358918Y0201759D01*
X0357697Y0202260D02*
X0357697Y0203261D01*
X0356696Y0203261D01*
X0357697Y0204261D02*
X0357196Y0204762D01*
X0356195Y0204762D01*
X0355695Y0204261D01*
X0355695Y0202260D01*
X0356195Y0201759D01*
X0357196Y0201759D01*
X0357697Y0202260D01*
X0358918Y0204762D02*
X0360919Y0201759D01*
X0310545Y0246062D02*
X0310545Y0249064D01*
X0309795Y0249815D01*
X0308294Y0249815D01*
X0307543Y0249064D01*
X0307543Y0246062D01*
X0308294Y0245311D01*
X0309795Y0245311D01*
X0310545Y0246062D01*
X0305942Y0249815D02*
X0302939Y0245311D01*
X0301371Y0245311D02*
X0299870Y0245311D01*
X0300620Y0245311D02*
X0300620Y0249815D01*
X0299870Y0249815D02*
X0301371Y0249815D01*
X0224593Y0268783D02*
X0223325Y0268783D01*
X0223959Y0268783D02*
X0223959Y0266881D01*
X0222383Y0267198D02*
X0222066Y0266881D01*
X0221432Y0266881D01*
X0221115Y0267198D01*
X0221115Y0268466D01*
X0221432Y0268783D01*
X0222066Y0268783D01*
X0222383Y0268466D01*
X0220173Y0268783D02*
X0218905Y0268783D01*
X0218905Y0266881D01*
X0220173Y0266881D01*
X0219539Y0267832D02*
X0218905Y0267832D01*
X0217963Y0266881D02*
X0216695Y0266881D01*
X0216695Y0268783D01*
X0215753Y0268783D02*
X0214485Y0268783D01*
X0214485Y0266881D01*
X0215753Y0266881D01*
X0215119Y0267832D02*
X0214485Y0267832D01*
X0213543Y0267515D02*
X0213543Y0267198D01*
X0213226Y0266881D01*
X0212592Y0266881D01*
X0212276Y0267198D01*
X0212592Y0267832D02*
X0213226Y0267832D01*
X0213543Y0267515D01*
X0213543Y0268466D02*
X0213226Y0268783D01*
X0212592Y0268783D01*
X0212276Y0268466D01*
X0212276Y0268149D01*
X0212592Y0267832D01*
X0211333Y0266564D02*
X0210066Y0266564D01*
X0209124Y0266881D02*
X0207856Y0266881D01*
X0207856Y0268783D01*
X0209124Y0268783D01*
X0208490Y0267832D02*
X0207856Y0267832D01*
X0206914Y0267198D02*
X0206597Y0266881D01*
X0205963Y0266881D01*
X0205646Y0267198D01*
X0205646Y0268466D01*
X0205963Y0268783D01*
X0206597Y0268783D01*
X0206914Y0268466D01*
X0204704Y0268783D02*
X0204704Y0266881D01*
X0203436Y0268783D01*
X0203436Y0266881D01*
X0202494Y0266881D02*
X0201226Y0266881D01*
X0201226Y0268783D01*
X0202494Y0268783D01*
X0201860Y0267832D02*
X0201226Y0267832D01*
X0200284Y0267832D02*
X0199967Y0267515D01*
X0199016Y0267515D01*
X0199016Y0266881D02*
X0199016Y0268783D01*
X0199967Y0268783D01*
X0200284Y0268466D01*
X0200284Y0267832D01*
X0199650Y0267515D02*
X0200284Y0266881D01*
X0198074Y0266881D02*
X0196806Y0266881D01*
X0196806Y0268783D01*
X0198074Y0268783D01*
X0197440Y0267832D02*
X0196806Y0267832D01*
X0195864Y0268783D02*
X0194597Y0268783D01*
X0194597Y0266881D01*
X0193654Y0266881D02*
X0192387Y0266881D01*
X0192387Y0268783D01*
X0193654Y0268783D01*
X0193021Y0267832D02*
X0192387Y0267832D01*
X0191445Y0267832D02*
X0191128Y0267515D01*
X0190177Y0267515D01*
X0190811Y0267515D02*
X0191445Y0266881D01*
X0191445Y0267832D02*
X0191445Y0268466D01*
X0191128Y0268783D01*
X0190177Y0268783D01*
X0190177Y0266881D01*
X0194597Y0267832D02*
X0195230Y0267832D01*
X0207706Y0284533D02*
X0219517Y0284533D01*
X0219517Y0304218D01*
X0207706Y0304218D01*
X0207706Y0284533D01*
X0207706Y0300281D02*
X0207706Y0302249D01*
X0219517Y0302249D01*
X0219517Y0300281D01*
X0207706Y0300281D01*
X0207706Y0300778D02*
X0219517Y0300778D01*
X0219517Y0301277D02*
X0207706Y0301277D01*
X0207706Y0301775D02*
X0219517Y0301775D01*
X0221276Y0306634D02*
X0221276Y0339134D01*
X0253776Y0339134D01*
X0253776Y0306634D01*
X0221276Y0306634D01*
X0246134Y0348804D02*
X0245717Y0349221D01*
X0246134Y0348804D02*
X0246968Y0348804D01*
X0247385Y0349221D01*
X0247385Y0350055D01*
X0246968Y0350472D01*
X0246551Y0350472D01*
X0245717Y0350055D01*
X0245717Y0351306D01*
X0247385Y0351306D01*
X0248479Y0349221D02*
X0248896Y0349221D01*
X0248896Y0348804D01*
X0248479Y0348804D01*
X0248479Y0349221D01*
X0249860Y0349221D02*
X0251529Y0350889D01*
X0251529Y0349221D01*
X0251112Y0348804D01*
X0250277Y0348804D01*
X0249860Y0349221D01*
X0249860Y0350889D01*
X0250277Y0351306D01*
X0251112Y0351306D01*
X0251529Y0350889D01*
X0252623Y0351306D02*
X0252623Y0349638D01*
X0253457Y0348804D01*
X0254291Y0349638D01*
X0254291Y0351306D01*
X0301117Y0350955D02*
X0302785Y0350955D01*
X0302368Y0349704D02*
X0302368Y0352206D01*
X0301117Y0350955D01*
X0303879Y0350121D02*
X0304296Y0350121D01*
X0304296Y0349704D01*
X0303879Y0349704D01*
X0303879Y0350121D01*
X0305260Y0350121D02*
X0305260Y0349704D01*
X0305260Y0350121D02*
X0306929Y0351789D01*
X0306929Y0352206D01*
X0305260Y0352206D01*
X0308023Y0352206D02*
X0308023Y0350538D01*
X0308857Y0349704D01*
X0309691Y0350538D01*
X0309691Y0352206D01*
X0356220Y0342429D02*
X0356220Y0318020D01*
X0380630Y0318020D01*
X0380630Y0342429D01*
X0356220Y0342429D01*
X0357008Y0335342D02*
X0357008Y0325106D01*
X0362519Y0330224D02*
X0362521Y0330377D01*
X0362527Y0330531D01*
X0362537Y0330684D01*
X0362551Y0330836D01*
X0362569Y0330989D01*
X0362591Y0331140D01*
X0362616Y0331291D01*
X0362646Y0331442D01*
X0362680Y0331592D01*
X0362717Y0331740D01*
X0362758Y0331888D01*
X0362803Y0332034D01*
X0362852Y0332180D01*
X0362905Y0332324D01*
X0362961Y0332466D01*
X0363021Y0332607D01*
X0363085Y0332747D01*
X0363152Y0332885D01*
X0363223Y0333021D01*
X0363298Y0333155D01*
X0363375Y0333287D01*
X0363457Y0333417D01*
X0363541Y0333545D01*
X0363629Y0333671D01*
X0363720Y0333794D01*
X0363814Y0333915D01*
X0363912Y0334033D01*
X0364012Y0334149D01*
X0364116Y0334262D01*
X0364222Y0334373D01*
X0364331Y0334481D01*
X0364443Y0334586D01*
X0364557Y0334687D01*
X0364675Y0334786D01*
X0364794Y0334882D01*
X0364916Y0334975D01*
X0365041Y0335064D01*
X0365168Y0335151D01*
X0365297Y0335233D01*
X0365428Y0335313D01*
X0365561Y0335389D01*
X0365696Y0335462D01*
X0365833Y0335531D01*
X0365972Y0335596D01*
X0366112Y0335658D01*
X0366254Y0335716D01*
X0366397Y0335771D01*
X0366542Y0335822D01*
X0366688Y0335869D01*
X0366835Y0335912D01*
X0366983Y0335951D01*
X0367132Y0335987D01*
X0367282Y0336018D01*
X0367433Y0336046D01*
X0367584Y0336070D01*
X0367737Y0336090D01*
X0367889Y0336106D01*
X0368042Y0336118D01*
X0368195Y0336126D01*
X0368348Y0336130D01*
X0368502Y0336130D01*
X0368655Y0336126D01*
X0368808Y0336118D01*
X0368961Y0336106D01*
X0369113Y0336090D01*
X0369266Y0336070D01*
X0369417Y0336046D01*
X0369568Y0336018D01*
X0369718Y0335987D01*
X0369867Y0335951D01*
X0370015Y0335912D01*
X0370162Y0335869D01*
X0370308Y0335822D01*
X0370453Y0335771D01*
X0370596Y0335716D01*
X0370738Y0335658D01*
X0370878Y0335596D01*
X0371017Y0335531D01*
X0371154Y0335462D01*
X0371289Y0335389D01*
X0371422Y0335313D01*
X0371553Y0335233D01*
X0371682Y0335151D01*
X0371809Y0335064D01*
X0371934Y0334975D01*
X0372056Y0334882D01*
X0372175Y0334786D01*
X0372293Y0334687D01*
X0372407Y0334586D01*
X0372519Y0334481D01*
X0372628Y0334373D01*
X0372734Y0334262D01*
X0372838Y0334149D01*
X0372938Y0334033D01*
X0373036Y0333915D01*
X0373130Y0333794D01*
X0373221Y0333671D01*
X0373309Y0333545D01*
X0373393Y0333417D01*
X0373475Y0333287D01*
X0373552Y0333155D01*
X0373627Y0333021D01*
X0373698Y0332885D01*
X0373765Y0332747D01*
X0373829Y0332607D01*
X0373889Y0332466D01*
X0373945Y0332324D01*
X0373998Y0332180D01*
X0374047Y0332034D01*
X0374092Y0331888D01*
X0374133Y0331740D01*
X0374170Y0331592D01*
X0374204Y0331442D01*
X0374234Y0331291D01*
X0374259Y0331140D01*
X0374281Y0330989D01*
X0374299Y0330836D01*
X0374313Y0330684D01*
X0374323Y0330531D01*
X0374329Y0330377D01*
X0374331Y0330224D01*
X0374329Y0330071D01*
X0374323Y0329917D01*
X0374313Y0329764D01*
X0374299Y0329612D01*
X0374281Y0329459D01*
X0374259Y0329308D01*
X0374234Y0329157D01*
X0374204Y0329006D01*
X0374170Y0328856D01*
X0374133Y0328708D01*
X0374092Y0328560D01*
X0374047Y0328414D01*
X0373998Y0328268D01*
X0373945Y0328124D01*
X0373889Y0327982D01*
X0373829Y0327841D01*
X0373765Y0327701D01*
X0373698Y0327563D01*
X0373627Y0327427D01*
X0373552Y0327293D01*
X0373475Y0327161D01*
X0373393Y0327031D01*
X0373309Y0326903D01*
X0373221Y0326777D01*
X0373130Y0326654D01*
X0373036Y0326533D01*
X0372938Y0326415D01*
X0372838Y0326299D01*
X0372734Y0326186D01*
X0372628Y0326075D01*
X0372519Y0325967D01*
X0372407Y0325862D01*
X0372293Y0325761D01*
X0372175Y0325662D01*
X0372056Y0325566D01*
X0371934Y0325473D01*
X0371809Y0325384D01*
X0371682Y0325297D01*
X0371553Y0325215D01*
X0371422Y0325135D01*
X0371289Y0325059D01*
X0371154Y0324986D01*
X0371017Y0324917D01*
X0370878Y0324852D01*
X0370738Y0324790D01*
X0370596Y0324732D01*
X0370453Y0324677D01*
X0370308Y0324626D01*
X0370162Y0324579D01*
X0370015Y0324536D01*
X0369867Y0324497D01*
X0369718Y0324461D01*
X0369568Y0324430D01*
X0369417Y0324402D01*
X0369266Y0324378D01*
X0369113Y0324358D01*
X0368961Y0324342D01*
X0368808Y0324330D01*
X0368655Y0324322D01*
X0368502Y0324318D01*
X0368348Y0324318D01*
X0368195Y0324322D01*
X0368042Y0324330D01*
X0367889Y0324342D01*
X0367737Y0324358D01*
X0367584Y0324378D01*
X0367433Y0324402D01*
X0367282Y0324430D01*
X0367132Y0324461D01*
X0366983Y0324497D01*
X0366835Y0324536D01*
X0366688Y0324579D01*
X0366542Y0324626D01*
X0366397Y0324677D01*
X0366254Y0324732D01*
X0366112Y0324790D01*
X0365972Y0324852D01*
X0365833Y0324917D01*
X0365696Y0324986D01*
X0365561Y0325059D01*
X0365428Y0325135D01*
X0365297Y0325215D01*
X0365168Y0325297D01*
X0365041Y0325384D01*
X0364916Y0325473D01*
X0364794Y0325566D01*
X0364675Y0325662D01*
X0364557Y0325761D01*
X0364443Y0325862D01*
X0364331Y0325967D01*
X0364222Y0326075D01*
X0364116Y0326186D01*
X0364012Y0326299D01*
X0363912Y0326415D01*
X0363814Y0326533D01*
X0363720Y0326654D01*
X0363629Y0326777D01*
X0363541Y0326903D01*
X0363457Y0327031D01*
X0363375Y0327161D01*
X0363298Y0327293D01*
X0363223Y0327427D01*
X0363152Y0327563D01*
X0363085Y0327701D01*
X0363021Y0327841D01*
X0362961Y0327982D01*
X0362905Y0328124D01*
X0362852Y0328268D01*
X0362803Y0328414D01*
X0362758Y0328560D01*
X0362717Y0328708D01*
X0362680Y0328856D01*
X0362646Y0329006D01*
X0362616Y0329157D01*
X0362591Y0329308D01*
X0362569Y0329459D01*
X0362551Y0329612D01*
X0362537Y0329764D01*
X0362527Y0329917D01*
X0362521Y0330071D01*
X0362519Y0330224D01*
X0379843Y0335342D02*
X0379843Y0325106D01*
X0079402Y0144249D02*
X0078151Y0142998D01*
X0079819Y0142998D01*
X0079402Y0141747D02*
X0079402Y0144249D01*
X0077187Y0142164D02*
X0077187Y0141747D01*
X0076770Y0141747D01*
X0076770Y0142164D01*
X0077187Y0142164D01*
X0075676Y0142164D02*
X0075259Y0141747D01*
X0074425Y0141747D01*
X0074008Y0142164D01*
X0074842Y0142998D02*
X0075259Y0142998D01*
X0075676Y0142581D01*
X0075676Y0142164D01*
X0075259Y0142998D02*
X0075676Y0143415D01*
X0075676Y0143832D01*
X0075259Y0144249D01*
X0074425Y0144249D01*
X0074008Y0143832D01*
X0072913Y0143415D02*
X0072079Y0141747D01*
X0071245Y0143415D01*
X0089827Y0138957D02*
X0089827Y0134106D01*
X0089827Y0130169D02*
X0089827Y0125319D01*
X0089827Y0121382D02*
X0089827Y0116531D01*
D11*
X0091102Y0160576D02*
X0091102Y0165113D01*
X0094505Y0165113D01*
X0095639Y0163979D01*
X0095639Y0160576D01*
X0098468Y0160576D02*
X0101871Y0160576D01*
X0103006Y0161711D01*
X0103006Y0166248D01*
X0101871Y0167382D01*
X0098468Y0167382D01*
X0098468Y0160576D01*
X0105835Y0161711D02*
X0105835Y0166248D01*
X0106969Y0167382D01*
X0109237Y0167382D01*
X0110372Y0166248D01*
X0110372Y0161711D02*
X0109237Y0160576D01*
X0106969Y0160576D01*
X0105835Y0161711D01*
X0088273Y0161711D02*
X0088273Y0163979D01*
X0087139Y0165113D01*
X0084870Y0165113D01*
X0083736Y0163979D01*
X0083736Y0161711D01*
X0084870Y0160576D01*
X0087139Y0160576D01*
X0088273Y0161711D01*
X0080907Y0160576D02*
X0080907Y0163979D01*
X0079772Y0165113D01*
X0078638Y0163979D01*
X0078638Y0160576D01*
X0076369Y0160576D02*
X0076369Y0165113D01*
X0077504Y0165113D01*
X0078638Y0163979D01*
X0073540Y0163979D02*
X0072406Y0165113D01*
X0070137Y0165113D01*
X0069003Y0163979D01*
X0069003Y0161711D01*
X0070137Y0160576D01*
X0072406Y0160576D01*
X0073540Y0162845D02*
X0069003Y0162845D01*
X0073540Y0162845D02*
X0073540Y0163979D01*
D12*
X0076327Y0192531D02*
X0081327Y0192531D01*
X0083827Y0195031D01*
X0086327Y0192531D01*
X0091327Y0192531D01*
X0093827Y0195031D01*
X0096327Y0192531D01*
X0101327Y0192531D01*
X0103827Y0195031D01*
X0103827Y0200031D01*
X0101327Y0202531D01*
X0096327Y0202531D01*
X0093827Y0200031D01*
X0091327Y0202531D01*
X0086327Y0202531D01*
X0083827Y0200031D01*
X0081327Y0202531D01*
X0076327Y0202531D01*
X0073827Y0200031D01*
X0073827Y0195031D01*
X0076327Y0192531D01*
X0061213Y0191145D02*
X0032079Y0191145D01*
X0032079Y0217917D01*
X0061213Y0217917D01*
X0061213Y0191145D01*
X0037492Y0192130D02*
X0037492Y0192819D01*
X0036114Y0194197D01*
X0032669Y0194197D01*
X0032669Y0201086D02*
X0036114Y0201086D01*
X0037492Y0202464D01*
X0037492Y0206598D01*
X0036114Y0207976D01*
X0032669Y0207976D01*
X0032669Y0214866D02*
X0036114Y0214866D01*
X0037492Y0216244D01*
X0037492Y0216933D01*
X0073827Y0214031D02*
X0073827Y0209031D01*
X0076327Y0206531D01*
X0081327Y0206531D01*
X0083827Y0209031D01*
X0086327Y0206531D01*
X0091327Y0206531D01*
X0093827Y0209031D01*
X0096327Y0206531D01*
X0101327Y0206531D01*
X0103827Y0209031D01*
X0103827Y0214031D01*
X0101327Y0216531D01*
X0096327Y0216531D01*
X0093827Y0214031D01*
X0091327Y0216531D01*
X0086327Y0216531D01*
X0083827Y0214031D01*
X0081327Y0216531D01*
X0076327Y0216531D01*
X0073827Y0214031D01*
X0076327Y0247531D02*
X0081327Y0247531D01*
X0083827Y0250031D01*
X0086327Y0247531D01*
X0091327Y0247531D01*
X0093827Y0250031D01*
X0096327Y0247531D01*
X0101327Y0247531D01*
X0103827Y0250031D01*
X0103827Y0255031D01*
X0101327Y0257531D01*
X0096327Y0257531D01*
X0093827Y0255031D01*
X0091327Y0257531D01*
X0086327Y0257531D01*
X0083827Y0255031D01*
X0081327Y0257531D01*
X0076327Y0257531D01*
X0073827Y0255031D01*
X0073827Y0250031D01*
X0076327Y0247531D01*
X0061213Y0246145D02*
X0032079Y0246145D01*
X0032079Y0272917D01*
X0061213Y0272917D01*
X0061213Y0246145D01*
X0037492Y0247130D02*
X0037492Y0247819D01*
X0036114Y0249197D01*
X0032669Y0249197D01*
X0032669Y0256086D02*
X0036114Y0256086D01*
X0037492Y0257464D01*
X0037492Y0261598D01*
X0036114Y0262976D01*
X0032669Y0262976D01*
X0032669Y0269866D02*
X0036114Y0269866D01*
X0037492Y0271244D01*
X0037492Y0271933D01*
X0073827Y0269031D02*
X0073827Y0264031D01*
X0076327Y0261531D01*
X0081327Y0261531D01*
X0083827Y0264031D01*
X0086327Y0261531D01*
X0091327Y0261531D01*
X0093827Y0264031D01*
X0096327Y0261531D01*
X0101327Y0261531D01*
X0103827Y0264031D01*
X0103827Y0269031D01*
X0101327Y0271531D01*
X0096327Y0271531D01*
X0093827Y0269031D01*
X0091327Y0271531D01*
X0086327Y0271531D01*
X0083827Y0269031D01*
X0081327Y0271531D01*
X0076327Y0271531D01*
X0073827Y0269031D01*
X0092761Y0290531D02*
X0095230Y0290531D01*
X0096464Y0291766D01*
X0099077Y0290531D02*
X0104015Y0290531D01*
X0101546Y0290531D02*
X0101546Y0297938D01*
X0099077Y0295469D01*
X0096464Y0296703D02*
X0095230Y0297938D01*
X0092761Y0297938D01*
X0091527Y0296703D01*
X0091527Y0291766D01*
X0092761Y0290531D01*
X0106628Y0291766D02*
X0111565Y0296703D01*
X0111565Y0291766D01*
X0110331Y0290531D01*
X0107862Y0290531D01*
X0106628Y0291766D01*
X0106628Y0296703D01*
X0107862Y0297938D01*
X0110331Y0297938D01*
X0111565Y0296703D01*
X0161217Y0265070D02*
X0161217Y0253993D01*
X0172437Y0253993D01*
X0172437Y0265070D01*
X0161217Y0265070D01*
X0189927Y0262631D02*
X0189927Y0257631D01*
X0192427Y0255131D01*
X0197427Y0255131D01*
X0199927Y0257631D01*
X0202427Y0255131D01*
X0207427Y0255131D01*
X0209927Y0257631D01*
X0212427Y0255131D01*
X0217427Y0255131D01*
X0219927Y0257631D01*
X0219927Y0262631D01*
X0217427Y0265131D01*
X0212427Y0265131D01*
X0209927Y0262631D01*
X0207427Y0265131D01*
X0202427Y0265131D01*
X0199927Y0262631D01*
X0197427Y0265131D01*
X0192427Y0265131D01*
X0189927Y0262631D01*
X0172437Y0210070D02*
X0161217Y0210070D01*
X0161217Y0198993D01*
X0172437Y0198993D01*
X0172437Y0210070D01*
X0190327Y0163531D02*
X0187827Y0161031D01*
X0187827Y0156031D01*
X0190327Y0153531D01*
X0195327Y0153531D01*
X0197827Y0156031D01*
X0200327Y0153531D01*
X0205327Y0153531D01*
X0207827Y0156031D01*
X0207827Y0161031D01*
X0205327Y0163531D01*
X0200327Y0163531D01*
X0197827Y0161031D01*
X0195327Y0163531D01*
X0190327Y0163531D01*
X0177327Y0126531D02*
X0172327Y0126531D01*
X0169827Y0124031D01*
X0167327Y0126531D01*
X0162327Y0126531D01*
X0159827Y0124031D01*
X0159827Y0119031D01*
X0162327Y0116531D01*
X0167327Y0116531D01*
X0169827Y0119031D01*
X0172327Y0116531D01*
X0177327Y0116531D01*
X0179827Y0119031D01*
X0179827Y0124031D01*
X0177327Y0126531D01*
X0177327Y0114531D02*
X0172327Y0114531D01*
X0169827Y0112031D01*
X0167327Y0114531D01*
X0162327Y0114531D01*
X0159827Y0112031D01*
X0159827Y0107031D01*
X0162327Y0104531D01*
X0167327Y0104531D01*
X0169827Y0107031D01*
X0172327Y0104531D01*
X0177327Y0104531D01*
X0179827Y0107031D01*
X0179827Y0112031D01*
X0177327Y0114531D01*
X0158427Y0101231D02*
X0155927Y0103731D01*
X0150927Y0103731D01*
X0148427Y0101231D01*
X0148427Y0096231D01*
X0150927Y0093731D01*
X0148427Y0091231D01*
X0148427Y0086231D01*
X0150927Y0083731D01*
X0155927Y0083731D01*
X0158427Y0086231D01*
X0158427Y0091231D01*
X0155927Y0093731D01*
X0158427Y0096231D01*
X0158427Y0101231D01*
X0349527Y0193131D02*
X0349527Y0198131D01*
X0352027Y0200631D01*
X0357027Y0200631D01*
X0359527Y0198131D01*
X0362027Y0200631D01*
X0367027Y0200631D01*
X0369527Y0198131D01*
X0372027Y0200631D01*
X0377027Y0200631D01*
X0379527Y0198131D01*
X0382027Y0200631D01*
X0387027Y0200631D01*
X0389527Y0198131D01*
X0392027Y0200631D01*
X0397027Y0200631D01*
X0399527Y0198131D01*
X0402027Y0200631D01*
X0407027Y0200631D01*
X0409527Y0198131D01*
X0409527Y0193131D01*
X0407027Y0190631D01*
X0402027Y0190631D01*
X0399527Y0193131D01*
X0397027Y0190631D01*
X0392027Y0190631D01*
X0389527Y0193131D01*
X0387027Y0190631D01*
X0382027Y0190631D01*
X0379527Y0193131D01*
X0377027Y0190631D01*
X0372027Y0190631D01*
X0369527Y0193131D01*
X0367027Y0190631D01*
X0362027Y0190631D01*
X0359527Y0193131D01*
X0357027Y0190631D01*
X0352027Y0190631D01*
X0349527Y0193131D01*
X0359904Y0188092D02*
X0359904Y0184589D01*
X0360605Y0183889D01*
X0362006Y0183889D01*
X0362706Y0184589D01*
X0362706Y0188092D01*
X0364508Y0186691D02*
X0365909Y0188092D01*
X0367310Y0186691D01*
X0367310Y0183889D01*
X0369112Y0183889D02*
X0369112Y0188092D01*
X0371214Y0188092D01*
X0371914Y0187392D01*
X0371914Y0185991D01*
X0371214Y0185290D01*
X0369112Y0185290D01*
X0370513Y0185290D02*
X0371914Y0183889D01*
X0375117Y0183889D02*
X0375117Y0188092D01*
X0373716Y0188092D02*
X0376518Y0188092D01*
X0382924Y0183889D02*
X0385726Y0188092D01*
X0392131Y0188092D02*
X0392131Y0183889D01*
X0392131Y0185991D02*
X0393533Y0185991D01*
X0392131Y0188092D02*
X0394934Y0188092D01*
X0396735Y0188092D02*
X0399538Y0188092D01*
X0398137Y0188092D02*
X0398137Y0183889D01*
X0401339Y0183889D02*
X0403441Y0183889D01*
X0404142Y0184589D01*
X0404142Y0187392D01*
X0403441Y0188092D01*
X0401339Y0188092D01*
X0401339Y0183889D01*
X0405943Y0183889D02*
X0407344Y0183889D01*
X0406644Y0183889D02*
X0406644Y0188092D01*
X0407344Y0188092D02*
X0405943Y0188092D01*
X0367310Y0185991D02*
X0364508Y0185991D01*
X0364508Y0186691D02*
X0364508Y0183889D01*
X0391396Y0214118D02*
X0392463Y0214118D01*
X0391929Y0214118D02*
X0391929Y0217321D01*
X0391396Y0217321D02*
X0392463Y0217321D01*
X0393851Y0216787D02*
X0393851Y0216253D01*
X0394385Y0215719D01*
X0395452Y0215719D01*
X0395986Y0215186D01*
X0395986Y0214652D01*
X0395452Y0214118D01*
X0394385Y0214118D01*
X0393851Y0214652D01*
X0393851Y0216787D02*
X0394385Y0217321D01*
X0395452Y0217321D01*
X0395986Y0216787D01*
X0397534Y0217321D02*
X0399136Y0217321D01*
X0399669Y0216787D01*
X0399669Y0215719D01*
X0399136Y0215186D01*
X0397534Y0215186D01*
X0397534Y0214118D02*
X0397534Y0217321D01*
X0403579Y0219531D02*
X0388579Y0219531D01*
X0386079Y0222031D01*
X0386079Y0227031D01*
X0388579Y0229531D01*
X0403579Y0229531D01*
X0406079Y0232031D01*
X0406079Y0237031D01*
X0403579Y0239531D01*
X0388579Y0239531D01*
X0386079Y0242031D01*
X0386079Y0247031D01*
X0388579Y0249531D01*
X0403579Y0249531D01*
X0406079Y0247031D01*
X0406079Y0242031D01*
X0403579Y0239531D01*
X0403579Y0229531D02*
X0406079Y0227031D01*
X0406079Y0222031D01*
X0403579Y0219531D01*
X0407398Y0222031D02*
X0407398Y0227031D01*
X0388579Y0229531D02*
X0386079Y0232031D01*
X0386079Y0237031D01*
X0388579Y0239531D01*
X0393083Y0252130D02*
X0406961Y0256953D01*
X0406961Y0252031D01*
X0372512Y0252031D01*
X0372512Y0254216D01*
X0382059Y0256579D02*
X0382059Y0262484D01*
X0397807Y0262484D01*
X0397807Y0256579D01*
X0382059Y0256579D01*
X0372512Y0264216D02*
X0372512Y0264748D01*
X0382059Y0266579D02*
X0382059Y0272484D01*
X0397807Y0272484D01*
X0397807Y0266579D01*
X0382059Y0266579D01*
X0372512Y0274748D02*
X0372512Y0276933D01*
X0406961Y0276933D01*
X0406961Y0274748D01*
X0413617Y0275153D02*
X0414317Y0275854D01*
X0415718Y0275854D01*
X0416419Y0275153D01*
X0416419Y0274453D01*
X0413617Y0271650D01*
X0416419Y0271650D01*
X0406961Y0264748D02*
X0406961Y0264216D01*
X0413617Y0259453D02*
X0415018Y0260854D01*
X0415018Y0256650D01*
X0413617Y0256650D02*
X0416419Y0256650D01*
X0318827Y0269031D02*
X0316327Y0266531D01*
X0311327Y0266531D01*
X0308827Y0269031D01*
X0306327Y0266531D01*
X0301327Y0266531D01*
X0298827Y0269031D01*
X0298827Y0274031D01*
X0301327Y0276531D01*
X0306327Y0276531D01*
X0308827Y0274031D01*
X0311327Y0276531D01*
X0316327Y0276531D01*
X0318827Y0274031D01*
X0318827Y0269031D01*
X0307043Y0242949D02*
X0302043Y0242949D01*
X0299543Y0240449D01*
X0299543Y0235449D01*
X0302043Y0232949D01*
X0299543Y0230449D01*
X0299543Y0225449D01*
X0302043Y0222949D01*
X0307043Y0222949D01*
X0309543Y0225449D01*
X0309543Y0230449D01*
X0307043Y0232949D01*
X0309543Y0235449D01*
X0309543Y0240449D01*
X0307043Y0242949D01*
X0287480Y0342231D02*
X0285012Y0342231D01*
X0283777Y0343466D01*
X0281164Y0343466D02*
X0279930Y0342231D01*
X0277461Y0342231D01*
X0276227Y0343466D01*
X0276227Y0348403D01*
X0277461Y0349638D01*
X0279930Y0349638D01*
X0281164Y0348403D01*
X0283777Y0348403D02*
X0285012Y0349638D01*
X0287480Y0349638D01*
X0288715Y0348403D01*
X0288715Y0347169D01*
X0287480Y0345934D01*
X0288715Y0344700D01*
X0288715Y0343466D01*
X0287480Y0342231D01*
X0287480Y0345934D02*
X0286246Y0345934D01*
X0408223Y0144130D02*
X0408223Y0141327D01*
X0412427Y0141327D01*
X0412427Y0139526D02*
X0411026Y0138125D01*
X0411026Y0138825D02*
X0411026Y0136723D01*
X0412427Y0136723D02*
X0408223Y0136723D01*
X0408223Y0138825D01*
X0408924Y0139526D01*
X0410325Y0139526D01*
X0411026Y0138825D01*
X0410325Y0141327D02*
X0410325Y0142729D01*
D13*
X0381527Y0128850D02*
X0381527Y0127148D01*
X0378124Y0127148D01*
X0378124Y0128850D01*
X0378691Y0129417D01*
X0380960Y0129417D01*
X0381527Y0128850D01*
X0381527Y0125734D02*
X0378124Y0125734D01*
X0378124Y0123465D02*
X0381527Y0125734D01*
X0381527Y0123465D02*
X0378124Y0123465D01*
X0378691Y0122050D02*
X0378124Y0121483D01*
X0378124Y0120349D01*
X0378691Y0119782D01*
X0380960Y0119782D01*
X0381527Y0120349D01*
X0381527Y0121483D01*
X0380960Y0122050D01*
X0379825Y0122050D01*
X0379825Y0120916D01*
X0374027Y0120916D02*
X0372892Y0119782D01*
X0370624Y0119782D01*
X0370624Y0122050D02*
X0372892Y0122050D01*
X0374027Y0120916D01*
X0373460Y0123465D02*
X0374027Y0124032D01*
X0374027Y0125166D01*
X0373460Y0125734D01*
X0373460Y0127148D02*
X0374027Y0127715D01*
X0374027Y0128850D01*
X0373460Y0129417D01*
X0373460Y0127148D02*
X0371191Y0127148D01*
X0370624Y0127715D01*
X0370624Y0128850D01*
X0371191Y0129417D01*
X0371191Y0125734D02*
X0370624Y0125166D01*
X0370624Y0124032D01*
X0371191Y0123465D01*
X0373460Y0123465D01*
X0366527Y0122851D02*
X0364258Y0122851D01*
X0364258Y0124553D01*
X0364825Y0125120D01*
X0366527Y0125120D01*
X0365960Y0127101D02*
X0366527Y0127669D01*
X0365960Y0127101D02*
X0363691Y0127101D01*
X0364258Y0126534D02*
X0364258Y0127669D01*
X0365960Y0128990D02*
X0365960Y0129557D01*
X0366527Y0129557D01*
X0366527Y0128990D01*
X0365960Y0128990D01*
X0366527Y0121437D02*
X0364258Y0121437D01*
X0363124Y0120302D01*
X0364258Y0119168D01*
X0366527Y0119168D01*
X0364825Y0119168D02*
X0364825Y0121437D01*
X0271827Y0160031D02*
X0269327Y0157531D01*
X0264327Y0157531D01*
X0261827Y0160031D01*
X0259327Y0157531D01*
X0254327Y0157531D01*
X0251827Y0160031D01*
X0249327Y0157531D01*
X0244327Y0157531D01*
X0241827Y0160031D01*
X0239327Y0157531D01*
X0234327Y0157531D01*
X0231827Y0160031D01*
X0229327Y0157531D01*
X0224327Y0157531D01*
X0221827Y0160031D01*
X0219327Y0157531D01*
X0214327Y0157531D01*
X0211827Y0160031D01*
X0211827Y0165031D01*
X0214327Y0167531D01*
X0219327Y0167531D01*
X0221827Y0165031D01*
X0224327Y0167531D01*
X0229327Y0167531D01*
X0231827Y0165031D01*
X0234327Y0167531D01*
X0239327Y0167531D01*
X0241827Y0165031D01*
X0244327Y0167531D01*
X0249327Y0167531D01*
X0251827Y0165031D01*
X0254327Y0167531D01*
X0259327Y0167531D01*
X0261827Y0165031D01*
X0264327Y0167531D01*
X0269327Y0167531D01*
X0271827Y0165031D01*
X0271827Y0160031D01*
X0290601Y0187057D02*
X0291402Y0187057D01*
X0291802Y0187458D01*
X0290601Y0187057D02*
X0290201Y0187458D01*
X0290201Y0189059D01*
X0290601Y0189459D01*
X0291402Y0189459D01*
X0291802Y0189059D01*
X0292963Y0188258D02*
X0294565Y0188258D01*
X0294164Y0187057D02*
X0294164Y0189459D01*
X0292963Y0188258D01*
X0282327Y0196031D02*
X0325327Y0196031D01*
X0325387Y0196033D01*
X0325448Y0196038D01*
X0325507Y0196047D01*
X0325566Y0196060D01*
X0325625Y0196076D01*
X0325682Y0196096D01*
X0325737Y0196119D01*
X0325792Y0196146D01*
X0325844Y0196175D01*
X0325895Y0196208D01*
X0325944Y0196244D01*
X0325990Y0196282D01*
X0326034Y0196324D01*
X0326076Y0196368D01*
X0326114Y0196414D01*
X0326150Y0196463D01*
X0326183Y0196514D01*
X0326212Y0196566D01*
X0326239Y0196621D01*
X0326262Y0196676D01*
X0326282Y0196733D01*
X0326298Y0196792D01*
X0326311Y0196851D01*
X0326320Y0196910D01*
X0326325Y0196971D01*
X0326327Y0197031D01*
X0326327Y0201031D01*
X0326327Y0210031D02*
X0326327Y0214031D01*
X0326325Y0214091D01*
X0326320Y0214152D01*
X0326311Y0214211D01*
X0326298Y0214270D01*
X0326282Y0214329D01*
X0326262Y0214386D01*
X0326239Y0214441D01*
X0326212Y0214496D01*
X0326183Y0214548D01*
X0326150Y0214599D01*
X0326114Y0214648D01*
X0326076Y0214694D01*
X0326034Y0214738D01*
X0325990Y0214780D01*
X0325944Y0214818D01*
X0325895Y0214854D01*
X0325844Y0214887D01*
X0325792Y0214916D01*
X0325737Y0214943D01*
X0325682Y0214966D01*
X0325625Y0214986D01*
X0325566Y0215002D01*
X0325507Y0215015D01*
X0325448Y0215024D01*
X0325387Y0215029D01*
X0325327Y0215031D01*
X0282327Y0215031D01*
X0282267Y0215029D01*
X0282206Y0215024D01*
X0282147Y0215015D01*
X0282088Y0215002D01*
X0282029Y0214986D01*
X0281972Y0214966D01*
X0281917Y0214943D01*
X0281862Y0214916D01*
X0281810Y0214887D01*
X0281759Y0214854D01*
X0281710Y0214818D01*
X0281664Y0214780D01*
X0281620Y0214738D01*
X0281578Y0214694D01*
X0281540Y0214648D01*
X0281504Y0214599D01*
X0281471Y0214548D01*
X0281442Y0214496D01*
X0281415Y0214441D01*
X0281392Y0214386D01*
X0281372Y0214329D01*
X0281356Y0214270D01*
X0281343Y0214211D01*
X0281334Y0214152D01*
X0281329Y0214091D01*
X0281327Y0214031D01*
X0281327Y0210031D01*
X0281327Y0201031D02*
X0281327Y0197031D01*
X0281329Y0196971D01*
X0281334Y0196910D01*
X0281343Y0196851D01*
X0281356Y0196792D01*
X0281372Y0196733D01*
X0281392Y0196676D01*
X0281415Y0196621D01*
X0281442Y0196566D01*
X0281471Y0196514D01*
X0281504Y0196463D01*
X0281540Y0196414D01*
X0281578Y0196368D01*
X0281620Y0196324D01*
X0281664Y0196282D01*
X0281710Y0196244D01*
X0281759Y0196208D01*
X0281810Y0196175D01*
X0281862Y0196146D01*
X0281917Y0196119D01*
X0281972Y0196096D01*
X0282029Y0196076D01*
X0282088Y0196060D01*
X0282147Y0196047D01*
X0282206Y0196038D01*
X0282267Y0196033D01*
X0282327Y0196031D01*
X0301327Y0203031D02*
X0301327Y0205531D01*
X0301327Y0208031D01*
X0302827Y0208031D02*
X0302827Y0203031D01*
X0304827Y0203031D01*
X0304827Y0208031D01*
X0302827Y0208031D01*
X0306327Y0208031D02*
X0306327Y0205531D01*
X0306327Y0203031D01*
X0310809Y0189837D02*
X0310408Y0189437D01*
X0310408Y0187836D01*
X0310809Y0187435D01*
X0311609Y0187435D01*
X0312010Y0187836D01*
X0313171Y0187435D02*
X0314772Y0187435D01*
X0313971Y0187435D02*
X0313971Y0189837D01*
X0313171Y0189037D01*
X0312010Y0189437D02*
X0311609Y0189837D01*
X0310809Y0189837D01*
X0315933Y0189037D02*
X0316734Y0189837D01*
X0316734Y0187435D01*
X0317534Y0187435D02*
X0315933Y0187435D01*
X0353836Y0206709D02*
X0353836Y0209111D01*
X0355037Y0209111D01*
X0355437Y0208711D01*
X0355437Y0207910D01*
X0355037Y0207510D01*
X0353836Y0207510D01*
X0354636Y0207510D02*
X0355437Y0206709D01*
X0356598Y0206709D02*
X0358199Y0206709D01*
X0357399Y0206709D02*
X0357399Y0209111D01*
X0356598Y0208311D01*
X0359360Y0208711D02*
X0359761Y0209111D01*
X0360561Y0209111D01*
X0360962Y0208711D01*
X0359360Y0207110D01*
X0359761Y0206709D01*
X0360561Y0206709D01*
X0360962Y0207110D01*
X0360962Y0208711D01*
X0359360Y0208711D02*
X0359360Y0207110D01*
X0344327Y0222016D02*
X0325800Y0240543D01*
X0325800Y0242520D01*
X0344327Y0261046D01*
X0363842Y0241531D01*
X0344327Y0222016D01*
X0327639Y0241531D02*
X0327641Y0241606D01*
X0327647Y0241680D01*
X0327657Y0241754D01*
X0327670Y0241827D01*
X0327688Y0241900D01*
X0327709Y0241971D01*
X0327734Y0242042D01*
X0327763Y0242111D01*
X0327796Y0242178D01*
X0327832Y0242243D01*
X0327871Y0242307D01*
X0327913Y0242368D01*
X0327959Y0242427D01*
X0328008Y0242484D01*
X0328060Y0242537D01*
X0328114Y0242588D01*
X0328171Y0242637D01*
X0328231Y0242681D01*
X0328293Y0242723D01*
X0328357Y0242762D01*
X0328423Y0242797D01*
X0328490Y0242828D01*
X0328560Y0242856D01*
X0328630Y0242880D01*
X0328702Y0242901D01*
X0328775Y0242917D01*
X0328848Y0242930D01*
X0328923Y0242939D01*
X0328997Y0242944D01*
X0329072Y0242945D01*
X0329146Y0242942D01*
X0329221Y0242935D01*
X0329294Y0242924D01*
X0329368Y0242910D01*
X0329440Y0242891D01*
X0329511Y0242869D01*
X0329581Y0242843D01*
X0329650Y0242813D01*
X0329716Y0242780D01*
X0329781Y0242743D01*
X0329844Y0242703D01*
X0329905Y0242659D01*
X0329963Y0242613D01*
X0330019Y0242563D01*
X0330072Y0242511D01*
X0330123Y0242456D01*
X0330170Y0242398D01*
X0330214Y0242338D01*
X0330255Y0242275D01*
X0330293Y0242211D01*
X0330327Y0242145D01*
X0330358Y0242076D01*
X0330385Y0242007D01*
X0330408Y0241936D01*
X0330427Y0241864D01*
X0330443Y0241791D01*
X0330455Y0241717D01*
X0330463Y0241643D01*
X0330467Y0241568D01*
X0330467Y0241494D01*
X0330463Y0241419D01*
X0330455Y0241345D01*
X0330443Y0241271D01*
X0330427Y0241198D01*
X0330408Y0241126D01*
X0330385Y0241055D01*
X0330358Y0240986D01*
X0330327Y0240917D01*
X0330293Y0240851D01*
X0330255Y0240787D01*
X0330214Y0240724D01*
X0330170Y0240664D01*
X0330123Y0240606D01*
X0330072Y0240551D01*
X0330019Y0240499D01*
X0329963Y0240449D01*
X0329905Y0240403D01*
X0329844Y0240359D01*
X0329781Y0240319D01*
X0329716Y0240282D01*
X0329650Y0240249D01*
X0329581Y0240219D01*
X0329511Y0240193D01*
X0329440Y0240171D01*
X0329368Y0240152D01*
X0329294Y0240138D01*
X0329221Y0240127D01*
X0329146Y0240120D01*
X0329072Y0240117D01*
X0328997Y0240118D01*
X0328923Y0240123D01*
X0328848Y0240132D01*
X0328775Y0240145D01*
X0328702Y0240161D01*
X0328630Y0240182D01*
X0328560Y0240206D01*
X0328490Y0240234D01*
X0328423Y0240265D01*
X0328357Y0240300D01*
X0328293Y0240339D01*
X0328231Y0240381D01*
X0328171Y0240425D01*
X0328114Y0240474D01*
X0328060Y0240525D01*
X0328008Y0240578D01*
X0327959Y0240635D01*
X0327913Y0240694D01*
X0327871Y0240755D01*
X0327832Y0240819D01*
X0327796Y0240884D01*
X0327763Y0240951D01*
X0327734Y0241020D01*
X0327709Y0241091D01*
X0327688Y0241162D01*
X0327670Y0241235D01*
X0327657Y0241308D01*
X0327647Y0241382D01*
X0327641Y0241456D01*
X0327639Y0241531D01*
X0366788Y0249423D02*
X0366788Y0251125D01*
X0367355Y0251692D01*
X0369623Y0251692D01*
X0370191Y0251125D01*
X0370191Y0249423D01*
X0366788Y0249423D01*
X0367355Y0253107D02*
X0367922Y0253107D01*
X0368489Y0253674D01*
X0368489Y0254808D01*
X0369056Y0255375D01*
X0369623Y0255375D01*
X0370191Y0254808D01*
X0370191Y0253674D01*
X0369623Y0253107D01*
X0369056Y0253107D01*
X0368489Y0253674D01*
X0368489Y0254808D02*
X0367922Y0255375D01*
X0367355Y0255375D01*
X0366788Y0254808D01*
X0366788Y0253674D01*
X0367355Y0253107D01*
X0358816Y0262645D02*
X0358015Y0262645D01*
X0357615Y0263046D01*
X0357615Y0263446D01*
X0358015Y0263847D01*
X0358816Y0263847D01*
X0359216Y0263446D01*
X0359216Y0263046D01*
X0358816Y0262645D01*
X0358816Y0263847D02*
X0359216Y0264247D01*
X0359216Y0264647D01*
X0358816Y0265048D01*
X0358015Y0265048D01*
X0357615Y0264647D01*
X0357615Y0264247D01*
X0358015Y0263847D01*
X0356454Y0264647D02*
X0356053Y0265048D01*
X0355253Y0265048D01*
X0354852Y0264647D01*
X0354852Y0263046D01*
X0355253Y0262645D01*
X0356053Y0262645D01*
X0356454Y0263046D01*
X0366791Y0273727D02*
X0366791Y0275429D01*
X0367358Y0275996D01*
X0369627Y0275996D01*
X0370194Y0275429D01*
X0370194Y0273727D01*
X0366791Y0273727D01*
X0367358Y0277411D02*
X0367925Y0277411D01*
X0368492Y0277978D01*
X0368492Y0279679D01*
X0367358Y0279679D02*
X0369627Y0279679D01*
X0370194Y0279112D01*
X0370194Y0277978D01*
X0369627Y0277411D01*
X0367358Y0277411D02*
X0366791Y0277978D01*
X0366791Y0279112D01*
X0367358Y0279679D01*
X0300027Y0307231D02*
X0300027Y0320431D01*
X0300027Y0327431D02*
X0300027Y0340631D01*
X0266627Y0340631D01*
X0266627Y0327431D01*
X0260127Y0323931D02*
X0257127Y0323931D01*
X0258627Y0325431D02*
X0258627Y0322431D01*
X0266627Y0320431D02*
X0266627Y0315531D01*
X0274927Y0307231D01*
X0266627Y0307231D02*
X0300027Y0307231D01*
X0323839Y0316716D02*
X0348437Y0316716D01*
X0348437Y0330338D01*
X0323839Y0330338D01*
X0323839Y0316716D01*
X0274927Y0340631D02*
X0266627Y0332331D01*
X0245794Y0340831D02*
X0241524Y0340831D01*
X0243659Y0340831D02*
X0243659Y0347237D01*
X0241524Y0345102D01*
X0239362Y0347237D02*
X0237227Y0347237D01*
X0238294Y0347237D02*
X0238294Y0340831D01*
X0237227Y0340831D02*
X0239362Y0340831D01*
X0198702Y0341490D02*
X0197102Y0341490D01*
X0197102Y0338690D02*
X0198702Y0338690D01*
X0198702Y0334890D02*
X0197102Y0334890D01*
X0197102Y0332090D02*
X0198702Y0332090D01*
X0198702Y0328090D02*
X0197102Y0328090D01*
X0197102Y0325290D02*
X0198702Y0325290D01*
X0198702Y0321490D02*
X0197102Y0321490D01*
X0197102Y0318690D02*
X0198702Y0318690D01*
X0198702Y0314690D02*
X0197102Y0314690D01*
X0148827Y0326531D02*
X0145827Y0326531D01*
X0147327Y0325031D02*
X0147327Y0328031D01*
X0139827Y0330231D02*
X0139827Y0340031D01*
X0126327Y0353531D01*
X0139827Y0353531D02*
X0085827Y0353531D01*
X0085827Y0330231D01*
X0085827Y0322831D02*
X0085827Y0299531D01*
X0139827Y0299531D01*
X0139827Y0322831D01*
X0139827Y0313031D02*
X0126327Y0299531D01*
X0122827Y0290531D02*
X0130827Y0290531D01*
X0131827Y0289531D01*
X0131827Y0281531D01*
X0130827Y0280531D01*
X0122827Y0280531D01*
X0121827Y0281531D01*
X0120827Y0280531D01*
X0112827Y0280531D01*
X0111827Y0281531D01*
X0111827Y0289531D01*
X0112827Y0290531D01*
X0120827Y0290531D01*
X0121827Y0289531D01*
X0122827Y0290531D01*
X0108627Y0241431D02*
X0079027Y0241431D01*
X0079027Y0238731D01*
X0071127Y0234031D02*
X0071127Y0231031D01*
X0072627Y0232531D02*
X0069627Y0232531D01*
X0079027Y0226331D02*
X0079027Y0223631D01*
X0108627Y0223631D01*
X0108627Y0226331D01*
X0108627Y0238731D02*
X0108627Y0241431D01*
X0266627Y0307231D02*
X0266627Y0315531D01*
X0198702Y0345490D02*
X0197102Y0345490D01*
X0139827Y0340031D02*
X0139827Y0353531D01*
X0135299Y0131237D02*
X0132097Y0131237D01*
X0132097Y0124831D01*
X0135299Y0124831D01*
X0136367Y0125899D01*
X0136367Y0130169D01*
X0135299Y0131237D01*
X0129922Y0130169D02*
X0128854Y0131237D01*
X0126719Y0131237D01*
X0125651Y0130169D01*
X0125651Y0129102D01*
X0126719Y0128034D01*
X0128854Y0128034D01*
X0129922Y0126966D01*
X0129922Y0125899D01*
X0128854Y0124831D01*
X0126719Y0124831D01*
X0125651Y0125899D01*
X0117031Y0125899D02*
X0117031Y0130169D01*
X0115963Y0131237D01*
X0113828Y0131237D01*
X0112760Y0130169D01*
X0112760Y0125899D01*
X0113828Y0124831D01*
X0115963Y0124831D01*
X0117031Y0125899D01*
X0110585Y0124831D02*
X0108450Y0126966D01*
X0109517Y0126966D02*
X0106315Y0126966D01*
X0106315Y0124831D02*
X0106315Y0131237D01*
X0109517Y0131237D01*
X0110585Y0130169D01*
X0110585Y0128034D01*
X0109517Y0126966D01*
X0104140Y0125899D02*
X0103072Y0124831D01*
X0100937Y0124831D01*
X0099869Y0125899D01*
X0099869Y0130169D01*
X0100937Y0131237D01*
X0103072Y0131237D01*
X0104140Y0130169D01*
X0097707Y0131237D02*
X0095572Y0131237D01*
X0096640Y0131237D02*
X0096640Y0124831D01*
X0097707Y0124831D02*
X0095572Y0124831D01*
X0093397Y0124831D02*
X0093397Y0131237D01*
X0091262Y0129102D01*
X0089127Y0131237D01*
X0089127Y0124831D01*
D14*
X0159577Y0100167D02*
X0159577Y0097699D01*
X0160194Y0097081D01*
X0161428Y0097081D01*
X0162046Y0097699D01*
X0162046Y0098933D01*
X0160811Y0098933D01*
X0159577Y0100167D02*
X0160194Y0100784D01*
X0161428Y0100784D01*
X0162046Y0100167D01*
X0163260Y0100784D02*
X0163260Y0097081D01*
X0163260Y0098316D02*
X0165111Y0098316D01*
X0165729Y0098933D01*
X0165729Y0100167D01*
X0165111Y0100784D01*
X0163260Y0100784D01*
X0166943Y0100784D02*
X0168177Y0100784D01*
X0167560Y0100784D02*
X0167560Y0097081D01*
X0166943Y0097081D02*
X0168177Y0097081D01*
X0169398Y0097699D02*
X0170016Y0097081D01*
X0171250Y0097081D01*
X0171867Y0097699D01*
X0171867Y0100167D01*
X0171250Y0100784D01*
X0170016Y0100784D01*
X0169398Y0100167D01*
X0169398Y0097699D01*
X0173082Y0098933D02*
X0175550Y0098933D01*
X0174933Y0100784D02*
X0173082Y0098933D01*
X0174933Y0100784D02*
X0174933Y0097081D01*
X0175450Y0090784D02*
X0172982Y0090784D01*
X0172982Y0088933D01*
X0174216Y0089550D01*
X0174833Y0089550D01*
X0175450Y0088933D01*
X0175450Y0087699D01*
X0174833Y0087081D01*
X0173599Y0087081D01*
X0172982Y0087699D01*
X0171767Y0087699D02*
X0171767Y0090167D01*
X0171150Y0090784D01*
X0169916Y0090784D01*
X0169298Y0090167D01*
X0169298Y0087699D01*
X0169916Y0087081D01*
X0171150Y0087081D01*
X0171767Y0087699D01*
X0168077Y0087081D02*
X0166843Y0087081D01*
X0167460Y0087081D02*
X0167460Y0090784D01*
X0166843Y0090784D02*
X0168077Y0090784D01*
X0165629Y0090167D02*
X0165629Y0088933D01*
X0165011Y0088316D01*
X0163160Y0088316D01*
X0163160Y0087081D02*
X0163160Y0090784D01*
X0165011Y0090784D01*
X0165629Y0090167D01*
X0161946Y0090167D02*
X0161328Y0090784D01*
X0160094Y0090784D01*
X0159477Y0090167D01*
X0159477Y0087699D01*
X0160094Y0087081D01*
X0161328Y0087081D01*
X0161946Y0087699D01*
X0161946Y0088933D01*
X0160711Y0088933D01*
X0285769Y0152681D02*
X0285769Y0156384D01*
X0287620Y0156384D01*
X0288238Y0155767D01*
X0288238Y0154533D01*
X0287620Y0153916D01*
X0285769Y0153916D01*
X0287003Y0153916D02*
X0288238Y0152681D01*
X0289452Y0152681D02*
X0291921Y0152681D01*
X0293135Y0153299D02*
X0293752Y0152681D01*
X0294987Y0152681D01*
X0295604Y0153299D01*
X0295604Y0153916D01*
X0294987Y0154533D01*
X0293752Y0154533D01*
X0293135Y0155150D01*
X0293135Y0155767D01*
X0293752Y0156384D01*
X0294987Y0156384D01*
X0295604Y0155767D01*
X0296818Y0156384D02*
X0296818Y0152681D01*
X0299287Y0152681D01*
X0298053Y0154533D02*
X0296818Y0154533D01*
X0296818Y0156384D02*
X0299287Y0156384D01*
X0300501Y0156384D02*
X0302970Y0156384D01*
X0301736Y0156384D02*
X0301736Y0152681D01*
X0291921Y0156384D02*
X0289452Y0156384D01*
X0289452Y0152681D01*
X0289452Y0154533D02*
X0290686Y0154533D01*
X0290069Y0158681D02*
X0289452Y0159299D01*
X0289452Y0161767D01*
X0290069Y0162384D01*
X0291304Y0162384D01*
X0291921Y0161767D01*
X0293135Y0162384D02*
X0295604Y0162384D01*
X0294370Y0162384D02*
X0294370Y0158681D01*
X0296818Y0159299D02*
X0297436Y0158681D01*
X0298670Y0158681D01*
X0299287Y0159299D01*
X0299287Y0161767D01*
X0298670Y0162384D01*
X0297436Y0162384D01*
X0296818Y0161767D01*
X0296818Y0159299D01*
X0300501Y0159916D02*
X0302353Y0159916D01*
X0302970Y0160533D01*
X0302970Y0161767D01*
X0302353Y0162384D01*
X0300501Y0162384D01*
X0300501Y0158681D01*
X0301736Y0159916D02*
X0302970Y0158681D01*
X0305419Y0158681D02*
X0305419Y0160533D01*
X0306653Y0161767D01*
X0306653Y0162384D01*
X0305419Y0160533D02*
X0304185Y0161767D01*
X0304185Y0162384D01*
X0299287Y0166533D02*
X0298670Y0165916D01*
X0296818Y0165916D01*
X0295604Y0165916D02*
X0295604Y0165299D01*
X0294987Y0164681D01*
X0293752Y0164681D01*
X0293135Y0165299D01*
X0291921Y0164681D02*
X0289452Y0164681D01*
X0289452Y0168384D01*
X0291921Y0168384D01*
X0293135Y0167767D02*
X0293135Y0167150D01*
X0293752Y0166533D01*
X0294987Y0166533D01*
X0295604Y0165916D01*
X0296818Y0164681D02*
X0296818Y0168384D01*
X0298670Y0168384D01*
X0299287Y0167767D01*
X0299287Y0166533D01*
X0295604Y0167767D02*
X0294987Y0168384D01*
X0293752Y0168384D01*
X0293135Y0167767D01*
X0290686Y0166533D02*
X0289452Y0166533D01*
X0287003Y0162384D02*
X0288238Y0161150D01*
X0288238Y0158681D01*
X0290069Y0158681D02*
X0291304Y0158681D01*
X0291921Y0159299D01*
X0288238Y0160533D02*
X0285769Y0160533D01*
X0285769Y0161150D02*
X0287003Y0162384D01*
X0285769Y0161150D02*
X0285769Y0158681D01*
X0283320Y0160533D02*
X0282086Y0160533D01*
X0282086Y0162384D02*
X0284555Y0162384D01*
X0282086Y0162384D02*
X0282086Y0158681D01*
X0364971Y0214902D02*
X0364971Y0217371D01*
X0363736Y0216137D02*
X0366205Y0216137D01*
X0298099Y0218847D02*
X0296164Y0218847D01*
X0298099Y0220782D01*
X0296164Y0220782D01*
X0295153Y0220298D02*
X0293218Y0220298D01*
X0293218Y0218847D02*
X0293218Y0221749D01*
X0292206Y0221749D02*
X0292206Y0218847D01*
X0290271Y0218847D02*
X0290271Y0221749D01*
X0291239Y0220782D01*
X0292206Y0221749D01*
X0289260Y0221749D02*
X0288292Y0221265D01*
X0287325Y0220298D01*
X0288776Y0220298D01*
X0289260Y0219814D01*
X0289260Y0219330D01*
X0288776Y0218847D01*
X0287809Y0218847D01*
X0287325Y0219330D01*
X0287325Y0220298D01*
X0286313Y0218847D02*
X0284378Y0218847D01*
X0285346Y0218847D02*
X0285346Y0221749D01*
X0284378Y0220782D01*
X0291777Y0225781D02*
X0293628Y0225781D01*
X0294246Y0226399D01*
X0294246Y0228867D01*
X0293628Y0229484D01*
X0291777Y0229484D01*
X0291777Y0225781D01*
X0295460Y0227633D02*
X0297929Y0227633D01*
X0297311Y0229484D02*
X0295460Y0227633D01*
X0297311Y0229484D02*
X0297311Y0225781D01*
X0295153Y0221749D02*
X0295153Y0218847D01*
X0296077Y0235981D02*
X0295460Y0236599D01*
X0296077Y0235981D02*
X0297311Y0235981D01*
X0297929Y0236599D01*
X0297929Y0237216D01*
X0297311Y0237833D01*
X0296694Y0237833D01*
X0297311Y0237833D02*
X0297929Y0238450D01*
X0297929Y0239067D01*
X0297311Y0239684D01*
X0296077Y0239684D01*
X0295460Y0239067D01*
X0294246Y0239067D02*
X0293628Y0239684D01*
X0291777Y0239684D01*
X0291777Y0235981D01*
X0293628Y0235981D01*
X0294246Y0236599D01*
X0294246Y0239067D01*
X0303208Y0278681D02*
X0301974Y0279916D01*
X0303208Y0281150D01*
X0305677Y0281150D01*
X0305677Y0282364D02*
X0305677Y0284216D01*
X0305060Y0284833D01*
X0302591Y0284833D01*
X0301974Y0284216D01*
X0301974Y0282364D01*
X0305677Y0282364D01*
X0303825Y0281150D02*
X0303825Y0278681D01*
X0303208Y0278681D02*
X0305677Y0278681D01*
X0311974Y0279916D02*
X0313208Y0281150D01*
X0315677Y0281150D01*
X0315677Y0282364D02*
X0315677Y0284216D01*
X0315060Y0284833D01*
X0312591Y0284833D01*
X0311974Y0284216D01*
X0311974Y0282364D01*
X0315677Y0282364D01*
X0313825Y0281150D02*
X0313825Y0278681D01*
X0313208Y0278681D02*
X0311974Y0279916D01*
X0313208Y0278681D02*
X0315677Y0278681D01*
X0315060Y0286048D02*
X0315677Y0286665D01*
X0315677Y0287899D01*
X0315060Y0288516D01*
X0315677Y0289731D02*
X0313208Y0292200D01*
X0312591Y0292200D01*
X0311974Y0291582D01*
X0311974Y0290348D01*
X0312591Y0289731D01*
X0312591Y0288516D02*
X0311974Y0287899D01*
X0311974Y0286665D01*
X0312591Y0286048D01*
X0315060Y0286048D01*
X0315677Y0289731D02*
X0315677Y0292200D01*
X0305677Y0291582D02*
X0305677Y0290348D01*
X0305060Y0289731D01*
X0305060Y0288516D02*
X0305677Y0287899D01*
X0305677Y0286665D01*
X0305060Y0286048D01*
X0302591Y0286048D01*
X0301974Y0286665D01*
X0301974Y0287899D01*
X0302591Y0288516D01*
X0302591Y0289731D02*
X0301974Y0290348D01*
X0301974Y0291582D01*
X0302591Y0292200D01*
X0303208Y0292200D01*
X0303825Y0291582D01*
X0304442Y0292200D01*
X0305060Y0292200D01*
X0305677Y0291582D01*
X0303825Y0291582D02*
X0303825Y0290965D01*
X0319625Y0329481D02*
X0321426Y0329481D01*
X0321877Y0329932D01*
X0321877Y0330832D01*
X0321426Y0331283D01*
X0321877Y0332244D02*
X0321877Y0334045D01*
X0321877Y0333144D02*
X0319174Y0333144D01*
X0320075Y0332244D01*
X0319625Y0331283D02*
X0319174Y0330832D01*
X0319174Y0329932D01*
X0319625Y0329481D01*
X0329627Y0350381D02*
X0330528Y0350381D01*
X0330978Y0350832D01*
X0331939Y0350381D02*
X0333741Y0350381D01*
X0332840Y0350381D02*
X0332840Y0353084D01*
X0331939Y0352183D01*
X0330978Y0352633D02*
X0330528Y0353084D01*
X0329627Y0353084D01*
X0329177Y0352633D01*
X0329177Y0350832D01*
X0329627Y0350381D01*
X0334701Y0350832D02*
X0334701Y0351282D01*
X0335152Y0351732D01*
X0336053Y0351732D01*
X0336503Y0351282D01*
X0336503Y0350832D01*
X0336053Y0350381D01*
X0335152Y0350381D01*
X0334701Y0350832D01*
X0335152Y0351732D02*
X0334701Y0352183D01*
X0334701Y0352633D01*
X0335152Y0353084D01*
X0336053Y0353084D01*
X0336503Y0352633D01*
X0336503Y0352183D01*
X0336053Y0351732D01*
X0208568Y0311876D02*
X0205432Y0308740D01*
X0205432Y0310308D02*
X0208568Y0310308D01*
X0208568Y0308740D02*
X0205432Y0311876D01*
X0207000Y0311876D02*
X0207000Y0308740D01*
D15*
X0204242Y0290407D02*
X0204242Y0287605D01*
X0203308Y0287605D02*
X0205176Y0287605D01*
X0203308Y0289473D02*
X0204242Y0290407D01*
X0202414Y0290407D02*
X0200546Y0290407D01*
X0200546Y0289006D01*
X0201480Y0289473D01*
X0201947Y0289473D01*
X0202414Y0289006D01*
X0202414Y0288072D01*
X0201947Y0287605D01*
X0201013Y0287605D01*
X0200546Y0288072D01*
X0199652Y0288072D02*
X0199185Y0287605D01*
X0198251Y0287605D01*
X0197783Y0288072D01*
X0197783Y0289940D01*
X0198251Y0290407D01*
X0199185Y0290407D01*
X0199652Y0289940D01*
X0203518Y0284221D02*
X0204919Y0284221D01*
X0205386Y0283754D01*
X0205386Y0281886D01*
X0204919Y0281419D01*
X0203518Y0281419D01*
X0203518Y0284221D01*
X0206280Y0283754D02*
X0206748Y0284221D01*
X0207682Y0284221D01*
X0208149Y0283754D01*
X0208149Y0283287D01*
X0206280Y0281419D01*
X0208149Y0281419D01*
X0183820Y0278467D02*
X0183820Y0278000D01*
X0183353Y0277533D01*
X0183820Y0277065D01*
X0183820Y0276598D01*
X0183353Y0276131D01*
X0182419Y0276131D01*
X0181951Y0276598D01*
X0181057Y0276131D02*
X0179189Y0276131D01*
X0178295Y0276131D02*
X0177361Y0277065D01*
X0177828Y0277065D02*
X0176427Y0277065D01*
X0176427Y0276131D02*
X0176427Y0278934D01*
X0177828Y0278934D01*
X0178295Y0278467D01*
X0178295Y0277533D01*
X0177828Y0277065D01*
X0179189Y0278000D02*
X0180123Y0278934D01*
X0180123Y0276131D01*
X0181951Y0278467D02*
X0182419Y0278934D01*
X0183353Y0278934D01*
X0183820Y0278467D01*
X0183353Y0277533D02*
X0182886Y0277533D01*
X0152933Y0275267D02*
X0152933Y0274800D01*
X0152466Y0274333D01*
X0152933Y0273865D01*
X0152933Y0273398D01*
X0152466Y0272931D01*
X0151531Y0272931D01*
X0151064Y0273398D01*
X0150170Y0272931D02*
X0148302Y0272931D01*
X0150170Y0274800D01*
X0150170Y0275267D01*
X0149703Y0275734D01*
X0148769Y0275734D01*
X0148302Y0275267D01*
X0147408Y0275267D02*
X0146941Y0275734D01*
X0146007Y0275734D01*
X0145540Y0275267D01*
X0145540Y0273398D01*
X0146007Y0272931D01*
X0146941Y0272931D01*
X0147408Y0273398D01*
X0151064Y0275267D02*
X0151531Y0275734D01*
X0152466Y0275734D01*
X0152933Y0275267D01*
X0152466Y0274333D02*
X0151999Y0274333D01*
X0179124Y0261724D02*
X0179591Y0260790D01*
X0180526Y0259856D01*
X0180526Y0261257D01*
X0180993Y0261724D01*
X0181460Y0261724D01*
X0181927Y0261257D01*
X0181927Y0260323D01*
X0181460Y0259856D01*
X0180526Y0259856D01*
X0180059Y0258962D02*
X0179591Y0258962D01*
X0179124Y0258495D01*
X0179124Y0257561D01*
X0179591Y0257094D01*
X0179591Y0256200D02*
X0179124Y0255733D01*
X0179124Y0254798D01*
X0179591Y0254331D01*
X0181460Y0254331D01*
X0181927Y0254798D01*
X0181927Y0255733D01*
X0181460Y0256200D01*
X0181927Y0257094D02*
X0180059Y0258962D01*
X0181927Y0258962D02*
X0181927Y0257094D01*
X0170190Y0242015D02*
X0169256Y0242015D01*
X0168789Y0241548D01*
X0168789Y0241081D01*
X0169256Y0240614D01*
X0170190Y0240614D01*
X0170657Y0240147D01*
X0170657Y0239679D01*
X0170190Y0239212D01*
X0169256Y0239212D01*
X0168789Y0239679D01*
X0168789Y0240147D01*
X0169256Y0240614D01*
X0170190Y0240614D02*
X0170657Y0241081D01*
X0170657Y0241548D01*
X0170190Y0242015D01*
X0167895Y0241548D02*
X0167895Y0240614D01*
X0167428Y0240147D01*
X0166027Y0240147D01*
X0166961Y0240147D02*
X0167895Y0239212D01*
X0166027Y0239212D02*
X0166027Y0242015D01*
X0167428Y0242015D01*
X0167895Y0241548D01*
X0154127Y0242075D02*
X0154127Y0240207D01*
X0152259Y0242075D01*
X0151791Y0242075D01*
X0151324Y0241608D01*
X0151324Y0240674D01*
X0151791Y0240207D01*
X0151791Y0239312D02*
X0151324Y0238845D01*
X0151324Y0237911D01*
X0151791Y0237444D01*
X0153660Y0237444D01*
X0154127Y0237911D01*
X0154127Y0238845D01*
X0153660Y0239312D01*
X0153660Y0242969D02*
X0154127Y0243436D01*
X0154127Y0244370D01*
X0153660Y0244837D01*
X0152726Y0244837D01*
X0152259Y0244370D01*
X0152259Y0243903D01*
X0152726Y0242969D01*
X0151324Y0242969D01*
X0151324Y0244837D01*
X0139633Y0241533D02*
X0137764Y0241533D01*
X0139166Y0242934D01*
X0139166Y0240131D01*
X0136870Y0240131D02*
X0135002Y0240131D01*
X0134108Y0240131D02*
X0133174Y0241065D01*
X0133641Y0241065D02*
X0132240Y0241065D01*
X0132240Y0240131D02*
X0132240Y0242934D01*
X0133641Y0242934D01*
X0134108Y0242467D01*
X0134108Y0241533D01*
X0133641Y0241065D01*
X0135002Y0242000D02*
X0135936Y0242934D01*
X0135936Y0240131D01*
X0136664Y0236734D02*
X0138066Y0236734D01*
X0138533Y0236267D01*
X0138533Y0235800D01*
X0138066Y0235333D01*
X0136664Y0235333D01*
X0135770Y0235333D02*
X0133902Y0235333D01*
X0133008Y0236734D02*
X0131140Y0236734D01*
X0131140Y0233931D01*
X0133008Y0233931D01*
X0132074Y0235333D02*
X0131140Y0235333D01*
X0130246Y0234865D02*
X0130246Y0234398D01*
X0129778Y0233931D01*
X0128844Y0233931D01*
X0128377Y0234398D01*
X0127483Y0233931D02*
X0127483Y0236734D01*
X0128377Y0236267D02*
X0128377Y0235800D01*
X0128844Y0235333D01*
X0129778Y0235333D01*
X0130246Y0234865D01*
X0130246Y0236267D02*
X0129778Y0236734D01*
X0128844Y0236734D01*
X0128377Y0236267D01*
X0127483Y0233931D02*
X0125615Y0236734D01*
X0125615Y0233931D01*
X0124721Y0233931D02*
X0122853Y0233931D01*
X0122853Y0236734D01*
X0124721Y0236734D01*
X0123787Y0235333D02*
X0122853Y0235333D01*
X0121959Y0234865D02*
X0121959Y0234398D01*
X0121491Y0233931D01*
X0120557Y0233931D01*
X0120090Y0234398D01*
X0119196Y0234865D02*
X0119196Y0236734D01*
X0120090Y0236267D02*
X0120090Y0235800D01*
X0120557Y0235333D01*
X0121491Y0235333D01*
X0121959Y0234865D01*
X0121959Y0236267D02*
X0121491Y0236734D01*
X0120557Y0236734D01*
X0120090Y0236267D01*
X0119196Y0234865D02*
X0118262Y0233931D01*
X0117328Y0234865D01*
X0117328Y0236734D01*
X0132240Y0230167D02*
X0132240Y0228298D01*
X0132707Y0227831D01*
X0133641Y0227831D01*
X0134108Y0228298D01*
X0135002Y0227831D02*
X0136870Y0229700D01*
X0136870Y0230167D01*
X0136403Y0230634D01*
X0135469Y0230634D01*
X0135002Y0230167D01*
X0134108Y0230167D02*
X0133641Y0230634D01*
X0132707Y0230634D01*
X0132240Y0230167D01*
X0135002Y0227831D02*
X0136870Y0227831D01*
X0137764Y0229233D02*
X0139633Y0229233D01*
X0139166Y0230634D02*
X0137764Y0229233D01*
X0139166Y0227831D02*
X0139166Y0230634D01*
X0138066Y0233931D02*
X0136664Y0233931D01*
X0136664Y0236734D01*
X0138066Y0235333D02*
X0138533Y0234865D01*
X0138533Y0234398D01*
X0138066Y0233931D01*
X0148527Y0231334D02*
X0148527Y0228531D01*
X0148527Y0229465D02*
X0149928Y0229465D01*
X0150395Y0229933D01*
X0150395Y0230867D01*
X0149928Y0231334D01*
X0148527Y0231334D01*
X0149461Y0229465D02*
X0150395Y0228531D01*
X0151289Y0228531D02*
X0153157Y0228531D01*
X0152223Y0228531D02*
X0152223Y0231334D01*
X0151289Y0230400D01*
X0154051Y0229933D02*
X0154986Y0230400D01*
X0155453Y0230400D01*
X0155920Y0229933D01*
X0155920Y0228998D01*
X0155453Y0228531D01*
X0154519Y0228531D01*
X0154051Y0228998D01*
X0154051Y0229933D02*
X0154051Y0231334D01*
X0155920Y0231334D01*
X0166694Y0220834D02*
X0166227Y0220367D01*
X0166227Y0218498D01*
X0166694Y0218031D01*
X0167628Y0218031D01*
X0168095Y0218498D01*
X0168989Y0218031D02*
X0170857Y0218031D01*
X0171751Y0218031D02*
X0173620Y0219900D01*
X0173620Y0220367D01*
X0173153Y0220834D01*
X0172219Y0220834D01*
X0171751Y0220367D01*
X0169923Y0220834D02*
X0169923Y0218031D01*
X0171751Y0218031D02*
X0173620Y0218031D01*
X0169923Y0220834D02*
X0168989Y0219900D01*
X0168095Y0220367D02*
X0167628Y0220834D01*
X0166694Y0220834D01*
X0178487Y0220408D02*
X0178487Y0223211D01*
X0179889Y0223211D01*
X0180356Y0222744D01*
X0180356Y0221810D01*
X0179889Y0221343D01*
X0178487Y0221343D01*
X0179422Y0221343D02*
X0180356Y0220408D01*
X0181250Y0220876D02*
X0181717Y0220408D01*
X0182651Y0220408D01*
X0183118Y0220876D01*
X0183118Y0221810D01*
X0182651Y0222277D01*
X0182184Y0222277D01*
X0181250Y0221810D01*
X0181250Y0223211D01*
X0183118Y0223211D01*
X0183431Y0194434D02*
X0182964Y0193967D01*
X0182964Y0193500D01*
X0183431Y0193033D01*
X0184833Y0193033D01*
X0184833Y0193967D02*
X0184833Y0192098D01*
X0184366Y0191631D01*
X0183431Y0191631D01*
X0182964Y0192098D01*
X0182070Y0192098D02*
X0181603Y0191631D01*
X0180669Y0191631D01*
X0180202Y0192098D01*
X0180202Y0193967D01*
X0180669Y0194434D01*
X0181603Y0194434D01*
X0182070Y0193967D01*
X0183431Y0194434D02*
X0184366Y0194434D01*
X0184833Y0193967D01*
X0152657Y0190034D02*
X0151723Y0189567D01*
X0150789Y0188633D01*
X0152190Y0188633D01*
X0152657Y0188165D01*
X0152657Y0187698D01*
X0152190Y0187231D01*
X0151256Y0187231D01*
X0150789Y0187698D01*
X0150789Y0188633D01*
X0149895Y0189567D02*
X0149428Y0190034D01*
X0148494Y0190034D01*
X0148027Y0189567D01*
X0148027Y0187698D01*
X0148494Y0187231D01*
X0149428Y0187231D01*
X0149895Y0187698D01*
X0139633Y0185831D02*
X0137764Y0185831D01*
X0136870Y0185831D02*
X0135936Y0186765D01*
X0136403Y0186765D02*
X0135002Y0186765D01*
X0135002Y0185831D02*
X0135002Y0188634D01*
X0136403Y0188634D01*
X0136870Y0188167D01*
X0136870Y0187233D01*
X0136403Y0186765D01*
X0137764Y0187700D02*
X0138699Y0188634D01*
X0138699Y0185831D01*
X0138297Y0182334D02*
X0139231Y0181400D01*
X0139231Y0179531D01*
X0139231Y0180933D02*
X0137363Y0180933D01*
X0137363Y0181400D02*
X0138297Y0182334D01*
X0137363Y0181400D02*
X0137363Y0179531D01*
X0136469Y0180933D02*
X0134601Y0180933D01*
X0133707Y0182334D02*
X0131839Y0182334D01*
X0131839Y0179531D01*
X0133707Y0179531D01*
X0132773Y0180933D02*
X0131839Y0180933D01*
X0130944Y0180465D02*
X0130944Y0179998D01*
X0130477Y0179531D01*
X0129543Y0179531D01*
X0129076Y0179998D01*
X0128182Y0179531D02*
X0128182Y0182334D01*
X0129076Y0181867D02*
X0129543Y0182334D01*
X0130477Y0182334D01*
X0130944Y0181867D01*
X0130477Y0180933D02*
X0130944Y0180465D01*
X0130477Y0180933D02*
X0129543Y0180933D01*
X0129076Y0181400D01*
X0129076Y0181867D01*
X0128182Y0179531D02*
X0126314Y0182334D01*
X0126314Y0179531D01*
X0125420Y0179531D02*
X0123551Y0179531D01*
X0123551Y0182334D01*
X0125420Y0182334D01*
X0124486Y0180933D02*
X0123551Y0180933D01*
X0122657Y0180465D02*
X0122657Y0179998D01*
X0122190Y0179531D01*
X0121256Y0179531D01*
X0120789Y0179998D01*
X0119895Y0180465D02*
X0119895Y0182334D01*
X0120789Y0181867D02*
X0120789Y0181400D01*
X0121256Y0180933D01*
X0122190Y0180933D01*
X0122657Y0180465D01*
X0122657Y0181867D02*
X0122190Y0182334D01*
X0121256Y0182334D01*
X0120789Y0181867D01*
X0119895Y0180465D02*
X0118961Y0179531D01*
X0118027Y0180465D01*
X0118027Y0182334D01*
X0134902Y0176134D02*
X0134902Y0173331D01*
X0134902Y0174265D02*
X0136303Y0174265D01*
X0136770Y0174733D01*
X0136770Y0175667D01*
X0136303Y0176134D01*
X0134902Y0176134D01*
X0135836Y0174265D02*
X0136770Y0173331D01*
X0137664Y0173331D02*
X0139533Y0175200D01*
X0139533Y0175667D01*
X0139066Y0176134D01*
X0138131Y0176134D01*
X0137664Y0175667D01*
X0137664Y0173331D02*
X0139533Y0173331D01*
X0189302Y0142834D02*
X0190703Y0142834D01*
X0191170Y0142367D01*
X0191170Y0141433D01*
X0190703Y0140965D01*
X0189302Y0140965D01*
X0189302Y0140031D02*
X0189302Y0142834D01*
X0190236Y0140965D02*
X0191170Y0140031D01*
X0192064Y0140498D02*
X0192531Y0140031D01*
X0193466Y0140031D01*
X0193933Y0140498D01*
X0193933Y0140965D01*
X0193466Y0141433D01*
X0192999Y0141433D01*
X0193466Y0141433D02*
X0193933Y0141900D01*
X0193933Y0142367D01*
X0193466Y0142834D01*
X0192531Y0142834D01*
X0192064Y0142367D01*
X0187233Y0131234D02*
X0186299Y0130767D01*
X0185364Y0129833D01*
X0186766Y0129833D01*
X0187233Y0129365D01*
X0187233Y0128898D01*
X0186766Y0128431D01*
X0185831Y0128431D01*
X0185364Y0128898D01*
X0185364Y0129833D01*
X0184470Y0129833D02*
X0184003Y0129365D01*
X0182602Y0129365D01*
X0182602Y0128431D02*
X0182602Y0131234D01*
X0184003Y0131234D01*
X0184470Y0130767D01*
X0184470Y0129833D01*
X0183536Y0129365D02*
X0184470Y0128431D01*
X0183936Y0109034D02*
X0183002Y0108100D01*
X0182108Y0108567D02*
X0182108Y0107633D01*
X0181641Y0107165D01*
X0180240Y0107165D01*
X0180240Y0106231D02*
X0180240Y0109034D01*
X0181641Y0109034D01*
X0182108Y0108567D01*
X0181174Y0107165D02*
X0182108Y0106231D01*
X0183002Y0106231D02*
X0184870Y0106231D01*
X0183936Y0106231D02*
X0183936Y0109034D01*
X0185764Y0108567D02*
X0185764Y0108100D01*
X0186231Y0107633D01*
X0187166Y0107633D01*
X0187633Y0107165D01*
X0187633Y0106698D01*
X0187166Y0106231D01*
X0186231Y0106231D01*
X0185764Y0106698D01*
X0185764Y0107165D01*
X0186231Y0107633D01*
X0187166Y0107633D02*
X0187633Y0108100D01*
X0187633Y0108567D01*
X0187166Y0109034D01*
X0186231Y0109034D01*
X0185764Y0108567D01*
X0185464Y0099934D02*
X0187333Y0099934D01*
X0187333Y0099467D01*
X0185464Y0097598D01*
X0185464Y0097131D01*
X0184570Y0097131D02*
X0182702Y0097131D01*
X0181808Y0097131D02*
X0180874Y0098065D01*
X0181341Y0098065D02*
X0179940Y0098065D01*
X0179940Y0097131D02*
X0179940Y0099934D01*
X0181341Y0099934D01*
X0181808Y0099467D01*
X0181808Y0098533D01*
X0181341Y0098065D01*
X0182702Y0099000D02*
X0183636Y0099934D01*
X0183636Y0097131D01*
X0284427Y0099231D02*
X0284427Y0102034D01*
X0285828Y0102034D01*
X0286295Y0101567D01*
X0286295Y0100633D01*
X0285828Y0100165D01*
X0284427Y0100165D01*
X0285361Y0100165D02*
X0286295Y0099231D01*
X0287189Y0099231D02*
X0287189Y0099698D01*
X0289057Y0101567D01*
X0289057Y0102034D01*
X0287189Y0102034D01*
X0293994Y0092234D02*
X0293527Y0091767D01*
X0293527Y0089898D01*
X0293994Y0089431D01*
X0294928Y0089431D01*
X0295395Y0089898D01*
X0296289Y0089431D02*
X0298157Y0091300D01*
X0298157Y0091767D01*
X0297690Y0092234D01*
X0296756Y0092234D01*
X0296289Y0091767D01*
X0295395Y0091767D02*
X0294928Y0092234D01*
X0293994Y0092234D01*
X0296289Y0089431D02*
X0298157Y0089431D01*
X0299051Y0089431D02*
X0300920Y0089431D01*
X0299986Y0089431D02*
X0299986Y0092234D01*
X0299051Y0091300D01*
X0306624Y0098531D02*
X0306624Y0099933D01*
X0307091Y0100400D01*
X0308026Y0100400D01*
X0308493Y0099933D01*
X0308493Y0098531D01*
X0309427Y0098531D02*
X0306624Y0098531D01*
X0308493Y0099465D02*
X0309427Y0100400D01*
X0309427Y0101294D02*
X0309427Y0103162D01*
X0309427Y0102228D02*
X0306624Y0102228D01*
X0307559Y0101294D01*
X0307559Y0104056D02*
X0308026Y0104523D01*
X0308026Y0105924D01*
X0308960Y0105924D02*
X0307091Y0105924D01*
X0306624Y0105457D01*
X0306624Y0104523D01*
X0307091Y0104056D01*
X0307559Y0104056D01*
X0308960Y0104056D02*
X0309427Y0104523D01*
X0309427Y0105457D01*
X0308960Y0105924D01*
X0338328Y0099567D02*
X0338328Y0097698D01*
X0338795Y0097231D01*
X0339729Y0097231D01*
X0340196Y0097698D01*
X0341090Y0097231D02*
X0342959Y0099100D01*
X0342959Y0099567D01*
X0342491Y0100034D01*
X0341557Y0100034D01*
X0341090Y0099567D01*
X0340196Y0099567D02*
X0339729Y0100034D01*
X0338795Y0100034D01*
X0338328Y0099567D01*
X0341090Y0097231D02*
X0342959Y0097231D01*
X0343853Y0097698D02*
X0345721Y0099567D01*
X0345721Y0097698D01*
X0345254Y0097231D01*
X0344320Y0097231D01*
X0343853Y0097698D01*
X0343853Y0099567D01*
X0344320Y0100034D01*
X0345254Y0100034D01*
X0345721Y0099567D01*
X0346615Y0097231D02*
X0348483Y0100034D01*
X0349377Y0100034D02*
X0351246Y0100034D01*
X0352140Y0100034D02*
X0352140Y0097698D01*
X0352607Y0097231D01*
X0353541Y0097231D01*
X0354008Y0097698D01*
X0354008Y0100034D01*
X0354902Y0100034D02*
X0356770Y0097231D01*
X0356770Y0100034D01*
X0357664Y0100034D02*
X0357664Y0097231D01*
X0359533Y0097231D01*
X0358598Y0098633D02*
X0357664Y0098633D01*
X0357664Y0100034D02*
X0359533Y0100034D01*
X0354902Y0100034D02*
X0354902Y0097231D01*
X0350311Y0097231D02*
X0350311Y0100034D01*
X0367524Y0099041D02*
X0368459Y0098107D01*
X0367991Y0097212D02*
X0367524Y0096745D01*
X0367524Y0095811D01*
X0367991Y0095344D01*
X0369860Y0095344D01*
X0370327Y0095811D01*
X0370327Y0096745D01*
X0369860Y0097212D01*
X0370327Y0098107D02*
X0370327Y0099975D01*
X0370327Y0099041D02*
X0367524Y0099041D01*
X0367991Y0100869D02*
X0368459Y0100869D01*
X0368926Y0101336D01*
X0368926Y0102737D01*
X0369860Y0102737D02*
X0367991Y0102737D01*
X0367524Y0102270D01*
X0367524Y0101336D01*
X0367991Y0100869D01*
X0369860Y0100869D02*
X0370327Y0101336D01*
X0370327Y0102270D01*
X0369860Y0102737D01*
X0345466Y0127731D02*
X0345466Y0130534D01*
X0344064Y0129133D01*
X0345933Y0129133D01*
X0343170Y0129600D02*
X0343170Y0130067D01*
X0342703Y0130534D01*
X0341769Y0130534D01*
X0341302Y0130067D01*
X0340408Y0130067D02*
X0340408Y0129133D01*
X0339941Y0128665D01*
X0338540Y0128665D01*
X0338540Y0127731D02*
X0338540Y0130534D01*
X0339941Y0130534D01*
X0340408Y0130067D01*
X0339474Y0128665D02*
X0340408Y0127731D01*
X0341302Y0127731D02*
X0343170Y0129600D01*
X0343170Y0127731D02*
X0341302Y0127731D01*
X0280720Y0166931D02*
X0278851Y0166931D01*
X0280720Y0168800D01*
X0280720Y0169267D01*
X0280253Y0169734D01*
X0279319Y0169734D01*
X0278851Y0169267D01*
X0277957Y0169267D02*
X0277490Y0169734D01*
X0276556Y0169734D01*
X0276089Y0169267D01*
X0275195Y0169267D02*
X0274728Y0169734D01*
X0273794Y0169734D01*
X0273327Y0169267D01*
X0273327Y0167398D01*
X0273794Y0166931D01*
X0274728Y0166931D01*
X0275195Y0167398D01*
X0276089Y0166931D02*
X0277957Y0168800D01*
X0277957Y0169267D01*
X0277957Y0166931D02*
X0276089Y0166931D01*
X0290327Y0197531D02*
X0317327Y0197531D01*
X0317327Y0200531D02*
X0290327Y0200531D01*
X0283712Y0210031D02*
X0283824Y0210190D01*
X0283939Y0210347D01*
X0284058Y0210501D01*
X0284181Y0210652D01*
X0284307Y0210800D01*
X0284437Y0210945D01*
X0284571Y0211087D01*
X0284708Y0211225D01*
X0284848Y0211360D01*
X0284991Y0211492D01*
X0285138Y0211620D01*
X0285288Y0211744D01*
X0285440Y0211865D01*
X0285596Y0211982D01*
X0285754Y0212095D01*
X0285915Y0212205D01*
X0286079Y0212310D01*
X0286245Y0212411D01*
X0286414Y0212509D01*
X0286585Y0212602D01*
X0286758Y0212691D01*
X0286933Y0212776D01*
X0287111Y0212856D01*
X0287290Y0212932D01*
X0287471Y0213004D01*
X0287653Y0213071D01*
X0287838Y0213134D01*
X0288023Y0213192D01*
X0288211Y0213246D01*
X0288399Y0213295D01*
X0288588Y0213340D01*
X0288779Y0213380D01*
X0288970Y0213415D01*
X0289163Y0213446D01*
X0289356Y0213472D01*
X0289549Y0213493D01*
X0289743Y0213510D01*
X0289937Y0213522D01*
X0290132Y0213529D01*
X0290327Y0213531D01*
X0317327Y0213531D01*
X0317327Y0210531D02*
X0290327Y0210531D01*
X0290194Y0210529D01*
X0290062Y0210524D01*
X0289930Y0210515D01*
X0289797Y0210503D01*
X0289666Y0210487D01*
X0289534Y0210468D01*
X0289404Y0210445D01*
X0289274Y0210419D01*
X0289144Y0210389D01*
X0289016Y0210356D01*
X0288888Y0210320D01*
X0288762Y0210280D01*
X0288636Y0210237D01*
X0288512Y0210190D01*
X0288389Y0210140D01*
X0288268Y0210087D01*
X0288148Y0210031D01*
X0283713Y0201031D02*
X0283824Y0200871D01*
X0283939Y0200715D01*
X0284058Y0200561D01*
X0284181Y0200409D01*
X0284308Y0200261D01*
X0284438Y0200117D01*
X0284571Y0199975D01*
X0284708Y0199836D01*
X0284848Y0199701D01*
X0284992Y0199570D01*
X0285138Y0199442D01*
X0285288Y0199317D01*
X0285441Y0199197D01*
X0285596Y0199080D01*
X0285755Y0198966D01*
X0285916Y0198857D01*
X0286080Y0198752D01*
X0286246Y0198650D01*
X0286414Y0198553D01*
X0286585Y0198460D01*
X0286759Y0198371D01*
X0286934Y0198286D01*
X0287111Y0198206D01*
X0287290Y0198130D01*
X0287471Y0198058D01*
X0287654Y0197991D01*
X0287838Y0197928D01*
X0288024Y0197870D01*
X0288211Y0197816D01*
X0288400Y0197767D01*
X0288589Y0197722D01*
X0288780Y0197682D01*
X0288971Y0197647D01*
X0289163Y0197616D01*
X0289356Y0197590D01*
X0289550Y0197569D01*
X0289744Y0197552D01*
X0289938Y0197540D01*
X0290133Y0197533D01*
X0290327Y0197531D01*
X0290327Y0200531D02*
X0290194Y0200533D01*
X0290062Y0200538D01*
X0289930Y0200547D01*
X0289797Y0200559D01*
X0289666Y0200575D01*
X0289534Y0200594D01*
X0289404Y0200617D01*
X0289274Y0200643D01*
X0289144Y0200673D01*
X0289016Y0200706D01*
X0288888Y0200742D01*
X0288762Y0200782D01*
X0288636Y0200825D01*
X0288512Y0200872D01*
X0288389Y0200922D01*
X0288268Y0200975D01*
X0288148Y0201031D01*
X0299827Y0205531D02*
X0301327Y0205531D01*
X0306327Y0205531D02*
X0307827Y0205531D01*
X0317326Y0197531D02*
X0317521Y0197533D01*
X0317715Y0197540D01*
X0317910Y0197552D01*
X0318104Y0197569D01*
X0318297Y0197590D01*
X0318490Y0197616D01*
X0318682Y0197647D01*
X0318874Y0197682D01*
X0319064Y0197722D01*
X0319254Y0197767D01*
X0319442Y0197816D01*
X0319629Y0197870D01*
X0319815Y0197928D01*
X0319999Y0197991D01*
X0320182Y0198058D01*
X0320363Y0198130D01*
X0320542Y0198206D01*
X0320719Y0198286D01*
X0320895Y0198371D01*
X0321068Y0198460D01*
X0321239Y0198553D01*
X0321407Y0198650D01*
X0321574Y0198752D01*
X0321737Y0198857D01*
X0321898Y0198967D01*
X0322057Y0199080D01*
X0322212Y0199197D01*
X0322365Y0199318D01*
X0322515Y0199442D01*
X0322661Y0199570D01*
X0322805Y0199702D01*
X0322945Y0199837D01*
X0323082Y0199975D01*
X0323215Y0200117D01*
X0323345Y0200262D01*
X0323472Y0200410D01*
X0323595Y0200561D01*
X0323714Y0200715D01*
X0323829Y0200872D01*
X0323941Y0201031D01*
X0323941Y0210031D02*
X0323830Y0210191D01*
X0323715Y0210347D01*
X0323596Y0210501D01*
X0323473Y0210653D01*
X0323346Y0210801D01*
X0323216Y0210945D01*
X0323083Y0211087D01*
X0322946Y0211226D01*
X0322806Y0211361D01*
X0322662Y0211492D01*
X0322516Y0211620D01*
X0322366Y0211745D01*
X0322213Y0211865D01*
X0322058Y0211982D01*
X0321899Y0212096D01*
X0321738Y0212205D01*
X0321574Y0212310D01*
X0321408Y0212412D01*
X0321240Y0212509D01*
X0321069Y0212602D01*
X0320895Y0212691D01*
X0320720Y0212776D01*
X0320543Y0212856D01*
X0320364Y0212932D01*
X0320183Y0213004D01*
X0320000Y0213071D01*
X0319816Y0213134D01*
X0319630Y0213192D01*
X0319443Y0213246D01*
X0319254Y0213295D01*
X0319065Y0213340D01*
X0318874Y0213380D01*
X0318683Y0213415D01*
X0318491Y0213446D01*
X0318298Y0213472D01*
X0318104Y0213493D01*
X0317910Y0213510D01*
X0317716Y0213522D01*
X0317521Y0213529D01*
X0317327Y0213531D01*
X0317327Y0210531D02*
X0317460Y0210529D01*
X0317592Y0210524D01*
X0317724Y0210515D01*
X0317857Y0210503D01*
X0317988Y0210487D01*
X0318120Y0210468D01*
X0318250Y0210445D01*
X0318380Y0210419D01*
X0318510Y0210389D01*
X0318638Y0210356D01*
X0318766Y0210320D01*
X0318892Y0210280D01*
X0319018Y0210237D01*
X0319142Y0210190D01*
X0319265Y0210140D01*
X0319386Y0210087D01*
X0319506Y0210031D01*
X0319506Y0201031D02*
X0319386Y0200975D01*
X0319265Y0200922D01*
X0319142Y0200872D01*
X0319018Y0200825D01*
X0318892Y0200782D01*
X0318766Y0200742D01*
X0318638Y0200706D01*
X0318510Y0200673D01*
X0318380Y0200643D01*
X0318250Y0200617D01*
X0318120Y0200594D01*
X0317988Y0200575D01*
X0317857Y0200559D01*
X0317724Y0200547D01*
X0317592Y0200538D01*
X0317460Y0200533D01*
X0317327Y0200531D01*
X0320277Y0226402D02*
X0321211Y0226402D01*
X0321678Y0226869D01*
X0322572Y0226869D02*
X0322572Y0226402D01*
X0322572Y0226869D02*
X0324441Y0228738D01*
X0324441Y0229205D01*
X0322572Y0229205D01*
X0321678Y0228738D02*
X0321211Y0229205D01*
X0320277Y0229205D01*
X0319810Y0228738D01*
X0319810Y0226869D01*
X0320277Y0226402D01*
X0368583Y0209594D02*
X0368583Y0206792D01*
X0370451Y0206792D01*
X0371345Y0206792D02*
X0373213Y0206792D01*
X0374107Y0206792D02*
X0375509Y0206792D01*
X0375976Y0207259D01*
X0375976Y0209127D01*
X0375509Y0209594D01*
X0374107Y0209594D01*
X0374107Y0206792D01*
X0372279Y0208193D02*
X0371345Y0208193D01*
X0371345Y0209594D02*
X0371345Y0206792D01*
X0371345Y0209594D02*
X0373213Y0209594D01*
X0376870Y0208660D02*
X0377804Y0209594D01*
X0377804Y0206792D01*
X0376870Y0206792D02*
X0378738Y0206792D01*
X0410127Y0221831D02*
X0410127Y0224634D01*
X0411528Y0224634D01*
X0411995Y0224167D01*
X0411995Y0222298D01*
X0411528Y0221831D01*
X0410127Y0221831D01*
X0412889Y0221831D02*
X0414757Y0221831D01*
X0415651Y0221831D02*
X0417520Y0223700D01*
X0417520Y0224167D01*
X0417053Y0224634D01*
X0416119Y0224634D01*
X0415651Y0224167D01*
X0415867Y0225731D02*
X0416801Y0226665D01*
X0416801Y0228534D01*
X0414933Y0228534D02*
X0414933Y0226665D01*
X0415867Y0225731D01*
X0414039Y0226198D02*
X0413571Y0225731D01*
X0412637Y0225731D01*
X0412170Y0226198D01*
X0411256Y0226198D02*
X0411256Y0225731D01*
X0410789Y0225731D01*
X0410789Y0226198D01*
X0411256Y0226198D01*
X0409895Y0226198D02*
X0409428Y0225731D01*
X0408494Y0225731D01*
X0408027Y0226198D01*
X0408961Y0227133D02*
X0409428Y0227133D01*
X0409895Y0226665D01*
X0409895Y0226198D01*
X0409428Y0227133D02*
X0409895Y0227600D01*
X0409895Y0228067D01*
X0409428Y0228534D01*
X0408494Y0228534D01*
X0408027Y0228067D01*
X0412170Y0228067D02*
X0412637Y0228534D01*
X0413571Y0228534D01*
X0414039Y0228067D01*
X0414039Y0227600D01*
X0413571Y0227133D01*
X0414039Y0226665D01*
X0414039Y0226198D01*
X0413571Y0227133D02*
X0413104Y0227133D01*
X0413823Y0224634D02*
X0413823Y0221831D01*
X0415651Y0221831D02*
X0417520Y0221831D01*
X0413823Y0224634D02*
X0412889Y0223700D01*
X0412489Y0232731D02*
X0414357Y0232731D01*
X0413423Y0232731D02*
X0413423Y0235534D01*
X0412489Y0234600D01*
X0411595Y0235067D02*
X0411128Y0235534D01*
X0409727Y0235534D01*
X0409727Y0232731D01*
X0411128Y0232731D01*
X0411595Y0233198D01*
X0411595Y0235067D01*
X0411657Y0236731D02*
X0409789Y0236731D01*
X0410723Y0236731D02*
X0410723Y0239534D01*
X0409789Y0238600D01*
X0408895Y0239067D02*
X0408428Y0239534D01*
X0407027Y0239534D01*
X0407027Y0236731D01*
X0408428Y0236731D01*
X0408895Y0237198D01*
X0408895Y0239067D01*
X0408927Y0242631D02*
X0408927Y0245434D01*
X0410328Y0245434D01*
X0410795Y0244967D01*
X0410795Y0244033D01*
X0410328Y0243565D01*
X0408927Y0243565D01*
X0409861Y0243565D02*
X0410795Y0242631D01*
X0411689Y0243098D02*
X0412156Y0242631D01*
X0413090Y0242631D01*
X0413557Y0243098D01*
X0413557Y0243565D01*
X0413090Y0244033D01*
X0412156Y0244033D01*
X0411689Y0244500D01*
X0411689Y0244967D01*
X0412156Y0245434D01*
X0413090Y0245434D01*
X0413557Y0244967D01*
X0414451Y0245434D02*
X0416320Y0245434D01*
X0415386Y0245434D02*
X0415386Y0242631D01*
X0413486Y0239534D02*
X0413486Y0236731D01*
X0414420Y0236731D02*
X0412551Y0236731D01*
X0412551Y0238600D02*
X0413486Y0239534D01*
X0415719Y0235534D02*
X0416653Y0235534D01*
X0417120Y0235067D01*
X0417120Y0234600D01*
X0416653Y0234133D01*
X0417120Y0233665D01*
X0417120Y0233198D01*
X0416653Y0232731D01*
X0415719Y0232731D01*
X0415251Y0233198D01*
X0416186Y0234133D02*
X0416653Y0234133D01*
X0415719Y0235534D02*
X0415251Y0235067D01*
X0413353Y0246831D02*
X0413820Y0247298D01*
X0413820Y0249167D01*
X0413353Y0249634D01*
X0411951Y0249634D01*
X0411951Y0246831D01*
X0413353Y0246831D01*
X0411057Y0246831D02*
X0411057Y0249634D01*
X0409189Y0249634D02*
X0409189Y0246831D01*
X0408295Y0247298D02*
X0408295Y0248233D01*
X0407361Y0248233D01*
X0408295Y0249167D02*
X0407828Y0249634D01*
X0406894Y0249634D01*
X0406427Y0249167D01*
X0406427Y0247298D01*
X0406894Y0246831D01*
X0407828Y0246831D01*
X0408295Y0247298D01*
X0409189Y0249634D02*
X0411057Y0246831D01*
X0401447Y0258450D02*
X0401447Y0259918D01*
X0401447Y0259184D02*
X0399245Y0259184D01*
X0399979Y0258450D01*
X0399612Y0269631D02*
X0399245Y0269998D01*
X0399245Y0270732D01*
X0399612Y0271099D01*
X0399979Y0271099D01*
X0401447Y0269631D01*
X0401447Y0271099D01*
X0379695Y0265671D02*
X0377493Y0265671D01*
X0377493Y0264203D02*
X0379695Y0265671D01*
X0379695Y0264203D02*
X0377493Y0264203D01*
X0377860Y0263461D02*
X0377493Y0263094D01*
X0377493Y0262361D01*
X0377860Y0261994D01*
X0379328Y0261994D01*
X0379695Y0262361D01*
X0379695Y0263094D01*
X0379328Y0263461D01*
X0377860Y0263461D01*
X0358359Y0274853D02*
X0357892Y0274386D01*
X0356958Y0274386D01*
X0356491Y0274853D01*
X0355597Y0274853D02*
X0355130Y0274386D01*
X0354195Y0274386D01*
X0353728Y0274853D01*
X0353728Y0276721D01*
X0354195Y0277188D01*
X0355130Y0277188D01*
X0355597Y0276721D01*
X0356491Y0277188D02*
X0356491Y0275787D01*
X0357425Y0276254D01*
X0357892Y0276254D01*
X0358359Y0275787D01*
X0358359Y0274853D01*
X0358359Y0277188D02*
X0356491Y0277188D01*
X0348156Y0285342D02*
X0348156Y0288144D01*
X0346755Y0286743D01*
X0348624Y0286743D01*
X0345861Y0286743D02*
X0345394Y0286276D01*
X0343993Y0286276D01*
X0344927Y0286276D02*
X0345861Y0285342D01*
X0345861Y0286743D02*
X0345861Y0287677D01*
X0345394Y0288144D01*
X0343993Y0288144D01*
X0343993Y0285342D01*
X0329633Y0283934D02*
X0328699Y0283467D01*
X0327764Y0282533D01*
X0329166Y0282533D01*
X0329633Y0282065D01*
X0329633Y0281598D01*
X0329166Y0281131D01*
X0328231Y0281131D01*
X0327764Y0281598D01*
X0327764Y0282533D01*
X0326870Y0281131D02*
X0325002Y0281131D01*
X0324108Y0281131D02*
X0323174Y0282065D01*
X0323641Y0282065D02*
X0322240Y0282065D01*
X0322240Y0281131D02*
X0322240Y0283934D01*
X0323641Y0283934D01*
X0324108Y0283467D01*
X0324108Y0282533D01*
X0323641Y0282065D01*
X0325002Y0283000D02*
X0325936Y0283934D01*
X0325936Y0281131D01*
X0331507Y0272334D02*
X0331040Y0271867D01*
X0331040Y0269998D01*
X0331507Y0269531D01*
X0332441Y0269531D01*
X0332908Y0269998D01*
X0333802Y0269531D02*
X0335670Y0271400D01*
X0335670Y0271867D01*
X0335203Y0272334D01*
X0334269Y0272334D01*
X0333802Y0271867D01*
X0332908Y0271867D02*
X0332441Y0272334D01*
X0331507Y0272334D01*
X0333802Y0269531D02*
X0335670Y0269531D01*
X0336564Y0269531D02*
X0336564Y0269998D01*
X0338433Y0271867D01*
X0338433Y0272334D01*
X0336564Y0272334D01*
X0323320Y0262234D02*
X0323320Y0261767D01*
X0321451Y0259898D01*
X0321451Y0259431D01*
X0320557Y0259431D02*
X0318689Y0259431D01*
X0319623Y0259431D02*
X0319623Y0262234D01*
X0318689Y0261300D01*
X0317795Y0261767D02*
X0317328Y0262234D01*
X0316394Y0262234D01*
X0315927Y0261767D01*
X0315927Y0259898D01*
X0316394Y0259431D01*
X0317328Y0259431D01*
X0317795Y0259898D01*
X0321451Y0262234D02*
X0323320Y0262234D01*
X0317096Y0310848D02*
X0315227Y0310848D01*
X0316162Y0310848D02*
X0316162Y0313650D01*
X0315227Y0312716D01*
X0314333Y0313183D02*
X0313866Y0313650D01*
X0312465Y0313650D01*
X0312465Y0310848D01*
X0313866Y0310848D01*
X0314333Y0311315D01*
X0314333Y0313183D01*
X0365562Y0312888D02*
X0366963Y0312888D01*
X0367430Y0312421D01*
X0367430Y0311487D01*
X0366963Y0311020D01*
X0365562Y0311020D01*
X0366496Y0311020D02*
X0367430Y0310086D01*
X0368324Y0310553D02*
X0368791Y0310086D01*
X0369725Y0310086D01*
X0370192Y0310553D01*
X0370192Y0311020D01*
X0369725Y0311487D01*
X0369258Y0311487D01*
X0369725Y0311487D02*
X0370192Y0311954D01*
X0370192Y0312421D01*
X0369725Y0312888D01*
X0368791Y0312888D01*
X0368324Y0312421D01*
X0371086Y0312421D02*
X0371554Y0312888D01*
X0372488Y0312888D01*
X0372955Y0312421D01*
X0372955Y0311954D01*
X0371086Y0310086D01*
X0372955Y0310086D01*
X0365562Y0310086D02*
X0365562Y0312888D01*
X0343455Y0344796D02*
X0343922Y0345263D01*
X0343922Y0346197D01*
X0343455Y0346664D01*
X0343922Y0347558D02*
X0343922Y0349427D01*
X0343922Y0348492D02*
X0341120Y0348492D01*
X0342054Y0347558D01*
X0341587Y0346664D02*
X0341120Y0346197D01*
X0341120Y0345263D01*
X0341587Y0344796D01*
X0343455Y0344796D01*
X0343455Y0350321D02*
X0343922Y0350788D01*
X0343922Y0351722D01*
X0343455Y0352189D01*
X0342988Y0352189D01*
X0342521Y0351722D01*
X0342521Y0351255D01*
X0342521Y0351722D02*
X0342054Y0352189D01*
X0341587Y0352189D01*
X0341120Y0351722D01*
X0341120Y0350788D01*
X0341587Y0350321D01*
X0230919Y0350306D02*
X0230452Y0349839D01*
X0229518Y0349839D01*
X0229051Y0350306D01*
X0229051Y0350773D01*
X0229518Y0351240D01*
X0230452Y0351240D01*
X0230919Y0350773D01*
X0230919Y0350306D01*
X0230452Y0349839D02*
X0230919Y0349372D01*
X0230919Y0348905D01*
X0230452Y0348438D01*
X0229518Y0348438D01*
X0229051Y0348905D01*
X0229051Y0349372D01*
X0229518Y0349839D01*
X0228157Y0349839D02*
X0226288Y0349839D01*
X0227690Y0351240D01*
X0227690Y0348438D01*
X0225394Y0348905D02*
X0224927Y0348438D01*
X0223993Y0348438D01*
X0223526Y0348905D01*
X0223526Y0350773D01*
X0223993Y0351240D01*
X0224927Y0351240D01*
X0225394Y0350773D01*
X0072599Y0281934D02*
X0072599Y0279131D01*
X0073533Y0279131D02*
X0071664Y0279131D01*
X0070770Y0279598D02*
X0070303Y0279131D01*
X0069369Y0279131D01*
X0068902Y0279598D01*
X0068008Y0279598D02*
X0067541Y0279131D01*
X0066607Y0279131D01*
X0066140Y0279598D01*
X0066140Y0281467D01*
X0066607Y0281934D01*
X0067541Y0281934D01*
X0068008Y0281467D01*
X0068902Y0281467D02*
X0069369Y0281934D01*
X0070303Y0281934D01*
X0070770Y0281467D01*
X0070770Y0281000D01*
X0070303Y0280533D01*
X0070770Y0280065D01*
X0070770Y0279598D01*
X0070303Y0280533D02*
X0069836Y0280533D01*
X0071664Y0281000D02*
X0072599Y0281934D01*
X0068353Y0239934D02*
X0068820Y0239467D01*
X0066951Y0237598D01*
X0067419Y0237131D01*
X0068353Y0237131D01*
X0068820Y0237598D01*
X0068820Y0239467D01*
X0068353Y0239934D02*
X0067419Y0239934D01*
X0066951Y0239467D01*
X0066951Y0237598D01*
X0066057Y0237598D02*
X0065590Y0237131D01*
X0064656Y0237131D01*
X0064189Y0237598D01*
X0063295Y0237598D02*
X0062828Y0237131D01*
X0061894Y0237131D01*
X0061427Y0237598D01*
X0061427Y0239467D01*
X0061894Y0239934D01*
X0062828Y0239934D01*
X0063295Y0239467D01*
X0064189Y0239467D02*
X0064656Y0239934D01*
X0065590Y0239934D01*
X0066057Y0239467D01*
X0066057Y0239000D01*
X0065590Y0238533D01*
X0066057Y0238065D01*
X0066057Y0237598D01*
X0065590Y0238533D02*
X0065123Y0238533D01*
X0065607Y0226934D02*
X0065140Y0226467D01*
X0065140Y0224598D01*
X0065607Y0224131D01*
X0066541Y0224131D01*
X0067008Y0224598D01*
X0067902Y0224131D02*
X0069770Y0226000D01*
X0069770Y0226467D01*
X0069303Y0226934D01*
X0068369Y0226934D01*
X0067902Y0226467D01*
X0067008Y0226467D02*
X0066541Y0226934D01*
X0065607Y0226934D01*
X0067902Y0224131D02*
X0069770Y0224131D01*
X0070664Y0224598D02*
X0070664Y0225065D01*
X0071131Y0225533D01*
X0072066Y0225533D01*
X0072533Y0225065D01*
X0072533Y0224598D01*
X0072066Y0224131D01*
X0071131Y0224131D01*
X0070664Y0224598D01*
X0071131Y0225533D02*
X0070664Y0226000D01*
X0070664Y0226467D01*
X0071131Y0226934D01*
X0072066Y0226934D01*
X0072533Y0226467D01*
X0072533Y0226000D01*
X0072066Y0225533D01*
X0069353Y0184934D02*
X0068419Y0184934D01*
X0067951Y0184467D01*
X0067951Y0184000D01*
X0068419Y0183533D01*
X0069820Y0183533D01*
X0069820Y0184467D02*
X0069353Y0184934D01*
X0069820Y0184467D02*
X0069820Y0182598D01*
X0069353Y0182131D01*
X0068419Y0182131D01*
X0067951Y0182598D01*
X0067057Y0182131D02*
X0065189Y0182131D01*
X0067057Y0184000D01*
X0067057Y0184467D01*
X0066590Y0184934D01*
X0065656Y0184934D01*
X0065189Y0184467D01*
X0064295Y0184467D02*
X0063828Y0184934D01*
X0062894Y0184934D01*
X0062427Y0184467D01*
X0062427Y0182598D01*
X0062894Y0182131D01*
X0063828Y0182131D01*
X0064295Y0182598D01*
X0340227Y0172967D02*
X0340227Y0171098D01*
X0340694Y0170631D01*
X0341628Y0170631D01*
X0342095Y0171098D01*
X0342989Y0170631D02*
X0344857Y0172500D01*
X0344857Y0172967D01*
X0344390Y0173434D01*
X0343456Y0173434D01*
X0342989Y0172967D01*
X0342095Y0172967D02*
X0341628Y0173434D01*
X0340694Y0173434D01*
X0340227Y0172967D01*
X0342989Y0170631D02*
X0344857Y0170631D01*
D16*
X0162076Y0200371D02*
X0162078Y0200420D01*
X0162084Y0200469D01*
X0162093Y0200517D01*
X0162107Y0200564D01*
X0162124Y0200610D01*
X0162145Y0200654D01*
X0162169Y0200697D01*
X0162197Y0200738D01*
X0162227Y0200776D01*
X0162261Y0200812D01*
X0162297Y0200845D01*
X0162336Y0200874D01*
X0162377Y0200901D01*
X0162421Y0200925D01*
X0162465Y0200944D01*
X0162512Y0200961D01*
X0162559Y0200973D01*
X0162607Y0200982D01*
X0162656Y0200987D01*
X0162705Y0200988D01*
X0162754Y0200985D01*
X0162803Y0200978D01*
X0162851Y0200968D01*
X0162898Y0200953D01*
X0162943Y0200935D01*
X0162987Y0200913D01*
X0163029Y0200888D01*
X0163069Y0200860D01*
X0163107Y0200828D01*
X0163142Y0200794D01*
X0163174Y0200757D01*
X0163203Y0200718D01*
X0163229Y0200676D01*
X0163252Y0200632D01*
X0163271Y0200587D01*
X0163286Y0200541D01*
X0163298Y0200493D01*
X0163306Y0200444D01*
X0163310Y0200396D01*
X0163310Y0200346D01*
X0163306Y0200298D01*
X0163298Y0200249D01*
X0163286Y0200201D01*
X0163271Y0200155D01*
X0163252Y0200110D01*
X0163229Y0200066D01*
X0163203Y0200024D01*
X0163174Y0199985D01*
X0163142Y0199948D01*
X0163107Y0199914D01*
X0163069Y0199882D01*
X0163029Y0199854D01*
X0162987Y0199829D01*
X0162943Y0199807D01*
X0162898Y0199789D01*
X0162851Y0199774D01*
X0162803Y0199764D01*
X0162754Y0199757D01*
X0162705Y0199754D01*
X0162656Y0199755D01*
X0162607Y0199760D01*
X0162559Y0199769D01*
X0162512Y0199781D01*
X0162465Y0199798D01*
X0162421Y0199817D01*
X0162377Y0199841D01*
X0162336Y0199868D01*
X0162297Y0199897D01*
X0162261Y0199930D01*
X0162227Y0199966D01*
X0162197Y0200004D01*
X0162169Y0200045D01*
X0162145Y0200088D01*
X0162124Y0200132D01*
X0162107Y0200178D01*
X0162093Y0200225D01*
X0162084Y0200273D01*
X0162078Y0200322D01*
X0162076Y0200371D01*
X0160096Y0197033D02*
X0157027Y0197033D01*
X0158561Y0195499D02*
X0158561Y0198568D01*
X0158027Y0213033D02*
X0161096Y0213033D01*
X0106945Y0222734D02*
X0104542Y0222734D01*
X0105744Y0222734D02*
X0105744Y0219131D01*
X0103261Y0219131D02*
X0103261Y0222734D01*
X0100859Y0222734D02*
X0103261Y0219131D01*
X0100859Y0219131D02*
X0100859Y0222734D01*
X0099578Y0221533D02*
X0099578Y0219131D01*
X0099578Y0220933D02*
X0097176Y0220933D01*
X0097176Y0221533D02*
X0098377Y0222734D01*
X0099578Y0221533D01*
X0097176Y0221533D02*
X0097176Y0219131D01*
X0094694Y0219131D02*
X0094694Y0222734D01*
X0093493Y0222734D02*
X0095895Y0222734D01*
X0092212Y0220933D02*
X0089810Y0220933D01*
X0088529Y0222134D02*
X0087928Y0222734D01*
X0086727Y0222734D01*
X0086127Y0222134D01*
X0086127Y0219732D01*
X0086727Y0219131D01*
X0087928Y0219131D01*
X0088529Y0219732D01*
X0157027Y0252033D02*
X0160096Y0252033D01*
X0158561Y0253568D02*
X0158561Y0250499D01*
X0162076Y0255371D02*
X0162078Y0255420D01*
X0162084Y0255469D01*
X0162093Y0255517D01*
X0162107Y0255564D01*
X0162124Y0255610D01*
X0162145Y0255654D01*
X0162169Y0255697D01*
X0162197Y0255738D01*
X0162227Y0255776D01*
X0162261Y0255812D01*
X0162297Y0255845D01*
X0162336Y0255874D01*
X0162377Y0255901D01*
X0162421Y0255925D01*
X0162465Y0255944D01*
X0162512Y0255961D01*
X0162559Y0255973D01*
X0162607Y0255982D01*
X0162656Y0255987D01*
X0162705Y0255988D01*
X0162754Y0255985D01*
X0162803Y0255978D01*
X0162851Y0255968D01*
X0162898Y0255953D01*
X0162943Y0255935D01*
X0162987Y0255913D01*
X0163029Y0255888D01*
X0163069Y0255860D01*
X0163107Y0255828D01*
X0163142Y0255794D01*
X0163174Y0255757D01*
X0163203Y0255718D01*
X0163229Y0255676D01*
X0163252Y0255632D01*
X0163271Y0255587D01*
X0163286Y0255541D01*
X0163298Y0255493D01*
X0163306Y0255444D01*
X0163310Y0255396D01*
X0163310Y0255346D01*
X0163306Y0255298D01*
X0163298Y0255249D01*
X0163286Y0255201D01*
X0163271Y0255155D01*
X0163252Y0255110D01*
X0163229Y0255066D01*
X0163203Y0255024D01*
X0163174Y0254985D01*
X0163142Y0254948D01*
X0163107Y0254914D01*
X0163069Y0254882D01*
X0163029Y0254854D01*
X0162987Y0254829D01*
X0162943Y0254807D01*
X0162898Y0254789D01*
X0162851Y0254774D01*
X0162803Y0254764D01*
X0162754Y0254757D01*
X0162705Y0254754D01*
X0162656Y0254755D01*
X0162607Y0254760D01*
X0162559Y0254769D01*
X0162512Y0254781D01*
X0162465Y0254798D01*
X0162421Y0254817D01*
X0162377Y0254841D01*
X0162336Y0254868D01*
X0162297Y0254897D01*
X0162261Y0254930D01*
X0162227Y0254966D01*
X0162197Y0255004D01*
X0162169Y0255045D01*
X0162145Y0255088D01*
X0162124Y0255132D01*
X0162107Y0255178D01*
X0162093Y0255225D01*
X0162084Y0255273D01*
X0162078Y0255322D01*
X0162076Y0255371D01*
X0161096Y0268033D02*
X0158027Y0268033D01*
X0312047Y0304735D02*
X0318740Y0304735D01*
X0318740Y0309066D02*
X0312047Y0309066D01*
X0382576Y0336850D02*
X0382576Y0341454D01*
X0384878Y0341454D01*
X0385645Y0340687D01*
X0385645Y0339152D01*
X0384878Y0338385D01*
X0382576Y0338385D01*
X0384110Y0338385D02*
X0385645Y0336850D01*
X0387180Y0336850D02*
X0390249Y0336850D01*
X0391783Y0337618D02*
X0392551Y0336850D01*
X0394085Y0336850D01*
X0394853Y0337618D01*
X0394853Y0338385D01*
X0394085Y0339152D01*
X0392551Y0339152D01*
X0391783Y0339920D01*
X0391783Y0340687D01*
X0392551Y0341454D01*
X0394085Y0341454D01*
X0394853Y0340687D01*
X0396387Y0341454D02*
X0396387Y0336850D01*
X0399457Y0336850D01*
X0397922Y0339152D02*
X0396387Y0339152D01*
X0396387Y0341454D02*
X0399457Y0341454D01*
X0400991Y0341454D02*
X0404061Y0341454D01*
X0402526Y0341454D02*
X0402526Y0336850D01*
X0390249Y0341454D02*
X0387180Y0341454D01*
X0387180Y0336850D01*
X0387180Y0339152D02*
X0388714Y0339152D01*
X0126957Y0081335D02*
X0126957Y0076731D01*
X0125423Y0076731D02*
X0128492Y0076731D01*
X0125423Y0079801D02*
X0126957Y0081335D01*
X0123888Y0080568D02*
X0120819Y0077499D01*
X0121586Y0076731D01*
X0123121Y0076731D01*
X0123888Y0077499D01*
X0123888Y0080568D01*
X0123121Y0081335D01*
X0121586Y0081335D01*
X0120819Y0080568D01*
X0120819Y0077499D01*
X0119284Y0077499D02*
X0119284Y0080568D01*
X0116215Y0077499D01*
X0116982Y0076731D01*
X0118517Y0076731D01*
X0119284Y0077499D01*
X0119284Y0080568D02*
X0118517Y0081335D01*
X0116982Y0081335D01*
X0116215Y0080568D01*
X0116215Y0077499D01*
X0114680Y0076731D02*
X0111611Y0076731D01*
X0114680Y0079801D01*
X0114680Y0080568D01*
X0113913Y0081335D01*
X0112378Y0081335D01*
X0111611Y0080568D01*
X0110076Y0079033D02*
X0107007Y0079033D01*
X0105472Y0079033D02*
X0103170Y0079033D01*
X0102403Y0079801D01*
X0102403Y0080568D01*
X0103170Y0081335D01*
X0104705Y0081335D01*
X0105472Y0080568D01*
X0105472Y0077499D01*
X0104705Y0076731D01*
X0103170Y0076731D01*
X0102403Y0077499D01*
X0100868Y0076731D02*
X0097799Y0076731D01*
X0096265Y0076731D02*
X0093195Y0076731D01*
X0096265Y0079801D01*
X0096265Y0080568D01*
X0095497Y0081335D01*
X0093963Y0081335D01*
X0093195Y0080568D01*
X0091661Y0080568D02*
X0088591Y0077499D01*
X0088591Y0076731D01*
X0086289Y0076731D02*
X0086289Y0081335D01*
X0083987Y0079033D01*
X0087057Y0079033D01*
X0088591Y0081335D02*
X0091661Y0081335D01*
X0091661Y0080568D01*
X0097799Y0079801D02*
X0099334Y0081335D01*
X0099334Y0076731D01*
X0098567Y0073835D02*
X0099334Y0073068D01*
X0099334Y0071533D01*
X0098567Y0070766D01*
X0096265Y0070766D01*
X0097799Y0070766D02*
X0099334Y0069231D01*
X0100868Y0069999D02*
X0101636Y0069231D01*
X0103170Y0069231D01*
X0103938Y0069999D01*
X0103938Y0073068D01*
X0103170Y0073835D01*
X0101636Y0073835D01*
X0100868Y0073068D01*
X0100868Y0069999D01*
X0098567Y0073835D02*
X0096265Y0073835D01*
X0096265Y0069231D01*
X0094730Y0069999D02*
X0093963Y0069231D01*
X0092428Y0069231D01*
X0091661Y0069999D01*
X0091661Y0073068D01*
X0092428Y0073835D01*
X0093963Y0073835D01*
X0094730Y0073068D01*
X0090126Y0073835D02*
X0088591Y0073835D01*
X0089359Y0073835D02*
X0089359Y0069231D01*
X0090126Y0069231D02*
X0088591Y0069231D01*
X0087057Y0069231D02*
X0087057Y0073835D01*
X0085522Y0072301D01*
X0083987Y0073835D01*
X0083987Y0069231D01*
X0105472Y0068464D02*
X0108542Y0068464D01*
X0110076Y0069999D02*
X0110844Y0069231D01*
X0112378Y0069231D01*
X0113146Y0069999D01*
X0113146Y0070766D01*
X0112378Y0071533D01*
X0110844Y0071533D01*
X0110076Y0072301D01*
X0110076Y0073068D01*
X0110844Y0073835D01*
X0112378Y0073835D01*
X0113146Y0073068D01*
X0114680Y0073835D02*
X0116982Y0073835D01*
X0117750Y0073068D01*
X0117750Y0069999D01*
X0116982Y0069231D01*
X0114680Y0069231D01*
X0114680Y0073835D01*
X0226718Y0074595D02*
X0226718Y0069991D01*
X0229787Y0069991D01*
X0231322Y0070758D02*
X0232089Y0069991D01*
X0233624Y0069991D01*
X0234391Y0070758D01*
X0234391Y0071526D01*
X0233624Y0072293D01*
X0232089Y0072293D01*
X0231322Y0073060D01*
X0231322Y0073828D01*
X0232089Y0074595D01*
X0233624Y0074595D01*
X0234391Y0073828D01*
X0235926Y0074595D02*
X0238228Y0074595D01*
X0238995Y0073828D01*
X0238995Y0072293D01*
X0238228Y0071526D01*
X0235926Y0071526D01*
X0235926Y0069991D02*
X0235926Y0074595D01*
X0240530Y0072293D02*
X0243599Y0072293D01*
X0245134Y0073060D02*
X0246668Y0074595D01*
X0246668Y0069991D01*
X0245134Y0069991D02*
X0248203Y0069991D01*
X0249738Y0069991D02*
X0252807Y0073060D01*
X0252807Y0073828D01*
X0252040Y0074595D01*
X0250505Y0074595D01*
X0249738Y0073828D01*
X0249738Y0069991D02*
X0252807Y0069991D01*
X0229787Y0074595D02*
X0226718Y0074595D01*
X0226718Y0072293D02*
X0228253Y0072293D01*
X0355360Y0072016D02*
X0357662Y0072016D01*
X0358429Y0072784D01*
X0358429Y0074318D01*
X0357662Y0075086D01*
X0355360Y0075086D01*
X0355360Y0070482D01*
X0359964Y0070482D02*
X0359964Y0073551D01*
X0361498Y0075086D01*
X0363033Y0073551D01*
X0363033Y0070482D01*
X0364568Y0070482D02*
X0366870Y0070482D01*
X0367637Y0071249D01*
X0367637Y0074318D01*
X0366870Y0075086D01*
X0364568Y0075086D01*
X0364568Y0070482D01*
X0363033Y0072784D02*
X0359964Y0072784D01*
X0369172Y0073551D02*
X0370706Y0075086D01*
X0370706Y0070482D01*
X0369172Y0070482D02*
X0372241Y0070482D01*
D17*
X0373563Y0211073D03*
X0373563Y0215797D03*
D18*
X0373563Y0213435D03*
D19*
X0394854Y0259531D03*
X0394854Y0269531D03*
D20*
X0316772Y0306901D03*
D21*
X0139827Y0059484D02*
X0086283Y0059484D01*
X0086283Y0116571D01*
X0139827Y0116571D01*
X0139827Y0059484D01*
M02*
