%
M48
M72
T01C0.01969
T02C0.02756
T03C0.03150
T04C0.03200
T05C0.03600
T06C0.03937
T07C0.04000
T08C0.05118
T09C0.05600
T10C0.12598
%
T01
X125104Y65976
X154792Y90462
X169386Y85795
X194827Y69531
X197827Y75531
X198827Y83531
X179532Y108221
X196098Y129966
X209827Y151531
X227532Y178221
X178500Y203334
X162019Y214659
X150778Y216478
X158089Y236886
X155238Y241921
X184827Y221531
X221595Y209702
X254532Y210221
X317049Y208168
X327827Y205531
X350827Y209531
X371049Y210168
X381905Y210336
X402827Y223531
X333853Y228046
X327635Y239749
X316049Y224168
X286035Y244740
X322899Y260240
X341547Y261536
X345840Y266870
X347827Y282531
X337777Y289613
X371850Y301773
X363899Y325240
X370899Y333240
X353322Y342437
X336899Y330240
X329899Y324240
X317020Y342656
X307036Y343375
X294904Y348731
X259245Y335088
X284899Y327240
X293036Y314375
X287468Y309862
X215695Y258850
X188386Y308707
X188656Y314223
X193391Y343072
X166717Y343162
X121794Y342526
X104720Y342341
X113411Y323041
X69120Y272092
X65120Y272092
X61120Y272092
X57120Y272092
X53120Y272092
X49120Y272092
X45120Y272092
X41120Y272092
X37120Y272092
X37120Y268092
X41120Y268092
X45120Y268092
X49120Y268092
X53120Y268092
X57120Y268092
X61120Y268092
X65120Y268092
X69120Y268092
X69120Y264092
X65120Y264092
X61120Y264092
X57120Y264092
X53120Y264092
X49120Y264092
X45120Y264092
X41120Y264092
X37120Y264092
X37120Y237092
X41120Y237092
X45120Y237092
X49120Y237092
X53120Y237092
X57120Y237092
X61120Y237092
X65120Y237092
X69120Y237092
X69120Y233092
X65120Y233092
X61120Y233092
X57120Y233092
X53120Y233092
X49120Y233092
X45120Y233092
X41120Y233092
X37120Y233092
X37120Y229092
X41120Y229092
X45120Y229092
X49120Y229092
X53120Y229092
X57120Y229092
X61120Y229092
X65120Y229092
X69120Y229092
X69120Y199092
X65120Y199092
X61120Y199092
X57120Y199092
X53120Y199092
X49120Y199092
X45120Y199092
X41120Y199092
X37120Y199092
X37120Y195092
X41120Y195092
X45120Y195092
X49120Y195092
X53120Y195092
X57120Y195092
X61120Y195092
X65120Y195092
X69120Y195092
X69120Y191092
X65120Y191092
X61120Y191092
X57120Y191092
X53120Y191092
X49120Y191092
X45120Y191092
X41120Y191092
X37120Y191092
X37120Y164092
X41120Y164092
X45120Y164092
X49120Y164092
X53120Y164092
X57120Y164092
X61120Y164092
X65120Y164092
X69120Y164092
X69120Y160092
X65120Y160092
X61120Y160092
X57120Y160092
X53120Y160092
X49120Y160092
X45120Y160092
X41120Y160092
X37120Y160092
X37120Y156092
X41120Y156092
X45120Y156092
X49120Y156092
X53120Y156092
X57120Y156092
X61120Y156092
X65120Y156092
X69120Y156092
X128019Y111364
X156840Y152509
X161265Y157499
X158014Y163434
X155351Y168884
X276827Y144531
X292798Y147727
X309141Y145415
X310827Y137531
X311395Y129857
X310827Y122531
X309827Y114531
X308827Y106531
X332827Y94531
X306827Y79531
X311827Y74531
X316933Y69895
X320827Y64531
X356327Y117031
X356827Y125531
X350827Y133531
X350827Y140531
X338827Y151531
X356827Y159531
X338827Y176531
X386827Y181531
X391827Y148531
T02
X289717Y282131
X283418Y282131
X277119Y282131
X269048Y287249
X280268Y292368
X286567Y292368
X297788Y287249
T03
X59567Y279777
X53567Y279777
X47567Y279777
X41567Y279777
X42567Y221277
X48567Y221277
X54567Y221277
X60567Y221277
X60567Y206777
X54567Y206777
X48567Y206777
X42567Y206777
X43567Y148277
X49567Y148277
X55567Y148277
X61567Y148277
T04
X229217Y160740
X237091Y160740
X244965Y160740
X252839Y160740
X247827Y233531
X232102Y233538
X232102Y283538
X247827Y283531
T05
X393827Y287531
X393827Y277531
X403827Y277531
X403827Y287531
X403827Y267531
X403827Y257531
X393827Y257531
X393827Y267531
X393827Y247531
X403827Y247531
T06
X148047Y136531
T07
X194542Y183701
X194542Y193701
X194542Y203701
X263827Y184531
X273827Y184531
X282827Y161531
X292827Y161531
X302827Y161531
X312827Y161531
X322827Y161531
X332827Y161531
X359827Y169531
X369827Y169531
X379827Y169531
X389827Y169531
X399827Y169531
X409827Y169531
X378744Y137994
X378744Y127994
X370827Y65531
X249823Y128936
X239823Y128936
X229787Y128971
X219787Y128971
X285524Y217646
X295524Y217646
X194234Y257792
X194234Y267792
X194234Y277792
X176969Y293003
X166969Y293003
X156969Y293003
T08
X177575Y136531
T09
X120402Y163831
X120402Y177610
X120402Y191390
X120383Y236752
X120383Y250531
X120383Y264311
T10
X69504Y320134
X392316Y320205
X392316Y91741
X69504Y91748
M30
