G75*
%MOIN*%
%OFA0B0*%
%FSLAX25Y25*%
%IPPOS*%
%LPD*%
%AMOC8*
5,1,8,0,0,1.08239X$1,22.5*
%
%ADD10C,0.01100*%
%ADD11C,0.00600*%
%ADD12C,0.01200*%
%ADD13C,0.03000*%
%ADD14C,0.00800*%
%ADD15R,0.58000X0.57000*%
%ADD16C,0.00500*%
%ADD17C,0.00400*%
D10*
X0286071Y0190679D02*
X0286071Y0195600D01*
X0289023Y0195600D01*
X0290008Y0194616D01*
X0290008Y0192648D01*
X0289023Y0191663D01*
X0286071Y0191663D01*
X0286071Y0190679D02*
X0287055Y0189695D01*
X0288039Y0189695D01*
X0292426Y0195600D02*
X0293410Y0195600D01*
X0295379Y0193632D01*
X0295379Y0195600D02*
X0295379Y0191663D01*
X0297888Y0192648D02*
X0297888Y0194616D01*
X0298872Y0195600D01*
X0300840Y0195600D01*
X0301824Y0194616D01*
X0301824Y0192648D01*
X0300840Y0191663D01*
X0298872Y0191663D01*
X0297888Y0192648D01*
X0304063Y0192648D02*
X0304063Y0191663D01*
X0305047Y0191663D01*
X0305047Y0192648D01*
X0304063Y0192648D01*
X0307466Y0195600D02*
X0308450Y0195600D01*
X0310418Y0193632D01*
X0310418Y0195600D02*
X0310418Y0191663D01*
X0312927Y0192648D02*
X0312927Y0194616D01*
X0313911Y0195600D01*
X0315880Y0195600D01*
X0316864Y0194616D01*
X0316864Y0192648D01*
X0315880Y0191663D01*
X0313911Y0191663D01*
X0312927Y0192648D01*
X0319192Y0191663D02*
X0320177Y0192648D01*
X0320177Y0196584D01*
X0321161Y0195600D02*
X0319192Y0195600D01*
X0324474Y0195600D02*
X0324474Y0191663D01*
X0325458Y0191663D02*
X0323489Y0191663D01*
X0324474Y0195600D02*
X0325458Y0195600D01*
X0324474Y0197568D02*
X0324474Y0198553D01*
X0327967Y0194616D02*
X0327967Y0191663D01*
X0327967Y0194616D02*
X0328951Y0195600D01*
X0331903Y0195600D01*
X0331903Y0191663D01*
X0334412Y0192648D02*
X0334412Y0194616D01*
X0335396Y0195600D01*
X0337365Y0195600D01*
X0338349Y0194616D01*
X0338349Y0192648D01*
X0337365Y0191663D01*
X0335396Y0191663D01*
X0334412Y0192648D01*
X0340858Y0191663D02*
X0340858Y0197568D01*
X0342826Y0195600D01*
X0344794Y0197568D01*
X0344794Y0191663D01*
X0347303Y0191663D02*
X0350256Y0191663D01*
X0351240Y0192648D01*
X0351240Y0195600D01*
X0353749Y0195600D02*
X0353749Y0190679D01*
X0354733Y0189695D01*
X0355717Y0189695D01*
X0356701Y0191663D02*
X0353749Y0191663D01*
X0356701Y0191663D02*
X0357685Y0192648D01*
X0357685Y0194616D01*
X0356701Y0195600D01*
X0353749Y0195600D01*
X0360104Y0195600D02*
X0361088Y0195600D01*
X0363056Y0193632D01*
X0363056Y0195600D02*
X0363056Y0191663D01*
X0365565Y0193632D02*
X0369502Y0193632D01*
X0369502Y0194616D02*
X0368518Y0195600D01*
X0366549Y0195600D01*
X0365565Y0194616D01*
X0365565Y0193632D01*
X0366549Y0191663D02*
X0368518Y0191663D01*
X0369502Y0192648D01*
X0369502Y0194616D01*
X0372011Y0194616D02*
X0372011Y0191663D01*
X0372011Y0194616D02*
X0372995Y0195600D01*
X0375947Y0195600D01*
X0375947Y0191663D01*
X0378456Y0191663D02*
X0382393Y0191663D01*
X0382393Y0197568D01*
X0378456Y0197568D01*
X0380425Y0194616D02*
X0382393Y0194616D01*
X0384902Y0194616D02*
X0384902Y0191663D01*
X0384902Y0194616D02*
X0385886Y0195600D01*
X0388838Y0195600D01*
X0388838Y0191663D01*
X0391347Y0193632D02*
X0395284Y0193632D01*
X0395284Y0194616D02*
X0394300Y0195600D01*
X0392331Y0195600D01*
X0391347Y0194616D01*
X0391347Y0193632D01*
X0392331Y0191663D02*
X0394300Y0191663D01*
X0395284Y0192648D01*
X0395284Y0194616D01*
X0397793Y0194616D02*
X0397793Y0192648D01*
X0398777Y0191663D01*
X0401729Y0191663D01*
X0401729Y0189695D02*
X0401729Y0195600D01*
X0398777Y0195600D01*
X0397793Y0194616D01*
X0404238Y0196584D02*
X0405222Y0197568D01*
X0407191Y0197568D01*
X0408175Y0196584D01*
X0408175Y0192648D01*
X0407191Y0191663D01*
X0405222Y0191663D01*
X0404238Y0192648D01*
X0404238Y0196584D01*
X0349271Y0189695D02*
X0348287Y0189695D01*
X0347303Y0190679D01*
X0347303Y0195600D01*
X0349441Y0315857D02*
X0349441Y0319794D01*
X0349441Y0317826D02*
X0347472Y0319794D01*
X0346488Y0319794D01*
X0344069Y0318810D02*
X0343085Y0319794D01*
X0341117Y0319794D01*
X0340133Y0318810D01*
X0340133Y0317826D01*
X0344069Y0317826D01*
X0344069Y0318810D02*
X0344069Y0316841D01*
X0343085Y0315857D01*
X0341117Y0315857D01*
X0337624Y0315857D02*
X0335656Y0315857D01*
X0336640Y0315857D02*
X0336640Y0321762D01*
X0337624Y0321762D01*
X0333327Y0318810D02*
X0332343Y0319794D01*
X0330374Y0319794D01*
X0329390Y0318810D01*
X0329390Y0317826D01*
X0333327Y0317826D01*
X0333327Y0318810D02*
X0333327Y0316841D01*
X0332343Y0315857D01*
X0330374Y0315857D01*
X0326881Y0315857D02*
X0323929Y0315857D01*
X0322945Y0316841D01*
X0323929Y0317826D01*
X0325897Y0317826D01*
X0326881Y0318810D01*
X0325897Y0319794D01*
X0322945Y0319794D01*
X0320436Y0318810D02*
X0319452Y0319794D01*
X0316499Y0319794D01*
X0317483Y0317826D02*
X0319452Y0317826D01*
X0320436Y0318810D01*
X0320436Y0315857D02*
X0317483Y0315857D01*
X0316499Y0316841D01*
X0317483Y0317826D01*
X0307545Y0317826D02*
X0303608Y0317826D01*
X0303608Y0318810D01*
X0304592Y0319794D01*
X0306561Y0319794D01*
X0307545Y0318810D01*
X0307545Y0316841D01*
X0306561Y0315857D01*
X0304592Y0315857D01*
X0301099Y0315857D02*
X0301099Y0319794D01*
X0298147Y0319794D01*
X0297163Y0318810D01*
X0297163Y0315857D01*
X0294654Y0316841D02*
X0294654Y0318810D01*
X0293670Y0319794D01*
X0291701Y0319794D01*
X0290717Y0318810D01*
X0290717Y0317826D01*
X0294654Y0317826D01*
X0294654Y0316841D02*
X0293670Y0315857D01*
X0291701Y0315857D01*
X0288208Y0315857D02*
X0288208Y0319794D01*
X0286240Y0319794D02*
X0285256Y0319794D01*
X0286240Y0319794D02*
X0288208Y0317826D01*
X0282837Y0318810D02*
X0282837Y0316841D01*
X0281853Y0315857D01*
X0278900Y0315857D01*
X0278900Y0314873D02*
X0278900Y0319794D01*
X0281853Y0319794D01*
X0282837Y0318810D01*
X0280869Y0313889D02*
X0279885Y0313889D01*
X0278900Y0314873D01*
X0276392Y0316841D02*
X0275407Y0315857D01*
X0272455Y0315857D01*
X0272455Y0314873D02*
X0273439Y0313889D01*
X0274423Y0313889D01*
X0272455Y0314873D02*
X0272455Y0319794D01*
X0276392Y0319794D02*
X0276392Y0316841D01*
X0263501Y0315857D02*
X0263501Y0319794D01*
X0262516Y0319794D01*
X0261532Y0318810D01*
X0260548Y0319794D01*
X0259564Y0318810D01*
X0259564Y0315857D01*
X0261532Y0315857D02*
X0261532Y0318810D01*
X0257055Y0318810D02*
X0257055Y0316841D01*
X0256071Y0315857D01*
X0254103Y0315857D01*
X0253118Y0316841D01*
X0253118Y0318810D01*
X0254103Y0319794D01*
X0256071Y0319794D01*
X0257055Y0318810D01*
X0250610Y0319794D02*
X0250610Y0315857D01*
X0250610Y0319794D02*
X0247657Y0319794D01*
X0246673Y0318810D01*
X0246673Y0315857D01*
X0244164Y0315857D02*
X0242196Y0315857D01*
X0243180Y0315857D02*
X0243180Y0319794D01*
X0244164Y0319794D01*
X0243180Y0321762D02*
X0243180Y0322746D01*
X0239867Y0319794D02*
X0237899Y0319794D01*
X0238883Y0320778D02*
X0238883Y0316841D01*
X0237899Y0315857D01*
X0235570Y0316841D02*
X0234586Y0315857D01*
X0232618Y0315857D01*
X0231633Y0316841D01*
X0231633Y0318810D01*
X0232618Y0319794D01*
X0234586Y0319794D01*
X0235570Y0318810D01*
X0235570Y0316841D01*
X0229125Y0315857D02*
X0229125Y0319794D01*
X0229125Y0317826D02*
X0227156Y0319794D01*
X0226172Y0319794D01*
X0223753Y0319794D02*
X0222769Y0319794D01*
X0222769Y0315857D01*
X0223753Y0315857D02*
X0221785Y0315857D01*
X0219456Y0315857D02*
X0219456Y0319794D01*
X0216504Y0319794D01*
X0215520Y0318810D01*
X0215520Y0315857D01*
X0213011Y0316841D02*
X0212027Y0315857D01*
X0209074Y0315857D01*
X0209074Y0314873D02*
X0209074Y0319794D01*
X0212027Y0319794D01*
X0213011Y0318810D01*
X0213011Y0316841D01*
X0211043Y0313889D02*
X0210058Y0313889D01*
X0209074Y0314873D01*
X0200120Y0315857D02*
X0200120Y0319794D01*
X0197167Y0319794D01*
X0196183Y0318810D01*
X0196183Y0315857D01*
X0193674Y0316841D02*
X0192690Y0315857D01*
X0190722Y0315857D01*
X0189738Y0316841D01*
X0189738Y0318810D01*
X0190722Y0319794D01*
X0192690Y0319794D01*
X0193674Y0318810D01*
X0193674Y0316841D01*
X0187229Y0316841D02*
X0186245Y0315857D01*
X0183292Y0315857D01*
X0183292Y0321762D01*
X0183292Y0319794D02*
X0186245Y0319794D01*
X0187229Y0318810D01*
X0187229Y0316841D01*
X0180783Y0316841D02*
X0179799Y0315857D01*
X0177831Y0315857D01*
X0176847Y0317826D02*
X0180783Y0317826D01*
X0180783Y0318810D02*
X0179799Y0319794D01*
X0177831Y0319794D01*
X0176847Y0318810D01*
X0176847Y0317826D01*
X0180783Y0316841D02*
X0180783Y0318810D01*
X0222769Y0321762D02*
X0222769Y0322746D01*
X0351769Y0315857D02*
X0353738Y0315857D01*
X0352753Y0315857D02*
X0352753Y0319794D01*
X0353738Y0319794D01*
X0352753Y0321762D02*
X0352753Y0322746D01*
X0356246Y0319794D02*
X0356246Y0316841D01*
X0357231Y0315857D01*
X0358215Y0316841D01*
X0359199Y0315857D01*
X0360183Y0316841D01*
X0360183Y0319794D01*
D11*
X0132840Y0062928D02*
X0132273Y0062361D01*
X0132840Y0061794D01*
X0134541Y0061794D01*
X0133974Y0062928D02*
X0134541Y0063496D01*
X0133974Y0064063D01*
X0132273Y0064063D01*
X0132840Y0062928D02*
X0133974Y0062928D01*
X0135863Y0061794D02*
X0136430Y0062361D01*
X0136430Y0064630D01*
X0136997Y0064063D02*
X0135863Y0064063D01*
X0138411Y0063496D02*
X0138979Y0064063D01*
X0140680Y0064063D01*
X0140680Y0061794D01*
X0142095Y0062928D02*
X0144363Y0062928D01*
X0144363Y0062361D02*
X0144363Y0063496D01*
X0143796Y0064063D01*
X0142662Y0064063D01*
X0142095Y0063496D01*
X0142095Y0062928D01*
X0142662Y0061794D02*
X0143796Y0061794D01*
X0144363Y0062361D01*
X0145778Y0061794D02*
X0145778Y0063496D01*
X0146345Y0064063D01*
X0148046Y0064063D01*
X0148046Y0061794D01*
X0149461Y0062361D02*
X0149461Y0063496D01*
X0150028Y0064063D01*
X0151162Y0064063D01*
X0151729Y0063496D01*
X0151729Y0062361D01*
X0151162Y0061794D01*
X0150028Y0061794D01*
X0149461Y0062361D01*
X0153144Y0062361D02*
X0153711Y0061794D01*
X0155413Y0061794D01*
X0155413Y0060660D02*
X0155413Y0064063D01*
X0153711Y0064063D01*
X0153144Y0063496D01*
X0153144Y0062361D01*
X0156827Y0061794D02*
X0156827Y0063496D01*
X0157394Y0064063D01*
X0157961Y0063496D01*
X0157961Y0061794D01*
X0159096Y0061794D02*
X0159096Y0064063D01*
X0158529Y0064063D01*
X0157961Y0063496D01*
X0160510Y0063496D02*
X0161077Y0064063D01*
X0162212Y0064063D01*
X0162779Y0063496D01*
X0162779Y0062361D01*
X0162212Y0061794D01*
X0161077Y0061794D01*
X0160510Y0062361D01*
X0160510Y0063496D01*
X0164193Y0064063D02*
X0165895Y0064063D01*
X0166462Y0063496D01*
X0166462Y0062361D01*
X0165895Y0061794D01*
X0164193Y0061794D01*
X0171560Y0062361D02*
X0172127Y0061794D01*
X0173261Y0061794D01*
X0173828Y0062361D01*
X0173261Y0063496D02*
X0172127Y0063496D01*
X0171560Y0062928D01*
X0171560Y0062361D01*
X0173261Y0063496D02*
X0173828Y0064063D01*
X0173828Y0064630D01*
X0173261Y0065197D01*
X0172127Y0065197D01*
X0171560Y0064630D01*
X0175243Y0065197D02*
X0175243Y0061794D01*
X0175243Y0063496D02*
X0177511Y0063496D01*
X0178926Y0063496D02*
X0179493Y0064063D01*
X0180627Y0064063D01*
X0181195Y0063496D01*
X0181195Y0062361D01*
X0180627Y0061794D01*
X0179493Y0061794D01*
X0178926Y0062361D01*
X0178926Y0063496D01*
X0177511Y0065197D02*
X0177511Y0061794D01*
X0182609Y0061794D02*
X0183743Y0062928D01*
X0183176Y0062928D02*
X0184878Y0062928D01*
X0184878Y0061794D02*
X0184878Y0065197D01*
X0183176Y0065197D01*
X0182609Y0064630D01*
X0182609Y0063496D01*
X0183176Y0062928D01*
X0189975Y0063496D02*
X0192244Y0063496D01*
X0197342Y0064063D02*
X0197909Y0063496D01*
X0199610Y0063496D01*
X0199610Y0065197D02*
X0199610Y0061794D01*
X0197909Y0061794D01*
X0197342Y0062361D01*
X0197342Y0062928D01*
X0197909Y0063496D01*
X0197342Y0064063D02*
X0197342Y0064630D01*
X0197909Y0065197D01*
X0199610Y0065197D01*
X0201025Y0064630D02*
X0201592Y0065197D01*
X0202726Y0065197D01*
X0203293Y0064630D01*
X0203293Y0062361D01*
X0202726Y0061794D01*
X0201592Y0061794D01*
X0201025Y0062361D01*
X0204708Y0063496D02*
X0205275Y0062928D01*
X0206977Y0062928D01*
X0206977Y0061794D02*
X0206977Y0065197D01*
X0205275Y0065197D01*
X0204708Y0064630D01*
X0204708Y0063496D01*
X0212074Y0063496D02*
X0212074Y0062928D01*
X0214343Y0062928D01*
X0214343Y0062361D02*
X0214343Y0063496D01*
X0213776Y0064063D01*
X0212641Y0064063D01*
X0212074Y0063496D01*
X0212641Y0061794D02*
X0213776Y0061794D01*
X0214343Y0062361D01*
X0215757Y0062928D02*
X0218026Y0062928D01*
X0218026Y0062361D02*
X0218026Y0063496D01*
X0217459Y0064063D01*
X0216325Y0064063D01*
X0215757Y0063496D01*
X0215757Y0062928D01*
X0216325Y0061794D02*
X0217459Y0061794D01*
X0218026Y0062361D01*
X0219394Y0064063D02*
X0219961Y0064063D01*
X0221095Y0062928D01*
X0221095Y0061794D02*
X0221095Y0064063D01*
X0222416Y0063496D02*
X0223551Y0063496D01*
X0222984Y0064630D02*
X0222984Y0061794D01*
X0222984Y0064630D02*
X0222416Y0065197D01*
X0228648Y0065197D02*
X0228648Y0061794D01*
X0230350Y0061794D01*
X0230917Y0062361D01*
X0230917Y0063496D01*
X0230350Y0064063D01*
X0228648Y0064063D01*
X0232332Y0063496D02*
X0232899Y0064063D01*
X0234033Y0064063D01*
X0234033Y0062928D02*
X0232332Y0062928D01*
X0232332Y0063496D02*
X0232332Y0061794D01*
X0234033Y0061794D01*
X0234600Y0062361D01*
X0234033Y0062928D01*
X0236015Y0062928D02*
X0238283Y0062928D01*
X0238283Y0062361D02*
X0238283Y0063496D01*
X0237716Y0064063D01*
X0236582Y0064063D01*
X0236015Y0063496D01*
X0236015Y0062928D01*
X0236582Y0061794D02*
X0237716Y0061794D01*
X0238283Y0062361D01*
X0239698Y0061794D02*
X0241966Y0061794D01*
X0241966Y0065197D01*
X0180212Y0098071D02*
X0180212Y0102341D01*
X0179144Y0103409D01*
X0177009Y0103409D01*
X0175941Y0102341D01*
X0173766Y0103409D02*
X0170563Y0103409D01*
X0169496Y0102341D01*
X0169496Y0100206D01*
X0170563Y0099138D01*
X0173766Y0099138D01*
X0173766Y0097003D02*
X0173766Y0103409D01*
X0171631Y0099138D02*
X0169496Y0097003D01*
X0167321Y0097003D02*
X0163050Y0097003D01*
X0165185Y0097003D02*
X0165185Y0103409D01*
X0167321Y0101273D01*
X0160875Y0102341D02*
X0159808Y0103409D01*
X0157672Y0103409D01*
X0156605Y0102341D01*
X0156605Y0101273D01*
X0160875Y0097003D01*
X0156605Y0097003D01*
X0154430Y0097003D02*
X0150159Y0101273D01*
X0150159Y0102341D01*
X0151227Y0103409D01*
X0153362Y0103409D01*
X0154430Y0102341D01*
X0154430Y0097003D02*
X0150159Y0097003D01*
X0147984Y0098071D02*
X0143714Y0102341D01*
X0143714Y0098071D01*
X0144781Y0097003D01*
X0146917Y0097003D01*
X0147984Y0098071D01*
X0147984Y0102341D01*
X0146917Y0103409D01*
X0144781Y0103409D01*
X0143714Y0102341D01*
X0117496Y0098050D02*
X0117496Y0095450D01*
X0114496Y0094950D01*
X0113496Y0092250D02*
X0115096Y0089850D01*
X0113296Y0087950D01*
X0110896Y0089650D01*
X0109896Y0089050D01*
X0107896Y0093550D01*
X0104696Y0093550D02*
X0102796Y0089050D01*
X0101796Y0089650D01*
X0099396Y0087950D01*
X0097496Y0089850D01*
X0099196Y0092250D01*
X0098196Y0094950D02*
X0095196Y0095450D01*
X0095196Y0098050D01*
X0098196Y0098650D01*
X0099296Y0101150D02*
X0097496Y0103750D01*
X0099396Y0105550D01*
X0101996Y0103750D01*
X0104496Y0104750D02*
X0104996Y0107950D01*
X0107696Y0107950D01*
X0108196Y0104750D01*
X0110696Y0103750D02*
X0113296Y0105550D01*
X0115196Y0103750D01*
X0113396Y0101150D01*
X0114496Y0098650D02*
X0117496Y0098050D01*
X0110662Y0103787D02*
X0110490Y0103887D01*
X0110315Y0103984D01*
X0110139Y0104076D01*
X0109960Y0104164D01*
X0109779Y0104248D01*
X0109596Y0104327D01*
X0109412Y0104402D01*
X0109225Y0104473D01*
X0109037Y0104539D01*
X0108848Y0104600D01*
X0108657Y0104657D01*
X0108464Y0104710D01*
X0108271Y0104757D01*
X0107896Y0093650D02*
X0108003Y0093705D01*
X0108109Y0093762D01*
X0108212Y0093824D01*
X0108314Y0093888D01*
X0108413Y0093956D01*
X0108510Y0094027D01*
X0108605Y0094101D01*
X0108697Y0094178D01*
X0108787Y0094259D01*
X0108874Y0094342D01*
X0108958Y0094428D01*
X0109039Y0094516D01*
X0109117Y0094608D01*
X0109193Y0094702D01*
X0109265Y0094798D01*
X0109334Y0094896D01*
X0109400Y0094997D01*
X0109462Y0095100D01*
X0109521Y0095205D01*
X0109577Y0095311D01*
X0109629Y0095420D01*
X0109677Y0095530D01*
X0109722Y0095642D01*
X0109763Y0095755D01*
X0109800Y0095869D01*
X0109834Y0095985D01*
X0109863Y0096101D01*
X0109889Y0096219D01*
X0109911Y0096337D01*
X0109930Y0096456D01*
X0109944Y0096575D01*
X0109954Y0096695D01*
X0109961Y0096815D01*
X0109963Y0096936D01*
X0109961Y0097056D01*
X0109956Y0097176D01*
X0109947Y0097296D01*
X0109933Y0097416D01*
X0109916Y0097535D01*
X0109895Y0097653D01*
X0109870Y0097771D01*
X0109841Y0097888D01*
X0109808Y0098003D01*
X0109772Y0098118D01*
X0109732Y0098231D01*
X0109688Y0098343D01*
X0109640Y0098454D01*
X0109589Y0098563D01*
X0109535Y0098670D01*
X0109476Y0098775D01*
X0109415Y0098879D01*
X0109350Y0098980D01*
X0109282Y0099079D01*
X0109210Y0099176D01*
X0109136Y0099270D01*
X0109058Y0099362D01*
X0108978Y0099451D01*
X0108894Y0099538D01*
X0108808Y0099622D01*
X0108719Y0099703D01*
X0108627Y0099781D01*
X0108533Y0099856D01*
X0108437Y0099927D01*
X0108338Y0099996D01*
X0108237Y0100061D01*
X0108134Y0100123D01*
X0108029Y0100182D01*
X0107922Y0100237D01*
X0107813Y0100289D01*
X0107703Y0100336D01*
X0107591Y0100381D01*
X0107478Y0100421D01*
X0107363Y0100458D01*
X0107247Y0100491D01*
X0107131Y0100521D01*
X0107013Y0100546D01*
X0106895Y0100568D01*
X0106776Y0100585D01*
X0106656Y0100599D01*
X0106536Y0100609D01*
X0106416Y0100615D01*
X0106296Y0100617D01*
X0106176Y0100615D01*
X0106056Y0100609D01*
X0105936Y0100599D01*
X0105816Y0100585D01*
X0105697Y0100568D01*
X0105579Y0100546D01*
X0105461Y0100521D01*
X0105345Y0100491D01*
X0105229Y0100458D01*
X0105114Y0100421D01*
X0105001Y0100381D01*
X0104889Y0100336D01*
X0104779Y0100289D01*
X0104670Y0100237D01*
X0104563Y0100182D01*
X0104458Y0100123D01*
X0104355Y0100061D01*
X0104254Y0099996D01*
X0104155Y0099927D01*
X0104059Y0099856D01*
X0103965Y0099781D01*
X0103873Y0099703D01*
X0103784Y0099622D01*
X0103698Y0099538D01*
X0103614Y0099451D01*
X0103534Y0099362D01*
X0103456Y0099270D01*
X0103382Y0099176D01*
X0103310Y0099079D01*
X0103242Y0098980D01*
X0103177Y0098879D01*
X0103116Y0098775D01*
X0103057Y0098670D01*
X0103003Y0098563D01*
X0102952Y0098454D01*
X0102904Y0098343D01*
X0102860Y0098231D01*
X0102820Y0098118D01*
X0102784Y0098003D01*
X0102751Y0097888D01*
X0102722Y0097771D01*
X0102697Y0097653D01*
X0102676Y0097535D01*
X0102659Y0097416D01*
X0102645Y0097296D01*
X0102636Y0097176D01*
X0102631Y0097056D01*
X0102629Y0096936D01*
X0102631Y0096815D01*
X0102638Y0096695D01*
X0102648Y0096575D01*
X0102662Y0096456D01*
X0102681Y0096337D01*
X0102703Y0096219D01*
X0102729Y0096101D01*
X0102758Y0095985D01*
X0102792Y0095869D01*
X0102829Y0095755D01*
X0102870Y0095642D01*
X0102915Y0095530D01*
X0102963Y0095420D01*
X0103015Y0095311D01*
X0103071Y0095205D01*
X0103130Y0095100D01*
X0103192Y0094997D01*
X0103258Y0094896D01*
X0103327Y0094798D01*
X0103399Y0094702D01*
X0103475Y0094608D01*
X0103553Y0094516D01*
X0103634Y0094428D01*
X0103718Y0094342D01*
X0103805Y0094259D01*
X0103895Y0094178D01*
X0103987Y0094101D01*
X0104082Y0094027D01*
X0104179Y0093956D01*
X0104278Y0093888D01*
X0104380Y0093824D01*
X0104483Y0093762D01*
X0104589Y0093705D01*
X0104696Y0093650D01*
X0099196Y0092245D02*
X0099100Y0092411D01*
X0099007Y0092578D01*
X0098919Y0092748D01*
X0098835Y0092920D01*
X0098755Y0093093D01*
X0098679Y0093269D01*
X0098607Y0093446D01*
X0098540Y0093625D01*
X0098476Y0093806D01*
X0098417Y0093988D01*
X0098363Y0094171D01*
X0098312Y0094356D01*
X0098266Y0094541D01*
X0098225Y0094728D01*
X0098188Y0094916D01*
X0098207Y0098651D02*
X0098257Y0098839D01*
X0098312Y0099026D01*
X0098371Y0099212D01*
X0098435Y0099396D01*
X0098503Y0099579D01*
X0098576Y0099760D01*
X0098653Y0099939D01*
X0098734Y0100116D01*
X0098820Y0100292D01*
X0098909Y0100465D01*
X0099003Y0100636D01*
X0099101Y0100804D01*
X0099203Y0100971D01*
X0099308Y0101134D01*
X0101959Y0103767D02*
X0102124Y0103865D01*
X0102292Y0103959D01*
X0102462Y0104049D01*
X0102634Y0104136D01*
X0102807Y0104218D01*
X0102983Y0104297D01*
X0103160Y0104371D01*
X0103339Y0104441D01*
X0103520Y0104507D01*
X0103702Y0104569D01*
X0103885Y0104627D01*
X0104070Y0104681D01*
X0104256Y0104730D01*
X0104443Y0104775D01*
X0113388Y0101097D02*
X0113488Y0100935D01*
X0113585Y0100770D01*
X0113678Y0100603D01*
X0113766Y0100434D01*
X0113851Y0100264D01*
X0113932Y0100091D01*
X0114009Y0099916D01*
X0114082Y0099740D01*
X0114151Y0099562D01*
X0114216Y0099382D01*
X0114277Y0099202D01*
X0114333Y0099019D01*
X0114386Y0098836D01*
X0114434Y0098651D01*
X0114490Y0094935D02*
X0114447Y0094735D01*
X0114400Y0094537D01*
X0114348Y0094340D01*
X0114290Y0094144D01*
X0114229Y0093949D01*
X0114162Y0093756D01*
X0114091Y0093565D01*
X0114015Y0093375D01*
X0113934Y0093188D01*
X0113849Y0093002D01*
X0113759Y0092819D01*
X0113665Y0092638D01*
X0113566Y0092459D01*
X0113463Y0092283D01*
X0110311Y0082978D02*
X0110311Y0079575D01*
X0110311Y0081277D02*
X0108042Y0081277D01*
X0108042Y0082978D02*
X0108042Y0079575D01*
X0106628Y0080143D02*
X0106061Y0079575D01*
X0104359Y0079575D01*
X0104359Y0081277D01*
X0104926Y0081844D01*
X0106061Y0081844D01*
X0106061Y0080710D02*
X0104359Y0080710D01*
X0102945Y0080710D02*
X0101810Y0081844D01*
X0101243Y0081844D01*
X0099875Y0081277D02*
X0099308Y0081844D01*
X0097607Y0081844D01*
X0097607Y0082978D02*
X0097607Y0079575D01*
X0099308Y0079575D01*
X0099875Y0080143D01*
X0099875Y0081277D01*
X0102945Y0081844D02*
X0102945Y0079575D01*
X0106061Y0080710D02*
X0106628Y0080143D01*
X0111726Y0081277D02*
X0113994Y0081277D01*
X0115409Y0081277D02*
X0115409Y0079575D01*
X0115409Y0081277D02*
X0115976Y0081844D01*
X0117677Y0081844D01*
X0117677Y0079575D01*
X0119092Y0080710D02*
X0121360Y0080710D01*
X0121360Y0081277D02*
X0120793Y0081844D01*
X0119659Y0081844D01*
X0119092Y0081277D01*
X0119092Y0080710D01*
X0119659Y0079575D02*
X0120793Y0079575D01*
X0121360Y0080143D01*
X0121360Y0081277D01*
X0122775Y0081277D02*
X0122775Y0080143D01*
X0123342Y0079575D01*
X0125044Y0079575D01*
X0125044Y0078441D02*
X0125044Y0081844D01*
X0123342Y0081844D01*
X0122775Y0081277D01*
X0126458Y0082411D02*
X0127025Y0082978D01*
X0128160Y0082978D01*
X0128727Y0082411D01*
X0128727Y0080143D01*
X0128160Y0079575D01*
X0127025Y0079575D01*
X0126458Y0080143D01*
X0126458Y0082411D01*
X0096192Y0081844D02*
X0096192Y0080143D01*
X0095625Y0079575D01*
X0095058Y0080143D01*
X0094491Y0079575D01*
X0093924Y0080143D01*
X0093924Y0081844D01*
X0091942Y0081844D02*
X0090808Y0081844D01*
X0090241Y0081277D01*
X0090241Y0079575D01*
X0091942Y0079575D01*
X0092509Y0080143D01*
X0091942Y0080710D01*
X0090241Y0080710D01*
X0088826Y0080710D02*
X0087692Y0081844D01*
X0087125Y0081844D01*
X0085757Y0081277D02*
X0085190Y0081844D01*
X0084055Y0081844D01*
X0083488Y0081277D01*
X0083488Y0080710D01*
X0085757Y0080710D01*
X0085757Y0080143D02*
X0085757Y0081277D01*
X0085757Y0080143D02*
X0085190Y0079575D01*
X0084055Y0079575D01*
X0088826Y0079575D02*
X0088826Y0081844D01*
X0138411Y0063496D02*
X0138411Y0061794D01*
X0175941Y0098071D02*
X0177009Y0097003D01*
X0179144Y0097003D01*
X0180212Y0098071D01*
X0116344Y0117348D02*
X0116344Y0120750D01*
X0115209Y0119616D01*
X0114075Y0120750D01*
X0114075Y0117348D01*
X0112661Y0117915D02*
X0112093Y0118482D01*
X0110392Y0118482D01*
X0110392Y0119049D02*
X0110392Y0117348D01*
X0112093Y0117348D01*
X0112661Y0117915D01*
X0112093Y0119616D02*
X0110959Y0119616D01*
X0110392Y0119049D01*
X0108977Y0119049D02*
X0108410Y0119616D01*
X0106709Y0119616D01*
X0106709Y0120750D02*
X0106709Y0117348D01*
X0108410Y0117348D01*
X0108977Y0117915D01*
X0108977Y0119049D01*
X0105294Y0119049D02*
X0104727Y0119616D01*
X0103593Y0119616D01*
X0103026Y0119049D01*
X0103026Y0118482D01*
X0105294Y0118482D01*
X0105294Y0117915D02*
X0105294Y0119049D01*
X0105294Y0117915D02*
X0104727Y0117348D01*
X0103593Y0117348D01*
X0097928Y0117348D02*
X0096794Y0117348D01*
X0097361Y0117348D02*
X0097361Y0119616D01*
X0097928Y0119616D01*
X0097361Y0120750D02*
X0097361Y0121318D01*
X0095473Y0119616D02*
X0093771Y0119616D01*
X0093204Y0119049D01*
X0093204Y0117348D01*
X0095473Y0117348D02*
X0095473Y0119616D01*
X0088106Y0120750D02*
X0088106Y0117915D01*
X0087539Y0117348D01*
X0086405Y0117348D01*
X0085838Y0117915D01*
X0085838Y0120750D01*
X0084423Y0120750D02*
X0084423Y0117348D01*
X0084423Y0118482D02*
X0082155Y0120750D01*
X0083856Y0119049D02*
X0082155Y0117348D01*
X0082804Y0126159D02*
X0082237Y0126726D01*
X0082804Y0127293D01*
X0083938Y0127293D01*
X0084505Y0127860D01*
X0083938Y0128428D01*
X0082237Y0128428D01*
X0082804Y0126159D02*
X0084505Y0126159D01*
X0085920Y0127293D02*
X0088188Y0127293D01*
X0088188Y0126726D02*
X0088188Y0127860D01*
X0087621Y0128428D01*
X0086487Y0128428D01*
X0085920Y0127860D01*
X0085920Y0127293D01*
X0086487Y0126159D02*
X0087621Y0126159D01*
X0088188Y0126726D01*
X0089509Y0126159D02*
X0090644Y0126159D01*
X0090077Y0126159D02*
X0090077Y0129562D01*
X0090644Y0129562D01*
X0092058Y0127860D02*
X0092058Y0126159D01*
X0093760Y0126159D01*
X0094327Y0126726D01*
X0093760Y0127293D01*
X0092058Y0127293D01*
X0092058Y0127860D02*
X0092625Y0128428D01*
X0093760Y0128428D01*
X0095741Y0129562D02*
X0095741Y0126159D01*
X0096876Y0127293D01*
X0098010Y0126159D01*
X0098010Y0129562D01*
X0103108Y0127860D02*
X0103108Y0126159D01*
X0103108Y0127860D02*
X0103675Y0128428D01*
X0104809Y0128428D01*
X0105376Y0127860D01*
X0106697Y0128428D02*
X0107832Y0128428D01*
X0107265Y0128995D02*
X0107265Y0126726D01*
X0106697Y0126159D01*
X0105376Y0126159D02*
X0105376Y0129562D01*
X0109200Y0128428D02*
X0109767Y0128428D01*
X0110901Y0127293D01*
X0110901Y0126159D02*
X0110901Y0128428D01*
X0112316Y0127860D02*
X0112883Y0128428D01*
X0114017Y0128428D01*
X0114584Y0127860D01*
X0114584Y0126726D01*
X0114017Y0126159D01*
X0112883Y0126159D01*
X0112316Y0126726D01*
X0112316Y0127860D01*
X0115999Y0126159D02*
X0115999Y0129562D01*
X0118267Y0129562D02*
X0115999Y0126159D01*
X0118267Y0126159D02*
X0118267Y0129562D01*
X0118452Y0135271D02*
X0116751Y0135271D01*
X0116184Y0135838D01*
X0116184Y0138107D01*
X0116751Y0138674D01*
X0118452Y0138674D01*
X0118452Y0135271D01*
X0114769Y0135838D02*
X0114769Y0136973D01*
X0114202Y0137540D01*
X0113068Y0137540D01*
X0112500Y0136973D01*
X0112500Y0136405D01*
X0114769Y0136405D01*
X0114769Y0135838D02*
X0114202Y0135271D01*
X0113068Y0135271D01*
X0111086Y0135271D02*
X0109384Y0135271D01*
X0108817Y0135838D01*
X0109384Y0136405D01*
X0110519Y0136405D01*
X0111086Y0136973D01*
X0110519Y0137540D01*
X0108817Y0137540D01*
X0107403Y0137540D02*
X0106836Y0137540D01*
X0106836Y0135271D01*
X0107403Y0135271D02*
X0106268Y0135271D01*
X0104947Y0135838D02*
X0104947Y0136973D01*
X0104380Y0137540D01*
X0102679Y0137540D01*
X0102679Y0134704D01*
X0103246Y0134137D01*
X0103813Y0134137D01*
X0104380Y0135271D02*
X0102679Y0135271D01*
X0101264Y0135271D02*
X0101264Y0137540D01*
X0099563Y0137540D01*
X0098996Y0136973D01*
X0098996Y0135271D01*
X0097581Y0135838D02*
X0097581Y0136973D01*
X0097014Y0137540D01*
X0095880Y0137540D01*
X0095312Y0136973D01*
X0095312Y0136405D01*
X0097581Y0136405D01*
X0097581Y0135838D02*
X0097014Y0135271D01*
X0095880Y0135271D01*
X0093898Y0135838D02*
X0093898Y0136973D01*
X0093331Y0137540D01*
X0091629Y0137540D01*
X0091629Y0138674D02*
X0091629Y0135271D01*
X0093331Y0135271D01*
X0093898Y0135838D01*
X0086532Y0135271D02*
X0085397Y0135271D01*
X0085964Y0135271D02*
X0085964Y0137540D01*
X0086532Y0137540D01*
X0085964Y0138674D02*
X0085964Y0139241D01*
X0084076Y0137540D02*
X0084076Y0135271D01*
X0081808Y0135271D02*
X0081808Y0136973D01*
X0082375Y0137540D01*
X0084076Y0137540D01*
X0104380Y0135271D02*
X0104947Y0135838D01*
X0106836Y0138674D02*
X0106836Y0139241D01*
D12*
X0116679Y0297593D02*
X0361090Y0297593D01*
X0360892Y0310908D02*
X0117481Y0310908D01*
D13*
X0254652Y0333730D02*
X0257487Y0330895D01*
X0263159Y0330895D01*
X0265995Y0333730D01*
X0265995Y0345073D01*
X0263159Y0347909D01*
X0257487Y0347909D01*
X0254652Y0345073D01*
X0273067Y0345073D02*
X0275903Y0347909D01*
X0284410Y0347909D01*
X0284410Y0330895D01*
X0275903Y0330895D01*
X0273067Y0333730D01*
X0273067Y0345073D01*
X0291483Y0339402D02*
X0291483Y0330895D01*
X0302826Y0330895D02*
X0302826Y0342238D01*
X0294319Y0342238D01*
X0291483Y0339402D01*
X0309899Y0339402D02*
X0309899Y0333730D01*
X0312734Y0330895D01*
X0318406Y0330895D01*
X0321242Y0333730D01*
X0321242Y0339402D01*
X0318406Y0342238D01*
X0312734Y0342238D01*
X0309899Y0339402D01*
X0328314Y0339402D02*
X0328314Y0330895D01*
X0333986Y0330895D02*
X0333986Y0339402D01*
X0331150Y0342238D01*
X0328314Y0339402D01*
X0333986Y0339402D02*
X0336822Y0342238D01*
X0339657Y0342238D01*
X0339657Y0330895D01*
X0349566Y0330895D02*
X0355237Y0330895D01*
X0358073Y0333730D01*
X0358073Y0339402D01*
X0355237Y0342238D01*
X0349566Y0342238D01*
X0346730Y0339402D01*
X0346730Y0336566D01*
X0358073Y0336566D01*
D14*
X0357459Y0307444D02*
X0360595Y0307444D01*
X0359027Y0307444D02*
X0359027Y0302740D01*
X0355530Y0303524D02*
X0355530Y0305092D01*
X0354746Y0305876D01*
X0353178Y0305876D01*
X0352394Y0305092D01*
X0352394Y0304308D01*
X0355530Y0304308D01*
X0355530Y0303524D02*
X0354746Y0302740D01*
X0353178Y0302740D01*
X0350466Y0303524D02*
X0349682Y0302740D01*
X0347330Y0302740D01*
X0345402Y0302740D02*
X0345402Y0307444D01*
X0344618Y0305876D02*
X0343050Y0305876D01*
X0342266Y0305092D01*
X0342266Y0302740D01*
X0340338Y0302740D02*
X0340338Y0305876D01*
X0337986Y0305876D01*
X0337202Y0305092D01*
X0337202Y0302740D01*
X0335273Y0303524D02*
X0334489Y0302740D01*
X0332921Y0302740D01*
X0332137Y0303524D01*
X0332137Y0305092D01*
X0332921Y0305876D01*
X0334489Y0305876D01*
X0335273Y0305092D01*
X0335273Y0303524D01*
X0330209Y0302740D02*
X0328641Y0302740D01*
X0329425Y0302740D02*
X0329425Y0307444D01*
X0330209Y0307444D01*
X0326833Y0305092D02*
X0326833Y0303524D01*
X0326049Y0302740D01*
X0324481Y0302740D01*
X0323697Y0303524D01*
X0323697Y0305092D01*
X0324481Y0305876D01*
X0326049Y0305876D01*
X0326833Y0305092D01*
X0321768Y0305092D02*
X0321768Y0303524D01*
X0320984Y0302740D01*
X0318632Y0302740D01*
X0318632Y0301956D02*
X0318632Y0305876D01*
X0320984Y0305876D01*
X0321768Y0305092D01*
X0320200Y0301172D02*
X0319416Y0301172D01*
X0318632Y0301956D01*
X0316704Y0303524D02*
X0316704Y0305876D01*
X0316704Y0303524D02*
X0315920Y0302740D01*
X0313568Y0302740D01*
X0313568Y0301956D02*
X0314352Y0301172D01*
X0315136Y0301172D01*
X0313568Y0301956D02*
X0313568Y0305876D01*
X0306575Y0305876D02*
X0305007Y0305876D01*
X0305791Y0306660D02*
X0305791Y0303524D01*
X0305007Y0302740D01*
X0303199Y0302740D02*
X0303199Y0307444D01*
X0302415Y0305876D02*
X0300847Y0305876D01*
X0300063Y0305092D01*
X0300063Y0302740D01*
X0298135Y0303524D02*
X0297351Y0304308D01*
X0294999Y0304308D01*
X0294999Y0305092D02*
X0294999Y0302740D01*
X0297351Y0302740D01*
X0298135Y0303524D01*
X0297351Y0305876D02*
X0295783Y0305876D01*
X0294999Y0305092D01*
X0293071Y0305876D02*
X0291503Y0305876D01*
X0292287Y0306660D02*
X0292287Y0303524D01*
X0291503Y0302740D01*
X0284630Y0302740D02*
X0284630Y0307444D01*
X0283846Y0305876D02*
X0282278Y0305876D01*
X0281494Y0305092D01*
X0281494Y0302740D01*
X0279566Y0303524D02*
X0279566Y0305092D01*
X0278782Y0305876D01*
X0277214Y0305876D01*
X0276430Y0305092D01*
X0276430Y0304308D01*
X0279566Y0304308D01*
X0279566Y0303524D02*
X0278782Y0302740D01*
X0277214Y0302740D01*
X0274501Y0302740D02*
X0272933Y0302740D01*
X0273717Y0302740D02*
X0273717Y0307444D01*
X0274501Y0307444D01*
X0271125Y0305876D02*
X0268773Y0305876D01*
X0267989Y0305092D01*
X0267989Y0303524D01*
X0268773Y0302740D01*
X0271125Y0302740D01*
X0271125Y0301172D02*
X0271125Y0305876D01*
X0266061Y0305092D02*
X0265277Y0305876D01*
X0262925Y0305876D01*
X0263709Y0304308D02*
X0265277Y0304308D01*
X0266061Y0305092D01*
X0266061Y0302740D02*
X0263709Y0302740D01*
X0262925Y0303524D01*
X0263709Y0304308D01*
X0255932Y0303524D02*
X0255148Y0302740D01*
X0252796Y0302740D01*
X0252796Y0305876D01*
X0250868Y0305092D02*
X0250084Y0305876D01*
X0247732Y0305876D01*
X0248516Y0304308D02*
X0250084Y0304308D01*
X0250868Y0305092D01*
X0250868Y0302740D02*
X0248516Y0302740D01*
X0247732Y0303524D01*
X0248516Y0304308D01*
X0255932Y0303524D02*
X0255932Y0305876D01*
X0240739Y0307444D02*
X0239955Y0307444D01*
X0239955Y0302740D01*
X0240739Y0302740D02*
X0239171Y0302740D01*
X0237363Y0302740D02*
X0235795Y0302740D01*
X0236579Y0302740D02*
X0236579Y0305876D01*
X0237363Y0305876D01*
X0236579Y0307444D02*
X0236579Y0308228D01*
X0233987Y0305876D02*
X0232419Y0302740D01*
X0230851Y0305876D01*
X0228922Y0305092D02*
X0228138Y0305876D01*
X0226570Y0305876D01*
X0225786Y0305092D01*
X0225786Y0304308D01*
X0228922Y0304308D01*
X0228922Y0303524D02*
X0228922Y0305092D01*
X0228922Y0303524D02*
X0228138Y0302740D01*
X0226570Y0302740D01*
X0218794Y0303524D02*
X0218010Y0302740D01*
X0217226Y0303524D01*
X0216442Y0302740D01*
X0215658Y0303524D01*
X0215658Y0305876D01*
X0213729Y0305876D02*
X0212945Y0305876D01*
X0212945Y0302740D01*
X0213729Y0302740D02*
X0212161Y0302740D01*
X0209569Y0303524D02*
X0209569Y0306660D01*
X0210353Y0305876D02*
X0208785Y0305876D01*
X0206977Y0305092D02*
X0206193Y0305876D01*
X0204625Y0305876D01*
X0203841Y0305092D01*
X0203841Y0302740D01*
X0201913Y0302740D02*
X0200345Y0302740D01*
X0201129Y0302740D02*
X0201129Y0305876D01*
X0201913Y0305876D01*
X0201129Y0307444D02*
X0201129Y0308228D01*
X0198536Y0305876D02*
X0196184Y0305876D01*
X0195400Y0305092D01*
X0195400Y0302740D01*
X0198536Y0302740D02*
X0198536Y0305876D01*
X0206977Y0307444D02*
X0206977Y0302740D01*
X0208785Y0302740D02*
X0209569Y0303524D01*
X0212945Y0307444D02*
X0212945Y0308228D01*
X0218794Y0305876D02*
X0218794Y0303524D01*
X0188408Y0303524D02*
X0188408Y0305092D01*
X0187624Y0305876D01*
X0186056Y0305876D01*
X0185272Y0305092D01*
X0185272Y0304308D01*
X0188408Y0304308D01*
X0188408Y0303524D02*
X0187624Y0302740D01*
X0186056Y0302740D01*
X0183344Y0303524D02*
X0183344Y0305092D01*
X0182560Y0305876D01*
X0180208Y0305876D01*
X0178279Y0305092D02*
X0178279Y0303524D01*
X0177495Y0302740D01*
X0175927Y0302740D01*
X0175143Y0303524D01*
X0175143Y0305092D01*
X0175927Y0305876D01*
X0177495Y0305876D01*
X0178279Y0305092D01*
X0180208Y0302740D02*
X0182560Y0302740D01*
X0183344Y0303524D01*
X0173215Y0302740D02*
X0171647Y0302740D01*
X0172431Y0302740D02*
X0172431Y0307444D01*
X0173215Y0307444D01*
X0169839Y0305092D02*
X0169839Y0303524D01*
X0169055Y0302740D01*
X0167487Y0302740D01*
X0166703Y0303524D01*
X0166703Y0305092D01*
X0167487Y0305876D01*
X0169055Y0305876D01*
X0169839Y0305092D01*
X0164774Y0305092D02*
X0164774Y0303524D01*
X0163990Y0302740D01*
X0161638Y0302740D01*
X0161638Y0301956D02*
X0161638Y0305876D01*
X0163990Y0305876D01*
X0164774Y0305092D01*
X0163206Y0301172D02*
X0162422Y0301172D01*
X0161638Y0301956D01*
X0159710Y0302740D02*
X0158142Y0302740D01*
X0158926Y0302740D02*
X0158926Y0305876D01*
X0159710Y0305876D01*
X0158926Y0307444D02*
X0158926Y0308228D01*
X0156334Y0305092D02*
X0156334Y0303524D01*
X0155550Y0302740D01*
X0153198Y0302740D01*
X0151269Y0303524D02*
X0150485Y0304308D01*
X0148133Y0304308D01*
X0148133Y0305092D02*
X0148133Y0302740D01*
X0150485Y0302740D01*
X0151269Y0303524D01*
X0150485Y0305876D02*
X0148917Y0305876D01*
X0148133Y0305092D01*
X0146205Y0302740D02*
X0144637Y0302740D01*
X0145421Y0302740D02*
X0145421Y0307444D01*
X0146205Y0307444D01*
X0153198Y0305876D02*
X0155550Y0305876D01*
X0156334Y0305092D01*
X0137765Y0302740D02*
X0136197Y0302740D01*
X0136981Y0302740D02*
X0136981Y0307444D01*
X0137765Y0307444D01*
X0134388Y0305876D02*
X0133604Y0305876D01*
X0133604Y0302740D01*
X0134388Y0302740D02*
X0132820Y0302740D01*
X0131012Y0302740D02*
X0131012Y0305876D01*
X0130228Y0305876D01*
X0129444Y0305092D01*
X0128660Y0305876D01*
X0127876Y0305092D01*
X0127876Y0302740D01*
X0129444Y0302740D02*
X0129444Y0305092D01*
X0125948Y0305876D02*
X0125164Y0305876D01*
X0125164Y0302740D01*
X0125948Y0302740D02*
X0124380Y0302740D01*
X0121788Y0303524D02*
X0121004Y0302740D01*
X0121788Y0303524D02*
X0121788Y0306660D01*
X0122572Y0305876D02*
X0121004Y0305876D01*
X0119195Y0305092D02*
X0118411Y0305876D01*
X0116059Y0305876D01*
X0116843Y0304308D02*
X0118411Y0304308D01*
X0119195Y0305092D01*
X0119195Y0302740D02*
X0116843Y0302740D01*
X0116059Y0303524D01*
X0116843Y0304308D01*
X0125164Y0307444D02*
X0125164Y0308228D01*
X0133604Y0308228D02*
X0133604Y0307444D01*
X0208513Y0276054D02*
X0208513Y0275354D01*
X0208513Y0273953D02*
X0208513Y0271150D01*
X0209214Y0271150D02*
X0207812Y0271150D01*
X0208513Y0273953D02*
X0209214Y0273953D01*
X0211015Y0273252D02*
X0211015Y0271150D01*
X0211015Y0273252D02*
X0211716Y0273953D01*
X0213818Y0273953D01*
X0213818Y0271150D01*
X0215619Y0271150D02*
X0217721Y0271150D01*
X0218422Y0271851D01*
X0218422Y0273252D01*
X0217721Y0273953D01*
X0215619Y0273953D01*
X0215619Y0270450D01*
X0216320Y0269749D01*
X0217020Y0269749D01*
X0220924Y0271150D02*
X0222325Y0271150D01*
X0223025Y0271851D01*
X0223025Y0273252D01*
X0222325Y0273953D01*
X0220924Y0273953D01*
X0220223Y0273252D01*
X0220223Y0272551D01*
X0223025Y0272551D01*
X0224827Y0271150D02*
X0224827Y0275354D01*
X0226228Y0273953D01*
X0227629Y0275354D01*
X0227629Y0271150D01*
X0234035Y0271150D02*
X0236137Y0271150D01*
X0236837Y0271851D01*
X0236837Y0273953D01*
X0238639Y0273252D02*
X0239339Y0273953D01*
X0241441Y0273953D01*
X0241441Y0275354D02*
X0241441Y0271150D01*
X0239339Y0271150D01*
X0238639Y0271851D01*
X0238639Y0273252D01*
X0234035Y0273953D02*
X0234035Y0270450D01*
X0234735Y0269749D01*
X0235436Y0269749D01*
X0247847Y0271150D02*
X0249948Y0273252D01*
X0250649Y0272551D02*
X0247847Y0275354D01*
X0250649Y0275354D02*
X0250649Y0271150D01*
X0252451Y0271851D02*
X0252451Y0275354D01*
X0255253Y0275354D02*
X0255253Y0271851D01*
X0254552Y0271150D01*
X0253151Y0271150D01*
X0252451Y0271851D01*
X0261658Y0271851D02*
X0262359Y0272551D01*
X0263760Y0272551D01*
X0264461Y0273252D01*
X0263760Y0273953D01*
X0261658Y0273953D01*
X0261658Y0271851D02*
X0262359Y0271150D01*
X0264461Y0271150D01*
X0266262Y0272551D02*
X0269065Y0272551D01*
X0269065Y0271851D02*
X0269065Y0273252D01*
X0268364Y0273953D01*
X0266963Y0273953D01*
X0266262Y0273252D01*
X0266262Y0272551D01*
X0266963Y0271150D02*
X0268364Y0271150D01*
X0269065Y0271851D01*
X0270733Y0271150D02*
X0272134Y0271150D01*
X0271433Y0271150D02*
X0271433Y0275354D01*
X0272134Y0275354D01*
X0273936Y0273252D02*
X0273936Y0271150D01*
X0276037Y0271150D01*
X0276738Y0271851D01*
X0276037Y0272551D01*
X0273936Y0272551D01*
X0273936Y0273252D02*
X0274636Y0273953D01*
X0276037Y0273953D01*
X0278539Y0275354D02*
X0278539Y0271150D01*
X0279941Y0272551D01*
X0281342Y0271150D01*
X0281342Y0275354D01*
X0287747Y0273252D02*
X0287747Y0271150D01*
X0287747Y0273252D02*
X0288448Y0273953D01*
X0289849Y0273953D01*
X0290550Y0273252D01*
X0292218Y0273953D02*
X0293619Y0273953D01*
X0292918Y0274653D02*
X0292918Y0271851D01*
X0292218Y0271150D01*
X0290550Y0271150D02*
X0290550Y0275354D01*
X0295354Y0273953D02*
X0296054Y0273953D01*
X0297456Y0272551D01*
X0297456Y0271150D02*
X0297456Y0273953D01*
X0299257Y0273252D02*
X0299958Y0273953D01*
X0301359Y0273953D01*
X0302059Y0273252D01*
X0302059Y0271851D01*
X0301359Y0271150D01*
X0299958Y0271150D01*
X0299257Y0271851D01*
X0299257Y0273252D01*
X0303861Y0271150D02*
X0303861Y0275354D01*
X0306663Y0275354D02*
X0303861Y0271150D01*
X0306663Y0271150D02*
X0306663Y0275354D01*
X0313069Y0273252D02*
X0313069Y0271150D01*
X0313069Y0273252D02*
X0313769Y0273953D01*
X0315871Y0273953D01*
X0315871Y0271150D01*
X0317539Y0271150D02*
X0318941Y0271150D01*
X0318240Y0271150D02*
X0318240Y0273953D01*
X0318941Y0273953D01*
X0318240Y0275354D02*
X0318240Y0276054D01*
X0325346Y0275354D02*
X0325346Y0271150D01*
X0327448Y0271150D01*
X0328148Y0271851D01*
X0328148Y0273252D01*
X0327448Y0273953D01*
X0325346Y0273953D01*
X0329950Y0273252D02*
X0329950Y0272551D01*
X0332752Y0272551D01*
X0332752Y0271851D02*
X0332752Y0273252D01*
X0332052Y0273953D01*
X0330651Y0273953D01*
X0329950Y0273252D01*
X0330651Y0271150D02*
X0332052Y0271150D01*
X0332752Y0271851D01*
X0334554Y0271150D02*
X0334554Y0273252D01*
X0335254Y0273953D01*
X0337356Y0273953D01*
X0337356Y0271150D01*
X0339158Y0271150D02*
X0341260Y0271150D01*
X0341960Y0271851D01*
X0341960Y0273252D01*
X0341260Y0273953D01*
X0339158Y0273953D01*
X0339158Y0270450D01*
X0339858Y0269749D01*
X0340559Y0269749D01*
X0343628Y0271150D02*
X0345029Y0271150D01*
X0344329Y0271150D02*
X0344329Y0273953D01*
X0345029Y0273953D01*
X0344329Y0275354D02*
X0344329Y0276054D01*
X0346831Y0273953D02*
X0348933Y0273953D01*
X0349633Y0273252D01*
X0348933Y0272551D01*
X0347532Y0272551D01*
X0346831Y0271851D01*
X0347532Y0271150D01*
X0349633Y0271150D01*
X0351435Y0272551D02*
X0354237Y0272551D01*
X0354237Y0271851D02*
X0354237Y0273252D01*
X0353537Y0273953D01*
X0352135Y0273953D01*
X0351435Y0273252D01*
X0351435Y0272551D01*
X0352135Y0271150D02*
X0353537Y0271150D01*
X0354237Y0271851D01*
X0356039Y0271851D02*
X0356039Y0274653D01*
X0356739Y0275354D01*
X0358841Y0275354D01*
X0358841Y0271150D01*
X0356739Y0271150D01*
X0356039Y0271851D01*
X0350466Y0303524D02*
X0350466Y0305092D01*
X0349682Y0305876D01*
X0347330Y0305876D01*
X0345402Y0305092D02*
X0344618Y0305876D01*
X0303199Y0305092D02*
X0302415Y0305876D01*
X0284630Y0305092D02*
X0283846Y0305876D01*
X0221269Y0233762D02*
X0218133Y0229058D01*
X0218133Y0233762D01*
X0216205Y0231410D02*
X0215421Y0232194D01*
X0213853Y0232194D01*
X0213069Y0231410D01*
X0213069Y0229842D01*
X0213853Y0229058D01*
X0215421Y0229058D01*
X0216205Y0229842D01*
X0216205Y0231410D01*
X0211141Y0231410D02*
X0210357Y0232194D01*
X0208005Y0232194D01*
X0208005Y0233762D02*
X0208005Y0229058D01*
X0210357Y0229058D01*
X0211141Y0229842D01*
X0211141Y0231410D01*
X0206076Y0231410D02*
X0205292Y0232194D01*
X0203724Y0232194D01*
X0202940Y0231410D01*
X0202940Y0230626D01*
X0206076Y0230626D01*
X0206076Y0229842D02*
X0206076Y0231410D01*
X0206076Y0229842D02*
X0205292Y0229058D01*
X0203724Y0229058D01*
X0201012Y0229058D02*
X0201012Y0229842D01*
X0200228Y0229842D01*
X0200228Y0229058D01*
X0201012Y0229058D01*
X0201012Y0231410D02*
X0201012Y0232194D01*
X0200228Y0232194D01*
X0200228Y0231410D01*
X0201012Y0231410D01*
X0221269Y0229058D02*
X0221269Y0233762D01*
D15*
X0229048Y0196777D03*
D16*
X0191354Y0164878D02*
X0183480Y0164878D01*
X0177575Y0161728D01*
X0177969Y0161728D01*
X0191354Y0164878D02*
X0191354Y0144405D01*
X0185449Y0144405D01*
X0185449Y0128657D01*
X0191354Y0128657D01*
X0191354Y0108185D01*
X0191354Y0107791D02*
X0183874Y0107791D01*
X0177575Y0111334D01*
X0183480Y0120783D02*
X0183480Y0124327D01*
X0181906Y0122752D02*
X0185055Y0122752D01*
X0183984Y0126626D02*
X0183984Y0139224D01*
X0203669Y0139224D01*
X0203669Y0126626D01*
X0183984Y0126626D01*
X0132234Y0136531D02*
X0132243Y0137257D01*
X0132270Y0137983D01*
X0132314Y0138708D01*
X0132376Y0139432D01*
X0132457Y0140153D01*
X0132554Y0140873D01*
X0132670Y0141590D01*
X0132803Y0142304D01*
X0132953Y0143015D01*
X0133121Y0143722D01*
X0133306Y0144424D01*
X0133508Y0145121D01*
X0133728Y0145814D01*
X0133964Y0146501D01*
X0134217Y0147181D01*
X0134487Y0147856D01*
X0134773Y0148523D01*
X0135075Y0149184D01*
X0135394Y0149836D01*
X0135728Y0150481D01*
X0136079Y0151117D01*
X0136444Y0151745D01*
X0136825Y0152363D01*
X0137221Y0152972D01*
X0137632Y0153571D01*
X0138058Y0154160D01*
X0138497Y0154738D01*
X0138951Y0155305D01*
X0139419Y0155860D01*
X0139900Y0156404D01*
X0140394Y0156937D01*
X0140902Y0157456D01*
X0141421Y0157964D01*
X0141954Y0158458D01*
X0142498Y0158939D01*
X0143053Y0159407D01*
X0143620Y0159861D01*
X0144198Y0160300D01*
X0144787Y0160726D01*
X0145386Y0161137D01*
X0145995Y0161533D01*
X0146613Y0161914D01*
X0147241Y0162279D01*
X0147877Y0162630D01*
X0148522Y0162964D01*
X0149174Y0163283D01*
X0149835Y0163585D01*
X0150502Y0163871D01*
X0151177Y0164141D01*
X0151857Y0164394D01*
X0152544Y0164630D01*
X0153237Y0164850D01*
X0153934Y0165052D01*
X0154636Y0165237D01*
X0155343Y0165405D01*
X0156054Y0165555D01*
X0156768Y0165688D01*
X0157485Y0165804D01*
X0158205Y0165901D01*
X0158926Y0165982D01*
X0159650Y0166044D01*
X0160375Y0166088D01*
X0161101Y0166115D01*
X0161827Y0166124D01*
X0162553Y0166115D01*
X0163279Y0166088D01*
X0164004Y0166044D01*
X0164728Y0165982D01*
X0165449Y0165901D01*
X0166169Y0165804D01*
X0166886Y0165688D01*
X0167600Y0165555D01*
X0168311Y0165405D01*
X0169018Y0165237D01*
X0169720Y0165052D01*
X0170417Y0164850D01*
X0171110Y0164630D01*
X0171797Y0164394D01*
X0172477Y0164141D01*
X0173152Y0163871D01*
X0173819Y0163585D01*
X0174480Y0163283D01*
X0175132Y0162964D01*
X0175777Y0162630D01*
X0176413Y0162279D01*
X0177041Y0161914D01*
X0177659Y0161533D01*
X0178268Y0161137D01*
X0178867Y0160726D01*
X0179456Y0160300D01*
X0180034Y0159861D01*
X0180601Y0159407D01*
X0181156Y0158939D01*
X0181700Y0158458D01*
X0182233Y0157964D01*
X0182752Y0157456D01*
X0183260Y0156937D01*
X0183754Y0156404D01*
X0184235Y0155860D01*
X0184703Y0155305D01*
X0185157Y0154738D01*
X0185596Y0154160D01*
X0186022Y0153571D01*
X0186433Y0152972D01*
X0186829Y0152363D01*
X0187210Y0151745D01*
X0187575Y0151117D01*
X0187926Y0150481D01*
X0188260Y0149836D01*
X0188579Y0149184D01*
X0188881Y0148523D01*
X0189167Y0147856D01*
X0189437Y0147181D01*
X0189690Y0146501D01*
X0189926Y0145814D01*
X0190146Y0145121D01*
X0190348Y0144424D01*
X0190533Y0143722D01*
X0190701Y0143015D01*
X0190851Y0142304D01*
X0190984Y0141590D01*
X0191100Y0140873D01*
X0191197Y0140153D01*
X0191278Y0139432D01*
X0191340Y0138708D01*
X0191384Y0137983D01*
X0191411Y0137257D01*
X0191420Y0136531D01*
X0191411Y0135805D01*
X0191384Y0135079D01*
X0191340Y0134354D01*
X0191278Y0133630D01*
X0191197Y0132909D01*
X0191100Y0132189D01*
X0190984Y0131472D01*
X0190851Y0130758D01*
X0190701Y0130047D01*
X0190533Y0129340D01*
X0190348Y0128638D01*
X0190146Y0127941D01*
X0189926Y0127248D01*
X0189690Y0126561D01*
X0189437Y0125881D01*
X0189167Y0125206D01*
X0188881Y0124539D01*
X0188579Y0123878D01*
X0188260Y0123226D01*
X0187926Y0122581D01*
X0187575Y0121945D01*
X0187210Y0121317D01*
X0186829Y0120699D01*
X0186433Y0120090D01*
X0186022Y0119491D01*
X0185596Y0118902D01*
X0185157Y0118324D01*
X0184703Y0117757D01*
X0184235Y0117202D01*
X0183754Y0116658D01*
X0183260Y0116125D01*
X0182752Y0115606D01*
X0182233Y0115098D01*
X0181700Y0114604D01*
X0181156Y0114123D01*
X0180601Y0113655D01*
X0180034Y0113201D01*
X0179456Y0112762D01*
X0178867Y0112336D01*
X0178268Y0111925D01*
X0177659Y0111529D01*
X0177041Y0111148D01*
X0176413Y0110783D01*
X0175777Y0110432D01*
X0175132Y0110098D01*
X0174480Y0109779D01*
X0173819Y0109477D01*
X0173152Y0109191D01*
X0172477Y0108921D01*
X0171797Y0108668D01*
X0171110Y0108432D01*
X0170417Y0108212D01*
X0169720Y0108010D01*
X0169018Y0107825D01*
X0168311Y0107657D01*
X0167600Y0107507D01*
X0166886Y0107374D01*
X0166169Y0107258D01*
X0165449Y0107161D01*
X0164728Y0107080D01*
X0164004Y0107018D01*
X0163279Y0106974D01*
X0162553Y0106947D01*
X0161827Y0106938D01*
X0161101Y0106947D01*
X0160375Y0106974D01*
X0159650Y0107018D01*
X0158926Y0107080D01*
X0158205Y0107161D01*
X0157485Y0107258D01*
X0156768Y0107374D01*
X0156054Y0107507D01*
X0155343Y0107657D01*
X0154636Y0107825D01*
X0153934Y0108010D01*
X0153237Y0108212D01*
X0152544Y0108432D01*
X0151857Y0108668D01*
X0151177Y0108921D01*
X0150502Y0109191D01*
X0149835Y0109477D01*
X0149174Y0109779D01*
X0148522Y0110098D01*
X0147877Y0110432D01*
X0147241Y0110783D01*
X0146613Y0111148D01*
X0145995Y0111529D01*
X0145386Y0111925D01*
X0144787Y0112336D01*
X0144198Y0112762D01*
X0143620Y0113201D01*
X0143053Y0113655D01*
X0142498Y0114123D01*
X0141954Y0114604D01*
X0141421Y0115098D01*
X0140902Y0115606D01*
X0140394Y0116125D01*
X0139900Y0116658D01*
X0139419Y0117202D01*
X0138951Y0117757D01*
X0138497Y0118324D01*
X0138058Y0118902D01*
X0137632Y0119491D01*
X0137221Y0120090D01*
X0136825Y0120699D01*
X0136444Y0121317D01*
X0136079Y0121945D01*
X0135728Y0122581D01*
X0135394Y0123226D01*
X0135075Y0123878D01*
X0134773Y0124539D01*
X0134487Y0125206D01*
X0134217Y0125881D01*
X0133964Y0126561D01*
X0133728Y0127248D01*
X0133508Y0127941D01*
X0133306Y0128638D01*
X0133121Y0129340D01*
X0132953Y0130047D01*
X0132803Y0130758D01*
X0132670Y0131472D01*
X0132554Y0132189D01*
X0132457Y0132909D01*
X0132376Y0133630D01*
X0132314Y0134354D01*
X0132270Y0135079D01*
X0132243Y0135805D01*
X0132234Y0136531D01*
X0138205Y0122752D02*
X0142142Y0122752D01*
X0204723Y0077060D02*
X0204723Y0075559D01*
X0205474Y0074808D01*
X0207042Y0074808D02*
X0208543Y0074808D01*
X0207793Y0075559D02*
X0207793Y0072556D01*
X0207042Y0071806D01*
X0210145Y0071806D02*
X0213147Y0074808D01*
X0214715Y0074808D02*
X0216217Y0074808D01*
X0215466Y0075559D02*
X0215466Y0072556D01*
X0214715Y0071806D01*
X0213147Y0071806D02*
X0210145Y0074808D01*
X0217768Y0072556D02*
X0217768Y0071806D01*
X0218518Y0071806D01*
X0218518Y0072556D01*
X0217768Y0072556D01*
X0220120Y0071806D02*
X0222372Y0071806D01*
X0223122Y0072556D01*
X0223122Y0074057D01*
X0222372Y0074808D01*
X0220120Y0074808D01*
X0220120Y0071055D01*
X0220870Y0070304D01*
X0221621Y0070304D01*
X0224724Y0072556D02*
X0225474Y0071806D01*
X0226976Y0071806D01*
X0227726Y0072556D01*
X0227726Y0074057D01*
X0226976Y0074808D01*
X0225474Y0074808D01*
X0224724Y0074057D01*
X0224724Y0072556D01*
X0229294Y0071806D02*
X0230796Y0071806D01*
X0230045Y0071806D02*
X0230045Y0076309D01*
X0230796Y0076309D01*
X0232397Y0074057D02*
X0232397Y0071806D01*
X0234649Y0071806D01*
X0235400Y0072556D01*
X0234649Y0073307D01*
X0232397Y0073307D01*
X0232397Y0074057D02*
X0233148Y0074808D01*
X0234649Y0074808D01*
X0236968Y0074808D02*
X0238469Y0074808D01*
X0237718Y0075559D02*
X0237718Y0072556D01*
X0236968Y0071806D01*
X0240070Y0071806D02*
X0242322Y0071806D01*
X0243073Y0072556D01*
X0242322Y0073307D01*
X0240070Y0073307D01*
X0240070Y0074057D02*
X0240070Y0071806D01*
X0240070Y0074057D02*
X0240821Y0074808D01*
X0242322Y0074808D01*
X0244674Y0074808D02*
X0246926Y0074808D01*
X0247677Y0074057D01*
X0247677Y0072556D01*
X0246926Y0071806D01*
X0244674Y0071806D01*
X0244674Y0076309D01*
X0245441Y0079306D02*
X0248444Y0079306D01*
X0245441Y0082308D01*
X0245441Y0083059D01*
X0246192Y0083809D01*
X0247693Y0083809D01*
X0248444Y0083059D01*
X0250045Y0083059D02*
X0250045Y0082308D01*
X0250796Y0081557D01*
X0250045Y0080807D01*
X0250045Y0080056D01*
X0250796Y0079306D01*
X0252297Y0079306D01*
X0253048Y0080056D01*
X0251547Y0081557D02*
X0250796Y0081557D01*
X0250045Y0083059D02*
X0250796Y0083809D01*
X0252297Y0083809D01*
X0253048Y0083059D01*
X0254649Y0083809D02*
X0257652Y0083809D01*
X0256151Y0083809D02*
X0256151Y0079306D01*
X0259253Y0079306D02*
X0259253Y0082308D01*
X0260754Y0083809D01*
X0262256Y0082308D01*
X0262256Y0079306D01*
X0262256Y0081557D02*
X0259253Y0081557D01*
X0263857Y0083809D02*
X0266860Y0083809D01*
X0266860Y0079306D01*
X0266860Y0081557D02*
X0265358Y0081557D01*
X0265358Y0086806D02*
X0266860Y0086806D01*
X0266109Y0086806D02*
X0266109Y0089808D01*
X0266860Y0089808D01*
X0266109Y0091309D02*
X0266109Y0092060D01*
X0268461Y0091309D02*
X0268461Y0086806D01*
X0271464Y0086806D02*
X0271464Y0091309D01*
X0269962Y0089808D01*
X0268461Y0091309D01*
X0263790Y0089057D02*
X0263790Y0087556D01*
X0263040Y0086806D01*
X0260788Y0086806D01*
X0259186Y0086806D02*
X0259186Y0089808D01*
X0257685Y0089808D02*
X0256935Y0089808D01*
X0257685Y0089808D02*
X0259186Y0088307D01*
X0260788Y0089808D02*
X0263040Y0089808D01*
X0263790Y0089057D01*
X0255350Y0089057D02*
X0255350Y0087556D01*
X0254599Y0086806D01*
X0253098Y0086806D01*
X0252347Y0087556D01*
X0252347Y0089057D01*
X0253098Y0089808D01*
X0254599Y0089808D01*
X0255350Y0089057D01*
X0250746Y0089808D02*
X0249995Y0089057D01*
X0248494Y0089057D01*
X0247743Y0088307D01*
X0247743Y0087556D01*
X0248494Y0086806D01*
X0249995Y0086806D01*
X0250746Y0087556D01*
X0250746Y0089808D02*
X0250746Y0090559D01*
X0249995Y0091309D01*
X0248494Y0091309D01*
X0247743Y0090559D01*
X0246142Y0091309D02*
X0246142Y0086806D01*
X0243890Y0086806D01*
X0243139Y0087556D01*
X0243139Y0090559D01*
X0243890Y0091309D01*
X0246142Y0091309D01*
X0243840Y0080056D02*
X0243089Y0080056D01*
X0243089Y0079306D01*
X0243840Y0079306D01*
X0243840Y0080056D01*
X0249228Y0077060D02*
X0249228Y0075559D01*
X0249979Y0074808D01*
X0256167Y0074808D02*
X0258419Y0073307D01*
X0256167Y0071806D01*
X0258419Y0071806D02*
X0258419Y0076309D01*
X0260021Y0074057D02*
X0260021Y0071806D01*
X0260021Y0074057D02*
X0260771Y0074808D01*
X0263023Y0074808D01*
X0263023Y0071806D01*
X0264624Y0071806D02*
X0266876Y0071806D01*
X0267627Y0072556D01*
X0266876Y0073307D01*
X0264624Y0073307D01*
X0264624Y0074057D02*
X0264624Y0071806D01*
X0264624Y0074057D02*
X0265375Y0074808D01*
X0266876Y0074808D01*
X0269946Y0076309D02*
X0269946Y0071806D01*
X0270696Y0071806D02*
X0269195Y0071806D01*
X0272298Y0072556D02*
X0273048Y0071806D01*
X0275300Y0071806D01*
X0275300Y0076309D01*
X0275300Y0074808D02*
X0273048Y0074808D01*
X0272298Y0074057D01*
X0272298Y0072556D01*
X0270696Y0076309D02*
X0269946Y0076309D01*
X0273065Y0080056D02*
X0273816Y0079306D01*
X0275317Y0079306D01*
X0276068Y0080056D01*
X0276068Y0081557D01*
X0275317Y0082308D01*
X0273816Y0082308D01*
X0273065Y0081557D01*
X0273065Y0080056D01*
X0277636Y0079306D02*
X0278386Y0080056D01*
X0278386Y0083059D01*
X0277636Y0082308D02*
X0279137Y0082308D01*
X0277636Y0086806D02*
X0278386Y0087556D01*
X0278386Y0090559D01*
X0277636Y0089808D02*
X0279137Y0089808D01*
X0280738Y0089057D02*
X0280738Y0086806D01*
X0282990Y0086806D01*
X0283741Y0087556D01*
X0282990Y0088307D01*
X0280738Y0088307D01*
X0280738Y0089057D02*
X0281489Y0089808D01*
X0282990Y0089808D01*
X0285342Y0089057D02*
X0285342Y0086806D01*
X0286843Y0086806D02*
X0286843Y0089057D01*
X0286093Y0089808D01*
X0285342Y0089057D01*
X0286843Y0089057D02*
X0287594Y0089808D01*
X0288345Y0089808D01*
X0288345Y0086806D01*
X0289929Y0089808D02*
X0290680Y0089808D01*
X0292181Y0088307D01*
X0292181Y0086806D02*
X0292181Y0089808D01*
X0293783Y0089057D02*
X0294533Y0089808D01*
X0296035Y0089808D01*
X0296785Y0089057D01*
X0296785Y0087556D01*
X0296035Y0086806D01*
X0294533Y0086806D01*
X0293783Y0087556D01*
X0293783Y0089057D01*
X0298387Y0091309D02*
X0301389Y0091309D01*
X0301389Y0086806D01*
X0301389Y0089057D02*
X0299888Y0089057D01*
X0300638Y0082308D02*
X0301389Y0081557D01*
X0301389Y0080056D01*
X0300638Y0079306D01*
X0298387Y0079306D01*
X0296785Y0080056D02*
X0296035Y0080807D01*
X0293783Y0080807D01*
X0293783Y0081557D02*
X0293783Y0079306D01*
X0296035Y0079306D01*
X0296785Y0080056D01*
X0296035Y0082308D02*
X0294533Y0082308D01*
X0293783Y0081557D01*
X0292181Y0080807D02*
X0290680Y0082308D01*
X0289929Y0082308D01*
X0288345Y0081557D02*
X0287594Y0082308D01*
X0285342Y0082308D01*
X0285342Y0083809D02*
X0285342Y0079306D01*
X0287594Y0079306D01*
X0288345Y0080056D01*
X0288345Y0081557D01*
X0292181Y0082308D02*
X0292181Y0079306D01*
X0291464Y0074808D02*
X0290713Y0074057D01*
X0290713Y0071806D01*
X0292965Y0071806D01*
X0293716Y0072556D01*
X0292965Y0073307D01*
X0290713Y0073307D01*
X0291464Y0074808D02*
X0292965Y0074808D01*
X0296035Y0076309D02*
X0296035Y0071806D01*
X0296785Y0071806D02*
X0295284Y0071806D01*
X0295251Y0068809D02*
X0294500Y0068809D01*
X0294500Y0064306D01*
X0295251Y0064306D02*
X0293749Y0064306D01*
X0292181Y0065056D02*
X0292181Y0066557D01*
X0291431Y0067308D01*
X0289929Y0067308D01*
X0289179Y0066557D01*
X0289179Y0065807D01*
X0292181Y0065807D01*
X0292181Y0065056D02*
X0291431Y0064306D01*
X0289929Y0064306D01*
X0296819Y0064306D02*
X0298320Y0064306D01*
X0297569Y0064306D02*
X0297569Y0067308D01*
X0298320Y0067308D01*
X0297569Y0068809D02*
X0297569Y0069560D01*
X0299888Y0068809D02*
X0300638Y0068059D01*
X0300638Y0064306D01*
X0301389Y0066557D02*
X0299888Y0066557D01*
X0301389Y0071806D02*
X0301389Y0076309D01*
X0299137Y0076309D01*
X0298387Y0075559D01*
X0298387Y0074057D01*
X0299137Y0073307D01*
X0301389Y0073307D01*
X0296785Y0076309D02*
X0296035Y0076309D01*
X0298387Y0082308D02*
X0300638Y0082308D01*
X0289112Y0074057D02*
X0289112Y0072556D01*
X0288361Y0071806D01*
X0286109Y0071806D01*
X0284508Y0072556D02*
X0283757Y0071806D01*
X0282256Y0071806D01*
X0281505Y0073307D02*
X0284508Y0073307D01*
X0284508Y0074057D02*
X0283757Y0074808D01*
X0282256Y0074808D01*
X0281505Y0074057D01*
X0281505Y0073307D01*
X0284508Y0072556D02*
X0284508Y0074057D01*
X0286109Y0074808D02*
X0288361Y0074808D01*
X0289112Y0074057D01*
X0282223Y0068059D02*
X0282223Y0065056D01*
X0281472Y0064306D01*
X0279904Y0064306D02*
X0279904Y0068809D01*
X0279153Y0067308D02*
X0277652Y0067308D01*
X0276902Y0066557D01*
X0276902Y0064306D01*
X0275300Y0065056D02*
X0275300Y0066557D01*
X0274550Y0067308D01*
X0273048Y0067308D01*
X0272298Y0066557D01*
X0272298Y0065807D01*
X0275300Y0065807D01*
X0275300Y0065056D02*
X0274550Y0064306D01*
X0273048Y0064306D01*
X0270696Y0064306D02*
X0270696Y0067308D01*
X0269195Y0067308D02*
X0268444Y0067308D01*
X0269195Y0067308D02*
X0270696Y0065807D01*
X0266860Y0065807D02*
X0263857Y0065807D01*
X0263857Y0066557D01*
X0264608Y0067308D01*
X0266109Y0067308D01*
X0266860Y0066557D01*
X0266860Y0065056D01*
X0266109Y0064306D01*
X0264608Y0064306D01*
X0262256Y0064306D02*
X0261505Y0064306D01*
X0261505Y0065056D01*
X0262256Y0065056D01*
X0262256Y0064306D01*
X0279153Y0067308D02*
X0279904Y0066557D01*
X0281472Y0067308D02*
X0282973Y0067308D01*
D17*
X0164387Y0122473D02*
X0163619Y0121706D01*
X0160550Y0121706D01*
X0159783Y0122473D01*
X0159783Y0124008D01*
X0160550Y0124775D01*
X0161317Y0126310D02*
X0161317Y0128612D01*
X0162085Y0129379D01*
X0163619Y0129379D01*
X0164387Y0128612D01*
X0164387Y0126310D01*
X0159783Y0126310D01*
X0161317Y0127845D02*
X0159783Y0129379D01*
X0159783Y0130914D02*
X0159783Y0133983D01*
X0159783Y0132449D02*
X0164387Y0132449D01*
X0162852Y0130914D01*
X0163619Y0135518D02*
X0164387Y0136285D01*
X0164387Y0137820D01*
X0163619Y0138587D01*
X0162852Y0138587D01*
X0159783Y0135518D01*
X0159783Y0138587D01*
X0159783Y0140122D02*
X0162852Y0143191D01*
X0163619Y0143191D01*
X0164387Y0142424D01*
X0164387Y0140889D01*
X0163619Y0140122D01*
X0159783Y0140122D02*
X0159783Y0143191D01*
X0160550Y0144726D02*
X0163619Y0147795D01*
X0160550Y0147795D01*
X0159783Y0147028D01*
X0159783Y0145493D01*
X0160550Y0144726D01*
X0163619Y0144726D01*
X0164387Y0145493D01*
X0164387Y0147028D01*
X0163619Y0147795D01*
X0163619Y0124775D02*
X0164387Y0124008D01*
X0164387Y0122473D01*
M02*
