G75*
%MOIN*%
%OFA0B0*%
%FSLAX25Y25*%
%IPPOS*%
%LPD*%
%AMOC8*
5,1,8,0,0,1.08239X$1,22.5*
%
%ADD10R,0.04337X0.04731*%
%ADD11R,0.05124X0.05124*%
%ADD12R,0.21400X0.08000*%
%ADD13R,0.04731X0.04337*%
%ADD14R,0.05400X0.02600*%
%ADD15R,0.02600X0.05400*%
%ADD16OC8,0.07800*%
%ADD17R,0.08274X0.04731*%
%ADD18R,0.01975X0.05124*%
%ADD19R,0.08274X0.08274*%
%ADD20R,0.06300X0.08300*%
%ADD21R,0.15400X0.08300*%
%ADD22R,0.14200X0.04500*%
%ADD23R,0.46300X0.42400*%
%ADD24R,0.06306X0.10243*%
%ADD25C,0.07800*%
%ADD26R,0.05912X0.06699*%
%ADD27R,0.03550X0.02762*%
%ADD28R,0.16400X0.04700*%
%ADD29C,0.08800*%
%ADD30C,0.05800*%
%ADD31R,0.08274X0.05124*%
%ADD32C,0.06400*%
%ADD33R,0.21500X0.05100*%
%ADD34R,0.09300X0.10200*%
%ADD35R,0.06109X0.08274*%
%ADD36R,0.03550X0.06306*%
%ADD37OC8,0.10400*%
%ADD38R,0.05400X0.10400*%
%ADD39R,0.10400X0.05400*%
%ADD40C,0.22400*%
%ADD41C,0.03353*%
%ADD42R,0.06896X0.06896*%
D10*
X0191480Y0098531D03*
X0198173Y0098531D03*
X0198173Y0107531D03*
X0191480Y0107531D03*
X0191480Y0129831D03*
X0198173Y0129831D03*
X0277627Y0157085D03*
X0277627Y0163778D03*
X0339480Y0134031D03*
X0346173Y0134031D03*
X0364227Y0103378D03*
X0364227Y0096685D03*
X0290173Y0105531D03*
X0283480Y0105531D03*
X0155827Y0185485D03*
X0155827Y0192178D03*
X0177027Y0189685D03*
X0177027Y0196378D03*
X0178441Y0216208D03*
X0185134Y0216208D03*
X0156127Y0217685D03*
X0156127Y0224378D03*
X0165480Y0234531D03*
X0172173Y0234531D03*
X0156827Y0241185D03*
X0156827Y0247878D03*
X0180627Y0245185D03*
X0180627Y0251878D03*
X0178480Y0271531D03*
X0185173Y0271531D03*
X0156827Y0271185D03*
X0156827Y0277878D03*
X0201098Y0295542D03*
X0201098Y0302235D03*
X0315327Y0328585D03*
X0315327Y0335278D03*
X0348057Y0344971D03*
X0348057Y0351664D03*
X0367043Y0305500D03*
X0373736Y0305500D03*
X0352072Y0282651D03*
X0345379Y0282651D03*
X0342527Y0274478D03*
X0342527Y0267785D03*
X0362421Y0265378D03*
X0362421Y0258685D03*
X0361988Y0213638D03*
X0355295Y0213638D03*
X0067827Y0212185D03*
X0067827Y0218878D03*
X0067827Y0196878D03*
X0067827Y0190185D03*
X0067827Y0245185D03*
X0067827Y0251878D03*
X0067827Y0267185D03*
X0067827Y0273878D03*
D11*
X0368839Y0213435D03*
X0377106Y0213435D03*
D12*
X0322827Y0205531D03*
X0284827Y0205531D03*
D13*
X0287116Y0188437D03*
X0280423Y0188437D03*
X0320580Y0188672D03*
X0327273Y0188672D03*
X0339480Y0167531D03*
X0346173Y0167531D03*
X0327213Y0223775D03*
X0320520Y0223775D03*
X0322973Y0256731D03*
X0316280Y0256731D03*
X0353056Y0271444D03*
X0359749Y0271444D03*
X0333727Y0279285D03*
X0333727Y0285978D03*
X0229972Y0345338D03*
X0223280Y0345338D03*
X0329280Y0346431D03*
X0335973Y0346431D03*
X0143827Y0244878D03*
X0143827Y0238185D03*
X0143827Y0232878D03*
X0143827Y0226185D03*
X0165480Y0225531D03*
X0172173Y0225531D03*
X0143827Y0190878D03*
X0143827Y0184185D03*
X0143827Y0177878D03*
X0143827Y0171185D03*
X0198027Y0144578D03*
X0198027Y0137885D03*
X0283480Y0090531D03*
X0290173Y0090531D03*
X0302827Y0098185D03*
X0302827Y0104878D03*
X0348080Y0103231D03*
X0354773Y0103231D03*
D14*
G36*
X0343000Y0222775D02*
X0339183Y0218958D01*
X0337344Y0220797D01*
X0341161Y0224614D01*
X0343000Y0222775D01*
G37*
G36*
X0340772Y0225002D02*
X0336955Y0221185D01*
X0335116Y0223024D01*
X0338933Y0226841D01*
X0340772Y0225002D01*
G37*
G36*
X0338545Y0227230D02*
X0334728Y0223413D01*
X0332889Y0225252D01*
X0336706Y0229069D01*
X0338545Y0227230D01*
G37*
G36*
X0336318Y0229457D02*
X0332501Y0225640D01*
X0330662Y0227479D01*
X0334479Y0231296D01*
X0336318Y0229457D01*
G37*
G36*
X0334091Y0231684D02*
X0330274Y0227867D01*
X0328435Y0229706D01*
X0332252Y0233523D01*
X0334091Y0231684D01*
G37*
G36*
X0331864Y0233911D02*
X0328047Y0230094D01*
X0326208Y0231933D01*
X0330025Y0235750D01*
X0331864Y0233911D01*
G37*
G36*
X0329637Y0236138D02*
X0325820Y0232321D01*
X0323981Y0234160D01*
X0327798Y0237977D01*
X0329637Y0236138D01*
G37*
G36*
X0327410Y0238365D02*
X0323593Y0234548D01*
X0321754Y0236387D01*
X0325571Y0240204D01*
X0327410Y0238365D01*
G37*
G36*
X0357991Y0255584D02*
X0354174Y0251767D01*
X0352335Y0253606D01*
X0356152Y0257423D01*
X0357991Y0255584D01*
G37*
G36*
X0360218Y0253357D02*
X0356401Y0249540D01*
X0354562Y0251379D01*
X0358379Y0255196D01*
X0360218Y0253357D01*
G37*
G36*
X0362446Y0251130D02*
X0358629Y0247313D01*
X0356790Y0249152D01*
X0360607Y0252969D01*
X0362446Y0251130D01*
G37*
G36*
X0364673Y0248903D02*
X0360856Y0245086D01*
X0359017Y0246925D01*
X0362834Y0250742D01*
X0364673Y0248903D01*
G37*
G36*
X0366900Y0246676D02*
X0363083Y0242859D01*
X0361244Y0244698D01*
X0365061Y0248515D01*
X0366900Y0246676D01*
G37*
G36*
X0355764Y0257811D02*
X0351947Y0253994D01*
X0350108Y0255833D01*
X0353925Y0259650D01*
X0355764Y0257811D01*
G37*
G36*
X0353537Y0260038D02*
X0349720Y0256221D01*
X0347881Y0258060D01*
X0351698Y0261877D01*
X0353537Y0260038D01*
G37*
G36*
X0351310Y0262265D02*
X0347493Y0258448D01*
X0345654Y0260287D01*
X0349471Y0264104D01*
X0351310Y0262265D01*
G37*
D15*
G36*
X0343000Y0260287D02*
X0341161Y0258448D01*
X0337344Y0262265D01*
X0339183Y0264104D01*
X0343000Y0260287D01*
G37*
G36*
X0340772Y0258060D02*
X0338933Y0256221D01*
X0335116Y0260038D01*
X0336955Y0261877D01*
X0340772Y0258060D01*
G37*
G36*
X0338545Y0255833D02*
X0336706Y0253994D01*
X0332889Y0257811D01*
X0334728Y0259650D01*
X0338545Y0255833D01*
G37*
G36*
X0336318Y0253606D02*
X0334479Y0251767D01*
X0330662Y0255584D01*
X0332501Y0257423D01*
X0336318Y0253606D01*
G37*
G36*
X0334091Y0251379D02*
X0332252Y0249540D01*
X0328435Y0253357D01*
X0330274Y0255196D01*
X0334091Y0251379D01*
G37*
G36*
X0331864Y0249152D02*
X0330025Y0247313D01*
X0326208Y0251130D01*
X0328047Y0252969D01*
X0331864Y0249152D01*
G37*
G36*
X0329637Y0246925D02*
X0327798Y0245086D01*
X0323981Y0248903D01*
X0325820Y0250742D01*
X0329637Y0246925D01*
G37*
G36*
X0327410Y0244698D02*
X0325571Y0242859D01*
X0321754Y0246676D01*
X0323593Y0248515D01*
X0327410Y0244698D01*
G37*
G36*
X0360218Y0229706D02*
X0358379Y0227867D01*
X0354562Y0231684D01*
X0356401Y0233523D01*
X0360218Y0229706D01*
G37*
G36*
X0362446Y0231933D02*
X0360607Y0230094D01*
X0356790Y0233911D01*
X0358629Y0235750D01*
X0362446Y0231933D01*
G37*
G36*
X0364673Y0234160D02*
X0362834Y0232321D01*
X0359017Y0236138D01*
X0360856Y0237977D01*
X0364673Y0234160D01*
G37*
G36*
X0366900Y0236387D02*
X0365061Y0234548D01*
X0361244Y0238365D01*
X0363083Y0240204D01*
X0366900Y0236387D01*
G37*
G36*
X0357991Y0227479D02*
X0356152Y0225640D01*
X0352335Y0229457D01*
X0354174Y0231296D01*
X0357991Y0227479D01*
G37*
G36*
X0355764Y0225252D02*
X0353925Y0223413D01*
X0350108Y0227230D01*
X0351947Y0229069D01*
X0355764Y0225252D01*
G37*
G36*
X0353537Y0223024D02*
X0351698Y0221185D01*
X0347881Y0225002D01*
X0349720Y0226841D01*
X0353537Y0223024D01*
G37*
G36*
X0351310Y0220797D02*
X0349471Y0218958D01*
X0345654Y0222775D01*
X0347493Y0224614D01*
X0351310Y0220797D01*
G37*
D16*
X0391079Y0224531D03*
X0401079Y0224531D03*
X0401079Y0234531D03*
X0391079Y0234531D03*
X0391079Y0244531D03*
X0401079Y0244531D03*
D17*
X0406921Y0259531D03*
X0406921Y0269531D03*
X0372157Y0269531D03*
X0372157Y0259531D03*
D18*
X0170665Y0251040D03*
X0168106Y0251040D03*
X0165547Y0251040D03*
X0162988Y0251040D03*
X0162988Y0268022D03*
X0165547Y0268022D03*
X0168106Y0268022D03*
X0170665Y0268022D03*
X0170665Y0213022D03*
X0168106Y0213022D03*
X0165547Y0213022D03*
X0162988Y0213022D03*
X0162988Y0196040D03*
X0165547Y0196040D03*
X0168106Y0196040D03*
X0170665Y0196040D03*
D19*
X0213612Y0286501D03*
X0213612Y0302249D03*
D20*
X0327038Y0335931D03*
X0336038Y0335931D03*
X0345038Y0335931D03*
D21*
X0336138Y0311131D03*
D22*
X0206902Y0316690D03*
X0206902Y0323390D03*
X0206902Y0330090D03*
X0206902Y0336790D03*
X0206902Y0343490D03*
D23*
X0171702Y0330090D03*
D24*
X0225715Y0322884D03*
X0249337Y0322884D03*
D25*
X0303127Y0271531D03*
X0314527Y0271531D03*
X0304543Y0238649D03*
X0304543Y0227249D03*
X0354527Y0195631D03*
X0364527Y0195631D03*
X0374527Y0195631D03*
X0384527Y0195631D03*
X0394527Y0195631D03*
X0404527Y0195631D03*
X0214927Y0260131D03*
X0204927Y0260131D03*
X0194927Y0260131D03*
X0098827Y0266531D03*
X0088827Y0266531D03*
X0078827Y0266531D03*
X0078827Y0252531D03*
X0088827Y0252531D03*
X0098827Y0252531D03*
X0098827Y0211531D03*
X0088827Y0211531D03*
X0078827Y0211531D03*
X0078827Y0197531D03*
X0088827Y0197531D03*
X0098827Y0197531D03*
X0192827Y0158531D03*
X0202827Y0158531D03*
X0174827Y0121531D03*
X0164827Y0121531D03*
X0164827Y0109531D03*
X0174827Y0109531D03*
X0153427Y0098731D03*
X0153427Y0088731D03*
D26*
X0284961Y0114201D03*
X0302677Y0114201D03*
X0302677Y0147665D03*
X0284961Y0147665D03*
X0359370Y0313295D03*
X0377087Y0313295D03*
X0377087Y0346760D03*
X0359370Y0346760D03*
D27*
X0320315Y0306901D03*
X0310472Y0306901D03*
D28*
X0295627Y0323931D03*
X0271027Y0323931D03*
D29*
X0052027Y0266421D02*
X0043627Y0266421D01*
X0043627Y0252642D02*
X0052027Y0252642D01*
X0052027Y0211421D02*
X0043627Y0211421D01*
X0043627Y0197642D02*
X0052027Y0197642D01*
D30*
X0116827Y0282831D02*
X0116827Y0288231D01*
X0126827Y0288231D02*
X0126827Y0282831D01*
D31*
X0210047Y0145657D03*
X0210047Y0137783D03*
X0210047Y0129909D03*
X0210047Y0122035D03*
X0210047Y0114161D03*
X0210047Y0106287D03*
X0210047Y0098413D03*
X0210047Y0090539D03*
X0273827Y0090539D03*
X0273827Y0098413D03*
X0273827Y0106287D03*
X0273827Y0114161D03*
X0273827Y0122035D03*
X0273827Y0129909D03*
X0273827Y0137783D03*
X0273827Y0145657D03*
D32*
X0266827Y0159531D02*
X0266827Y0165531D01*
X0256827Y0165531D02*
X0256827Y0159531D01*
X0246827Y0159531D02*
X0246827Y0165531D01*
X0236827Y0165531D02*
X0236827Y0159531D01*
X0226827Y0159531D02*
X0226827Y0165531D01*
X0216827Y0165531D02*
X0216827Y0159531D01*
D33*
X0132427Y0326531D03*
X0093227Y0326531D03*
D34*
X0082927Y0232531D03*
X0104727Y0232531D03*
D35*
X0085693Y0073854D03*
X0139827Y0073854D03*
X0139827Y0106531D03*
X0085693Y0106531D03*
D36*
X0100142Y0096295D03*
X0104472Y0096295D03*
X0108803Y0096295D03*
X0113134Y0096295D03*
X0117465Y0096295D03*
X0121795Y0096295D03*
X0126126Y0096295D03*
X0130457Y0096295D03*
D37*
X0364227Y0087531D03*
D38*
X0364205Y0114035D03*
X0372079Y0114035D03*
X0379953Y0114035D03*
X0387827Y0114035D03*
X0395701Y0114035D03*
X0403575Y0114035D03*
X0411449Y0114035D03*
X0411449Y0177027D03*
X0403575Y0177027D03*
X0395701Y0177027D03*
X0387827Y0177027D03*
X0379953Y0177027D03*
X0372079Y0177027D03*
X0364205Y0177027D03*
D39*
X0364127Y0078431D03*
D40*
X0392316Y0091741D03*
X0069504Y0091748D03*
X0052504Y0131748D03*
X0069504Y0320134D03*
X0392316Y0320205D03*
D41*
X0379827Y0305531D03*
X0371827Y0299531D03*
X0385783Y0286836D03*
X0362218Y0280044D03*
X0348218Y0276844D03*
X0332218Y0273644D03*
X0330827Y0261531D03*
X0311327Y0258631D03*
X0305627Y0256431D03*
X0299827Y0253531D03*
X0295827Y0250531D03*
X0312827Y0250531D03*
X0315227Y0241131D03*
X0335627Y0248131D03*
X0344418Y0241544D03*
X0367236Y0242583D03*
X0375839Y0242563D03*
X0363627Y0228831D03*
X0367327Y0224731D03*
X0358927Y0224531D03*
X0338557Y0213131D03*
X0342827Y0208531D03*
X0312444Y0223195D03*
X0272827Y0219531D03*
X0259827Y0219531D03*
X0251827Y0227531D03*
X0245827Y0227531D03*
X0242260Y0238579D03*
X0224827Y0232531D03*
X0219827Y0239531D03*
X0196827Y0245531D03*
X0189827Y0240531D03*
X0184827Y0226531D03*
X0177640Y0225573D03*
X0158827Y0232531D03*
X0149685Y0222045D03*
X0177040Y0202573D03*
X0184827Y0203531D03*
X0216827Y0198531D03*
X0216827Y0192531D03*
X0242260Y0193579D03*
X0302827Y0167531D03*
X0304260Y0188579D03*
X0342827Y0178531D03*
X0370218Y0164044D03*
X0347218Y0157044D03*
X0395827Y0129531D03*
X0403827Y0129531D03*
X0379260Y0124579D03*
X0365260Y0123579D03*
X0356260Y0112579D03*
X0374260Y0103579D03*
X0373260Y0093579D03*
X0354760Y0093079D03*
X0354260Y0082579D03*
X0373260Y0083579D03*
X0289827Y0081531D03*
X0232260Y0107579D03*
X0221827Y0090531D03*
X0197827Y0074531D03*
X0184827Y0102531D03*
X0197827Y0119531D03*
X0231827Y0131531D03*
X0231827Y0143531D03*
X0218260Y0144579D03*
X0251827Y0137531D03*
X0161740Y0184873D03*
X0149840Y0171273D03*
X0141827Y0129531D03*
X0121260Y0103579D03*
X0140260Y0093579D03*
X0130827Y0075531D03*
X0092260Y0093579D03*
X0096120Y0232641D03*
X0113020Y0232741D03*
X0150540Y0248273D03*
X0165827Y0244531D03*
X0175640Y0248473D03*
X0191827Y0276531D03*
X0205260Y0288579D03*
X0208260Y0293579D03*
X0250260Y0293579D03*
X0286827Y0290531D03*
X0298827Y0290531D03*
X0247260Y0267579D03*
X0257827Y0255531D03*
X0259827Y0249531D03*
X0167827Y0280531D03*
X0156340Y0285173D03*
X0093120Y0320241D03*
X0093220Y0332841D03*
X0144720Y0333741D03*
X0171720Y0330741D03*
X0217620Y0329941D03*
X0234120Y0350941D03*
X0295920Y0329741D03*
X0309120Y0323941D03*
X0352120Y0330941D03*
X0367120Y0347941D03*
X0415827Y0293531D03*
X0379027Y0269631D03*
X0382827Y0259531D03*
X0411827Y0213531D03*
X0408827Y0208531D03*
X0390827Y0209531D03*
X0408827Y0187531D03*
X0413827Y0187531D03*
X0403827Y0167531D03*
X0089540Y0278273D03*
D42*
X0259827Y0349531D03*
X0314827Y0349531D03*
M02*
