G75*
%MOIN*%
%OFA0B0*%
%FSLAX25Y25*%
%IPPOS*%
%LPD*%
%AMOC8*
5,1,8,0,0,1.08239X$1,22.5*
%
%ADD10OC8,0.06000*%
%ADD11C,0.08200*%
%ADD12C,0.06800*%
%ADD13C,0.04769*%
%ADD14C,0.05950*%
%ADD15C,0.07296*%
%ADD16C,0.06400*%
%ADD17OC8,0.06400*%
%ADD18R,0.05918X0.08280*%
%ADD19R,0.05918X0.03162*%
%ADD20R,0.04737X0.05131*%
%ADD21C,0.04737*%
%ADD22C,0.05918*%
%ADD23R,0.14737X0.11036*%
%ADD24OC8,0.09300*%
%ADD25R,0.06000X0.06000*%
%ADD26C,0.10800*%
%ADD27R,0.07100X0.05400*%
%ADD28R,0.01600X0.03300*%
%ADD29R,0.07200X0.00600*%
%ADD30C,0.44107*%
%ADD31R,0.05131X0.04737*%
%ADD32C,0.07800*%
%ADD33C,0.14580*%
%ADD34C,0.08600*%
%ADD35C,0.09050*%
%ADD36R,0.05400X0.07100*%
%ADD37R,0.00600X0.07200*%
%ADD38C,0.06737*%
%ADD39C,0.22800*%
%ADD40C,0.04369*%
D10*
X0261133Y0106372D03*
X0271133Y0106372D03*
X0260275Y0121102D03*
X0260275Y0131102D03*
X0312646Y0156205D03*
X0312646Y0166205D03*
X0312646Y0176205D03*
X0262539Y0204389D03*
X0252539Y0204389D03*
X0257334Y0216962D03*
X0257334Y0226962D03*
X0395576Y0200531D03*
X0395729Y0187531D03*
X0395729Y0174531D03*
X0435729Y0174531D03*
X0435729Y0187531D03*
X0435576Y0200531D03*
X0305716Y0068704D03*
X0297842Y0068704D03*
X0289968Y0068704D03*
D11*
X0283854Y0121751D03*
X0283854Y0131751D03*
X0291043Y0160635D03*
X0291043Y0170635D03*
X0291043Y0180635D03*
X0323029Y0188492D03*
X0333029Y0188492D03*
X0443943Y0156719D03*
X0453943Y0156719D03*
X0463914Y0156845D03*
X0473914Y0156845D03*
X0401220Y0088808D03*
X0401220Y0078808D03*
X0291007Y0250614D03*
X0291007Y0260614D03*
X0291007Y0270614D03*
X0159080Y0315226D03*
X0149080Y0315226D03*
X0139080Y0315226D03*
D12*
X0329198Y0162563D02*
X0329198Y0156563D01*
X0339198Y0156563D02*
X0339198Y0162563D01*
X0349198Y0162563D02*
X0349198Y0156563D01*
X0359198Y0156563D02*
X0359198Y0162563D01*
X0369198Y0162563D02*
X0369198Y0156563D01*
X0379198Y0156563D02*
X0379198Y0162563D01*
X0455829Y0144831D02*
X0455829Y0138831D01*
X0473629Y0138831D02*
X0473629Y0144831D01*
X0473629Y0119231D02*
X0473629Y0113231D01*
X0455829Y0113231D02*
X0455829Y0119231D01*
D13*
X0172237Y0127271D03*
X0165347Y0127271D03*
X0158457Y0127271D03*
X0151568Y0127271D03*
X0144678Y0127271D03*
X0144678Y0134161D03*
X0151568Y0134161D03*
X0158457Y0134161D03*
X0165347Y0134161D03*
X0172237Y0134161D03*
X0172237Y0141051D03*
X0165347Y0141051D03*
X0158457Y0141051D03*
X0151568Y0141051D03*
X0144678Y0141051D03*
X0144678Y0170579D03*
X0151568Y0170579D03*
X0158457Y0170579D03*
X0165347Y0170579D03*
X0172237Y0170579D03*
X0172237Y0177468D03*
X0165347Y0177468D03*
X0158457Y0177468D03*
X0151568Y0177468D03*
X0144678Y0177468D03*
X0144678Y0184358D03*
X0151568Y0184358D03*
X0158457Y0184358D03*
X0165347Y0184358D03*
X0172237Y0184358D03*
X0172237Y0227665D03*
X0165347Y0227665D03*
X0158457Y0227665D03*
X0151568Y0227665D03*
X0144678Y0227665D03*
X0144678Y0234555D03*
X0151568Y0234555D03*
X0158457Y0234555D03*
X0165347Y0234555D03*
X0172237Y0234555D03*
X0172237Y0241445D03*
X0165347Y0241445D03*
X0158457Y0241445D03*
X0151568Y0241445D03*
X0144678Y0241445D03*
X0144678Y0270972D03*
X0151568Y0270972D03*
X0158457Y0270972D03*
X0165347Y0270972D03*
X0172237Y0270972D03*
X0172237Y0277862D03*
X0165347Y0277862D03*
X0158457Y0277862D03*
X0151568Y0277862D03*
X0144678Y0277862D03*
X0144678Y0284752D03*
X0151568Y0284752D03*
X0158457Y0284752D03*
X0165347Y0284752D03*
X0172237Y0284752D03*
D14*
X0167347Y0292252D03*
X0149568Y0292252D03*
X0149568Y0220165D03*
X0167347Y0220165D03*
X0167347Y0191858D03*
X0149568Y0191858D03*
X0149568Y0119771D03*
X0167347Y0119771D03*
D15*
X0158457Y0119771D03*
X0158457Y0191858D03*
X0158457Y0220165D03*
X0158457Y0292252D03*
D16*
X0472678Y0256657D03*
D17*
X0462678Y0256657D03*
X0462678Y0246657D03*
X0472678Y0246657D03*
X0472678Y0236657D03*
X0462678Y0236657D03*
X0462678Y0226657D03*
X0472678Y0226657D03*
X0472678Y0216657D03*
X0462678Y0216657D03*
D18*
X0285137Y0097617D03*
X0285137Y0085019D03*
X0263483Y0085019D03*
X0263483Y0097617D03*
D19*
X0298115Y0098255D03*
X0298115Y0103373D03*
X0298115Y0108097D03*
X0298115Y0113215D03*
X0318981Y0113215D03*
X0318981Y0108097D03*
X0318981Y0103373D03*
X0318981Y0098255D03*
D20*
X0332586Y0100159D03*
X0332586Y0093466D03*
X0345459Y0100161D03*
X0352151Y0100161D03*
X0338786Y0109029D03*
X0332093Y0109029D03*
X0332164Y0117226D03*
X0338857Y0117226D03*
X0275729Y0169185D03*
X0275729Y0175878D03*
X0267229Y0222185D03*
X0267229Y0228878D03*
D21*
X0195084Y0088114D03*
D22*
X0224612Y0088114D03*
D23*
X0241541Y0088114D03*
X0179140Y0088114D03*
D24*
X0411135Y0063531D03*
X0381906Y0229571D03*
X0445339Y0230571D03*
X0369905Y0277341D03*
D25*
X0282094Y0068704D03*
D26*
X0213833Y0342420D03*
X0193360Y0342420D03*
X0153597Y0342420D03*
X0133124Y0342420D03*
D27*
X0294210Y0141583D03*
X0294210Y0135583D03*
X0340166Y0134441D03*
X0340166Y0140441D03*
X0379710Y0104639D03*
X0379710Y0098639D03*
D28*
X0379710Y0101639D03*
X0340166Y0137441D03*
X0294210Y0138583D03*
D29*
X0294210Y0138583D03*
X0340166Y0137441D03*
X0379710Y0101639D03*
D30*
X0064135Y0131208D03*
X0064135Y0180421D03*
X0064135Y0231602D03*
X0064135Y0280815D03*
D31*
X0303439Y0238082D03*
X0310132Y0238082D03*
X0320883Y0233031D03*
X0327576Y0233031D03*
X0327576Y0222531D03*
X0320883Y0222531D03*
X0310076Y0217531D03*
X0303383Y0217531D03*
X0303383Y0207531D03*
X0310076Y0207531D03*
X0320883Y0202531D03*
X0327576Y0202531D03*
X0327576Y0213031D03*
X0320883Y0213031D03*
X0310138Y0227878D03*
X0303445Y0227878D03*
D32*
X0222229Y0232708D02*
X0222229Y0239708D01*
X0202229Y0239708D02*
X0202229Y0232708D01*
X0202229Y0272708D02*
X0202229Y0279708D01*
X0222229Y0279708D02*
X0222229Y0272708D01*
X0222229Y0179708D02*
X0222229Y0172708D01*
X0202229Y0172708D02*
X0202229Y0179708D01*
X0202229Y0139708D02*
X0202229Y0132708D01*
X0222229Y0132708D02*
X0222229Y0139708D01*
D33*
X0127229Y0136031D03*
X0087229Y0136031D03*
X0087229Y0176031D03*
X0127229Y0176031D03*
X0127229Y0236031D03*
X0087229Y0236031D03*
X0087229Y0276031D03*
X0127229Y0276031D03*
D34*
X0125828Y0086683D02*
X0125828Y0078883D01*
X0139607Y0078883D02*
X0139607Y0086683D01*
X0111129Y0141531D02*
X0103329Y0141531D01*
X0103329Y0171531D02*
X0111129Y0171531D01*
X0111129Y0241531D02*
X0103329Y0241531D01*
X0103329Y0271531D02*
X0111129Y0271531D01*
X0264329Y0278531D02*
X0272129Y0278531D01*
X0272129Y0348531D02*
X0264329Y0348531D01*
X0424329Y0348531D02*
X0432129Y0348531D01*
X0432129Y0278531D02*
X0424329Y0278531D01*
D35*
X0388229Y0321406D02*
X0388229Y0329656D01*
X0358229Y0329656D02*
X0358229Y0321406D01*
D36*
X0184566Y0250502D03*
X0178566Y0250502D03*
X0177402Y0150085D03*
X0183402Y0150085D03*
D37*
X0180402Y0150085D03*
X0181566Y0250502D03*
D38*
X0267229Y0233531D03*
X0279729Y0255031D03*
X0282229Y0186031D03*
X0271229Y0134031D03*
D39*
X0426745Y0091700D03*
X0103932Y0091707D03*
X0103932Y0320092D03*
X0426745Y0320164D03*
D40*
X0427863Y0289674D03*
X0427863Y0285674D03*
X0431863Y0285674D03*
X0431863Y0289674D03*
X0423863Y0289674D03*
X0423863Y0285674D03*
X0423863Y0270674D03*
X0423863Y0266674D03*
X0427863Y0266674D03*
X0431863Y0266674D03*
X0431863Y0270674D03*
X0427863Y0270674D03*
X0443424Y0261084D03*
X0407424Y0260084D03*
X0357228Y0245586D03*
X0336895Y0262240D03*
X0326417Y0252154D03*
X0307729Y0244031D03*
X0312531Y0237866D03*
X0318801Y0232863D03*
X0312618Y0227866D03*
X0319373Y0222873D03*
X0312427Y0217769D03*
X0319532Y0212813D03*
X0311451Y0207657D03*
X0315787Y0200317D03*
X0301403Y0201955D03*
X0296566Y0207007D03*
X0269930Y0194312D03*
X0248930Y0189312D03*
X0241804Y0195907D03*
X0235847Y0193433D03*
X0242910Y0215250D03*
X0236734Y0217653D03*
X0248910Y0219750D03*
X0241804Y0228682D03*
X0266063Y0241531D03*
X0270832Y0242462D03*
X0273625Y0227534D03*
X0327101Y0240069D03*
X0343991Y0227924D03*
X0370501Y0223355D03*
X0379924Y0219084D03*
X0366300Y0210734D03*
X0360059Y0214333D03*
X0353146Y0208015D03*
X0346857Y0201393D03*
X0341424Y0202584D03*
X0352905Y0200485D03*
X0346638Y0193943D03*
X0346528Y0182821D03*
X0352455Y0183020D03*
X0365108Y0177644D03*
X0360808Y0174359D03*
X0372591Y0174359D03*
X0385744Y0171502D03*
X0391747Y0165265D03*
X0411754Y0155169D03*
X0427209Y0160506D03*
X0400424Y0180584D03*
X0386406Y0182113D03*
X0373161Y0187531D03*
X0379924Y0199584D03*
X0386802Y0204954D03*
X0405943Y0205410D03*
X0426754Y0188669D03*
X0390964Y0148620D03*
X0392444Y0138204D03*
X0393198Y0129915D03*
X0402488Y0126122D03*
X0402649Y0120944D03*
X0393543Y0122380D03*
X0410428Y0126479D03*
X0414229Y0121031D03*
X0395109Y0112092D03*
X0376352Y0112319D03*
X0364881Y0100842D03*
X0378998Y0090648D03*
X0385306Y0083872D03*
X0410389Y0083730D03*
X0345765Y0088985D03*
X0314126Y0081022D03*
X0309381Y0084306D03*
X0307798Y0088890D03*
X0325717Y0106223D03*
X0325896Y0114072D03*
X0315213Y0121837D03*
X0329611Y0125237D03*
X0350153Y0137985D03*
X0354506Y0145440D03*
X0365202Y0137985D03*
X0329424Y0146584D03*
X0319924Y0153584D03*
X0314424Y0148084D03*
X0306849Y0153226D03*
X0284175Y0146369D03*
X0280229Y0156531D03*
X0273430Y0157312D03*
X0283229Y0165531D03*
X0280229Y0176531D03*
X0272179Y0142545D03*
X0265907Y0141286D03*
X0234056Y0126788D03*
X0233930Y0121883D03*
X0248804Y0123288D03*
X0296490Y0120540D03*
X0299921Y0125424D03*
X0300460Y0131271D03*
X0302531Y0113263D03*
X0224861Y0079084D03*
X0439729Y0117031D03*
X0441729Y0124531D03*
X0420580Y0232006D03*
X0344805Y0273004D03*
X0377457Y0287674D03*
X0382457Y0287674D03*
X0387457Y0287674D03*
X0310834Y0310973D03*
X0301415Y0327693D03*
X0267955Y0333553D03*
X0261326Y0332719D03*
X0264799Y0327780D03*
X0264585Y0289800D03*
X0268585Y0289800D03*
X0272585Y0289800D03*
X0276585Y0289800D03*
X0276585Y0285800D03*
X0272585Y0285800D03*
X0268585Y0285800D03*
X0264585Y0285800D03*
X0260585Y0285800D03*
X0260585Y0289800D03*
X0249971Y0285716D03*
X0247971Y0290247D03*
X0241804Y0283800D03*
X0234817Y0289804D03*
M02*
