G75*
%MOIN*%
%OFA0B0*%
%FSLAX25Y25*%
%IPPOS*%
%LPD*%
%AMOC8*
5,1,8,0,0,1.08239X$1,22.5*
%
%ADD10R,0.01575X0.04724*%
%ADD11R,0.05900X0.07900*%
%ADD12R,0.15000X0.07900*%
%ADD13R,0.03937X0.04331*%
%ADD14R,0.04331X0.03937*%
%ADD15R,0.07874X0.04724*%
%ADD16R,0.06000X0.02500*%
%ADD17R,0.07874X0.05709*%
%ADD18R,0.05906X0.03150*%
%ADD19R,0.08661X0.07087*%
%ADD20R,0.05906X0.05906*%
%ADD21R,0.02362X0.08661*%
%ADD22R,0.07087X0.08661*%
%ADD23R,0.05276X0.07087*%
D10*
X0261871Y0147324D03*
X0264430Y0147324D03*
X0266989Y0147324D03*
X0269548Y0147324D03*
X0269548Y0164306D03*
X0266989Y0164306D03*
X0264430Y0164306D03*
X0261871Y0164306D03*
X0261871Y0247718D03*
X0264430Y0247718D03*
X0266989Y0247718D03*
X0269548Y0247718D03*
X0269548Y0264699D03*
X0266989Y0264699D03*
X0264430Y0264699D03*
X0261871Y0264699D03*
D11*
X0386806Y0255962D03*
X0395806Y0255962D03*
X0404806Y0255962D03*
X0422239Y0255939D03*
X0431239Y0255939D03*
X0440239Y0255939D03*
D12*
X0431339Y0231139D03*
X0395906Y0231162D03*
D13*
X0355648Y0217486D03*
X0348955Y0217486D03*
X0352787Y0238654D03*
X0352787Y0245347D03*
X0415619Y0265280D03*
X0415619Y0271973D03*
X0468808Y0282403D03*
X0475501Y0282403D03*
X0280729Y0279878D03*
X0280729Y0273185D03*
X0253763Y0275709D03*
X0253763Y0269016D03*
X0251024Y0259555D03*
X0251024Y0252862D03*
X0252914Y0244791D03*
X0252914Y0238098D03*
X0268229Y0181878D03*
X0268229Y0175185D03*
X0253032Y0175131D03*
X0253032Y0168438D03*
X0251024Y0159161D03*
X0251024Y0152468D03*
X0252914Y0143413D03*
X0252914Y0136720D03*
X0305138Y0137943D03*
X0311831Y0137943D03*
X0311864Y0129915D03*
X0305171Y0129915D03*
X0305161Y0121837D03*
X0311854Y0121837D03*
X0311891Y0105022D03*
X0305199Y0105022D03*
X0305169Y0096289D03*
X0311862Y0096289D03*
X0400078Y0104420D03*
X0406771Y0104420D03*
X0406472Y0114138D03*
X0399779Y0114138D03*
X0401092Y0126368D03*
X0401092Y0133061D03*
X0399490Y0148620D03*
X0399490Y0155313D03*
D14*
X0412729Y0174531D03*
X0419422Y0174531D03*
X0419229Y0187531D03*
X0412536Y0187531D03*
X0412229Y0200531D03*
X0418922Y0200531D03*
X0359596Y0204214D03*
X0359596Y0210907D03*
X0379712Y0270893D03*
X0386405Y0270893D03*
X0396193Y0270282D03*
X0402886Y0270282D03*
D15*
X0385607Y0145657D03*
X0385607Y0137783D03*
X0385607Y0129909D03*
X0385607Y0122035D03*
X0385607Y0114161D03*
X0385607Y0106287D03*
X0385607Y0098413D03*
X0385607Y0090539D03*
X0321828Y0090539D03*
X0321828Y0098413D03*
X0321828Y0106287D03*
X0321828Y0114161D03*
X0321828Y0122035D03*
X0321828Y0129909D03*
X0321828Y0137783D03*
X0321828Y0145657D03*
D16*
X0315831Y0202866D03*
X0315831Y0207866D03*
X0315831Y0212866D03*
X0315831Y0217866D03*
X0315831Y0222866D03*
X0315831Y0227866D03*
X0315831Y0232866D03*
X0315831Y0237866D03*
X0337052Y0237866D03*
X0337052Y0232866D03*
X0337052Y0227866D03*
X0337052Y0222866D03*
X0337052Y0217866D03*
X0337052Y0212866D03*
X0337052Y0207866D03*
X0337052Y0202866D03*
D17*
X0210625Y0061287D03*
X0243303Y0061287D03*
X0243303Y0115421D03*
X0210625Y0115421D03*
D18*
X0233066Y0100972D03*
X0233066Y0096641D03*
X0233066Y0092311D03*
X0233066Y0087980D03*
X0233066Y0083649D03*
X0233066Y0079319D03*
X0233066Y0074988D03*
X0233066Y0070657D03*
D19*
X0241713Y0128059D03*
X0241713Y0148138D03*
X0241713Y0163492D03*
X0241713Y0183571D03*
X0241713Y0228453D03*
X0241713Y0248531D03*
X0241713Y0263886D03*
X0241713Y0283964D03*
D20*
X0464422Y0296649D03*
X0476202Y0296649D03*
D21*
X0290902Y0227124D03*
X0285902Y0227124D03*
X0280902Y0227124D03*
X0275902Y0227124D03*
X0275902Y0206652D03*
X0280902Y0206652D03*
X0285902Y0206652D03*
X0290902Y0206652D03*
D22*
X0250505Y0333372D03*
X0230426Y0333372D03*
D23*
X0379099Y0218531D03*
X0390359Y0218531D03*
M02*
