M48
;GenerationSoftware,Autodesk,EAGLE,9.2.2*%
;CreationDate,2018-11-15T14:01:54Z*%
FMAT,2
ICI,OFF
METRIC,TZ,000.000
T3C0.500
T2C0.813
T1C1.321
%
G90
M71
T1
X2540Y20320
X2540Y2540
X43180Y20320
X43180Y2540
T2
X28855Y19742
X23775Y19742
X26315Y19742
T3
X14541Y18190
X13271Y18190
X13271Y16920
X14541Y16920
X14541Y15650
X13271Y15650
X14541Y19460
X13271Y19460
X-1334Y6125
X-1334Y7395
X2476Y7395
X2476Y6125
X39179Y7395
X39179Y8665
X41719Y8665
X41719Y7395
M30