G75*
%MOIN*%
%OFA0B0*%
%FSLAX25Y25*%
%IPPOS*%
%LPD*%
%AMOC8*
5,1,8,0,0,1.08239X$1,22.5*
%
%ADD10C,0.01100*%
%ADD11C,0.00600*%
%ADD12C,0.01200*%
%ADD13C,0.03000*%
%ADD14C,0.00800*%
%ADD15R,0.58000X0.57000*%
%ADD16C,0.00500*%
%ADD17C,0.00900*%
%ADD18C,0.00400*%
%ADD19C,0.00300*%
D10*
X0210118Y0144848D02*
X0210118Y0146817D01*
X0211102Y0147801D01*
X0215039Y0147801D01*
X0216023Y0146817D01*
X0216023Y0144848D01*
X0215039Y0143864D01*
X0211102Y0143864D01*
X0210118Y0144848D01*
X0210118Y0150310D02*
X0210118Y0153262D01*
X0211102Y0154246D01*
X0213070Y0154246D01*
X0214055Y0153262D01*
X0214055Y0150310D01*
X0208150Y0150310D01*
X0211102Y0156755D02*
X0213070Y0156755D01*
X0214055Y0157739D01*
X0214055Y0159708D01*
X0213070Y0160692D01*
X0212086Y0160692D01*
X0212086Y0156755D01*
X0211102Y0156755D02*
X0210118Y0157739D01*
X0210118Y0159708D01*
X0210118Y0163201D02*
X0214055Y0163201D01*
X0214055Y0166153D01*
X0213070Y0167137D01*
X0210118Y0167137D01*
X0210118Y0169646D02*
X0210118Y0173583D01*
X0210118Y0176092D02*
X0214055Y0176092D01*
X0214055Y0179044D01*
X0213070Y0180028D01*
X0210118Y0180028D01*
X0211102Y0182537D02*
X0213070Y0182537D01*
X0214055Y0183521D01*
X0214055Y0185490D01*
X0213070Y0186474D01*
X0212086Y0186474D01*
X0212086Y0182537D01*
X0211102Y0182537D02*
X0210118Y0183521D01*
X0210118Y0185490D01*
X0210118Y0188983D02*
X0214055Y0188983D01*
X0214055Y0190951D02*
X0212086Y0188983D01*
X0214055Y0190951D02*
X0214055Y0191935D01*
X0213070Y0194354D02*
X0211102Y0194354D01*
X0210118Y0195338D01*
X0210118Y0198291D01*
X0209134Y0198291D02*
X0214055Y0198291D01*
X0214055Y0195338D01*
X0213070Y0194354D01*
X0208150Y0196322D02*
X0208150Y0197306D01*
X0209134Y0198291D01*
X0211102Y0200799D02*
X0210118Y0201783D01*
X0210118Y0204736D01*
X0209134Y0204736D02*
X0208150Y0203752D01*
X0208150Y0202768D01*
X0209134Y0204736D02*
X0214055Y0204736D01*
X0216023Y0207245D02*
X0210118Y0207245D01*
X0210118Y0211181D02*
X0216023Y0211181D01*
X0214055Y0209213D01*
X0216023Y0207245D01*
X0214055Y0200799D02*
X0211102Y0200799D01*
X0211102Y0213690D02*
X0210118Y0214674D01*
X0210118Y0216643D01*
X0211102Y0217627D01*
X0213070Y0217627D01*
X0214055Y0216643D01*
X0214055Y0214674D01*
X0213070Y0213690D01*
X0211102Y0213690D01*
X0210118Y0220136D02*
X0214055Y0220136D01*
X0214055Y0223088D01*
X0213070Y0224072D01*
X0210118Y0224072D01*
X0210118Y0226581D02*
X0210118Y0228550D01*
X0210118Y0227565D02*
X0214055Y0227565D01*
X0214055Y0226581D01*
X0216023Y0227565D02*
X0217007Y0227565D01*
X0214055Y0230878D02*
X0214055Y0232847D01*
X0215039Y0231862D02*
X0211102Y0231862D01*
X0210118Y0232847D01*
X0211102Y0235175D02*
X0210118Y0236159D01*
X0210118Y0238128D01*
X0211102Y0239112D01*
X0213070Y0239112D01*
X0214055Y0238128D01*
X0214055Y0236159D01*
X0213070Y0235175D01*
X0211102Y0235175D01*
X0210118Y0241621D02*
X0214055Y0241621D01*
X0214055Y0243589D02*
X0214055Y0244573D01*
X0214055Y0243589D02*
X0212086Y0241621D01*
X0211102Y0246992D02*
X0211102Y0247976D01*
X0210118Y0247976D01*
X0210118Y0246992D01*
X0211102Y0246992D01*
X0211102Y0250215D02*
X0210118Y0251199D01*
X0210118Y0253167D01*
X0211102Y0254151D01*
X0213070Y0254151D01*
X0214055Y0253167D01*
X0214055Y0251199D01*
X0213070Y0250215D01*
X0211102Y0250215D01*
X0210118Y0256660D02*
X0214055Y0256660D01*
X0214055Y0258629D02*
X0214055Y0259613D01*
X0214055Y0258629D02*
X0212086Y0256660D01*
X0211102Y0262032D02*
X0210118Y0263016D01*
X0210118Y0265968D01*
X0209134Y0265968D02*
X0214055Y0265968D01*
X0214055Y0263016D01*
X0213070Y0262032D01*
X0211102Y0262032D01*
X0208150Y0264000D02*
X0208150Y0264984D01*
X0209134Y0265968D01*
X0233544Y0309004D02*
X0235512Y0309004D01*
X0236496Y0309988D01*
X0236496Y0311956D01*
X0235512Y0312941D01*
X0233544Y0312941D01*
X0232560Y0311956D01*
X0232560Y0310972D01*
X0236496Y0310972D01*
X0239005Y0309004D02*
X0241958Y0309004D01*
X0242942Y0309988D01*
X0242942Y0311956D01*
X0241958Y0312941D01*
X0239005Y0312941D01*
X0239005Y0314909D02*
X0239005Y0309004D01*
X0245451Y0309988D02*
X0245451Y0311956D01*
X0246435Y0312941D01*
X0248403Y0312941D01*
X0249387Y0311956D01*
X0249387Y0309988D01*
X0248403Y0309004D01*
X0246435Y0309004D01*
X0245451Y0309988D01*
X0251896Y0309004D02*
X0251896Y0311956D01*
X0252880Y0312941D01*
X0255833Y0312941D01*
X0255833Y0309004D01*
X0264787Y0309004D02*
X0267740Y0309004D01*
X0268724Y0309988D01*
X0268724Y0311956D01*
X0267740Y0312941D01*
X0264787Y0312941D01*
X0264787Y0308020D01*
X0265771Y0307036D01*
X0266756Y0307036D01*
X0271233Y0309004D02*
X0271233Y0311956D01*
X0272217Y0312941D01*
X0275169Y0312941D01*
X0275169Y0309004D01*
X0277498Y0309004D02*
X0279466Y0309004D01*
X0278482Y0309004D02*
X0278482Y0312941D01*
X0279466Y0312941D01*
X0278482Y0314909D02*
X0278482Y0315893D01*
X0281885Y0312941D02*
X0282869Y0312941D01*
X0284838Y0310972D01*
X0284838Y0309004D02*
X0284838Y0312941D01*
X0287346Y0311956D02*
X0288331Y0312941D01*
X0290299Y0312941D01*
X0291283Y0311956D01*
X0291283Y0309988D01*
X0290299Y0309004D01*
X0288331Y0309004D01*
X0287346Y0309988D01*
X0287346Y0311956D01*
X0293612Y0312941D02*
X0295580Y0312941D01*
X0294596Y0313925D02*
X0294596Y0309988D01*
X0293612Y0309004D01*
X0297909Y0309004D02*
X0299877Y0309004D01*
X0298893Y0309004D02*
X0298893Y0312941D01*
X0299877Y0312941D01*
X0298893Y0314909D02*
X0298893Y0315893D01*
X0302386Y0311956D02*
X0302386Y0309004D01*
X0302386Y0311956D02*
X0303370Y0312941D01*
X0306323Y0312941D01*
X0306323Y0309004D01*
X0308831Y0309988D02*
X0309816Y0309004D01*
X0311784Y0309004D01*
X0312768Y0309988D01*
X0312768Y0311956D01*
X0311784Y0312941D01*
X0309816Y0312941D01*
X0308831Y0311956D01*
X0308831Y0309988D01*
X0315277Y0309004D02*
X0315277Y0311956D01*
X0316261Y0312941D01*
X0317245Y0311956D01*
X0317245Y0309004D01*
X0319214Y0309004D02*
X0319214Y0312941D01*
X0318229Y0312941D01*
X0317245Y0311956D01*
X0328168Y0312941D02*
X0328168Y0308020D01*
X0329152Y0307036D01*
X0330136Y0307036D01*
X0331120Y0309004D02*
X0328168Y0309004D01*
X0331120Y0309004D02*
X0332105Y0309988D01*
X0332105Y0312941D01*
X0334613Y0312941D02*
X0334613Y0308020D01*
X0335598Y0307036D01*
X0336582Y0307036D01*
X0337566Y0309004D02*
X0334613Y0309004D01*
X0337566Y0309004D02*
X0338550Y0309988D01*
X0338550Y0311956D01*
X0337566Y0312941D01*
X0334613Y0312941D01*
X0340969Y0312941D02*
X0341953Y0312941D01*
X0343921Y0310972D01*
X0343921Y0309004D02*
X0343921Y0312941D01*
X0346430Y0311956D02*
X0346430Y0310972D01*
X0350367Y0310972D01*
X0350367Y0309988D02*
X0350367Y0311956D01*
X0349383Y0312941D01*
X0347414Y0312941D01*
X0346430Y0311956D01*
X0347414Y0309004D02*
X0349383Y0309004D01*
X0350367Y0309988D01*
X0352876Y0309004D02*
X0352876Y0311956D01*
X0353860Y0312941D01*
X0356812Y0312941D01*
X0356812Y0309004D01*
X0359321Y0310972D02*
X0363258Y0310972D01*
X0363258Y0309988D02*
X0363258Y0311956D01*
X0362274Y0312941D01*
X0360305Y0312941D01*
X0359321Y0311956D01*
X0359321Y0310972D01*
X0360305Y0309004D02*
X0362274Y0309004D01*
X0363258Y0309988D01*
X0372212Y0309988D02*
X0373196Y0309004D01*
X0376149Y0309004D01*
X0375165Y0310972D02*
X0376149Y0311956D01*
X0375165Y0312941D01*
X0372212Y0312941D01*
X0373196Y0310972D02*
X0375165Y0310972D01*
X0373196Y0310972D02*
X0372212Y0309988D01*
X0378658Y0309988D02*
X0379642Y0309004D01*
X0382594Y0309004D01*
X0381610Y0310972D02*
X0382594Y0311956D01*
X0381610Y0312941D01*
X0378658Y0312941D01*
X0379642Y0310972D02*
X0381610Y0310972D01*
X0379642Y0310972D02*
X0378658Y0309988D01*
X0385103Y0310972D02*
X0389040Y0310972D01*
X0389040Y0309988D02*
X0389040Y0311956D01*
X0388056Y0312941D01*
X0386087Y0312941D01*
X0385103Y0311956D01*
X0385103Y0310972D01*
X0386087Y0309004D02*
X0388056Y0309004D01*
X0389040Y0309988D01*
X0391369Y0309004D02*
X0393337Y0309004D01*
X0392353Y0309004D02*
X0392353Y0314909D01*
X0393337Y0314909D01*
X0395846Y0311956D02*
X0395846Y0310972D01*
X0399782Y0310972D01*
X0399782Y0309988D02*
X0399782Y0311956D01*
X0398798Y0312941D01*
X0396830Y0312941D01*
X0395846Y0311956D01*
X0396830Y0309004D02*
X0398798Y0309004D01*
X0399782Y0309988D01*
X0402201Y0312941D02*
X0403185Y0312941D01*
X0405154Y0310972D01*
X0405154Y0309004D02*
X0405154Y0312941D01*
X0408466Y0312941D02*
X0408466Y0309004D01*
X0407482Y0309004D02*
X0409451Y0309004D01*
X0411959Y0309988D02*
X0412944Y0309004D01*
X0413928Y0309988D01*
X0414912Y0309004D01*
X0415896Y0309988D01*
X0415896Y0312941D01*
X0411959Y0312941D02*
X0411959Y0309988D01*
X0409451Y0312941D02*
X0408466Y0312941D01*
X0408466Y0314909D02*
X0408466Y0315893D01*
X0216023Y0173583D02*
X0216023Y0169646D01*
X0210118Y0169646D01*
X0213070Y0169646D02*
X0213070Y0171614D01*
D11*
X0110201Y0062353D02*
X0110823Y0061731D01*
X0112690Y0061731D01*
X0112068Y0062975D02*
X0110823Y0062975D01*
X0110201Y0062353D01*
X0110201Y0064220D02*
X0112068Y0064220D01*
X0112690Y0063598D01*
X0112068Y0062975D01*
X0114189Y0062975D02*
X0116678Y0062975D01*
X0116678Y0062353D02*
X0116678Y0063598D01*
X0116056Y0064220D01*
X0114811Y0064220D01*
X0114189Y0063598D01*
X0114189Y0062975D01*
X0114811Y0061731D02*
X0116056Y0061731D01*
X0116678Y0062353D01*
X0118092Y0061731D02*
X0118714Y0062353D01*
X0118714Y0064842D01*
X0119336Y0064220D02*
X0118092Y0064220D01*
X0120835Y0063598D02*
X0120835Y0061731D01*
X0122702Y0061731D01*
X0123324Y0062353D01*
X0122702Y0062975D01*
X0120835Y0062975D01*
X0120835Y0063598D02*
X0121457Y0064220D01*
X0122702Y0064220D01*
X0124822Y0064220D02*
X0125445Y0063598D01*
X0127312Y0063598D01*
X0127312Y0065465D02*
X0125445Y0065465D01*
X0124822Y0064842D01*
X0124822Y0064220D01*
X0125445Y0063598D02*
X0124822Y0062975D01*
X0124822Y0062353D01*
X0125445Y0061731D01*
X0127312Y0061731D01*
X0127312Y0065465D01*
X0126315Y0068227D02*
X0126315Y0070716D01*
X0126315Y0069471D02*
X0125070Y0070716D01*
X0124448Y0070716D01*
X0122992Y0070716D02*
X0121747Y0070716D01*
X0122369Y0071338D02*
X0122369Y0068849D01*
X0121747Y0068227D01*
X0120333Y0068227D02*
X0120333Y0071961D01*
X0119711Y0070716D02*
X0118466Y0070716D01*
X0117844Y0070094D01*
X0117844Y0068227D01*
X0120333Y0070094D02*
X0119711Y0070716D01*
X0112358Y0071961D02*
X0112358Y0068227D01*
X0111113Y0069471D01*
X0109869Y0068227D01*
X0109869Y0071961D01*
X0107748Y0070716D02*
X0106503Y0070716D01*
X0105881Y0070094D01*
X0105881Y0068227D01*
X0107748Y0068227D01*
X0108370Y0068849D01*
X0107748Y0069471D01*
X0105881Y0069471D01*
X0104383Y0068227D02*
X0103138Y0068227D01*
X0103760Y0068227D02*
X0103760Y0071961D01*
X0104383Y0071961D01*
X0101724Y0070094D02*
X0101724Y0068849D01*
X0101102Y0068227D01*
X0099857Y0068227D01*
X0099235Y0069471D02*
X0101724Y0069471D01*
X0101724Y0070094D02*
X0101102Y0070716D01*
X0099857Y0070716D01*
X0099235Y0070094D01*
X0099235Y0069471D01*
X0097736Y0070094D02*
X0097114Y0070716D01*
X0095247Y0070716D01*
X0095869Y0069471D02*
X0097114Y0069471D01*
X0097736Y0070094D01*
X0097736Y0068227D02*
X0095869Y0068227D01*
X0095247Y0068849D01*
X0095869Y0069471D01*
X0127813Y0068849D02*
X0127813Y0070094D01*
X0128435Y0070716D01*
X0129680Y0070716D01*
X0130302Y0070094D01*
X0130302Y0068849D01*
X0129680Y0068227D01*
X0128435Y0068227D01*
X0127813Y0068849D01*
X0131801Y0068227D02*
X0131801Y0071961D01*
X0134290Y0071961D02*
X0131801Y0068227D01*
X0134290Y0068227D02*
X0134290Y0071961D01*
X0139776Y0070094D02*
X0139776Y0068227D01*
X0139776Y0070094D02*
X0140398Y0070716D01*
X0142265Y0070716D01*
X0142265Y0068227D01*
X0143679Y0068227D02*
X0144924Y0068227D01*
X0144301Y0068227D02*
X0144301Y0070716D01*
X0144924Y0070716D01*
X0144301Y0071961D02*
X0144301Y0072583D01*
X0150410Y0071961D02*
X0150410Y0068227D01*
X0152277Y0068227D01*
X0152899Y0068849D01*
X0152899Y0070094D01*
X0152277Y0070716D01*
X0150410Y0070716D01*
X0154397Y0070094D02*
X0154397Y0069471D01*
X0156887Y0069471D01*
X0156887Y0068849D02*
X0156887Y0070094D01*
X0156264Y0070716D01*
X0155020Y0070716D01*
X0154397Y0070094D01*
X0155020Y0068227D02*
X0156264Y0068227D01*
X0156887Y0068849D01*
X0158385Y0068227D02*
X0158385Y0070094D01*
X0159007Y0070716D01*
X0160874Y0070716D01*
X0160874Y0068227D01*
X0162373Y0068227D02*
X0164240Y0068227D01*
X0164862Y0068849D01*
X0164862Y0070094D01*
X0164240Y0070716D01*
X0162373Y0070716D01*
X0162373Y0067604D01*
X0162995Y0066982D01*
X0163617Y0066982D01*
X0164530Y0065465D02*
X0164530Y0061731D01*
X0162663Y0061731D01*
X0162040Y0062353D01*
X0162040Y0063598D01*
X0162663Y0064220D01*
X0164530Y0064220D01*
X0160542Y0064220D02*
X0160542Y0062353D01*
X0159920Y0061731D01*
X0158053Y0061731D01*
X0158053Y0061108D02*
X0158675Y0060486D01*
X0159297Y0060486D01*
X0158053Y0061108D02*
X0158053Y0064220D01*
X0152567Y0065465D02*
X0152567Y0061731D01*
X0150700Y0061731D01*
X0150077Y0062353D01*
X0150077Y0064842D01*
X0150700Y0065465D01*
X0152567Y0065465D01*
X0147957Y0064220D02*
X0146712Y0064220D01*
X0146090Y0063598D01*
X0146090Y0061731D01*
X0147957Y0061731D01*
X0148579Y0062353D01*
X0147957Y0062975D01*
X0146090Y0062975D01*
X0144591Y0061731D02*
X0144591Y0064220D01*
X0142724Y0064220D01*
X0142102Y0063598D01*
X0142102Y0061731D01*
X0140604Y0061731D02*
X0139359Y0061731D01*
X0139981Y0061731D02*
X0139981Y0064220D01*
X0140604Y0064220D01*
X0139981Y0065465D02*
X0139981Y0066087D01*
X0137945Y0063598D02*
X0137323Y0064220D01*
X0136078Y0064220D01*
X0135456Y0063598D01*
X0135456Y0062975D01*
X0137945Y0062975D01*
X0137945Y0062353D02*
X0137945Y0063598D01*
X0137945Y0062353D02*
X0137323Y0061731D01*
X0136078Y0061731D01*
X0133958Y0061731D02*
X0132713Y0061731D01*
X0133335Y0061731D02*
X0133335Y0065465D01*
X0133958Y0065465D01*
X0166276Y0068227D02*
X0167520Y0068227D01*
X0166898Y0068227D02*
X0166898Y0070716D01*
X0167520Y0070716D01*
X0166898Y0071961D02*
X0166898Y0072583D01*
X0169019Y0070716D02*
X0170886Y0070716D01*
X0171508Y0070094D01*
X0170886Y0069471D01*
X0169641Y0069471D01*
X0169019Y0068849D01*
X0169641Y0068227D01*
X0171508Y0068227D01*
X0173007Y0069471D02*
X0175496Y0069471D01*
X0175496Y0068849D02*
X0175496Y0070094D01*
X0174873Y0070716D01*
X0173629Y0070716D01*
X0173007Y0070094D01*
X0173007Y0069471D01*
X0173629Y0068227D02*
X0174873Y0068227D01*
X0175496Y0068849D01*
X0176994Y0068849D02*
X0176994Y0071338D01*
X0177617Y0071961D01*
X0179483Y0071961D01*
X0179483Y0068227D01*
X0177617Y0068227D01*
X0176994Y0068849D01*
X0191605Y0119311D02*
X0193740Y0119311D01*
X0194808Y0120378D01*
X0190538Y0124648D01*
X0190538Y0120378D01*
X0191605Y0119311D01*
X0194808Y0120378D02*
X0194808Y0124648D01*
X0193740Y0125716D01*
X0191605Y0125716D01*
X0190538Y0124648D01*
X0196983Y0124648D02*
X0196983Y0123581D01*
X0201253Y0119311D01*
X0196983Y0119311D01*
X0203429Y0119311D02*
X0207699Y0119311D01*
X0203429Y0123581D01*
X0203429Y0124648D01*
X0204496Y0125716D01*
X0206631Y0125716D01*
X0207699Y0124648D01*
X0212009Y0125716D02*
X0212009Y0119311D01*
X0214144Y0119311D02*
X0209874Y0119311D01*
X0214144Y0123581D02*
X0212009Y0125716D01*
X0216320Y0124648D02*
X0216320Y0122513D01*
X0217387Y0121446D01*
X0220590Y0121446D01*
X0218455Y0121446D02*
X0216320Y0119311D01*
X0220590Y0119311D02*
X0220590Y0125716D01*
X0217387Y0125716D01*
X0216320Y0124648D01*
X0222765Y0124648D02*
X0223833Y0125716D01*
X0225968Y0125716D01*
X0227035Y0124648D01*
X0227035Y0120378D01*
X0225968Y0119311D01*
X0223833Y0119311D01*
X0222765Y0120378D01*
X0201253Y0124648D02*
X0200186Y0125716D01*
X0198051Y0125716D01*
X0196983Y0124648D01*
X0185902Y0146085D02*
X0174902Y0146085D01*
X0174842Y0146087D01*
X0174781Y0146092D01*
X0174722Y0146101D01*
X0174663Y0146114D01*
X0174604Y0146130D01*
X0174547Y0146150D01*
X0174492Y0146173D01*
X0174437Y0146200D01*
X0174385Y0146229D01*
X0174334Y0146262D01*
X0174285Y0146298D01*
X0174239Y0146336D01*
X0174195Y0146378D01*
X0174153Y0146422D01*
X0174115Y0146468D01*
X0174079Y0146517D01*
X0174046Y0146568D01*
X0174017Y0146620D01*
X0173990Y0146675D01*
X0173967Y0146730D01*
X0173947Y0146787D01*
X0173931Y0146846D01*
X0173918Y0146905D01*
X0173909Y0146964D01*
X0173904Y0147025D01*
X0173902Y0147085D01*
X0173902Y0153085D01*
X0173904Y0153145D01*
X0173909Y0153206D01*
X0173918Y0153265D01*
X0173931Y0153324D01*
X0173947Y0153383D01*
X0173967Y0153440D01*
X0173990Y0153495D01*
X0174017Y0153550D01*
X0174046Y0153602D01*
X0174079Y0153653D01*
X0174115Y0153702D01*
X0174153Y0153748D01*
X0174195Y0153792D01*
X0174239Y0153834D01*
X0174285Y0153872D01*
X0174334Y0153908D01*
X0174385Y0153941D01*
X0174437Y0153970D01*
X0174492Y0153997D01*
X0174547Y0154020D01*
X0174604Y0154040D01*
X0174663Y0154056D01*
X0174722Y0154069D01*
X0174781Y0154078D01*
X0174842Y0154083D01*
X0174902Y0154085D01*
X0185902Y0154085D01*
X0185962Y0154083D01*
X0186023Y0154078D01*
X0186082Y0154069D01*
X0186141Y0154056D01*
X0186200Y0154040D01*
X0186257Y0154020D01*
X0186312Y0153997D01*
X0186367Y0153970D01*
X0186419Y0153941D01*
X0186470Y0153908D01*
X0186519Y0153872D01*
X0186565Y0153834D01*
X0186609Y0153792D01*
X0186651Y0153748D01*
X0186689Y0153702D01*
X0186725Y0153653D01*
X0186758Y0153602D01*
X0186787Y0153550D01*
X0186814Y0153495D01*
X0186837Y0153440D01*
X0186857Y0153383D01*
X0186873Y0153324D01*
X0186886Y0153265D01*
X0186895Y0153206D01*
X0186900Y0153145D01*
X0186902Y0153085D01*
X0186902Y0147085D01*
X0186900Y0147025D01*
X0186895Y0146964D01*
X0186886Y0146905D01*
X0186873Y0146846D01*
X0186857Y0146787D01*
X0186837Y0146730D01*
X0186814Y0146675D01*
X0186787Y0146620D01*
X0186758Y0146568D01*
X0186725Y0146517D01*
X0186689Y0146468D01*
X0186651Y0146422D01*
X0186609Y0146378D01*
X0186565Y0146336D01*
X0186519Y0146298D01*
X0186470Y0146262D01*
X0186419Y0146229D01*
X0186367Y0146200D01*
X0186312Y0146173D01*
X0186257Y0146150D01*
X0186200Y0146130D01*
X0186141Y0146114D01*
X0186082Y0146101D01*
X0186023Y0146092D01*
X0185962Y0146087D01*
X0185902Y0146085D01*
X0334582Y0073110D02*
X0334582Y0071408D01*
X0334582Y0073110D02*
X0335149Y0073677D01*
X0336851Y0073677D01*
X0336851Y0071408D01*
X0338265Y0072543D02*
X0340534Y0072543D01*
X0340534Y0073110D02*
X0340534Y0071975D01*
X0339967Y0071408D01*
X0338832Y0071408D01*
X0338265Y0072543D02*
X0338265Y0073110D01*
X0338832Y0073677D01*
X0339967Y0073677D01*
X0340534Y0073110D01*
X0341948Y0073110D02*
X0341948Y0071975D01*
X0342515Y0071408D01*
X0344217Y0071408D01*
X0344217Y0070274D02*
X0344217Y0073677D01*
X0342515Y0073677D01*
X0341948Y0073110D01*
X0345631Y0074244D02*
X0346199Y0074811D01*
X0347333Y0074811D01*
X0347900Y0074244D01*
X0347900Y0071975D01*
X0347333Y0071408D01*
X0346199Y0071408D01*
X0345631Y0071975D01*
X0345631Y0074244D01*
X0341948Y0068811D02*
X0341948Y0065408D01*
X0343650Y0065408D01*
X0344217Y0065975D01*
X0344217Y0067110D01*
X0343650Y0067677D01*
X0341948Y0067677D01*
X0340534Y0067677D02*
X0340534Y0065975D01*
X0339967Y0065408D01*
X0339399Y0065975D01*
X0338832Y0065408D01*
X0338265Y0065975D01*
X0338265Y0067677D01*
X0336284Y0067677D02*
X0335149Y0067677D01*
X0334582Y0067110D01*
X0334582Y0065408D01*
X0336284Y0065408D01*
X0336851Y0065975D01*
X0336284Y0066543D01*
X0334582Y0066543D01*
X0333168Y0066543D02*
X0332033Y0067677D01*
X0331466Y0067677D01*
X0330098Y0067110D02*
X0329531Y0067677D01*
X0328397Y0067677D01*
X0327830Y0067110D01*
X0327830Y0066543D01*
X0330098Y0066543D01*
X0330098Y0067110D02*
X0330098Y0065975D01*
X0329531Y0065408D01*
X0328397Y0065408D01*
X0333168Y0065408D02*
X0333168Y0067677D01*
X0345585Y0067677D02*
X0346152Y0067677D01*
X0347286Y0066543D01*
X0347286Y0067677D02*
X0347286Y0065408D01*
X0348701Y0065408D02*
X0348701Y0067110D01*
X0349268Y0067677D01*
X0350402Y0067677D01*
X0350402Y0066543D02*
X0348701Y0066543D01*
X0348701Y0065408D02*
X0350402Y0065408D01*
X0350969Y0065975D01*
X0350402Y0066543D01*
X0352384Y0067110D02*
X0354653Y0067110D01*
X0354653Y0068811D02*
X0354653Y0065408D01*
X0352384Y0065408D02*
X0352384Y0068811D01*
X0362106Y0068699D02*
X0362106Y0066099D01*
X0365106Y0065599D01*
X0366106Y0062899D02*
X0364406Y0060499D01*
X0366306Y0058599D01*
X0368706Y0060299D01*
X0369706Y0059699D01*
X0371606Y0064199D01*
X0366106Y0062893D02*
X0366010Y0063059D01*
X0365917Y0063226D01*
X0365829Y0063396D01*
X0365745Y0063568D01*
X0365665Y0063741D01*
X0365589Y0063917D01*
X0365517Y0064094D01*
X0365450Y0064273D01*
X0365386Y0064454D01*
X0365327Y0064636D01*
X0365273Y0064819D01*
X0365222Y0065004D01*
X0365176Y0065189D01*
X0365135Y0065376D01*
X0365098Y0065564D01*
X0365106Y0069299D02*
X0362106Y0068699D01*
X0366206Y0071799D02*
X0364406Y0074399D01*
X0366306Y0076199D01*
X0368906Y0074399D01*
X0371406Y0075399D02*
X0371906Y0078599D01*
X0374606Y0078599D01*
X0375106Y0075399D01*
X0377606Y0074399D02*
X0380206Y0076199D01*
X0382106Y0074399D01*
X0380306Y0071799D01*
X0381406Y0069299D02*
X0384406Y0068699D01*
X0384406Y0066099D01*
X0381406Y0065599D01*
X0380406Y0062899D02*
X0382006Y0060499D01*
X0380206Y0058599D01*
X0377806Y0060299D01*
X0376806Y0059699D01*
X0374806Y0064199D01*
X0380373Y0062931D02*
X0380476Y0063107D01*
X0380575Y0063286D01*
X0380669Y0063467D01*
X0380759Y0063650D01*
X0380844Y0063836D01*
X0380925Y0064023D01*
X0381001Y0064213D01*
X0381072Y0064404D01*
X0381139Y0064597D01*
X0381200Y0064792D01*
X0381258Y0064988D01*
X0381310Y0065185D01*
X0381357Y0065383D01*
X0381400Y0065583D01*
X0377572Y0074435D02*
X0377400Y0074535D01*
X0377225Y0074632D01*
X0377049Y0074724D01*
X0376870Y0074812D01*
X0376689Y0074896D01*
X0376506Y0074975D01*
X0376322Y0075050D01*
X0376135Y0075121D01*
X0375947Y0075187D01*
X0375758Y0075248D01*
X0375567Y0075305D01*
X0375374Y0075358D01*
X0375181Y0075405D01*
X0374806Y0064299D02*
X0374913Y0064354D01*
X0375019Y0064411D01*
X0375122Y0064473D01*
X0375224Y0064537D01*
X0375323Y0064605D01*
X0375420Y0064676D01*
X0375515Y0064750D01*
X0375607Y0064827D01*
X0375697Y0064908D01*
X0375784Y0064991D01*
X0375868Y0065077D01*
X0375949Y0065165D01*
X0376027Y0065257D01*
X0376103Y0065351D01*
X0376175Y0065447D01*
X0376244Y0065545D01*
X0376310Y0065646D01*
X0376372Y0065749D01*
X0376431Y0065854D01*
X0376487Y0065960D01*
X0376539Y0066069D01*
X0376587Y0066179D01*
X0376632Y0066291D01*
X0376673Y0066404D01*
X0376710Y0066518D01*
X0376744Y0066634D01*
X0376773Y0066750D01*
X0376799Y0066868D01*
X0376821Y0066986D01*
X0376840Y0067105D01*
X0376854Y0067224D01*
X0376864Y0067344D01*
X0376871Y0067464D01*
X0376873Y0067585D01*
X0376871Y0067705D01*
X0376866Y0067825D01*
X0376857Y0067945D01*
X0376843Y0068065D01*
X0376826Y0068184D01*
X0376805Y0068302D01*
X0376780Y0068420D01*
X0376751Y0068537D01*
X0376718Y0068652D01*
X0376682Y0068767D01*
X0376642Y0068880D01*
X0376598Y0068992D01*
X0376550Y0069103D01*
X0376499Y0069212D01*
X0376445Y0069319D01*
X0376386Y0069424D01*
X0376325Y0069528D01*
X0376260Y0069629D01*
X0376192Y0069728D01*
X0376120Y0069825D01*
X0376046Y0069919D01*
X0375968Y0070011D01*
X0375888Y0070100D01*
X0375804Y0070187D01*
X0375718Y0070271D01*
X0375629Y0070352D01*
X0375537Y0070430D01*
X0375443Y0070505D01*
X0375347Y0070576D01*
X0375248Y0070645D01*
X0375147Y0070710D01*
X0375044Y0070772D01*
X0374939Y0070831D01*
X0374832Y0070886D01*
X0374723Y0070938D01*
X0374613Y0070985D01*
X0374501Y0071030D01*
X0374388Y0071070D01*
X0374273Y0071107D01*
X0374157Y0071140D01*
X0374041Y0071170D01*
X0373923Y0071195D01*
X0373805Y0071217D01*
X0373686Y0071234D01*
X0373566Y0071248D01*
X0373446Y0071258D01*
X0373326Y0071264D01*
X0373206Y0071266D01*
X0373086Y0071264D01*
X0372966Y0071258D01*
X0372846Y0071248D01*
X0372726Y0071234D01*
X0372607Y0071217D01*
X0372489Y0071195D01*
X0372371Y0071170D01*
X0372255Y0071140D01*
X0372139Y0071107D01*
X0372024Y0071070D01*
X0371911Y0071030D01*
X0371799Y0070985D01*
X0371689Y0070938D01*
X0371580Y0070886D01*
X0371473Y0070831D01*
X0371368Y0070772D01*
X0371265Y0070710D01*
X0371164Y0070645D01*
X0371065Y0070576D01*
X0370969Y0070505D01*
X0370875Y0070430D01*
X0370783Y0070352D01*
X0370694Y0070271D01*
X0370608Y0070187D01*
X0370524Y0070100D01*
X0370444Y0070011D01*
X0370366Y0069919D01*
X0370292Y0069825D01*
X0370220Y0069728D01*
X0370152Y0069629D01*
X0370087Y0069528D01*
X0370026Y0069424D01*
X0369967Y0069319D01*
X0369913Y0069212D01*
X0369862Y0069103D01*
X0369814Y0068992D01*
X0369770Y0068880D01*
X0369730Y0068767D01*
X0369694Y0068652D01*
X0369661Y0068537D01*
X0369632Y0068420D01*
X0369607Y0068302D01*
X0369586Y0068184D01*
X0369569Y0068065D01*
X0369555Y0067945D01*
X0369546Y0067825D01*
X0369541Y0067705D01*
X0369539Y0067585D01*
X0369541Y0067464D01*
X0369548Y0067344D01*
X0369558Y0067224D01*
X0369572Y0067105D01*
X0369591Y0066986D01*
X0369613Y0066868D01*
X0369639Y0066750D01*
X0369668Y0066634D01*
X0369702Y0066518D01*
X0369739Y0066404D01*
X0369780Y0066291D01*
X0369825Y0066179D01*
X0369873Y0066069D01*
X0369925Y0065960D01*
X0369981Y0065854D01*
X0370040Y0065749D01*
X0370102Y0065646D01*
X0370168Y0065545D01*
X0370237Y0065447D01*
X0370309Y0065351D01*
X0370385Y0065257D01*
X0370463Y0065165D01*
X0370544Y0065077D01*
X0370628Y0064991D01*
X0370715Y0064908D01*
X0370805Y0064827D01*
X0370897Y0064750D01*
X0370992Y0064676D01*
X0371089Y0064605D01*
X0371188Y0064537D01*
X0371290Y0064473D01*
X0371393Y0064411D01*
X0371499Y0064354D01*
X0371606Y0064299D01*
X0365116Y0069299D02*
X0365166Y0069487D01*
X0365221Y0069674D01*
X0365280Y0069860D01*
X0365344Y0070044D01*
X0365412Y0070227D01*
X0365485Y0070408D01*
X0365562Y0070587D01*
X0365643Y0070764D01*
X0365729Y0070940D01*
X0365818Y0071113D01*
X0365912Y0071284D01*
X0366010Y0071452D01*
X0366112Y0071619D01*
X0366217Y0071782D01*
X0368869Y0074416D02*
X0369034Y0074514D01*
X0369202Y0074608D01*
X0369372Y0074698D01*
X0369544Y0074785D01*
X0369717Y0074867D01*
X0369893Y0074946D01*
X0370070Y0075020D01*
X0370249Y0075090D01*
X0370430Y0075156D01*
X0370612Y0075218D01*
X0370795Y0075276D01*
X0370980Y0075330D01*
X0371166Y0075379D01*
X0371353Y0075424D01*
X0380298Y0071745D02*
X0380398Y0071583D01*
X0380495Y0071418D01*
X0380588Y0071251D01*
X0380676Y0071082D01*
X0380761Y0070912D01*
X0380842Y0070739D01*
X0380919Y0070564D01*
X0380992Y0070388D01*
X0381061Y0070210D01*
X0381126Y0070030D01*
X0381187Y0069850D01*
X0381243Y0069667D01*
X0381296Y0069484D01*
X0381344Y0069299D01*
X0188066Y0247502D02*
X0188066Y0253502D01*
X0188064Y0253562D01*
X0188059Y0253623D01*
X0188050Y0253682D01*
X0188037Y0253741D01*
X0188021Y0253800D01*
X0188001Y0253857D01*
X0187978Y0253912D01*
X0187951Y0253967D01*
X0187922Y0254019D01*
X0187889Y0254070D01*
X0187853Y0254119D01*
X0187815Y0254165D01*
X0187773Y0254209D01*
X0187729Y0254251D01*
X0187683Y0254289D01*
X0187634Y0254325D01*
X0187583Y0254358D01*
X0187531Y0254387D01*
X0187476Y0254414D01*
X0187421Y0254437D01*
X0187364Y0254457D01*
X0187305Y0254473D01*
X0187246Y0254486D01*
X0187187Y0254495D01*
X0187126Y0254500D01*
X0187066Y0254502D01*
X0176066Y0254502D01*
X0176006Y0254500D01*
X0175945Y0254495D01*
X0175886Y0254486D01*
X0175827Y0254473D01*
X0175768Y0254457D01*
X0175711Y0254437D01*
X0175656Y0254414D01*
X0175601Y0254387D01*
X0175549Y0254358D01*
X0175498Y0254325D01*
X0175449Y0254289D01*
X0175403Y0254251D01*
X0175359Y0254209D01*
X0175317Y0254165D01*
X0175279Y0254119D01*
X0175243Y0254070D01*
X0175210Y0254019D01*
X0175181Y0253967D01*
X0175154Y0253912D01*
X0175131Y0253857D01*
X0175111Y0253800D01*
X0175095Y0253741D01*
X0175082Y0253682D01*
X0175073Y0253623D01*
X0175068Y0253562D01*
X0175066Y0253502D01*
X0175066Y0247502D01*
X0175068Y0247442D01*
X0175073Y0247381D01*
X0175082Y0247322D01*
X0175095Y0247263D01*
X0175111Y0247204D01*
X0175131Y0247147D01*
X0175154Y0247092D01*
X0175181Y0247037D01*
X0175210Y0246985D01*
X0175243Y0246934D01*
X0175279Y0246885D01*
X0175317Y0246839D01*
X0175359Y0246795D01*
X0175403Y0246753D01*
X0175449Y0246715D01*
X0175498Y0246679D01*
X0175549Y0246646D01*
X0175601Y0246617D01*
X0175656Y0246590D01*
X0175711Y0246567D01*
X0175768Y0246547D01*
X0175827Y0246531D01*
X0175886Y0246518D01*
X0175945Y0246509D01*
X0176006Y0246504D01*
X0176066Y0246502D01*
X0187066Y0246502D01*
X0187126Y0246504D01*
X0187187Y0246509D01*
X0187246Y0246518D01*
X0187305Y0246531D01*
X0187364Y0246547D01*
X0187421Y0246567D01*
X0187476Y0246590D01*
X0187531Y0246617D01*
X0187583Y0246646D01*
X0187634Y0246679D01*
X0187683Y0246715D01*
X0187729Y0246753D01*
X0187773Y0246795D01*
X0187815Y0246839D01*
X0187853Y0246885D01*
X0187889Y0246934D01*
X0187922Y0246985D01*
X0187951Y0247037D01*
X0187978Y0247092D01*
X0188001Y0247147D01*
X0188021Y0247204D01*
X0188037Y0247263D01*
X0188050Y0247322D01*
X0188059Y0247381D01*
X0188064Y0247442D01*
X0188066Y0247502D01*
D12*
X0170816Y0290740D02*
X0416803Y0290740D01*
X0416605Y0304054D02*
X0171619Y0304054D01*
D13*
X0240616Y0324672D02*
X0243452Y0321836D01*
X0249123Y0321836D01*
X0251959Y0324672D01*
X0251959Y0336015D01*
X0249123Y0338851D01*
X0243452Y0338851D01*
X0240616Y0336015D01*
X0259032Y0336015D02*
X0261867Y0338851D01*
X0270375Y0338851D01*
X0270375Y0321836D01*
X0261867Y0321836D01*
X0259032Y0324672D01*
X0259032Y0336015D01*
X0277447Y0330344D02*
X0277447Y0321836D01*
X0288790Y0321836D02*
X0288790Y0333179D01*
X0280283Y0333179D01*
X0277447Y0330344D01*
X0295863Y0330344D02*
X0295863Y0324672D01*
X0298699Y0321836D01*
X0304370Y0321836D01*
X0307206Y0324672D01*
X0307206Y0330344D01*
X0304370Y0333179D01*
X0298699Y0333179D01*
X0295863Y0330344D01*
X0314279Y0330344D02*
X0314279Y0321836D01*
X0319950Y0321836D02*
X0319950Y0330344D01*
X0317114Y0333179D01*
X0314279Y0330344D01*
X0319950Y0330344D02*
X0322786Y0333179D01*
X0325622Y0333179D01*
X0325622Y0321836D01*
X0332694Y0327508D02*
X0344037Y0327508D01*
X0344037Y0324672D02*
X0344037Y0330344D01*
X0341202Y0333179D01*
X0335530Y0333179D01*
X0332694Y0330344D01*
X0332694Y0327508D01*
X0335530Y0321836D02*
X0341202Y0321836D01*
X0344037Y0324672D01*
D14*
X0340343Y0300591D02*
X0340343Y0295887D01*
X0340343Y0298239D02*
X0339559Y0299023D01*
X0337991Y0299023D01*
X0337207Y0298239D01*
X0337207Y0295887D01*
X0335279Y0296671D02*
X0335279Y0298239D01*
X0334495Y0299023D01*
X0332927Y0299023D01*
X0332143Y0298239D01*
X0332143Y0297455D01*
X0335279Y0297455D01*
X0335279Y0296671D02*
X0334495Y0295887D01*
X0332927Y0295887D01*
X0330214Y0295887D02*
X0328646Y0295887D01*
X0329430Y0295887D02*
X0329430Y0300591D01*
X0330214Y0300591D01*
X0326838Y0299023D02*
X0324486Y0299023D01*
X0323702Y0298239D01*
X0323702Y0296671D01*
X0324486Y0295887D01*
X0326838Y0295887D01*
X0326838Y0294319D02*
X0326838Y0299023D01*
X0321774Y0298239D02*
X0320990Y0299023D01*
X0318638Y0299023D01*
X0319422Y0297455D02*
X0318638Y0296671D01*
X0319422Y0295887D01*
X0321774Y0295887D01*
X0320990Y0297455D02*
X0321774Y0298239D01*
X0320990Y0297455D02*
X0319422Y0297455D01*
X0311645Y0296671D02*
X0311645Y0299023D01*
X0311645Y0296671D02*
X0310861Y0295887D01*
X0308509Y0295887D01*
X0308509Y0299023D01*
X0306581Y0298239D02*
X0305797Y0299023D01*
X0303445Y0299023D01*
X0304229Y0297455D02*
X0303445Y0296671D01*
X0304229Y0295887D01*
X0306581Y0295887D01*
X0305797Y0297455D02*
X0306581Y0298239D01*
X0305797Y0297455D02*
X0304229Y0297455D01*
X0296452Y0295887D02*
X0294884Y0295887D01*
X0295668Y0295887D02*
X0295668Y0300591D01*
X0296452Y0300591D01*
X0293076Y0299023D02*
X0292292Y0299023D01*
X0292292Y0295887D01*
X0293076Y0295887D02*
X0291508Y0295887D01*
X0288132Y0295887D02*
X0286564Y0299023D01*
X0284635Y0298239D02*
X0283851Y0299023D01*
X0282283Y0299023D01*
X0281499Y0298239D01*
X0281499Y0297455D01*
X0284635Y0297455D01*
X0284635Y0296671D02*
X0284635Y0298239D01*
X0284635Y0296671D02*
X0283851Y0295887D01*
X0282283Y0295887D01*
X0288132Y0295887D02*
X0289700Y0299023D01*
X0292292Y0300591D02*
X0292292Y0301375D01*
X0274507Y0299023D02*
X0274507Y0296671D01*
X0273723Y0295887D01*
X0272939Y0296671D01*
X0272155Y0295887D01*
X0271371Y0296671D01*
X0271371Y0299023D01*
X0269442Y0299023D02*
X0268658Y0299023D01*
X0268658Y0295887D01*
X0269442Y0295887D02*
X0267874Y0295887D01*
X0265282Y0296671D02*
X0265282Y0299807D01*
X0266066Y0299023D02*
X0264498Y0299023D01*
X0262690Y0298239D02*
X0261906Y0299023D01*
X0260338Y0299023D01*
X0259554Y0298239D01*
X0259554Y0295887D01*
X0257626Y0295887D02*
X0256058Y0295887D01*
X0256842Y0295887D02*
X0256842Y0299023D01*
X0257626Y0299023D01*
X0256842Y0300591D02*
X0256842Y0301375D01*
X0254249Y0299023D02*
X0251897Y0299023D01*
X0251113Y0298239D01*
X0251113Y0295887D01*
X0254249Y0295887D02*
X0254249Y0299023D01*
X0262690Y0300591D02*
X0262690Y0295887D01*
X0264498Y0295887D02*
X0265282Y0296671D01*
X0268658Y0300591D02*
X0268658Y0301375D01*
X0244121Y0298239D02*
X0243337Y0299023D01*
X0241769Y0299023D01*
X0240985Y0298239D01*
X0240985Y0297455D01*
X0244121Y0297455D01*
X0244121Y0296671D02*
X0244121Y0298239D01*
X0244121Y0296671D02*
X0243337Y0295887D01*
X0241769Y0295887D01*
X0239057Y0296671D02*
X0238273Y0295887D01*
X0235921Y0295887D01*
X0233992Y0296671D02*
X0233208Y0295887D01*
X0231640Y0295887D01*
X0230856Y0296671D01*
X0230856Y0298239D01*
X0231640Y0299023D01*
X0233208Y0299023D01*
X0233992Y0298239D01*
X0233992Y0296671D01*
X0235921Y0299023D02*
X0238273Y0299023D01*
X0239057Y0298239D01*
X0239057Y0296671D01*
X0228928Y0295887D02*
X0227360Y0295887D01*
X0228144Y0295887D02*
X0228144Y0300591D01*
X0228928Y0300591D01*
X0225552Y0298239D02*
X0224768Y0299023D01*
X0223200Y0299023D01*
X0222416Y0298239D01*
X0222416Y0296671D01*
X0223200Y0295887D01*
X0224768Y0295887D01*
X0225552Y0296671D01*
X0225552Y0298239D01*
X0220487Y0298239D02*
X0219703Y0299023D01*
X0217351Y0299023D01*
X0217351Y0295103D01*
X0218135Y0294319D01*
X0218919Y0294319D01*
X0219703Y0295887D02*
X0217351Y0295887D01*
X0215423Y0295887D02*
X0213855Y0295887D01*
X0214639Y0295887D02*
X0214639Y0299023D01*
X0215423Y0299023D01*
X0214639Y0300591D02*
X0214639Y0301375D01*
X0212047Y0298239D02*
X0211263Y0299023D01*
X0208911Y0299023D01*
X0206198Y0299023D02*
X0204630Y0299023D01*
X0203846Y0298239D01*
X0203846Y0295887D01*
X0206198Y0295887D01*
X0206982Y0296671D01*
X0206198Y0297455D01*
X0203846Y0297455D01*
X0201918Y0295887D02*
X0200350Y0295887D01*
X0201134Y0295887D02*
X0201134Y0300591D01*
X0201918Y0300591D01*
X0208911Y0295887D02*
X0211263Y0295887D01*
X0212047Y0296671D01*
X0212047Y0298239D01*
X0219703Y0295887D02*
X0220487Y0296671D01*
X0220487Y0298239D01*
X0193478Y0300591D02*
X0192694Y0300591D01*
X0192694Y0295887D01*
X0193478Y0295887D02*
X0191910Y0295887D01*
X0190101Y0295887D02*
X0188533Y0295887D01*
X0189317Y0295887D02*
X0189317Y0299023D01*
X0190101Y0299023D01*
X0189317Y0300591D02*
X0189317Y0301375D01*
X0186725Y0299023D02*
X0185941Y0299023D01*
X0185157Y0298239D01*
X0184373Y0299023D01*
X0183589Y0298239D01*
X0183589Y0295887D01*
X0185157Y0295887D02*
X0185157Y0298239D01*
X0186725Y0299023D02*
X0186725Y0295887D01*
X0181661Y0295887D02*
X0180093Y0295887D01*
X0180877Y0295887D02*
X0180877Y0299023D01*
X0181661Y0299023D01*
X0180877Y0300591D02*
X0180877Y0301375D01*
X0178285Y0299023D02*
X0176717Y0299023D01*
X0177501Y0299807D02*
X0177501Y0296671D01*
X0176717Y0295887D01*
X0174908Y0295887D02*
X0172556Y0295887D01*
X0171772Y0296671D01*
X0172556Y0297455D01*
X0174124Y0297455D01*
X0174908Y0298239D01*
X0174124Y0299023D01*
X0171772Y0299023D01*
X0347216Y0299023D02*
X0348784Y0299023D01*
X0348000Y0299807D02*
X0348000Y0296671D01*
X0347216Y0295887D01*
X0350712Y0295887D02*
X0353064Y0295887D01*
X0353848Y0296671D01*
X0353064Y0297455D01*
X0350712Y0297455D01*
X0350712Y0298239D02*
X0350712Y0295887D01*
X0350712Y0298239D02*
X0351496Y0299023D01*
X0353064Y0299023D01*
X0355776Y0298239D02*
X0355776Y0295887D01*
X0355776Y0298239D02*
X0356560Y0299023D01*
X0358128Y0299023D01*
X0358912Y0298239D01*
X0360720Y0299023D02*
X0362288Y0299023D01*
X0361504Y0299807D02*
X0361504Y0296671D01*
X0360720Y0295887D01*
X0358912Y0295887D02*
X0358912Y0300591D01*
X0369281Y0299023D02*
X0369281Y0295103D01*
X0370065Y0294319D01*
X0370849Y0294319D01*
X0371633Y0295887D02*
X0369281Y0295887D01*
X0371633Y0295887D02*
X0372417Y0296671D01*
X0372417Y0299023D01*
X0374345Y0299023D02*
X0376697Y0299023D01*
X0377481Y0298239D01*
X0377481Y0296671D01*
X0376697Y0295887D01*
X0374345Y0295887D01*
X0374345Y0295103D02*
X0374345Y0299023D01*
X0379410Y0298239D02*
X0380194Y0299023D01*
X0381762Y0299023D01*
X0382546Y0298239D01*
X0382546Y0296671D01*
X0381762Y0295887D01*
X0380194Y0295887D01*
X0379410Y0296671D01*
X0379410Y0298239D01*
X0375913Y0294319D02*
X0375129Y0294319D01*
X0374345Y0295103D01*
X0384354Y0295887D02*
X0385922Y0295887D01*
X0385138Y0295887D02*
X0385138Y0300591D01*
X0385922Y0300591D01*
X0387850Y0298239D02*
X0388634Y0299023D01*
X0390202Y0299023D01*
X0390986Y0298239D01*
X0390986Y0296671D01*
X0390202Y0295887D01*
X0388634Y0295887D01*
X0387850Y0296671D01*
X0387850Y0298239D01*
X0392914Y0298239D02*
X0393698Y0299023D01*
X0396051Y0299023D01*
X0396051Y0295887D01*
X0397979Y0295887D02*
X0397979Y0298239D01*
X0398763Y0299023D01*
X0400331Y0299023D01*
X0401115Y0298239D01*
X0403043Y0299023D02*
X0405395Y0299023D01*
X0406179Y0298239D01*
X0406179Y0296671D01*
X0405395Y0295887D01*
X0403043Y0295887D01*
X0401115Y0295887D02*
X0401115Y0300591D01*
X0408107Y0298239D02*
X0408107Y0297455D01*
X0411243Y0297455D01*
X0411243Y0298239D02*
X0410459Y0299023D01*
X0408891Y0299023D01*
X0408107Y0298239D01*
X0408891Y0295887D02*
X0410459Y0295887D01*
X0411243Y0296671D01*
X0411243Y0298239D01*
X0413172Y0300591D02*
X0416308Y0300591D01*
X0414740Y0300591D02*
X0414740Y0295887D01*
X0392914Y0295887D02*
X0392914Y0298239D01*
X0479787Y0294291D02*
X0480571Y0295075D01*
X0481355Y0294291D01*
X0481355Y0292723D01*
X0482139Y0291939D01*
X0482923Y0292723D01*
X0482923Y0295075D01*
X0479787Y0294291D02*
X0479787Y0291939D01*
X0479787Y0290131D02*
X0480571Y0289347D01*
X0483707Y0289347D01*
X0482923Y0288563D02*
X0482923Y0290131D01*
X0482139Y0286634D02*
X0479787Y0286634D01*
X0482139Y0286634D02*
X0482923Y0285850D01*
X0482923Y0283498D01*
X0479787Y0283498D01*
X0481355Y0281570D02*
X0481355Y0278434D01*
X0480571Y0278434D02*
X0482139Y0278434D01*
X0482923Y0279218D01*
X0482923Y0280786D01*
X0482139Y0281570D01*
X0481355Y0281570D01*
X0479787Y0280786D02*
X0479787Y0279218D01*
X0480571Y0278434D01*
X0479787Y0276506D02*
X0482139Y0276506D01*
X0482923Y0275722D01*
X0482923Y0273370D01*
X0479787Y0273370D01*
X0480571Y0271441D02*
X0482139Y0271441D01*
X0482923Y0270657D01*
X0482923Y0269089D01*
X0482139Y0268305D01*
X0480571Y0268305D01*
X0479787Y0269089D01*
X0479787Y0270657D01*
X0480571Y0271441D01*
X0480571Y0266377D02*
X0479787Y0265593D01*
X0479787Y0263241D01*
X0478219Y0263241D02*
X0482923Y0263241D01*
X0482923Y0265593D01*
X0482139Y0266377D01*
X0480571Y0266377D01*
X0479787Y0261313D02*
X0482139Y0261313D01*
X0482923Y0260529D01*
X0482139Y0259745D01*
X0479787Y0259745D01*
X0479787Y0258177D02*
X0482923Y0258177D01*
X0482923Y0258961D01*
X0482139Y0259745D01*
X0482139Y0256249D02*
X0480571Y0256249D01*
X0479787Y0255465D01*
X0479787Y0253897D01*
X0480571Y0253113D01*
X0482139Y0253113D01*
X0482923Y0253897D01*
X0482923Y0255465D01*
X0482139Y0256249D01*
X0482923Y0251184D02*
X0482923Y0248832D01*
X0482139Y0248048D01*
X0480571Y0248048D01*
X0479787Y0248832D01*
X0479787Y0251184D01*
X0480571Y0241056D02*
X0479787Y0240272D01*
X0479787Y0238704D01*
X0480571Y0237920D01*
X0482139Y0238704D02*
X0482139Y0240272D01*
X0481355Y0241056D01*
X0480571Y0241056D01*
X0482139Y0238704D02*
X0482923Y0237920D01*
X0483707Y0237920D01*
X0484491Y0238704D01*
X0484491Y0240272D01*
X0483707Y0241056D01*
X0484491Y0235991D02*
X0479787Y0235991D01*
X0482139Y0235991D02*
X0482139Y0232855D01*
X0482139Y0230927D02*
X0482923Y0230143D01*
X0482923Y0228575D01*
X0482139Y0227791D01*
X0480571Y0227791D01*
X0479787Y0228575D01*
X0479787Y0230143D01*
X0480571Y0230927D01*
X0482139Y0230927D01*
X0479787Y0232855D02*
X0484491Y0232855D01*
X0483707Y0225863D02*
X0482139Y0225863D01*
X0481355Y0225079D01*
X0481355Y0222727D01*
X0481355Y0224295D02*
X0479787Y0225863D01*
X0479787Y0222727D02*
X0484491Y0222727D01*
X0484491Y0225079D01*
X0483707Y0225863D01*
X0482139Y0215734D02*
X0482139Y0212598D01*
X0482923Y0205605D02*
X0482139Y0204821D01*
X0482139Y0202469D01*
X0484491Y0202469D02*
X0484491Y0204821D01*
X0483707Y0205605D01*
X0482923Y0205605D01*
X0482139Y0204821D02*
X0481355Y0205605D01*
X0480571Y0205605D01*
X0479787Y0204821D01*
X0479787Y0202469D01*
X0484491Y0202469D01*
X0483707Y0200541D02*
X0484491Y0199757D01*
X0484491Y0198189D01*
X0483707Y0197405D01*
X0480571Y0197405D01*
X0479787Y0198189D01*
X0479787Y0199757D01*
X0480571Y0200541D01*
X0482139Y0195477D02*
X0481355Y0194693D01*
X0481355Y0192341D01*
X0479787Y0192341D02*
X0484491Y0192341D01*
X0484491Y0194693D01*
X0483707Y0195477D01*
X0482139Y0195477D01*
X0482139Y0185348D02*
X0481355Y0185348D01*
X0481355Y0182212D01*
X0480571Y0182212D02*
X0482139Y0182212D01*
X0482923Y0182996D01*
X0482923Y0184564D01*
X0482139Y0185348D01*
X0479787Y0184564D02*
X0479787Y0182996D01*
X0480571Y0182212D01*
X0481355Y0180284D02*
X0481355Y0177148D01*
X0480571Y0177148D02*
X0482139Y0177148D01*
X0482923Y0177932D01*
X0482923Y0179500D01*
X0482139Y0180284D01*
X0481355Y0180284D01*
X0479787Y0179500D02*
X0479787Y0177932D01*
X0480571Y0177148D01*
X0482923Y0175279D02*
X0482923Y0174495D01*
X0481355Y0172927D01*
X0479787Y0172927D02*
X0482923Y0172927D01*
X0482139Y0171119D02*
X0482139Y0169551D01*
X0483707Y0170335D02*
X0484491Y0171119D01*
X0483707Y0170335D02*
X0479787Y0170335D01*
X0479787Y0162559D02*
X0479787Y0160207D01*
X0480571Y0159423D01*
X0482139Y0159423D01*
X0482923Y0160207D01*
X0482923Y0162559D01*
X0484491Y0162559D02*
X0479787Y0162559D01*
X0479787Y0157494D02*
X0479787Y0155142D01*
X0480571Y0154358D01*
X0481355Y0155142D01*
X0481355Y0157494D01*
X0482139Y0157494D02*
X0479787Y0157494D01*
X0482139Y0157494D02*
X0482923Y0156710D01*
X0482923Y0155142D01*
X0482139Y0152430D02*
X0481355Y0152430D01*
X0481355Y0149294D01*
X0480571Y0149294D02*
X0482139Y0149294D01*
X0482923Y0150078D01*
X0482923Y0151646D01*
X0482139Y0152430D01*
X0479787Y0151646D02*
X0479787Y0150078D01*
X0480571Y0149294D01*
X0479787Y0147366D02*
X0479787Y0144230D01*
X0484491Y0144230D01*
X0383710Y0107139D02*
X0383710Y0096139D01*
X0383708Y0096079D01*
X0383703Y0096018D01*
X0383694Y0095959D01*
X0383681Y0095900D01*
X0383665Y0095841D01*
X0383645Y0095784D01*
X0383622Y0095729D01*
X0383595Y0095674D01*
X0383566Y0095622D01*
X0383533Y0095571D01*
X0383497Y0095522D01*
X0383459Y0095476D01*
X0383417Y0095432D01*
X0383373Y0095390D01*
X0383327Y0095352D01*
X0383278Y0095316D01*
X0383227Y0095283D01*
X0383175Y0095254D01*
X0383120Y0095227D01*
X0383065Y0095204D01*
X0383008Y0095184D01*
X0382949Y0095168D01*
X0382890Y0095155D01*
X0382831Y0095146D01*
X0382770Y0095141D01*
X0382710Y0095139D01*
X0376710Y0095139D01*
X0376650Y0095141D01*
X0376589Y0095146D01*
X0376530Y0095155D01*
X0376471Y0095168D01*
X0376412Y0095184D01*
X0376355Y0095204D01*
X0376300Y0095227D01*
X0376245Y0095254D01*
X0376193Y0095283D01*
X0376142Y0095316D01*
X0376093Y0095352D01*
X0376047Y0095390D01*
X0376003Y0095432D01*
X0375961Y0095476D01*
X0375923Y0095522D01*
X0375887Y0095571D01*
X0375854Y0095622D01*
X0375825Y0095674D01*
X0375798Y0095729D01*
X0375775Y0095784D01*
X0375755Y0095841D01*
X0375739Y0095900D01*
X0375726Y0095959D01*
X0375717Y0096018D01*
X0375712Y0096079D01*
X0375710Y0096139D01*
X0375710Y0107139D01*
X0375712Y0107199D01*
X0375717Y0107260D01*
X0375726Y0107319D01*
X0375739Y0107378D01*
X0375755Y0107437D01*
X0375775Y0107494D01*
X0375798Y0107549D01*
X0375825Y0107604D01*
X0375854Y0107656D01*
X0375887Y0107707D01*
X0375923Y0107756D01*
X0375961Y0107802D01*
X0376003Y0107846D01*
X0376047Y0107888D01*
X0376093Y0107926D01*
X0376142Y0107962D01*
X0376193Y0107995D01*
X0376245Y0108024D01*
X0376300Y0108051D01*
X0376355Y0108074D01*
X0376412Y0108094D01*
X0376471Y0108110D01*
X0376530Y0108123D01*
X0376589Y0108132D01*
X0376650Y0108137D01*
X0376710Y0108139D01*
X0382710Y0108139D01*
X0382770Y0108137D01*
X0382831Y0108132D01*
X0382890Y0108123D01*
X0382949Y0108110D01*
X0383008Y0108094D01*
X0383065Y0108074D01*
X0383120Y0108051D01*
X0383175Y0108024D01*
X0383227Y0107995D01*
X0383278Y0107962D01*
X0383327Y0107926D01*
X0383373Y0107888D01*
X0383417Y0107846D01*
X0383459Y0107802D01*
X0383497Y0107756D01*
X0383533Y0107707D01*
X0383566Y0107656D01*
X0383595Y0107604D01*
X0383622Y0107549D01*
X0383645Y0107494D01*
X0383665Y0107437D01*
X0383681Y0107378D01*
X0383694Y0107319D01*
X0383703Y0107260D01*
X0383708Y0107199D01*
X0383710Y0107139D01*
X0343166Y0130941D02*
X0337166Y0130941D01*
X0337106Y0130943D01*
X0337045Y0130948D01*
X0336986Y0130957D01*
X0336927Y0130970D01*
X0336868Y0130986D01*
X0336811Y0131006D01*
X0336756Y0131029D01*
X0336701Y0131056D01*
X0336649Y0131085D01*
X0336598Y0131118D01*
X0336549Y0131154D01*
X0336503Y0131192D01*
X0336459Y0131234D01*
X0336417Y0131278D01*
X0336379Y0131324D01*
X0336343Y0131373D01*
X0336310Y0131424D01*
X0336281Y0131476D01*
X0336254Y0131531D01*
X0336231Y0131586D01*
X0336211Y0131643D01*
X0336195Y0131702D01*
X0336182Y0131761D01*
X0336173Y0131820D01*
X0336168Y0131881D01*
X0336166Y0131941D01*
X0336166Y0142941D01*
X0336168Y0143001D01*
X0336173Y0143062D01*
X0336182Y0143121D01*
X0336195Y0143180D01*
X0336211Y0143239D01*
X0336231Y0143296D01*
X0336254Y0143351D01*
X0336281Y0143406D01*
X0336310Y0143458D01*
X0336343Y0143509D01*
X0336379Y0143558D01*
X0336417Y0143604D01*
X0336459Y0143648D01*
X0336503Y0143690D01*
X0336549Y0143728D01*
X0336598Y0143764D01*
X0336649Y0143797D01*
X0336701Y0143826D01*
X0336756Y0143853D01*
X0336811Y0143876D01*
X0336868Y0143896D01*
X0336927Y0143912D01*
X0336986Y0143925D01*
X0337045Y0143934D01*
X0337106Y0143939D01*
X0337166Y0143941D01*
X0343166Y0143941D01*
X0343226Y0143939D01*
X0343287Y0143934D01*
X0343346Y0143925D01*
X0343405Y0143912D01*
X0343464Y0143896D01*
X0343521Y0143876D01*
X0343576Y0143853D01*
X0343631Y0143826D01*
X0343683Y0143797D01*
X0343734Y0143764D01*
X0343783Y0143728D01*
X0343829Y0143690D01*
X0343873Y0143648D01*
X0343915Y0143604D01*
X0343953Y0143558D01*
X0343989Y0143509D01*
X0344022Y0143458D01*
X0344051Y0143406D01*
X0344078Y0143351D01*
X0344101Y0143296D01*
X0344121Y0143239D01*
X0344137Y0143180D01*
X0344150Y0143121D01*
X0344159Y0143062D01*
X0344164Y0143001D01*
X0344166Y0142941D01*
X0344166Y0131941D01*
X0344164Y0131881D01*
X0344159Y0131820D01*
X0344150Y0131761D01*
X0344137Y0131702D01*
X0344121Y0131643D01*
X0344101Y0131586D01*
X0344078Y0131531D01*
X0344051Y0131476D01*
X0344022Y0131424D01*
X0343989Y0131373D01*
X0343953Y0131324D01*
X0343915Y0131278D01*
X0343873Y0131234D01*
X0343829Y0131192D01*
X0343783Y0131154D01*
X0343734Y0131118D01*
X0343683Y0131085D01*
X0343631Y0131056D01*
X0343576Y0131029D01*
X0343521Y0131006D01*
X0343464Y0130986D01*
X0343405Y0130970D01*
X0343346Y0130957D01*
X0343287Y0130948D01*
X0343226Y0130943D01*
X0343166Y0130941D01*
X0298210Y0133083D02*
X0298210Y0144083D01*
X0298208Y0144143D01*
X0298203Y0144204D01*
X0298194Y0144263D01*
X0298181Y0144322D01*
X0298165Y0144381D01*
X0298145Y0144438D01*
X0298122Y0144493D01*
X0298095Y0144548D01*
X0298066Y0144600D01*
X0298033Y0144651D01*
X0297997Y0144700D01*
X0297959Y0144746D01*
X0297917Y0144790D01*
X0297873Y0144832D01*
X0297827Y0144870D01*
X0297778Y0144906D01*
X0297727Y0144939D01*
X0297675Y0144968D01*
X0297620Y0144995D01*
X0297565Y0145018D01*
X0297508Y0145038D01*
X0297449Y0145054D01*
X0297390Y0145067D01*
X0297331Y0145076D01*
X0297270Y0145081D01*
X0297210Y0145083D01*
X0291210Y0145083D01*
X0291150Y0145081D01*
X0291089Y0145076D01*
X0291030Y0145067D01*
X0290971Y0145054D01*
X0290912Y0145038D01*
X0290855Y0145018D01*
X0290800Y0144995D01*
X0290745Y0144968D01*
X0290693Y0144939D01*
X0290642Y0144906D01*
X0290593Y0144870D01*
X0290547Y0144832D01*
X0290503Y0144790D01*
X0290461Y0144746D01*
X0290423Y0144700D01*
X0290387Y0144651D01*
X0290354Y0144600D01*
X0290325Y0144548D01*
X0290298Y0144493D01*
X0290275Y0144438D01*
X0290255Y0144381D01*
X0290239Y0144322D01*
X0290226Y0144263D01*
X0290217Y0144204D01*
X0290212Y0144143D01*
X0290210Y0144083D01*
X0290210Y0133083D01*
X0290212Y0133023D01*
X0290217Y0132962D01*
X0290226Y0132903D01*
X0290239Y0132844D01*
X0290255Y0132785D01*
X0290275Y0132728D01*
X0290298Y0132673D01*
X0290325Y0132618D01*
X0290354Y0132566D01*
X0290387Y0132515D01*
X0290423Y0132466D01*
X0290461Y0132420D01*
X0290503Y0132376D01*
X0290547Y0132334D01*
X0290593Y0132296D01*
X0290642Y0132260D01*
X0290693Y0132227D01*
X0290745Y0132198D01*
X0290800Y0132171D01*
X0290855Y0132148D01*
X0290912Y0132128D01*
X0290971Y0132112D01*
X0291030Y0132099D01*
X0291089Y0132090D01*
X0291150Y0132085D01*
X0291210Y0132083D01*
X0297210Y0132083D01*
X0297270Y0132085D01*
X0297331Y0132090D01*
X0297390Y0132099D01*
X0297449Y0132112D01*
X0297508Y0132128D01*
X0297565Y0132148D01*
X0297620Y0132171D01*
X0297675Y0132198D01*
X0297727Y0132227D01*
X0297778Y0132260D01*
X0297827Y0132296D01*
X0297873Y0132334D01*
X0297917Y0132376D01*
X0297959Y0132420D01*
X0297997Y0132466D01*
X0298033Y0132515D01*
X0298066Y0132566D01*
X0298095Y0132618D01*
X0298122Y0132673D01*
X0298145Y0132728D01*
X0298165Y0132785D01*
X0298181Y0132844D01*
X0298194Y0132903D01*
X0298203Y0132962D01*
X0298208Y0133023D01*
X0298210Y0133083D01*
X0290452Y0099192D02*
X0288483Y0099192D01*
X0290452Y0099192D02*
X0290452Y0083444D01*
X0288483Y0083444D01*
X0281790Y0083444D02*
X0266829Y0083444D01*
X0260137Y0083444D02*
X0258168Y0083444D01*
X0258168Y0099192D01*
X0260137Y0099192D01*
X0266829Y0099192D02*
X0281790Y0099192D01*
D15*
X0413081Y0225084D03*
D16*
X0305233Y0168034D02*
X0305233Y0165031D01*
X0305233Y0166533D02*
X0300729Y0166533D01*
X0300729Y0163430D02*
X0303731Y0163430D01*
X0305233Y0161929D01*
X0303731Y0160427D01*
X0300729Y0160427D01*
X0301479Y0158826D02*
X0300729Y0158075D01*
X0300729Y0155823D01*
X0305233Y0155823D01*
X0305233Y0158075D01*
X0304482Y0158826D01*
X0303731Y0158826D01*
X0302981Y0158075D01*
X0302981Y0155823D01*
X0302981Y0158075D02*
X0302230Y0158826D01*
X0301479Y0158826D01*
X0302981Y0160427D02*
X0302981Y0163430D01*
X0299978Y0154222D02*
X0299978Y0151220D01*
X0302230Y0149618D02*
X0305233Y0149618D01*
X0305233Y0146616D02*
X0302230Y0146616D01*
X0300729Y0148117D01*
X0302230Y0149618D01*
X0302230Y0145014D02*
X0301479Y0145014D01*
X0300729Y0144264D01*
X0300729Y0142762D01*
X0301479Y0142012D01*
X0301479Y0140460D02*
X0300729Y0140460D01*
X0300729Y0139710D01*
X0301479Y0139710D01*
X0301479Y0140460D01*
X0301479Y0138108D02*
X0300729Y0137358D01*
X0300729Y0135856D01*
X0301479Y0135106D01*
X0302981Y0136607D02*
X0302981Y0137358D01*
X0302230Y0138108D01*
X0301479Y0138108D01*
X0302981Y0137358D02*
X0303731Y0138108D01*
X0304482Y0138108D01*
X0305233Y0137358D01*
X0305233Y0135856D01*
X0304482Y0135106D01*
X0304482Y0142012D02*
X0305233Y0142762D01*
X0305233Y0144264D01*
X0304482Y0145014D01*
X0303731Y0145014D01*
X0302981Y0144264D01*
X0302230Y0145014D01*
X0302981Y0144264D02*
X0302981Y0143513D01*
X0329782Y0142707D02*
X0329782Y0139705D01*
X0332784Y0142707D01*
X0333535Y0142707D01*
X0334286Y0141957D01*
X0334286Y0140455D01*
X0333535Y0139705D01*
X0334286Y0138103D02*
X0334286Y0136602D01*
X0334286Y0137353D02*
X0330533Y0137353D01*
X0329782Y0136602D01*
X0329782Y0135851D01*
X0330533Y0135101D01*
X0330533Y0133499D02*
X0329782Y0132749D01*
X0329782Y0131247D01*
X0330533Y0130497D01*
X0332034Y0131247D02*
X0332034Y0132749D01*
X0331283Y0133499D01*
X0330533Y0133499D01*
X0332034Y0131247D02*
X0332784Y0130497D01*
X0333535Y0130497D01*
X0334286Y0131247D01*
X0334286Y0132749D01*
X0333535Y0133499D01*
X0315044Y0115578D02*
X0302446Y0115578D01*
X0302446Y0095893D01*
X0315044Y0095893D01*
X0315044Y0115578D01*
X0332586Y0106813D02*
X0332586Y0104313D01*
X0331336Y0105563D02*
X0333836Y0105563D01*
X0297075Y0094003D02*
X0297077Y0094076D01*
X0297083Y0094150D01*
X0297093Y0094222D01*
X0297107Y0094294D01*
X0297124Y0094366D01*
X0297146Y0094436D01*
X0297171Y0094505D01*
X0297200Y0094572D01*
X0297233Y0094638D01*
X0297269Y0094702D01*
X0297308Y0094763D01*
X0297351Y0094823D01*
X0297397Y0094880D01*
X0297446Y0094935D01*
X0297498Y0094987D01*
X0297553Y0095036D01*
X0297610Y0095082D01*
X0297670Y0095125D01*
X0297731Y0095164D01*
X0297795Y0095200D01*
X0297861Y0095233D01*
X0297928Y0095262D01*
X0297997Y0095287D01*
X0298067Y0095309D01*
X0298139Y0095326D01*
X0298211Y0095340D01*
X0298283Y0095350D01*
X0298357Y0095356D01*
X0298430Y0095358D01*
X0298503Y0095356D01*
X0298577Y0095350D01*
X0298649Y0095340D01*
X0298721Y0095326D01*
X0298793Y0095309D01*
X0298863Y0095287D01*
X0298932Y0095262D01*
X0298999Y0095233D01*
X0299065Y0095200D01*
X0299129Y0095164D01*
X0299190Y0095125D01*
X0299250Y0095082D01*
X0299307Y0095036D01*
X0299362Y0094987D01*
X0299414Y0094935D01*
X0299463Y0094880D01*
X0299509Y0094823D01*
X0299552Y0094763D01*
X0299591Y0094702D01*
X0299627Y0094638D01*
X0299660Y0094572D01*
X0299689Y0094505D01*
X0299714Y0094436D01*
X0299736Y0094366D01*
X0299753Y0094294D01*
X0299767Y0094222D01*
X0299777Y0094150D01*
X0299783Y0094076D01*
X0299785Y0094003D01*
X0299783Y0093930D01*
X0299777Y0093856D01*
X0299767Y0093784D01*
X0299753Y0093712D01*
X0299736Y0093640D01*
X0299714Y0093570D01*
X0299689Y0093501D01*
X0299660Y0093434D01*
X0299627Y0093368D01*
X0299591Y0093304D01*
X0299552Y0093243D01*
X0299509Y0093183D01*
X0299463Y0093126D01*
X0299414Y0093071D01*
X0299362Y0093019D01*
X0299307Y0092970D01*
X0299250Y0092924D01*
X0299190Y0092881D01*
X0299129Y0092842D01*
X0299065Y0092806D01*
X0298999Y0092773D01*
X0298932Y0092744D01*
X0298863Y0092719D01*
X0298793Y0092697D01*
X0298721Y0092680D01*
X0298649Y0092666D01*
X0298577Y0092656D01*
X0298503Y0092650D01*
X0298430Y0092648D01*
X0298357Y0092650D01*
X0298283Y0092656D01*
X0298211Y0092666D01*
X0298139Y0092680D01*
X0298067Y0092697D01*
X0297997Y0092719D01*
X0297928Y0092744D01*
X0297861Y0092773D01*
X0297795Y0092806D01*
X0297731Y0092842D01*
X0297670Y0092881D01*
X0297610Y0092924D01*
X0297553Y0092970D01*
X0297498Y0093019D01*
X0297446Y0093071D01*
X0297397Y0093126D01*
X0297351Y0093183D01*
X0297308Y0093243D01*
X0297269Y0093304D01*
X0297233Y0093368D01*
X0297200Y0093434D01*
X0297171Y0093501D01*
X0297146Y0093570D01*
X0297124Y0093640D01*
X0297107Y0093712D01*
X0297093Y0093784D01*
X0297083Y0093856D01*
X0297077Y0093930D01*
X0297075Y0094003D01*
X0281810Y0096318D02*
X0281810Y0086318D01*
X0238392Y0080240D02*
X0232486Y0080240D01*
X0232486Y0095988D01*
X0238392Y0095988D01*
X0238392Y0116460D01*
X0230518Y0116460D01*
X0224612Y0113310D01*
X0225006Y0113310D01*
X0179271Y0088114D02*
X0179280Y0088840D01*
X0179307Y0089566D01*
X0179351Y0090291D01*
X0179413Y0091015D01*
X0179494Y0091736D01*
X0179591Y0092456D01*
X0179707Y0093173D01*
X0179840Y0093887D01*
X0179990Y0094598D01*
X0180158Y0095305D01*
X0180343Y0096007D01*
X0180545Y0096704D01*
X0180765Y0097397D01*
X0181001Y0098084D01*
X0181254Y0098764D01*
X0181524Y0099439D01*
X0181810Y0100106D01*
X0182112Y0100767D01*
X0182431Y0101419D01*
X0182765Y0102064D01*
X0183116Y0102700D01*
X0183481Y0103328D01*
X0183862Y0103946D01*
X0184258Y0104555D01*
X0184669Y0105154D01*
X0185095Y0105743D01*
X0185534Y0106321D01*
X0185988Y0106888D01*
X0186456Y0107443D01*
X0186937Y0107987D01*
X0187431Y0108520D01*
X0187939Y0109039D01*
X0188458Y0109547D01*
X0188991Y0110041D01*
X0189535Y0110522D01*
X0190090Y0110990D01*
X0190657Y0111444D01*
X0191235Y0111883D01*
X0191824Y0112309D01*
X0192423Y0112720D01*
X0193032Y0113116D01*
X0193650Y0113497D01*
X0194278Y0113862D01*
X0194914Y0114213D01*
X0195559Y0114547D01*
X0196211Y0114866D01*
X0196872Y0115168D01*
X0197539Y0115454D01*
X0198214Y0115724D01*
X0198894Y0115977D01*
X0199581Y0116213D01*
X0200274Y0116433D01*
X0200971Y0116635D01*
X0201673Y0116820D01*
X0202380Y0116988D01*
X0203091Y0117138D01*
X0203805Y0117271D01*
X0204522Y0117387D01*
X0205242Y0117484D01*
X0205963Y0117565D01*
X0206687Y0117627D01*
X0207412Y0117671D01*
X0208138Y0117698D01*
X0208864Y0117707D01*
X0209590Y0117698D01*
X0210316Y0117671D01*
X0211041Y0117627D01*
X0211765Y0117565D01*
X0212486Y0117484D01*
X0213206Y0117387D01*
X0213923Y0117271D01*
X0214637Y0117138D01*
X0215348Y0116988D01*
X0216055Y0116820D01*
X0216757Y0116635D01*
X0217454Y0116433D01*
X0218147Y0116213D01*
X0218834Y0115977D01*
X0219514Y0115724D01*
X0220189Y0115454D01*
X0220856Y0115168D01*
X0221517Y0114866D01*
X0222169Y0114547D01*
X0222814Y0114213D01*
X0223450Y0113862D01*
X0224078Y0113497D01*
X0224696Y0113116D01*
X0225305Y0112720D01*
X0225904Y0112309D01*
X0226493Y0111883D01*
X0227071Y0111444D01*
X0227638Y0110990D01*
X0228193Y0110522D01*
X0228737Y0110041D01*
X0229270Y0109547D01*
X0229789Y0109039D01*
X0230297Y0108520D01*
X0230791Y0107987D01*
X0231272Y0107443D01*
X0231740Y0106888D01*
X0232194Y0106321D01*
X0232633Y0105743D01*
X0233059Y0105154D01*
X0233470Y0104555D01*
X0233866Y0103946D01*
X0234247Y0103328D01*
X0234612Y0102700D01*
X0234963Y0102064D01*
X0235297Y0101419D01*
X0235616Y0100767D01*
X0235918Y0100106D01*
X0236204Y0099439D01*
X0236474Y0098764D01*
X0236727Y0098084D01*
X0236963Y0097397D01*
X0237183Y0096704D01*
X0237385Y0096007D01*
X0237570Y0095305D01*
X0237738Y0094598D01*
X0237888Y0093887D01*
X0238021Y0093173D01*
X0238137Y0092456D01*
X0238234Y0091736D01*
X0238315Y0091015D01*
X0238377Y0090291D01*
X0238421Y0089566D01*
X0238448Y0088840D01*
X0238457Y0088114D01*
X0238448Y0087388D01*
X0238421Y0086662D01*
X0238377Y0085937D01*
X0238315Y0085213D01*
X0238234Y0084492D01*
X0238137Y0083772D01*
X0238021Y0083055D01*
X0237888Y0082341D01*
X0237738Y0081630D01*
X0237570Y0080923D01*
X0237385Y0080221D01*
X0237183Y0079524D01*
X0236963Y0078831D01*
X0236727Y0078144D01*
X0236474Y0077464D01*
X0236204Y0076789D01*
X0235918Y0076122D01*
X0235616Y0075461D01*
X0235297Y0074809D01*
X0234963Y0074164D01*
X0234612Y0073528D01*
X0234247Y0072900D01*
X0233866Y0072282D01*
X0233470Y0071673D01*
X0233059Y0071074D01*
X0232633Y0070485D01*
X0232194Y0069907D01*
X0231740Y0069340D01*
X0231272Y0068785D01*
X0230791Y0068241D01*
X0230297Y0067708D01*
X0229789Y0067189D01*
X0229270Y0066681D01*
X0228737Y0066187D01*
X0228193Y0065706D01*
X0227638Y0065238D01*
X0227071Y0064784D01*
X0226493Y0064345D01*
X0225904Y0063919D01*
X0225305Y0063508D01*
X0224696Y0063112D01*
X0224078Y0062731D01*
X0223450Y0062366D01*
X0222814Y0062015D01*
X0222169Y0061681D01*
X0221517Y0061362D01*
X0220856Y0061060D01*
X0220189Y0060774D01*
X0219514Y0060504D01*
X0218834Y0060251D01*
X0218147Y0060015D01*
X0217454Y0059795D01*
X0216757Y0059593D01*
X0216055Y0059408D01*
X0215348Y0059240D01*
X0214637Y0059090D01*
X0213923Y0058957D01*
X0213206Y0058841D01*
X0212486Y0058744D01*
X0211765Y0058663D01*
X0211041Y0058601D01*
X0210316Y0058557D01*
X0209590Y0058530D01*
X0208864Y0058521D01*
X0208138Y0058530D01*
X0207412Y0058557D01*
X0206687Y0058601D01*
X0205963Y0058663D01*
X0205242Y0058744D01*
X0204522Y0058841D01*
X0203805Y0058957D01*
X0203091Y0059090D01*
X0202380Y0059240D01*
X0201673Y0059408D01*
X0200971Y0059593D01*
X0200274Y0059795D01*
X0199581Y0060015D01*
X0198894Y0060251D01*
X0198214Y0060504D01*
X0197539Y0060774D01*
X0196872Y0061060D01*
X0196211Y0061362D01*
X0195559Y0061681D01*
X0194914Y0062015D01*
X0194278Y0062366D01*
X0193650Y0062731D01*
X0193032Y0063112D01*
X0192423Y0063508D01*
X0191824Y0063919D01*
X0191235Y0064345D01*
X0190657Y0064784D01*
X0190090Y0065238D01*
X0189535Y0065706D01*
X0188991Y0066187D01*
X0188458Y0066681D01*
X0187939Y0067189D01*
X0187431Y0067708D01*
X0186937Y0068241D01*
X0186456Y0068785D01*
X0185988Y0069340D01*
X0185534Y0069907D01*
X0185095Y0070485D01*
X0184669Y0071074D01*
X0184258Y0071673D01*
X0183862Y0072282D01*
X0183481Y0072900D01*
X0183116Y0073528D01*
X0182765Y0074164D01*
X0182431Y0074809D01*
X0182112Y0075461D01*
X0181810Y0076122D01*
X0181524Y0076789D01*
X0181254Y0077464D01*
X0181001Y0078144D01*
X0180765Y0078831D01*
X0180545Y0079524D01*
X0180343Y0080221D01*
X0180158Y0080923D01*
X0179990Y0081630D01*
X0179840Y0082341D01*
X0179707Y0083055D01*
X0179591Y0083772D01*
X0179494Y0084492D01*
X0179413Y0085213D01*
X0179351Y0085937D01*
X0179307Y0086662D01*
X0179280Y0087388D01*
X0179271Y0088114D01*
X0185242Y0074334D02*
X0189179Y0074334D01*
X0224612Y0062917D02*
X0230911Y0059373D01*
X0238392Y0059373D01*
X0238392Y0059767D02*
X0238392Y0080240D01*
X0232092Y0074334D02*
X0228943Y0074334D01*
X0230518Y0075909D02*
X0230518Y0072366D01*
X0385396Y0096640D02*
X0386147Y0095889D01*
X0385396Y0096640D02*
X0385396Y0098141D01*
X0386147Y0098892D01*
X0386897Y0098892D01*
X0387648Y0098141D01*
X0387648Y0096640D01*
X0388399Y0095889D01*
X0389149Y0095889D01*
X0389900Y0096640D01*
X0389900Y0098141D01*
X0389149Y0098892D01*
X0389900Y0101994D02*
X0389900Y0103496D01*
X0389900Y0102745D02*
X0386147Y0102745D01*
X0385396Y0101994D01*
X0385396Y0101244D01*
X0386147Y0100493D01*
X0385396Y0105097D02*
X0385396Y0108100D01*
X0385396Y0106598D02*
X0389900Y0106598D01*
X0388399Y0105097D01*
D17*
X0277665Y0080155D02*
X0277665Y0079471D01*
X0276297Y0078103D01*
X0276297Y0076052D01*
X0276297Y0078103D02*
X0274929Y0079471D01*
X0274929Y0080155D01*
X0273061Y0078787D02*
X0271693Y0080155D01*
X0271693Y0076052D01*
X0273061Y0076052D02*
X0270325Y0076052D01*
D18*
X0211424Y0075590D02*
X0211424Y0074056D01*
X0210656Y0073288D01*
X0207587Y0073288D01*
X0206820Y0074056D01*
X0206820Y0075590D01*
X0207587Y0076358D01*
X0206820Y0077892D02*
X0211424Y0077892D01*
X0211424Y0080194D01*
X0210656Y0080962D01*
X0209122Y0080962D01*
X0208355Y0080194D01*
X0208355Y0077892D01*
X0208355Y0079427D02*
X0206820Y0080962D01*
X0206820Y0082496D02*
X0206820Y0085566D01*
X0206820Y0087100D02*
X0209889Y0090170D01*
X0210656Y0090170D01*
X0211424Y0089402D01*
X0211424Y0087868D01*
X0210656Y0087100D01*
X0211424Y0084031D02*
X0206820Y0084031D01*
X0206820Y0087100D02*
X0206820Y0090170D01*
X0206820Y0091704D02*
X0209889Y0094773D01*
X0210656Y0094773D01*
X0211424Y0094006D01*
X0211424Y0092471D01*
X0210656Y0091704D01*
X0206820Y0091704D02*
X0206820Y0094773D01*
X0207587Y0096308D02*
X0206820Y0097075D01*
X0206820Y0098610D01*
X0207587Y0099377D01*
X0210656Y0099377D01*
X0207587Y0096308D01*
X0210656Y0096308D01*
X0211424Y0097075D01*
X0211424Y0098610D01*
X0210656Y0099377D01*
X0211424Y0084031D02*
X0209889Y0082496D01*
X0210656Y0076358D02*
X0211424Y0075590D01*
X0262180Y0111402D02*
X0262947Y0110635D01*
X0264482Y0110635D01*
X0265249Y0111402D01*
X0266784Y0110635D02*
X0269853Y0110635D01*
X0266784Y0113704D01*
X0266784Y0114471D01*
X0267551Y0115239D01*
X0269086Y0115239D01*
X0269853Y0114471D01*
X0271388Y0115239D02*
X0274457Y0115239D01*
X0274457Y0112937D01*
X0272923Y0113704D01*
X0272155Y0113704D01*
X0271388Y0112937D01*
X0271388Y0111402D01*
X0272155Y0110635D01*
X0273690Y0110635D01*
X0274457Y0111402D01*
X0275992Y0111402D02*
X0276759Y0110635D01*
X0278294Y0110635D01*
X0279061Y0111402D01*
X0279061Y0112169D01*
X0278294Y0112937D01*
X0276759Y0112937D01*
X0275992Y0112169D01*
X0275992Y0111402D01*
X0276759Y0112937D02*
X0275992Y0113704D01*
X0275992Y0114471D01*
X0276759Y0115239D01*
X0278294Y0115239D01*
X0279061Y0114471D01*
X0279061Y0113704D01*
X0278294Y0112937D01*
X0280596Y0115239D02*
X0283665Y0115239D01*
X0283665Y0110635D01*
X0285200Y0111402D02*
X0285967Y0110635D01*
X0287502Y0110635D01*
X0288269Y0111402D01*
X0288269Y0114471D01*
X0287502Y0115239D01*
X0285967Y0115239D01*
X0285200Y0114471D01*
X0283665Y0112937D02*
X0282130Y0112937D01*
X0289804Y0112937D02*
X0289804Y0114471D01*
X0290571Y0115239D01*
X0292873Y0115239D01*
X0292873Y0110635D01*
X0292873Y0112169D02*
X0290571Y0112169D01*
X0289804Y0112937D01*
X0265249Y0114471D02*
X0264482Y0115239D01*
X0262947Y0115239D01*
X0262180Y0114471D01*
X0262180Y0113704D01*
X0262947Y0112937D01*
X0262180Y0112169D01*
X0262180Y0111402D01*
X0262947Y0112937D02*
X0263715Y0112937D01*
X0264822Y0160111D02*
X0266357Y0160111D01*
X0267124Y0160878D01*
X0264055Y0163948D01*
X0264055Y0160878D01*
X0264822Y0160111D01*
X0267124Y0160878D02*
X0267124Y0163948D01*
X0266357Y0164715D01*
X0264822Y0164715D01*
X0264055Y0163948D01*
X0268659Y0163948D02*
X0269426Y0164715D01*
X0270961Y0164715D01*
X0271728Y0163948D01*
X0273263Y0163948D02*
X0274030Y0164715D01*
X0275565Y0164715D01*
X0276332Y0163948D01*
X0276332Y0160878D01*
X0275565Y0160111D01*
X0274030Y0160111D01*
X0273263Y0160878D01*
X0271728Y0160111D02*
X0268659Y0163180D01*
X0268659Y0163948D01*
X0268659Y0160111D02*
X0271728Y0160111D01*
X0332064Y0195999D02*
X0332064Y0196766D01*
X0332831Y0197533D01*
X0335133Y0197533D01*
X0335133Y0195999D01*
X0334366Y0195231D01*
X0332831Y0195231D01*
X0332064Y0195999D01*
X0333598Y0199068D02*
X0332064Y0199835D01*
X0333598Y0199068D02*
X0335133Y0197533D01*
X0336668Y0195231D02*
X0339737Y0195231D01*
X0338202Y0195231D02*
X0338202Y0199835D01*
X0339737Y0198301D01*
X0341272Y0199068D02*
X0342039Y0199835D01*
X0343574Y0199835D01*
X0344341Y0199068D01*
X0344341Y0195999D01*
X0343574Y0195231D01*
X0342039Y0195231D01*
X0341272Y0195999D01*
X0340737Y0210731D02*
X0337668Y0210731D01*
X0339202Y0210731D02*
X0339202Y0215335D01*
X0340737Y0213801D01*
X0342272Y0214568D02*
X0343039Y0215335D01*
X0344574Y0215335D01*
X0345341Y0214568D01*
X0345341Y0211499D01*
X0344574Y0210731D01*
X0343039Y0210731D01*
X0342272Y0211499D01*
X0336133Y0213033D02*
X0333831Y0215335D01*
X0333831Y0210731D01*
X0333064Y0213033D02*
X0336133Y0213033D01*
X0335633Y0220231D02*
X0332564Y0220231D01*
X0335633Y0220231D02*
X0332564Y0223301D01*
X0332564Y0224068D01*
X0333331Y0224835D01*
X0334866Y0224835D01*
X0335633Y0224068D01*
X0338702Y0224835D02*
X0338702Y0220231D01*
X0337168Y0220231D02*
X0340237Y0220231D01*
X0341772Y0220999D02*
X0342539Y0220231D01*
X0344074Y0220231D01*
X0344841Y0220999D01*
X0344841Y0224068D01*
X0344074Y0224835D01*
X0342539Y0224835D01*
X0341772Y0224068D01*
X0340237Y0223301D02*
X0338702Y0224835D01*
X0338202Y0231231D02*
X0338202Y0235835D01*
X0339737Y0234301D01*
X0341272Y0235068D02*
X0342039Y0235835D01*
X0343574Y0235835D01*
X0344341Y0235068D01*
X0344341Y0231999D01*
X0343574Y0231231D01*
X0342039Y0231231D01*
X0341272Y0231999D01*
X0339737Y0231231D02*
X0336668Y0231231D01*
X0335133Y0231999D02*
X0332064Y0235068D01*
X0332064Y0231999D01*
X0332831Y0231231D01*
X0334366Y0231231D01*
X0335133Y0231999D01*
X0335133Y0235068D01*
X0334366Y0235835D01*
X0332831Y0235835D01*
X0332064Y0235068D01*
X0298086Y0236550D02*
X0297319Y0235782D01*
X0295784Y0235782D01*
X0295017Y0236550D01*
X0293482Y0236550D02*
X0292715Y0235782D01*
X0291180Y0235782D01*
X0290413Y0236550D01*
X0290413Y0239619D01*
X0291180Y0240386D01*
X0292715Y0240386D01*
X0293482Y0239619D01*
X0293482Y0238852D01*
X0292715Y0238084D01*
X0290413Y0238084D01*
X0295017Y0239619D02*
X0295784Y0240386D01*
X0297319Y0240386D01*
X0298086Y0239619D01*
X0298086Y0236550D01*
X0294824Y0230682D02*
X0295592Y0229915D01*
X0295592Y0226845D01*
X0294824Y0226078D01*
X0293290Y0226078D01*
X0292522Y0226845D01*
X0290988Y0226078D02*
X0287918Y0226078D01*
X0286384Y0226078D02*
X0283315Y0226078D01*
X0284849Y0226078D02*
X0284849Y0230682D01*
X0286384Y0229147D01*
X0289453Y0230682D02*
X0289453Y0226078D01*
X0290988Y0229147D02*
X0289453Y0230682D01*
X0292522Y0229915D02*
X0293290Y0230682D01*
X0294824Y0230682D01*
X0296227Y0219835D02*
X0297762Y0219835D01*
X0298529Y0219068D01*
X0298529Y0215999D01*
X0297762Y0215231D01*
X0296227Y0215231D01*
X0295460Y0215999D01*
X0293925Y0215231D02*
X0290856Y0215231D01*
X0292391Y0215231D02*
X0292391Y0219835D01*
X0293925Y0218301D01*
X0295460Y0219068D02*
X0296227Y0219835D01*
X0289321Y0219068D02*
X0288554Y0219835D01*
X0287019Y0219835D01*
X0286252Y0219068D01*
X0286252Y0218301D01*
X0287019Y0217533D01*
X0286252Y0216766D01*
X0286252Y0215999D01*
X0287019Y0215231D01*
X0288554Y0215231D01*
X0289321Y0215999D01*
X0287787Y0217533D02*
X0287019Y0217533D01*
X0275403Y0217502D02*
X0275403Y0214432D01*
X0274635Y0213665D01*
X0273101Y0213665D01*
X0272333Y0214432D01*
X0270799Y0213665D02*
X0267729Y0216734D01*
X0267729Y0217502D01*
X0268497Y0218269D01*
X0270031Y0218269D01*
X0270799Y0217502D01*
X0272333Y0217502D02*
X0273101Y0218269D01*
X0274635Y0218269D01*
X0275403Y0217502D01*
X0270799Y0213665D02*
X0267729Y0213665D01*
X0266195Y0213665D02*
X0263126Y0213665D01*
X0264660Y0213665D02*
X0264660Y0218269D01*
X0266195Y0216734D01*
X0286252Y0201835D02*
X0289321Y0201835D01*
X0289321Y0199533D01*
X0287787Y0200301D01*
X0287019Y0200301D01*
X0286252Y0199533D01*
X0286252Y0197999D01*
X0287019Y0197231D01*
X0288554Y0197231D01*
X0289321Y0197999D01*
X0290856Y0197231D02*
X0293925Y0197231D01*
X0292391Y0197231D02*
X0292391Y0201835D01*
X0293925Y0200301D01*
X0295460Y0201068D02*
X0296227Y0201835D01*
X0297762Y0201835D01*
X0298529Y0201068D01*
X0298529Y0197999D01*
X0297762Y0197231D01*
X0296227Y0197231D01*
X0295460Y0197999D01*
D19*
X0344656Y0118895D02*
X0344038Y0118278D01*
X0346507Y0115809D01*
X0345890Y0115192D01*
X0344656Y0115192D01*
X0344038Y0115809D01*
X0344038Y0118278D01*
X0344656Y0118895D02*
X0345890Y0118895D01*
X0346507Y0118278D01*
X0346507Y0115809D01*
X0347721Y0115192D02*
X0350190Y0115192D01*
X0347721Y0117661D01*
X0347721Y0118278D01*
X0348339Y0118895D01*
X0349573Y0118895D01*
X0350190Y0118278D01*
X0351405Y0118278D02*
X0351405Y0117044D01*
X0352022Y0116427D01*
X0353873Y0116427D01*
X0352639Y0116427D02*
X0351405Y0115192D01*
X0353873Y0115192D02*
X0353873Y0118895D01*
X0352022Y0118895D01*
X0351405Y0118278D01*
X0351664Y0111126D02*
X0351047Y0110509D01*
X0351047Y0109275D01*
X0351664Y0108657D01*
X0353516Y0108657D01*
X0353516Y0107423D02*
X0353516Y0111126D01*
X0351664Y0111126D01*
X0349833Y0110509D02*
X0349216Y0111126D01*
X0347981Y0111126D01*
X0347364Y0110509D01*
X0347364Y0109892D01*
X0349833Y0107423D01*
X0347364Y0107423D01*
X0346150Y0107423D02*
X0343681Y0107423D01*
X0344915Y0107423D02*
X0344915Y0111126D01*
X0346150Y0109892D01*
X0351047Y0107423D02*
X0352282Y0108657D01*
X0352224Y0095652D02*
X0351606Y0095034D01*
X0351606Y0093800D01*
X0352224Y0093183D01*
X0354075Y0093183D01*
X0352841Y0093183D02*
X0351606Y0091948D01*
X0350392Y0091948D02*
X0347923Y0094417D01*
X0347923Y0095034D01*
X0348540Y0095652D01*
X0349775Y0095652D01*
X0350392Y0095034D01*
X0352224Y0095652D02*
X0354075Y0095652D01*
X0354075Y0091948D01*
X0350392Y0091948D02*
X0347923Y0091948D01*
X0346709Y0091948D02*
X0344240Y0094417D01*
X0344240Y0095034D01*
X0344857Y0095652D01*
X0346092Y0095652D01*
X0346709Y0095034D01*
X0346709Y0091948D02*
X0344240Y0091948D01*
X0327784Y0091597D02*
X0327167Y0090980D01*
X0324698Y0090980D01*
X0324081Y0091597D01*
X0324081Y0092832D01*
X0324698Y0093449D01*
X0324698Y0094663D02*
X0324081Y0095280D01*
X0324081Y0096515D01*
X0324698Y0097132D01*
X0325315Y0097132D01*
X0325933Y0096515D01*
X0325933Y0095898D01*
X0325933Y0096515D02*
X0326550Y0097132D01*
X0327167Y0097132D01*
X0327784Y0096515D01*
X0327784Y0095280D01*
X0327167Y0094663D01*
X0327167Y0093449D02*
X0327784Y0092832D01*
X0327784Y0091597D01*
X0327167Y0098346D02*
X0327784Y0098964D01*
X0327784Y0100198D01*
X0327167Y0100815D01*
X0326550Y0100815D01*
X0325933Y0100198D01*
X0325315Y0100815D01*
X0324698Y0100815D01*
X0324081Y0100198D01*
X0324081Y0098964D01*
X0324698Y0098346D01*
X0325933Y0099581D02*
X0325933Y0100198D01*
X0327784Y0102030D02*
X0327784Y0104498D01*
X0327784Y0103264D02*
X0324081Y0103264D01*
M02*
