G75*
%MOIN*%
%OFA0B0*%
%FSLAX25Y25*%
%IPPOS*%
%LPD*%
%AMOC8*
5,1,8,0,0,1.08239X$1,22.5*
%
%ADD10C,0.00000*%
%ADD11R,0.04700X0.21100*%
%ADD12R,0.04331X0.03937*%
%ADD13R,0.04300X0.16000*%
%ADD14R,0.03937X0.04331*%
%ADD15R,0.08583X0.06378*%
%ADD16R,0.15748X0.27559*%
%ADD17R,0.06300X0.02100*%
%ADD18C,0.05200*%
%ADD19C,0.05150*%
%ADD20C,0.00600*%
%ADD21C,0.03569*%
%ADD22C,0.02000*%
%ADD23C,0.04000*%
%ADD24C,0.02100*%
%ADD25C,0.01600*%
%ADD26C,0.02200*%
D10*
X0012668Y0006362D02*
X0012668Y0091322D01*
X0226369Y0091322D01*
X0226369Y0006362D01*
X0012668Y0006362D01*
D11*
X0040533Y0029972D03*
X0040533Y0069172D03*
D12*
X0079019Y0067221D03*
X0079019Y0060528D03*
X0123394Y0070431D03*
X0130087Y0070431D03*
X0078690Y0084999D03*
X0071997Y0084999D03*
X0192146Y0077477D03*
X0198838Y0077477D03*
D13*
X0206972Y0063576D03*
X0206972Y0038976D03*
D14*
X0162031Y0066219D03*
X0155338Y0066219D03*
X0122127Y0061643D03*
X0122127Y0054950D03*
D15*
X0103885Y0054016D03*
X0103885Y0037402D03*
D16*
X0138637Y0036202D03*
X0178007Y0036202D03*
D17*
X0112904Y0063607D03*
X0112904Y0068607D03*
X0112904Y0073607D03*
X0112904Y0078607D03*
X0092004Y0078607D03*
X0092004Y0073607D03*
X0092004Y0068607D03*
X0092004Y0063607D03*
D18*
X0085668Y0053462D02*
X0085668Y0048262D01*
X0075668Y0043462D02*
X0075668Y0038262D01*
X0085668Y0033462D02*
X0085668Y0028262D01*
X0150568Y0074362D02*
X0155768Y0074362D01*
X0160568Y0084362D02*
X0165768Y0084362D01*
X0145768Y0084362D02*
X0140568Y0084362D01*
D19*
X0217668Y0083862D03*
X0057668Y0083862D03*
X0057668Y0013862D03*
X0217668Y0013862D03*
D20*
X0224069Y0013787D02*
X0014968Y0013787D01*
X0014968Y0013189D02*
X0224069Y0013189D01*
X0224069Y0012590D02*
X0014968Y0012590D01*
X0014968Y0011992D02*
X0224069Y0011992D01*
X0224069Y0011393D02*
X0014968Y0011393D01*
X0014968Y0010795D02*
X0224069Y0010795D01*
X0224069Y0010196D02*
X0014968Y0010196D01*
X0014968Y0009598D02*
X0224069Y0009598D01*
X0224069Y0008999D02*
X0014968Y0008999D01*
X0014968Y0008662D02*
X0014968Y0089022D01*
X0224069Y0089022D01*
X0224069Y0008662D01*
X0014968Y0008662D01*
X0014968Y0014386D02*
X0224069Y0014386D01*
X0224069Y0014984D02*
X0014968Y0014984D01*
X0014968Y0015583D02*
X0224069Y0015583D01*
X0224069Y0016181D02*
X0014968Y0016181D01*
X0014968Y0016780D02*
X0224069Y0016780D01*
X0224069Y0017378D02*
X0014968Y0017378D01*
X0014968Y0017977D02*
X0224069Y0017977D01*
X0224069Y0018575D02*
X0014968Y0018575D01*
X0014968Y0019174D02*
X0224069Y0019174D01*
X0224069Y0019772D02*
X0014968Y0019772D01*
X0014968Y0020371D02*
X0224069Y0020371D01*
X0224069Y0020969D02*
X0186549Y0020969D01*
X0186502Y0020922D02*
X0187381Y0021801D01*
X0187381Y0050603D01*
X0186502Y0051481D01*
X0181507Y0051481D01*
X0181507Y0054924D01*
X0181587Y0055941D01*
X0182215Y0057876D01*
X0183411Y0059522D01*
X0185057Y0060717D01*
X0186991Y0061346D01*
X0188008Y0061426D01*
X0201666Y0061426D01*
X0201777Y0061362D01*
X0203322Y0061362D01*
X0203322Y0054954D01*
X0204201Y0054076D01*
X0209744Y0054076D01*
X0210622Y0054954D01*
X0210622Y0061362D01*
X0215160Y0061362D01*
X0217917Y0062503D01*
X0220027Y0064613D01*
X0221168Y0067370D01*
X0221168Y0081663D01*
X0221743Y0083051D01*
X0221743Y0084672D01*
X0221123Y0086170D01*
X0219977Y0087316D01*
X0218479Y0087936D01*
X0216858Y0087936D01*
X0215360Y0087316D01*
X0214214Y0086170D01*
X0213594Y0084672D01*
X0213594Y0083051D01*
X0214168Y0081663D01*
X0214168Y0068862D01*
X0214159Y0068764D01*
X0214084Y0068584D01*
X0213946Y0068446D01*
X0213766Y0068371D01*
X0213668Y0068362D01*
X0210622Y0068362D01*
X0210622Y0072197D01*
X0209744Y0073076D01*
X0204201Y0073076D01*
X0203322Y0072197D01*
X0203322Y0068426D01*
X0189458Y0068426D01*
X0182907Y0074977D01*
X0188480Y0074977D01*
X0188480Y0074887D01*
X0189359Y0074009D01*
X0194932Y0074009D01*
X0195811Y0074887D01*
X0195811Y0080067D01*
X0194932Y0080946D01*
X0189359Y0080946D01*
X0188480Y0080067D01*
X0188480Y0079977D01*
X0177907Y0079977D01*
X0177440Y0080444D01*
X0177075Y0080595D01*
X0176924Y0080960D01*
X0175940Y0081944D01*
X0174653Y0082477D01*
X0169426Y0082477D01*
X0169868Y0083546D01*
X0169868Y0085177D01*
X0169244Y0086684D01*
X0168091Y0087837D01*
X0166584Y0088462D01*
X0159753Y0088462D01*
X0158246Y0087837D01*
X0157093Y0086684D01*
X0156468Y0085177D01*
X0156468Y0083546D01*
X0157093Y0082039D01*
X0158246Y0080886D01*
X0159668Y0080297D01*
X0159668Y0078562D01*
X0159668Y0078562D01*
X0160797Y0076606D01*
X0162753Y0075477D01*
X0171886Y0075477D01*
X0172625Y0074738D01*
X0173685Y0074299D01*
X0181268Y0066716D01*
X0178342Y0064590D01*
X0175828Y0061130D01*
X0174507Y0057063D01*
X0174507Y0051481D01*
X0169511Y0051481D01*
X0168633Y0050603D01*
X0168633Y0021801D01*
X0169511Y0020922D01*
X0186502Y0020922D01*
X0187148Y0021568D02*
X0224069Y0021568D01*
X0224069Y0022166D02*
X0187381Y0022166D01*
X0187381Y0022765D02*
X0224069Y0022765D01*
X0224069Y0023363D02*
X0187381Y0023363D01*
X0187381Y0023962D02*
X0224069Y0023962D01*
X0224069Y0024560D02*
X0187381Y0024560D01*
X0187381Y0025159D02*
X0224069Y0025159D01*
X0224069Y0025757D02*
X0187381Y0025757D01*
X0187381Y0026356D02*
X0224069Y0026356D01*
X0224069Y0026954D02*
X0187381Y0026954D01*
X0187381Y0027553D02*
X0224069Y0027553D01*
X0224069Y0028152D02*
X0187381Y0028152D01*
X0187381Y0028750D02*
X0224069Y0028750D01*
X0224069Y0029349D02*
X0187381Y0029349D01*
X0187381Y0029947D02*
X0224069Y0029947D01*
X0224069Y0030546D02*
X0187381Y0030546D01*
X0187381Y0031144D02*
X0224069Y0031144D01*
X0224069Y0031743D02*
X0187381Y0031743D01*
X0187381Y0032341D02*
X0224069Y0032341D01*
X0224069Y0032940D02*
X0187381Y0032940D01*
X0187381Y0033538D02*
X0224069Y0033538D01*
X0224069Y0034137D02*
X0187381Y0034137D01*
X0187381Y0034735D02*
X0224069Y0034735D01*
X0224069Y0035334D02*
X0187381Y0035334D01*
X0187381Y0035932D02*
X0224069Y0035932D01*
X0224069Y0036531D02*
X0187381Y0036531D01*
X0187381Y0037129D02*
X0224069Y0037129D01*
X0224069Y0037728D02*
X0187381Y0037728D01*
X0187381Y0038326D02*
X0224069Y0038326D01*
X0224069Y0038925D02*
X0187381Y0038925D01*
X0187381Y0039523D02*
X0224069Y0039523D01*
X0224069Y0040122D02*
X0187381Y0040122D01*
X0187381Y0040720D02*
X0224069Y0040720D01*
X0224069Y0041319D02*
X0187381Y0041319D01*
X0187381Y0041917D02*
X0224069Y0041917D01*
X0224069Y0042516D02*
X0187381Y0042516D01*
X0187381Y0043114D02*
X0224069Y0043114D01*
X0224069Y0043713D02*
X0187381Y0043713D01*
X0187381Y0044311D02*
X0224069Y0044311D01*
X0224069Y0044910D02*
X0187381Y0044910D01*
X0187381Y0045508D02*
X0224069Y0045508D01*
X0224069Y0046107D02*
X0187381Y0046107D01*
X0187381Y0046705D02*
X0224069Y0046705D01*
X0224069Y0047304D02*
X0187381Y0047304D01*
X0187381Y0047902D02*
X0224069Y0047902D01*
X0224069Y0048501D02*
X0187381Y0048501D01*
X0187381Y0049099D02*
X0224069Y0049099D01*
X0224069Y0049698D02*
X0187381Y0049698D01*
X0187381Y0050296D02*
X0224069Y0050296D01*
X0224069Y0050895D02*
X0187089Y0050895D01*
X0181507Y0051493D02*
X0224069Y0051493D01*
X0224069Y0052092D02*
X0181507Y0052092D01*
X0181507Y0052690D02*
X0224069Y0052690D01*
X0224069Y0053289D02*
X0181507Y0053289D01*
X0181507Y0053887D02*
X0224069Y0053887D01*
X0224069Y0054486D02*
X0210154Y0054486D01*
X0210622Y0055085D02*
X0224069Y0055085D01*
X0224069Y0055683D02*
X0210622Y0055683D01*
X0210622Y0056282D02*
X0224069Y0056282D01*
X0224069Y0056880D02*
X0210622Y0056880D01*
X0210622Y0057479D02*
X0224069Y0057479D01*
X0224069Y0058077D02*
X0210622Y0058077D01*
X0210622Y0058676D02*
X0224069Y0058676D01*
X0224069Y0059274D02*
X0210622Y0059274D01*
X0210622Y0059873D02*
X0224069Y0059873D01*
X0224069Y0060471D02*
X0210622Y0060471D01*
X0210622Y0061070D02*
X0224069Y0061070D01*
X0224069Y0061668D02*
X0215900Y0061668D01*
X0217345Y0062267D02*
X0224069Y0062267D01*
X0224069Y0062865D02*
X0218278Y0062865D01*
X0217917Y0062503D02*
X0217917Y0062503D01*
X0218877Y0063464D02*
X0224069Y0063464D01*
X0224069Y0064062D02*
X0219475Y0064062D01*
X0220027Y0064613D02*
X0220027Y0064613D01*
X0220046Y0064661D02*
X0224069Y0064661D01*
X0224069Y0065259D02*
X0220294Y0065259D01*
X0220542Y0065858D02*
X0224069Y0065858D01*
X0224069Y0066456D02*
X0220790Y0066456D01*
X0221038Y0067055D02*
X0224069Y0067055D01*
X0224069Y0067653D02*
X0221168Y0067653D01*
X0221168Y0068252D02*
X0224069Y0068252D01*
X0224069Y0068850D02*
X0221168Y0068850D01*
X0221168Y0069449D02*
X0224069Y0069449D01*
X0224069Y0070047D02*
X0221168Y0070047D01*
X0221168Y0070646D02*
X0224069Y0070646D01*
X0224069Y0071244D02*
X0221168Y0071244D01*
X0221168Y0071843D02*
X0224069Y0071843D01*
X0224069Y0072441D02*
X0221168Y0072441D01*
X0221168Y0073040D02*
X0224069Y0073040D01*
X0224069Y0073638D02*
X0221168Y0073638D01*
X0221168Y0074237D02*
X0224069Y0074237D01*
X0224069Y0074835D02*
X0221168Y0074835D01*
X0221168Y0075434D02*
X0224069Y0075434D01*
X0224069Y0076032D02*
X0221168Y0076032D01*
X0221168Y0076631D02*
X0224069Y0076631D01*
X0224069Y0077229D02*
X0221168Y0077229D01*
X0221168Y0077828D02*
X0224069Y0077828D01*
X0224069Y0078426D02*
X0221168Y0078426D01*
X0221168Y0079025D02*
X0224069Y0079025D01*
X0224069Y0079623D02*
X0221168Y0079623D01*
X0221168Y0080222D02*
X0224069Y0080222D01*
X0224069Y0080821D02*
X0221168Y0080821D01*
X0221168Y0081419D02*
X0224069Y0081419D01*
X0224069Y0082018D02*
X0221315Y0082018D01*
X0221563Y0082616D02*
X0224069Y0082616D01*
X0224069Y0083215D02*
X0221743Y0083215D01*
X0221743Y0083813D02*
X0224069Y0083813D01*
X0224069Y0084412D02*
X0221743Y0084412D01*
X0221603Y0085010D02*
X0224069Y0085010D01*
X0224069Y0085609D02*
X0221355Y0085609D01*
X0221086Y0086207D02*
X0224069Y0086207D01*
X0224069Y0086806D02*
X0220487Y0086806D01*
X0219764Y0087404D02*
X0224069Y0087404D01*
X0224069Y0088003D02*
X0167692Y0088003D01*
X0168524Y0087404D02*
X0215573Y0087404D01*
X0214850Y0086806D02*
X0169123Y0086806D01*
X0169442Y0086207D02*
X0214251Y0086207D01*
X0213981Y0085609D02*
X0169690Y0085609D01*
X0169868Y0085010D02*
X0213733Y0085010D01*
X0213594Y0084412D02*
X0169868Y0084412D01*
X0169868Y0083813D02*
X0213594Y0083813D01*
X0213594Y0083215D02*
X0169731Y0083215D01*
X0169483Y0082616D02*
X0213774Y0082616D01*
X0214022Y0082018D02*
X0175763Y0082018D01*
X0176465Y0081419D02*
X0214168Y0081419D01*
X0214168Y0080821D02*
X0195057Y0080821D01*
X0195656Y0080222D02*
X0214168Y0080222D01*
X0214168Y0079623D02*
X0195811Y0079623D01*
X0195811Y0079025D02*
X0214168Y0079025D01*
X0214168Y0078426D02*
X0195811Y0078426D01*
X0195811Y0077828D02*
X0214168Y0077828D01*
X0214168Y0077229D02*
X0195811Y0077229D01*
X0195811Y0076631D02*
X0214168Y0076631D01*
X0214168Y0076032D02*
X0195811Y0076032D01*
X0195811Y0075434D02*
X0214168Y0075434D01*
X0214168Y0074835D02*
X0195759Y0074835D01*
X0195160Y0074237D02*
X0214168Y0074237D01*
X0214168Y0073638D02*
X0184245Y0073638D01*
X0183647Y0074237D02*
X0189131Y0074237D01*
X0188532Y0074835D02*
X0183048Y0074835D01*
X0184844Y0073040D02*
X0204165Y0073040D01*
X0203567Y0072441D02*
X0185442Y0072441D01*
X0186041Y0071843D02*
X0203322Y0071843D01*
X0203322Y0071244D02*
X0186639Y0071244D01*
X0187238Y0070646D02*
X0203322Y0070646D01*
X0203322Y0070047D02*
X0187836Y0070047D01*
X0188435Y0069449D02*
X0203322Y0069449D01*
X0203322Y0068850D02*
X0189033Y0068850D01*
X0180930Y0067055D02*
X0158406Y0067055D01*
X0158406Y0067653D02*
X0180331Y0067653D01*
X0179733Y0068252D02*
X0158406Y0068252D01*
X0158406Y0068840D02*
X0157762Y0069485D01*
X0155288Y0069485D01*
X0154875Y0069723D01*
X0154423Y0070175D01*
X0153422Y0070175D01*
X0153422Y0070662D01*
X0156504Y0070662D01*
X0157864Y0071225D01*
X0158905Y0072266D01*
X0159468Y0073626D01*
X0159468Y0075098D01*
X0158905Y0076458D01*
X0157864Y0077498D01*
X0156504Y0078062D01*
X0149832Y0078062D01*
X0148472Y0077498D01*
X0147432Y0076458D01*
X0146868Y0075098D01*
X0146868Y0073626D01*
X0147432Y0072266D01*
X0148472Y0071225D01*
X0149122Y0070956D01*
X0149122Y0070175D01*
X0139788Y0070175D01*
X0139594Y0070194D01*
X0139235Y0070342D01*
X0138961Y0070617D01*
X0138812Y0070975D01*
X0138793Y0071169D01*
X0138793Y0074208D01*
X0137549Y0077213D01*
X0135249Y0079512D01*
X0135249Y0079512D01*
X0132244Y0080757D01*
X0109298Y0080757D01*
X0108654Y0080113D01*
X0108654Y0077101D01*
X0109298Y0076457D01*
X0130618Y0076457D01*
X0131374Y0076383D01*
X0132771Y0075804D01*
X0133840Y0074735D01*
X0134419Y0073338D01*
X0134493Y0072582D01*
X0134493Y0070116D01*
X0135299Y0068170D01*
X0136789Y0066681D01*
X0138735Y0065875D01*
X0152269Y0065875D01*
X0152269Y0063598D01*
X0152914Y0062954D01*
X0157762Y0062954D01*
X0158406Y0063598D01*
X0158406Y0068840D01*
X0158396Y0068850D02*
X0179134Y0068850D01*
X0178536Y0069449D02*
X0157798Y0069449D01*
X0154550Y0070047D02*
X0177937Y0070047D01*
X0177338Y0070646D02*
X0153422Y0070646D01*
X0149122Y0070646D02*
X0138949Y0070646D01*
X0138793Y0071244D02*
X0148453Y0071244D01*
X0147855Y0071843D02*
X0138793Y0071843D01*
X0138793Y0072441D02*
X0147359Y0072441D01*
X0147111Y0073040D02*
X0138793Y0073040D01*
X0138793Y0073638D02*
X0146868Y0073638D01*
X0146868Y0074237D02*
X0138781Y0074237D01*
X0138533Y0074835D02*
X0146868Y0074835D01*
X0147008Y0075434D02*
X0138285Y0075434D01*
X0138037Y0076032D02*
X0147256Y0076032D01*
X0147605Y0076631D02*
X0137790Y0076631D01*
X0137532Y0077229D02*
X0148204Y0077229D01*
X0149268Y0077828D02*
X0136933Y0077828D01*
X0136335Y0078426D02*
X0159747Y0078426D01*
X0159668Y0079025D02*
X0135736Y0079025D01*
X0135249Y0079512D02*
X0135249Y0079512D01*
X0134981Y0079623D02*
X0159668Y0079623D01*
X0159668Y0080222D02*
X0133536Y0080222D01*
X0137432Y0082266D02*
X0138472Y0081225D01*
X0139832Y0080662D01*
X0146504Y0080662D01*
X0147864Y0081225D01*
X0148905Y0082266D01*
X0149468Y0083626D01*
X0149468Y0085098D01*
X0148905Y0086458D01*
X0147864Y0087498D01*
X0146504Y0088062D01*
X0139832Y0088062D01*
X0138472Y0087498D01*
X0137432Y0086458D01*
X0136868Y0085098D01*
X0136868Y0083626D01*
X0137432Y0082266D01*
X0137680Y0082018D02*
X0075271Y0082018D01*
X0075663Y0082409D02*
X0075663Y0087589D01*
X0074784Y0088467D01*
X0072769Y0088467D01*
X0072693Y0088499D01*
X0071301Y0088499D01*
X0071225Y0088467D01*
X0069211Y0088467D01*
X0068332Y0087589D01*
X0068332Y0087362D01*
X0059867Y0087362D01*
X0058479Y0087936D01*
X0056858Y0087936D01*
X0055360Y0087316D01*
X0055094Y0087050D01*
X0051951Y0087050D01*
X0047582Y0085880D01*
X0047582Y0085880D01*
X0043664Y0083618D01*
X0041269Y0081222D01*
X0037562Y0081222D01*
X0036683Y0080344D01*
X0036683Y0070102D01*
X0036608Y0069822D01*
X0036683Y0069542D01*
X0036683Y0058001D01*
X0037562Y0057122D01*
X0043505Y0057122D01*
X0044383Y0058001D01*
X0044383Y0072181D01*
X0044808Y0073767D01*
X0046137Y0076068D01*
X0048016Y0077947D01*
X0050317Y0079276D01*
X0052884Y0079963D01*
X0054213Y0080050D01*
X0056221Y0080050D01*
X0056858Y0079787D01*
X0058479Y0079787D01*
X0059867Y0080362D01*
X0069447Y0080362D01*
X0069447Y0077406D01*
X0069447Y0077406D01*
X0070770Y0073334D01*
X0073287Y0069870D01*
X0073287Y0069870D01*
X0075353Y0068368D01*
X0075353Y0064631D01*
X0076110Y0063875D01*
X0075353Y0063118D01*
X0075353Y0057938D01*
X0076232Y0057060D01*
X0076719Y0057060D01*
X0076719Y0056094D01*
X0077595Y0053398D01*
X0077595Y0053398D01*
X0079261Y0051104D01*
X0079261Y0051104D01*
X0079261Y0051104D01*
X0081555Y0049438D01*
X0081568Y0049433D01*
X0081568Y0047446D01*
X0082193Y0045939D01*
X0083346Y0044786D01*
X0084853Y0044162D01*
X0086484Y0044162D01*
X0087991Y0044786D01*
X0089144Y0045939D01*
X0089768Y0047446D01*
X0089768Y0054277D01*
X0089144Y0055784D01*
X0087991Y0056937D01*
X0086484Y0057562D01*
X0084853Y0057562D01*
X0083346Y0056937D01*
X0082193Y0055784D01*
X0081982Y0055276D01*
X0081793Y0055537D01*
X0081372Y0056831D01*
X0081354Y0057060D01*
X0081805Y0057060D01*
X0082684Y0057938D01*
X0082684Y0063118D01*
X0081927Y0063875D01*
X0082684Y0064631D01*
X0082684Y0066029D01*
X0087097Y0066029D01*
X0087151Y0066007D01*
X0088083Y0066007D01*
X0087354Y0065278D01*
X0087354Y0061936D01*
X0088233Y0061057D01*
X0092004Y0061057D01*
X0092026Y0061055D01*
X0092067Y0061038D01*
X0092099Y0061006D01*
X0092116Y0060965D01*
X0092118Y0060943D01*
X0092118Y0057360D01*
X0093268Y0054585D01*
X0095392Y0052461D01*
X0098094Y0051342D01*
X0098094Y0050206D01*
X0098973Y0049327D01*
X0108798Y0049327D01*
X0109514Y0050043D01*
X0122014Y0050043D01*
X0122038Y0050033D01*
X0122709Y0050043D01*
X0122741Y0050043D01*
X0124332Y0049961D01*
X0127427Y0049179D01*
X0129263Y0048154D01*
X0129263Y0021801D01*
X0130141Y0020922D01*
X0147132Y0020922D01*
X0148011Y0021801D01*
X0148011Y0050603D01*
X0147132Y0051481D01*
X0136438Y0051481D01*
X0134495Y0053369D01*
X0130075Y0055838D01*
X0130075Y0055838D01*
X0125596Y0056970D01*
X0125596Y0057736D01*
X0125036Y0058296D01*
X0125596Y0058856D01*
X0125596Y0064429D01*
X0124717Y0065308D01*
X0122843Y0065308D01*
X0121546Y0066057D01*
X0122742Y0066057D01*
X0124310Y0066962D01*
X0126180Y0066962D01*
X0127059Y0067841D01*
X0127059Y0073021D01*
X0126180Y0073899D01*
X0120607Y0073899D01*
X0119728Y0073021D01*
X0119728Y0071157D01*
X0109133Y0071157D01*
X0108254Y0070278D01*
X0108254Y0066936D01*
X0109083Y0066107D01*
X0108254Y0065278D01*
X0108254Y0061936D01*
X0109133Y0061057D01*
X0118659Y0061057D01*
X0118659Y0058856D01*
X0119219Y0058296D01*
X0118659Y0057736D01*
X0118659Y0057043D01*
X0109677Y0057043D01*
X0109677Y0057827D01*
X0108798Y0058705D01*
X0098973Y0058705D01*
X0098094Y0057827D01*
X0098094Y0057038D01*
X0097631Y0057501D01*
X0097265Y0058384D01*
X0097218Y0058862D01*
X0097218Y0061980D01*
X0096654Y0063343D01*
X0096654Y0065278D01*
X0095825Y0066107D01*
X0096654Y0066936D01*
X0096654Y0070278D01*
X0095775Y0071157D01*
X0092642Y0071157D01*
X0092521Y0071207D01*
X0087151Y0071207D01*
X0086964Y0071129D01*
X0082965Y0071129D01*
X0081648Y0071233D01*
X0079143Y0072047D01*
X0077013Y0073595D01*
X0075465Y0075726D01*
X0074651Y0078230D01*
X0074547Y0079547D01*
X0074547Y0081530D01*
X0074784Y0081530D01*
X0075663Y0082409D01*
X0075663Y0082616D02*
X0137287Y0082616D01*
X0137039Y0083215D02*
X0075663Y0083215D01*
X0075663Y0083813D02*
X0136868Y0083813D01*
X0136868Y0084412D02*
X0075663Y0084412D01*
X0075663Y0085010D02*
X0136868Y0085010D01*
X0137080Y0085609D02*
X0075663Y0085609D01*
X0075663Y0086207D02*
X0137328Y0086207D01*
X0137780Y0086806D02*
X0075663Y0086806D01*
X0075663Y0087404D02*
X0138378Y0087404D01*
X0139690Y0088003D02*
X0075248Y0088003D01*
X0068746Y0088003D02*
X0014968Y0088003D01*
X0014968Y0088601D02*
X0224069Y0088601D01*
X0189234Y0080821D02*
X0176982Y0080821D01*
X0177662Y0080222D02*
X0188635Y0080222D01*
X0174346Y0073638D02*
X0159468Y0073638D01*
X0159468Y0074237D02*
X0173747Y0074237D01*
X0172625Y0074738D02*
X0172625Y0074738D01*
X0172625Y0074738D01*
X0172528Y0074835D02*
X0159468Y0074835D01*
X0159329Y0075434D02*
X0171929Y0075434D01*
X0174944Y0073040D02*
X0159226Y0073040D01*
X0158978Y0072441D02*
X0175543Y0072441D01*
X0176141Y0071843D02*
X0158482Y0071843D01*
X0157884Y0071244D02*
X0176740Y0071244D01*
X0180910Y0066456D02*
X0158406Y0066456D01*
X0158406Y0065858D02*
X0180087Y0065858D01*
X0179263Y0065259D02*
X0158406Y0065259D01*
X0158406Y0064661D02*
X0178439Y0064661D01*
X0178342Y0064590D02*
X0178342Y0064590D01*
X0178342Y0064590D01*
X0177959Y0064062D02*
X0158406Y0064062D01*
X0158272Y0063464D02*
X0177524Y0063464D01*
X0177089Y0062865D02*
X0125596Y0062865D01*
X0125596Y0062267D02*
X0176654Y0062267D01*
X0176219Y0061668D02*
X0125596Y0061668D01*
X0125596Y0061070D02*
X0175809Y0061070D01*
X0175828Y0061130D02*
X0175828Y0061130D01*
X0175614Y0060471D02*
X0125596Y0060471D01*
X0125596Y0059873D02*
X0175420Y0059873D01*
X0175225Y0059274D02*
X0125596Y0059274D01*
X0125415Y0058676D02*
X0175031Y0058676D01*
X0174836Y0058077D02*
X0125255Y0058077D01*
X0125596Y0057479D02*
X0174642Y0057479D01*
X0174507Y0056880D02*
X0125952Y0056880D01*
X0128320Y0056282D02*
X0174507Y0056282D01*
X0174507Y0055683D02*
X0130352Y0055683D01*
X0131424Y0055085D02*
X0174507Y0055085D01*
X0174507Y0054486D02*
X0132495Y0054486D01*
X0133567Y0053887D02*
X0174507Y0053887D01*
X0174507Y0053289D02*
X0134578Y0053289D01*
X0134495Y0053369D02*
X0134495Y0053369D01*
X0135194Y0052690D02*
X0174507Y0052690D01*
X0174507Y0052092D02*
X0135809Y0052092D01*
X0136425Y0051493D02*
X0174507Y0051493D01*
X0168925Y0050895D02*
X0147718Y0050895D01*
X0148011Y0050296D02*
X0168633Y0050296D01*
X0168633Y0049698D02*
X0148011Y0049698D01*
X0148011Y0049099D02*
X0168633Y0049099D01*
X0168633Y0048501D02*
X0148011Y0048501D01*
X0148011Y0047902D02*
X0168633Y0047902D01*
X0168633Y0047304D02*
X0148011Y0047304D01*
X0148011Y0046705D02*
X0168633Y0046705D01*
X0168633Y0046107D02*
X0148011Y0046107D01*
X0148011Y0045508D02*
X0168633Y0045508D01*
X0168633Y0044910D02*
X0148011Y0044910D01*
X0148011Y0044311D02*
X0168633Y0044311D01*
X0168633Y0043713D02*
X0148011Y0043713D01*
X0148011Y0043114D02*
X0168633Y0043114D01*
X0168633Y0042516D02*
X0148011Y0042516D01*
X0148011Y0041917D02*
X0168633Y0041917D01*
X0168633Y0041319D02*
X0148011Y0041319D01*
X0148011Y0040720D02*
X0168633Y0040720D01*
X0168633Y0040122D02*
X0148011Y0040122D01*
X0148011Y0039523D02*
X0168633Y0039523D01*
X0168633Y0038925D02*
X0148011Y0038925D01*
X0148011Y0038326D02*
X0168633Y0038326D01*
X0168633Y0037728D02*
X0148011Y0037728D01*
X0148011Y0037129D02*
X0168633Y0037129D01*
X0168633Y0036531D02*
X0148011Y0036531D01*
X0148011Y0035932D02*
X0168633Y0035932D01*
X0168633Y0035334D02*
X0148011Y0035334D01*
X0148011Y0034735D02*
X0168633Y0034735D01*
X0168633Y0034137D02*
X0148011Y0034137D01*
X0148011Y0033538D02*
X0168633Y0033538D01*
X0168633Y0032940D02*
X0148011Y0032940D01*
X0148011Y0032341D02*
X0168633Y0032341D01*
X0168633Y0031743D02*
X0148011Y0031743D01*
X0148011Y0031144D02*
X0168633Y0031144D01*
X0168633Y0030546D02*
X0148011Y0030546D01*
X0148011Y0029947D02*
X0168633Y0029947D01*
X0168633Y0029349D02*
X0148011Y0029349D01*
X0148011Y0028750D02*
X0168633Y0028750D01*
X0168633Y0028152D02*
X0148011Y0028152D01*
X0148011Y0027553D02*
X0168633Y0027553D01*
X0168633Y0026954D02*
X0148011Y0026954D01*
X0148011Y0026356D02*
X0168633Y0026356D01*
X0168633Y0025757D02*
X0148011Y0025757D01*
X0148011Y0025159D02*
X0168633Y0025159D01*
X0168633Y0024560D02*
X0148011Y0024560D01*
X0148011Y0023962D02*
X0168633Y0023962D01*
X0168633Y0023363D02*
X0148011Y0023363D01*
X0148011Y0022765D02*
X0168633Y0022765D01*
X0168633Y0022166D02*
X0148011Y0022166D01*
X0147778Y0021568D02*
X0168866Y0021568D01*
X0169464Y0020969D02*
X0147179Y0020969D01*
X0130094Y0020969D02*
X0014968Y0020969D01*
X0014968Y0021568D02*
X0129496Y0021568D01*
X0129263Y0022166D02*
X0014968Y0022166D01*
X0014968Y0022765D02*
X0129263Y0022765D01*
X0129263Y0023363D02*
X0014968Y0023363D01*
X0014968Y0023962D02*
X0129263Y0023962D01*
X0129263Y0024560D02*
X0014968Y0024560D01*
X0014968Y0025159D02*
X0129263Y0025159D01*
X0129263Y0025757D02*
X0014968Y0025757D01*
X0014968Y0026356D02*
X0129263Y0026356D01*
X0129263Y0026954D02*
X0014968Y0026954D01*
X0014968Y0027553D02*
X0129263Y0027553D01*
X0129263Y0028152D02*
X0014968Y0028152D01*
X0014968Y0028750D02*
X0129263Y0028750D01*
X0129263Y0029349D02*
X0014968Y0029349D01*
X0014968Y0029947D02*
X0129263Y0029947D01*
X0129263Y0030546D02*
X0014968Y0030546D01*
X0014968Y0031144D02*
X0129263Y0031144D01*
X0129263Y0031743D02*
X0014968Y0031743D01*
X0014968Y0032341D02*
X0129263Y0032341D01*
X0129263Y0032940D02*
X0014968Y0032940D01*
X0014968Y0033538D02*
X0129263Y0033538D01*
X0129263Y0034137D02*
X0014968Y0034137D01*
X0014968Y0034735D02*
X0074514Y0034735D01*
X0074932Y0034562D02*
X0076404Y0034562D01*
X0077764Y0035125D01*
X0078805Y0036166D01*
X0079368Y0037526D01*
X0079368Y0044198D01*
X0078805Y0045558D01*
X0077764Y0046598D01*
X0076404Y0047162D01*
X0074932Y0047162D01*
X0073572Y0046598D01*
X0072532Y0045558D01*
X0071968Y0044198D01*
X0071968Y0037526D01*
X0072532Y0036166D01*
X0073572Y0035125D01*
X0074932Y0034562D01*
X0073364Y0035334D02*
X0014968Y0035334D01*
X0014968Y0035932D02*
X0072765Y0035932D01*
X0072380Y0036531D02*
X0014968Y0036531D01*
X0014968Y0037129D02*
X0072133Y0037129D01*
X0071968Y0037728D02*
X0014968Y0037728D01*
X0014968Y0038326D02*
X0071968Y0038326D01*
X0071968Y0038925D02*
X0014968Y0038925D01*
X0014968Y0039523D02*
X0071968Y0039523D01*
X0071968Y0040122D02*
X0014968Y0040122D01*
X0014968Y0040720D02*
X0071968Y0040720D01*
X0071968Y0041319D02*
X0014968Y0041319D01*
X0014968Y0041917D02*
X0071968Y0041917D01*
X0071968Y0042516D02*
X0014968Y0042516D01*
X0014968Y0043114D02*
X0071968Y0043114D01*
X0071968Y0043713D02*
X0014968Y0043713D01*
X0014968Y0044311D02*
X0072015Y0044311D01*
X0072263Y0044910D02*
X0014968Y0044910D01*
X0014968Y0045508D02*
X0072511Y0045508D01*
X0073081Y0046107D02*
X0014968Y0046107D01*
X0014968Y0046705D02*
X0073831Y0046705D01*
X0077506Y0046705D02*
X0081875Y0046705D01*
X0082123Y0046107D02*
X0078256Y0046107D01*
X0078825Y0045508D02*
X0082623Y0045508D01*
X0083222Y0044910D02*
X0079073Y0044910D01*
X0079321Y0044311D02*
X0084492Y0044311D01*
X0086845Y0044311D02*
X0129263Y0044311D01*
X0129263Y0043713D02*
X0079368Y0043713D01*
X0079368Y0043114D02*
X0129263Y0043114D01*
X0129263Y0042516D02*
X0079368Y0042516D01*
X0079368Y0041917D02*
X0129263Y0041917D01*
X0129263Y0041319D02*
X0079368Y0041319D01*
X0079368Y0040720D02*
X0129263Y0040720D01*
X0129263Y0040122D02*
X0079368Y0040122D01*
X0079368Y0039523D02*
X0129263Y0039523D01*
X0129263Y0038925D02*
X0079368Y0038925D01*
X0079368Y0038326D02*
X0129263Y0038326D01*
X0129263Y0037728D02*
X0079368Y0037728D01*
X0079204Y0037129D02*
X0129263Y0037129D01*
X0129263Y0036531D02*
X0078956Y0036531D01*
X0078571Y0035932D02*
X0129263Y0035932D01*
X0129263Y0035334D02*
X0077973Y0035334D01*
X0076823Y0034735D02*
X0129263Y0034735D01*
X0129263Y0044910D02*
X0088115Y0044910D01*
X0088713Y0045508D02*
X0129263Y0045508D01*
X0129263Y0046107D02*
X0089214Y0046107D01*
X0089461Y0046705D02*
X0129263Y0046705D01*
X0129263Y0047304D02*
X0089709Y0047304D01*
X0089768Y0047902D02*
X0129263Y0047902D01*
X0128641Y0048501D02*
X0089768Y0048501D01*
X0089768Y0049099D02*
X0127570Y0049099D01*
X0125374Y0049698D02*
X0109169Y0049698D01*
X0098602Y0049698D02*
X0089768Y0049698D01*
X0089768Y0050296D02*
X0098094Y0050296D01*
X0098094Y0050895D02*
X0089768Y0050895D01*
X0089768Y0051493D02*
X0097728Y0051493D01*
X0096283Y0052092D02*
X0089768Y0052092D01*
X0089768Y0052690D02*
X0095162Y0052690D01*
X0095392Y0052461D02*
X0095392Y0052461D01*
X0094564Y0053289D02*
X0089768Y0053289D01*
X0089768Y0053887D02*
X0093965Y0053887D01*
X0093367Y0054486D02*
X0089682Y0054486D01*
X0089434Y0055085D02*
X0093061Y0055085D01*
X0093268Y0054585D02*
X0093268Y0054585D01*
X0092813Y0055683D02*
X0089186Y0055683D01*
X0088647Y0056282D02*
X0092565Y0056282D01*
X0092317Y0056880D02*
X0088048Y0056880D01*
X0086684Y0057479D02*
X0092118Y0057479D01*
X0092118Y0058077D02*
X0082684Y0058077D01*
X0082684Y0058676D02*
X0092118Y0058676D01*
X0092118Y0059274D02*
X0082684Y0059274D01*
X0082684Y0059873D02*
X0092118Y0059873D01*
X0092118Y0060471D02*
X0082684Y0060471D01*
X0082684Y0061070D02*
X0088220Y0061070D01*
X0087621Y0061668D02*
X0082684Y0061668D01*
X0082684Y0062267D02*
X0087354Y0062267D01*
X0087354Y0062865D02*
X0082684Y0062865D01*
X0082338Y0063464D02*
X0087354Y0063464D01*
X0087354Y0064062D02*
X0082115Y0064062D01*
X0082684Y0064661D02*
X0087354Y0064661D01*
X0087354Y0065259D02*
X0082684Y0065259D01*
X0082684Y0065858D02*
X0087933Y0065858D01*
X0096075Y0065858D02*
X0108833Y0065858D01*
X0108733Y0066456D02*
X0096174Y0066456D01*
X0096654Y0067055D02*
X0108254Y0067055D01*
X0108254Y0067653D02*
X0096654Y0067653D01*
X0096654Y0068252D02*
X0108254Y0068252D01*
X0108254Y0068850D02*
X0096654Y0068850D01*
X0096654Y0069449D02*
X0108254Y0069449D01*
X0108254Y0070047D02*
X0096654Y0070047D01*
X0096286Y0070646D02*
X0108621Y0070646D01*
X0119728Y0071244D02*
X0081613Y0071244D01*
X0079771Y0071843D02*
X0119728Y0071843D01*
X0119728Y0072441D02*
X0078600Y0072441D01*
X0077777Y0073040D02*
X0119747Y0073040D01*
X0120346Y0073638D02*
X0076981Y0073638D01*
X0076546Y0074237D02*
X0134046Y0074237D01*
X0134294Y0073638D02*
X0126441Y0073638D01*
X0127040Y0073040D02*
X0134448Y0073040D01*
X0134493Y0072441D02*
X0127059Y0072441D01*
X0127059Y0071843D02*
X0134493Y0071843D01*
X0134493Y0071244D02*
X0127059Y0071244D01*
X0127059Y0070646D02*
X0134493Y0070646D01*
X0134522Y0070047D02*
X0127059Y0070047D01*
X0127059Y0069449D02*
X0134770Y0069449D01*
X0135018Y0068850D02*
X0127059Y0068850D01*
X0127059Y0068252D02*
X0135265Y0068252D01*
X0135299Y0068170D02*
X0135299Y0068170D01*
X0135816Y0067653D02*
X0126871Y0067653D01*
X0126273Y0067055D02*
X0136415Y0067055D01*
X0136789Y0066681D02*
X0136789Y0066681D01*
X0137331Y0066456D02*
X0123433Y0066456D01*
X0121891Y0065858D02*
X0152269Y0065858D01*
X0152269Y0065259D02*
X0124766Y0065259D01*
X0125365Y0064661D02*
X0152269Y0064661D01*
X0152269Y0064062D02*
X0125596Y0064062D01*
X0125596Y0063464D02*
X0152404Y0063464D01*
X0133739Y0074835D02*
X0076111Y0074835D01*
X0075677Y0075434D02*
X0133141Y0075434D01*
X0132219Y0076032D02*
X0087633Y0076032D01*
X0087525Y0075925D02*
X0088070Y0076470D01*
X0088385Y0076470D01*
X0088398Y0076457D01*
X0095610Y0076457D01*
X0096254Y0077101D01*
X0096254Y0080113D01*
X0095610Y0080757D01*
X0088398Y0080757D01*
X0087991Y0080350D01*
X0087525Y0080815D01*
X0086465Y0081254D01*
X0085318Y0081254D01*
X0084258Y0080815D01*
X0083446Y0080004D01*
X0083007Y0078944D01*
X0083007Y0077797D01*
X0083446Y0076736D01*
X0084258Y0075925D01*
X0085318Y0075486D01*
X0086465Y0075486D01*
X0087525Y0075925D01*
X0084150Y0076032D02*
X0075365Y0076032D01*
X0075171Y0076631D02*
X0083552Y0076631D01*
X0083242Y0077229D02*
X0074976Y0077229D01*
X0074782Y0077828D02*
X0083007Y0077828D01*
X0083007Y0078426D02*
X0074635Y0078426D01*
X0074588Y0079025D02*
X0083041Y0079025D01*
X0083289Y0079623D02*
X0074547Y0079623D01*
X0074547Y0080222D02*
X0083664Y0080222D01*
X0084270Y0080821D02*
X0074547Y0080821D01*
X0074547Y0081419D02*
X0138278Y0081419D01*
X0139449Y0080821D02*
X0087513Y0080821D01*
X0096145Y0080222D02*
X0108763Y0080222D01*
X0108654Y0079623D02*
X0096254Y0079623D01*
X0096254Y0079025D02*
X0108654Y0079025D01*
X0108654Y0078426D02*
X0096254Y0078426D01*
X0096254Y0077828D02*
X0108654Y0077828D01*
X0108654Y0077229D02*
X0096254Y0077229D01*
X0095783Y0076631D02*
X0109124Y0076631D01*
X0108254Y0065259D02*
X0096654Y0065259D01*
X0096654Y0064661D02*
X0108254Y0064661D01*
X0108254Y0064062D02*
X0096654Y0064062D01*
X0096654Y0063464D02*
X0108254Y0063464D01*
X0108254Y0062865D02*
X0096852Y0062865D01*
X0097100Y0062267D02*
X0108254Y0062267D01*
X0108521Y0061668D02*
X0097218Y0061668D01*
X0097218Y0061070D02*
X0109120Y0061070D01*
X0108828Y0058676D02*
X0118839Y0058676D01*
X0118999Y0058077D02*
X0109426Y0058077D01*
X0109677Y0057479D02*
X0118659Y0057479D01*
X0118659Y0059274D02*
X0097218Y0059274D01*
X0097218Y0059873D02*
X0118659Y0059873D01*
X0118659Y0060471D02*
X0097218Y0060471D01*
X0097237Y0058676D02*
X0098943Y0058676D01*
X0098344Y0058077D02*
X0097392Y0058077D01*
X0097653Y0057479D02*
X0098094Y0057479D01*
X0084652Y0057479D02*
X0082224Y0057479D01*
X0081368Y0056880D02*
X0083288Y0056880D01*
X0082690Y0056282D02*
X0081551Y0056282D01*
X0081745Y0055683D02*
X0082151Y0055683D01*
X0077436Y0053887D02*
X0014968Y0053887D01*
X0014968Y0053289D02*
X0077674Y0053289D01*
X0078109Y0052690D02*
X0014968Y0052690D01*
X0014968Y0052092D02*
X0078543Y0052092D01*
X0078978Y0051493D02*
X0014968Y0051493D01*
X0014968Y0050895D02*
X0079549Y0050895D01*
X0080373Y0050296D02*
X0014968Y0050296D01*
X0014968Y0049698D02*
X0081197Y0049698D01*
X0081555Y0049438D02*
X0081555Y0049438D01*
X0081568Y0049099D02*
X0014968Y0049099D01*
X0014968Y0048501D02*
X0081568Y0048501D01*
X0081568Y0047902D02*
X0014968Y0047902D01*
X0014968Y0047304D02*
X0081627Y0047304D01*
X0077241Y0054486D02*
X0014968Y0054486D01*
X0014968Y0055085D02*
X0077047Y0055085D01*
X0076852Y0055683D02*
X0014968Y0055683D01*
X0014968Y0056282D02*
X0076719Y0056282D01*
X0076719Y0056880D02*
X0014968Y0056880D01*
X0014968Y0057479D02*
X0037206Y0057479D01*
X0036683Y0058077D02*
X0014968Y0058077D01*
X0014968Y0058676D02*
X0036683Y0058676D01*
X0036683Y0059274D02*
X0014968Y0059274D01*
X0014968Y0059873D02*
X0036683Y0059873D01*
X0036683Y0060471D02*
X0014968Y0060471D01*
X0014968Y0061070D02*
X0036683Y0061070D01*
X0036683Y0061668D02*
X0014968Y0061668D01*
X0014968Y0062267D02*
X0036683Y0062267D01*
X0036683Y0062865D02*
X0014968Y0062865D01*
X0014968Y0063464D02*
X0036683Y0063464D01*
X0036683Y0064062D02*
X0014968Y0064062D01*
X0014968Y0064661D02*
X0036683Y0064661D01*
X0036683Y0065259D02*
X0014968Y0065259D01*
X0014968Y0065858D02*
X0036683Y0065858D01*
X0036683Y0066456D02*
X0014968Y0066456D01*
X0014968Y0067055D02*
X0036683Y0067055D01*
X0036683Y0067653D02*
X0014968Y0067653D01*
X0014968Y0068252D02*
X0036683Y0068252D01*
X0036683Y0068850D02*
X0014968Y0068850D01*
X0014968Y0069449D02*
X0036683Y0069449D01*
X0036608Y0069822D02*
X0036608Y0069822D01*
X0036669Y0070047D02*
X0014968Y0070047D01*
X0014968Y0070646D02*
X0036683Y0070646D01*
X0036683Y0071244D02*
X0014968Y0071244D01*
X0014968Y0071843D02*
X0036683Y0071843D01*
X0036683Y0072441D02*
X0014968Y0072441D01*
X0014968Y0073040D02*
X0036683Y0073040D01*
X0036683Y0073638D02*
X0014968Y0073638D01*
X0014968Y0074237D02*
X0036683Y0074237D01*
X0036683Y0074835D02*
X0014968Y0074835D01*
X0014968Y0075434D02*
X0036683Y0075434D01*
X0036683Y0076032D02*
X0014968Y0076032D01*
X0014968Y0076631D02*
X0036683Y0076631D01*
X0036683Y0077229D02*
X0014968Y0077229D01*
X0014968Y0077828D02*
X0036683Y0077828D01*
X0036683Y0078426D02*
X0014968Y0078426D01*
X0014968Y0079025D02*
X0036683Y0079025D01*
X0036683Y0079623D02*
X0014968Y0079623D01*
X0014968Y0080222D02*
X0036683Y0080222D01*
X0037160Y0080821D02*
X0014968Y0080821D01*
X0014968Y0081419D02*
X0041465Y0081419D01*
X0042064Y0082018D02*
X0014968Y0082018D01*
X0014968Y0082616D02*
X0042662Y0082616D01*
X0043261Y0083215D02*
X0014968Y0083215D01*
X0014968Y0083813D02*
X0044002Y0083813D01*
X0043664Y0083618D02*
X0043664Y0083618D01*
X0045039Y0084412D02*
X0014968Y0084412D01*
X0014968Y0085010D02*
X0046075Y0085010D01*
X0047112Y0085609D02*
X0014968Y0085609D01*
X0014968Y0086207D02*
X0048803Y0086207D01*
X0051037Y0086806D02*
X0014968Y0086806D01*
X0014968Y0087404D02*
X0055573Y0087404D01*
X0059764Y0087404D02*
X0068332Y0087404D01*
X0069447Y0080222D02*
X0059529Y0080222D01*
X0051615Y0079623D02*
X0069447Y0079623D01*
X0069447Y0079025D02*
X0049883Y0079025D01*
X0048846Y0078426D02*
X0069447Y0078426D01*
X0069447Y0077828D02*
X0047897Y0077828D01*
X0047298Y0077229D02*
X0069505Y0077229D01*
X0069699Y0076631D02*
X0046700Y0076631D01*
X0046116Y0076032D02*
X0069894Y0076032D01*
X0070088Y0075434D02*
X0045771Y0075434D01*
X0045425Y0074835D02*
X0070283Y0074835D01*
X0070477Y0074237D02*
X0045080Y0074237D01*
X0044774Y0073638D02*
X0070671Y0073638D01*
X0070984Y0073040D02*
X0044613Y0073040D01*
X0044453Y0072441D02*
X0071419Y0072441D01*
X0071854Y0071843D02*
X0044383Y0071843D01*
X0044383Y0071244D02*
X0072288Y0071244D01*
X0072723Y0070646D02*
X0044383Y0070646D01*
X0044383Y0070047D02*
X0073158Y0070047D01*
X0073866Y0069449D02*
X0044383Y0069449D01*
X0044383Y0068850D02*
X0074690Y0068850D01*
X0075353Y0068252D02*
X0044383Y0068252D01*
X0044383Y0067653D02*
X0075353Y0067653D01*
X0075353Y0067055D02*
X0044383Y0067055D01*
X0044383Y0066456D02*
X0075353Y0066456D01*
X0075353Y0065858D02*
X0044383Y0065858D01*
X0044383Y0065259D02*
X0075353Y0065259D01*
X0075353Y0064661D02*
X0044383Y0064661D01*
X0044383Y0064062D02*
X0075923Y0064062D01*
X0075699Y0063464D02*
X0044383Y0063464D01*
X0044383Y0062865D02*
X0075353Y0062865D01*
X0075353Y0062267D02*
X0044383Y0062267D01*
X0044383Y0061668D02*
X0075353Y0061668D01*
X0075353Y0061070D02*
X0044383Y0061070D01*
X0044383Y0060471D02*
X0075353Y0060471D01*
X0075353Y0059873D02*
X0044383Y0059873D01*
X0044383Y0059274D02*
X0075353Y0059274D01*
X0075353Y0058676D02*
X0044383Y0058676D01*
X0044383Y0058077D02*
X0075353Y0058077D01*
X0075813Y0057479D02*
X0043861Y0057479D01*
X0146888Y0080821D02*
X0158404Y0080821D01*
X0157713Y0081419D02*
X0148058Y0081419D01*
X0148657Y0082018D02*
X0157114Y0082018D01*
X0156854Y0082616D02*
X0149050Y0082616D01*
X0149298Y0083215D02*
X0156606Y0083215D01*
X0156468Y0083813D02*
X0149468Y0083813D01*
X0149468Y0084412D02*
X0156468Y0084412D01*
X0156468Y0085010D02*
X0149468Y0085010D01*
X0149257Y0085609D02*
X0156647Y0085609D01*
X0156895Y0086207D02*
X0149009Y0086207D01*
X0148557Y0086806D02*
X0157214Y0086806D01*
X0157813Y0087404D02*
X0147958Y0087404D01*
X0146647Y0088003D02*
X0158645Y0088003D01*
X0160092Y0077828D02*
X0157069Y0077828D01*
X0158133Y0077229D02*
X0160438Y0077229D01*
X0160783Y0076631D02*
X0158732Y0076631D01*
X0159081Y0076032D02*
X0161791Y0076032D01*
X0160797Y0076606D02*
X0160797Y0076606D01*
X0184718Y0060471D02*
X0203322Y0060471D01*
X0203322Y0059873D02*
X0183894Y0059873D01*
X0183231Y0059274D02*
X0203322Y0059274D01*
X0203322Y0058676D02*
X0182796Y0058676D01*
X0182361Y0058077D02*
X0203322Y0058077D01*
X0203322Y0057479D02*
X0182086Y0057479D01*
X0181892Y0056880D02*
X0203322Y0056880D01*
X0203322Y0056282D02*
X0181697Y0056282D01*
X0181566Y0055683D02*
X0203322Y0055683D01*
X0203322Y0055085D02*
X0181519Y0055085D01*
X0181507Y0054486D02*
X0203791Y0054486D01*
X0203322Y0061070D02*
X0186141Y0061070D01*
X0210622Y0068850D02*
X0214167Y0068850D01*
X0214168Y0069449D02*
X0210622Y0069449D01*
X0210622Y0070047D02*
X0214168Y0070047D01*
X0214168Y0070646D02*
X0210622Y0070646D01*
X0210622Y0071244D02*
X0214168Y0071244D01*
X0214168Y0071843D02*
X0210622Y0071843D01*
X0210378Y0072441D02*
X0214168Y0072441D01*
X0214168Y0073040D02*
X0209779Y0073040D01*
D21*
X0211915Y0037976D03*
X0211915Y0032976D03*
X0201915Y0032976D03*
X0201915Y0037976D03*
X0104915Y0065476D03*
X0099915Y0065476D03*
X0099915Y0070476D03*
X0104915Y0070476D03*
X0104915Y0075476D03*
X0099915Y0075476D03*
X0099915Y0080476D03*
X0104915Y0080476D03*
X0085892Y0078370D03*
X0047415Y0032976D03*
X0047415Y0027976D03*
X0032415Y0027976D03*
X0032415Y0032976D03*
D22*
X0103885Y0053543D02*
X0103885Y0053862D01*
X0103885Y0054016D01*
X0136643Y0071169D02*
X0136643Y0072582D01*
X0175457Y0077477D02*
X0192146Y0077477D01*
X0205622Y0064926D02*
X0205693Y0064924D01*
X0205763Y0064919D01*
X0205833Y0064909D01*
X0205903Y0064896D01*
X0205971Y0064880D01*
X0206039Y0064860D01*
X0206106Y0064836D01*
X0206171Y0064809D01*
X0206235Y0064779D01*
X0206297Y0064745D01*
X0206357Y0064708D01*
X0206416Y0064668D01*
X0206472Y0064625D01*
X0206525Y0064579D01*
X0206577Y0064531D01*
X0206625Y0064479D01*
X0206671Y0064426D01*
X0206714Y0064370D01*
X0206754Y0064311D01*
X0206791Y0064251D01*
X0206825Y0064189D01*
X0206855Y0064125D01*
X0206882Y0064060D01*
X0206906Y0063993D01*
X0206926Y0063925D01*
X0206942Y0063857D01*
X0206955Y0063787D01*
X0206965Y0063717D01*
X0206970Y0063647D01*
X0206972Y0063576D01*
D23*
X0205622Y0064926D02*
X0202668Y0064926D01*
X0188008Y0064926D01*
X0175457Y0077477D01*
X0175381Y0077479D01*
X0175305Y0077485D01*
X0175230Y0077494D01*
X0175155Y0077508D01*
X0175081Y0077525D01*
X0175008Y0077546D01*
X0174936Y0077570D01*
X0174865Y0077599D01*
X0174796Y0077630D01*
X0174729Y0077665D01*
X0174664Y0077704D01*
X0174600Y0077746D01*
X0174539Y0077791D01*
X0174480Y0077839D01*
X0174424Y0077890D01*
X0174370Y0077944D01*
X0174319Y0078000D01*
X0174271Y0078059D01*
X0174226Y0078120D01*
X0174184Y0078184D01*
X0174145Y0078249D01*
X0174110Y0078316D01*
X0174079Y0078385D01*
X0174050Y0078456D01*
X0174026Y0078528D01*
X0174005Y0078601D01*
X0173988Y0078675D01*
X0173974Y0078750D01*
X0173965Y0078825D01*
X0173959Y0078901D01*
X0173957Y0078977D01*
X0163882Y0078977D01*
X0163831Y0078979D01*
X0163780Y0078984D01*
X0163730Y0078993D01*
X0163681Y0079006D01*
X0163632Y0079022D01*
X0163585Y0079042D01*
X0163540Y0079064D01*
X0163496Y0079090D01*
X0163454Y0079119D01*
X0163414Y0079151D01*
X0163377Y0079186D01*
X0163342Y0079223D01*
X0163310Y0079263D01*
X0163281Y0079305D01*
X0163255Y0079349D01*
X0163233Y0079394D01*
X0163213Y0079441D01*
X0163197Y0079490D01*
X0163184Y0079539D01*
X0163175Y0079589D01*
X0163170Y0079640D01*
X0163168Y0079691D01*
X0163168Y0084362D01*
X0202668Y0064926D02*
X0202670Y0064912D01*
X0202674Y0064898D01*
X0202682Y0064886D01*
X0202692Y0064876D01*
X0202704Y0064868D01*
X0202718Y0064864D01*
X0202732Y0064862D01*
X0213668Y0064862D01*
X0213794Y0064864D01*
X0213919Y0064870D01*
X0214044Y0064880D01*
X0214169Y0064894D01*
X0214294Y0064911D01*
X0214418Y0064933D01*
X0214541Y0064958D01*
X0214663Y0064988D01*
X0214784Y0065021D01*
X0214904Y0065058D01*
X0215023Y0065098D01*
X0215140Y0065143D01*
X0215257Y0065191D01*
X0215371Y0065243D01*
X0215484Y0065298D01*
X0215595Y0065357D01*
X0215704Y0065419D01*
X0215811Y0065485D01*
X0215916Y0065554D01*
X0216019Y0065626D01*
X0216120Y0065701D01*
X0216218Y0065780D01*
X0216313Y0065862D01*
X0216406Y0065946D01*
X0216496Y0066034D01*
X0216584Y0066124D01*
X0216668Y0066217D01*
X0216750Y0066312D01*
X0216829Y0066410D01*
X0216904Y0066511D01*
X0216976Y0066614D01*
X0217045Y0066719D01*
X0217111Y0066826D01*
X0217173Y0066935D01*
X0217232Y0067046D01*
X0217287Y0067159D01*
X0217339Y0067273D01*
X0217387Y0067390D01*
X0217432Y0067507D01*
X0217472Y0067626D01*
X0217509Y0067746D01*
X0217542Y0067867D01*
X0217572Y0067989D01*
X0217597Y0068112D01*
X0217619Y0068236D01*
X0217636Y0068361D01*
X0217650Y0068486D01*
X0217660Y0068611D01*
X0217666Y0068736D01*
X0217668Y0068862D01*
X0217668Y0083862D01*
X0188008Y0064925D02*
X0187766Y0064922D01*
X0187525Y0064913D01*
X0187284Y0064899D01*
X0187043Y0064878D01*
X0186803Y0064852D01*
X0186563Y0064820D01*
X0186324Y0064782D01*
X0186087Y0064739D01*
X0185850Y0064689D01*
X0185615Y0064634D01*
X0185381Y0064574D01*
X0185148Y0064507D01*
X0184918Y0064436D01*
X0184689Y0064358D01*
X0184462Y0064275D01*
X0184237Y0064187D01*
X0184014Y0064093D01*
X0183794Y0063994D01*
X0183576Y0063889D01*
X0183360Y0063779D01*
X0183148Y0063665D01*
X0182938Y0063545D01*
X0182731Y0063420D01*
X0182527Y0063290D01*
X0182327Y0063155D01*
X0182130Y0063015D01*
X0181936Y0062871D01*
X0181746Y0062722D01*
X0181559Y0062568D01*
X0181376Y0062410D01*
X0181197Y0062247D01*
X0181022Y0062081D01*
X0180851Y0061910D01*
X0180685Y0061735D01*
X0180522Y0061556D01*
X0180364Y0061373D01*
X0180210Y0061186D01*
X0180061Y0060996D01*
X0179917Y0060802D01*
X0179777Y0060605D01*
X0179642Y0060405D01*
X0179512Y0060201D01*
X0179387Y0059994D01*
X0179267Y0059784D01*
X0179153Y0059572D01*
X0179043Y0059356D01*
X0178938Y0059138D01*
X0178839Y0058918D01*
X0178745Y0058695D01*
X0178657Y0058470D01*
X0178574Y0058243D01*
X0178496Y0058014D01*
X0178425Y0057784D01*
X0178358Y0057551D01*
X0178298Y0057317D01*
X0178243Y0057082D01*
X0178193Y0056845D01*
X0178150Y0056608D01*
X0178112Y0056369D01*
X0178080Y0056129D01*
X0178054Y0055889D01*
X0178033Y0055648D01*
X0178019Y0055407D01*
X0178010Y0055166D01*
X0178007Y0054924D01*
X0178007Y0036202D01*
X0138637Y0036202D02*
X0138637Y0038039D01*
X0138636Y0038039D02*
X0138626Y0038419D01*
X0138607Y0038799D01*
X0138579Y0039178D01*
X0138541Y0039556D01*
X0138495Y0039933D01*
X0138439Y0040309D01*
X0138374Y0040684D01*
X0138300Y0041057D01*
X0138217Y0041428D01*
X0138126Y0041797D01*
X0138025Y0042163D01*
X0137916Y0042527D01*
X0137797Y0042889D01*
X0137670Y0043247D01*
X0137535Y0043602D01*
X0137391Y0043954D01*
X0137238Y0044302D01*
X0137077Y0044646D01*
X0136908Y0044987D01*
X0136731Y0045323D01*
X0136545Y0045655D01*
X0136352Y0045982D01*
X0136151Y0046304D01*
X0135942Y0046622D01*
X0135725Y0046934D01*
X0135501Y0047241D01*
X0135269Y0047543D01*
X0135031Y0047839D01*
X0134785Y0048129D01*
X0134532Y0048413D01*
X0134273Y0048690D01*
X0134007Y0048962D01*
X0133734Y0049227D01*
X0133455Y0049485D01*
X0133170Y0049737D01*
X0132879Y0049981D01*
X0132582Y0050218D01*
X0132280Y0050449D01*
X0131972Y0050671D01*
X0131658Y0050887D01*
X0131340Y0051094D01*
X0131017Y0051294D01*
X0130688Y0051486D01*
X0130356Y0051670D01*
X0130019Y0051846D01*
X0129678Y0052014D01*
X0129333Y0052173D01*
X0128984Y0052324D01*
X0128631Y0052467D01*
X0128276Y0052601D01*
X0127917Y0052726D01*
X0127555Y0052843D01*
X0127191Y0052951D01*
X0126824Y0053050D01*
X0126454Y0053140D01*
X0126083Y0053221D01*
X0125710Y0053293D01*
X0125335Y0053357D01*
X0124959Y0053411D01*
X0124581Y0053456D01*
X0124203Y0053492D01*
X0123824Y0053518D01*
X0123444Y0053536D01*
X0123064Y0053544D01*
X0122684Y0053543D01*
X0103885Y0053543D01*
X0054213Y0083550D02*
X0053882Y0083546D01*
X0053552Y0083534D01*
X0053222Y0083514D01*
X0052893Y0083486D01*
X0052564Y0083450D01*
X0052237Y0083406D01*
X0051910Y0083355D01*
X0051585Y0083295D01*
X0051261Y0083228D01*
X0050939Y0083153D01*
X0050619Y0083070D01*
X0050302Y0082979D01*
X0049986Y0082881D01*
X0049673Y0082775D01*
X0049362Y0082661D01*
X0049055Y0082540D01*
X0048750Y0082412D01*
X0048449Y0082276D01*
X0048151Y0082133D01*
X0047856Y0081983D01*
X0047565Y0081826D01*
X0047278Y0081662D01*
X0046995Y0081491D01*
X0046717Y0081313D01*
X0046442Y0081129D01*
X0046173Y0080938D01*
X0045908Y0080740D01*
X0045647Y0080536D01*
X0045392Y0080326D01*
X0045142Y0080110D01*
X0044897Y0079888D01*
X0044658Y0079660D01*
X0044424Y0079426D01*
X0044196Y0079187D01*
X0043974Y0078942D01*
X0043758Y0078692D01*
X0043548Y0078437D01*
X0043344Y0078176D01*
X0043146Y0077911D01*
X0042955Y0077642D01*
X0042771Y0077367D01*
X0042593Y0077089D01*
X0042422Y0076806D01*
X0042258Y0076519D01*
X0042101Y0076228D01*
X0041951Y0075933D01*
X0041808Y0075635D01*
X0041672Y0075334D01*
X0041544Y0075029D01*
X0041423Y0074722D01*
X0041309Y0074411D01*
X0041203Y0074098D01*
X0041105Y0073782D01*
X0041014Y0073465D01*
X0040931Y0073145D01*
X0040856Y0072823D01*
X0040789Y0072499D01*
X0040729Y0072174D01*
X0040678Y0071847D01*
X0040634Y0071520D01*
X0040598Y0071191D01*
X0040570Y0070862D01*
X0040550Y0070532D01*
X0040538Y0070202D01*
X0040534Y0069871D01*
X0040533Y0069871D02*
X0040533Y0069172D01*
X0040494Y0069214D01*
X0040457Y0069259D01*
X0040423Y0069305D01*
X0040392Y0069354D01*
X0040364Y0069405D01*
X0040340Y0069457D01*
X0040318Y0069511D01*
X0040300Y0069566D01*
X0040286Y0069622D01*
X0040275Y0069678D01*
X0040268Y0069736D01*
X0040264Y0069793D01*
X0040264Y0069851D01*
X0040268Y0069908D01*
X0040275Y0069966D01*
X0040286Y0070022D01*
X0040300Y0070078D01*
X0040318Y0070133D01*
X0040340Y0070187D01*
X0040364Y0070239D01*
X0040392Y0070290D01*
X0040423Y0070339D01*
X0040457Y0070385D01*
X0040494Y0070430D01*
X0040533Y0070472D01*
X0054213Y0083550D02*
X0057357Y0083550D01*
X0057668Y0083862D02*
X0070860Y0083862D01*
X0071997Y0084999D01*
X0071995Y0084933D01*
X0071989Y0084867D01*
X0071980Y0084802D01*
X0071966Y0084737D01*
X0071949Y0084673D01*
X0071928Y0084610D01*
X0071904Y0084549D01*
X0071876Y0084489D01*
X0071845Y0084431D01*
X0071810Y0084374D01*
X0071772Y0084320D01*
X0071731Y0084268D01*
X0071687Y0084219D01*
X0071640Y0084172D01*
X0071591Y0084128D01*
X0071539Y0084087D01*
X0071485Y0084049D01*
X0071429Y0084014D01*
X0071370Y0083983D01*
X0071310Y0083955D01*
X0071249Y0083931D01*
X0071186Y0083910D01*
X0071122Y0083893D01*
X0071057Y0083879D01*
X0070992Y0083870D01*
X0070926Y0083864D01*
X0070860Y0083862D01*
D24*
X0071997Y0084999D02*
X0071997Y0079547D01*
X0072000Y0079282D01*
X0072010Y0079017D01*
X0072026Y0078753D01*
X0072048Y0078488D01*
X0072077Y0078225D01*
X0072112Y0077962D01*
X0072154Y0077700D01*
X0072201Y0077440D01*
X0072255Y0077180D01*
X0072316Y0076922D01*
X0072382Y0076666D01*
X0072455Y0076411D01*
X0072534Y0076158D01*
X0072619Y0075907D01*
X0072710Y0075658D01*
X0072807Y0075411D01*
X0072910Y0075167D01*
X0073018Y0074925D01*
X0073133Y0074686D01*
X0073253Y0074450D01*
X0073379Y0074217D01*
X0073511Y0073987D01*
X0073648Y0073760D01*
X0073791Y0073536D01*
X0073939Y0073316D01*
X0074092Y0073100D01*
X0074250Y0072888D01*
X0074414Y0072679D01*
X0074582Y0072474D01*
X0074755Y0072274D01*
X0074933Y0072078D01*
X0075116Y0071886D01*
X0075304Y0071698D01*
X0075496Y0071515D01*
X0075692Y0071337D01*
X0075892Y0071164D01*
X0076097Y0070996D01*
X0076306Y0070832D01*
X0076518Y0070674D01*
X0076734Y0070521D01*
X0076954Y0070373D01*
X0077178Y0070230D01*
X0077405Y0070093D01*
X0077635Y0069961D01*
X0077868Y0069835D01*
X0078104Y0069715D01*
X0078343Y0069600D01*
X0078585Y0069492D01*
X0078829Y0069389D01*
X0079076Y0069292D01*
X0079325Y0069201D01*
X0079576Y0069116D01*
X0079829Y0069037D01*
X0080084Y0068964D01*
X0080340Y0068898D01*
X0080598Y0068837D01*
X0080858Y0068783D01*
X0081118Y0068736D01*
X0081380Y0068694D01*
X0081643Y0068659D01*
X0081906Y0068630D01*
X0082171Y0068608D01*
X0082435Y0068592D01*
X0082700Y0068582D01*
X0082965Y0068579D01*
X0080501Y0068579D01*
X0082965Y0068579D02*
X0091976Y0068579D01*
X0092004Y0063607D02*
X0092106Y0063605D01*
X0092208Y0063599D01*
X0092310Y0063589D01*
X0092411Y0063576D01*
X0092511Y0063558D01*
X0092611Y0063537D01*
X0092710Y0063512D01*
X0092808Y0063483D01*
X0092904Y0063450D01*
X0093000Y0063414D01*
X0093094Y0063374D01*
X0093186Y0063330D01*
X0093277Y0063283D01*
X0093365Y0063233D01*
X0093452Y0063179D01*
X0093537Y0063122D01*
X0093619Y0063062D01*
X0093699Y0062998D01*
X0093776Y0062932D01*
X0093851Y0062862D01*
X0093923Y0062790D01*
X0093993Y0062715D01*
X0094059Y0062638D01*
X0094123Y0062558D01*
X0094183Y0062476D01*
X0094240Y0062391D01*
X0094294Y0062304D01*
X0094344Y0062216D01*
X0094391Y0062125D01*
X0094435Y0062033D01*
X0094475Y0061939D01*
X0094511Y0061843D01*
X0094544Y0061747D01*
X0094573Y0061649D01*
X0094598Y0061550D01*
X0094619Y0061450D01*
X0094637Y0061350D01*
X0094650Y0061249D01*
X0094660Y0061147D01*
X0094666Y0061045D01*
X0094668Y0060943D01*
X0094668Y0058862D01*
X0094670Y0058722D01*
X0094676Y0058582D01*
X0094686Y0058442D01*
X0094699Y0058302D01*
X0094717Y0058163D01*
X0094739Y0058024D01*
X0094764Y0057887D01*
X0094793Y0057749D01*
X0094826Y0057613D01*
X0094863Y0057478D01*
X0094904Y0057344D01*
X0094949Y0057211D01*
X0094997Y0057079D01*
X0095049Y0056949D01*
X0095104Y0056820D01*
X0095163Y0056693D01*
X0095226Y0056567D01*
X0095292Y0056443D01*
X0095361Y0056322D01*
X0095434Y0056202D01*
X0095511Y0056084D01*
X0095590Y0055969D01*
X0095673Y0055855D01*
X0095759Y0055745D01*
X0095848Y0055636D01*
X0095940Y0055530D01*
X0096035Y0055427D01*
X0096132Y0055326D01*
X0096233Y0055229D01*
X0096336Y0055134D01*
X0096442Y0055042D01*
X0096551Y0054953D01*
X0096661Y0054867D01*
X0096775Y0054784D01*
X0096890Y0054705D01*
X0097008Y0054628D01*
X0097128Y0054555D01*
X0097249Y0054486D01*
X0097373Y0054420D01*
X0097499Y0054357D01*
X0097626Y0054298D01*
X0097755Y0054243D01*
X0097885Y0054191D01*
X0098017Y0054143D01*
X0098150Y0054098D01*
X0098284Y0054057D01*
X0098419Y0054020D01*
X0098555Y0053987D01*
X0098693Y0053958D01*
X0098830Y0053933D01*
X0098969Y0053911D01*
X0099108Y0053893D01*
X0099248Y0053880D01*
X0099388Y0053870D01*
X0099528Y0053864D01*
X0099668Y0053862D01*
X0103885Y0053862D01*
X0120163Y0063607D02*
X0120249Y0063605D01*
X0120334Y0063600D01*
X0120419Y0063590D01*
X0120504Y0063577D01*
X0120588Y0063560D01*
X0120671Y0063540D01*
X0120754Y0063516D01*
X0120835Y0063489D01*
X0120915Y0063457D01*
X0120993Y0063423D01*
X0121070Y0063385D01*
X0121145Y0063344D01*
X0121218Y0063299D01*
X0121290Y0063252D01*
X0121359Y0063201D01*
X0121425Y0063148D01*
X0121490Y0063091D01*
X0121552Y0063032D01*
X0121611Y0062970D01*
X0121668Y0062905D01*
X0121721Y0062839D01*
X0121772Y0062770D01*
X0121819Y0062698D01*
X0121864Y0062625D01*
X0121905Y0062550D01*
X0121943Y0062473D01*
X0121977Y0062395D01*
X0122009Y0062315D01*
X0122036Y0062234D01*
X0122060Y0062151D01*
X0122080Y0062068D01*
X0122097Y0061984D01*
X0122110Y0061899D01*
X0122120Y0061814D01*
X0122125Y0061729D01*
X0122127Y0061643D01*
X0120163Y0063607D02*
X0112904Y0063607D01*
X0112904Y0068607D02*
X0121570Y0068607D01*
X0121654Y0068609D01*
X0121738Y0068615D01*
X0121822Y0068624D01*
X0121905Y0068638D01*
X0121988Y0068655D01*
X0122069Y0068677D01*
X0122150Y0068702D01*
X0122229Y0068730D01*
X0122307Y0068762D01*
X0122383Y0068798D01*
X0122458Y0068838D01*
X0122530Y0068880D01*
X0122601Y0068926D01*
X0122669Y0068975D01*
X0122735Y0069028D01*
X0122799Y0069083D01*
X0122860Y0069141D01*
X0122918Y0069202D01*
X0122973Y0069266D01*
X0123026Y0069332D01*
X0123075Y0069400D01*
X0123121Y0069471D01*
X0123163Y0069543D01*
X0123203Y0069618D01*
X0123239Y0069694D01*
X0123271Y0069772D01*
X0123299Y0069851D01*
X0123324Y0069932D01*
X0123346Y0070013D01*
X0123363Y0070096D01*
X0123377Y0070179D01*
X0123386Y0070263D01*
X0123392Y0070347D01*
X0123394Y0070431D01*
X0130618Y0078607D02*
X0130771Y0078605D01*
X0130923Y0078599D01*
X0131075Y0078590D01*
X0131228Y0078576D01*
X0131379Y0078559D01*
X0131530Y0078538D01*
X0131681Y0078512D01*
X0131831Y0078484D01*
X0131980Y0078451D01*
X0132128Y0078415D01*
X0132275Y0078375D01*
X0132422Y0078331D01*
X0132567Y0078283D01*
X0132711Y0078232D01*
X0132853Y0078177D01*
X0132994Y0078119D01*
X0133133Y0078057D01*
X0133271Y0077991D01*
X0133408Y0077922D01*
X0133542Y0077850D01*
X0133674Y0077774D01*
X0133805Y0077695D01*
X0133934Y0077613D01*
X0134060Y0077527D01*
X0134184Y0077438D01*
X0134306Y0077346D01*
X0134425Y0077251D01*
X0134543Y0077154D01*
X0134657Y0077053D01*
X0134769Y0076949D01*
X0134878Y0076842D01*
X0134985Y0076733D01*
X0135089Y0076621D01*
X0135190Y0076507D01*
X0135287Y0076389D01*
X0135382Y0076270D01*
X0135474Y0076148D01*
X0135563Y0076024D01*
X0135649Y0075898D01*
X0135731Y0075769D01*
X0135810Y0075638D01*
X0135886Y0075506D01*
X0135958Y0075372D01*
X0136027Y0075235D01*
X0136093Y0075097D01*
X0136155Y0074958D01*
X0136213Y0074817D01*
X0136268Y0074675D01*
X0136319Y0074531D01*
X0136367Y0074386D01*
X0136411Y0074239D01*
X0136451Y0074092D01*
X0136487Y0073944D01*
X0136520Y0073795D01*
X0136548Y0073645D01*
X0136574Y0073494D01*
X0136595Y0073343D01*
X0136612Y0073192D01*
X0136626Y0073039D01*
X0136635Y0072887D01*
X0136641Y0072735D01*
X0136643Y0072582D01*
X0136643Y0071169D02*
X0136645Y0071059D01*
X0136651Y0070950D01*
X0136660Y0070840D01*
X0136674Y0070731D01*
X0136691Y0070623D01*
X0136712Y0070515D01*
X0136736Y0070408D01*
X0136765Y0070302D01*
X0136797Y0070197D01*
X0136833Y0070093D01*
X0136872Y0069991D01*
X0136915Y0069890D01*
X0136961Y0069790D01*
X0137011Y0069693D01*
X0137064Y0069597D01*
X0137121Y0069502D01*
X0137181Y0069410D01*
X0137244Y0069320D01*
X0137310Y0069233D01*
X0137379Y0069147D01*
X0137451Y0069065D01*
X0137526Y0068984D01*
X0137603Y0068907D01*
X0137684Y0068832D01*
X0137766Y0068760D01*
X0137852Y0068691D01*
X0137939Y0068625D01*
X0138029Y0068562D01*
X0138121Y0068502D01*
X0138216Y0068445D01*
X0138312Y0068392D01*
X0138409Y0068342D01*
X0138509Y0068296D01*
X0138610Y0068253D01*
X0138712Y0068214D01*
X0138816Y0068178D01*
X0138921Y0068146D01*
X0139027Y0068117D01*
X0139134Y0068093D01*
X0139242Y0068072D01*
X0139350Y0068055D01*
X0139459Y0068041D01*
X0139569Y0068032D01*
X0139678Y0068026D01*
X0139788Y0068024D01*
X0139788Y0068025D02*
X0151724Y0068025D01*
X0153533Y0068025D01*
X0151724Y0068025D02*
X0151682Y0068027D01*
X0151641Y0068033D01*
X0151600Y0068042D01*
X0151561Y0068056D01*
X0151523Y0068072D01*
X0151486Y0068093D01*
X0151452Y0068116D01*
X0151419Y0068143D01*
X0151390Y0068172D01*
X0151363Y0068205D01*
X0151340Y0068239D01*
X0151319Y0068276D01*
X0151303Y0068314D01*
X0151289Y0068353D01*
X0151280Y0068394D01*
X0151274Y0068435D01*
X0151272Y0068477D01*
X0151272Y0072466D01*
X0151274Y0072551D01*
X0151280Y0072636D01*
X0151289Y0072721D01*
X0151302Y0072805D01*
X0151320Y0072888D01*
X0151340Y0072970D01*
X0151365Y0073052D01*
X0151393Y0073132D01*
X0151425Y0073211D01*
X0151460Y0073289D01*
X0151498Y0073364D01*
X0151540Y0073438D01*
X0151586Y0073511D01*
X0151634Y0073580D01*
X0151686Y0073648D01*
X0151740Y0073713D01*
X0151798Y0073776D01*
X0151858Y0073836D01*
X0151921Y0073894D01*
X0151986Y0073948D01*
X0152054Y0074000D01*
X0152123Y0074048D01*
X0152196Y0074094D01*
X0152270Y0074136D01*
X0152345Y0074174D01*
X0152423Y0074209D01*
X0152502Y0074241D01*
X0152582Y0074269D01*
X0152664Y0074294D01*
X0152746Y0074314D01*
X0152829Y0074332D01*
X0152913Y0074345D01*
X0152998Y0074354D01*
X0153083Y0074360D01*
X0153168Y0074362D01*
X0130618Y0078607D02*
X0112904Y0078607D01*
D25*
X0092004Y0078607D02*
X0092002Y0078578D01*
X0091997Y0078550D01*
X0091989Y0078523D01*
X0091977Y0078497D01*
X0091962Y0078472D01*
X0091944Y0078450D01*
X0091924Y0078430D01*
X0091902Y0078412D01*
X0091877Y0078397D01*
X0091851Y0078385D01*
X0091824Y0078377D01*
X0091796Y0078372D01*
X0091767Y0078370D01*
X0085892Y0078370D01*
X0080501Y0068579D02*
X0080377Y0068579D01*
X0080306Y0068577D01*
X0080235Y0068572D01*
X0080165Y0068562D01*
X0080095Y0068549D01*
X0080026Y0068533D01*
X0079957Y0068513D01*
X0079890Y0068489D01*
X0079825Y0068462D01*
X0079760Y0068431D01*
X0079698Y0068397D01*
X0079637Y0068360D01*
X0079579Y0068320D01*
X0079522Y0068276D01*
X0079468Y0068230D01*
X0079417Y0068181D01*
X0079368Y0068130D01*
X0079322Y0068076D01*
X0079278Y0068019D01*
X0079238Y0067961D01*
X0079201Y0067900D01*
X0079167Y0067838D01*
X0079136Y0067773D01*
X0079109Y0067708D01*
X0079085Y0067641D01*
X0079065Y0067572D01*
X0079049Y0067503D01*
X0079036Y0067433D01*
X0079026Y0067363D01*
X0079021Y0067292D01*
X0079019Y0067221D01*
X0079019Y0060528D02*
X0079019Y0057511D01*
X0079018Y0057511D02*
X0079020Y0057350D01*
X0079026Y0057190D01*
X0079035Y0057029D01*
X0079049Y0056869D01*
X0079066Y0056709D01*
X0079088Y0056550D01*
X0079113Y0056391D01*
X0079142Y0056233D01*
X0079175Y0056076D01*
X0079211Y0055920D01*
X0079252Y0055764D01*
X0079296Y0055609D01*
X0079343Y0055456D01*
X0079395Y0055304D01*
X0079450Y0055153D01*
X0079509Y0055003D01*
X0079571Y0054855D01*
X0079637Y0054709D01*
X0079707Y0054564D01*
X0079780Y0054421D01*
X0079856Y0054279D01*
X0079936Y0054140D01*
X0080019Y0054002D01*
X0080105Y0053867D01*
X0080195Y0053733D01*
X0080288Y0053602D01*
X0080384Y0053473D01*
X0080483Y0053347D01*
X0080585Y0053223D01*
X0080690Y0053101D01*
X0080798Y0052982D01*
X0080909Y0052866D01*
X0081023Y0052752D01*
X0081139Y0052641D01*
X0081258Y0052533D01*
X0081380Y0052428D01*
X0081504Y0052326D01*
X0081630Y0052227D01*
X0081759Y0052131D01*
X0081890Y0052038D01*
X0082024Y0051948D01*
X0082159Y0051862D01*
X0082297Y0051779D01*
X0082436Y0051699D01*
X0082578Y0051623D01*
X0082721Y0051550D01*
X0082866Y0051480D01*
X0083012Y0051414D01*
X0083160Y0051352D01*
X0083310Y0051293D01*
X0083461Y0051238D01*
X0083613Y0051186D01*
X0083766Y0051139D01*
X0083921Y0051095D01*
X0084077Y0051054D01*
X0084233Y0051018D01*
X0084390Y0050985D01*
X0084548Y0050956D01*
X0084707Y0050931D01*
X0084866Y0050909D01*
X0085026Y0050892D01*
X0085186Y0050878D01*
X0085347Y0050869D01*
X0085507Y0050863D01*
X0085668Y0050861D01*
X0122127Y0054100D02*
X0122127Y0054950D01*
X0122127Y0054100D02*
X0122129Y0054054D01*
X0122135Y0054008D01*
X0122144Y0053963D01*
X0122157Y0053919D01*
X0122174Y0053876D01*
X0122194Y0053835D01*
X0122218Y0053795D01*
X0122244Y0053758D01*
X0122274Y0053723D01*
X0122307Y0053690D01*
X0122342Y0053660D01*
X0122379Y0053634D01*
X0122419Y0053610D01*
X0122460Y0053590D01*
X0122503Y0053573D01*
X0122547Y0053560D01*
X0122592Y0053551D01*
X0122638Y0053545D01*
X0122684Y0053543D01*
X0153533Y0068024D02*
X0153616Y0068022D01*
X0153700Y0068016D01*
X0153782Y0068007D01*
X0153865Y0067993D01*
X0153946Y0067976D01*
X0154027Y0067955D01*
X0154107Y0067930D01*
X0154185Y0067902D01*
X0154262Y0067870D01*
X0154338Y0067835D01*
X0154411Y0067796D01*
X0154483Y0067754D01*
X0154553Y0067708D01*
X0154621Y0067659D01*
X0154686Y0067608D01*
X0154749Y0067553D01*
X0154809Y0067495D01*
X0154867Y0067435D01*
X0154922Y0067372D01*
X0154973Y0067307D01*
X0155022Y0067239D01*
X0155068Y0067169D01*
X0155110Y0067097D01*
X0155149Y0067024D01*
X0155184Y0066948D01*
X0155216Y0066871D01*
X0155244Y0066793D01*
X0155269Y0066713D01*
X0155290Y0066632D01*
X0155307Y0066551D01*
X0155321Y0066468D01*
X0155330Y0066386D01*
X0155336Y0066302D01*
X0155338Y0066219D01*
D26*
X0092004Y0068607D02*
X0087668Y0068607D01*
X0091976Y0068579D02*
X0091985Y0068580D01*
X0091992Y0068584D01*
X0091999Y0068591D01*
X0092003Y0068598D01*
X0092004Y0068607D01*
M02*
