G75*
%MOIN*%
%OFA0B0*%
%FSLAX25Y25*%
%IPPOS*%
%LPD*%
%AMOC8*
5,1,8,0,0,1.08239X$1,22.5*
%
%ADD10C,0.05200*%
%ADD11R,0.03937X0.04331*%
%ADD12C,0.05150*%
%ADD13C,0.00600*%
%ADD14C,0.03569*%
%ADD15C,0.01600*%
D10*
X0085668Y0028262D02*
X0085668Y0033462D01*
X0075668Y0038262D02*
X0075668Y0043462D01*
X0085668Y0048262D02*
X0085668Y0053462D01*
X0150568Y0074362D02*
X0155768Y0074362D01*
X0160568Y0084362D02*
X0165768Y0084362D01*
X0145768Y0084362D02*
X0140568Y0084362D01*
D11*
X0066398Y0040587D03*
X0066398Y0033894D03*
D12*
X0057668Y0013862D03*
X0217668Y0013862D03*
X0217668Y0083862D03*
X0057668Y0083862D03*
D13*
X0014968Y0089022D02*
X0014968Y0008662D01*
X0224069Y0008662D01*
X0224069Y0089022D01*
X0014968Y0089022D01*
X0014968Y0088601D02*
X0224069Y0088601D01*
X0224069Y0088003D02*
X0167692Y0088003D01*
X0168091Y0087837D02*
X0166584Y0088462D01*
X0159753Y0088462D01*
X0158246Y0087837D01*
X0157093Y0086684D01*
X0156468Y0085177D01*
X0156468Y0083546D01*
X0157093Y0082039D01*
X0158246Y0080886D01*
X0159753Y0080262D01*
X0166584Y0080262D01*
X0168091Y0080886D01*
X0169244Y0082039D01*
X0169868Y0083546D01*
X0169868Y0085177D01*
X0169244Y0086684D01*
X0168091Y0087837D01*
X0168524Y0087404D02*
X0215573Y0087404D01*
X0215360Y0087316D02*
X0214214Y0086170D01*
X0213594Y0084672D01*
X0213594Y0083051D01*
X0214214Y0081553D01*
X0215360Y0080407D01*
X0216858Y0079787D01*
X0218479Y0079787D01*
X0219977Y0080407D01*
X0221123Y0081553D01*
X0221743Y0083051D01*
X0221743Y0084672D01*
X0221123Y0086170D01*
X0219977Y0087316D01*
X0218479Y0087936D01*
X0216858Y0087936D01*
X0215360Y0087316D01*
X0214850Y0086806D02*
X0169123Y0086806D01*
X0169442Y0086207D02*
X0214251Y0086207D01*
X0213981Y0085609D02*
X0169690Y0085609D01*
X0169868Y0085010D02*
X0213733Y0085010D01*
X0213594Y0084412D02*
X0169868Y0084412D01*
X0169868Y0083813D02*
X0213594Y0083813D01*
X0213594Y0083215D02*
X0169731Y0083215D01*
X0169483Y0082616D02*
X0213774Y0082616D01*
X0214022Y0082018D02*
X0169222Y0082018D01*
X0168624Y0081419D02*
X0214348Y0081419D01*
X0214947Y0080821D02*
X0167933Y0080821D01*
X0158404Y0080821D02*
X0146888Y0080821D01*
X0146504Y0080662D02*
X0147864Y0081225D01*
X0148905Y0082266D01*
X0149468Y0083626D01*
X0149468Y0085098D01*
X0148905Y0086458D01*
X0147864Y0087498D01*
X0146504Y0088062D01*
X0139832Y0088062D01*
X0138472Y0087498D01*
X0137432Y0086458D01*
X0136868Y0085098D01*
X0136868Y0083626D01*
X0137432Y0082266D01*
X0138472Y0081225D01*
X0139832Y0080662D01*
X0146504Y0080662D01*
X0148058Y0081419D02*
X0157713Y0081419D01*
X0157114Y0082018D02*
X0148657Y0082018D01*
X0149050Y0082616D02*
X0156854Y0082616D01*
X0156606Y0083215D02*
X0149298Y0083215D01*
X0149468Y0083813D02*
X0156468Y0083813D01*
X0156468Y0084412D02*
X0149468Y0084412D01*
X0149468Y0085010D02*
X0156468Y0085010D01*
X0156647Y0085609D02*
X0149257Y0085609D01*
X0149009Y0086207D02*
X0156895Y0086207D01*
X0157214Y0086806D02*
X0148557Y0086806D01*
X0147958Y0087404D02*
X0157813Y0087404D01*
X0158645Y0088003D02*
X0146647Y0088003D01*
X0139690Y0088003D02*
X0014968Y0088003D01*
X0014968Y0087404D02*
X0055573Y0087404D01*
X0055360Y0087316D02*
X0054214Y0086170D01*
X0053594Y0084672D01*
X0053594Y0083051D01*
X0054214Y0081553D01*
X0055360Y0080407D01*
X0056858Y0079787D01*
X0058479Y0079787D01*
X0059977Y0080407D01*
X0061123Y0081553D01*
X0061743Y0083051D01*
X0061743Y0084672D01*
X0061123Y0086170D01*
X0059977Y0087316D01*
X0058479Y0087936D01*
X0056858Y0087936D01*
X0055360Y0087316D01*
X0054850Y0086806D02*
X0014968Y0086806D01*
X0014968Y0086207D02*
X0054251Y0086207D01*
X0053981Y0085609D02*
X0014968Y0085609D01*
X0014968Y0085010D02*
X0053733Y0085010D01*
X0053594Y0084412D02*
X0014968Y0084412D01*
X0014968Y0083813D02*
X0053594Y0083813D01*
X0053594Y0083215D02*
X0014968Y0083215D01*
X0014968Y0082616D02*
X0053774Y0082616D01*
X0054022Y0082018D02*
X0014968Y0082018D01*
X0014968Y0081419D02*
X0054348Y0081419D01*
X0054947Y0080821D02*
X0014968Y0080821D01*
X0014968Y0080222D02*
X0055807Y0080222D01*
X0059529Y0080222D02*
X0083664Y0080222D01*
X0083569Y0080127D02*
X0082824Y0080127D01*
X0079583Y0079073D01*
X0076825Y0077070D01*
X0076825Y0077070D01*
X0076825Y0077070D01*
X0074822Y0074312D01*
X0073768Y0071071D01*
X0073768Y0046680D01*
X0073572Y0046598D01*
X0072532Y0045558D01*
X0071968Y0044198D01*
X0071968Y0042487D01*
X0069467Y0042487D01*
X0069467Y0043208D01*
X0068823Y0043852D01*
X0063974Y0043852D01*
X0063330Y0043208D01*
X0063330Y0037966D01*
X0063974Y0037322D01*
X0068823Y0037322D01*
X0069467Y0037966D01*
X0069467Y0038687D01*
X0071968Y0038687D01*
X0071968Y0037526D01*
X0072532Y0036166D01*
X0073572Y0035125D01*
X0074932Y0034562D01*
X0076404Y0034562D01*
X0077764Y0035125D01*
X0078805Y0036166D01*
X0079368Y0037526D01*
X0079368Y0044198D01*
X0078805Y0045558D01*
X0077764Y0046598D01*
X0077568Y0046680D01*
X0077568Y0069366D01*
X0077654Y0070455D01*
X0078327Y0072526D01*
X0079607Y0074288D01*
X0081369Y0075568D01*
X0083440Y0076241D01*
X0083905Y0076278D01*
X0084258Y0075925D01*
X0085318Y0075486D01*
X0086465Y0075486D01*
X0087525Y0075925D01*
X0088337Y0076736D01*
X0088776Y0077797D01*
X0088776Y0078944D01*
X0088337Y0080004D01*
X0087525Y0080815D01*
X0086465Y0081254D01*
X0085318Y0081254D01*
X0084258Y0080815D01*
X0083569Y0080127D01*
X0082824Y0080127D02*
X0082824Y0080127D01*
X0084270Y0080821D02*
X0060390Y0080821D01*
X0060988Y0081419D02*
X0138278Y0081419D01*
X0137680Y0082018D02*
X0061315Y0082018D01*
X0061563Y0082616D02*
X0137287Y0082616D01*
X0137039Y0083215D02*
X0061743Y0083215D01*
X0061743Y0083813D02*
X0136868Y0083813D01*
X0136868Y0084412D02*
X0061743Y0084412D01*
X0061603Y0085010D02*
X0136868Y0085010D01*
X0137080Y0085609D02*
X0061355Y0085609D01*
X0061086Y0086207D02*
X0137328Y0086207D01*
X0137780Y0086806D02*
X0060487Y0086806D01*
X0059764Y0087404D02*
X0138378Y0087404D01*
X0139449Y0080821D02*
X0087513Y0080821D01*
X0088119Y0080222D02*
X0215807Y0080222D01*
X0219529Y0080222D02*
X0224069Y0080222D01*
X0224069Y0080821D02*
X0220390Y0080821D01*
X0220988Y0081419D02*
X0224069Y0081419D01*
X0224069Y0082018D02*
X0221315Y0082018D01*
X0221563Y0082616D02*
X0224069Y0082616D01*
X0224069Y0083215D02*
X0221743Y0083215D01*
X0221743Y0083813D02*
X0224069Y0083813D01*
X0224069Y0084412D02*
X0221743Y0084412D01*
X0221603Y0085010D02*
X0224069Y0085010D01*
X0224069Y0085609D02*
X0221355Y0085609D01*
X0221086Y0086207D02*
X0224069Y0086207D01*
X0224069Y0086806D02*
X0220487Y0086806D01*
X0219764Y0087404D02*
X0224069Y0087404D01*
X0224069Y0079623D02*
X0088494Y0079623D01*
X0088742Y0079025D02*
X0224069Y0079025D01*
X0224069Y0078426D02*
X0088776Y0078426D01*
X0088776Y0077828D02*
X0149268Y0077828D01*
X0149832Y0078062D02*
X0148472Y0077498D01*
X0147432Y0076458D01*
X0146868Y0075098D01*
X0146868Y0073626D01*
X0147432Y0072266D01*
X0148472Y0071225D01*
X0149832Y0070662D01*
X0156504Y0070662D01*
X0157864Y0071225D01*
X0158905Y0072266D01*
X0159468Y0073626D01*
X0159468Y0075098D01*
X0158905Y0076458D01*
X0157864Y0077498D01*
X0156504Y0078062D01*
X0149832Y0078062D01*
X0148204Y0077229D02*
X0088541Y0077229D01*
X0088231Y0076631D02*
X0147605Y0076631D01*
X0147256Y0076032D02*
X0087633Y0076032D01*
X0084150Y0076032D02*
X0082798Y0076032D01*
X0081184Y0075434D02*
X0147008Y0075434D01*
X0146868Y0074835D02*
X0080360Y0074835D01*
X0079570Y0074237D02*
X0146868Y0074237D01*
X0146868Y0073638D02*
X0079135Y0073638D01*
X0078700Y0073040D02*
X0147111Y0073040D01*
X0147359Y0072441D02*
X0078299Y0072441D01*
X0078105Y0071843D02*
X0147855Y0071843D01*
X0148453Y0071244D02*
X0077910Y0071244D01*
X0077716Y0070646D02*
X0224069Y0070646D01*
X0224069Y0071244D02*
X0157884Y0071244D01*
X0158482Y0071843D02*
X0224069Y0071843D01*
X0224069Y0072441D02*
X0158978Y0072441D01*
X0159226Y0073040D02*
X0224069Y0073040D01*
X0224069Y0073638D02*
X0159468Y0073638D01*
X0159468Y0074237D02*
X0224069Y0074237D01*
X0224069Y0074835D02*
X0159468Y0074835D01*
X0159329Y0075434D02*
X0224069Y0075434D01*
X0224069Y0076032D02*
X0159081Y0076032D01*
X0158732Y0076631D02*
X0224069Y0076631D01*
X0224069Y0077229D02*
X0158133Y0077229D01*
X0157069Y0077828D02*
X0224069Y0077828D01*
X0224069Y0070047D02*
X0077622Y0070047D01*
X0077575Y0069449D02*
X0224069Y0069449D01*
X0224069Y0068850D02*
X0077568Y0068850D01*
X0077568Y0068252D02*
X0224069Y0068252D01*
X0224069Y0067653D02*
X0077568Y0067653D01*
X0077568Y0067055D02*
X0224069Y0067055D01*
X0224069Y0066456D02*
X0077568Y0066456D01*
X0077568Y0065858D02*
X0224069Y0065858D01*
X0224069Y0065259D02*
X0077568Y0065259D01*
X0077568Y0064661D02*
X0224069Y0064661D01*
X0224069Y0064062D02*
X0077568Y0064062D01*
X0077568Y0063464D02*
X0224069Y0063464D01*
X0224069Y0062865D02*
X0077568Y0062865D01*
X0077568Y0062267D02*
X0224069Y0062267D01*
X0224069Y0061668D02*
X0077568Y0061668D01*
X0077568Y0061070D02*
X0224069Y0061070D01*
X0224069Y0060471D02*
X0077568Y0060471D01*
X0077568Y0059873D02*
X0224069Y0059873D01*
X0224069Y0059274D02*
X0077568Y0059274D01*
X0077568Y0058676D02*
X0224069Y0058676D01*
X0224069Y0058077D02*
X0077568Y0058077D01*
X0077568Y0057479D02*
X0084652Y0057479D01*
X0084853Y0057562D02*
X0083346Y0056937D01*
X0082193Y0055784D01*
X0081568Y0054277D01*
X0081568Y0047446D01*
X0082193Y0045939D01*
X0083346Y0044786D01*
X0084853Y0044162D01*
X0086484Y0044162D01*
X0087991Y0044786D01*
X0089144Y0045939D01*
X0089768Y0047446D01*
X0089768Y0054277D01*
X0089144Y0055784D01*
X0087991Y0056937D01*
X0086484Y0057562D01*
X0084853Y0057562D01*
X0083288Y0056880D02*
X0077568Y0056880D01*
X0077568Y0056282D02*
X0082690Y0056282D01*
X0082151Y0055683D02*
X0077568Y0055683D01*
X0077568Y0055085D02*
X0081903Y0055085D01*
X0081655Y0054486D02*
X0077568Y0054486D01*
X0077568Y0053887D02*
X0081568Y0053887D01*
X0081568Y0053289D02*
X0077568Y0053289D01*
X0077568Y0052690D02*
X0081568Y0052690D01*
X0081568Y0052092D02*
X0077568Y0052092D01*
X0077568Y0051493D02*
X0081568Y0051493D01*
X0081568Y0050895D02*
X0077568Y0050895D01*
X0077568Y0050296D02*
X0081568Y0050296D01*
X0081568Y0049698D02*
X0077568Y0049698D01*
X0077568Y0049099D02*
X0081568Y0049099D01*
X0081568Y0048501D02*
X0077568Y0048501D01*
X0077568Y0047902D02*
X0081568Y0047902D01*
X0081627Y0047304D02*
X0077568Y0047304D01*
X0077568Y0046705D02*
X0081875Y0046705D01*
X0082123Y0046107D02*
X0078256Y0046107D01*
X0078825Y0045508D02*
X0082623Y0045508D01*
X0083222Y0044910D02*
X0079073Y0044910D01*
X0079321Y0044311D02*
X0084492Y0044311D01*
X0086845Y0044311D02*
X0224069Y0044311D01*
X0224069Y0043713D02*
X0079368Y0043713D01*
X0079368Y0043114D02*
X0224069Y0043114D01*
X0224069Y0042516D02*
X0079368Y0042516D01*
X0079368Y0041917D02*
X0224069Y0041917D01*
X0224069Y0041319D02*
X0079368Y0041319D01*
X0079368Y0040720D02*
X0224069Y0040720D01*
X0224069Y0040122D02*
X0079368Y0040122D01*
X0079368Y0039523D02*
X0224069Y0039523D01*
X0224069Y0038925D02*
X0079368Y0038925D01*
X0079368Y0038326D02*
X0224069Y0038326D01*
X0224069Y0037728D02*
X0079368Y0037728D01*
X0079204Y0037129D02*
X0224069Y0037129D01*
X0224069Y0036531D02*
X0078956Y0036531D01*
X0078571Y0035932D02*
X0224069Y0035932D01*
X0224069Y0035334D02*
X0077973Y0035334D01*
X0076823Y0034735D02*
X0224069Y0034735D01*
X0224069Y0034137D02*
X0014968Y0034137D01*
X0014968Y0034735D02*
X0074514Y0034735D01*
X0073364Y0035334D02*
X0014968Y0035334D01*
X0014968Y0035932D02*
X0072765Y0035932D01*
X0072380Y0036531D02*
X0014968Y0036531D01*
X0014968Y0037129D02*
X0072133Y0037129D01*
X0071968Y0037728D02*
X0069228Y0037728D01*
X0069467Y0038326D02*
X0071968Y0038326D01*
X0063568Y0037728D02*
X0014968Y0037728D01*
X0014968Y0038326D02*
X0063330Y0038326D01*
X0063330Y0038925D02*
X0014968Y0038925D01*
X0014968Y0039523D02*
X0063330Y0039523D01*
X0063330Y0040122D02*
X0014968Y0040122D01*
X0014968Y0040720D02*
X0063330Y0040720D01*
X0063330Y0041319D02*
X0014968Y0041319D01*
X0014968Y0041917D02*
X0063330Y0041917D01*
X0063330Y0042516D02*
X0014968Y0042516D01*
X0014968Y0043114D02*
X0063330Y0043114D01*
X0063835Y0043713D02*
X0014968Y0043713D01*
X0014968Y0044311D02*
X0072015Y0044311D01*
X0071968Y0043713D02*
X0068962Y0043713D01*
X0069467Y0043114D02*
X0071968Y0043114D01*
X0071968Y0042516D02*
X0069467Y0042516D01*
X0072263Y0044910D02*
X0014968Y0044910D01*
X0014968Y0045508D02*
X0072511Y0045508D01*
X0073081Y0046107D02*
X0014968Y0046107D01*
X0014968Y0046705D02*
X0073768Y0046705D01*
X0073768Y0047304D02*
X0014968Y0047304D01*
X0014968Y0047902D02*
X0073768Y0047902D01*
X0073768Y0048501D02*
X0014968Y0048501D01*
X0014968Y0049099D02*
X0073768Y0049099D01*
X0073768Y0049698D02*
X0014968Y0049698D01*
X0014968Y0050296D02*
X0073768Y0050296D01*
X0073768Y0050895D02*
X0014968Y0050895D01*
X0014968Y0051493D02*
X0073768Y0051493D01*
X0073768Y0052092D02*
X0014968Y0052092D01*
X0014968Y0052690D02*
X0073768Y0052690D01*
X0073768Y0053289D02*
X0014968Y0053289D01*
X0014968Y0053887D02*
X0073768Y0053887D01*
X0073768Y0054486D02*
X0014968Y0054486D01*
X0014968Y0055085D02*
X0073768Y0055085D01*
X0073768Y0055683D02*
X0014968Y0055683D01*
X0014968Y0056282D02*
X0073768Y0056282D01*
X0073768Y0056880D02*
X0014968Y0056880D01*
X0014968Y0057479D02*
X0073768Y0057479D01*
X0073768Y0058077D02*
X0014968Y0058077D01*
X0014968Y0058676D02*
X0073768Y0058676D01*
X0073768Y0059274D02*
X0014968Y0059274D01*
X0014968Y0059873D02*
X0073768Y0059873D01*
X0073768Y0060471D02*
X0014968Y0060471D01*
X0014968Y0061070D02*
X0073768Y0061070D01*
X0073768Y0061668D02*
X0014968Y0061668D01*
X0014968Y0062267D02*
X0073768Y0062267D01*
X0073768Y0062865D02*
X0014968Y0062865D01*
X0014968Y0063464D02*
X0073768Y0063464D01*
X0073768Y0064062D02*
X0014968Y0064062D01*
X0014968Y0064661D02*
X0073768Y0064661D01*
X0073768Y0065259D02*
X0014968Y0065259D01*
X0014968Y0065858D02*
X0073768Y0065858D01*
X0073768Y0066456D02*
X0014968Y0066456D01*
X0014968Y0067055D02*
X0073768Y0067055D01*
X0073768Y0067653D02*
X0014968Y0067653D01*
X0014968Y0068252D02*
X0073768Y0068252D01*
X0073768Y0068850D02*
X0014968Y0068850D01*
X0014968Y0069449D02*
X0073768Y0069449D01*
X0073768Y0070047D02*
X0014968Y0070047D01*
X0014968Y0070646D02*
X0073768Y0070646D01*
X0073825Y0071244D02*
X0014968Y0071244D01*
X0014968Y0071843D02*
X0074019Y0071843D01*
X0074214Y0072441D02*
X0014968Y0072441D01*
X0014968Y0073040D02*
X0074408Y0073040D01*
X0074603Y0073638D02*
X0014968Y0073638D01*
X0014968Y0074237D02*
X0074797Y0074237D01*
X0074822Y0074312D02*
X0074822Y0074312D01*
X0075202Y0074835D02*
X0014968Y0074835D01*
X0014968Y0075434D02*
X0075637Y0075434D01*
X0076071Y0076032D02*
X0014968Y0076032D01*
X0014968Y0076631D02*
X0076506Y0076631D01*
X0077045Y0077229D02*
X0014968Y0077229D01*
X0014968Y0077828D02*
X0077869Y0077828D01*
X0078692Y0078426D02*
X0014968Y0078426D01*
X0014968Y0079025D02*
X0079516Y0079025D01*
X0079583Y0079073D02*
X0079583Y0079073D01*
X0081276Y0079623D02*
X0014968Y0079623D01*
X0086684Y0057479D02*
X0224069Y0057479D01*
X0224069Y0056880D02*
X0088048Y0056880D01*
X0088647Y0056282D02*
X0224069Y0056282D01*
X0224069Y0055683D02*
X0089186Y0055683D01*
X0089434Y0055085D02*
X0224069Y0055085D01*
X0224069Y0054486D02*
X0089682Y0054486D01*
X0089768Y0053887D02*
X0224069Y0053887D01*
X0224069Y0053289D02*
X0089768Y0053289D01*
X0089768Y0052690D02*
X0224069Y0052690D01*
X0224069Y0052092D02*
X0089768Y0052092D01*
X0089768Y0051493D02*
X0224069Y0051493D01*
X0224069Y0050895D02*
X0089768Y0050895D01*
X0089768Y0050296D02*
X0224069Y0050296D01*
X0224069Y0049698D02*
X0089768Y0049698D01*
X0089768Y0049099D02*
X0224069Y0049099D01*
X0224069Y0048501D02*
X0089768Y0048501D01*
X0089768Y0047902D02*
X0224069Y0047902D01*
X0224069Y0047304D02*
X0089709Y0047304D01*
X0089461Y0046705D02*
X0224069Y0046705D01*
X0224069Y0046107D02*
X0089214Y0046107D01*
X0088713Y0045508D02*
X0224069Y0045508D01*
X0224069Y0044910D02*
X0088115Y0044910D01*
X0014968Y0033538D02*
X0224069Y0033538D01*
X0224069Y0032940D02*
X0014968Y0032940D01*
X0014968Y0032341D02*
X0224069Y0032341D01*
X0224069Y0031743D02*
X0014968Y0031743D01*
X0014968Y0031144D02*
X0224069Y0031144D01*
X0224069Y0030546D02*
X0014968Y0030546D01*
X0014968Y0029947D02*
X0224069Y0029947D01*
X0224069Y0029349D02*
X0014968Y0029349D01*
X0014968Y0028750D02*
X0224069Y0028750D01*
X0224069Y0028152D02*
X0014968Y0028152D01*
X0014968Y0027553D02*
X0224069Y0027553D01*
X0224069Y0026954D02*
X0014968Y0026954D01*
X0014968Y0026356D02*
X0224069Y0026356D01*
X0224069Y0025757D02*
X0014968Y0025757D01*
X0014968Y0025159D02*
X0224069Y0025159D01*
X0224069Y0024560D02*
X0014968Y0024560D01*
X0014968Y0023962D02*
X0224069Y0023962D01*
X0224069Y0023363D02*
X0014968Y0023363D01*
X0014968Y0022765D02*
X0224069Y0022765D01*
X0224069Y0022166D02*
X0014968Y0022166D01*
X0014968Y0021568D02*
X0224069Y0021568D01*
X0224069Y0020969D02*
X0014968Y0020969D01*
X0014968Y0020371D02*
X0224069Y0020371D01*
X0224069Y0019772D02*
X0014968Y0019772D01*
X0014968Y0019174D02*
X0224069Y0019174D01*
X0224069Y0018575D02*
X0014968Y0018575D01*
X0014968Y0017977D02*
X0224069Y0017977D01*
X0224069Y0017378D02*
X0014968Y0017378D01*
X0014968Y0016780D02*
X0224069Y0016780D01*
X0224069Y0016181D02*
X0014968Y0016181D01*
X0014968Y0015583D02*
X0224069Y0015583D01*
X0224069Y0014984D02*
X0014968Y0014984D01*
X0014968Y0014386D02*
X0224069Y0014386D01*
X0224069Y0013787D02*
X0014968Y0013787D01*
X0014968Y0013189D02*
X0224069Y0013189D01*
X0224069Y0012590D02*
X0014968Y0012590D01*
X0014968Y0011992D02*
X0224069Y0011992D01*
X0224069Y0011393D02*
X0014968Y0011393D01*
X0014968Y0010795D02*
X0224069Y0010795D01*
X0224069Y0010196D02*
X0014968Y0010196D01*
X0014968Y0009598D02*
X0224069Y0009598D01*
X0224069Y0008999D02*
X0014968Y0008999D01*
D14*
X0032415Y0027976D03*
X0032415Y0032976D03*
X0047415Y0032976D03*
X0047415Y0027976D03*
X0099915Y0065476D03*
X0104915Y0065476D03*
X0104915Y0070476D03*
X0099915Y0070476D03*
X0099915Y0075476D03*
X0104915Y0075476D03*
X0104915Y0080476D03*
X0099915Y0080476D03*
X0085892Y0078370D03*
X0201915Y0037976D03*
X0201915Y0032976D03*
X0211915Y0032976D03*
X0211915Y0037976D03*
D15*
X0084529Y0078226D02*
X0084315Y0078223D01*
X0084101Y0078216D01*
X0083887Y0078203D01*
X0083674Y0078185D01*
X0083461Y0078161D01*
X0083249Y0078133D01*
X0083037Y0078100D01*
X0082827Y0078061D01*
X0082617Y0078017D01*
X0082409Y0077969D01*
X0082201Y0077915D01*
X0081996Y0077856D01*
X0081791Y0077792D01*
X0081588Y0077724D01*
X0081387Y0077650D01*
X0081188Y0077572D01*
X0080991Y0077489D01*
X0080795Y0077401D01*
X0080602Y0077308D01*
X0080412Y0077211D01*
X0080223Y0077109D01*
X0080037Y0077003D01*
X0079854Y0076892D01*
X0079674Y0076777D01*
X0079496Y0076658D01*
X0079321Y0076534D01*
X0079150Y0076406D01*
X0078981Y0076274D01*
X0078816Y0076138D01*
X0078654Y0075998D01*
X0078495Y0075854D01*
X0078340Y0075706D01*
X0078189Y0075555D01*
X0078041Y0075400D01*
X0077897Y0075241D01*
X0077757Y0075079D01*
X0077621Y0074914D01*
X0077489Y0074745D01*
X0077361Y0074574D01*
X0077237Y0074399D01*
X0077118Y0074221D01*
X0077003Y0074041D01*
X0076892Y0073858D01*
X0076786Y0073672D01*
X0076684Y0073483D01*
X0076587Y0073293D01*
X0076494Y0073100D01*
X0076406Y0072904D01*
X0076323Y0072707D01*
X0076245Y0072508D01*
X0076171Y0072307D01*
X0076103Y0072104D01*
X0076039Y0071899D01*
X0075980Y0071694D01*
X0075926Y0071486D01*
X0075878Y0071278D01*
X0075834Y0071068D01*
X0075795Y0070858D01*
X0075762Y0070646D01*
X0075734Y0070434D01*
X0075710Y0070221D01*
X0075692Y0070008D01*
X0075679Y0069794D01*
X0075672Y0069580D01*
X0075669Y0069366D01*
X0075668Y0069366D02*
X0075668Y0040862D01*
X0075669Y0040862D02*
X0075667Y0040831D01*
X0075662Y0040801D01*
X0075654Y0040771D01*
X0075642Y0040743D01*
X0075627Y0040716D01*
X0075609Y0040691D01*
X0075588Y0040668D01*
X0075565Y0040647D01*
X0075540Y0040629D01*
X0075513Y0040614D01*
X0075485Y0040602D01*
X0075455Y0040594D01*
X0075425Y0040589D01*
X0075394Y0040587D01*
X0066398Y0040587D01*
X0084529Y0078227D02*
X0085748Y0078227D01*
X0085748Y0078226D02*
X0085771Y0078228D01*
X0085792Y0078233D01*
X0085813Y0078242D01*
X0085833Y0078254D01*
X0085850Y0078268D01*
X0085864Y0078285D01*
X0085876Y0078305D01*
X0085885Y0078326D01*
X0085890Y0078347D01*
X0085892Y0078370D01*
M02*
