G75*
%MOIN*%
%OFA0B0*%
%FSLAX25Y25*%
%IPPOS*%
%LPD*%
%AMOC8*
5,1,8,0,0,1.08239X$1,22.5*
%
%ADD10C,0.00700*%
%ADD11C,0.00500*%
%ADD12C,0.00600*%
%ADD13C,0.00800*%
%ADD14C,0.00400*%
%ADD15R,0.12992X0.02500*%
%ADD16C,0.01000*%
%ADD17C,0.01200*%
D10*
X0074923Y0009763D02*
X0073157Y0015063D01*
X0076690Y0015063D02*
X0074923Y0009763D01*
X0078775Y0010941D02*
X0078775Y0012119D01*
X0078777Y0012186D01*
X0078783Y0012253D01*
X0078792Y0012320D01*
X0078806Y0012386D01*
X0078823Y0012451D01*
X0078844Y0012515D01*
X0078868Y0012578D01*
X0078896Y0012639D01*
X0078927Y0012698D01*
X0078962Y0012756D01*
X0079000Y0012811D01*
X0079041Y0012865D01*
X0079085Y0012916D01*
X0079132Y0012964D01*
X0079182Y0013009D01*
X0079234Y0013052D01*
X0079288Y0013091D01*
X0079345Y0013128D01*
X0079403Y0013161D01*
X0079464Y0013191D01*
X0079526Y0013217D01*
X0079589Y0013239D01*
X0079654Y0013258D01*
X0079719Y0013274D01*
X0079785Y0013285D01*
X0079852Y0013293D01*
X0079919Y0013297D01*
X0079987Y0013297D01*
X0080054Y0013293D01*
X0080121Y0013285D01*
X0080187Y0013274D01*
X0080252Y0013258D01*
X0080317Y0013239D01*
X0080380Y0013217D01*
X0080442Y0013191D01*
X0080503Y0013161D01*
X0080561Y0013128D01*
X0080618Y0013091D01*
X0080672Y0013052D01*
X0080724Y0013009D01*
X0080774Y0012964D01*
X0080821Y0012916D01*
X0080865Y0012865D01*
X0080906Y0012811D01*
X0080944Y0012756D01*
X0080979Y0012698D01*
X0081010Y0012639D01*
X0081038Y0012578D01*
X0081062Y0012515D01*
X0081083Y0012451D01*
X0081100Y0012386D01*
X0081114Y0012320D01*
X0081123Y0012253D01*
X0081129Y0012186D01*
X0081131Y0012119D01*
X0081131Y0010941D01*
X0081129Y0010874D01*
X0081123Y0010807D01*
X0081114Y0010740D01*
X0081100Y0010674D01*
X0081083Y0010609D01*
X0081062Y0010545D01*
X0081038Y0010482D01*
X0081010Y0010421D01*
X0080979Y0010362D01*
X0080944Y0010304D01*
X0080906Y0010249D01*
X0080865Y0010195D01*
X0080821Y0010144D01*
X0080774Y0010096D01*
X0080724Y0010051D01*
X0080672Y0010008D01*
X0080618Y0009969D01*
X0080561Y0009932D01*
X0080503Y0009899D01*
X0080442Y0009869D01*
X0080380Y0009843D01*
X0080317Y0009821D01*
X0080252Y0009802D01*
X0080187Y0009786D01*
X0080121Y0009775D01*
X0080054Y0009767D01*
X0079987Y0009763D01*
X0079919Y0009763D01*
X0079852Y0009767D01*
X0079785Y0009775D01*
X0079719Y0009786D01*
X0079654Y0009802D01*
X0079589Y0009821D01*
X0079526Y0009843D01*
X0079464Y0009869D01*
X0079403Y0009899D01*
X0079345Y0009932D01*
X0079288Y0009969D01*
X0079234Y0010008D01*
X0079182Y0010051D01*
X0079132Y0010096D01*
X0079085Y0010144D01*
X0079041Y0010195D01*
X0079000Y0010249D01*
X0078962Y0010304D01*
X0078927Y0010362D01*
X0078896Y0010421D01*
X0078868Y0010482D01*
X0078844Y0010545D01*
X0078823Y0010609D01*
X0078806Y0010674D01*
X0078792Y0010740D01*
X0078783Y0010807D01*
X0078777Y0010874D01*
X0078775Y0010941D01*
X0083626Y0010647D02*
X0083626Y0013297D01*
X0085981Y0013297D02*
X0085981Y0009763D01*
X0084509Y0009763D01*
X0084509Y0009764D02*
X0084451Y0009766D01*
X0084394Y0009772D01*
X0084337Y0009781D01*
X0084280Y0009794D01*
X0084225Y0009811D01*
X0084171Y0009831D01*
X0084118Y0009855D01*
X0084068Y0009882D01*
X0084018Y0009913D01*
X0083971Y0009946D01*
X0083927Y0009983D01*
X0083885Y0010023D01*
X0083845Y0010065D01*
X0083808Y0010109D01*
X0083775Y0010156D01*
X0083744Y0010206D01*
X0083717Y0010256D01*
X0083693Y0010309D01*
X0083673Y0010363D01*
X0083656Y0010418D01*
X0083643Y0010475D01*
X0083634Y0010532D01*
X0083628Y0010589D01*
X0083626Y0010647D01*
X0088588Y0010647D02*
X0088588Y0015063D01*
X0087999Y0013297D02*
X0089765Y0013297D01*
X0094893Y0011824D02*
X0098426Y0010352D01*
X0098426Y0013297D02*
X0094893Y0011824D01*
X0089765Y0009763D02*
X0089471Y0009763D01*
X0089471Y0009764D02*
X0089413Y0009766D01*
X0089356Y0009772D01*
X0089299Y0009781D01*
X0089242Y0009794D01*
X0089187Y0009811D01*
X0089133Y0009831D01*
X0089080Y0009855D01*
X0089030Y0009882D01*
X0088980Y0009913D01*
X0088933Y0009946D01*
X0088889Y0009983D01*
X0088847Y0010023D01*
X0088807Y0010065D01*
X0088770Y0010109D01*
X0088737Y0010156D01*
X0088706Y0010206D01*
X0088679Y0010256D01*
X0088655Y0010309D01*
X0088635Y0010363D01*
X0088618Y0010418D01*
X0088605Y0010475D01*
X0088596Y0010532D01*
X0088590Y0010589D01*
X0088588Y0010647D01*
X0103810Y0009763D02*
X0106755Y0009763D01*
X0105282Y0009763D02*
X0105282Y0015063D01*
X0103810Y0013886D01*
X0109199Y0015063D02*
X0110966Y0015063D01*
X0110966Y0015064D02*
X0111033Y0015062D01*
X0111100Y0015056D01*
X0111167Y0015047D01*
X0111233Y0015033D01*
X0111298Y0015016D01*
X0111362Y0014995D01*
X0111425Y0014971D01*
X0111486Y0014943D01*
X0111545Y0014912D01*
X0111603Y0014877D01*
X0111658Y0014839D01*
X0111712Y0014798D01*
X0111763Y0014754D01*
X0111811Y0014707D01*
X0111856Y0014657D01*
X0111899Y0014605D01*
X0111938Y0014551D01*
X0111975Y0014494D01*
X0112008Y0014436D01*
X0112038Y0014375D01*
X0112064Y0014313D01*
X0112086Y0014250D01*
X0112105Y0014185D01*
X0112121Y0014120D01*
X0112132Y0014054D01*
X0112140Y0013987D01*
X0112144Y0013920D01*
X0112144Y0013852D01*
X0112140Y0013785D01*
X0112132Y0013718D01*
X0112121Y0013652D01*
X0112105Y0013587D01*
X0112086Y0013522D01*
X0112064Y0013459D01*
X0112038Y0013397D01*
X0112008Y0013336D01*
X0111975Y0013278D01*
X0111938Y0013221D01*
X0111899Y0013167D01*
X0111856Y0013115D01*
X0111811Y0013065D01*
X0111763Y0013018D01*
X0111712Y0012974D01*
X0111658Y0012933D01*
X0111603Y0012895D01*
X0111545Y0012860D01*
X0111486Y0012829D01*
X0111425Y0012801D01*
X0111362Y0012777D01*
X0111298Y0012756D01*
X0111233Y0012739D01*
X0111167Y0012725D01*
X0111100Y0012716D01*
X0111033Y0012710D01*
X0110966Y0012708D01*
X0109788Y0012708D01*
X0110672Y0012708D02*
X0110748Y0012706D01*
X0110823Y0012700D01*
X0110899Y0012690D01*
X0110973Y0012677D01*
X0111047Y0012659D01*
X0111120Y0012638D01*
X0111191Y0012613D01*
X0111261Y0012585D01*
X0111330Y0012553D01*
X0111397Y0012517D01*
X0111462Y0012478D01*
X0111525Y0012436D01*
X0111586Y0012390D01*
X0111644Y0012342D01*
X0111699Y0012290D01*
X0111752Y0012236D01*
X0111802Y0012179D01*
X0111849Y0012120D01*
X0111893Y0012058D01*
X0111934Y0011994D01*
X0111971Y0011928D01*
X0112005Y0011860D01*
X0112036Y0011791D01*
X0112062Y0011720D01*
X0112085Y0011647D01*
X0112105Y0011574D01*
X0112120Y0011500D01*
X0112132Y0011425D01*
X0112140Y0011350D01*
X0112144Y0011274D01*
X0112144Y0011198D01*
X0112140Y0011122D01*
X0112132Y0011047D01*
X0112120Y0010972D01*
X0112105Y0010898D01*
X0112085Y0010825D01*
X0112062Y0010752D01*
X0112036Y0010681D01*
X0112005Y0010612D01*
X0111971Y0010544D01*
X0111934Y0010478D01*
X0111893Y0010414D01*
X0111849Y0010352D01*
X0111802Y0010293D01*
X0111752Y0010236D01*
X0111699Y0010182D01*
X0111644Y0010130D01*
X0111586Y0010082D01*
X0111525Y0010036D01*
X0111462Y0009994D01*
X0111397Y0009955D01*
X0111330Y0009919D01*
X0111261Y0009887D01*
X0111191Y0009859D01*
X0111120Y0009834D01*
X0111047Y0009813D01*
X0110973Y0009795D01*
X0110899Y0009782D01*
X0110823Y0009772D01*
X0110748Y0009766D01*
X0110672Y0009764D01*
X0110672Y0009763D02*
X0109199Y0009763D01*
X0114297Y0009763D02*
X0114591Y0009763D01*
X0114591Y0010058D01*
X0114297Y0010058D01*
X0114297Y0009763D01*
X0116744Y0009763D02*
X0119689Y0009763D01*
X0116744Y0009763D02*
X0119247Y0012708D01*
X0118364Y0015063D02*
X0118285Y0015061D01*
X0118206Y0015056D01*
X0118127Y0015046D01*
X0118049Y0015034D01*
X0117971Y0015017D01*
X0117895Y0014997D01*
X0117819Y0014973D01*
X0117744Y0014946D01*
X0117671Y0014916D01*
X0117600Y0014882D01*
X0117530Y0014844D01*
X0117461Y0014804D01*
X0117395Y0014760D01*
X0117331Y0014714D01*
X0117269Y0014664D01*
X0117210Y0014612D01*
X0117153Y0014557D01*
X0117098Y0014499D01*
X0117047Y0014439D01*
X0116998Y0014376D01*
X0116952Y0014312D01*
X0116910Y0014245D01*
X0116870Y0014176D01*
X0116834Y0014106D01*
X0116801Y0014034D01*
X0116771Y0013960D01*
X0116745Y0013885D01*
X0119246Y0012708D02*
X0119297Y0012759D01*
X0119345Y0012812D01*
X0119391Y0012868D01*
X0119434Y0012926D01*
X0119473Y0012986D01*
X0119510Y0013048D01*
X0119543Y0013112D01*
X0119573Y0013177D01*
X0119600Y0013244D01*
X0119623Y0013312D01*
X0119643Y0013382D01*
X0119659Y0013452D01*
X0119672Y0013523D01*
X0119681Y0013594D01*
X0119686Y0013666D01*
X0119688Y0013738D01*
X0119689Y0013738D02*
X0119687Y0013810D01*
X0119681Y0013881D01*
X0119672Y0013952D01*
X0119658Y0014023D01*
X0119641Y0014092D01*
X0119620Y0014161D01*
X0119595Y0014228D01*
X0119567Y0014294D01*
X0119535Y0014359D01*
X0119499Y0014421D01*
X0119461Y0014482D01*
X0119419Y0014540D01*
X0119374Y0014596D01*
X0119326Y0014649D01*
X0119275Y0014700D01*
X0119222Y0014748D01*
X0119166Y0014793D01*
X0119108Y0014835D01*
X0119047Y0014873D01*
X0118985Y0014909D01*
X0118920Y0014941D01*
X0118854Y0014969D01*
X0118787Y0014994D01*
X0118718Y0015015D01*
X0118649Y0015032D01*
X0118578Y0015046D01*
X0118507Y0015055D01*
X0118436Y0015061D01*
X0118364Y0015063D01*
X0121839Y0015063D02*
X0123606Y0009763D01*
X0125372Y0015063D01*
X0110133Y0018763D02*
X0111899Y0024063D01*
X0108366Y0024063D02*
X0110133Y0018763D01*
X0105773Y0019500D02*
X0105750Y0019440D01*
X0105724Y0019381D01*
X0105695Y0019324D01*
X0105662Y0019268D01*
X0105626Y0019215D01*
X0105587Y0019164D01*
X0105544Y0019116D01*
X0105499Y0019070D01*
X0105452Y0019026D01*
X0105402Y0018986D01*
X0105350Y0018949D01*
X0105295Y0018914D01*
X0105239Y0018883D01*
X0105181Y0018856D01*
X0105121Y0018832D01*
X0105060Y0018811D01*
X0104998Y0018794D01*
X0104935Y0018781D01*
X0104871Y0018772D01*
X0104807Y0018766D01*
X0104743Y0018764D01*
X0104679Y0018766D01*
X0104615Y0018772D01*
X0104551Y0018781D01*
X0104488Y0018794D01*
X0104426Y0018811D01*
X0104365Y0018832D01*
X0104305Y0018856D01*
X0104247Y0018883D01*
X0104191Y0018914D01*
X0104136Y0018949D01*
X0104084Y0018986D01*
X0104034Y0019026D01*
X0103987Y0019070D01*
X0103942Y0019116D01*
X0103899Y0019164D01*
X0103860Y0019215D01*
X0103824Y0019268D01*
X0103791Y0019324D01*
X0103762Y0019381D01*
X0103736Y0019440D01*
X0103713Y0019500D01*
X0103566Y0019941D02*
X0105921Y0022886D01*
X0105773Y0023327D02*
X0105750Y0023387D01*
X0105724Y0023446D01*
X0105695Y0023503D01*
X0105662Y0023559D01*
X0105626Y0023612D01*
X0105587Y0023663D01*
X0105544Y0023711D01*
X0105499Y0023757D01*
X0105452Y0023801D01*
X0105402Y0023841D01*
X0105350Y0023878D01*
X0105295Y0023913D01*
X0105239Y0023944D01*
X0105181Y0023971D01*
X0105121Y0023995D01*
X0105060Y0024016D01*
X0104998Y0024033D01*
X0104935Y0024046D01*
X0104871Y0024055D01*
X0104807Y0024061D01*
X0104743Y0024063D01*
X0104679Y0024061D01*
X0104615Y0024055D01*
X0104551Y0024046D01*
X0104488Y0024033D01*
X0104426Y0024016D01*
X0104365Y0023995D01*
X0104305Y0023971D01*
X0104247Y0023944D01*
X0104191Y0023913D01*
X0104136Y0023878D01*
X0104084Y0023841D01*
X0104034Y0023801D01*
X0103987Y0023757D01*
X0103942Y0023711D01*
X0103899Y0023663D01*
X0103860Y0023612D01*
X0103824Y0023559D01*
X0103791Y0023503D01*
X0103762Y0023446D01*
X0103736Y0023387D01*
X0103713Y0023327D01*
X0105774Y0023327D02*
X0105827Y0023215D01*
X0105876Y0023102D01*
X0105923Y0022987D01*
X0105966Y0022871D01*
X0106005Y0022753D01*
X0106042Y0022635D01*
X0106075Y0022515D01*
X0106104Y0022395D01*
X0106130Y0022274D01*
X0106153Y0022152D01*
X0106172Y0022030D01*
X0106188Y0021907D01*
X0106200Y0021784D01*
X0106209Y0021661D01*
X0106214Y0021537D01*
X0106216Y0021413D01*
X0103271Y0021413D02*
X0103273Y0021537D01*
X0103278Y0021661D01*
X0103287Y0021784D01*
X0103299Y0021907D01*
X0103315Y0022030D01*
X0103334Y0022152D01*
X0103357Y0022274D01*
X0103383Y0022395D01*
X0103412Y0022515D01*
X0103445Y0022635D01*
X0103482Y0022753D01*
X0103521Y0022870D01*
X0103564Y0022987D01*
X0103611Y0023101D01*
X0103660Y0023215D01*
X0103713Y0023327D01*
X0106216Y0021413D02*
X0106214Y0021289D01*
X0106209Y0021165D01*
X0106200Y0021042D01*
X0106188Y0020919D01*
X0106172Y0020796D01*
X0106153Y0020674D01*
X0106130Y0020552D01*
X0106104Y0020431D01*
X0106075Y0020311D01*
X0106042Y0020191D01*
X0106005Y0020073D01*
X0105966Y0019956D01*
X0105923Y0019839D01*
X0105876Y0019725D01*
X0105827Y0019611D01*
X0105774Y0019499D01*
X0103713Y0019499D02*
X0103660Y0019611D01*
X0103611Y0019725D01*
X0103564Y0019839D01*
X0103521Y0019956D01*
X0103482Y0020073D01*
X0103445Y0020191D01*
X0103412Y0020311D01*
X0103383Y0020431D01*
X0103357Y0020552D01*
X0103334Y0020674D01*
X0103315Y0020796D01*
X0103299Y0020919D01*
X0103287Y0021042D01*
X0103278Y0021165D01*
X0103273Y0021289D01*
X0103271Y0021413D01*
X0100826Y0020236D02*
X0100824Y0020160D01*
X0100818Y0020085D01*
X0100808Y0020009D01*
X0100795Y0019935D01*
X0100777Y0019861D01*
X0100756Y0019788D01*
X0100731Y0019717D01*
X0100703Y0019647D01*
X0100671Y0019578D01*
X0100635Y0019511D01*
X0100596Y0019446D01*
X0100554Y0019383D01*
X0100508Y0019322D01*
X0100460Y0019264D01*
X0100408Y0019209D01*
X0100354Y0019156D01*
X0100297Y0019106D01*
X0100238Y0019059D01*
X0100176Y0019015D01*
X0100112Y0018974D01*
X0100046Y0018937D01*
X0099978Y0018903D01*
X0099909Y0018872D01*
X0099838Y0018846D01*
X0099765Y0018823D01*
X0099692Y0018803D01*
X0099618Y0018788D01*
X0099543Y0018776D01*
X0099468Y0018768D01*
X0099392Y0018764D01*
X0099316Y0018764D01*
X0099240Y0018768D01*
X0099165Y0018776D01*
X0099090Y0018788D01*
X0099016Y0018803D01*
X0098943Y0018823D01*
X0098870Y0018846D01*
X0098799Y0018872D01*
X0098730Y0018903D01*
X0098662Y0018937D01*
X0098596Y0018974D01*
X0098532Y0019015D01*
X0098470Y0019059D01*
X0098411Y0019106D01*
X0098354Y0019156D01*
X0098300Y0019209D01*
X0098248Y0019264D01*
X0098200Y0019322D01*
X0098154Y0019383D01*
X0098112Y0019446D01*
X0098073Y0019511D01*
X0098037Y0019578D01*
X0098005Y0019647D01*
X0097977Y0019717D01*
X0097952Y0019788D01*
X0097931Y0019861D01*
X0097913Y0019935D01*
X0097900Y0020009D01*
X0097890Y0020085D01*
X0097884Y0020160D01*
X0097882Y0020236D01*
X0097884Y0020312D01*
X0097890Y0020387D01*
X0097900Y0020463D01*
X0097913Y0020537D01*
X0097931Y0020611D01*
X0097952Y0020684D01*
X0097977Y0020755D01*
X0098005Y0020825D01*
X0098037Y0020894D01*
X0098073Y0020961D01*
X0098112Y0021026D01*
X0098154Y0021089D01*
X0098200Y0021150D01*
X0098248Y0021208D01*
X0098300Y0021263D01*
X0098354Y0021316D01*
X0098411Y0021366D01*
X0098470Y0021413D01*
X0098532Y0021457D01*
X0098596Y0021498D01*
X0098662Y0021535D01*
X0098730Y0021569D01*
X0098799Y0021600D01*
X0098870Y0021626D01*
X0098943Y0021649D01*
X0099016Y0021669D01*
X0099090Y0021684D01*
X0099165Y0021696D01*
X0099240Y0021704D01*
X0099316Y0021708D01*
X0099392Y0021708D01*
X0099468Y0021704D01*
X0099543Y0021696D01*
X0099618Y0021684D01*
X0099692Y0021669D01*
X0099765Y0021649D01*
X0099838Y0021626D01*
X0099909Y0021600D01*
X0099978Y0021569D01*
X0100046Y0021535D01*
X0100112Y0021498D01*
X0100176Y0021457D01*
X0100238Y0021413D01*
X0100297Y0021366D01*
X0100354Y0021316D01*
X0100408Y0021263D01*
X0100460Y0021208D01*
X0100508Y0021150D01*
X0100554Y0021089D01*
X0100596Y0021026D01*
X0100635Y0020961D01*
X0100671Y0020894D01*
X0100703Y0020825D01*
X0100731Y0020755D01*
X0100756Y0020684D01*
X0100777Y0020611D01*
X0100795Y0020537D01*
X0100808Y0020463D01*
X0100818Y0020387D01*
X0100824Y0020312D01*
X0100826Y0020236D01*
X0100532Y0022886D02*
X0100530Y0022819D01*
X0100524Y0022752D01*
X0100515Y0022685D01*
X0100501Y0022619D01*
X0100484Y0022554D01*
X0100463Y0022490D01*
X0100439Y0022427D01*
X0100411Y0022366D01*
X0100380Y0022307D01*
X0100345Y0022249D01*
X0100307Y0022194D01*
X0100266Y0022140D01*
X0100222Y0022089D01*
X0100175Y0022041D01*
X0100125Y0021996D01*
X0100073Y0021953D01*
X0100019Y0021914D01*
X0099962Y0021877D01*
X0099904Y0021844D01*
X0099843Y0021814D01*
X0099781Y0021788D01*
X0099718Y0021766D01*
X0099653Y0021747D01*
X0099588Y0021731D01*
X0099522Y0021720D01*
X0099455Y0021712D01*
X0099388Y0021708D01*
X0099320Y0021708D01*
X0099253Y0021712D01*
X0099186Y0021720D01*
X0099120Y0021731D01*
X0099055Y0021747D01*
X0098990Y0021766D01*
X0098927Y0021788D01*
X0098865Y0021814D01*
X0098804Y0021844D01*
X0098746Y0021877D01*
X0098689Y0021914D01*
X0098635Y0021953D01*
X0098583Y0021996D01*
X0098533Y0022041D01*
X0098486Y0022089D01*
X0098442Y0022140D01*
X0098401Y0022194D01*
X0098363Y0022249D01*
X0098328Y0022307D01*
X0098297Y0022366D01*
X0098269Y0022427D01*
X0098245Y0022490D01*
X0098224Y0022554D01*
X0098207Y0022619D01*
X0098193Y0022685D01*
X0098184Y0022752D01*
X0098178Y0022819D01*
X0098176Y0022886D01*
X0098178Y0022953D01*
X0098184Y0023020D01*
X0098193Y0023087D01*
X0098207Y0023153D01*
X0098224Y0023218D01*
X0098245Y0023282D01*
X0098269Y0023345D01*
X0098297Y0023406D01*
X0098328Y0023465D01*
X0098363Y0023523D01*
X0098401Y0023578D01*
X0098442Y0023632D01*
X0098486Y0023683D01*
X0098533Y0023731D01*
X0098583Y0023776D01*
X0098635Y0023819D01*
X0098689Y0023858D01*
X0098746Y0023895D01*
X0098804Y0023928D01*
X0098865Y0023958D01*
X0098927Y0023984D01*
X0098990Y0024006D01*
X0099055Y0024025D01*
X0099120Y0024041D01*
X0099186Y0024052D01*
X0099253Y0024060D01*
X0099320Y0024064D01*
X0099388Y0024064D01*
X0099455Y0024060D01*
X0099522Y0024052D01*
X0099588Y0024041D01*
X0099653Y0024025D01*
X0099718Y0024006D01*
X0099781Y0023984D01*
X0099843Y0023958D01*
X0099904Y0023928D01*
X0099962Y0023895D01*
X0100019Y0023858D01*
X0100073Y0023819D01*
X0100125Y0023776D01*
X0100175Y0023731D01*
X0100222Y0023683D01*
X0100266Y0023632D01*
X0100307Y0023578D01*
X0100345Y0023523D01*
X0100380Y0023465D01*
X0100411Y0023406D01*
X0100439Y0023345D01*
X0100463Y0023282D01*
X0100484Y0023218D01*
X0100501Y0023153D01*
X0100515Y0023087D01*
X0100524Y0023020D01*
X0100530Y0022953D01*
X0100532Y0022886D01*
X0092498Y0022297D02*
X0088965Y0020824D01*
X0092498Y0019352D01*
X0083466Y0018763D02*
X0083466Y0021413D01*
X0083464Y0021471D01*
X0083458Y0021528D01*
X0083449Y0021585D01*
X0083436Y0021642D01*
X0083419Y0021697D01*
X0083399Y0021751D01*
X0083375Y0021804D01*
X0083348Y0021855D01*
X0083317Y0021904D01*
X0083284Y0021951D01*
X0083247Y0021995D01*
X0083207Y0022037D01*
X0083165Y0022077D01*
X0083121Y0022114D01*
X0083074Y0022147D01*
X0083025Y0022178D01*
X0082974Y0022205D01*
X0082921Y0022229D01*
X0082867Y0022249D01*
X0082812Y0022266D01*
X0082755Y0022279D01*
X0082698Y0022288D01*
X0082641Y0022294D01*
X0082583Y0022296D01*
X0082583Y0022297D02*
X0081111Y0022297D01*
X0081111Y0018763D01*
X0078696Y0018763D02*
X0078696Y0022297D01*
X0078843Y0023769D02*
X0078549Y0023769D01*
X0078549Y0024063D01*
X0078843Y0024063D01*
X0078843Y0023769D01*
X0076690Y0024063D02*
X0074923Y0018763D01*
X0073157Y0024063D01*
X0155635Y0033775D02*
X0157101Y0033775D01*
X0155635Y0033775D02*
X0155635Y0037075D01*
X0158623Y0036341D02*
X0159540Y0037075D01*
X0159540Y0033775D01*
X0158623Y0033775D02*
X0160457Y0033775D01*
D11*
X0127836Y0031663D02*
X0125169Y0027663D01*
X0123786Y0027663D02*
X0122453Y0031663D01*
X0121119Y0027663D01*
X0121453Y0028663D02*
X0123453Y0028663D01*
X0125169Y0031663D02*
X0127836Y0027663D01*
X0119331Y0027663D02*
X0119331Y0031663D01*
X0117998Y0029441D01*
X0116664Y0031663D01*
X0116664Y0027663D01*
X0112567Y0028330D02*
X0112567Y0029663D01*
X0112565Y0029713D01*
X0112560Y0029762D01*
X0112550Y0029811D01*
X0112537Y0029860D01*
X0112521Y0029907D01*
X0112501Y0029952D01*
X0112478Y0029997D01*
X0112451Y0030039D01*
X0112421Y0030079D01*
X0112389Y0030117D01*
X0112354Y0030152D01*
X0112316Y0030184D01*
X0112276Y0030214D01*
X0112234Y0030241D01*
X0112189Y0030264D01*
X0112144Y0030284D01*
X0112097Y0030300D01*
X0112048Y0030313D01*
X0111999Y0030323D01*
X0111950Y0030328D01*
X0111900Y0030330D01*
X0110789Y0030330D01*
X0110789Y0026330D01*
X0110789Y0027663D02*
X0111900Y0027663D01*
X0111950Y0027665D01*
X0111999Y0027670D01*
X0112048Y0027680D01*
X0112097Y0027693D01*
X0112144Y0027709D01*
X0112189Y0027729D01*
X0112234Y0027752D01*
X0112276Y0027779D01*
X0112316Y0027809D01*
X0112354Y0027841D01*
X0112389Y0027876D01*
X0112421Y0027914D01*
X0112451Y0027954D01*
X0112478Y0027997D01*
X0112501Y0028041D01*
X0112521Y0028086D01*
X0112537Y0028133D01*
X0112550Y0028182D01*
X0112560Y0028231D01*
X0112565Y0028280D01*
X0112567Y0028330D01*
X0108666Y0027663D02*
X0108666Y0029663D01*
X0108664Y0029713D01*
X0108659Y0029762D01*
X0108649Y0029811D01*
X0108636Y0029860D01*
X0108620Y0029907D01*
X0108600Y0029952D01*
X0108577Y0029997D01*
X0108550Y0030039D01*
X0108520Y0030079D01*
X0108488Y0030117D01*
X0108453Y0030152D01*
X0108415Y0030184D01*
X0108375Y0030214D01*
X0108333Y0030241D01*
X0108288Y0030264D01*
X0108243Y0030284D01*
X0108196Y0030300D01*
X0108147Y0030313D01*
X0108098Y0030323D01*
X0108049Y0030328D01*
X0107999Y0030330D01*
X0105999Y0030330D01*
X0105999Y0027663D01*
X0107333Y0027663D02*
X0107333Y0030330D01*
X0103878Y0028663D02*
X0101878Y0028663D01*
X0101544Y0027663D02*
X0102878Y0031663D01*
X0104211Y0027663D01*
X0097779Y0027663D02*
X0095557Y0027663D01*
X0096668Y0027663D02*
X0096668Y0031663D01*
X0095557Y0030774D01*
X0088418Y0035112D02*
X0088418Y0037612D01*
X0088418Y0036362D02*
X0083918Y0036362D01*
X0084918Y0035112D01*
X0091218Y0037144D02*
X0091218Y0038394D01*
X0091220Y0038463D01*
X0091226Y0038532D01*
X0091235Y0038600D01*
X0091248Y0038667D01*
X0091265Y0038734D01*
X0091286Y0038800D01*
X0091310Y0038864D01*
X0091338Y0038927D01*
X0091369Y0038989D01*
X0091403Y0039049D01*
X0091441Y0039106D01*
X0091482Y0039162D01*
X0091525Y0039215D01*
X0091572Y0039266D01*
X0091621Y0039314D01*
X0091673Y0039359D01*
X0091728Y0039401D01*
X0091784Y0039440D01*
X0091843Y0039477D01*
X0091904Y0039509D01*
X0091966Y0039539D01*
X0092030Y0039565D01*
X0092095Y0039587D01*
X0092161Y0039606D01*
X0092228Y0039621D01*
X0092296Y0039632D01*
X0092365Y0039640D01*
X0092434Y0039644D01*
X0092502Y0039644D01*
X0092571Y0039640D01*
X0092640Y0039632D01*
X0092708Y0039621D01*
X0092775Y0039606D01*
X0092841Y0039587D01*
X0092906Y0039565D01*
X0092970Y0039539D01*
X0093032Y0039509D01*
X0093093Y0039477D01*
X0093152Y0039440D01*
X0093208Y0039401D01*
X0093263Y0039359D01*
X0093315Y0039314D01*
X0093364Y0039266D01*
X0093411Y0039215D01*
X0093454Y0039162D01*
X0093495Y0039106D01*
X0093533Y0039049D01*
X0093567Y0038989D01*
X0093598Y0038927D01*
X0093626Y0038864D01*
X0093650Y0038800D01*
X0093671Y0038734D01*
X0093688Y0038667D01*
X0093701Y0038600D01*
X0093710Y0038532D01*
X0093716Y0038463D01*
X0093718Y0038394D01*
X0093718Y0037144D01*
X0095718Y0037144D02*
X0091218Y0037144D01*
X0093718Y0038644D02*
X0095718Y0039644D01*
X0095718Y0041612D02*
X0095718Y0044112D01*
X0095718Y0041612D02*
X0093218Y0043737D01*
X0091219Y0042987D02*
X0091221Y0042914D01*
X0091226Y0042842D01*
X0091235Y0042770D01*
X0091248Y0042698D01*
X0091264Y0042627D01*
X0091284Y0042557D01*
X0091308Y0042489D01*
X0091334Y0042421D01*
X0091365Y0042355D01*
X0091398Y0042290D01*
X0091435Y0042228D01*
X0091474Y0042167D01*
X0091517Y0042108D01*
X0091563Y0042051D01*
X0091611Y0041997D01*
X0091662Y0041946D01*
X0091716Y0041896D01*
X0091772Y0041850D01*
X0091830Y0041807D01*
X0091891Y0041766D01*
X0091953Y0041729D01*
X0092017Y0041695D01*
X0092083Y0041664D01*
X0092150Y0041636D01*
X0092219Y0041612D01*
X0093218Y0043736D02*
X0093172Y0043782D01*
X0093123Y0043826D01*
X0093072Y0043866D01*
X0093019Y0043904D01*
X0092964Y0043939D01*
X0092907Y0043971D01*
X0092849Y0044000D01*
X0092789Y0044026D01*
X0092727Y0044048D01*
X0092665Y0044067D01*
X0092602Y0044083D01*
X0092538Y0044095D01*
X0092473Y0044104D01*
X0092408Y0044109D01*
X0092343Y0044111D01*
X0092343Y0044112D02*
X0092278Y0044110D01*
X0092212Y0044104D01*
X0092148Y0044095D01*
X0092084Y0044082D01*
X0092020Y0044065D01*
X0091958Y0044044D01*
X0091897Y0044020D01*
X0091838Y0043992D01*
X0091781Y0043961D01*
X0091725Y0043927D01*
X0091671Y0043889D01*
X0091620Y0043849D01*
X0091571Y0043805D01*
X0091525Y0043759D01*
X0091481Y0043710D01*
X0091441Y0043659D01*
X0091403Y0043605D01*
X0091369Y0043550D01*
X0091338Y0043492D01*
X0091310Y0043433D01*
X0091286Y0043372D01*
X0091265Y0043310D01*
X0091248Y0043246D01*
X0091235Y0043182D01*
X0091226Y0043118D01*
X0091220Y0043052D01*
X0091218Y0042987D01*
X0088418Y0044612D02*
X0088418Y0045862D01*
X0088416Y0045931D01*
X0088410Y0046000D01*
X0088401Y0046068D01*
X0088388Y0046135D01*
X0088371Y0046202D01*
X0088350Y0046268D01*
X0088326Y0046332D01*
X0088298Y0046395D01*
X0088267Y0046457D01*
X0088233Y0046517D01*
X0088195Y0046574D01*
X0088154Y0046630D01*
X0088111Y0046683D01*
X0088064Y0046734D01*
X0088015Y0046782D01*
X0087963Y0046827D01*
X0087908Y0046869D01*
X0087852Y0046908D01*
X0087793Y0046945D01*
X0087732Y0046977D01*
X0087670Y0047007D01*
X0087606Y0047033D01*
X0087541Y0047055D01*
X0087475Y0047074D01*
X0087408Y0047089D01*
X0087340Y0047100D01*
X0087271Y0047108D01*
X0087202Y0047112D01*
X0087134Y0047112D01*
X0087065Y0047108D01*
X0086996Y0047100D01*
X0086928Y0047089D01*
X0086861Y0047074D01*
X0086795Y0047055D01*
X0086730Y0047033D01*
X0086666Y0047007D01*
X0086604Y0046977D01*
X0086543Y0046945D01*
X0086484Y0046908D01*
X0086428Y0046869D01*
X0086373Y0046827D01*
X0086321Y0046782D01*
X0086272Y0046734D01*
X0086225Y0046683D01*
X0086182Y0046630D01*
X0086141Y0046574D01*
X0086103Y0046517D01*
X0086069Y0046457D01*
X0086038Y0046395D01*
X0086010Y0046332D01*
X0085986Y0046268D01*
X0085965Y0046202D01*
X0085948Y0046135D01*
X0085935Y0046068D01*
X0085926Y0046000D01*
X0085920Y0045931D01*
X0085918Y0045862D01*
X0085918Y0046112D02*
X0085918Y0045112D01*
X0085918Y0046112D02*
X0085916Y0046174D01*
X0085910Y0046235D01*
X0085901Y0046296D01*
X0085888Y0046356D01*
X0085871Y0046415D01*
X0085850Y0046473D01*
X0085826Y0046530D01*
X0085799Y0046585D01*
X0085768Y0046638D01*
X0085734Y0046690D01*
X0085697Y0046739D01*
X0085657Y0046786D01*
X0085614Y0046830D01*
X0085569Y0046871D01*
X0085521Y0046910D01*
X0085470Y0046946D01*
X0085418Y0046978D01*
X0085364Y0047007D01*
X0085308Y0047033D01*
X0085250Y0047055D01*
X0085192Y0047074D01*
X0085132Y0047089D01*
X0085071Y0047100D01*
X0085010Y0047108D01*
X0084949Y0047112D01*
X0084887Y0047112D01*
X0084826Y0047108D01*
X0084765Y0047100D01*
X0084704Y0047089D01*
X0084644Y0047074D01*
X0084586Y0047055D01*
X0084528Y0047033D01*
X0084472Y0047007D01*
X0084418Y0046978D01*
X0084366Y0046946D01*
X0084315Y0046910D01*
X0084267Y0046871D01*
X0084222Y0046830D01*
X0084179Y0046786D01*
X0084139Y0046739D01*
X0084102Y0046690D01*
X0084068Y0046638D01*
X0084037Y0046585D01*
X0084010Y0046530D01*
X0083986Y0046473D01*
X0083965Y0046415D01*
X0083948Y0046356D01*
X0083935Y0046296D01*
X0083926Y0046235D01*
X0083920Y0046174D01*
X0083918Y0046112D01*
X0083918Y0044612D01*
X0165998Y0063940D02*
X0165998Y0068440D01*
X0167248Y0068440D01*
X0167317Y0068438D01*
X0167386Y0068432D01*
X0167454Y0068423D01*
X0167521Y0068410D01*
X0167588Y0068393D01*
X0167654Y0068372D01*
X0167718Y0068348D01*
X0167781Y0068320D01*
X0167843Y0068289D01*
X0167903Y0068255D01*
X0167960Y0068217D01*
X0168016Y0068176D01*
X0168069Y0068133D01*
X0168120Y0068086D01*
X0168168Y0068037D01*
X0168213Y0067985D01*
X0168255Y0067930D01*
X0168294Y0067874D01*
X0168331Y0067815D01*
X0168363Y0067754D01*
X0168393Y0067692D01*
X0168419Y0067628D01*
X0168441Y0067563D01*
X0168460Y0067497D01*
X0168475Y0067430D01*
X0168486Y0067362D01*
X0168494Y0067293D01*
X0168498Y0067224D01*
X0168498Y0067156D01*
X0168494Y0067087D01*
X0168486Y0067018D01*
X0168475Y0066950D01*
X0168460Y0066883D01*
X0168441Y0066817D01*
X0168419Y0066752D01*
X0168393Y0066688D01*
X0168363Y0066626D01*
X0168331Y0066565D01*
X0168294Y0066506D01*
X0168255Y0066450D01*
X0168213Y0066395D01*
X0168168Y0066343D01*
X0168120Y0066294D01*
X0168069Y0066247D01*
X0168016Y0066204D01*
X0167960Y0066163D01*
X0167903Y0066125D01*
X0167843Y0066091D01*
X0167781Y0066060D01*
X0167718Y0066032D01*
X0167654Y0066008D01*
X0167588Y0065987D01*
X0167521Y0065970D01*
X0167454Y0065957D01*
X0167386Y0065948D01*
X0167317Y0065942D01*
X0167248Y0065940D01*
X0165998Y0065940D01*
X0167498Y0065940D02*
X0168498Y0063940D01*
X0170465Y0064940D02*
X0172965Y0064940D01*
X0172215Y0065940D02*
X0172215Y0063940D01*
X0170465Y0064940D02*
X0171465Y0068440D01*
X0158918Y0082612D02*
X0156418Y0082612D01*
X0157668Y0082612D02*
X0157668Y0087112D01*
X0156418Y0086112D01*
X0148418Y0085112D02*
X0148480Y0085114D01*
X0148541Y0085120D01*
X0148602Y0085129D01*
X0148662Y0085142D01*
X0148721Y0085159D01*
X0148779Y0085180D01*
X0148836Y0085204D01*
X0148891Y0085231D01*
X0148944Y0085262D01*
X0148996Y0085296D01*
X0149045Y0085333D01*
X0149092Y0085373D01*
X0149136Y0085416D01*
X0149177Y0085461D01*
X0149216Y0085509D01*
X0149252Y0085560D01*
X0149284Y0085612D01*
X0149313Y0085666D01*
X0149339Y0085722D01*
X0149361Y0085780D01*
X0149380Y0085838D01*
X0149395Y0085898D01*
X0149406Y0085959D01*
X0149414Y0086020D01*
X0149418Y0086081D01*
X0149418Y0086143D01*
X0149414Y0086204D01*
X0149406Y0086265D01*
X0149395Y0086326D01*
X0149380Y0086386D01*
X0149361Y0086444D01*
X0149339Y0086502D01*
X0149313Y0086558D01*
X0149284Y0086612D01*
X0149252Y0086664D01*
X0149216Y0086715D01*
X0149177Y0086763D01*
X0149136Y0086808D01*
X0149092Y0086851D01*
X0149045Y0086891D01*
X0148996Y0086928D01*
X0148944Y0086962D01*
X0148891Y0086993D01*
X0148836Y0087020D01*
X0148779Y0087044D01*
X0148721Y0087065D01*
X0148662Y0087082D01*
X0148602Y0087095D01*
X0148541Y0087104D01*
X0148480Y0087110D01*
X0148418Y0087112D01*
X0146918Y0087112D01*
X0147418Y0085112D02*
X0148418Y0085112D01*
X0148168Y0085112D02*
X0148237Y0085110D01*
X0148306Y0085104D01*
X0148374Y0085095D01*
X0148441Y0085082D01*
X0148508Y0085065D01*
X0148574Y0085044D01*
X0148638Y0085020D01*
X0148701Y0084992D01*
X0148763Y0084961D01*
X0148823Y0084927D01*
X0148880Y0084889D01*
X0148936Y0084848D01*
X0148989Y0084805D01*
X0149040Y0084758D01*
X0149088Y0084709D01*
X0149133Y0084657D01*
X0149175Y0084602D01*
X0149214Y0084546D01*
X0149251Y0084487D01*
X0149283Y0084426D01*
X0149313Y0084364D01*
X0149339Y0084300D01*
X0149361Y0084235D01*
X0149380Y0084169D01*
X0149395Y0084102D01*
X0149406Y0084034D01*
X0149414Y0083965D01*
X0149418Y0083896D01*
X0149418Y0083828D01*
X0149414Y0083759D01*
X0149406Y0083690D01*
X0149395Y0083622D01*
X0149380Y0083555D01*
X0149361Y0083489D01*
X0149339Y0083424D01*
X0149313Y0083360D01*
X0149283Y0083298D01*
X0149251Y0083237D01*
X0149214Y0083178D01*
X0149175Y0083122D01*
X0149133Y0083067D01*
X0149088Y0083015D01*
X0149040Y0082966D01*
X0148989Y0082919D01*
X0148936Y0082876D01*
X0148880Y0082835D01*
X0148823Y0082797D01*
X0148763Y0082763D01*
X0148701Y0082732D01*
X0148638Y0082704D01*
X0148574Y0082680D01*
X0148508Y0082659D01*
X0148441Y0082642D01*
X0148374Y0082629D01*
X0148306Y0082620D01*
X0148237Y0082614D01*
X0148168Y0082612D01*
X0146918Y0082612D01*
X0171418Y0082912D02*
X0171418Y0087412D01*
X0172668Y0087412D01*
X0175886Y0087412D02*
X0177386Y0087412D01*
X0177448Y0087410D01*
X0177509Y0087404D01*
X0177570Y0087395D01*
X0177630Y0087382D01*
X0177689Y0087365D01*
X0177747Y0087344D01*
X0177804Y0087320D01*
X0177859Y0087293D01*
X0177912Y0087262D01*
X0177964Y0087228D01*
X0178013Y0087191D01*
X0178060Y0087151D01*
X0178104Y0087108D01*
X0178145Y0087063D01*
X0178184Y0087015D01*
X0178220Y0086964D01*
X0178252Y0086912D01*
X0178281Y0086858D01*
X0178307Y0086802D01*
X0178329Y0086744D01*
X0178348Y0086686D01*
X0178363Y0086626D01*
X0178374Y0086565D01*
X0178382Y0086504D01*
X0178386Y0086443D01*
X0178386Y0086381D01*
X0178382Y0086320D01*
X0178374Y0086259D01*
X0178363Y0086198D01*
X0178348Y0086138D01*
X0178329Y0086080D01*
X0178307Y0086022D01*
X0178281Y0085966D01*
X0178252Y0085912D01*
X0178220Y0085860D01*
X0178184Y0085809D01*
X0178145Y0085761D01*
X0178104Y0085716D01*
X0178060Y0085673D01*
X0178013Y0085633D01*
X0177964Y0085596D01*
X0177912Y0085562D01*
X0177859Y0085531D01*
X0177804Y0085504D01*
X0177747Y0085480D01*
X0177689Y0085459D01*
X0177630Y0085442D01*
X0177570Y0085429D01*
X0177509Y0085420D01*
X0177448Y0085414D01*
X0177386Y0085412D01*
X0176386Y0085412D01*
X0177136Y0085412D02*
X0177205Y0085410D01*
X0177274Y0085404D01*
X0177342Y0085395D01*
X0177409Y0085382D01*
X0177476Y0085365D01*
X0177542Y0085344D01*
X0177606Y0085320D01*
X0177669Y0085292D01*
X0177731Y0085261D01*
X0177791Y0085227D01*
X0177848Y0085189D01*
X0177904Y0085148D01*
X0177957Y0085105D01*
X0178008Y0085058D01*
X0178056Y0085009D01*
X0178101Y0084957D01*
X0178143Y0084902D01*
X0178182Y0084846D01*
X0178219Y0084787D01*
X0178251Y0084726D01*
X0178281Y0084664D01*
X0178307Y0084600D01*
X0178329Y0084535D01*
X0178348Y0084469D01*
X0178363Y0084402D01*
X0178374Y0084334D01*
X0178382Y0084265D01*
X0178386Y0084196D01*
X0178386Y0084128D01*
X0178382Y0084059D01*
X0178374Y0083990D01*
X0178363Y0083922D01*
X0178348Y0083855D01*
X0178329Y0083789D01*
X0178307Y0083724D01*
X0178281Y0083660D01*
X0178251Y0083598D01*
X0178219Y0083537D01*
X0178182Y0083478D01*
X0178143Y0083422D01*
X0178101Y0083367D01*
X0178056Y0083315D01*
X0178008Y0083266D01*
X0177957Y0083219D01*
X0177904Y0083176D01*
X0177848Y0083135D01*
X0177791Y0083097D01*
X0177731Y0083063D01*
X0177669Y0083032D01*
X0177606Y0083004D01*
X0177542Y0082980D01*
X0177476Y0082959D01*
X0177409Y0082942D01*
X0177342Y0082929D01*
X0177274Y0082920D01*
X0177205Y0082914D01*
X0177136Y0082912D01*
X0175886Y0082912D01*
X0173918Y0082912D02*
X0172918Y0084912D01*
X0172668Y0084912D02*
X0171418Y0084912D01*
X0172668Y0084912D02*
X0172737Y0084914D01*
X0172806Y0084920D01*
X0172874Y0084929D01*
X0172941Y0084942D01*
X0173008Y0084959D01*
X0173074Y0084980D01*
X0173138Y0085004D01*
X0173201Y0085032D01*
X0173263Y0085063D01*
X0173323Y0085097D01*
X0173380Y0085135D01*
X0173436Y0085176D01*
X0173489Y0085219D01*
X0173540Y0085266D01*
X0173588Y0085315D01*
X0173633Y0085367D01*
X0173675Y0085422D01*
X0173714Y0085478D01*
X0173751Y0085537D01*
X0173783Y0085598D01*
X0173813Y0085660D01*
X0173839Y0085724D01*
X0173861Y0085789D01*
X0173880Y0085855D01*
X0173895Y0085922D01*
X0173906Y0085990D01*
X0173914Y0086059D01*
X0173918Y0086128D01*
X0173918Y0086196D01*
X0173914Y0086265D01*
X0173906Y0086334D01*
X0173895Y0086402D01*
X0173880Y0086469D01*
X0173861Y0086535D01*
X0173839Y0086600D01*
X0173813Y0086664D01*
X0173783Y0086726D01*
X0173751Y0086787D01*
X0173714Y0086846D01*
X0173675Y0086902D01*
X0173633Y0086957D01*
X0173588Y0087009D01*
X0173540Y0087058D01*
X0173489Y0087105D01*
X0173436Y0087148D01*
X0173380Y0087189D01*
X0173323Y0087227D01*
X0173263Y0087261D01*
X0173201Y0087292D01*
X0173138Y0087320D01*
X0173074Y0087344D01*
X0173008Y0087365D01*
X0172941Y0087382D01*
X0172874Y0087395D01*
X0172806Y0087404D01*
X0172737Y0087410D01*
X0172668Y0087412D01*
X0087746Y0087351D02*
X0086246Y0087351D01*
X0084481Y0087351D02*
X0083481Y0087351D01*
X0083421Y0087349D01*
X0083360Y0087344D01*
X0083301Y0087335D01*
X0083242Y0087322D01*
X0083183Y0087306D01*
X0083126Y0087286D01*
X0083071Y0087263D01*
X0083016Y0087236D01*
X0082964Y0087207D01*
X0082913Y0087174D01*
X0082864Y0087138D01*
X0082818Y0087100D01*
X0082774Y0087058D01*
X0082732Y0087014D01*
X0082694Y0086968D01*
X0082658Y0086919D01*
X0082625Y0086868D01*
X0082596Y0086816D01*
X0082569Y0086761D01*
X0082546Y0086706D01*
X0082526Y0086649D01*
X0082510Y0086590D01*
X0082497Y0086531D01*
X0082488Y0086472D01*
X0082483Y0086411D01*
X0082481Y0086351D01*
X0082481Y0083851D01*
X0082483Y0083791D01*
X0082488Y0083730D01*
X0082497Y0083671D01*
X0082510Y0083612D01*
X0082526Y0083553D01*
X0082546Y0083496D01*
X0082569Y0083441D01*
X0082596Y0083386D01*
X0082625Y0083334D01*
X0082658Y0083283D01*
X0082694Y0083234D01*
X0082732Y0083188D01*
X0082774Y0083144D01*
X0082818Y0083102D01*
X0082864Y0083064D01*
X0082913Y0083028D01*
X0082964Y0082995D01*
X0083016Y0082966D01*
X0083071Y0082939D01*
X0083126Y0082916D01*
X0083183Y0082896D01*
X0083242Y0082880D01*
X0083301Y0082867D01*
X0083360Y0082858D01*
X0083421Y0082853D01*
X0083481Y0082851D01*
X0084481Y0082851D01*
X0086246Y0082851D02*
X0087496Y0082851D01*
X0087565Y0082853D01*
X0087634Y0082859D01*
X0087702Y0082868D01*
X0087769Y0082881D01*
X0087836Y0082898D01*
X0087902Y0082919D01*
X0087966Y0082943D01*
X0088029Y0082971D01*
X0088091Y0083002D01*
X0088151Y0083036D01*
X0088208Y0083074D01*
X0088264Y0083115D01*
X0088317Y0083158D01*
X0088368Y0083205D01*
X0088416Y0083254D01*
X0088461Y0083306D01*
X0088503Y0083361D01*
X0088542Y0083417D01*
X0088579Y0083476D01*
X0088611Y0083537D01*
X0088641Y0083599D01*
X0088667Y0083663D01*
X0088689Y0083728D01*
X0088708Y0083794D01*
X0088723Y0083861D01*
X0088734Y0083929D01*
X0088742Y0083998D01*
X0088746Y0084067D01*
X0088746Y0084135D01*
X0088742Y0084204D01*
X0088734Y0084273D01*
X0088723Y0084341D01*
X0088708Y0084408D01*
X0088689Y0084474D01*
X0088667Y0084539D01*
X0088641Y0084603D01*
X0088611Y0084665D01*
X0088579Y0084726D01*
X0088542Y0084785D01*
X0088503Y0084841D01*
X0088461Y0084896D01*
X0088416Y0084948D01*
X0088368Y0084997D01*
X0088317Y0085044D01*
X0088264Y0085087D01*
X0088208Y0085128D01*
X0088151Y0085166D01*
X0088091Y0085200D01*
X0088029Y0085231D01*
X0087966Y0085259D01*
X0087902Y0085283D01*
X0087836Y0085304D01*
X0087769Y0085321D01*
X0087702Y0085334D01*
X0087634Y0085343D01*
X0087565Y0085349D01*
X0087496Y0085351D01*
X0087746Y0085351D02*
X0086746Y0085351D01*
X0087746Y0085351D02*
X0087808Y0085353D01*
X0087869Y0085359D01*
X0087930Y0085368D01*
X0087990Y0085381D01*
X0088049Y0085398D01*
X0088107Y0085419D01*
X0088164Y0085443D01*
X0088219Y0085470D01*
X0088272Y0085501D01*
X0088324Y0085535D01*
X0088373Y0085572D01*
X0088420Y0085612D01*
X0088464Y0085655D01*
X0088505Y0085700D01*
X0088544Y0085748D01*
X0088580Y0085799D01*
X0088612Y0085851D01*
X0088641Y0085905D01*
X0088667Y0085961D01*
X0088689Y0086019D01*
X0088708Y0086077D01*
X0088723Y0086137D01*
X0088734Y0086198D01*
X0088742Y0086259D01*
X0088746Y0086320D01*
X0088746Y0086382D01*
X0088742Y0086443D01*
X0088734Y0086504D01*
X0088723Y0086565D01*
X0088708Y0086625D01*
X0088689Y0086683D01*
X0088667Y0086741D01*
X0088641Y0086797D01*
X0088612Y0086851D01*
X0088580Y0086903D01*
X0088544Y0086954D01*
X0088505Y0087002D01*
X0088464Y0087047D01*
X0088420Y0087090D01*
X0088373Y0087130D01*
X0088324Y0087167D01*
X0088272Y0087201D01*
X0088219Y0087232D01*
X0088164Y0087259D01*
X0088107Y0087283D01*
X0088049Y0087304D01*
X0087990Y0087321D01*
X0087930Y0087334D01*
X0087869Y0087343D01*
X0087808Y0087349D01*
X0087746Y0087351D01*
D12*
X0095554Y0080907D02*
X0109354Y0080907D01*
X0140668Y0081362D02*
X0140668Y0071362D01*
X0150168Y0071362D01*
X0156168Y0071362D02*
X0165668Y0071362D01*
X0165668Y0081362D01*
X0165168Y0078362D02*
X0165183Y0078245D01*
X0165194Y0078128D01*
X0165201Y0078010D01*
X0165204Y0077892D01*
X0165203Y0077774D01*
X0165198Y0077656D01*
X0165189Y0077539D01*
X0165176Y0077421D01*
X0165160Y0077305D01*
X0165139Y0077189D01*
X0165115Y0077073D01*
X0165087Y0076959D01*
X0165055Y0076845D01*
X0165019Y0076733D01*
X0164979Y0076622D01*
X0164936Y0076512D01*
X0164889Y0076404D01*
X0164839Y0076297D01*
X0164785Y0076192D01*
X0164728Y0076089D01*
X0164667Y0075988D01*
X0164603Y0075889D01*
X0164535Y0075793D01*
X0164465Y0075698D01*
X0164391Y0075606D01*
X0164314Y0075517D01*
X0164234Y0075430D01*
X0164152Y0075345D01*
X0164067Y0075264D01*
X0163979Y0075185D01*
X0163888Y0075110D01*
X0163795Y0075037D01*
X0163700Y0074968D01*
X0163602Y0074902D01*
X0163502Y0074839D01*
X0163400Y0074779D01*
X0163297Y0074723D01*
X0163191Y0074671D01*
X0163084Y0074622D01*
X0162975Y0074576D01*
X0162865Y0074535D01*
X0162753Y0074497D01*
X0162640Y0074462D01*
X0162526Y0074432D01*
X0162412Y0074405D01*
X0162296Y0074382D01*
X0162180Y0074363D01*
X0162063Y0074348D01*
X0161945Y0074337D01*
X0161827Y0074330D01*
X0161710Y0074326D01*
X0161592Y0074327D01*
X0161474Y0074331D01*
X0161356Y0074340D01*
X0161239Y0074352D01*
X0161122Y0074368D01*
X0161006Y0074389D01*
X0160890Y0074413D01*
X0160776Y0074440D01*
X0160662Y0074472D01*
X0160550Y0074507D01*
X0160439Y0074547D01*
X0160329Y0074589D01*
X0160220Y0074636D01*
X0160114Y0074686D01*
X0160009Y0074740D01*
X0159905Y0074797D01*
X0159804Y0074857D01*
X0159705Y0074921D01*
X0159608Y0074988D01*
X0159513Y0075058D01*
X0159421Y0075132D01*
X0159331Y0075208D01*
X0159244Y0075288D01*
X0159159Y0075370D01*
X0159078Y0075455D01*
X0158999Y0075543D01*
X0158923Y0075633D01*
X0158850Y0075726D01*
X0158781Y0075821D01*
X0158714Y0075918D01*
X0158651Y0076018D01*
X0158591Y0076119D01*
X0158535Y0076223D01*
X0158482Y0076328D01*
X0158433Y0076435D01*
X0158387Y0076544D01*
X0158345Y0076654D01*
X0158306Y0076766D01*
X0158272Y0076879D01*
X0158241Y0076992D01*
X0158214Y0077107D01*
X0158190Y0077223D01*
X0158171Y0077339D01*
X0158155Y0077456D01*
X0158144Y0077573D01*
X0158136Y0077691D01*
X0158132Y0077809D01*
X0158133Y0077927D01*
X0158137Y0078045D01*
X0158145Y0078162D01*
X0158157Y0078280D01*
X0158173Y0078396D01*
X0158192Y0078513D01*
X0158216Y0078628D01*
X0158243Y0078743D01*
X0158275Y0078857D01*
X0158310Y0078969D01*
X0158349Y0079081D01*
X0158391Y0079191D01*
X0158437Y0079299D01*
X0158487Y0079406D01*
X0158540Y0079511D01*
X0158597Y0079615D01*
X0158657Y0079716D01*
X0158721Y0079815D01*
X0158787Y0079913D01*
X0158857Y0080008D01*
X0158930Y0080100D01*
X0159007Y0080190D01*
X0159086Y0080278D01*
X0159168Y0080362D01*
X0165668Y0087362D02*
X0165668Y0088362D01*
X0140668Y0088362D01*
X0140668Y0087362D01*
X0186468Y0088562D02*
X0188602Y0082162D01*
X0190735Y0088562D01*
X0197901Y0086784D02*
X0197901Y0083939D01*
X0197903Y0083856D01*
X0197909Y0083773D01*
X0197919Y0083690D01*
X0197932Y0083607D01*
X0197950Y0083526D01*
X0197971Y0083445D01*
X0197996Y0083366D01*
X0198025Y0083288D01*
X0198057Y0083211D01*
X0198093Y0083136D01*
X0198132Y0083062D01*
X0198175Y0082991D01*
X0198221Y0082921D01*
X0198271Y0082854D01*
X0198323Y0082789D01*
X0198378Y0082727D01*
X0198437Y0082667D01*
X0198498Y0082610D01*
X0198561Y0082556D01*
X0198627Y0082505D01*
X0198696Y0082458D01*
X0198766Y0082413D01*
X0198839Y0082372D01*
X0198913Y0082335D01*
X0198989Y0082300D01*
X0199067Y0082270D01*
X0199145Y0082243D01*
X0199226Y0082220D01*
X0199307Y0082200D01*
X0199389Y0082185D01*
X0199471Y0082173D01*
X0199554Y0082165D01*
X0199637Y0082161D01*
X0199721Y0082161D01*
X0199804Y0082165D01*
X0199887Y0082173D01*
X0199969Y0082185D01*
X0200051Y0082200D01*
X0200132Y0082220D01*
X0200213Y0082243D01*
X0200291Y0082270D01*
X0200369Y0082300D01*
X0200445Y0082335D01*
X0200519Y0082372D01*
X0200592Y0082413D01*
X0200662Y0082458D01*
X0200731Y0082505D01*
X0200797Y0082556D01*
X0200860Y0082610D01*
X0200921Y0082667D01*
X0200980Y0082727D01*
X0201035Y0082789D01*
X0201087Y0082854D01*
X0201137Y0082921D01*
X0201183Y0082991D01*
X0201226Y0083062D01*
X0201265Y0083136D01*
X0201301Y0083211D01*
X0201333Y0083288D01*
X0201362Y0083366D01*
X0201387Y0083445D01*
X0201408Y0083526D01*
X0201426Y0083607D01*
X0201439Y0083690D01*
X0201449Y0083773D01*
X0201455Y0083856D01*
X0201457Y0083939D01*
X0201457Y0086784D01*
X0201455Y0086867D01*
X0201449Y0086950D01*
X0201439Y0087033D01*
X0201426Y0087116D01*
X0201408Y0087197D01*
X0201387Y0087278D01*
X0201362Y0087357D01*
X0201333Y0087435D01*
X0201301Y0087512D01*
X0201265Y0087587D01*
X0201226Y0087661D01*
X0201183Y0087732D01*
X0201137Y0087802D01*
X0201087Y0087869D01*
X0201035Y0087934D01*
X0200980Y0087996D01*
X0200921Y0088056D01*
X0200860Y0088113D01*
X0200797Y0088167D01*
X0200731Y0088218D01*
X0200662Y0088265D01*
X0200592Y0088310D01*
X0200519Y0088351D01*
X0200445Y0088388D01*
X0200369Y0088423D01*
X0200291Y0088453D01*
X0200213Y0088480D01*
X0200132Y0088503D01*
X0200051Y0088523D01*
X0199969Y0088538D01*
X0199887Y0088550D01*
X0199804Y0088558D01*
X0199721Y0088562D01*
X0199637Y0088562D01*
X0199554Y0088558D01*
X0199471Y0088550D01*
X0199389Y0088538D01*
X0199307Y0088523D01*
X0199226Y0088503D01*
X0199145Y0088480D01*
X0199067Y0088453D01*
X0198989Y0088423D01*
X0198913Y0088388D01*
X0198839Y0088351D01*
X0198766Y0088310D01*
X0198696Y0088265D01*
X0198627Y0088218D01*
X0198561Y0088167D01*
X0198498Y0088113D01*
X0198437Y0088056D01*
X0198378Y0087996D01*
X0198323Y0087934D01*
X0198271Y0087869D01*
X0198221Y0087802D01*
X0198175Y0087732D01*
X0198132Y0087661D01*
X0198093Y0087587D01*
X0198057Y0087512D01*
X0198025Y0087435D01*
X0197996Y0087357D01*
X0197971Y0087278D01*
X0197950Y0087197D01*
X0197932Y0087116D01*
X0197919Y0087033D01*
X0197909Y0086950D01*
X0197903Y0086867D01*
X0197901Y0086784D01*
X0204260Y0088562D02*
X0204260Y0083939D01*
X0204262Y0083856D01*
X0204268Y0083773D01*
X0204278Y0083690D01*
X0204291Y0083607D01*
X0204309Y0083526D01*
X0204330Y0083445D01*
X0204355Y0083366D01*
X0204384Y0083288D01*
X0204416Y0083211D01*
X0204452Y0083136D01*
X0204491Y0083062D01*
X0204534Y0082991D01*
X0204580Y0082921D01*
X0204630Y0082854D01*
X0204682Y0082789D01*
X0204737Y0082727D01*
X0204796Y0082667D01*
X0204857Y0082610D01*
X0204920Y0082556D01*
X0204986Y0082505D01*
X0205055Y0082458D01*
X0205125Y0082413D01*
X0205198Y0082372D01*
X0205272Y0082335D01*
X0205348Y0082300D01*
X0205426Y0082270D01*
X0205504Y0082243D01*
X0205585Y0082220D01*
X0205666Y0082200D01*
X0205748Y0082185D01*
X0205830Y0082173D01*
X0205913Y0082165D01*
X0205996Y0082161D01*
X0206080Y0082161D01*
X0206163Y0082165D01*
X0206246Y0082173D01*
X0206328Y0082185D01*
X0206410Y0082200D01*
X0206491Y0082220D01*
X0206572Y0082243D01*
X0206650Y0082270D01*
X0206728Y0082300D01*
X0206804Y0082335D01*
X0206878Y0082372D01*
X0206951Y0082413D01*
X0207021Y0082458D01*
X0207090Y0082505D01*
X0207156Y0082556D01*
X0207219Y0082610D01*
X0207280Y0082667D01*
X0207339Y0082727D01*
X0207394Y0082789D01*
X0207446Y0082854D01*
X0207496Y0082921D01*
X0207542Y0082991D01*
X0207585Y0083062D01*
X0207624Y0083136D01*
X0207660Y0083211D01*
X0207692Y0083288D01*
X0207721Y0083366D01*
X0207746Y0083445D01*
X0207767Y0083526D01*
X0207785Y0083607D01*
X0207798Y0083690D01*
X0207808Y0083773D01*
X0207814Y0083856D01*
X0207816Y0083939D01*
X0207816Y0088562D01*
X0210209Y0088562D02*
X0213765Y0088562D01*
X0211987Y0088562D02*
X0211987Y0082162D01*
X0206972Y0077476D02*
X0206972Y0074476D01*
X0208472Y0075976D02*
X0205472Y0075976D01*
X0195562Y0081451D02*
X0192718Y0081451D01*
X0190272Y0067976D02*
X0190272Y0034576D01*
X0203472Y0034576D01*
X0210472Y0034576D02*
X0223672Y0034576D01*
X0223672Y0067976D01*
X0210472Y0067976D01*
X0215372Y0067976D02*
X0223672Y0059676D01*
X0203472Y0067976D02*
X0198572Y0067976D01*
X0190272Y0059676D01*
X0190272Y0067976D02*
X0198572Y0067976D01*
X0119021Y0047822D02*
X0119021Y0042922D01*
X0120382Y0042922D02*
X0117659Y0042922D01*
X0115267Y0044283D02*
X0115267Y0046461D01*
X0115265Y0046532D01*
X0115260Y0046603D01*
X0115250Y0046674D01*
X0115237Y0046744D01*
X0115221Y0046813D01*
X0115200Y0046882D01*
X0115177Y0046949D01*
X0115149Y0047015D01*
X0115119Y0047079D01*
X0115085Y0047141D01*
X0115047Y0047202D01*
X0115007Y0047261D01*
X0114964Y0047317D01*
X0114917Y0047372D01*
X0114868Y0047423D01*
X0114817Y0047472D01*
X0114763Y0047519D01*
X0114706Y0047562D01*
X0114647Y0047602D01*
X0114587Y0047640D01*
X0114524Y0047674D01*
X0114460Y0047704D01*
X0114394Y0047732D01*
X0114327Y0047755D01*
X0114258Y0047776D01*
X0114189Y0047792D01*
X0114119Y0047805D01*
X0114048Y0047815D01*
X0113977Y0047820D01*
X0113906Y0047822D01*
X0112544Y0047822D01*
X0112544Y0042922D01*
X0113906Y0042922D01*
X0113980Y0042924D01*
X0114053Y0042930D01*
X0114126Y0042940D01*
X0114199Y0042954D01*
X0114270Y0042972D01*
X0114341Y0042993D01*
X0114410Y0043019D01*
X0114477Y0043048D01*
X0114544Y0043081D01*
X0114608Y0043117D01*
X0114670Y0043157D01*
X0114730Y0043200D01*
X0114787Y0043246D01*
X0114842Y0043295D01*
X0114894Y0043347D01*
X0114943Y0043402D01*
X0114989Y0043459D01*
X0115032Y0043519D01*
X0115072Y0043581D01*
X0115108Y0043645D01*
X0115141Y0043712D01*
X0115170Y0043779D01*
X0115196Y0043848D01*
X0115217Y0043919D01*
X0115235Y0043990D01*
X0115249Y0044063D01*
X0115259Y0044136D01*
X0115265Y0044209D01*
X0115267Y0044283D01*
X0117659Y0046733D02*
X0119021Y0047822D01*
X0110381Y0053682D02*
X0108610Y0053682D01*
X0110381Y0053682D02*
X0110381Y0037737D01*
X0108610Y0037737D01*
X0099161Y0037737D02*
X0097389Y0037737D01*
X0097389Y0053682D01*
X0099161Y0053682D01*
X0089668Y0053362D02*
X0088668Y0053362D01*
X0089668Y0053362D02*
X0089668Y0028362D01*
X0088668Y0028362D01*
X0082668Y0028362D02*
X0072668Y0028362D01*
X0072668Y0037862D01*
X0081668Y0034862D02*
X0081584Y0034944D01*
X0081496Y0035023D01*
X0081406Y0035100D01*
X0081314Y0035173D01*
X0081219Y0035243D01*
X0081121Y0035309D01*
X0081022Y0035373D01*
X0080921Y0035433D01*
X0080817Y0035490D01*
X0080712Y0035543D01*
X0080605Y0035593D01*
X0080497Y0035639D01*
X0080387Y0035681D01*
X0080275Y0035720D01*
X0080163Y0035755D01*
X0080049Y0035787D01*
X0079934Y0035814D01*
X0079819Y0035838D01*
X0079702Y0035857D01*
X0079586Y0035873D01*
X0079468Y0035885D01*
X0079351Y0035893D01*
X0079233Y0035897D01*
X0079115Y0035898D01*
X0078997Y0035894D01*
X0078879Y0035886D01*
X0078762Y0035875D01*
X0078645Y0035859D01*
X0078529Y0035840D01*
X0078413Y0035816D01*
X0078298Y0035789D01*
X0078185Y0035758D01*
X0078072Y0035724D01*
X0077960Y0035685D01*
X0077850Y0035643D01*
X0077741Y0035597D01*
X0077634Y0035548D01*
X0077529Y0035495D01*
X0077425Y0035439D01*
X0077324Y0035379D01*
X0077224Y0035316D01*
X0077127Y0035249D01*
X0077032Y0035180D01*
X0076939Y0035107D01*
X0076849Y0035031D01*
X0076761Y0034952D01*
X0076676Y0034871D01*
X0076594Y0034786D01*
X0076514Y0034699D01*
X0076438Y0034609D01*
X0076364Y0034517D01*
X0076294Y0034422D01*
X0076227Y0034325D01*
X0076163Y0034226D01*
X0076103Y0034125D01*
X0076046Y0034021D01*
X0075992Y0033916D01*
X0075942Y0033810D01*
X0075895Y0033701D01*
X0075853Y0033591D01*
X0075813Y0033480D01*
X0075778Y0033368D01*
X0075746Y0033254D01*
X0075719Y0033140D01*
X0075695Y0033024D01*
X0075674Y0032908D01*
X0075658Y0032791D01*
X0075646Y0032674D01*
X0075637Y0032556D01*
X0075633Y0032438D01*
X0075632Y0032320D01*
X0075636Y0032203D01*
X0075643Y0032085D01*
X0075654Y0031967D01*
X0075669Y0031850D01*
X0075688Y0031734D01*
X0075711Y0031618D01*
X0075738Y0031504D01*
X0075768Y0031390D01*
X0075803Y0031277D01*
X0075841Y0031165D01*
X0075882Y0031055D01*
X0075928Y0030946D01*
X0075977Y0030839D01*
X0076029Y0030733D01*
X0076085Y0030630D01*
X0076145Y0030528D01*
X0076208Y0030428D01*
X0076274Y0030330D01*
X0076343Y0030235D01*
X0076416Y0030142D01*
X0076491Y0030051D01*
X0076570Y0029963D01*
X0076651Y0029878D01*
X0076736Y0029796D01*
X0076823Y0029716D01*
X0076912Y0029639D01*
X0077004Y0029565D01*
X0077099Y0029495D01*
X0077195Y0029427D01*
X0077294Y0029363D01*
X0077395Y0029302D01*
X0077498Y0029245D01*
X0077603Y0029191D01*
X0077710Y0029141D01*
X0077818Y0029094D01*
X0077928Y0029051D01*
X0078039Y0029011D01*
X0078151Y0028975D01*
X0078265Y0028943D01*
X0078379Y0028915D01*
X0078495Y0028891D01*
X0078611Y0028870D01*
X0078727Y0028854D01*
X0078845Y0028841D01*
X0078962Y0028832D01*
X0079080Y0028827D01*
X0079198Y0028826D01*
X0079316Y0028829D01*
X0079434Y0028836D01*
X0079551Y0028847D01*
X0079668Y0028862D01*
X0067533Y0022572D02*
X0067533Y0076572D01*
X0044233Y0076572D01*
X0036833Y0076572D02*
X0027033Y0076572D01*
X0013533Y0063072D01*
X0013533Y0076572D02*
X0013533Y0022572D01*
X0036833Y0022572D01*
X0044233Y0022572D02*
X0067533Y0022572D01*
X0052152Y0015284D02*
X0052152Y0012439D01*
X0052153Y0012439D02*
X0052151Y0012357D01*
X0052145Y0012275D01*
X0052136Y0012193D01*
X0052123Y0012112D01*
X0052106Y0012032D01*
X0052085Y0011952D01*
X0052061Y0011874D01*
X0052033Y0011797D01*
X0052002Y0011721D01*
X0051967Y0011646D01*
X0051928Y0011574D01*
X0051887Y0011503D01*
X0051842Y0011434D01*
X0051794Y0011368D01*
X0051743Y0011303D01*
X0051689Y0011241D01*
X0051632Y0011182D01*
X0051573Y0011125D01*
X0051511Y0011071D01*
X0051446Y0011020D01*
X0051380Y0010972D01*
X0051311Y0010927D01*
X0051240Y0010886D01*
X0051168Y0010847D01*
X0051093Y0010812D01*
X0051017Y0010781D01*
X0050940Y0010753D01*
X0050862Y0010729D01*
X0050782Y0010708D01*
X0050702Y0010691D01*
X0050621Y0010678D01*
X0050539Y0010669D01*
X0050457Y0010663D01*
X0050375Y0010661D01*
X0050375Y0010662D02*
X0048597Y0010662D01*
X0048597Y0017062D01*
X0050375Y0017062D01*
X0050457Y0017060D01*
X0050539Y0017054D01*
X0050621Y0017045D01*
X0050702Y0017032D01*
X0050782Y0017015D01*
X0050862Y0016994D01*
X0050940Y0016970D01*
X0051017Y0016942D01*
X0051093Y0016911D01*
X0051168Y0016876D01*
X0051240Y0016837D01*
X0051311Y0016796D01*
X0051380Y0016751D01*
X0051446Y0016703D01*
X0051511Y0016652D01*
X0051573Y0016598D01*
X0051632Y0016541D01*
X0051689Y0016482D01*
X0051743Y0016420D01*
X0051794Y0016355D01*
X0051842Y0016289D01*
X0051887Y0016220D01*
X0051928Y0016149D01*
X0051967Y0016077D01*
X0052002Y0016002D01*
X0052033Y0015926D01*
X0052061Y0015849D01*
X0052085Y0015771D01*
X0052106Y0015691D01*
X0052123Y0015611D01*
X0052136Y0015530D01*
X0052145Y0015448D01*
X0052151Y0015366D01*
X0052153Y0015284D01*
X0045588Y0017062D02*
X0045588Y0010662D01*
X0042033Y0017062D01*
X0042033Y0010662D01*
X0039024Y0010662D02*
X0036891Y0010662D01*
X0039024Y0010662D02*
X0039024Y0014217D01*
X0037957Y0014217D01*
X0035469Y0015639D02*
X0035471Y0015713D01*
X0035477Y0015788D01*
X0035487Y0015861D01*
X0035500Y0015935D01*
X0035517Y0016007D01*
X0035539Y0016078D01*
X0035563Y0016149D01*
X0035592Y0016217D01*
X0035624Y0016285D01*
X0035660Y0016350D01*
X0035698Y0016413D01*
X0035741Y0016475D01*
X0035786Y0016534D01*
X0035834Y0016590D01*
X0035885Y0016645D01*
X0035939Y0016696D01*
X0035996Y0016744D01*
X0036055Y0016789D01*
X0036117Y0016832D01*
X0036180Y0016870D01*
X0036245Y0016906D01*
X0036313Y0016938D01*
X0036381Y0016967D01*
X0036452Y0016991D01*
X0036523Y0017013D01*
X0036595Y0017030D01*
X0036669Y0017043D01*
X0036742Y0017053D01*
X0036817Y0017059D01*
X0036891Y0017061D01*
X0036891Y0017062D02*
X0039024Y0017062D01*
X0035468Y0015639D02*
X0035468Y0012084D01*
X0035469Y0012084D02*
X0035471Y0012010D01*
X0035477Y0011935D01*
X0035487Y0011862D01*
X0035500Y0011788D01*
X0035517Y0011716D01*
X0035539Y0011645D01*
X0035563Y0011574D01*
X0035592Y0011506D01*
X0035624Y0011438D01*
X0035660Y0011373D01*
X0035698Y0011310D01*
X0035741Y0011248D01*
X0035786Y0011189D01*
X0035834Y0011132D01*
X0035885Y0011078D01*
X0035939Y0011027D01*
X0035996Y0010979D01*
X0036055Y0010934D01*
X0036117Y0010891D01*
X0036180Y0010853D01*
X0036245Y0010817D01*
X0036313Y0010785D01*
X0036381Y0010756D01*
X0036452Y0010732D01*
X0036523Y0010710D01*
X0036595Y0010693D01*
X0036669Y0010680D01*
X0036742Y0010670D01*
X0036817Y0010664D01*
X0036891Y0010662D01*
X0072668Y0043862D02*
X0072668Y0053362D01*
X0082668Y0053362D01*
X0095554Y0061307D02*
X0101254Y0061307D01*
X0103654Y0061307D01*
X0109354Y0061307D01*
X0103654Y0061307D02*
X0103652Y0061376D01*
X0103646Y0061444D01*
X0103636Y0061512D01*
X0103623Y0061579D01*
X0103605Y0061645D01*
X0103584Y0061710D01*
X0103559Y0061774D01*
X0103531Y0061836D01*
X0103499Y0061897D01*
X0103464Y0061956D01*
X0103425Y0062012D01*
X0103383Y0062067D01*
X0103338Y0062118D01*
X0103290Y0062168D01*
X0103240Y0062214D01*
X0103187Y0062257D01*
X0103131Y0062298D01*
X0103074Y0062335D01*
X0103014Y0062368D01*
X0102952Y0062399D01*
X0102889Y0062425D01*
X0102825Y0062448D01*
X0102759Y0062468D01*
X0102692Y0062483D01*
X0102625Y0062495D01*
X0102557Y0062503D01*
X0102488Y0062507D01*
X0102420Y0062507D01*
X0102351Y0062503D01*
X0102283Y0062495D01*
X0102216Y0062483D01*
X0102149Y0062468D01*
X0102083Y0062448D01*
X0102019Y0062425D01*
X0101956Y0062399D01*
X0101894Y0062368D01*
X0101834Y0062335D01*
X0101777Y0062298D01*
X0101721Y0062257D01*
X0101668Y0062214D01*
X0101618Y0062168D01*
X0101570Y0062118D01*
X0101525Y0062067D01*
X0101483Y0062012D01*
X0101444Y0061956D01*
X0101409Y0061897D01*
X0101377Y0061836D01*
X0101349Y0061774D01*
X0101324Y0061710D01*
X0101303Y0061645D01*
X0101285Y0061579D01*
X0101272Y0061512D01*
X0101262Y0061444D01*
X0101256Y0061376D01*
X0101254Y0061307D01*
X0067533Y0063072D02*
X0054033Y0076572D01*
X0040533Y0082572D02*
X0040533Y0085572D01*
X0042033Y0084072D02*
X0039033Y0084072D01*
X0036854Y0082162D02*
X0036854Y0088562D01*
X0033299Y0088562D02*
X0036854Y0082162D01*
X0033299Y0082162D02*
X0033299Y0088562D01*
X0030659Y0088562D02*
X0029237Y0088562D01*
X0029948Y0088562D02*
X0029948Y0082162D01*
X0029237Y0082162D02*
X0030659Y0082162D01*
X0027062Y0081451D02*
X0024218Y0081451D01*
X0020102Y0082162D02*
X0022235Y0088562D01*
X0017968Y0088562D02*
X0020102Y0082162D01*
X0013533Y0076572D02*
X0027033Y0076572D01*
X0195468Y0015639D02*
X0195468Y0012084D01*
X0195469Y0012084D02*
X0195471Y0012010D01*
X0195477Y0011935D01*
X0195487Y0011862D01*
X0195500Y0011788D01*
X0195517Y0011716D01*
X0195539Y0011645D01*
X0195563Y0011574D01*
X0195592Y0011506D01*
X0195624Y0011438D01*
X0195660Y0011373D01*
X0195698Y0011310D01*
X0195741Y0011248D01*
X0195786Y0011189D01*
X0195834Y0011132D01*
X0195885Y0011078D01*
X0195939Y0011027D01*
X0195996Y0010979D01*
X0196055Y0010934D01*
X0196117Y0010891D01*
X0196180Y0010853D01*
X0196245Y0010817D01*
X0196313Y0010785D01*
X0196381Y0010756D01*
X0196452Y0010732D01*
X0196523Y0010710D01*
X0196595Y0010693D01*
X0196669Y0010680D01*
X0196742Y0010670D01*
X0196817Y0010664D01*
X0196891Y0010662D01*
X0199024Y0010662D01*
X0199024Y0014217D01*
X0197957Y0014217D01*
X0195469Y0015639D02*
X0195471Y0015713D01*
X0195477Y0015788D01*
X0195487Y0015861D01*
X0195500Y0015935D01*
X0195517Y0016007D01*
X0195539Y0016078D01*
X0195563Y0016149D01*
X0195592Y0016217D01*
X0195624Y0016285D01*
X0195660Y0016350D01*
X0195698Y0016413D01*
X0195741Y0016475D01*
X0195786Y0016534D01*
X0195834Y0016590D01*
X0195885Y0016645D01*
X0195939Y0016696D01*
X0195996Y0016744D01*
X0196055Y0016789D01*
X0196117Y0016832D01*
X0196180Y0016870D01*
X0196245Y0016906D01*
X0196313Y0016938D01*
X0196381Y0016967D01*
X0196452Y0016991D01*
X0196523Y0017013D01*
X0196595Y0017030D01*
X0196669Y0017043D01*
X0196742Y0017053D01*
X0196817Y0017059D01*
X0196891Y0017061D01*
X0196891Y0017062D02*
X0199024Y0017062D01*
X0202033Y0017062D02*
X0205588Y0010662D01*
X0205588Y0017062D01*
X0208597Y0017062D02*
X0210375Y0017062D01*
X0208597Y0017062D02*
X0208597Y0010662D01*
X0210375Y0010662D01*
X0210375Y0010661D02*
X0210457Y0010663D01*
X0210539Y0010669D01*
X0210621Y0010678D01*
X0210702Y0010691D01*
X0210782Y0010708D01*
X0210862Y0010729D01*
X0210940Y0010753D01*
X0211017Y0010781D01*
X0211093Y0010812D01*
X0211168Y0010847D01*
X0211240Y0010886D01*
X0211311Y0010927D01*
X0211380Y0010972D01*
X0211446Y0011020D01*
X0211511Y0011071D01*
X0211573Y0011125D01*
X0211632Y0011182D01*
X0211689Y0011241D01*
X0211743Y0011303D01*
X0211794Y0011368D01*
X0211842Y0011434D01*
X0211887Y0011503D01*
X0211928Y0011574D01*
X0211967Y0011646D01*
X0212002Y0011721D01*
X0212033Y0011797D01*
X0212061Y0011874D01*
X0212085Y0011952D01*
X0212106Y0012032D01*
X0212123Y0012112D01*
X0212136Y0012193D01*
X0212145Y0012275D01*
X0212151Y0012357D01*
X0212153Y0012439D01*
X0212152Y0012439D02*
X0212152Y0015284D01*
X0212153Y0015284D02*
X0212151Y0015366D01*
X0212145Y0015448D01*
X0212136Y0015530D01*
X0212123Y0015611D01*
X0212106Y0015691D01*
X0212085Y0015771D01*
X0212061Y0015849D01*
X0212033Y0015926D01*
X0212002Y0016002D01*
X0211967Y0016077D01*
X0211928Y0016149D01*
X0211887Y0016220D01*
X0211842Y0016289D01*
X0211794Y0016355D01*
X0211743Y0016420D01*
X0211689Y0016482D01*
X0211632Y0016541D01*
X0211573Y0016598D01*
X0211511Y0016652D01*
X0211446Y0016703D01*
X0211380Y0016751D01*
X0211311Y0016796D01*
X0211240Y0016837D01*
X0211168Y0016876D01*
X0211093Y0016911D01*
X0211017Y0016942D01*
X0210940Y0016970D01*
X0210862Y0016994D01*
X0210782Y0017015D01*
X0210702Y0017032D01*
X0210621Y0017045D01*
X0210539Y0017054D01*
X0210457Y0017060D01*
X0210375Y0017062D01*
X0202033Y0017062D02*
X0202033Y0010662D01*
D13*
X0018791Y0013002D02*
X0017147Y0013002D01*
X0017147Y0013003D02*
X0017069Y0013005D01*
X0016991Y0013010D01*
X0016913Y0013020D01*
X0016836Y0013033D01*
X0016759Y0013049D01*
X0016684Y0013070D01*
X0016609Y0013093D01*
X0016536Y0013121D01*
X0016464Y0013152D01*
X0016394Y0013186D01*
X0016325Y0013223D01*
X0016258Y0013264D01*
X0016193Y0013308D01*
X0016131Y0013355D01*
X0016070Y0013405D01*
X0016013Y0013457D01*
X0015957Y0013513D01*
X0015905Y0013570D01*
X0015855Y0013631D01*
X0015808Y0013693D01*
X0015764Y0013758D01*
X0015723Y0013825D01*
X0015686Y0013894D01*
X0015652Y0013964D01*
X0015621Y0014036D01*
X0015593Y0014109D01*
X0015570Y0014184D01*
X0015549Y0014259D01*
X0015533Y0014336D01*
X0015520Y0014413D01*
X0015510Y0014491D01*
X0015505Y0014569D01*
X0015503Y0014647D01*
X0015502Y0014647D02*
X0015502Y0018758D01*
X0015503Y0018758D02*
X0015505Y0018839D01*
X0015511Y0018919D01*
X0015521Y0018999D01*
X0015535Y0019079D01*
X0015552Y0019157D01*
X0015574Y0019235D01*
X0015599Y0019312D01*
X0015628Y0019387D01*
X0015661Y0019461D01*
X0015697Y0019533D01*
X0015737Y0019603D01*
X0015780Y0019671D01*
X0015827Y0019737D01*
X0015876Y0019801D01*
X0015929Y0019862D01*
X0015985Y0019920D01*
X0016043Y0019976D01*
X0016104Y0020029D01*
X0016168Y0020078D01*
X0016234Y0020125D01*
X0016302Y0020168D01*
X0016372Y0020208D01*
X0016444Y0020244D01*
X0016518Y0020277D01*
X0016593Y0020306D01*
X0016670Y0020331D01*
X0016748Y0020353D01*
X0016826Y0020370D01*
X0016906Y0020384D01*
X0016986Y0020394D01*
X0017066Y0020400D01*
X0017147Y0020402D01*
X0018791Y0020402D01*
X0021369Y0018758D02*
X0023425Y0020402D01*
X0023425Y0013002D01*
X0025480Y0013002D02*
X0021369Y0013002D01*
X0190264Y0025215D02*
X0190264Y0029326D01*
X0190266Y0029407D01*
X0190272Y0029487D01*
X0190282Y0029567D01*
X0190296Y0029647D01*
X0190313Y0029725D01*
X0190335Y0029803D01*
X0190360Y0029880D01*
X0190389Y0029955D01*
X0190422Y0030029D01*
X0190458Y0030101D01*
X0190498Y0030171D01*
X0190541Y0030239D01*
X0190588Y0030305D01*
X0190637Y0030369D01*
X0190690Y0030430D01*
X0190746Y0030488D01*
X0190804Y0030544D01*
X0190865Y0030597D01*
X0190929Y0030646D01*
X0190995Y0030693D01*
X0191063Y0030736D01*
X0191133Y0030776D01*
X0191205Y0030812D01*
X0191279Y0030845D01*
X0191354Y0030874D01*
X0191431Y0030899D01*
X0191509Y0030921D01*
X0191587Y0030938D01*
X0191667Y0030952D01*
X0191747Y0030962D01*
X0191827Y0030968D01*
X0191908Y0030970D01*
X0191908Y0030971D02*
X0193553Y0030971D01*
X0199625Y0027682D02*
X0199685Y0027742D01*
X0199743Y0027804D01*
X0199798Y0027869D01*
X0199850Y0027935D01*
X0199899Y0028005D01*
X0199945Y0028076D01*
X0199988Y0028148D01*
X0200028Y0028223D01*
X0200064Y0028300D01*
X0200098Y0028377D01*
X0200128Y0028457D01*
X0200154Y0028537D01*
X0200177Y0028618D01*
X0200197Y0028701D01*
X0200213Y0028784D01*
X0200226Y0028868D01*
X0200235Y0028952D01*
X0200240Y0029036D01*
X0200242Y0029121D01*
X0200240Y0029204D01*
X0200235Y0029287D01*
X0200225Y0029369D01*
X0200212Y0029451D01*
X0200196Y0029533D01*
X0200175Y0029613D01*
X0200151Y0029693D01*
X0200124Y0029771D01*
X0200093Y0029848D01*
X0200059Y0029924D01*
X0200021Y0029998D01*
X0199980Y0030070D01*
X0199936Y0030140D01*
X0199889Y0030208D01*
X0199838Y0030274D01*
X0199785Y0030338D01*
X0199729Y0030399D01*
X0199670Y0030458D01*
X0199609Y0030514D01*
X0199545Y0030567D01*
X0199479Y0030618D01*
X0199411Y0030665D01*
X0199341Y0030709D01*
X0199269Y0030750D01*
X0199195Y0030788D01*
X0199119Y0030822D01*
X0199042Y0030853D01*
X0198964Y0030880D01*
X0198884Y0030904D01*
X0198804Y0030925D01*
X0198722Y0030941D01*
X0198640Y0030954D01*
X0198558Y0030964D01*
X0198475Y0030969D01*
X0198392Y0030971D01*
X0198296Y0030969D01*
X0198199Y0030963D01*
X0198103Y0030953D01*
X0198008Y0030940D01*
X0197913Y0030922D01*
X0197819Y0030901D01*
X0197726Y0030876D01*
X0197634Y0030847D01*
X0197543Y0030814D01*
X0197454Y0030778D01*
X0197366Y0030738D01*
X0197280Y0030695D01*
X0197196Y0030648D01*
X0197113Y0030598D01*
X0197033Y0030544D01*
X0196955Y0030488D01*
X0196880Y0030428D01*
X0196806Y0030365D01*
X0196736Y0030299D01*
X0196668Y0030231D01*
X0196603Y0030159D01*
X0196541Y0030086D01*
X0196482Y0030009D01*
X0196426Y0029931D01*
X0196374Y0029850D01*
X0196325Y0029767D01*
X0196279Y0029682D01*
X0196236Y0029595D01*
X0196197Y0029507D01*
X0196162Y0029417D01*
X0196131Y0029326D01*
X0199625Y0027682D02*
X0196131Y0023571D01*
X0200242Y0023571D01*
X0193553Y0023571D02*
X0191908Y0023571D01*
X0191830Y0023573D01*
X0191752Y0023578D01*
X0191674Y0023588D01*
X0191597Y0023601D01*
X0191520Y0023617D01*
X0191445Y0023638D01*
X0191370Y0023661D01*
X0191297Y0023689D01*
X0191225Y0023720D01*
X0191155Y0023754D01*
X0191086Y0023791D01*
X0191019Y0023832D01*
X0190954Y0023876D01*
X0190892Y0023923D01*
X0190831Y0023973D01*
X0190774Y0024025D01*
X0190718Y0024081D01*
X0190666Y0024138D01*
X0190616Y0024199D01*
X0190569Y0024261D01*
X0190525Y0024326D01*
X0190484Y0024393D01*
X0190447Y0024462D01*
X0190413Y0024532D01*
X0190382Y0024604D01*
X0190354Y0024677D01*
X0190331Y0024752D01*
X0190310Y0024827D01*
X0190294Y0024904D01*
X0190281Y0024981D01*
X0190271Y0025059D01*
X0190266Y0025137D01*
X0190264Y0025215D01*
D14*
X0130317Y0055684D02*
X0127761Y0055684D01*
X0127699Y0055686D01*
X0127638Y0055691D01*
X0127577Y0055701D01*
X0127516Y0055714D01*
X0127457Y0055730D01*
X0127399Y0055750D01*
X0127342Y0055774D01*
X0127286Y0055801D01*
X0127232Y0055831D01*
X0127180Y0055865D01*
X0127131Y0055901D01*
X0127083Y0055941D01*
X0127038Y0055983D01*
X0126996Y0056028D01*
X0126957Y0056076D01*
X0126920Y0056125D01*
X0126886Y0056177D01*
X0126856Y0056231D01*
X0126829Y0056287D01*
X0126805Y0056344D01*
X0126785Y0056402D01*
X0126769Y0056461D01*
X0126756Y0056522D01*
X0126746Y0056583D01*
X0126741Y0056644D01*
X0126739Y0056706D01*
X0126739Y0057729D01*
X0126739Y0060469D02*
X0130317Y0059447D01*
X0130317Y0062003D01*
X0131339Y0061236D02*
X0129294Y0061236D01*
X0131339Y0057729D02*
X0131339Y0056706D01*
X0131337Y0056644D01*
X0131332Y0056583D01*
X0131322Y0056522D01*
X0131309Y0056461D01*
X0131293Y0056402D01*
X0131273Y0056344D01*
X0131249Y0056287D01*
X0131222Y0056231D01*
X0131192Y0056177D01*
X0131158Y0056125D01*
X0131122Y0056076D01*
X0131082Y0056028D01*
X0131040Y0055983D01*
X0130995Y0055941D01*
X0130947Y0055901D01*
X0130898Y0055865D01*
X0130846Y0055831D01*
X0130792Y0055801D01*
X0130736Y0055774D01*
X0130679Y0055750D01*
X0130621Y0055730D01*
X0130562Y0055714D01*
X0130501Y0055701D01*
X0130440Y0055691D01*
X0130379Y0055686D01*
X0130317Y0055684D01*
X0111754Y0059107D02*
X0110348Y0058596D01*
X0108943Y0059107D01*
X0110348Y0058596D02*
X0110348Y0060129D01*
X0110348Y0058596D02*
X0109454Y0057446D01*
X0110348Y0058596D02*
X0111243Y0057446D01*
X0076319Y0061575D02*
X0071719Y0061575D01*
X0071719Y0062852D01*
X0071721Y0062922D01*
X0071727Y0062993D01*
X0071736Y0063062D01*
X0071750Y0063131D01*
X0071767Y0063200D01*
X0071788Y0063267D01*
X0071813Y0063333D01*
X0071841Y0063397D01*
X0071873Y0063460D01*
X0071908Y0063521D01*
X0071947Y0063580D01*
X0071988Y0063637D01*
X0072033Y0063691D01*
X0072081Y0063743D01*
X0072131Y0063792D01*
X0072185Y0063839D01*
X0072240Y0063882D01*
X0072298Y0063922D01*
X0072358Y0063959D01*
X0072420Y0063992D01*
X0072484Y0064022D01*
X0072549Y0064049D01*
X0072615Y0064072D01*
X0072683Y0064091D01*
X0072752Y0064106D01*
X0072821Y0064118D01*
X0072891Y0064126D01*
X0072962Y0064130D01*
X0073032Y0064130D01*
X0073103Y0064126D01*
X0073173Y0064118D01*
X0073242Y0064106D01*
X0073311Y0064091D01*
X0073379Y0064072D01*
X0073445Y0064049D01*
X0073510Y0064022D01*
X0073574Y0063992D01*
X0073636Y0063959D01*
X0073696Y0063922D01*
X0073754Y0063882D01*
X0073809Y0063839D01*
X0073863Y0063792D01*
X0073913Y0063743D01*
X0073961Y0063691D01*
X0074006Y0063637D01*
X0074047Y0063580D01*
X0074086Y0063521D01*
X0074121Y0063460D01*
X0074153Y0063397D01*
X0074181Y0063333D01*
X0074206Y0063267D01*
X0074227Y0063200D01*
X0074244Y0063131D01*
X0074258Y0063062D01*
X0074267Y0062993D01*
X0074273Y0062922D01*
X0074275Y0062852D01*
X0074274Y0062852D02*
X0074274Y0061575D01*
X0074274Y0063108D02*
X0076319Y0064130D01*
X0076319Y0066046D02*
X0076319Y0068601D01*
X0076319Y0067323D02*
X0071719Y0067323D01*
X0072741Y0066046D01*
X0094266Y0084018D02*
X0094266Y0088618D01*
X0095800Y0086063D01*
X0097333Y0088618D01*
X0097333Y0084018D01*
X0099216Y0084018D02*
X0100750Y0088618D01*
X0102283Y0084018D01*
X0101900Y0085168D02*
X0099600Y0085168D01*
X0103716Y0084018D02*
X0106783Y0088618D01*
X0108472Y0088618D02*
X0111027Y0088618D01*
X0108472Y0088618D02*
X0108472Y0086574D01*
X0110005Y0086574D01*
X0110067Y0086572D01*
X0110128Y0086567D01*
X0110189Y0086557D01*
X0110250Y0086544D01*
X0110309Y0086528D01*
X0110367Y0086508D01*
X0110424Y0086484D01*
X0110480Y0086457D01*
X0110534Y0086427D01*
X0110586Y0086393D01*
X0110635Y0086357D01*
X0110683Y0086317D01*
X0110728Y0086275D01*
X0110770Y0086230D01*
X0110810Y0086182D01*
X0110846Y0086133D01*
X0110880Y0086081D01*
X0110910Y0086027D01*
X0110937Y0085971D01*
X0110961Y0085914D01*
X0110981Y0085856D01*
X0110997Y0085797D01*
X0111010Y0085736D01*
X0111020Y0085675D01*
X0111025Y0085614D01*
X0111027Y0085552D01*
X0111027Y0085040D01*
X0111025Y0084978D01*
X0111020Y0084917D01*
X0111010Y0084856D01*
X0110997Y0084795D01*
X0110981Y0084736D01*
X0110961Y0084678D01*
X0110937Y0084621D01*
X0110910Y0084565D01*
X0110880Y0084511D01*
X0110846Y0084459D01*
X0110810Y0084410D01*
X0110770Y0084362D01*
X0110728Y0084317D01*
X0110683Y0084275D01*
X0110635Y0084235D01*
X0110586Y0084199D01*
X0110534Y0084165D01*
X0110480Y0084135D01*
X0110424Y0084108D01*
X0110367Y0084084D01*
X0110309Y0084064D01*
X0110250Y0084048D01*
X0110189Y0084035D01*
X0110128Y0084025D01*
X0110067Y0084020D01*
X0110005Y0084018D01*
X0108472Y0084018D01*
X0106783Y0084018D02*
X0103716Y0088618D01*
X0115528Y0086318D02*
X0115526Y0086203D01*
X0115521Y0086089D01*
X0115512Y0085975D01*
X0115500Y0085861D01*
X0115485Y0085747D01*
X0115466Y0085634D01*
X0115443Y0085522D01*
X0115418Y0085410D01*
X0115388Y0085299D01*
X0115356Y0085189D01*
X0115320Y0085080D01*
X0115281Y0084972D01*
X0115239Y0084866D01*
X0115193Y0084761D01*
X0115145Y0084657D01*
X0115124Y0084602D01*
X0115100Y0084549D01*
X0115073Y0084497D01*
X0115042Y0084447D01*
X0115009Y0084399D01*
X0114972Y0084353D01*
X0114933Y0084309D01*
X0114891Y0084268D01*
X0114847Y0084230D01*
X0114800Y0084194D01*
X0114751Y0084162D01*
X0114700Y0084132D01*
X0114648Y0084106D01*
X0114594Y0084083D01*
X0114539Y0084063D01*
X0114482Y0084047D01*
X0114425Y0084034D01*
X0114367Y0084025D01*
X0114309Y0084020D01*
X0114250Y0084018D01*
X0114191Y0084020D01*
X0114133Y0084025D01*
X0114075Y0084034D01*
X0114018Y0084047D01*
X0113961Y0084063D01*
X0113906Y0084083D01*
X0113852Y0084106D01*
X0113800Y0084132D01*
X0113749Y0084162D01*
X0113700Y0084194D01*
X0113653Y0084230D01*
X0113609Y0084268D01*
X0113567Y0084309D01*
X0113528Y0084353D01*
X0113491Y0084399D01*
X0113458Y0084447D01*
X0113427Y0084497D01*
X0113400Y0084549D01*
X0113376Y0084602D01*
X0113355Y0084657D01*
X0113227Y0085040D02*
X0115272Y0087596D01*
X0115145Y0087980D02*
X0115124Y0088035D01*
X0115100Y0088088D01*
X0115073Y0088140D01*
X0115042Y0088190D01*
X0115009Y0088238D01*
X0114972Y0088284D01*
X0114933Y0088328D01*
X0114891Y0088369D01*
X0114847Y0088407D01*
X0114800Y0088443D01*
X0114751Y0088475D01*
X0114700Y0088505D01*
X0114648Y0088531D01*
X0114594Y0088554D01*
X0114539Y0088574D01*
X0114482Y0088590D01*
X0114425Y0088603D01*
X0114367Y0088612D01*
X0114309Y0088617D01*
X0114250Y0088619D01*
X0114191Y0088617D01*
X0114133Y0088612D01*
X0114075Y0088603D01*
X0114018Y0088590D01*
X0113961Y0088574D01*
X0113906Y0088554D01*
X0113852Y0088531D01*
X0113800Y0088505D01*
X0113749Y0088475D01*
X0113700Y0088443D01*
X0113653Y0088407D01*
X0113609Y0088369D01*
X0113567Y0088328D01*
X0113528Y0088284D01*
X0113491Y0088238D01*
X0113458Y0088190D01*
X0113427Y0088140D01*
X0113400Y0088088D01*
X0113376Y0088035D01*
X0113355Y0087980D01*
X0115145Y0087979D02*
X0115193Y0087875D01*
X0115239Y0087770D01*
X0115281Y0087664D01*
X0115320Y0087556D01*
X0115356Y0087447D01*
X0115388Y0087337D01*
X0115418Y0087226D01*
X0115443Y0087114D01*
X0115466Y0087002D01*
X0115485Y0086889D01*
X0115500Y0086775D01*
X0115512Y0086661D01*
X0115521Y0086547D01*
X0115526Y0086433D01*
X0115528Y0086318D01*
X0112972Y0086318D02*
X0112974Y0086433D01*
X0112979Y0086547D01*
X0112988Y0086661D01*
X0113000Y0086775D01*
X0113015Y0086889D01*
X0113034Y0087002D01*
X0113057Y0087114D01*
X0113082Y0087226D01*
X0113112Y0087337D01*
X0113144Y0087447D01*
X0113180Y0087556D01*
X0113219Y0087664D01*
X0113261Y0087770D01*
X0113307Y0087875D01*
X0113355Y0087979D01*
X0112972Y0086318D02*
X0112974Y0086203D01*
X0112979Y0086089D01*
X0112988Y0085975D01*
X0113000Y0085861D01*
X0113015Y0085747D01*
X0113034Y0085634D01*
X0113057Y0085522D01*
X0113082Y0085410D01*
X0113112Y0085299D01*
X0113144Y0085189D01*
X0113180Y0085080D01*
X0113219Y0084972D01*
X0113261Y0084866D01*
X0113307Y0084761D01*
X0113355Y0084657D01*
X0117472Y0084018D02*
X0118750Y0084018D01*
X0118820Y0084020D01*
X0118891Y0084026D01*
X0118960Y0084035D01*
X0119029Y0084049D01*
X0119098Y0084066D01*
X0119165Y0084087D01*
X0119231Y0084112D01*
X0119295Y0084140D01*
X0119358Y0084172D01*
X0119419Y0084207D01*
X0119478Y0084246D01*
X0119535Y0084287D01*
X0119589Y0084332D01*
X0119641Y0084380D01*
X0119690Y0084430D01*
X0119737Y0084484D01*
X0119780Y0084539D01*
X0119820Y0084597D01*
X0119857Y0084657D01*
X0119890Y0084719D01*
X0119920Y0084783D01*
X0119947Y0084848D01*
X0119970Y0084914D01*
X0119989Y0084982D01*
X0120004Y0085051D01*
X0120016Y0085120D01*
X0120024Y0085190D01*
X0120028Y0085261D01*
X0120028Y0085331D01*
X0120024Y0085402D01*
X0120016Y0085472D01*
X0120004Y0085541D01*
X0119989Y0085610D01*
X0119970Y0085678D01*
X0119947Y0085744D01*
X0119920Y0085809D01*
X0119890Y0085873D01*
X0119857Y0085935D01*
X0119820Y0085995D01*
X0119780Y0086053D01*
X0119737Y0086108D01*
X0119690Y0086162D01*
X0119641Y0086212D01*
X0119589Y0086260D01*
X0119535Y0086305D01*
X0119478Y0086346D01*
X0119419Y0086385D01*
X0119358Y0086420D01*
X0119295Y0086452D01*
X0119231Y0086480D01*
X0119165Y0086505D01*
X0119098Y0086526D01*
X0119029Y0086543D01*
X0118960Y0086557D01*
X0118891Y0086566D01*
X0118820Y0086572D01*
X0118750Y0086574D01*
X0119005Y0086574D02*
X0117983Y0086574D01*
X0119005Y0086574D02*
X0119068Y0086576D01*
X0119131Y0086582D01*
X0119193Y0086591D01*
X0119254Y0086605D01*
X0119315Y0086622D01*
X0119374Y0086643D01*
X0119432Y0086668D01*
X0119489Y0086696D01*
X0119543Y0086727D01*
X0119595Y0086762D01*
X0119646Y0086800D01*
X0119694Y0086841D01*
X0119739Y0086885D01*
X0119781Y0086931D01*
X0119821Y0086980D01*
X0119857Y0087031D01*
X0119890Y0087085D01*
X0119920Y0087140D01*
X0119946Y0087198D01*
X0119969Y0087256D01*
X0119988Y0087316D01*
X0120003Y0087377D01*
X0120015Y0087439D01*
X0120023Y0087502D01*
X0120027Y0087565D01*
X0120027Y0087627D01*
X0120023Y0087690D01*
X0120015Y0087753D01*
X0120003Y0087815D01*
X0119988Y0087876D01*
X0119969Y0087936D01*
X0119946Y0087994D01*
X0119920Y0088052D01*
X0119890Y0088107D01*
X0119857Y0088161D01*
X0119821Y0088212D01*
X0119781Y0088261D01*
X0119739Y0088307D01*
X0119694Y0088351D01*
X0119646Y0088392D01*
X0119595Y0088430D01*
X0119543Y0088465D01*
X0119489Y0088496D01*
X0119432Y0088524D01*
X0119374Y0088549D01*
X0119315Y0088570D01*
X0119254Y0088587D01*
X0119193Y0088601D01*
X0119131Y0088610D01*
X0119068Y0088616D01*
X0119005Y0088618D01*
X0117472Y0088618D01*
X0121972Y0088618D02*
X0121972Y0086574D01*
X0123505Y0086574D01*
X0123567Y0086572D01*
X0123628Y0086567D01*
X0123689Y0086557D01*
X0123750Y0086544D01*
X0123809Y0086528D01*
X0123867Y0086508D01*
X0123924Y0086484D01*
X0123980Y0086457D01*
X0124034Y0086427D01*
X0124086Y0086393D01*
X0124135Y0086357D01*
X0124183Y0086317D01*
X0124228Y0086275D01*
X0124270Y0086230D01*
X0124310Y0086182D01*
X0124346Y0086133D01*
X0124380Y0086081D01*
X0124410Y0086027D01*
X0124437Y0085971D01*
X0124461Y0085914D01*
X0124481Y0085856D01*
X0124497Y0085797D01*
X0124510Y0085736D01*
X0124520Y0085675D01*
X0124525Y0085614D01*
X0124527Y0085552D01*
X0124527Y0085040D01*
X0124525Y0084978D01*
X0124520Y0084917D01*
X0124510Y0084856D01*
X0124497Y0084795D01*
X0124481Y0084736D01*
X0124461Y0084678D01*
X0124437Y0084621D01*
X0124410Y0084565D01*
X0124380Y0084511D01*
X0124346Y0084459D01*
X0124310Y0084410D01*
X0124270Y0084362D01*
X0124228Y0084317D01*
X0124183Y0084275D01*
X0124135Y0084235D01*
X0124086Y0084199D01*
X0124034Y0084165D01*
X0123980Y0084135D01*
X0123924Y0084108D01*
X0123867Y0084084D01*
X0123809Y0084064D01*
X0123750Y0084048D01*
X0123689Y0084035D01*
X0123628Y0084025D01*
X0123567Y0084020D01*
X0123505Y0084018D01*
X0121972Y0084018D01*
X0124306Y0080175D02*
X0125328Y0080175D01*
X0124306Y0080175D02*
X0124244Y0080173D01*
X0124183Y0080168D01*
X0124122Y0080158D01*
X0124061Y0080145D01*
X0124002Y0080129D01*
X0123944Y0080109D01*
X0123887Y0080085D01*
X0123831Y0080058D01*
X0123777Y0080028D01*
X0123725Y0079994D01*
X0123676Y0079957D01*
X0123628Y0079918D01*
X0123583Y0079876D01*
X0123541Y0079831D01*
X0123501Y0079783D01*
X0123465Y0079734D01*
X0123431Y0079682D01*
X0123401Y0079628D01*
X0123374Y0079572D01*
X0123350Y0079515D01*
X0123330Y0079457D01*
X0123314Y0079398D01*
X0123301Y0079337D01*
X0123291Y0079276D01*
X0123286Y0079215D01*
X0123284Y0079153D01*
X0123284Y0076597D01*
X0123286Y0076535D01*
X0123291Y0076474D01*
X0123301Y0076413D01*
X0123314Y0076352D01*
X0123330Y0076293D01*
X0123350Y0076235D01*
X0123374Y0076178D01*
X0123401Y0076122D01*
X0123431Y0076068D01*
X0123465Y0076016D01*
X0123501Y0075967D01*
X0123541Y0075919D01*
X0123583Y0075874D01*
X0123628Y0075832D01*
X0123676Y0075792D01*
X0123725Y0075756D01*
X0123777Y0075722D01*
X0123831Y0075692D01*
X0123887Y0075665D01*
X0123944Y0075641D01*
X0124002Y0075621D01*
X0124061Y0075605D01*
X0124122Y0075592D01*
X0124183Y0075582D01*
X0124244Y0075577D01*
X0124306Y0075575D01*
X0125328Y0075575D01*
X0127047Y0075575D02*
X0128580Y0075575D01*
X0128642Y0075577D01*
X0128703Y0075582D01*
X0128764Y0075592D01*
X0128825Y0075605D01*
X0128884Y0075621D01*
X0128942Y0075641D01*
X0128999Y0075665D01*
X0129055Y0075692D01*
X0129109Y0075722D01*
X0129161Y0075756D01*
X0129210Y0075792D01*
X0129258Y0075832D01*
X0129303Y0075874D01*
X0129345Y0075919D01*
X0129385Y0075967D01*
X0129421Y0076016D01*
X0129455Y0076068D01*
X0129485Y0076122D01*
X0129512Y0076178D01*
X0129536Y0076235D01*
X0129556Y0076293D01*
X0129572Y0076352D01*
X0129585Y0076413D01*
X0129595Y0076474D01*
X0129600Y0076535D01*
X0129602Y0076597D01*
X0129603Y0076597D02*
X0129603Y0077108D01*
X0129602Y0077108D02*
X0129600Y0077170D01*
X0129595Y0077231D01*
X0129585Y0077292D01*
X0129572Y0077353D01*
X0129556Y0077412D01*
X0129536Y0077470D01*
X0129512Y0077527D01*
X0129485Y0077583D01*
X0129455Y0077637D01*
X0129421Y0077689D01*
X0129385Y0077738D01*
X0129345Y0077786D01*
X0129303Y0077831D01*
X0129258Y0077873D01*
X0129210Y0077913D01*
X0129161Y0077949D01*
X0129109Y0077983D01*
X0129055Y0078013D01*
X0128999Y0078040D01*
X0128942Y0078064D01*
X0128884Y0078084D01*
X0128825Y0078100D01*
X0128764Y0078113D01*
X0128703Y0078123D01*
X0128642Y0078128D01*
X0128580Y0078130D01*
X0128580Y0078131D02*
X0127047Y0078131D01*
X0127047Y0080175D01*
X0129603Y0080175D01*
X0124527Y0088618D02*
X0121972Y0088618D01*
X0180171Y0078904D02*
X0180171Y0076348D01*
X0180173Y0076286D01*
X0180178Y0076225D01*
X0180188Y0076164D01*
X0180201Y0076103D01*
X0180217Y0076044D01*
X0180237Y0075986D01*
X0180261Y0075929D01*
X0180288Y0075873D01*
X0180318Y0075819D01*
X0180352Y0075767D01*
X0180388Y0075718D01*
X0180428Y0075670D01*
X0180470Y0075625D01*
X0180515Y0075583D01*
X0180563Y0075543D01*
X0180612Y0075507D01*
X0180664Y0075473D01*
X0180718Y0075443D01*
X0180774Y0075416D01*
X0180831Y0075392D01*
X0180889Y0075372D01*
X0180948Y0075356D01*
X0181009Y0075343D01*
X0181070Y0075333D01*
X0181131Y0075328D01*
X0181193Y0075326D01*
X0182215Y0075326D01*
X0183934Y0076604D02*
X0183934Y0077881D01*
X0185467Y0077881D01*
X0183934Y0077881D02*
X0183936Y0077970D01*
X0183942Y0078059D01*
X0183951Y0078148D01*
X0183965Y0078236D01*
X0183982Y0078323D01*
X0184004Y0078410D01*
X0184029Y0078496D01*
X0184057Y0078580D01*
X0184090Y0078663D01*
X0184126Y0078745D01*
X0184165Y0078825D01*
X0184208Y0078903D01*
X0184254Y0078979D01*
X0184304Y0079053D01*
X0184356Y0079125D01*
X0184412Y0079195D01*
X0184471Y0079262D01*
X0184533Y0079326D01*
X0184597Y0079388D01*
X0184664Y0079447D01*
X0184734Y0079503D01*
X0184806Y0079555D01*
X0184880Y0079605D01*
X0184956Y0079651D01*
X0185034Y0079694D01*
X0185114Y0079733D01*
X0185196Y0079769D01*
X0185279Y0079802D01*
X0185363Y0079830D01*
X0185449Y0079855D01*
X0185536Y0079877D01*
X0185623Y0079894D01*
X0185711Y0079908D01*
X0185800Y0079917D01*
X0185889Y0079923D01*
X0185978Y0079925D01*
X0182215Y0079926D02*
X0181193Y0079926D01*
X0181131Y0079924D01*
X0181070Y0079919D01*
X0181009Y0079909D01*
X0180948Y0079896D01*
X0180889Y0079880D01*
X0180831Y0079860D01*
X0180774Y0079836D01*
X0180718Y0079809D01*
X0180664Y0079779D01*
X0180612Y0079745D01*
X0180563Y0079708D01*
X0180515Y0079669D01*
X0180470Y0079627D01*
X0180428Y0079582D01*
X0180388Y0079534D01*
X0180352Y0079485D01*
X0180318Y0079433D01*
X0180288Y0079379D01*
X0180261Y0079323D01*
X0180237Y0079266D01*
X0180217Y0079208D01*
X0180201Y0079149D01*
X0180188Y0079088D01*
X0180178Y0079027D01*
X0180173Y0078966D01*
X0180171Y0078904D01*
X0183934Y0076604D02*
X0183936Y0076534D01*
X0183942Y0076463D01*
X0183951Y0076394D01*
X0183965Y0076325D01*
X0183982Y0076256D01*
X0184003Y0076189D01*
X0184028Y0076123D01*
X0184056Y0076059D01*
X0184088Y0075996D01*
X0184123Y0075935D01*
X0184162Y0075876D01*
X0184203Y0075819D01*
X0184248Y0075765D01*
X0184296Y0075713D01*
X0184346Y0075664D01*
X0184400Y0075617D01*
X0184455Y0075574D01*
X0184513Y0075534D01*
X0184573Y0075497D01*
X0184635Y0075464D01*
X0184699Y0075434D01*
X0184764Y0075407D01*
X0184830Y0075384D01*
X0184898Y0075365D01*
X0184967Y0075350D01*
X0185036Y0075338D01*
X0185106Y0075330D01*
X0185177Y0075326D01*
X0185247Y0075326D01*
X0185318Y0075330D01*
X0185388Y0075338D01*
X0185457Y0075350D01*
X0185526Y0075365D01*
X0185594Y0075384D01*
X0185660Y0075407D01*
X0185725Y0075434D01*
X0185789Y0075464D01*
X0185851Y0075497D01*
X0185911Y0075534D01*
X0185969Y0075574D01*
X0186024Y0075617D01*
X0186078Y0075664D01*
X0186128Y0075713D01*
X0186176Y0075765D01*
X0186221Y0075819D01*
X0186262Y0075876D01*
X0186301Y0075935D01*
X0186336Y0075996D01*
X0186368Y0076059D01*
X0186396Y0076123D01*
X0186421Y0076189D01*
X0186442Y0076256D01*
X0186459Y0076325D01*
X0186473Y0076394D01*
X0186482Y0076463D01*
X0186488Y0076534D01*
X0186490Y0076604D01*
X0186489Y0076604D02*
X0186489Y0076859D01*
X0186487Y0076921D01*
X0186482Y0076982D01*
X0186472Y0077043D01*
X0186459Y0077104D01*
X0186443Y0077163D01*
X0186423Y0077221D01*
X0186399Y0077278D01*
X0186372Y0077334D01*
X0186342Y0077388D01*
X0186308Y0077440D01*
X0186272Y0077489D01*
X0186232Y0077537D01*
X0186190Y0077582D01*
X0186145Y0077624D01*
X0186097Y0077664D01*
X0186048Y0077700D01*
X0185996Y0077734D01*
X0185942Y0077764D01*
X0185886Y0077791D01*
X0185829Y0077815D01*
X0185771Y0077835D01*
X0185712Y0077851D01*
X0185651Y0077864D01*
X0185590Y0077874D01*
X0185529Y0077879D01*
X0185467Y0077881D01*
D15*
X0103885Y0049459D03*
D16*
X0133715Y0050966D02*
X0133715Y0056871D01*
X0133717Y0056995D01*
X0133723Y0057118D01*
X0133732Y0057242D01*
X0133746Y0057364D01*
X0133763Y0057487D01*
X0133785Y0057609D01*
X0133810Y0057730D01*
X0133839Y0057850D01*
X0133871Y0057969D01*
X0133908Y0058088D01*
X0133948Y0058205D01*
X0133991Y0058320D01*
X0134039Y0058435D01*
X0134090Y0058547D01*
X0134144Y0058658D01*
X0134202Y0058768D01*
X0134263Y0058875D01*
X0134328Y0058981D01*
X0134396Y0059084D01*
X0134467Y0059185D01*
X0134541Y0059284D01*
X0134618Y0059381D01*
X0134699Y0059475D01*
X0134782Y0059566D01*
X0134868Y0059655D01*
X0134957Y0059741D01*
X0135048Y0059824D01*
X0135142Y0059905D01*
X0135239Y0059982D01*
X0135338Y0060056D01*
X0135439Y0060127D01*
X0135542Y0060195D01*
X0135648Y0060260D01*
X0135755Y0060321D01*
X0135865Y0060379D01*
X0135976Y0060433D01*
X0136088Y0060484D01*
X0136203Y0060532D01*
X0136318Y0060575D01*
X0136435Y0060615D01*
X0136554Y0060652D01*
X0136673Y0060684D01*
X0136793Y0060713D01*
X0136914Y0060738D01*
X0137036Y0060760D01*
X0137159Y0060777D01*
X0137281Y0060791D01*
X0137405Y0060800D01*
X0137528Y0060806D01*
X0137652Y0060808D01*
X0178991Y0060808D01*
X0179115Y0060806D01*
X0179238Y0060800D01*
X0179362Y0060791D01*
X0179484Y0060777D01*
X0179607Y0060760D01*
X0179729Y0060738D01*
X0179850Y0060713D01*
X0179970Y0060684D01*
X0180089Y0060652D01*
X0180208Y0060615D01*
X0180325Y0060575D01*
X0180440Y0060532D01*
X0180555Y0060484D01*
X0180667Y0060433D01*
X0180778Y0060379D01*
X0180888Y0060321D01*
X0180995Y0060260D01*
X0181101Y0060195D01*
X0181204Y0060127D01*
X0181305Y0060056D01*
X0181404Y0059982D01*
X0181501Y0059905D01*
X0181595Y0059824D01*
X0181686Y0059741D01*
X0181775Y0059655D01*
X0181861Y0059566D01*
X0181944Y0059475D01*
X0182025Y0059381D01*
X0182102Y0059284D01*
X0182176Y0059185D01*
X0182247Y0059084D01*
X0182315Y0058981D01*
X0182380Y0058875D01*
X0182441Y0058768D01*
X0182499Y0058658D01*
X0182553Y0058547D01*
X0182604Y0058435D01*
X0182652Y0058320D01*
X0182695Y0058205D01*
X0182735Y0058088D01*
X0182772Y0057969D01*
X0182804Y0057850D01*
X0182833Y0057730D01*
X0182858Y0057609D01*
X0182880Y0057487D01*
X0182897Y0057364D01*
X0182911Y0057242D01*
X0182920Y0057118D01*
X0182926Y0056995D01*
X0182928Y0056871D01*
X0182928Y0050966D01*
X0182928Y0021438D02*
X0182928Y0015533D01*
X0182926Y0015409D01*
X0182920Y0015286D01*
X0182911Y0015162D01*
X0182897Y0015040D01*
X0182880Y0014917D01*
X0182858Y0014795D01*
X0182833Y0014674D01*
X0182804Y0014554D01*
X0182772Y0014435D01*
X0182735Y0014316D01*
X0182695Y0014199D01*
X0182652Y0014084D01*
X0182604Y0013969D01*
X0182553Y0013857D01*
X0182499Y0013746D01*
X0182441Y0013636D01*
X0182380Y0013529D01*
X0182315Y0013423D01*
X0182247Y0013320D01*
X0182176Y0013219D01*
X0182102Y0013120D01*
X0182025Y0013023D01*
X0181944Y0012929D01*
X0181861Y0012838D01*
X0181775Y0012749D01*
X0181686Y0012663D01*
X0181595Y0012580D01*
X0181501Y0012499D01*
X0181404Y0012422D01*
X0181305Y0012348D01*
X0181204Y0012277D01*
X0181101Y0012209D01*
X0180995Y0012144D01*
X0180888Y0012083D01*
X0180778Y0012025D01*
X0180667Y0011971D01*
X0180555Y0011920D01*
X0180440Y0011872D01*
X0180325Y0011829D01*
X0180208Y0011789D01*
X0180089Y0011752D01*
X0179970Y0011720D01*
X0179850Y0011691D01*
X0179729Y0011666D01*
X0179607Y0011644D01*
X0179484Y0011627D01*
X0179362Y0011613D01*
X0179238Y0011604D01*
X0179115Y0011598D01*
X0178991Y0011596D01*
X0137652Y0011596D01*
X0137528Y0011598D01*
X0137405Y0011604D01*
X0137281Y0011613D01*
X0137159Y0011627D01*
X0137036Y0011644D01*
X0136914Y0011666D01*
X0136793Y0011691D01*
X0136673Y0011720D01*
X0136554Y0011752D01*
X0136435Y0011789D01*
X0136318Y0011829D01*
X0136203Y0011872D01*
X0136088Y0011920D01*
X0135976Y0011971D01*
X0135865Y0012025D01*
X0135755Y0012083D01*
X0135648Y0012144D01*
X0135542Y0012209D01*
X0135439Y0012277D01*
X0135338Y0012348D01*
X0135239Y0012422D01*
X0135142Y0012499D01*
X0135048Y0012580D01*
X0134957Y0012663D01*
X0134868Y0012749D01*
X0134782Y0012838D01*
X0134699Y0012929D01*
X0134618Y0013023D01*
X0134541Y0013120D01*
X0134467Y0013219D01*
X0134396Y0013320D01*
X0134328Y0013423D01*
X0134263Y0013529D01*
X0134202Y0013636D01*
X0134144Y0013746D01*
X0134090Y0013857D01*
X0134039Y0013969D01*
X0133991Y0014084D01*
X0133948Y0014199D01*
X0133908Y0014316D01*
X0133871Y0014435D01*
X0133839Y0014554D01*
X0133810Y0014674D01*
X0133785Y0014795D01*
X0133763Y0014917D01*
X0133746Y0015040D01*
X0133732Y0015162D01*
X0133723Y0015286D01*
X0133717Y0015409D01*
X0133715Y0015533D01*
X0133715Y0021438D01*
D17*
X0081168Y0030362D02*
X0077168Y0034362D01*
X0159668Y0075862D02*
X0163668Y0079862D01*
M02*
