%
M48
M72
T01C0.01969
T02C0.03150
T03C0.03200
%
T01
X32415Y27976
X32415Y32976
X47415Y32976
X47415Y27976
X99915Y65476
X104915Y65476
X104915Y70476
X99915Y70476
X99915Y75476
X104915Y75476
X104915Y80476
X99915Y80476
X85892Y78370
X201915Y37976
X201915Y32976
X211915Y32976
X211915Y37976
T02
X57668Y13862
X217668Y13862
X217668Y83862
X57668Y83862
T03
X85668Y50862
X75668Y40862
X85668Y30862
X153168Y74362
X143168Y84362
X163168Y84362
M30
