G75*
%MOIN*%
%OFA0B0*%
%FSLAX25Y25*%
%IPPOS*%
%LPD*%
%AMOC8*
5,1,8,0,0,1.08239X$1,22.5*
%
%ADD10R,0.05500X0.21900*%
%ADD11R,0.05131X0.04737*%
%ADD12R,0.05100X0.16800*%
%ADD13R,0.04737X0.05131*%
%ADD14R,0.09383X0.07178*%
%ADD15R,0.16548X0.28359*%
%ADD16R,0.07100X0.02900*%
%ADD17C,0.06000*%
%ADD18C,0.05950*%
%ADD19C,0.04369*%
D10*
X0040533Y0029972D03*
X0040533Y0069172D03*
D11*
X0079019Y0067221D03*
X0079019Y0060528D03*
X0123394Y0070431D03*
X0130087Y0070431D03*
X0078690Y0084999D03*
X0071997Y0084999D03*
X0192146Y0077477D03*
X0198838Y0077477D03*
D12*
X0206972Y0063576D03*
X0206972Y0038976D03*
D13*
X0162031Y0066219D03*
X0155338Y0066219D03*
X0122127Y0061643D03*
X0122127Y0054950D03*
D14*
X0103885Y0054016D03*
X0103885Y0037402D03*
D15*
X0138637Y0036202D03*
X0178007Y0036202D03*
D16*
X0112904Y0063607D03*
X0112904Y0068607D03*
X0112904Y0073607D03*
X0112904Y0078607D03*
X0092004Y0078607D03*
X0092004Y0073607D03*
X0092004Y0068607D03*
X0092004Y0063607D03*
D17*
X0085668Y0053462D02*
X0085668Y0048262D01*
X0075668Y0043462D02*
X0075668Y0038262D01*
X0085668Y0033462D02*
X0085668Y0028262D01*
X0150568Y0074362D02*
X0155768Y0074362D01*
X0160568Y0084362D02*
X0165768Y0084362D01*
X0145768Y0084362D02*
X0140568Y0084362D01*
D18*
X0057668Y0013862D03*
X0217668Y0013862D03*
X0217668Y0083862D03*
X0057668Y0083862D03*
D19*
X0085892Y0078370D03*
X0099915Y0080476D03*
X0104915Y0080476D03*
X0104915Y0075476D03*
X0099915Y0075476D03*
X0099915Y0070476D03*
X0104915Y0070476D03*
X0104915Y0065476D03*
X0099915Y0065476D03*
X0047415Y0032976D03*
X0047415Y0027976D03*
X0032415Y0027976D03*
X0032415Y0032976D03*
X0201915Y0032976D03*
X0201915Y0037976D03*
X0211915Y0037976D03*
X0211915Y0032976D03*
M02*
