G75*
%MOIN*%
%OFA0B0*%
%FSLAX25Y25*%
%IPPOS*%
%LPD*%
%AMOC8*
5,1,8,0,0,1.08239X$1,22.5*
%
%ADD10C,0.00700*%
%ADD11C,0.00600*%
%ADD12C,0.00400*%
D10*
X0016924Y0011212D02*
X0019724Y0011212D01*
X0016924Y0015412D01*
X0019724Y0015412D01*
X0022318Y0014712D02*
X0025818Y0014712D01*
X0028338Y0015412D02*
X0031138Y0013312D01*
X0029913Y0014187D02*
X0028338Y0011212D01*
X0025818Y0011212D02*
X0025818Y0017512D01*
X0022318Y0017512D02*
X0022318Y0011212D01*
X0031138Y0011212D02*
X0031138Y0017512D01*
X0034010Y0017512D02*
X0037510Y0017512D01*
X0037510Y0014712D01*
X0035410Y0014712D01*
X0035337Y0014710D01*
X0035264Y0014704D01*
X0035191Y0014695D01*
X0035119Y0014681D01*
X0035048Y0014664D01*
X0034977Y0014643D01*
X0034908Y0014619D01*
X0034841Y0014591D01*
X0034774Y0014559D01*
X0034710Y0014524D01*
X0034648Y0014486D01*
X0034587Y0014445D01*
X0034529Y0014400D01*
X0034473Y0014352D01*
X0034420Y0014302D01*
X0034370Y0014249D01*
X0034322Y0014193D01*
X0034277Y0014135D01*
X0034236Y0014074D01*
X0034198Y0014012D01*
X0034163Y0013948D01*
X0034131Y0013881D01*
X0034103Y0013814D01*
X0034079Y0013745D01*
X0034058Y0013674D01*
X0034041Y0013603D01*
X0034027Y0013531D01*
X0034018Y0013458D01*
X0034012Y0013385D01*
X0034010Y0013312D01*
X0034010Y0012612D01*
X0034012Y0012539D01*
X0034018Y0012466D01*
X0034027Y0012393D01*
X0034041Y0012321D01*
X0034058Y0012250D01*
X0034079Y0012179D01*
X0034103Y0012110D01*
X0034131Y0012043D01*
X0034163Y0011976D01*
X0034198Y0011912D01*
X0034236Y0011850D01*
X0034277Y0011789D01*
X0034322Y0011731D01*
X0034370Y0011675D01*
X0034420Y0011622D01*
X0034473Y0011572D01*
X0034529Y0011524D01*
X0034587Y0011479D01*
X0034648Y0011438D01*
X0034710Y0011400D01*
X0034774Y0011365D01*
X0034841Y0011333D01*
X0034908Y0011305D01*
X0034977Y0011281D01*
X0035048Y0011260D01*
X0035119Y0011243D01*
X0035191Y0011229D01*
X0035264Y0011220D01*
X0035337Y0011214D01*
X0035410Y0011212D01*
X0037510Y0011212D01*
X0040164Y0011212D02*
X0043664Y0011212D01*
X0040689Y0014712D01*
X0041739Y0017511D02*
X0041827Y0017509D01*
X0041914Y0017503D01*
X0042001Y0017494D01*
X0042088Y0017481D01*
X0042174Y0017464D01*
X0042259Y0017443D01*
X0042344Y0017419D01*
X0042427Y0017390D01*
X0042509Y0017359D01*
X0042589Y0017324D01*
X0042668Y0017285D01*
X0042745Y0017243D01*
X0042820Y0017198D01*
X0042893Y0017149D01*
X0042964Y0017098D01*
X0043033Y0017043D01*
X0043099Y0016986D01*
X0043163Y0016925D01*
X0043224Y0016862D01*
X0043282Y0016797D01*
X0043337Y0016729D01*
X0043389Y0016658D01*
X0043438Y0016585D01*
X0043484Y0016511D01*
X0043527Y0016434D01*
X0043566Y0016356D01*
X0043602Y0016276D01*
X0043635Y0016194D01*
X0043664Y0016111D01*
X0040689Y0014712D02*
X0040632Y0014769D01*
X0040578Y0014828D01*
X0040527Y0014890D01*
X0040478Y0014955D01*
X0040433Y0015022D01*
X0040391Y0015090D01*
X0040352Y0015161D01*
X0040317Y0015234D01*
X0040285Y0015308D01*
X0040257Y0015383D01*
X0040233Y0015460D01*
X0040212Y0015538D01*
X0040195Y0015617D01*
X0040181Y0015696D01*
X0040172Y0015776D01*
X0040166Y0015856D01*
X0040164Y0015937D01*
X0040166Y0016014D01*
X0040172Y0016091D01*
X0040181Y0016168D01*
X0040194Y0016244D01*
X0040211Y0016320D01*
X0040232Y0016394D01*
X0040256Y0016468D01*
X0040284Y0016540D01*
X0040315Y0016610D01*
X0040350Y0016679D01*
X0040388Y0016747D01*
X0040429Y0016812D01*
X0040474Y0016875D01*
X0040522Y0016936D01*
X0040572Y0016995D01*
X0040625Y0017051D01*
X0040681Y0017104D01*
X0040740Y0017154D01*
X0040801Y0017202D01*
X0040864Y0017247D01*
X0040929Y0017288D01*
X0040997Y0017326D01*
X0041066Y0017361D01*
X0041136Y0017392D01*
X0041208Y0017420D01*
X0041282Y0017444D01*
X0041356Y0017465D01*
X0041432Y0017482D01*
X0041508Y0017495D01*
X0041585Y0017504D01*
X0041662Y0017510D01*
X0041739Y0017512D01*
X0048068Y0017512D02*
X0048068Y0011212D01*
X0049818Y0011212D02*
X0046318Y0011212D01*
X0049818Y0016112D02*
X0048068Y0017512D01*
X0119095Y0022965D02*
X0119095Y0028215D01*
X0120845Y0028215D01*
X0120908Y0028213D01*
X0120972Y0028207D01*
X0121034Y0028198D01*
X0121096Y0028184D01*
X0121157Y0028167D01*
X0121217Y0028147D01*
X0121276Y0028122D01*
X0121333Y0028095D01*
X0121388Y0028064D01*
X0121441Y0028029D01*
X0121493Y0027992D01*
X0121541Y0027951D01*
X0121587Y0027907D01*
X0121631Y0027861D01*
X0121672Y0027813D01*
X0121709Y0027761D01*
X0121744Y0027708D01*
X0121775Y0027653D01*
X0121802Y0027596D01*
X0121827Y0027537D01*
X0121847Y0027477D01*
X0121864Y0027416D01*
X0121878Y0027354D01*
X0121887Y0027292D01*
X0121893Y0027228D01*
X0121895Y0027165D01*
X0121895Y0025065D01*
X0121893Y0025002D01*
X0121887Y0024938D01*
X0121878Y0024876D01*
X0121864Y0024814D01*
X0121847Y0024753D01*
X0121827Y0024693D01*
X0121802Y0024634D01*
X0121775Y0024577D01*
X0121744Y0024522D01*
X0121709Y0024469D01*
X0121672Y0024417D01*
X0121631Y0024369D01*
X0121587Y0024323D01*
X0121541Y0024279D01*
X0121493Y0024238D01*
X0121441Y0024201D01*
X0121388Y0024166D01*
X0121333Y0024135D01*
X0121276Y0024108D01*
X0121217Y0024083D01*
X0121157Y0024063D01*
X0121096Y0024046D01*
X0121034Y0024032D01*
X0120972Y0024023D01*
X0120908Y0024017D01*
X0120845Y0024015D01*
X0119095Y0024015D01*
X0119095Y0022965D02*
X0119097Y0022902D01*
X0119103Y0022838D01*
X0119112Y0022776D01*
X0119126Y0022714D01*
X0119143Y0022653D01*
X0119163Y0022593D01*
X0119188Y0022534D01*
X0119215Y0022477D01*
X0119246Y0022422D01*
X0119281Y0022369D01*
X0119318Y0022317D01*
X0119359Y0022269D01*
X0119403Y0022223D01*
X0119449Y0022179D01*
X0119497Y0022138D01*
X0119549Y0022101D01*
X0119602Y0022066D01*
X0119657Y0022035D01*
X0119714Y0022008D01*
X0119773Y0021983D01*
X0119833Y0021963D01*
X0119894Y0021946D01*
X0119956Y0021932D01*
X0120018Y0021923D01*
X0120082Y0021917D01*
X0120145Y0021915D01*
X0121545Y0021915D01*
X0125929Y0024015D02*
X0125929Y0028215D01*
X0123829Y0028215D01*
X0123829Y0027515D01*
X0128704Y0026815D02*
X0128704Y0025415D01*
X0128706Y0025342D01*
X0128712Y0025269D01*
X0128721Y0025196D01*
X0128735Y0025124D01*
X0128752Y0025053D01*
X0128773Y0024982D01*
X0128797Y0024913D01*
X0128825Y0024846D01*
X0128857Y0024779D01*
X0128892Y0024715D01*
X0128930Y0024653D01*
X0128971Y0024592D01*
X0129016Y0024534D01*
X0129064Y0024478D01*
X0129114Y0024425D01*
X0129167Y0024375D01*
X0129223Y0024327D01*
X0129281Y0024282D01*
X0129342Y0024241D01*
X0129404Y0024203D01*
X0129468Y0024168D01*
X0129535Y0024136D01*
X0129602Y0024108D01*
X0129671Y0024084D01*
X0129742Y0024063D01*
X0129813Y0024046D01*
X0129885Y0024032D01*
X0129958Y0024023D01*
X0130031Y0024017D01*
X0130104Y0024015D01*
X0130177Y0024017D01*
X0130250Y0024023D01*
X0130323Y0024032D01*
X0130395Y0024046D01*
X0130466Y0024063D01*
X0130537Y0024084D01*
X0130606Y0024108D01*
X0130673Y0024136D01*
X0130740Y0024168D01*
X0130804Y0024203D01*
X0130866Y0024241D01*
X0130927Y0024282D01*
X0130985Y0024327D01*
X0131041Y0024375D01*
X0131094Y0024425D01*
X0131144Y0024478D01*
X0131192Y0024534D01*
X0131237Y0024592D01*
X0131278Y0024653D01*
X0131316Y0024715D01*
X0131351Y0024779D01*
X0131383Y0024846D01*
X0131411Y0024913D01*
X0131435Y0024982D01*
X0131456Y0025053D01*
X0131473Y0025124D01*
X0131487Y0025196D01*
X0131496Y0025269D01*
X0131502Y0025342D01*
X0131504Y0025415D01*
X0131504Y0026815D01*
X0131502Y0026888D01*
X0131496Y0026961D01*
X0131487Y0027034D01*
X0131473Y0027106D01*
X0131456Y0027177D01*
X0131435Y0027248D01*
X0131411Y0027317D01*
X0131383Y0027384D01*
X0131351Y0027451D01*
X0131316Y0027515D01*
X0131278Y0027577D01*
X0131237Y0027638D01*
X0131192Y0027696D01*
X0131144Y0027752D01*
X0131094Y0027805D01*
X0131041Y0027855D01*
X0130985Y0027903D01*
X0130927Y0027948D01*
X0130866Y0027989D01*
X0130804Y0028027D01*
X0130740Y0028062D01*
X0130673Y0028094D01*
X0130606Y0028122D01*
X0130537Y0028146D01*
X0130466Y0028167D01*
X0130395Y0028184D01*
X0130323Y0028198D01*
X0130250Y0028207D01*
X0130177Y0028213D01*
X0130104Y0028215D01*
X0130031Y0028213D01*
X0129958Y0028207D01*
X0129885Y0028198D01*
X0129813Y0028184D01*
X0129742Y0028167D01*
X0129671Y0028146D01*
X0129602Y0028122D01*
X0129535Y0028094D01*
X0129468Y0028062D01*
X0129404Y0028027D01*
X0129342Y0027989D01*
X0129281Y0027948D01*
X0129223Y0027903D01*
X0129167Y0027855D01*
X0129114Y0027805D01*
X0129064Y0027752D01*
X0129016Y0027696D01*
X0128971Y0027638D01*
X0128930Y0027577D01*
X0128892Y0027515D01*
X0128857Y0027451D01*
X0128825Y0027384D01*
X0128797Y0027317D01*
X0128773Y0027248D01*
X0128752Y0027177D01*
X0128735Y0027106D01*
X0128721Y0027034D01*
X0128712Y0026961D01*
X0128706Y0026888D01*
X0128704Y0026815D01*
X0133827Y0024365D02*
X0133827Y0024015D01*
X0134177Y0024015D01*
X0134177Y0024365D01*
X0133827Y0024365D01*
X0138032Y0024015D02*
X0138032Y0028215D01*
X0135932Y0028215D01*
X0135932Y0027515D01*
X0140807Y0026815D02*
X0140807Y0025415D01*
X0140809Y0025342D01*
X0140815Y0025269D01*
X0140824Y0025196D01*
X0140838Y0025124D01*
X0140855Y0025053D01*
X0140876Y0024982D01*
X0140900Y0024913D01*
X0140928Y0024846D01*
X0140960Y0024779D01*
X0140995Y0024715D01*
X0141033Y0024653D01*
X0141074Y0024592D01*
X0141119Y0024534D01*
X0141167Y0024478D01*
X0141217Y0024425D01*
X0141270Y0024375D01*
X0141326Y0024327D01*
X0141384Y0024282D01*
X0141445Y0024241D01*
X0141507Y0024203D01*
X0141571Y0024168D01*
X0141638Y0024136D01*
X0141705Y0024108D01*
X0141774Y0024084D01*
X0141845Y0024063D01*
X0141916Y0024046D01*
X0141988Y0024032D01*
X0142061Y0024023D01*
X0142134Y0024017D01*
X0142207Y0024015D01*
X0142280Y0024017D01*
X0142353Y0024023D01*
X0142426Y0024032D01*
X0142498Y0024046D01*
X0142569Y0024063D01*
X0142640Y0024084D01*
X0142709Y0024108D01*
X0142776Y0024136D01*
X0142843Y0024168D01*
X0142907Y0024203D01*
X0142969Y0024241D01*
X0143030Y0024282D01*
X0143088Y0024327D01*
X0143144Y0024375D01*
X0143197Y0024425D01*
X0143247Y0024478D01*
X0143295Y0024534D01*
X0143340Y0024592D01*
X0143381Y0024653D01*
X0143419Y0024715D01*
X0143454Y0024779D01*
X0143486Y0024846D01*
X0143514Y0024913D01*
X0143538Y0024982D01*
X0143559Y0025053D01*
X0143576Y0025124D01*
X0143590Y0025196D01*
X0143599Y0025269D01*
X0143605Y0025342D01*
X0143607Y0025415D01*
X0143607Y0026815D01*
X0143605Y0026888D01*
X0143599Y0026961D01*
X0143590Y0027034D01*
X0143576Y0027106D01*
X0143559Y0027177D01*
X0143538Y0027248D01*
X0143514Y0027317D01*
X0143486Y0027384D01*
X0143454Y0027451D01*
X0143419Y0027515D01*
X0143381Y0027577D01*
X0143340Y0027638D01*
X0143295Y0027696D01*
X0143247Y0027752D01*
X0143197Y0027805D01*
X0143144Y0027855D01*
X0143088Y0027903D01*
X0143030Y0027948D01*
X0142969Y0027989D01*
X0142907Y0028027D01*
X0142843Y0028062D01*
X0142776Y0028094D01*
X0142709Y0028122D01*
X0142640Y0028146D01*
X0142569Y0028167D01*
X0142498Y0028184D01*
X0142426Y0028198D01*
X0142353Y0028207D01*
X0142280Y0028213D01*
X0142207Y0028215D01*
X0142134Y0028213D01*
X0142061Y0028207D01*
X0141988Y0028198D01*
X0141916Y0028184D01*
X0141845Y0028167D01*
X0141774Y0028146D01*
X0141705Y0028122D01*
X0141638Y0028094D01*
X0141571Y0028062D01*
X0141507Y0028027D01*
X0141445Y0027989D01*
X0141384Y0027948D01*
X0141326Y0027903D01*
X0141270Y0027855D01*
X0141217Y0027805D01*
X0141167Y0027752D01*
X0141119Y0027696D01*
X0141074Y0027638D01*
X0141033Y0027577D01*
X0140995Y0027515D01*
X0140960Y0027451D01*
X0140928Y0027384D01*
X0140900Y0027317D01*
X0140876Y0027248D01*
X0140855Y0027177D01*
X0140838Y0027106D01*
X0140824Y0027034D01*
X0140815Y0026961D01*
X0140809Y0026888D01*
X0140807Y0026815D01*
X0145926Y0028215D02*
X0148026Y0028215D01*
X0150002Y0028215D02*
X0150002Y0024015D01*
X0152705Y0024015D02*
X0152705Y0027165D01*
X0152707Y0027228D01*
X0152713Y0027292D01*
X0152722Y0027354D01*
X0152736Y0027416D01*
X0152753Y0027477D01*
X0152773Y0027537D01*
X0152798Y0027596D01*
X0152825Y0027653D01*
X0152856Y0027708D01*
X0152891Y0027761D01*
X0152928Y0027813D01*
X0152969Y0027861D01*
X0153013Y0027907D01*
X0153059Y0027951D01*
X0153107Y0027992D01*
X0153159Y0028029D01*
X0153212Y0028064D01*
X0153267Y0028095D01*
X0153324Y0028122D01*
X0153383Y0028147D01*
X0153443Y0028167D01*
X0153504Y0028184D01*
X0153566Y0028198D01*
X0153628Y0028207D01*
X0153692Y0028213D01*
X0153755Y0028215D01*
X0155505Y0028215D01*
X0155505Y0024015D01*
X0158244Y0025415D02*
X0158244Y0026815D01*
X0158246Y0026888D01*
X0158252Y0026961D01*
X0158261Y0027034D01*
X0158275Y0027106D01*
X0158292Y0027177D01*
X0158313Y0027248D01*
X0158337Y0027317D01*
X0158365Y0027384D01*
X0158397Y0027451D01*
X0158432Y0027515D01*
X0158470Y0027577D01*
X0158511Y0027638D01*
X0158556Y0027696D01*
X0158604Y0027752D01*
X0158654Y0027805D01*
X0158707Y0027855D01*
X0158763Y0027903D01*
X0158821Y0027948D01*
X0158882Y0027989D01*
X0158944Y0028027D01*
X0159008Y0028062D01*
X0159075Y0028094D01*
X0159142Y0028122D01*
X0159211Y0028146D01*
X0159282Y0028167D01*
X0159353Y0028184D01*
X0159425Y0028198D01*
X0159498Y0028207D01*
X0159571Y0028213D01*
X0159644Y0028215D01*
X0159717Y0028213D01*
X0159790Y0028207D01*
X0159863Y0028198D01*
X0159935Y0028184D01*
X0160006Y0028167D01*
X0160077Y0028146D01*
X0160146Y0028122D01*
X0160213Y0028094D01*
X0160280Y0028062D01*
X0160344Y0028027D01*
X0160406Y0027989D01*
X0160467Y0027948D01*
X0160525Y0027903D01*
X0160581Y0027855D01*
X0160634Y0027805D01*
X0160684Y0027752D01*
X0160732Y0027696D01*
X0160777Y0027638D01*
X0160818Y0027577D01*
X0160856Y0027515D01*
X0160891Y0027451D01*
X0160923Y0027384D01*
X0160951Y0027317D01*
X0160975Y0027248D01*
X0160996Y0027177D01*
X0161013Y0027106D01*
X0161027Y0027034D01*
X0161036Y0026961D01*
X0161042Y0026888D01*
X0161044Y0026815D01*
X0161044Y0025415D01*
X0161042Y0025342D01*
X0161036Y0025269D01*
X0161027Y0025196D01*
X0161013Y0025124D01*
X0160996Y0025053D01*
X0160975Y0024982D01*
X0160951Y0024913D01*
X0160923Y0024846D01*
X0160891Y0024779D01*
X0160856Y0024715D01*
X0160818Y0024653D01*
X0160777Y0024592D01*
X0160732Y0024534D01*
X0160684Y0024478D01*
X0160634Y0024425D01*
X0160581Y0024375D01*
X0160525Y0024327D01*
X0160467Y0024282D01*
X0160406Y0024241D01*
X0160344Y0024203D01*
X0160280Y0024168D01*
X0160213Y0024136D01*
X0160146Y0024108D01*
X0160077Y0024084D01*
X0160006Y0024063D01*
X0159935Y0024046D01*
X0159863Y0024032D01*
X0159790Y0024023D01*
X0159717Y0024017D01*
X0159644Y0024015D01*
X0159571Y0024017D01*
X0159498Y0024023D01*
X0159425Y0024032D01*
X0159353Y0024046D01*
X0159282Y0024063D01*
X0159211Y0024084D01*
X0159142Y0024108D01*
X0159075Y0024136D01*
X0159008Y0024168D01*
X0158944Y0024203D01*
X0158882Y0024241D01*
X0158821Y0024282D01*
X0158763Y0024327D01*
X0158707Y0024375D01*
X0158654Y0024425D01*
X0158604Y0024478D01*
X0158556Y0024534D01*
X0158511Y0024592D01*
X0158470Y0024653D01*
X0158432Y0024715D01*
X0158397Y0024779D01*
X0158365Y0024846D01*
X0158337Y0024913D01*
X0158313Y0024982D01*
X0158292Y0025053D01*
X0158275Y0025124D01*
X0158261Y0025196D01*
X0158252Y0025269D01*
X0158246Y0025342D01*
X0158244Y0025415D01*
X0163903Y0024015D02*
X0163903Y0030315D01*
X0166003Y0026815D01*
X0168103Y0030315D01*
X0168103Y0024015D01*
X0172157Y0024015D02*
X0173557Y0028215D01*
X0176122Y0028215D02*
X0176122Y0022965D01*
X0176122Y0024015D02*
X0177872Y0024015D01*
X0177935Y0024017D01*
X0177999Y0024023D01*
X0178061Y0024032D01*
X0178123Y0024046D01*
X0178184Y0024063D01*
X0178244Y0024083D01*
X0178303Y0024108D01*
X0178360Y0024135D01*
X0178415Y0024166D01*
X0178468Y0024201D01*
X0178520Y0024238D01*
X0178568Y0024279D01*
X0178614Y0024323D01*
X0178658Y0024369D01*
X0178699Y0024417D01*
X0178736Y0024469D01*
X0178771Y0024522D01*
X0178802Y0024577D01*
X0178829Y0024634D01*
X0178854Y0024693D01*
X0178874Y0024753D01*
X0178891Y0024814D01*
X0178905Y0024876D01*
X0178914Y0024938D01*
X0178920Y0025002D01*
X0178922Y0025065D01*
X0178922Y0027165D01*
X0178920Y0027228D01*
X0178914Y0027292D01*
X0178905Y0027354D01*
X0178891Y0027416D01*
X0178874Y0027477D01*
X0178854Y0027537D01*
X0178829Y0027596D01*
X0178802Y0027653D01*
X0178771Y0027708D01*
X0178736Y0027761D01*
X0178699Y0027813D01*
X0178658Y0027861D01*
X0178614Y0027907D01*
X0178568Y0027951D01*
X0178520Y0027992D01*
X0178468Y0028029D01*
X0178415Y0028064D01*
X0178360Y0028095D01*
X0178303Y0028122D01*
X0178244Y0028147D01*
X0178184Y0028167D01*
X0178123Y0028184D01*
X0178061Y0028198D01*
X0177999Y0028207D01*
X0177935Y0028213D01*
X0177872Y0028215D01*
X0176122Y0028215D01*
X0180856Y0028215D02*
X0180856Y0027515D01*
X0180856Y0028215D02*
X0182956Y0028215D01*
X0182956Y0024015D01*
X0185731Y0024015D02*
X0187481Y0024015D01*
X0187544Y0024017D01*
X0187608Y0024023D01*
X0187670Y0024032D01*
X0187732Y0024046D01*
X0187793Y0024063D01*
X0187853Y0024083D01*
X0187912Y0024108D01*
X0187969Y0024135D01*
X0188024Y0024166D01*
X0188077Y0024201D01*
X0188129Y0024238D01*
X0188177Y0024279D01*
X0188223Y0024323D01*
X0188267Y0024369D01*
X0188308Y0024417D01*
X0188345Y0024469D01*
X0188380Y0024522D01*
X0188411Y0024577D01*
X0188438Y0024634D01*
X0188463Y0024693D01*
X0188483Y0024753D01*
X0188500Y0024814D01*
X0188514Y0024876D01*
X0188523Y0024938D01*
X0188529Y0025002D01*
X0188531Y0025065D01*
X0188531Y0026815D01*
X0188531Y0026115D02*
X0185731Y0026115D01*
X0185731Y0026815D01*
X0185733Y0026888D01*
X0185739Y0026961D01*
X0185748Y0027034D01*
X0185762Y0027106D01*
X0185779Y0027177D01*
X0185800Y0027248D01*
X0185824Y0027317D01*
X0185852Y0027384D01*
X0185884Y0027451D01*
X0185919Y0027515D01*
X0185957Y0027577D01*
X0185998Y0027638D01*
X0186043Y0027696D01*
X0186091Y0027752D01*
X0186141Y0027805D01*
X0186194Y0027855D01*
X0186250Y0027903D01*
X0186308Y0027948D01*
X0186369Y0027989D01*
X0186431Y0028027D01*
X0186495Y0028062D01*
X0186562Y0028094D01*
X0186629Y0028122D01*
X0186698Y0028146D01*
X0186769Y0028167D01*
X0186840Y0028184D01*
X0186912Y0028198D01*
X0186985Y0028207D01*
X0187058Y0028213D01*
X0187131Y0028215D01*
X0187204Y0028213D01*
X0187277Y0028207D01*
X0187350Y0028198D01*
X0187422Y0028184D01*
X0187493Y0028167D01*
X0187564Y0028146D01*
X0187633Y0028122D01*
X0187700Y0028094D01*
X0187767Y0028062D01*
X0187831Y0028027D01*
X0187893Y0027989D01*
X0187954Y0027948D01*
X0188012Y0027903D01*
X0188068Y0027855D01*
X0188121Y0027805D01*
X0188171Y0027752D01*
X0188219Y0027696D01*
X0188264Y0027638D01*
X0188305Y0027577D01*
X0188343Y0027515D01*
X0188378Y0027451D01*
X0188410Y0027384D01*
X0188438Y0027317D01*
X0188462Y0027248D01*
X0188483Y0027177D01*
X0188500Y0027106D01*
X0188514Y0027034D01*
X0188523Y0026961D01*
X0188529Y0026888D01*
X0188531Y0026815D01*
X0191270Y0027165D02*
X0191270Y0024015D01*
X0194070Y0024015D02*
X0194070Y0028215D01*
X0192320Y0028215D01*
X0192257Y0028213D01*
X0192193Y0028207D01*
X0192131Y0028198D01*
X0192069Y0028184D01*
X0192008Y0028167D01*
X0191948Y0028147D01*
X0191889Y0028122D01*
X0191832Y0028095D01*
X0191777Y0028064D01*
X0191724Y0028029D01*
X0191672Y0027992D01*
X0191624Y0027951D01*
X0191578Y0027907D01*
X0191534Y0027861D01*
X0191493Y0027813D01*
X0191456Y0027761D01*
X0191421Y0027708D01*
X0191390Y0027653D01*
X0191363Y0027596D01*
X0191338Y0027537D01*
X0191318Y0027477D01*
X0191301Y0027416D01*
X0191287Y0027354D01*
X0191278Y0027292D01*
X0191272Y0027228D01*
X0191270Y0027165D01*
X0197230Y0027515D02*
X0199330Y0027515D01*
X0202347Y0027165D02*
X0202347Y0024015D01*
X0199330Y0024015D02*
X0199330Y0030315D01*
X0196530Y0030315D01*
X0203397Y0028215D02*
X0205147Y0028215D01*
X0205147Y0024015D01*
X0207886Y0024015D02*
X0209636Y0024015D01*
X0209699Y0024017D01*
X0209763Y0024023D01*
X0209825Y0024032D01*
X0209887Y0024046D01*
X0209948Y0024063D01*
X0210008Y0024083D01*
X0210067Y0024108D01*
X0210124Y0024135D01*
X0210179Y0024166D01*
X0210232Y0024201D01*
X0210284Y0024238D01*
X0210332Y0024279D01*
X0210378Y0024323D01*
X0210422Y0024369D01*
X0210463Y0024417D01*
X0210500Y0024469D01*
X0210535Y0024522D01*
X0210566Y0024577D01*
X0210593Y0024634D01*
X0210618Y0024693D01*
X0210638Y0024753D01*
X0210655Y0024814D01*
X0210669Y0024876D01*
X0210678Y0024938D01*
X0210684Y0025002D01*
X0210686Y0025065D01*
X0210686Y0026815D01*
X0210686Y0026115D02*
X0207886Y0026115D01*
X0207886Y0026815D01*
X0207888Y0026888D01*
X0207894Y0026961D01*
X0207903Y0027034D01*
X0207917Y0027106D01*
X0207934Y0027177D01*
X0207955Y0027248D01*
X0207979Y0027317D01*
X0208007Y0027384D01*
X0208039Y0027451D01*
X0208074Y0027515D01*
X0208112Y0027577D01*
X0208153Y0027638D01*
X0208198Y0027696D01*
X0208246Y0027752D01*
X0208296Y0027805D01*
X0208349Y0027855D01*
X0208405Y0027903D01*
X0208463Y0027948D01*
X0208524Y0027989D01*
X0208586Y0028027D01*
X0208650Y0028062D01*
X0208717Y0028094D01*
X0208784Y0028122D01*
X0208853Y0028146D01*
X0208924Y0028167D01*
X0208995Y0028184D01*
X0209067Y0028198D01*
X0209140Y0028207D01*
X0209213Y0028213D01*
X0209286Y0028215D01*
X0209359Y0028213D01*
X0209432Y0028207D01*
X0209505Y0028198D01*
X0209577Y0028184D01*
X0209648Y0028167D01*
X0209719Y0028146D01*
X0209788Y0028122D01*
X0209855Y0028094D01*
X0209922Y0028062D01*
X0209986Y0028027D01*
X0210048Y0027989D01*
X0210109Y0027948D01*
X0210167Y0027903D01*
X0210223Y0027855D01*
X0210276Y0027805D01*
X0210326Y0027752D01*
X0210374Y0027696D01*
X0210419Y0027638D01*
X0210460Y0027577D01*
X0210498Y0027515D01*
X0210533Y0027451D01*
X0210565Y0027384D01*
X0210593Y0027317D01*
X0210617Y0027248D01*
X0210638Y0027177D01*
X0210655Y0027106D01*
X0210669Y0027034D01*
X0210678Y0026961D01*
X0210684Y0026888D01*
X0210686Y0026815D01*
X0213188Y0027165D02*
X0213188Y0025065D01*
X0213190Y0025002D01*
X0213196Y0024938D01*
X0213205Y0024876D01*
X0213219Y0024814D01*
X0213236Y0024753D01*
X0213256Y0024693D01*
X0213281Y0024634D01*
X0213308Y0024577D01*
X0213339Y0024522D01*
X0213374Y0024469D01*
X0213411Y0024417D01*
X0213452Y0024369D01*
X0213496Y0024323D01*
X0213542Y0024279D01*
X0213590Y0024238D01*
X0213642Y0024201D01*
X0213695Y0024166D01*
X0213750Y0024135D01*
X0213807Y0024108D01*
X0213866Y0024083D01*
X0213926Y0024063D01*
X0213987Y0024046D01*
X0214049Y0024032D01*
X0214111Y0024023D01*
X0214175Y0024017D01*
X0214238Y0024015D01*
X0215988Y0024015D01*
X0215988Y0021915D02*
X0215988Y0028215D01*
X0214238Y0028215D01*
X0214175Y0028213D01*
X0214111Y0028207D01*
X0214049Y0028198D01*
X0213987Y0028184D01*
X0213926Y0028167D01*
X0213866Y0028147D01*
X0213807Y0028122D01*
X0213750Y0028095D01*
X0213695Y0028064D01*
X0213642Y0028029D01*
X0213590Y0027992D01*
X0213542Y0027951D01*
X0213496Y0027907D01*
X0213452Y0027861D01*
X0213411Y0027813D01*
X0213374Y0027761D01*
X0213339Y0027708D01*
X0213308Y0027653D01*
X0213281Y0027596D01*
X0213256Y0027537D01*
X0213236Y0027477D01*
X0213219Y0027416D01*
X0213205Y0027354D01*
X0213196Y0027292D01*
X0213190Y0027228D01*
X0213188Y0027165D01*
X0218818Y0028565D02*
X0218818Y0025765D01*
X0218820Y0025683D01*
X0218826Y0025601D01*
X0218835Y0025520D01*
X0218849Y0025439D01*
X0218866Y0025358D01*
X0218887Y0025279D01*
X0218911Y0025201D01*
X0218940Y0025124D01*
X0218972Y0025048D01*
X0219007Y0024974D01*
X0219046Y0024902D01*
X0219088Y0024831D01*
X0219133Y0024763D01*
X0219182Y0024697D01*
X0219233Y0024633D01*
X0219288Y0024572D01*
X0219345Y0024513D01*
X0219405Y0024457D01*
X0219468Y0024404D01*
X0219533Y0024354D01*
X0219600Y0024307D01*
X0219669Y0024263D01*
X0219741Y0024223D01*
X0219814Y0024186D01*
X0219889Y0024152D01*
X0219965Y0024122D01*
X0220043Y0024096D01*
X0220122Y0024073D01*
X0220201Y0024054D01*
X0220282Y0024039D01*
X0220363Y0024027D01*
X0220445Y0024019D01*
X0220527Y0024015D01*
X0220609Y0024015D01*
X0220691Y0024019D01*
X0220773Y0024027D01*
X0220854Y0024039D01*
X0220935Y0024054D01*
X0221014Y0024073D01*
X0221093Y0024096D01*
X0221171Y0024122D01*
X0221247Y0024152D01*
X0221322Y0024186D01*
X0221395Y0024223D01*
X0221467Y0024263D01*
X0221536Y0024307D01*
X0221603Y0024354D01*
X0221668Y0024404D01*
X0221731Y0024457D01*
X0221791Y0024513D01*
X0221848Y0024572D01*
X0221903Y0024633D01*
X0221954Y0024697D01*
X0222003Y0024763D01*
X0222048Y0024831D01*
X0222090Y0024902D01*
X0222129Y0024974D01*
X0222164Y0025048D01*
X0222196Y0025124D01*
X0222225Y0025201D01*
X0222249Y0025279D01*
X0222270Y0025358D01*
X0222287Y0025439D01*
X0222301Y0025520D01*
X0222310Y0025601D01*
X0222316Y0025683D01*
X0222318Y0025765D01*
X0222318Y0028565D01*
X0222316Y0028647D01*
X0222310Y0028729D01*
X0222301Y0028810D01*
X0222287Y0028891D01*
X0222270Y0028972D01*
X0222249Y0029051D01*
X0222225Y0029129D01*
X0222196Y0029206D01*
X0222164Y0029282D01*
X0222129Y0029356D01*
X0222090Y0029428D01*
X0222048Y0029499D01*
X0222003Y0029567D01*
X0221954Y0029633D01*
X0221903Y0029697D01*
X0221848Y0029758D01*
X0221791Y0029817D01*
X0221731Y0029873D01*
X0221668Y0029926D01*
X0221603Y0029976D01*
X0221536Y0030023D01*
X0221467Y0030067D01*
X0221395Y0030107D01*
X0221322Y0030144D01*
X0221247Y0030178D01*
X0221171Y0030208D01*
X0221093Y0030234D01*
X0221014Y0030257D01*
X0220935Y0030276D01*
X0220854Y0030291D01*
X0220773Y0030303D01*
X0220691Y0030311D01*
X0220609Y0030315D01*
X0220527Y0030315D01*
X0220445Y0030311D01*
X0220363Y0030303D01*
X0220282Y0030291D01*
X0220201Y0030276D01*
X0220122Y0030257D01*
X0220043Y0030234D01*
X0219965Y0030208D01*
X0219889Y0030178D01*
X0219814Y0030144D01*
X0219741Y0030107D01*
X0219669Y0030067D01*
X0219600Y0030023D01*
X0219533Y0029976D01*
X0219468Y0029926D01*
X0219405Y0029873D01*
X0219345Y0029817D01*
X0219288Y0029758D01*
X0219233Y0029697D01*
X0219182Y0029633D01*
X0219133Y0029567D01*
X0219088Y0029499D01*
X0219046Y0029428D01*
X0219007Y0029356D01*
X0218972Y0029282D01*
X0218940Y0029206D01*
X0218911Y0029129D01*
X0218887Y0029051D01*
X0218866Y0028972D01*
X0218849Y0028891D01*
X0218835Y0028810D01*
X0218826Y0028729D01*
X0218820Y0028647D01*
X0218818Y0028565D01*
X0203397Y0028215D02*
X0203334Y0028213D01*
X0203270Y0028207D01*
X0203208Y0028198D01*
X0203146Y0028184D01*
X0203085Y0028167D01*
X0203025Y0028147D01*
X0202966Y0028122D01*
X0202909Y0028095D01*
X0202854Y0028064D01*
X0202801Y0028029D01*
X0202749Y0027992D01*
X0202701Y0027951D01*
X0202655Y0027907D01*
X0202611Y0027861D01*
X0202570Y0027813D01*
X0202533Y0027761D01*
X0202498Y0027708D01*
X0202467Y0027653D01*
X0202440Y0027596D01*
X0202415Y0027537D01*
X0202395Y0027477D01*
X0202378Y0027416D01*
X0202364Y0027354D01*
X0202355Y0027292D01*
X0202349Y0027228D01*
X0202347Y0027165D01*
X0199330Y0024015D02*
X0196530Y0024015D01*
X0178572Y0021915D02*
X0177172Y0021915D01*
X0177109Y0021917D01*
X0177045Y0021923D01*
X0176983Y0021932D01*
X0176921Y0021946D01*
X0176860Y0021963D01*
X0176800Y0021983D01*
X0176741Y0022008D01*
X0176684Y0022035D01*
X0176629Y0022066D01*
X0176576Y0022101D01*
X0176524Y0022138D01*
X0176476Y0022179D01*
X0176430Y0022223D01*
X0176386Y0022269D01*
X0176345Y0022317D01*
X0176308Y0022369D01*
X0176273Y0022422D01*
X0176242Y0022477D01*
X0176215Y0022534D01*
X0176190Y0022593D01*
X0176170Y0022653D01*
X0176153Y0022714D01*
X0176139Y0022776D01*
X0176130Y0022838D01*
X0176124Y0022902D01*
X0176122Y0022965D01*
X0173557Y0021915D02*
X0172857Y0021915D01*
X0170757Y0028215D01*
X0150177Y0029965D02*
X0149827Y0029965D01*
X0149827Y0030315D01*
X0150177Y0030315D01*
X0150177Y0029965D01*
X0147326Y0030315D02*
X0147326Y0025065D01*
X0147324Y0025002D01*
X0147318Y0024938D01*
X0147309Y0024876D01*
X0147295Y0024814D01*
X0147278Y0024753D01*
X0147258Y0024693D01*
X0147233Y0024634D01*
X0147206Y0024577D01*
X0147175Y0024522D01*
X0147140Y0024469D01*
X0147103Y0024417D01*
X0147062Y0024369D01*
X0147018Y0024323D01*
X0146972Y0024279D01*
X0146924Y0024238D01*
X0146872Y0024201D01*
X0146819Y0024166D01*
X0146764Y0024135D01*
X0146707Y0024108D01*
X0146648Y0024083D01*
X0146588Y0024063D01*
X0146527Y0024046D01*
X0146465Y0024032D01*
X0146403Y0024023D01*
X0146339Y0024017D01*
X0146276Y0024015D01*
X0145926Y0024015D01*
X0138889Y0042915D02*
X0138189Y0042915D01*
X0136089Y0049215D01*
X0138889Y0049215D02*
X0137489Y0045015D01*
X0141186Y0046065D02*
X0141186Y0048165D01*
X0141188Y0048228D01*
X0141194Y0048292D01*
X0141203Y0048354D01*
X0141217Y0048416D01*
X0141234Y0048477D01*
X0141254Y0048537D01*
X0141279Y0048596D01*
X0141306Y0048653D01*
X0141337Y0048708D01*
X0141372Y0048761D01*
X0141409Y0048813D01*
X0141450Y0048861D01*
X0141494Y0048907D01*
X0141540Y0048951D01*
X0141588Y0048992D01*
X0141640Y0049029D01*
X0141693Y0049064D01*
X0141748Y0049095D01*
X0141805Y0049122D01*
X0141864Y0049147D01*
X0141924Y0049167D01*
X0141985Y0049184D01*
X0142047Y0049198D01*
X0142109Y0049207D01*
X0142173Y0049213D01*
X0142236Y0049215D01*
X0143986Y0049215D01*
X0143986Y0051315D02*
X0143986Y0045015D01*
X0142236Y0045015D01*
X0142173Y0045017D01*
X0142109Y0045023D01*
X0142047Y0045032D01*
X0141985Y0045046D01*
X0141924Y0045063D01*
X0141864Y0045083D01*
X0141805Y0045108D01*
X0141748Y0045135D01*
X0141693Y0045166D01*
X0141640Y0045201D01*
X0141588Y0045238D01*
X0141540Y0045279D01*
X0141494Y0045323D01*
X0141450Y0045369D01*
X0141409Y0045417D01*
X0141372Y0045469D01*
X0141337Y0045522D01*
X0141306Y0045577D01*
X0141279Y0045634D01*
X0141254Y0045693D01*
X0141234Y0045753D01*
X0141217Y0045814D01*
X0141203Y0045876D01*
X0141194Y0045938D01*
X0141188Y0046002D01*
X0141186Y0046065D01*
X0150098Y0046765D02*
X0150100Y0046683D01*
X0150106Y0046601D01*
X0150115Y0046520D01*
X0150129Y0046439D01*
X0150146Y0046358D01*
X0150167Y0046279D01*
X0150191Y0046201D01*
X0150220Y0046124D01*
X0150252Y0046048D01*
X0150287Y0045974D01*
X0150326Y0045902D01*
X0150368Y0045831D01*
X0150413Y0045763D01*
X0150462Y0045697D01*
X0150513Y0045633D01*
X0150568Y0045572D01*
X0150625Y0045513D01*
X0150685Y0045457D01*
X0150748Y0045404D01*
X0150813Y0045354D01*
X0150880Y0045307D01*
X0150949Y0045263D01*
X0151021Y0045223D01*
X0151094Y0045186D01*
X0151169Y0045152D01*
X0151245Y0045122D01*
X0151323Y0045096D01*
X0151402Y0045073D01*
X0151481Y0045054D01*
X0151562Y0045039D01*
X0151643Y0045027D01*
X0151725Y0045019D01*
X0151807Y0045015D01*
X0151889Y0045015D01*
X0151971Y0045019D01*
X0152053Y0045027D01*
X0152134Y0045039D01*
X0152215Y0045054D01*
X0152294Y0045073D01*
X0152373Y0045096D01*
X0152451Y0045122D01*
X0152527Y0045152D01*
X0152602Y0045186D01*
X0152675Y0045223D01*
X0152747Y0045263D01*
X0152816Y0045307D01*
X0152883Y0045354D01*
X0152948Y0045404D01*
X0153011Y0045457D01*
X0153071Y0045513D01*
X0153128Y0045572D01*
X0153183Y0045633D01*
X0153234Y0045697D01*
X0153283Y0045763D01*
X0153328Y0045831D01*
X0153370Y0045902D01*
X0153409Y0045974D01*
X0153444Y0046048D01*
X0153476Y0046124D01*
X0153505Y0046201D01*
X0153529Y0046279D01*
X0153550Y0046358D01*
X0153567Y0046439D01*
X0153581Y0046520D01*
X0153590Y0046601D01*
X0153596Y0046683D01*
X0153598Y0046765D01*
X0153596Y0046847D01*
X0153590Y0046929D01*
X0153581Y0047010D01*
X0153567Y0047091D01*
X0153550Y0047172D01*
X0153529Y0047251D01*
X0153505Y0047329D01*
X0153476Y0047406D01*
X0153444Y0047482D01*
X0153409Y0047556D01*
X0153370Y0047628D01*
X0153328Y0047699D01*
X0153283Y0047767D01*
X0153234Y0047833D01*
X0153183Y0047897D01*
X0153128Y0047958D01*
X0153071Y0048017D01*
X0153011Y0048073D01*
X0152948Y0048126D01*
X0152883Y0048176D01*
X0152816Y0048223D01*
X0152747Y0048267D01*
X0152675Y0048307D01*
X0152602Y0048344D01*
X0152527Y0048378D01*
X0152451Y0048408D01*
X0152373Y0048434D01*
X0152294Y0048457D01*
X0152215Y0048476D01*
X0152134Y0048491D01*
X0152053Y0048503D01*
X0151971Y0048511D01*
X0151889Y0048515D01*
X0151807Y0048515D01*
X0151725Y0048511D01*
X0151643Y0048503D01*
X0151562Y0048491D01*
X0151481Y0048476D01*
X0151402Y0048457D01*
X0151323Y0048434D01*
X0151245Y0048408D01*
X0151169Y0048378D01*
X0151094Y0048344D01*
X0151021Y0048307D01*
X0150949Y0048267D01*
X0150880Y0048223D01*
X0150813Y0048176D01*
X0150748Y0048126D01*
X0150685Y0048073D01*
X0150625Y0048017D01*
X0150568Y0047958D01*
X0150513Y0047897D01*
X0150462Y0047833D01*
X0150413Y0047767D01*
X0150368Y0047699D01*
X0150326Y0047628D01*
X0150287Y0047556D01*
X0150252Y0047482D01*
X0150220Y0047406D01*
X0150191Y0047329D01*
X0150167Y0047251D01*
X0150146Y0047172D01*
X0150129Y0047091D01*
X0150115Y0047010D01*
X0150106Y0046929D01*
X0150100Y0046847D01*
X0150098Y0046765D01*
X0150448Y0049915D02*
X0150450Y0049842D01*
X0150456Y0049769D01*
X0150465Y0049696D01*
X0150479Y0049624D01*
X0150496Y0049553D01*
X0150517Y0049482D01*
X0150541Y0049413D01*
X0150569Y0049346D01*
X0150601Y0049279D01*
X0150636Y0049215D01*
X0150674Y0049153D01*
X0150715Y0049092D01*
X0150760Y0049034D01*
X0150808Y0048978D01*
X0150858Y0048925D01*
X0150911Y0048875D01*
X0150967Y0048827D01*
X0151025Y0048782D01*
X0151086Y0048741D01*
X0151148Y0048703D01*
X0151212Y0048668D01*
X0151279Y0048636D01*
X0151346Y0048608D01*
X0151415Y0048584D01*
X0151486Y0048563D01*
X0151557Y0048546D01*
X0151629Y0048532D01*
X0151702Y0048523D01*
X0151775Y0048517D01*
X0151848Y0048515D01*
X0151921Y0048517D01*
X0151994Y0048523D01*
X0152067Y0048532D01*
X0152139Y0048546D01*
X0152210Y0048563D01*
X0152281Y0048584D01*
X0152350Y0048608D01*
X0152417Y0048636D01*
X0152484Y0048668D01*
X0152548Y0048703D01*
X0152610Y0048741D01*
X0152671Y0048782D01*
X0152729Y0048827D01*
X0152785Y0048875D01*
X0152838Y0048925D01*
X0152888Y0048978D01*
X0152936Y0049034D01*
X0152981Y0049092D01*
X0153022Y0049153D01*
X0153060Y0049215D01*
X0153095Y0049279D01*
X0153127Y0049346D01*
X0153155Y0049413D01*
X0153179Y0049482D01*
X0153200Y0049553D01*
X0153217Y0049624D01*
X0153231Y0049696D01*
X0153240Y0049769D01*
X0153246Y0049842D01*
X0153248Y0049915D01*
X0153246Y0049988D01*
X0153240Y0050061D01*
X0153231Y0050134D01*
X0153217Y0050206D01*
X0153200Y0050277D01*
X0153179Y0050348D01*
X0153155Y0050417D01*
X0153127Y0050484D01*
X0153095Y0050551D01*
X0153060Y0050615D01*
X0153022Y0050677D01*
X0152981Y0050738D01*
X0152936Y0050796D01*
X0152888Y0050852D01*
X0152838Y0050905D01*
X0152785Y0050955D01*
X0152729Y0051003D01*
X0152671Y0051048D01*
X0152610Y0051089D01*
X0152548Y0051127D01*
X0152484Y0051162D01*
X0152417Y0051194D01*
X0152350Y0051222D01*
X0152281Y0051246D01*
X0152210Y0051267D01*
X0152139Y0051284D01*
X0152067Y0051298D01*
X0151994Y0051307D01*
X0151921Y0051313D01*
X0151848Y0051315D01*
X0151775Y0051313D01*
X0151702Y0051307D01*
X0151629Y0051298D01*
X0151557Y0051284D01*
X0151486Y0051267D01*
X0151415Y0051246D01*
X0151346Y0051222D01*
X0151279Y0051194D01*
X0151212Y0051162D01*
X0151148Y0051127D01*
X0151086Y0051089D01*
X0151025Y0051048D01*
X0150967Y0051003D01*
X0150911Y0050955D01*
X0150858Y0050905D01*
X0150808Y0050852D01*
X0150760Y0050796D01*
X0150715Y0050738D01*
X0150674Y0050677D01*
X0150636Y0050615D01*
X0150601Y0050551D01*
X0150569Y0050484D01*
X0150541Y0050417D01*
X0150517Y0050348D01*
X0150496Y0050277D01*
X0150479Y0050206D01*
X0150465Y0050134D01*
X0150456Y0050061D01*
X0150450Y0049988D01*
X0150448Y0049915D01*
X0158002Y0051315D02*
X0158002Y0045015D01*
X0159752Y0045015D02*
X0156252Y0045015D01*
X0165382Y0045890D02*
X0165441Y0046015D01*
X0165497Y0046142D01*
X0165549Y0046270D01*
X0165598Y0046400D01*
X0165643Y0046531D01*
X0165685Y0046663D01*
X0165723Y0046796D01*
X0165758Y0046930D01*
X0165789Y0047065D01*
X0165817Y0047201D01*
X0165841Y0047337D01*
X0165861Y0047474D01*
X0165877Y0047612D01*
X0165890Y0047750D01*
X0165900Y0047888D01*
X0165905Y0048026D01*
X0165907Y0048165D01*
X0162406Y0048165D02*
X0162408Y0048026D01*
X0162413Y0047888D01*
X0162423Y0047750D01*
X0162436Y0047612D01*
X0162452Y0047474D01*
X0162472Y0047337D01*
X0162496Y0047201D01*
X0162524Y0047065D01*
X0162555Y0046930D01*
X0162590Y0046796D01*
X0162628Y0046663D01*
X0162670Y0046531D01*
X0162715Y0046400D01*
X0162764Y0046270D01*
X0162816Y0046142D01*
X0162872Y0046015D01*
X0162931Y0045890D01*
X0162955Y0045825D01*
X0162983Y0045761D01*
X0163015Y0045698D01*
X0163049Y0045637D01*
X0163087Y0045579D01*
X0163128Y0045522D01*
X0163172Y0045468D01*
X0163219Y0045416D01*
X0163268Y0045367D01*
X0163321Y0045320D01*
X0163375Y0045277D01*
X0163432Y0045236D01*
X0163491Y0045199D01*
X0163552Y0045165D01*
X0163614Y0045134D01*
X0163679Y0045106D01*
X0163744Y0045082D01*
X0163811Y0045062D01*
X0163879Y0045045D01*
X0163947Y0045032D01*
X0164017Y0045023D01*
X0164086Y0045017D01*
X0164156Y0045015D01*
X0164226Y0045017D01*
X0164295Y0045023D01*
X0164365Y0045032D01*
X0164433Y0045045D01*
X0164501Y0045062D01*
X0164568Y0045082D01*
X0164633Y0045106D01*
X0164698Y0045134D01*
X0164760Y0045165D01*
X0164821Y0045199D01*
X0164880Y0045236D01*
X0164937Y0045277D01*
X0164991Y0045320D01*
X0165044Y0045367D01*
X0165093Y0045416D01*
X0165140Y0045468D01*
X0165184Y0045522D01*
X0165225Y0045579D01*
X0165263Y0045637D01*
X0165297Y0045698D01*
X0165329Y0045761D01*
X0165357Y0045825D01*
X0165381Y0045890D01*
X0165556Y0046415D02*
X0162756Y0049915D01*
X0162931Y0050440D02*
X0162955Y0050505D01*
X0162983Y0050569D01*
X0163015Y0050632D01*
X0163049Y0050693D01*
X0163087Y0050751D01*
X0163128Y0050808D01*
X0163172Y0050862D01*
X0163219Y0050914D01*
X0163268Y0050963D01*
X0163321Y0051010D01*
X0163375Y0051053D01*
X0163432Y0051094D01*
X0163491Y0051131D01*
X0163552Y0051165D01*
X0163614Y0051196D01*
X0163679Y0051224D01*
X0163744Y0051248D01*
X0163811Y0051268D01*
X0163879Y0051285D01*
X0163947Y0051298D01*
X0164017Y0051307D01*
X0164086Y0051313D01*
X0164156Y0051315D01*
X0164226Y0051313D01*
X0164295Y0051307D01*
X0164365Y0051298D01*
X0164433Y0051285D01*
X0164501Y0051268D01*
X0164568Y0051248D01*
X0164633Y0051224D01*
X0164698Y0051196D01*
X0164760Y0051165D01*
X0164821Y0051131D01*
X0164880Y0051094D01*
X0164937Y0051053D01*
X0164991Y0051010D01*
X0165044Y0050963D01*
X0165093Y0050914D01*
X0165140Y0050862D01*
X0165184Y0050808D01*
X0165225Y0050751D01*
X0165263Y0050693D01*
X0165297Y0050632D01*
X0165329Y0050569D01*
X0165357Y0050505D01*
X0165381Y0050440D01*
X0169085Y0048515D02*
X0172060Y0045015D01*
X0168560Y0045015D01*
X0162406Y0048165D02*
X0162408Y0048304D01*
X0162413Y0048442D01*
X0162423Y0048580D01*
X0162436Y0048718D01*
X0162452Y0048856D01*
X0162472Y0048993D01*
X0162496Y0049129D01*
X0162524Y0049265D01*
X0162555Y0049400D01*
X0162590Y0049534D01*
X0162628Y0049667D01*
X0162670Y0049799D01*
X0162715Y0049930D01*
X0162764Y0050060D01*
X0162816Y0050188D01*
X0162872Y0050315D01*
X0162931Y0050440D01*
X0159752Y0049915D02*
X0158002Y0051315D01*
X0165382Y0050440D02*
X0165441Y0050315D01*
X0165497Y0050188D01*
X0165549Y0050060D01*
X0165598Y0049930D01*
X0165643Y0049799D01*
X0165685Y0049667D01*
X0165723Y0049534D01*
X0165758Y0049400D01*
X0165789Y0049265D01*
X0165817Y0049129D01*
X0165841Y0048993D01*
X0165861Y0048856D01*
X0165877Y0048718D01*
X0165890Y0048580D01*
X0165900Y0048442D01*
X0165905Y0048304D01*
X0165907Y0048165D01*
X0170135Y0051314D02*
X0170223Y0051312D01*
X0170310Y0051306D01*
X0170397Y0051297D01*
X0170484Y0051284D01*
X0170570Y0051267D01*
X0170655Y0051246D01*
X0170740Y0051222D01*
X0170823Y0051193D01*
X0170905Y0051162D01*
X0170985Y0051127D01*
X0171064Y0051088D01*
X0171141Y0051046D01*
X0171216Y0051001D01*
X0171289Y0050952D01*
X0171360Y0050901D01*
X0171429Y0050846D01*
X0171495Y0050789D01*
X0171559Y0050728D01*
X0171620Y0050665D01*
X0171678Y0050600D01*
X0171733Y0050532D01*
X0171785Y0050461D01*
X0171834Y0050388D01*
X0171880Y0050314D01*
X0171923Y0050237D01*
X0171962Y0050159D01*
X0171998Y0050079D01*
X0172031Y0049997D01*
X0172060Y0049914D01*
X0169085Y0048515D02*
X0169028Y0048572D01*
X0168974Y0048631D01*
X0168923Y0048693D01*
X0168874Y0048758D01*
X0168829Y0048825D01*
X0168787Y0048893D01*
X0168748Y0048964D01*
X0168713Y0049037D01*
X0168681Y0049111D01*
X0168653Y0049186D01*
X0168629Y0049263D01*
X0168608Y0049341D01*
X0168591Y0049420D01*
X0168577Y0049499D01*
X0168568Y0049579D01*
X0168562Y0049659D01*
X0168560Y0049740D01*
X0168562Y0049817D01*
X0168568Y0049894D01*
X0168577Y0049971D01*
X0168590Y0050047D01*
X0168607Y0050123D01*
X0168628Y0050197D01*
X0168652Y0050271D01*
X0168680Y0050343D01*
X0168711Y0050413D01*
X0168746Y0050482D01*
X0168784Y0050550D01*
X0168825Y0050615D01*
X0168870Y0050678D01*
X0168918Y0050739D01*
X0168968Y0050798D01*
X0169021Y0050854D01*
X0169077Y0050907D01*
X0169136Y0050957D01*
X0169197Y0051005D01*
X0169260Y0051050D01*
X0169325Y0051091D01*
X0169393Y0051129D01*
X0169462Y0051164D01*
X0169532Y0051195D01*
X0169604Y0051223D01*
X0169678Y0051247D01*
X0169752Y0051268D01*
X0169828Y0051285D01*
X0169904Y0051298D01*
X0169981Y0051307D01*
X0170058Y0051313D01*
X0170135Y0051315D01*
X0169659Y0055515D02*
X0167909Y0055515D01*
X0169659Y0055515D02*
X0169659Y0061815D01*
X0167909Y0061815D01*
X0167828Y0061813D01*
X0167748Y0061808D01*
X0167667Y0061798D01*
X0167587Y0061785D01*
X0167508Y0061769D01*
X0167430Y0061748D01*
X0167353Y0061724D01*
X0167277Y0061697D01*
X0167202Y0061666D01*
X0167129Y0061632D01*
X0167057Y0061594D01*
X0166988Y0061553D01*
X0166920Y0061509D01*
X0166854Y0061462D01*
X0166791Y0061411D01*
X0166730Y0061358D01*
X0166672Y0061302D01*
X0166616Y0061244D01*
X0166563Y0061183D01*
X0166512Y0061120D01*
X0166465Y0061054D01*
X0166421Y0060986D01*
X0166380Y0060917D01*
X0166342Y0060845D01*
X0166308Y0060772D01*
X0166277Y0060697D01*
X0166250Y0060621D01*
X0166226Y0060544D01*
X0166205Y0060466D01*
X0166189Y0060387D01*
X0166176Y0060307D01*
X0166166Y0060226D01*
X0166161Y0060146D01*
X0166159Y0060065D01*
X0166159Y0057265D01*
X0166161Y0057184D01*
X0166166Y0057104D01*
X0166176Y0057023D01*
X0166189Y0056943D01*
X0166205Y0056864D01*
X0166226Y0056786D01*
X0166250Y0056709D01*
X0166277Y0056633D01*
X0166308Y0056558D01*
X0166342Y0056485D01*
X0166380Y0056413D01*
X0166421Y0056344D01*
X0166465Y0056276D01*
X0166512Y0056210D01*
X0166563Y0056147D01*
X0166616Y0056086D01*
X0166672Y0056028D01*
X0166730Y0055972D01*
X0166791Y0055919D01*
X0166854Y0055868D01*
X0166920Y0055821D01*
X0166988Y0055777D01*
X0167057Y0055736D01*
X0167129Y0055698D01*
X0167202Y0055664D01*
X0167277Y0055633D01*
X0167353Y0055606D01*
X0167430Y0055582D01*
X0167508Y0055561D01*
X0167587Y0055545D01*
X0167667Y0055532D01*
X0167748Y0055522D01*
X0167828Y0055517D01*
X0167909Y0055515D01*
X0163317Y0056915D02*
X0163317Y0060415D01*
X0163315Y0060488D01*
X0163309Y0060561D01*
X0163300Y0060634D01*
X0163286Y0060706D01*
X0163269Y0060777D01*
X0163248Y0060848D01*
X0163224Y0060917D01*
X0163196Y0060984D01*
X0163164Y0061051D01*
X0163129Y0061115D01*
X0163091Y0061177D01*
X0163050Y0061238D01*
X0163005Y0061296D01*
X0162957Y0061352D01*
X0162907Y0061405D01*
X0162854Y0061455D01*
X0162798Y0061503D01*
X0162740Y0061548D01*
X0162679Y0061589D01*
X0162617Y0061627D01*
X0162553Y0061662D01*
X0162486Y0061694D01*
X0162419Y0061722D01*
X0162350Y0061746D01*
X0162279Y0061767D01*
X0162208Y0061784D01*
X0162136Y0061798D01*
X0162063Y0061807D01*
X0161990Y0061813D01*
X0161917Y0061815D01*
X0160517Y0061815D01*
X0158111Y0057965D02*
X0153911Y0057965D01*
X0149242Y0055515D02*
X0149161Y0055517D01*
X0149081Y0055522D01*
X0149000Y0055532D01*
X0148920Y0055545D01*
X0148841Y0055561D01*
X0148763Y0055582D01*
X0148686Y0055606D01*
X0148610Y0055633D01*
X0148535Y0055664D01*
X0148462Y0055698D01*
X0148390Y0055736D01*
X0148321Y0055777D01*
X0148253Y0055821D01*
X0148187Y0055868D01*
X0148124Y0055919D01*
X0148063Y0055972D01*
X0148005Y0056028D01*
X0147949Y0056086D01*
X0147896Y0056147D01*
X0147845Y0056210D01*
X0147798Y0056276D01*
X0147754Y0056344D01*
X0147713Y0056413D01*
X0147675Y0056485D01*
X0147641Y0056558D01*
X0147610Y0056633D01*
X0147583Y0056709D01*
X0147559Y0056786D01*
X0147538Y0056864D01*
X0147522Y0056943D01*
X0147509Y0057023D01*
X0147499Y0057104D01*
X0147494Y0057184D01*
X0147492Y0057265D01*
X0147492Y0060065D01*
X0147494Y0060146D01*
X0147499Y0060226D01*
X0147509Y0060307D01*
X0147522Y0060387D01*
X0147538Y0060466D01*
X0147559Y0060544D01*
X0147583Y0060621D01*
X0147610Y0060697D01*
X0147641Y0060772D01*
X0147675Y0060845D01*
X0147713Y0060917D01*
X0147754Y0060986D01*
X0147798Y0061054D01*
X0147845Y0061120D01*
X0147896Y0061183D01*
X0147949Y0061244D01*
X0148005Y0061302D01*
X0148063Y0061358D01*
X0148124Y0061411D01*
X0148187Y0061462D01*
X0148253Y0061509D01*
X0148321Y0061553D01*
X0148390Y0061594D01*
X0148462Y0061632D01*
X0148535Y0061666D01*
X0148610Y0061697D01*
X0148686Y0061724D01*
X0148763Y0061748D01*
X0148841Y0061769D01*
X0148920Y0061785D01*
X0149000Y0061798D01*
X0149081Y0061808D01*
X0149161Y0061813D01*
X0149242Y0061815D01*
X0150992Y0061815D01*
X0150992Y0055515D01*
X0149242Y0055515D01*
X0144650Y0056915D02*
X0144650Y0060415D01*
X0144648Y0060488D01*
X0144642Y0060561D01*
X0144633Y0060634D01*
X0144619Y0060706D01*
X0144602Y0060777D01*
X0144581Y0060848D01*
X0144557Y0060917D01*
X0144529Y0060984D01*
X0144497Y0061051D01*
X0144462Y0061115D01*
X0144424Y0061177D01*
X0144383Y0061238D01*
X0144338Y0061296D01*
X0144290Y0061352D01*
X0144240Y0061405D01*
X0144187Y0061455D01*
X0144131Y0061503D01*
X0144073Y0061548D01*
X0144012Y0061589D01*
X0143950Y0061627D01*
X0143886Y0061662D01*
X0143819Y0061694D01*
X0143752Y0061722D01*
X0143683Y0061746D01*
X0143612Y0061767D01*
X0143541Y0061784D01*
X0143469Y0061798D01*
X0143396Y0061807D01*
X0143323Y0061813D01*
X0143250Y0061815D01*
X0141850Y0061815D01*
X0135926Y0061815D02*
X0134176Y0061815D01*
X0134103Y0061813D01*
X0134030Y0061807D01*
X0133957Y0061798D01*
X0133885Y0061784D01*
X0133814Y0061767D01*
X0133743Y0061746D01*
X0133674Y0061722D01*
X0133607Y0061694D01*
X0133540Y0061662D01*
X0133476Y0061627D01*
X0133414Y0061589D01*
X0133353Y0061548D01*
X0133295Y0061503D01*
X0133239Y0061455D01*
X0133186Y0061405D01*
X0133136Y0061352D01*
X0133088Y0061296D01*
X0133043Y0061238D01*
X0133002Y0061177D01*
X0132964Y0061115D01*
X0132929Y0061051D01*
X0132897Y0060984D01*
X0132869Y0060917D01*
X0132845Y0060848D01*
X0132824Y0060777D01*
X0132807Y0060706D01*
X0132793Y0060634D01*
X0132784Y0060561D01*
X0132778Y0060488D01*
X0132776Y0060415D01*
X0132778Y0060342D01*
X0132784Y0060269D01*
X0132793Y0060196D01*
X0132807Y0060124D01*
X0132824Y0060053D01*
X0132845Y0059982D01*
X0132869Y0059913D01*
X0132897Y0059846D01*
X0132929Y0059779D01*
X0132964Y0059715D01*
X0133002Y0059653D01*
X0133043Y0059592D01*
X0133088Y0059534D01*
X0133136Y0059478D01*
X0133186Y0059425D01*
X0133239Y0059375D01*
X0133295Y0059327D01*
X0133353Y0059282D01*
X0133414Y0059241D01*
X0133476Y0059203D01*
X0133540Y0059168D01*
X0133607Y0059136D01*
X0133674Y0059108D01*
X0133743Y0059084D01*
X0133814Y0059063D01*
X0133885Y0059046D01*
X0133957Y0059032D01*
X0134030Y0059023D01*
X0134103Y0059017D01*
X0134176Y0059015D01*
X0135926Y0059015D01*
X0134176Y0059015D02*
X0134094Y0059013D01*
X0134012Y0059007D01*
X0133931Y0058998D01*
X0133850Y0058984D01*
X0133769Y0058967D01*
X0133690Y0058946D01*
X0133612Y0058922D01*
X0133535Y0058893D01*
X0133459Y0058861D01*
X0133385Y0058826D01*
X0133313Y0058787D01*
X0133242Y0058745D01*
X0133174Y0058700D01*
X0133108Y0058651D01*
X0133044Y0058600D01*
X0132983Y0058545D01*
X0132924Y0058488D01*
X0132868Y0058428D01*
X0132815Y0058365D01*
X0132765Y0058300D01*
X0132718Y0058233D01*
X0132674Y0058164D01*
X0132634Y0058092D01*
X0132597Y0058019D01*
X0132563Y0057944D01*
X0132533Y0057868D01*
X0132507Y0057790D01*
X0132484Y0057711D01*
X0132465Y0057632D01*
X0132450Y0057551D01*
X0132438Y0057470D01*
X0132430Y0057388D01*
X0132426Y0057306D01*
X0132426Y0057224D01*
X0132430Y0057142D01*
X0132438Y0057060D01*
X0132450Y0056979D01*
X0132465Y0056898D01*
X0132484Y0056819D01*
X0132507Y0056740D01*
X0132533Y0056662D01*
X0132563Y0056586D01*
X0132597Y0056511D01*
X0132634Y0056438D01*
X0132674Y0056366D01*
X0132718Y0056297D01*
X0132765Y0056230D01*
X0132815Y0056165D01*
X0132868Y0056102D01*
X0132924Y0056042D01*
X0132983Y0055985D01*
X0133044Y0055930D01*
X0133108Y0055879D01*
X0133174Y0055830D01*
X0133242Y0055785D01*
X0133313Y0055743D01*
X0133385Y0055704D01*
X0133459Y0055669D01*
X0133535Y0055637D01*
X0133612Y0055608D01*
X0133690Y0055584D01*
X0133769Y0055563D01*
X0133850Y0055546D01*
X0133931Y0055532D01*
X0134012Y0055523D01*
X0134094Y0055517D01*
X0134176Y0055515D01*
X0135926Y0055515D01*
X0135926Y0061815D01*
X0129923Y0059715D02*
X0129923Y0056565D01*
X0129921Y0056502D01*
X0129915Y0056438D01*
X0129906Y0056376D01*
X0129892Y0056314D01*
X0129875Y0056253D01*
X0129855Y0056193D01*
X0129830Y0056134D01*
X0129803Y0056077D01*
X0129772Y0056022D01*
X0129737Y0055969D01*
X0129700Y0055917D01*
X0129659Y0055869D01*
X0129615Y0055823D01*
X0129569Y0055779D01*
X0129521Y0055738D01*
X0129469Y0055701D01*
X0129416Y0055666D01*
X0129361Y0055635D01*
X0129304Y0055608D01*
X0129245Y0055583D01*
X0129185Y0055563D01*
X0129124Y0055546D01*
X0129062Y0055532D01*
X0129000Y0055523D01*
X0128936Y0055517D01*
X0128873Y0055515D01*
X0127123Y0055515D01*
X0127123Y0059715D01*
X0124377Y0058665D02*
X0124377Y0056565D01*
X0124375Y0056502D01*
X0124369Y0056438D01*
X0124360Y0056376D01*
X0124346Y0056314D01*
X0124329Y0056253D01*
X0124309Y0056193D01*
X0124284Y0056134D01*
X0124257Y0056077D01*
X0124226Y0056022D01*
X0124191Y0055969D01*
X0124154Y0055917D01*
X0124113Y0055869D01*
X0124069Y0055823D01*
X0124023Y0055779D01*
X0123975Y0055738D01*
X0123923Y0055701D01*
X0123870Y0055666D01*
X0123815Y0055635D01*
X0123758Y0055608D01*
X0123699Y0055583D01*
X0123639Y0055563D01*
X0123578Y0055546D01*
X0123516Y0055532D01*
X0123454Y0055523D01*
X0123390Y0055517D01*
X0123327Y0055515D01*
X0121927Y0055515D01*
X0119388Y0055515D02*
X0119388Y0061815D01*
X0121927Y0059715D02*
X0123327Y0059715D01*
X0123390Y0059713D01*
X0123454Y0059707D01*
X0123516Y0059698D01*
X0123578Y0059684D01*
X0123639Y0059667D01*
X0123699Y0059647D01*
X0123758Y0059622D01*
X0123815Y0059595D01*
X0123870Y0059564D01*
X0123923Y0059529D01*
X0123975Y0059492D01*
X0124023Y0059451D01*
X0124069Y0059407D01*
X0124113Y0059361D01*
X0124154Y0059313D01*
X0124191Y0059261D01*
X0124226Y0059208D01*
X0124257Y0059153D01*
X0124284Y0059096D01*
X0124309Y0059037D01*
X0124329Y0058977D01*
X0124346Y0058916D01*
X0124360Y0058854D01*
X0124369Y0058792D01*
X0124375Y0058728D01*
X0124377Y0058665D01*
X0119388Y0057615D02*
X0116588Y0059715D01*
X0118163Y0058490D02*
X0116588Y0055515D01*
X0110694Y0055515D02*
X0110694Y0061815D01*
X0108944Y0061815D01*
X0108862Y0061813D01*
X0108780Y0061807D01*
X0108699Y0061798D01*
X0108618Y0061784D01*
X0108537Y0061767D01*
X0108458Y0061746D01*
X0108380Y0061722D01*
X0108303Y0061693D01*
X0108227Y0061661D01*
X0108153Y0061626D01*
X0108081Y0061587D01*
X0108010Y0061545D01*
X0107942Y0061500D01*
X0107876Y0061451D01*
X0107812Y0061400D01*
X0107751Y0061345D01*
X0107692Y0061288D01*
X0107636Y0061228D01*
X0107583Y0061165D01*
X0107533Y0061100D01*
X0107486Y0061033D01*
X0107442Y0060964D01*
X0107402Y0060892D01*
X0107365Y0060819D01*
X0107331Y0060744D01*
X0107301Y0060668D01*
X0107275Y0060590D01*
X0107252Y0060511D01*
X0107233Y0060432D01*
X0107218Y0060351D01*
X0107206Y0060270D01*
X0107198Y0060188D01*
X0107194Y0060106D01*
X0107194Y0060024D01*
X0107198Y0059942D01*
X0107206Y0059860D01*
X0107218Y0059779D01*
X0107233Y0059698D01*
X0107252Y0059619D01*
X0107275Y0059540D01*
X0107301Y0059462D01*
X0107331Y0059386D01*
X0107365Y0059311D01*
X0107402Y0059238D01*
X0107442Y0059166D01*
X0107486Y0059097D01*
X0107533Y0059030D01*
X0107583Y0058965D01*
X0107636Y0058902D01*
X0107692Y0058842D01*
X0107751Y0058785D01*
X0107812Y0058730D01*
X0107876Y0058679D01*
X0107942Y0058630D01*
X0108010Y0058585D01*
X0108081Y0058543D01*
X0108153Y0058504D01*
X0108227Y0058469D01*
X0108303Y0058437D01*
X0108380Y0058408D01*
X0108458Y0058384D01*
X0108537Y0058363D01*
X0108618Y0058346D01*
X0108699Y0058332D01*
X0108780Y0058323D01*
X0108862Y0058317D01*
X0108944Y0058315D01*
X0110694Y0058315D01*
X0104897Y0058315D02*
X0104897Y0056915D01*
X0104895Y0056842D01*
X0104889Y0056769D01*
X0104880Y0056696D01*
X0104866Y0056624D01*
X0104849Y0056553D01*
X0104828Y0056482D01*
X0104804Y0056413D01*
X0104776Y0056346D01*
X0104744Y0056279D01*
X0104709Y0056215D01*
X0104671Y0056153D01*
X0104630Y0056092D01*
X0104585Y0056034D01*
X0104537Y0055978D01*
X0104487Y0055925D01*
X0104434Y0055875D01*
X0104378Y0055827D01*
X0104320Y0055782D01*
X0104259Y0055741D01*
X0104197Y0055703D01*
X0104133Y0055668D01*
X0104066Y0055636D01*
X0103999Y0055608D01*
X0103930Y0055584D01*
X0103859Y0055563D01*
X0103788Y0055546D01*
X0103716Y0055532D01*
X0103643Y0055523D01*
X0103570Y0055517D01*
X0103497Y0055515D01*
X0103424Y0055517D01*
X0103351Y0055523D01*
X0103278Y0055532D01*
X0103206Y0055546D01*
X0103135Y0055563D01*
X0103064Y0055584D01*
X0102995Y0055608D01*
X0102928Y0055636D01*
X0102861Y0055668D01*
X0102797Y0055703D01*
X0102735Y0055741D01*
X0102674Y0055782D01*
X0102616Y0055827D01*
X0102560Y0055875D01*
X0102507Y0055925D01*
X0102457Y0055978D01*
X0102409Y0056034D01*
X0102364Y0056092D01*
X0102323Y0056153D01*
X0102285Y0056215D01*
X0102250Y0056279D01*
X0102218Y0056346D01*
X0102190Y0056413D01*
X0102166Y0056482D01*
X0102145Y0056553D01*
X0102128Y0056624D01*
X0102114Y0056696D01*
X0102105Y0056769D01*
X0102099Y0056842D01*
X0102097Y0056915D01*
X0102097Y0058315D01*
X0102099Y0058388D01*
X0102105Y0058461D01*
X0102114Y0058534D01*
X0102128Y0058606D01*
X0102145Y0058677D01*
X0102166Y0058748D01*
X0102190Y0058817D01*
X0102218Y0058884D01*
X0102250Y0058951D01*
X0102285Y0059015D01*
X0102323Y0059077D01*
X0102364Y0059138D01*
X0102409Y0059196D01*
X0102457Y0059252D01*
X0102507Y0059305D01*
X0102560Y0059355D01*
X0102616Y0059403D01*
X0102674Y0059448D01*
X0102735Y0059489D01*
X0102797Y0059527D01*
X0102861Y0059562D01*
X0102928Y0059594D01*
X0102995Y0059622D01*
X0103064Y0059646D01*
X0103135Y0059667D01*
X0103206Y0059684D01*
X0103278Y0059698D01*
X0103351Y0059707D01*
X0103424Y0059713D01*
X0103497Y0059715D01*
X0103570Y0059713D01*
X0103643Y0059707D01*
X0103716Y0059698D01*
X0103788Y0059684D01*
X0103859Y0059667D01*
X0103930Y0059646D01*
X0103999Y0059622D01*
X0104066Y0059594D01*
X0104133Y0059562D01*
X0104197Y0059527D01*
X0104259Y0059489D01*
X0104320Y0059448D01*
X0104378Y0059403D01*
X0104434Y0059355D01*
X0104487Y0059305D01*
X0104537Y0059252D01*
X0104585Y0059196D01*
X0104630Y0059138D01*
X0104671Y0059077D01*
X0104709Y0059015D01*
X0104744Y0058951D01*
X0104776Y0058884D01*
X0104804Y0058817D01*
X0104828Y0058748D01*
X0104849Y0058677D01*
X0104866Y0058606D01*
X0104880Y0058534D01*
X0104889Y0058461D01*
X0104895Y0058388D01*
X0104897Y0058315D01*
X0099648Y0059715D02*
X0098598Y0055515D01*
X0097548Y0058315D01*
X0096498Y0055515D01*
X0095448Y0059715D01*
X0092999Y0058315D02*
X0092999Y0056565D01*
X0092997Y0056502D01*
X0092991Y0056438D01*
X0092982Y0056376D01*
X0092968Y0056314D01*
X0092951Y0056253D01*
X0092931Y0056193D01*
X0092906Y0056134D01*
X0092879Y0056077D01*
X0092848Y0056022D01*
X0092813Y0055969D01*
X0092776Y0055917D01*
X0092735Y0055869D01*
X0092691Y0055823D01*
X0092645Y0055779D01*
X0092597Y0055738D01*
X0092545Y0055701D01*
X0092492Y0055666D01*
X0092437Y0055635D01*
X0092380Y0055608D01*
X0092321Y0055583D01*
X0092261Y0055563D01*
X0092200Y0055546D01*
X0092138Y0055532D01*
X0092076Y0055523D01*
X0092012Y0055517D01*
X0091949Y0055515D01*
X0090199Y0055515D01*
X0087424Y0055515D02*
X0087424Y0059715D01*
X0085324Y0059715D01*
X0085324Y0059015D01*
X0090199Y0058315D02*
X0090199Y0057615D01*
X0092999Y0057615D01*
X0092999Y0058315D02*
X0092997Y0058388D01*
X0092991Y0058461D01*
X0092982Y0058534D01*
X0092968Y0058606D01*
X0092951Y0058677D01*
X0092930Y0058748D01*
X0092906Y0058817D01*
X0092878Y0058884D01*
X0092846Y0058951D01*
X0092811Y0059015D01*
X0092773Y0059077D01*
X0092732Y0059138D01*
X0092687Y0059196D01*
X0092639Y0059252D01*
X0092589Y0059305D01*
X0092536Y0059355D01*
X0092480Y0059403D01*
X0092422Y0059448D01*
X0092361Y0059489D01*
X0092299Y0059527D01*
X0092235Y0059562D01*
X0092168Y0059594D01*
X0092101Y0059622D01*
X0092032Y0059646D01*
X0091961Y0059667D01*
X0091890Y0059684D01*
X0091818Y0059698D01*
X0091745Y0059707D01*
X0091672Y0059713D01*
X0091599Y0059715D01*
X0091526Y0059713D01*
X0091453Y0059707D01*
X0091380Y0059698D01*
X0091308Y0059684D01*
X0091237Y0059667D01*
X0091166Y0059646D01*
X0091097Y0059622D01*
X0091030Y0059594D01*
X0090963Y0059562D01*
X0090899Y0059527D01*
X0090837Y0059489D01*
X0090776Y0059448D01*
X0090718Y0059403D01*
X0090662Y0059355D01*
X0090609Y0059305D01*
X0090559Y0059252D01*
X0090511Y0059196D01*
X0090466Y0059138D01*
X0090425Y0059077D01*
X0090387Y0059015D01*
X0090352Y0058951D01*
X0090320Y0058884D01*
X0090292Y0058817D01*
X0090268Y0058748D01*
X0090247Y0058677D01*
X0090230Y0058606D01*
X0090216Y0058534D01*
X0090207Y0058461D01*
X0090201Y0058388D01*
X0090199Y0058315D01*
X0079346Y0059190D02*
X0077421Y0058140D01*
X0078121Y0055514D02*
X0078227Y0055516D01*
X0078333Y0055522D01*
X0078439Y0055531D01*
X0078544Y0055544D01*
X0078649Y0055561D01*
X0078753Y0055582D01*
X0078856Y0055607D01*
X0078959Y0055635D01*
X0079060Y0055667D01*
X0079160Y0055702D01*
X0079259Y0055742D01*
X0079356Y0055784D01*
X0079452Y0055830D01*
X0079546Y0055880D01*
X0079638Y0055932D01*
X0079728Y0055988D01*
X0079816Y0056048D01*
X0079902Y0056110D01*
X0079985Y0056175D01*
X0080067Y0056244D01*
X0080145Y0056315D01*
X0080221Y0056389D01*
X0077421Y0058140D02*
X0077358Y0058101D01*
X0077298Y0058059D01*
X0077240Y0058013D01*
X0077184Y0057965D01*
X0077131Y0057914D01*
X0077080Y0057860D01*
X0077033Y0057803D01*
X0076988Y0057745D01*
X0076947Y0057684D01*
X0076908Y0057621D01*
X0076873Y0057555D01*
X0076842Y0057489D01*
X0076814Y0057420D01*
X0076789Y0057351D01*
X0076769Y0057280D01*
X0076752Y0057208D01*
X0076738Y0057136D01*
X0076729Y0057062D01*
X0076723Y0056989D01*
X0076721Y0056915D01*
X0076723Y0056842D01*
X0076729Y0056769D01*
X0076738Y0056696D01*
X0076752Y0056624D01*
X0076769Y0056553D01*
X0076790Y0056482D01*
X0076814Y0056413D01*
X0076842Y0056346D01*
X0076874Y0056279D01*
X0076909Y0056215D01*
X0076947Y0056153D01*
X0076988Y0056092D01*
X0077033Y0056034D01*
X0077081Y0055978D01*
X0077131Y0055925D01*
X0077184Y0055875D01*
X0077240Y0055827D01*
X0077298Y0055782D01*
X0077359Y0055741D01*
X0077421Y0055703D01*
X0077485Y0055668D01*
X0077552Y0055636D01*
X0077619Y0055608D01*
X0077688Y0055584D01*
X0077759Y0055563D01*
X0077830Y0055546D01*
X0077902Y0055532D01*
X0077975Y0055523D01*
X0078048Y0055517D01*
X0078121Y0055515D01*
X0074127Y0056565D02*
X0074127Y0059715D01*
X0071327Y0059715D02*
X0071327Y0055515D01*
X0073077Y0055515D01*
X0073140Y0055517D01*
X0073204Y0055523D01*
X0073266Y0055532D01*
X0073328Y0055546D01*
X0073389Y0055563D01*
X0073449Y0055583D01*
X0073508Y0055608D01*
X0073565Y0055635D01*
X0073620Y0055666D01*
X0073673Y0055701D01*
X0073725Y0055738D01*
X0073773Y0055779D01*
X0073819Y0055823D01*
X0073863Y0055869D01*
X0073904Y0055917D01*
X0073941Y0055969D01*
X0073976Y0056022D01*
X0074007Y0056077D01*
X0074034Y0056134D01*
X0074059Y0056193D01*
X0074079Y0056253D01*
X0074096Y0056314D01*
X0074110Y0056376D01*
X0074119Y0056438D01*
X0074125Y0056502D01*
X0074127Y0056565D01*
X0068351Y0055515D02*
X0066601Y0055515D01*
X0066538Y0055517D01*
X0066474Y0055523D01*
X0066412Y0055532D01*
X0066350Y0055546D01*
X0066289Y0055563D01*
X0066229Y0055583D01*
X0066170Y0055608D01*
X0066113Y0055635D01*
X0066058Y0055666D01*
X0066005Y0055701D01*
X0065953Y0055738D01*
X0065905Y0055779D01*
X0065859Y0055823D01*
X0065815Y0055869D01*
X0065774Y0055917D01*
X0065737Y0055969D01*
X0065702Y0056022D01*
X0065671Y0056077D01*
X0065644Y0056134D01*
X0065619Y0056193D01*
X0065599Y0056253D01*
X0065582Y0056314D01*
X0065568Y0056376D01*
X0065559Y0056438D01*
X0065553Y0056502D01*
X0065551Y0056565D01*
X0065551Y0058665D01*
X0065553Y0058728D01*
X0065559Y0058792D01*
X0065568Y0058854D01*
X0065582Y0058916D01*
X0065599Y0058977D01*
X0065619Y0059037D01*
X0065644Y0059096D01*
X0065671Y0059153D01*
X0065702Y0059208D01*
X0065737Y0059261D01*
X0065774Y0059313D01*
X0065815Y0059361D01*
X0065859Y0059407D01*
X0065905Y0059451D01*
X0065953Y0059492D01*
X0066005Y0059529D01*
X0066058Y0059564D01*
X0066113Y0059595D01*
X0066170Y0059622D01*
X0066229Y0059647D01*
X0066289Y0059667D01*
X0066350Y0059684D01*
X0066412Y0059698D01*
X0066474Y0059707D01*
X0066538Y0059713D01*
X0066601Y0059715D01*
X0068351Y0059715D01*
X0068351Y0053415D01*
X0062813Y0053415D02*
X0062813Y0059715D01*
X0061063Y0059715D01*
X0061000Y0059713D01*
X0060936Y0059707D01*
X0060874Y0059698D01*
X0060812Y0059684D01*
X0060751Y0059667D01*
X0060691Y0059647D01*
X0060632Y0059622D01*
X0060575Y0059595D01*
X0060520Y0059564D01*
X0060467Y0059529D01*
X0060415Y0059492D01*
X0060367Y0059451D01*
X0060321Y0059407D01*
X0060277Y0059361D01*
X0060236Y0059313D01*
X0060199Y0059261D01*
X0060164Y0059208D01*
X0060133Y0059153D01*
X0060106Y0059096D01*
X0060081Y0059037D01*
X0060061Y0058977D01*
X0060044Y0058916D01*
X0060030Y0058854D01*
X0060021Y0058792D01*
X0060015Y0058728D01*
X0060013Y0058665D01*
X0060013Y0056565D01*
X0060015Y0056502D01*
X0060021Y0056438D01*
X0060030Y0056376D01*
X0060044Y0056314D01*
X0060061Y0056253D01*
X0060081Y0056193D01*
X0060106Y0056134D01*
X0060133Y0056077D01*
X0060164Y0056022D01*
X0060199Y0055969D01*
X0060236Y0055917D01*
X0060277Y0055869D01*
X0060321Y0055823D01*
X0060367Y0055779D01*
X0060415Y0055738D01*
X0060467Y0055701D01*
X0060520Y0055666D01*
X0060575Y0055635D01*
X0060632Y0055608D01*
X0060691Y0055583D01*
X0060751Y0055563D01*
X0060812Y0055546D01*
X0060874Y0055532D01*
X0060936Y0055523D01*
X0061000Y0055517D01*
X0061063Y0055515D01*
X0062813Y0055515D01*
X0057429Y0056565D02*
X0057429Y0061815D01*
X0054434Y0059715D02*
X0053034Y0055515D01*
X0053734Y0053415D02*
X0051634Y0059715D01*
X0056379Y0055515D02*
X0056442Y0055517D01*
X0056506Y0055523D01*
X0056568Y0055532D01*
X0056630Y0055546D01*
X0056691Y0055563D01*
X0056751Y0055583D01*
X0056810Y0055608D01*
X0056867Y0055635D01*
X0056922Y0055666D01*
X0056975Y0055701D01*
X0057027Y0055738D01*
X0057075Y0055779D01*
X0057121Y0055823D01*
X0057165Y0055869D01*
X0057206Y0055917D01*
X0057243Y0055969D01*
X0057278Y0056022D01*
X0057309Y0056077D01*
X0057336Y0056134D01*
X0057361Y0056193D01*
X0057381Y0056253D01*
X0057398Y0056314D01*
X0057412Y0056376D01*
X0057421Y0056438D01*
X0057427Y0056502D01*
X0057429Y0056565D01*
X0054434Y0053415D02*
X0053734Y0053415D01*
X0077071Y0061290D02*
X0077152Y0061348D01*
X0077234Y0061403D01*
X0077319Y0061455D01*
X0077406Y0061504D01*
X0077494Y0061549D01*
X0077584Y0061591D01*
X0077676Y0061629D01*
X0077769Y0061664D01*
X0077863Y0061696D01*
X0077959Y0061723D01*
X0078055Y0061748D01*
X0078152Y0061768D01*
X0078250Y0061785D01*
X0078349Y0061798D01*
X0078447Y0061807D01*
X0078547Y0061813D01*
X0078646Y0061815D01*
X0078719Y0061813D01*
X0078792Y0061807D01*
X0078865Y0061798D01*
X0078937Y0061784D01*
X0079008Y0061767D01*
X0079079Y0061746D01*
X0079148Y0061722D01*
X0079215Y0061694D01*
X0079282Y0061662D01*
X0079346Y0061627D01*
X0079408Y0061589D01*
X0079469Y0061548D01*
X0079527Y0061503D01*
X0079583Y0061455D01*
X0079636Y0061405D01*
X0079686Y0061352D01*
X0079734Y0061296D01*
X0079779Y0061238D01*
X0079820Y0061177D01*
X0079858Y0061115D01*
X0079893Y0061051D01*
X0079925Y0060984D01*
X0079953Y0060917D01*
X0079977Y0060848D01*
X0079998Y0060777D01*
X0080015Y0060706D01*
X0080029Y0060634D01*
X0080038Y0060561D01*
X0080044Y0060488D01*
X0080046Y0060415D01*
X0080044Y0060341D01*
X0080038Y0060268D01*
X0080029Y0060194D01*
X0080015Y0060122D01*
X0079998Y0060050D01*
X0079978Y0059979D01*
X0079953Y0059910D01*
X0079925Y0059841D01*
X0079894Y0059775D01*
X0079859Y0059709D01*
X0079820Y0059646D01*
X0079779Y0059585D01*
X0079734Y0059527D01*
X0079687Y0059470D01*
X0079636Y0059416D01*
X0079583Y0059365D01*
X0079527Y0059317D01*
X0079469Y0059271D01*
X0079409Y0059229D01*
X0079346Y0059190D01*
X0121807Y0051315D02*
X0123557Y0051315D01*
X0123557Y0045015D01*
X0121807Y0045015D01*
X0121725Y0045017D01*
X0121643Y0045023D01*
X0121562Y0045032D01*
X0121481Y0045046D01*
X0121400Y0045063D01*
X0121321Y0045084D01*
X0121243Y0045108D01*
X0121166Y0045137D01*
X0121090Y0045169D01*
X0121016Y0045204D01*
X0120944Y0045243D01*
X0120873Y0045285D01*
X0120805Y0045330D01*
X0120739Y0045379D01*
X0120675Y0045430D01*
X0120614Y0045485D01*
X0120555Y0045542D01*
X0120499Y0045602D01*
X0120446Y0045665D01*
X0120396Y0045730D01*
X0120349Y0045797D01*
X0120305Y0045866D01*
X0120265Y0045938D01*
X0120228Y0046011D01*
X0120194Y0046086D01*
X0120164Y0046162D01*
X0120138Y0046240D01*
X0120115Y0046319D01*
X0120096Y0046398D01*
X0120081Y0046479D01*
X0120069Y0046560D01*
X0120061Y0046642D01*
X0120057Y0046724D01*
X0120057Y0046806D01*
X0120061Y0046888D01*
X0120069Y0046970D01*
X0120081Y0047051D01*
X0120096Y0047132D01*
X0120115Y0047211D01*
X0120138Y0047290D01*
X0120164Y0047368D01*
X0120194Y0047444D01*
X0120228Y0047519D01*
X0120265Y0047592D01*
X0120305Y0047664D01*
X0120349Y0047733D01*
X0120396Y0047800D01*
X0120446Y0047865D01*
X0120499Y0047928D01*
X0120555Y0047988D01*
X0120614Y0048045D01*
X0120675Y0048100D01*
X0120739Y0048151D01*
X0120805Y0048200D01*
X0120873Y0048245D01*
X0120944Y0048287D01*
X0121016Y0048326D01*
X0121090Y0048361D01*
X0121166Y0048393D01*
X0121243Y0048422D01*
X0121321Y0048446D01*
X0121400Y0048467D01*
X0121481Y0048484D01*
X0121562Y0048498D01*
X0121643Y0048507D01*
X0121725Y0048513D01*
X0121807Y0048515D01*
X0123557Y0048515D01*
X0121807Y0048515D02*
X0121734Y0048517D01*
X0121661Y0048523D01*
X0121588Y0048532D01*
X0121516Y0048546D01*
X0121445Y0048563D01*
X0121374Y0048584D01*
X0121305Y0048608D01*
X0121238Y0048636D01*
X0121171Y0048668D01*
X0121107Y0048703D01*
X0121045Y0048741D01*
X0120984Y0048782D01*
X0120926Y0048827D01*
X0120870Y0048875D01*
X0120817Y0048925D01*
X0120767Y0048978D01*
X0120719Y0049034D01*
X0120674Y0049092D01*
X0120633Y0049153D01*
X0120595Y0049215D01*
X0120560Y0049279D01*
X0120528Y0049346D01*
X0120500Y0049413D01*
X0120476Y0049482D01*
X0120455Y0049553D01*
X0120438Y0049624D01*
X0120424Y0049696D01*
X0120415Y0049769D01*
X0120409Y0049842D01*
X0120407Y0049915D01*
X0120409Y0049988D01*
X0120415Y0050061D01*
X0120424Y0050134D01*
X0120438Y0050206D01*
X0120455Y0050277D01*
X0120476Y0050348D01*
X0120500Y0050417D01*
X0120528Y0050484D01*
X0120560Y0050551D01*
X0120595Y0050615D01*
X0120633Y0050677D01*
X0120674Y0050738D01*
X0120719Y0050796D01*
X0120767Y0050852D01*
X0120817Y0050905D01*
X0120870Y0050955D01*
X0120926Y0051003D01*
X0120984Y0051048D01*
X0121045Y0051089D01*
X0121107Y0051127D01*
X0121171Y0051162D01*
X0121238Y0051194D01*
X0121305Y0051222D01*
X0121374Y0051246D01*
X0121445Y0051267D01*
X0121516Y0051284D01*
X0121588Y0051298D01*
X0121661Y0051307D01*
X0121734Y0051313D01*
X0121807Y0051315D01*
X0126713Y0049565D02*
X0126713Y0046765D01*
X0126715Y0046684D01*
X0126720Y0046604D01*
X0126730Y0046523D01*
X0126743Y0046443D01*
X0126759Y0046364D01*
X0126780Y0046286D01*
X0126804Y0046209D01*
X0126831Y0046133D01*
X0126862Y0046058D01*
X0126896Y0045985D01*
X0126934Y0045913D01*
X0126975Y0045844D01*
X0127019Y0045776D01*
X0127066Y0045710D01*
X0127117Y0045647D01*
X0127170Y0045586D01*
X0127226Y0045528D01*
X0127284Y0045472D01*
X0127345Y0045419D01*
X0127408Y0045368D01*
X0127474Y0045321D01*
X0127542Y0045277D01*
X0127611Y0045236D01*
X0127683Y0045198D01*
X0127756Y0045164D01*
X0127831Y0045133D01*
X0127907Y0045106D01*
X0127984Y0045082D01*
X0128062Y0045061D01*
X0128141Y0045045D01*
X0128221Y0045032D01*
X0128302Y0045022D01*
X0128382Y0045017D01*
X0128463Y0045015D01*
X0130213Y0045015D01*
X0130213Y0051315D01*
X0128463Y0051315D01*
X0128382Y0051313D01*
X0128302Y0051308D01*
X0128221Y0051298D01*
X0128141Y0051285D01*
X0128062Y0051269D01*
X0127984Y0051248D01*
X0127907Y0051224D01*
X0127831Y0051197D01*
X0127756Y0051166D01*
X0127683Y0051132D01*
X0127611Y0051094D01*
X0127542Y0051053D01*
X0127474Y0051009D01*
X0127408Y0050962D01*
X0127345Y0050911D01*
X0127284Y0050858D01*
X0127226Y0050802D01*
X0127170Y0050744D01*
X0127117Y0050683D01*
X0127066Y0050620D01*
X0127019Y0050554D01*
X0126975Y0050486D01*
X0126934Y0050417D01*
X0126896Y0050345D01*
X0126862Y0050272D01*
X0126831Y0050197D01*
X0126804Y0050121D01*
X0126780Y0050044D01*
X0126759Y0049966D01*
X0126743Y0049887D01*
X0126730Y0049807D01*
X0126720Y0049726D01*
X0126715Y0049646D01*
X0126713Y0049565D01*
X0141850Y0055515D02*
X0143250Y0055515D01*
X0143323Y0055517D01*
X0143396Y0055523D01*
X0143469Y0055532D01*
X0143541Y0055546D01*
X0143612Y0055563D01*
X0143683Y0055584D01*
X0143752Y0055608D01*
X0143819Y0055636D01*
X0143886Y0055668D01*
X0143950Y0055703D01*
X0144012Y0055741D01*
X0144073Y0055782D01*
X0144131Y0055827D01*
X0144187Y0055875D01*
X0144240Y0055925D01*
X0144290Y0055978D01*
X0144338Y0056034D01*
X0144383Y0056092D01*
X0144424Y0056153D01*
X0144462Y0056215D01*
X0144497Y0056279D01*
X0144529Y0056346D01*
X0144557Y0056413D01*
X0144581Y0056482D01*
X0144602Y0056553D01*
X0144619Y0056624D01*
X0144633Y0056696D01*
X0144642Y0056769D01*
X0144648Y0056842D01*
X0144650Y0056915D01*
X0160517Y0055515D02*
X0161917Y0055515D01*
X0161990Y0055517D01*
X0162063Y0055523D01*
X0162136Y0055532D01*
X0162208Y0055546D01*
X0162279Y0055563D01*
X0162350Y0055584D01*
X0162419Y0055608D01*
X0162486Y0055636D01*
X0162553Y0055668D01*
X0162617Y0055703D01*
X0162679Y0055741D01*
X0162740Y0055782D01*
X0162798Y0055827D01*
X0162854Y0055875D01*
X0162907Y0055925D01*
X0162957Y0055978D01*
X0163005Y0056034D01*
X0163050Y0056092D01*
X0163091Y0056153D01*
X0163129Y0056215D01*
X0163164Y0056279D01*
X0163196Y0056346D01*
X0163224Y0056413D01*
X0163248Y0056482D01*
X0163269Y0056553D01*
X0163286Y0056624D01*
X0163300Y0056696D01*
X0163309Y0056769D01*
X0163315Y0056842D01*
X0163317Y0056915D01*
X0175740Y0057615D02*
X0178540Y0057615D01*
X0178540Y0058315D02*
X0178540Y0056565D01*
X0178538Y0056502D01*
X0178532Y0056438D01*
X0178523Y0056376D01*
X0178509Y0056314D01*
X0178492Y0056253D01*
X0178472Y0056193D01*
X0178447Y0056134D01*
X0178420Y0056077D01*
X0178389Y0056022D01*
X0178354Y0055969D01*
X0178317Y0055917D01*
X0178276Y0055869D01*
X0178232Y0055823D01*
X0178186Y0055779D01*
X0178138Y0055738D01*
X0178086Y0055701D01*
X0178033Y0055666D01*
X0177978Y0055635D01*
X0177921Y0055608D01*
X0177862Y0055583D01*
X0177802Y0055563D01*
X0177741Y0055546D01*
X0177679Y0055532D01*
X0177617Y0055523D01*
X0177553Y0055517D01*
X0177490Y0055515D01*
X0175740Y0055515D01*
X0175740Y0057615D02*
X0175740Y0058315D01*
X0175742Y0058388D01*
X0175748Y0058461D01*
X0175757Y0058534D01*
X0175771Y0058606D01*
X0175788Y0058677D01*
X0175809Y0058748D01*
X0175833Y0058817D01*
X0175861Y0058884D01*
X0175893Y0058951D01*
X0175928Y0059015D01*
X0175966Y0059077D01*
X0176007Y0059138D01*
X0176052Y0059196D01*
X0176100Y0059252D01*
X0176150Y0059305D01*
X0176203Y0059355D01*
X0176259Y0059403D01*
X0176317Y0059448D01*
X0176378Y0059489D01*
X0176440Y0059527D01*
X0176504Y0059562D01*
X0176571Y0059594D01*
X0176638Y0059622D01*
X0176707Y0059646D01*
X0176778Y0059667D01*
X0176849Y0059684D01*
X0176921Y0059698D01*
X0176994Y0059707D01*
X0177067Y0059713D01*
X0177140Y0059715D01*
X0177213Y0059713D01*
X0177286Y0059707D01*
X0177359Y0059698D01*
X0177431Y0059684D01*
X0177502Y0059667D01*
X0177573Y0059646D01*
X0177642Y0059622D01*
X0177709Y0059594D01*
X0177776Y0059562D01*
X0177840Y0059527D01*
X0177902Y0059489D01*
X0177963Y0059448D01*
X0178021Y0059403D01*
X0178077Y0059355D01*
X0178130Y0059305D01*
X0178180Y0059252D01*
X0178228Y0059196D01*
X0178273Y0059138D01*
X0178314Y0059077D01*
X0178352Y0059015D01*
X0178387Y0058951D01*
X0178419Y0058884D01*
X0178447Y0058817D01*
X0178471Y0058748D01*
X0178492Y0058677D01*
X0178509Y0058606D01*
X0178523Y0058534D01*
X0178532Y0058461D01*
X0178538Y0058388D01*
X0178540Y0058315D01*
X0180690Y0055515D02*
X0180753Y0055517D01*
X0180817Y0055523D01*
X0180879Y0055532D01*
X0180941Y0055546D01*
X0181002Y0055563D01*
X0181062Y0055583D01*
X0181121Y0055608D01*
X0181178Y0055635D01*
X0181233Y0055666D01*
X0181286Y0055701D01*
X0181338Y0055738D01*
X0181386Y0055779D01*
X0181432Y0055823D01*
X0181476Y0055869D01*
X0181517Y0055917D01*
X0181554Y0055969D01*
X0181589Y0056022D01*
X0181620Y0056077D01*
X0181647Y0056134D01*
X0181672Y0056193D01*
X0181692Y0056253D01*
X0181709Y0056314D01*
X0181723Y0056376D01*
X0181732Y0056438D01*
X0181738Y0056502D01*
X0181740Y0056565D01*
X0181740Y0061815D01*
X0185374Y0059715D02*
X0187124Y0059715D01*
X0185374Y0059715D02*
X0185311Y0059713D01*
X0185247Y0059707D01*
X0185185Y0059698D01*
X0185123Y0059684D01*
X0185062Y0059667D01*
X0185002Y0059647D01*
X0184943Y0059622D01*
X0184886Y0059595D01*
X0184831Y0059564D01*
X0184778Y0059529D01*
X0184726Y0059492D01*
X0184678Y0059451D01*
X0184632Y0059407D01*
X0184588Y0059361D01*
X0184547Y0059313D01*
X0184510Y0059261D01*
X0184475Y0059208D01*
X0184444Y0059153D01*
X0184417Y0059096D01*
X0184392Y0059037D01*
X0184372Y0058977D01*
X0184355Y0058916D01*
X0184341Y0058854D01*
X0184332Y0058792D01*
X0184326Y0058728D01*
X0184324Y0058665D01*
X0184324Y0056565D01*
X0184326Y0056502D01*
X0184332Y0056438D01*
X0184341Y0056376D01*
X0184355Y0056314D01*
X0184372Y0056253D01*
X0184392Y0056193D01*
X0184417Y0056134D01*
X0184444Y0056077D01*
X0184475Y0056022D01*
X0184510Y0055969D01*
X0184547Y0055917D01*
X0184588Y0055869D01*
X0184632Y0055823D01*
X0184678Y0055779D01*
X0184726Y0055738D01*
X0184778Y0055701D01*
X0184831Y0055666D01*
X0184886Y0055635D01*
X0184943Y0055608D01*
X0185002Y0055583D01*
X0185062Y0055563D01*
X0185123Y0055546D01*
X0185185Y0055532D01*
X0185247Y0055523D01*
X0185311Y0055517D01*
X0185374Y0055515D01*
X0187124Y0055515D01*
X0187124Y0061815D01*
X0191181Y0059715D02*
X0192581Y0059715D01*
X0191181Y0059715D02*
X0191118Y0059713D01*
X0191054Y0059707D01*
X0190992Y0059698D01*
X0190930Y0059684D01*
X0190869Y0059667D01*
X0190809Y0059647D01*
X0190750Y0059622D01*
X0190693Y0059595D01*
X0190638Y0059564D01*
X0190585Y0059529D01*
X0190533Y0059492D01*
X0190485Y0059451D01*
X0190439Y0059407D01*
X0190395Y0059361D01*
X0190354Y0059313D01*
X0190317Y0059261D01*
X0190282Y0059208D01*
X0190251Y0059153D01*
X0190224Y0059096D01*
X0190199Y0059037D01*
X0190179Y0058977D01*
X0190162Y0058916D01*
X0190148Y0058854D01*
X0190139Y0058792D01*
X0190133Y0058728D01*
X0190131Y0058665D01*
X0190131Y0055515D01*
X0191706Y0055515D01*
X0195218Y0055515D02*
X0195568Y0055515D01*
X0195631Y0055517D01*
X0195695Y0055523D01*
X0195757Y0055532D01*
X0195819Y0055546D01*
X0195880Y0055563D01*
X0195940Y0055583D01*
X0195999Y0055608D01*
X0196056Y0055635D01*
X0196111Y0055666D01*
X0196164Y0055701D01*
X0196216Y0055738D01*
X0196264Y0055779D01*
X0196310Y0055823D01*
X0196354Y0055869D01*
X0196395Y0055917D01*
X0196432Y0055969D01*
X0196467Y0056022D01*
X0196498Y0056077D01*
X0196525Y0056134D01*
X0196550Y0056193D01*
X0196570Y0056253D01*
X0196587Y0056314D01*
X0196601Y0056376D01*
X0196610Y0056438D01*
X0196616Y0056502D01*
X0196618Y0056565D01*
X0196618Y0061815D01*
X0200206Y0055515D02*
X0200357Y0055519D01*
X0200508Y0055527D01*
X0200659Y0055538D01*
X0200809Y0055554D01*
X0200959Y0055573D01*
X0201108Y0055597D01*
X0201257Y0055624D01*
X0201405Y0055655D01*
X0201552Y0055689D01*
X0201699Y0055727D01*
X0201844Y0055770D01*
X0201988Y0055815D01*
X0202131Y0055865D01*
X0201255Y0059715D02*
X0201130Y0059711D01*
X0201006Y0059703D01*
X0200881Y0059692D01*
X0200757Y0059676D01*
X0200634Y0059657D01*
X0200511Y0059633D01*
X0200389Y0059606D01*
X0200268Y0059575D01*
X0200148Y0059541D01*
X0200029Y0059502D01*
X0199911Y0059460D01*
X0199795Y0059414D01*
X0199680Y0059365D01*
X0201256Y0059715D02*
X0201316Y0059714D01*
X0201376Y0059709D01*
X0201435Y0059700D01*
X0201494Y0059687D01*
X0201551Y0059670D01*
X0201608Y0059649D01*
X0201663Y0059625D01*
X0201716Y0059598D01*
X0201767Y0059566D01*
X0201816Y0059532D01*
X0201863Y0059494D01*
X0201907Y0059453D01*
X0201948Y0059410D01*
X0201986Y0059364D01*
X0202022Y0059315D01*
X0202053Y0059264D01*
X0202082Y0059212D01*
X0202107Y0059157D01*
X0202128Y0059101D01*
X0202146Y0059043D01*
X0202159Y0058985D01*
X0202169Y0058926D01*
X0202175Y0058866D01*
X0202177Y0058806D01*
X0202175Y0058746D01*
X0202169Y0058687D01*
X0202159Y0058627D01*
X0202145Y0058569D01*
X0202128Y0058512D01*
X0202106Y0058456D01*
X0202081Y0058401D01*
X0202053Y0058348D01*
X0202021Y0058298D01*
X0201985Y0058249D01*
X0201947Y0058203D01*
X0201906Y0058160D01*
X0201861Y0058119D01*
X0201815Y0058081D01*
X0201766Y0058047D01*
X0201714Y0058016D01*
X0201661Y0057988D01*
X0201606Y0057964D01*
X0201606Y0057965D02*
X0199856Y0057265D01*
X0199801Y0057241D01*
X0199748Y0057213D01*
X0199696Y0057182D01*
X0199647Y0057148D01*
X0199601Y0057110D01*
X0199556Y0057069D01*
X0199515Y0057026D01*
X0199477Y0056980D01*
X0199441Y0056931D01*
X0199409Y0056881D01*
X0199381Y0056828D01*
X0199356Y0056773D01*
X0199334Y0056717D01*
X0199317Y0056660D01*
X0199303Y0056602D01*
X0199293Y0056542D01*
X0199287Y0056483D01*
X0199285Y0056423D01*
X0199287Y0056363D01*
X0199293Y0056303D01*
X0199303Y0056244D01*
X0199316Y0056186D01*
X0199334Y0056128D01*
X0199355Y0056072D01*
X0199380Y0056017D01*
X0199409Y0055965D01*
X0199440Y0055914D01*
X0199476Y0055865D01*
X0199514Y0055819D01*
X0199555Y0055776D01*
X0199599Y0055735D01*
X0199646Y0055697D01*
X0199695Y0055663D01*
X0199746Y0055631D01*
X0199799Y0055604D01*
X0199854Y0055580D01*
X0199911Y0055559D01*
X0199968Y0055542D01*
X0200027Y0055529D01*
X0200086Y0055520D01*
X0200146Y0055515D01*
X0200206Y0055514D01*
X0204869Y0055515D02*
X0204869Y0059715D01*
X0207669Y0059715D02*
X0207669Y0056565D01*
X0207667Y0056502D01*
X0207661Y0056438D01*
X0207652Y0056376D01*
X0207638Y0056314D01*
X0207621Y0056253D01*
X0207601Y0056193D01*
X0207576Y0056134D01*
X0207549Y0056077D01*
X0207518Y0056022D01*
X0207483Y0055969D01*
X0207446Y0055917D01*
X0207405Y0055869D01*
X0207361Y0055823D01*
X0207315Y0055779D01*
X0207267Y0055738D01*
X0207215Y0055701D01*
X0207162Y0055666D01*
X0207107Y0055635D01*
X0207050Y0055608D01*
X0206991Y0055583D01*
X0206931Y0055563D01*
X0206870Y0055546D01*
X0206808Y0055532D01*
X0206746Y0055523D01*
X0206682Y0055517D01*
X0206619Y0055515D01*
X0204869Y0055515D01*
X0210477Y0054465D02*
X0210477Y0059715D01*
X0213106Y0059715D02*
X0214856Y0059715D01*
X0214919Y0059713D01*
X0214983Y0059707D01*
X0215045Y0059698D01*
X0215107Y0059684D01*
X0215168Y0059667D01*
X0215228Y0059647D01*
X0215287Y0059622D01*
X0215344Y0059595D01*
X0215399Y0059564D01*
X0215452Y0059529D01*
X0215504Y0059492D01*
X0215552Y0059451D01*
X0215598Y0059407D01*
X0215642Y0059361D01*
X0215683Y0059313D01*
X0215720Y0059261D01*
X0215755Y0059208D01*
X0215786Y0059153D01*
X0215813Y0059096D01*
X0215838Y0059037D01*
X0215858Y0058977D01*
X0215875Y0058916D01*
X0215889Y0058854D01*
X0215898Y0058792D01*
X0215904Y0058728D01*
X0215906Y0058665D01*
X0215906Y0056565D01*
X0215904Y0056502D01*
X0215898Y0056438D01*
X0215889Y0056376D01*
X0215875Y0056314D01*
X0215858Y0056253D01*
X0215838Y0056193D01*
X0215813Y0056134D01*
X0215786Y0056077D01*
X0215755Y0056022D01*
X0215720Y0055969D01*
X0215683Y0055917D01*
X0215642Y0055869D01*
X0215598Y0055823D01*
X0215552Y0055779D01*
X0215504Y0055738D01*
X0215452Y0055701D01*
X0215399Y0055666D01*
X0215344Y0055635D01*
X0215287Y0055608D01*
X0215228Y0055583D01*
X0215168Y0055563D01*
X0215107Y0055546D01*
X0215045Y0055532D01*
X0214983Y0055523D01*
X0214919Y0055517D01*
X0214856Y0055515D01*
X0213106Y0055515D01*
X0213106Y0061815D01*
X0210652Y0061815D02*
X0210302Y0061815D01*
X0210302Y0061465D01*
X0210652Y0061465D01*
X0210652Y0061815D01*
X0220218Y0061815D02*
X0218118Y0055515D01*
X0218643Y0057090D02*
X0221793Y0057090D01*
X0222318Y0055515D02*
X0220218Y0061815D01*
X0211527Y0053415D02*
X0211464Y0053417D01*
X0211400Y0053423D01*
X0211338Y0053432D01*
X0211276Y0053446D01*
X0211215Y0053463D01*
X0211155Y0053483D01*
X0211096Y0053508D01*
X0211039Y0053535D01*
X0210984Y0053566D01*
X0210931Y0053601D01*
X0210879Y0053638D01*
X0210831Y0053679D01*
X0210785Y0053723D01*
X0210741Y0053769D01*
X0210700Y0053817D01*
X0210663Y0053869D01*
X0210628Y0053922D01*
X0210597Y0053977D01*
X0210570Y0054034D01*
X0210545Y0054093D01*
X0210525Y0054153D01*
X0210508Y0054214D01*
X0210494Y0054276D01*
X0210485Y0054338D01*
X0210479Y0054402D01*
X0210477Y0054465D01*
X0211527Y0053415D02*
X0211877Y0053415D01*
X0218818Y0051315D02*
X0218818Y0045015D01*
X0222318Y0051315D01*
X0222318Y0045015D01*
X0216019Y0046415D02*
X0216019Y0047815D01*
X0216017Y0047888D01*
X0216011Y0047961D01*
X0216002Y0048034D01*
X0215988Y0048106D01*
X0215971Y0048177D01*
X0215950Y0048248D01*
X0215926Y0048317D01*
X0215898Y0048384D01*
X0215866Y0048451D01*
X0215831Y0048515D01*
X0215793Y0048577D01*
X0215752Y0048638D01*
X0215707Y0048696D01*
X0215659Y0048752D01*
X0215609Y0048805D01*
X0215556Y0048855D01*
X0215500Y0048903D01*
X0215442Y0048948D01*
X0215381Y0048989D01*
X0215319Y0049027D01*
X0215255Y0049062D01*
X0215188Y0049094D01*
X0215121Y0049122D01*
X0215052Y0049146D01*
X0214981Y0049167D01*
X0214910Y0049184D01*
X0214838Y0049198D01*
X0214765Y0049207D01*
X0214692Y0049213D01*
X0214619Y0049215D01*
X0214546Y0049213D01*
X0214473Y0049207D01*
X0214400Y0049198D01*
X0214328Y0049184D01*
X0214257Y0049167D01*
X0214186Y0049146D01*
X0214117Y0049122D01*
X0214050Y0049094D01*
X0213983Y0049062D01*
X0213919Y0049027D01*
X0213857Y0048989D01*
X0213796Y0048948D01*
X0213738Y0048903D01*
X0213682Y0048855D01*
X0213629Y0048805D01*
X0213579Y0048752D01*
X0213531Y0048696D01*
X0213486Y0048638D01*
X0213445Y0048577D01*
X0213407Y0048515D01*
X0213372Y0048451D01*
X0213340Y0048384D01*
X0213312Y0048317D01*
X0213288Y0048248D01*
X0213267Y0048177D01*
X0213250Y0048106D01*
X0213236Y0048034D01*
X0213227Y0047961D01*
X0213221Y0047888D01*
X0213219Y0047815D01*
X0213219Y0046415D01*
X0213221Y0046342D01*
X0213227Y0046269D01*
X0213236Y0046196D01*
X0213250Y0046124D01*
X0213267Y0046053D01*
X0213288Y0045982D01*
X0213312Y0045913D01*
X0213340Y0045846D01*
X0213372Y0045779D01*
X0213407Y0045715D01*
X0213445Y0045653D01*
X0213486Y0045592D01*
X0213531Y0045534D01*
X0213579Y0045478D01*
X0213629Y0045425D01*
X0213682Y0045375D01*
X0213738Y0045327D01*
X0213796Y0045282D01*
X0213857Y0045241D01*
X0213919Y0045203D01*
X0213983Y0045168D01*
X0214050Y0045136D01*
X0214117Y0045108D01*
X0214186Y0045084D01*
X0214257Y0045063D01*
X0214328Y0045046D01*
X0214400Y0045032D01*
X0214473Y0045023D01*
X0214546Y0045017D01*
X0214619Y0045015D01*
X0214692Y0045017D01*
X0214765Y0045023D01*
X0214838Y0045032D01*
X0214910Y0045046D01*
X0214981Y0045063D01*
X0215052Y0045084D01*
X0215121Y0045108D01*
X0215188Y0045136D01*
X0215255Y0045168D01*
X0215319Y0045203D01*
X0215381Y0045241D01*
X0215442Y0045282D01*
X0215500Y0045327D01*
X0215556Y0045375D01*
X0215609Y0045425D01*
X0215659Y0045478D01*
X0215707Y0045534D01*
X0215752Y0045592D01*
X0215793Y0045653D01*
X0215831Y0045715D01*
X0215866Y0045779D01*
X0215898Y0045846D01*
X0215926Y0045913D01*
X0215950Y0045982D01*
X0215971Y0046053D01*
X0215988Y0046124D01*
X0216002Y0046196D01*
X0216011Y0046269D01*
X0216017Y0046342D01*
X0216019Y0046415D01*
X0210891Y0049215D02*
X0209491Y0045015D01*
X0208091Y0049215D01*
X0205763Y0047815D02*
X0205763Y0046065D01*
X0205763Y0047115D02*
X0202963Y0047115D01*
X0202963Y0047815D01*
X0202965Y0047888D01*
X0202971Y0047961D01*
X0202980Y0048034D01*
X0202994Y0048106D01*
X0203011Y0048177D01*
X0203032Y0048248D01*
X0203056Y0048317D01*
X0203084Y0048384D01*
X0203116Y0048451D01*
X0203151Y0048515D01*
X0203189Y0048577D01*
X0203230Y0048638D01*
X0203275Y0048696D01*
X0203323Y0048752D01*
X0203373Y0048805D01*
X0203426Y0048855D01*
X0203482Y0048903D01*
X0203540Y0048948D01*
X0203601Y0048989D01*
X0203663Y0049027D01*
X0203727Y0049062D01*
X0203794Y0049094D01*
X0203861Y0049122D01*
X0203930Y0049146D01*
X0204001Y0049167D01*
X0204072Y0049184D01*
X0204144Y0049198D01*
X0204217Y0049207D01*
X0204290Y0049213D01*
X0204363Y0049215D01*
X0204436Y0049213D01*
X0204509Y0049207D01*
X0204582Y0049198D01*
X0204654Y0049184D01*
X0204725Y0049167D01*
X0204796Y0049146D01*
X0204865Y0049122D01*
X0204932Y0049094D01*
X0204999Y0049062D01*
X0205063Y0049027D01*
X0205125Y0048989D01*
X0205186Y0048948D01*
X0205244Y0048903D01*
X0205300Y0048855D01*
X0205353Y0048805D01*
X0205403Y0048752D01*
X0205451Y0048696D01*
X0205496Y0048638D01*
X0205537Y0048577D01*
X0205575Y0048515D01*
X0205610Y0048451D01*
X0205642Y0048384D01*
X0205670Y0048317D01*
X0205694Y0048248D01*
X0205715Y0048177D01*
X0205732Y0048106D01*
X0205746Y0048034D01*
X0205755Y0047961D01*
X0205761Y0047888D01*
X0205763Y0047815D01*
X0205763Y0046065D02*
X0205761Y0046002D01*
X0205755Y0045938D01*
X0205746Y0045876D01*
X0205732Y0045814D01*
X0205715Y0045753D01*
X0205695Y0045693D01*
X0205670Y0045634D01*
X0205643Y0045577D01*
X0205612Y0045522D01*
X0205577Y0045469D01*
X0205540Y0045417D01*
X0205499Y0045369D01*
X0205455Y0045323D01*
X0205409Y0045279D01*
X0205361Y0045238D01*
X0205309Y0045201D01*
X0205256Y0045166D01*
X0205201Y0045135D01*
X0205144Y0045108D01*
X0205085Y0045083D01*
X0205025Y0045063D01*
X0204964Y0045046D01*
X0204902Y0045032D01*
X0204840Y0045023D01*
X0204776Y0045017D01*
X0204713Y0045015D01*
X0202963Y0045015D01*
X0200104Y0045015D02*
X0200104Y0049215D01*
X0196954Y0049215D01*
X0198004Y0049215D02*
X0198004Y0045015D01*
X0195904Y0045015D02*
X0195904Y0048165D01*
X0195906Y0048228D01*
X0195912Y0048292D01*
X0195921Y0048354D01*
X0195935Y0048416D01*
X0195952Y0048477D01*
X0195972Y0048537D01*
X0195997Y0048596D01*
X0196024Y0048653D01*
X0196055Y0048708D01*
X0196090Y0048761D01*
X0196127Y0048813D01*
X0196168Y0048861D01*
X0196212Y0048907D01*
X0196258Y0048951D01*
X0196306Y0048992D01*
X0196358Y0049029D01*
X0196411Y0049064D01*
X0196466Y0049095D01*
X0196523Y0049122D01*
X0196582Y0049147D01*
X0196642Y0049167D01*
X0196703Y0049184D01*
X0196765Y0049198D01*
X0196827Y0049207D01*
X0196891Y0049213D01*
X0196954Y0049215D01*
X0192808Y0049215D02*
X0191058Y0049215D01*
X0190995Y0049213D01*
X0190931Y0049207D01*
X0190869Y0049198D01*
X0190807Y0049184D01*
X0190746Y0049167D01*
X0190686Y0049147D01*
X0190627Y0049122D01*
X0190570Y0049095D01*
X0190515Y0049064D01*
X0190462Y0049029D01*
X0190410Y0048992D01*
X0190362Y0048951D01*
X0190316Y0048907D01*
X0190272Y0048861D01*
X0190231Y0048813D01*
X0190194Y0048761D01*
X0190159Y0048708D01*
X0190128Y0048653D01*
X0190101Y0048596D01*
X0190076Y0048537D01*
X0190056Y0048477D01*
X0190039Y0048416D01*
X0190025Y0048354D01*
X0190016Y0048292D01*
X0190010Y0048228D01*
X0190008Y0048165D01*
X0190008Y0046065D01*
X0190010Y0046002D01*
X0190016Y0045938D01*
X0190025Y0045876D01*
X0190039Y0045814D01*
X0190056Y0045753D01*
X0190076Y0045693D01*
X0190101Y0045634D01*
X0190128Y0045577D01*
X0190159Y0045522D01*
X0190194Y0045469D01*
X0190231Y0045417D01*
X0190272Y0045369D01*
X0190316Y0045323D01*
X0190362Y0045279D01*
X0190410Y0045238D01*
X0190462Y0045201D01*
X0190515Y0045166D01*
X0190570Y0045135D01*
X0190627Y0045108D01*
X0190686Y0045083D01*
X0190746Y0045063D01*
X0190807Y0045046D01*
X0190869Y0045032D01*
X0190931Y0045023D01*
X0190995Y0045017D01*
X0191058Y0045015D01*
X0192808Y0045015D01*
X0192808Y0051315D01*
X0187506Y0047815D02*
X0187506Y0046065D01*
X0187506Y0047115D02*
X0184706Y0047115D01*
X0184706Y0047815D01*
X0184708Y0047888D01*
X0184714Y0047961D01*
X0184723Y0048034D01*
X0184737Y0048106D01*
X0184754Y0048177D01*
X0184775Y0048248D01*
X0184799Y0048317D01*
X0184827Y0048384D01*
X0184859Y0048451D01*
X0184894Y0048515D01*
X0184932Y0048577D01*
X0184973Y0048638D01*
X0185018Y0048696D01*
X0185066Y0048752D01*
X0185116Y0048805D01*
X0185169Y0048855D01*
X0185225Y0048903D01*
X0185283Y0048948D01*
X0185344Y0048989D01*
X0185406Y0049027D01*
X0185470Y0049062D01*
X0185537Y0049094D01*
X0185604Y0049122D01*
X0185673Y0049146D01*
X0185744Y0049167D01*
X0185815Y0049184D01*
X0185887Y0049198D01*
X0185960Y0049207D01*
X0186033Y0049213D01*
X0186106Y0049215D01*
X0186179Y0049213D01*
X0186252Y0049207D01*
X0186325Y0049198D01*
X0186397Y0049184D01*
X0186468Y0049167D01*
X0186539Y0049146D01*
X0186608Y0049122D01*
X0186675Y0049094D01*
X0186742Y0049062D01*
X0186806Y0049027D01*
X0186868Y0048989D01*
X0186929Y0048948D01*
X0186987Y0048903D01*
X0187043Y0048855D01*
X0187096Y0048805D01*
X0187146Y0048752D01*
X0187194Y0048696D01*
X0187239Y0048638D01*
X0187280Y0048577D01*
X0187318Y0048515D01*
X0187353Y0048451D01*
X0187385Y0048384D01*
X0187413Y0048317D01*
X0187437Y0048248D01*
X0187458Y0048177D01*
X0187475Y0048106D01*
X0187489Y0048034D01*
X0187498Y0047961D01*
X0187504Y0047888D01*
X0187506Y0047815D01*
X0187506Y0046065D02*
X0187504Y0046002D01*
X0187498Y0045938D01*
X0187489Y0045876D01*
X0187475Y0045814D01*
X0187458Y0045753D01*
X0187438Y0045693D01*
X0187413Y0045634D01*
X0187386Y0045577D01*
X0187355Y0045522D01*
X0187320Y0045469D01*
X0187283Y0045417D01*
X0187242Y0045369D01*
X0187198Y0045323D01*
X0187152Y0045279D01*
X0187104Y0045238D01*
X0187052Y0045201D01*
X0186999Y0045166D01*
X0186944Y0045135D01*
X0186887Y0045108D01*
X0186828Y0045083D01*
X0186768Y0045063D01*
X0186707Y0045046D01*
X0186645Y0045032D01*
X0186583Y0045023D01*
X0186519Y0045017D01*
X0186456Y0045015D01*
X0184706Y0045015D01*
X0181930Y0045015D02*
X0181930Y0049215D01*
X0179830Y0049215D01*
X0179830Y0048515D01*
X0178099Y0045365D02*
X0177749Y0045365D01*
X0177749Y0045015D01*
X0178274Y0043615D01*
X0178099Y0045015D02*
X0178099Y0045365D01*
X0178099Y0045015D02*
X0177749Y0045015D01*
X0191706Y0055515D02*
X0191775Y0055517D01*
X0191843Y0055523D01*
X0191911Y0055532D01*
X0191979Y0055546D01*
X0192045Y0055563D01*
X0192111Y0055584D01*
X0192175Y0055608D01*
X0192238Y0055636D01*
X0192299Y0055668D01*
X0192358Y0055703D01*
X0192415Y0055741D01*
X0192470Y0055782D01*
X0192522Y0055827D01*
X0192572Y0055874D01*
X0192619Y0055924D01*
X0192664Y0055976D01*
X0192705Y0056031D01*
X0192743Y0056088D01*
X0192778Y0056147D01*
X0192810Y0056208D01*
X0192838Y0056271D01*
X0192862Y0056335D01*
X0192883Y0056401D01*
X0192900Y0056467D01*
X0192914Y0056535D01*
X0192923Y0056603D01*
X0192929Y0056671D01*
X0192931Y0056740D01*
X0192929Y0056809D01*
X0192923Y0056877D01*
X0192914Y0056945D01*
X0192900Y0057013D01*
X0192883Y0057079D01*
X0192862Y0057145D01*
X0192838Y0057209D01*
X0192810Y0057272D01*
X0192778Y0057333D01*
X0192743Y0057392D01*
X0192705Y0057449D01*
X0192664Y0057504D01*
X0192619Y0057556D01*
X0192572Y0057606D01*
X0192522Y0057653D01*
X0192470Y0057698D01*
X0192415Y0057739D01*
X0192358Y0057777D01*
X0192299Y0057812D01*
X0192238Y0057844D01*
X0192175Y0057872D01*
X0192111Y0057896D01*
X0192045Y0057917D01*
X0191979Y0057934D01*
X0191911Y0057948D01*
X0191843Y0057957D01*
X0191775Y0057963D01*
X0191706Y0057965D01*
X0190131Y0057965D01*
X0195218Y0059715D02*
X0197318Y0059715D01*
D11*
X0109868Y0025662D02*
X0107968Y0027462D01*
X0105368Y0025662D01*
X0102868Y0026662D02*
X0102368Y0029862D01*
X0099668Y0029862D01*
X0099168Y0026662D01*
X0096668Y0025662D02*
X0094068Y0027462D01*
X0092168Y0025662D01*
X0093968Y0023062D01*
X0092868Y0020562D02*
X0089868Y0019962D01*
X0089868Y0017362D01*
X0092868Y0016862D01*
X0093868Y0014162D02*
X0092168Y0011762D01*
X0094068Y0009862D01*
X0096468Y0011562D01*
X0097468Y0010962D01*
X0099368Y0015462D01*
X0102568Y0015462D02*
X0104568Y0010962D01*
X0105568Y0011562D01*
X0107968Y0009862D01*
X0109768Y0011762D01*
X0108168Y0014162D01*
X0109168Y0016862D02*
X0112168Y0017362D01*
X0112168Y0019962D01*
X0109168Y0020562D01*
X0108068Y0023062D02*
X0109868Y0025662D01*
X0102568Y0015562D02*
X0102675Y0015617D01*
X0102781Y0015674D01*
X0102884Y0015736D01*
X0102986Y0015800D01*
X0103085Y0015868D01*
X0103182Y0015939D01*
X0103277Y0016013D01*
X0103369Y0016090D01*
X0103459Y0016171D01*
X0103546Y0016254D01*
X0103630Y0016340D01*
X0103711Y0016428D01*
X0103789Y0016520D01*
X0103865Y0016614D01*
X0103937Y0016710D01*
X0104006Y0016808D01*
X0104072Y0016909D01*
X0104134Y0017012D01*
X0104193Y0017117D01*
X0104249Y0017223D01*
X0104301Y0017332D01*
X0104349Y0017442D01*
X0104394Y0017554D01*
X0104435Y0017667D01*
X0104472Y0017781D01*
X0104506Y0017897D01*
X0104535Y0018013D01*
X0104561Y0018131D01*
X0104583Y0018249D01*
X0104602Y0018368D01*
X0104616Y0018487D01*
X0104626Y0018607D01*
X0104633Y0018727D01*
X0104635Y0018848D01*
X0104633Y0018968D01*
X0104628Y0019088D01*
X0104619Y0019208D01*
X0104605Y0019328D01*
X0104588Y0019447D01*
X0104567Y0019565D01*
X0104542Y0019683D01*
X0104513Y0019800D01*
X0104480Y0019915D01*
X0104444Y0020030D01*
X0104404Y0020143D01*
X0104360Y0020255D01*
X0104312Y0020366D01*
X0104261Y0020475D01*
X0104207Y0020582D01*
X0104148Y0020687D01*
X0104087Y0020791D01*
X0104022Y0020892D01*
X0103954Y0020991D01*
X0103882Y0021088D01*
X0103808Y0021182D01*
X0103730Y0021274D01*
X0103650Y0021363D01*
X0103566Y0021450D01*
X0103480Y0021534D01*
X0103391Y0021615D01*
X0103299Y0021693D01*
X0103205Y0021768D01*
X0103109Y0021839D01*
X0103010Y0021908D01*
X0102909Y0021973D01*
X0102806Y0022035D01*
X0102701Y0022094D01*
X0102594Y0022149D01*
X0102485Y0022201D01*
X0102375Y0022248D01*
X0102263Y0022293D01*
X0102150Y0022333D01*
X0102035Y0022370D01*
X0101919Y0022403D01*
X0101803Y0022433D01*
X0101685Y0022458D01*
X0101567Y0022480D01*
X0101448Y0022497D01*
X0101328Y0022511D01*
X0101208Y0022521D01*
X0101088Y0022527D01*
X0100968Y0022529D01*
X0100848Y0022527D01*
X0100728Y0022521D01*
X0100608Y0022511D01*
X0100488Y0022497D01*
X0100369Y0022480D01*
X0100251Y0022458D01*
X0100133Y0022433D01*
X0100017Y0022403D01*
X0099901Y0022370D01*
X0099786Y0022333D01*
X0099673Y0022293D01*
X0099561Y0022248D01*
X0099451Y0022201D01*
X0099342Y0022149D01*
X0099235Y0022094D01*
X0099130Y0022035D01*
X0099027Y0021973D01*
X0098926Y0021908D01*
X0098827Y0021839D01*
X0098731Y0021768D01*
X0098637Y0021693D01*
X0098545Y0021615D01*
X0098456Y0021534D01*
X0098370Y0021450D01*
X0098286Y0021363D01*
X0098206Y0021274D01*
X0098128Y0021182D01*
X0098054Y0021088D01*
X0097982Y0020991D01*
X0097914Y0020892D01*
X0097849Y0020791D01*
X0097788Y0020687D01*
X0097729Y0020582D01*
X0097675Y0020475D01*
X0097624Y0020366D01*
X0097576Y0020255D01*
X0097532Y0020143D01*
X0097492Y0020030D01*
X0097456Y0019915D01*
X0097423Y0019800D01*
X0097394Y0019683D01*
X0097369Y0019565D01*
X0097348Y0019447D01*
X0097331Y0019328D01*
X0097317Y0019208D01*
X0097308Y0019088D01*
X0097303Y0018968D01*
X0097301Y0018848D01*
X0097303Y0018727D01*
X0097310Y0018607D01*
X0097320Y0018487D01*
X0097334Y0018368D01*
X0097353Y0018249D01*
X0097375Y0018131D01*
X0097401Y0018013D01*
X0097430Y0017897D01*
X0097464Y0017781D01*
X0097501Y0017667D01*
X0097542Y0017554D01*
X0097587Y0017442D01*
X0097635Y0017332D01*
X0097687Y0017223D01*
X0097743Y0017117D01*
X0097802Y0017012D01*
X0097864Y0016909D01*
X0097930Y0016808D01*
X0097999Y0016710D01*
X0098071Y0016614D01*
X0098147Y0016520D01*
X0098225Y0016428D01*
X0098306Y0016340D01*
X0098390Y0016254D01*
X0098477Y0016171D01*
X0098567Y0016090D01*
X0098659Y0016013D01*
X0098754Y0015939D01*
X0098851Y0015868D01*
X0098950Y0015800D01*
X0099052Y0015736D01*
X0099155Y0015674D01*
X0099261Y0015617D01*
X0099368Y0015562D01*
X0093868Y0014156D02*
X0093772Y0014322D01*
X0093679Y0014489D01*
X0093591Y0014659D01*
X0093507Y0014831D01*
X0093427Y0015004D01*
X0093351Y0015180D01*
X0093279Y0015357D01*
X0093212Y0015536D01*
X0093148Y0015717D01*
X0093089Y0015899D01*
X0093035Y0016082D01*
X0092984Y0016267D01*
X0092938Y0016452D01*
X0092897Y0016639D01*
X0092860Y0016827D01*
X0092879Y0020562D02*
X0092929Y0020750D01*
X0092984Y0020937D01*
X0093043Y0021123D01*
X0093107Y0021307D01*
X0093175Y0021490D01*
X0093248Y0021671D01*
X0093325Y0021850D01*
X0093406Y0022027D01*
X0093492Y0022203D01*
X0093581Y0022376D01*
X0093675Y0022547D01*
X0093773Y0022715D01*
X0093875Y0022882D01*
X0093980Y0023045D01*
X0096631Y0025679D02*
X0096796Y0025777D01*
X0096964Y0025871D01*
X0097134Y0025961D01*
X0097306Y0026048D01*
X0097479Y0026130D01*
X0097655Y0026209D01*
X0097832Y0026283D01*
X0098011Y0026353D01*
X0098192Y0026419D01*
X0098374Y0026481D01*
X0098557Y0026539D01*
X0098742Y0026593D01*
X0098928Y0026642D01*
X0099115Y0026687D01*
X0102943Y0026668D02*
X0103136Y0026621D01*
X0103329Y0026568D01*
X0103520Y0026511D01*
X0103709Y0026450D01*
X0103897Y0026384D01*
X0104084Y0026313D01*
X0104268Y0026238D01*
X0104451Y0026159D01*
X0104632Y0026075D01*
X0104811Y0025987D01*
X0104987Y0025895D01*
X0105162Y0025798D01*
X0105334Y0025698D01*
X0108060Y0023008D02*
X0108160Y0022846D01*
X0108257Y0022681D01*
X0108350Y0022514D01*
X0108438Y0022345D01*
X0108523Y0022175D01*
X0108604Y0022002D01*
X0108681Y0021827D01*
X0108754Y0021651D01*
X0108823Y0021473D01*
X0108888Y0021293D01*
X0108949Y0021113D01*
X0109005Y0020930D01*
X0109058Y0020747D01*
X0109106Y0020562D01*
X0109162Y0016846D02*
X0109119Y0016646D01*
X0109072Y0016448D01*
X0109020Y0016251D01*
X0108962Y0016055D01*
X0108901Y0015860D01*
X0108834Y0015667D01*
X0108763Y0015476D01*
X0108687Y0015286D01*
X0108606Y0015099D01*
X0108521Y0014913D01*
X0108431Y0014730D01*
X0108337Y0014549D01*
X0108238Y0014370D01*
X0108135Y0014194D01*
D12*
X0060538Y0034136D02*
X0057983Y0034136D01*
X0057921Y0034138D01*
X0057860Y0034143D01*
X0057799Y0034153D01*
X0057738Y0034166D01*
X0057679Y0034182D01*
X0057621Y0034202D01*
X0057564Y0034226D01*
X0057508Y0034253D01*
X0057454Y0034283D01*
X0057402Y0034317D01*
X0057353Y0034353D01*
X0057305Y0034393D01*
X0057260Y0034435D01*
X0057218Y0034480D01*
X0057178Y0034528D01*
X0057142Y0034577D01*
X0057108Y0034629D01*
X0057078Y0034683D01*
X0057051Y0034739D01*
X0057027Y0034796D01*
X0057007Y0034854D01*
X0056991Y0034913D01*
X0056978Y0034974D01*
X0056968Y0035035D01*
X0056963Y0035096D01*
X0056961Y0035158D01*
X0056961Y0036180D01*
X0060538Y0034136D02*
X0060600Y0034138D01*
X0060661Y0034143D01*
X0060722Y0034153D01*
X0060783Y0034166D01*
X0060842Y0034182D01*
X0060900Y0034202D01*
X0060957Y0034226D01*
X0061013Y0034253D01*
X0061067Y0034283D01*
X0061119Y0034317D01*
X0061168Y0034353D01*
X0061216Y0034393D01*
X0061261Y0034435D01*
X0061303Y0034480D01*
X0061342Y0034528D01*
X0061379Y0034577D01*
X0061413Y0034629D01*
X0061443Y0034683D01*
X0061470Y0034739D01*
X0061494Y0034796D01*
X0061514Y0034854D01*
X0061530Y0034913D01*
X0061543Y0034974D01*
X0061553Y0035035D01*
X0061558Y0035096D01*
X0061560Y0035158D01*
X0061561Y0035158D02*
X0061561Y0036180D01*
X0061561Y0037899D02*
X0061561Y0040454D01*
X0056961Y0039177D01*
X0061049Y0037899D02*
X0061561Y0037899D01*
M02*
