G04 EAGLE Gerber RS-274X export*
G75*
%MOMM*%
%FSLAX34Y34*%
%LPD*%
%INBottom Copper*%
%IPPOS*%
%AMOC8*
5,1,8,0,0,1.08239X$1,22.5*%
G01*
%ADD10P,1.484606X8X112.500000*%
%ADD11P,1.319650X8X292.500000*%
%ADD12C,2.250000*%
%ADD13P,1.319650X8X22.500000*%
%ADD14P,1.319650X8X112.500000*%
%ADD15C,1.219200*%
%ADD16C,0.900000*%
%ADD17C,4.000000*%
%ADD18C,1.500000*%
%ADD19C,1.524000*%
%ADD20P,1.319650X8X202.500000*%
%ADD21C,1.676400*%
%ADD22C,1.600200*%
%ADD23P,1.732040X8X292.500000*%
%ADD24P,1.732040X8X112.500000*%
%ADD25C,4.516000*%
%ADD26C,0.750000*%
%ADD27C,0.254000*%

G36*
X1060020Y5085D02*
X1060020Y5085D01*
X1060052Y5082D01*
X1060178Y5105D01*
X1060304Y5121D01*
X1060334Y5132D01*
X1060365Y5138D01*
X1060481Y5191D01*
X1060600Y5238D01*
X1060626Y5256D01*
X1060654Y5269D01*
X1060754Y5349D01*
X1060858Y5424D01*
X1060878Y5449D01*
X1060902Y5469D01*
X1060979Y5571D01*
X1061060Y5669D01*
X1061074Y5698D01*
X1061093Y5723D01*
X1061141Y5842D01*
X1061196Y5957D01*
X1061202Y5988D01*
X1061214Y6017D01*
X1061232Y6144D01*
X1061256Y6269D01*
X1061254Y6301D01*
X1061258Y6332D01*
X1061250Y6493D01*
X1060960Y9047D01*
X1061180Y12616D01*
X1061259Y13885D01*
X1061885Y24039D01*
X1061963Y25308D01*
X1062041Y26577D01*
X1062041Y26578D01*
X1062152Y28372D01*
X1066681Y47196D01*
X1074410Y64949D01*
X1085105Y81089D01*
X1098439Y95127D01*
X1114009Y106636D01*
X1131341Y115267D01*
X1149908Y120757D01*
X1153893Y121209D01*
X1153939Y121220D01*
X1153987Y121223D01*
X1154093Y121258D01*
X1154202Y121284D01*
X1154244Y121307D01*
X1154289Y121321D01*
X1154384Y121381D01*
X1154483Y121434D01*
X1154518Y121466D01*
X1154558Y121492D01*
X1154635Y121573D01*
X1154717Y121649D01*
X1154743Y121688D01*
X1154776Y121723D01*
X1154830Y121821D01*
X1154891Y121915D01*
X1154907Y121960D01*
X1154930Y122002D01*
X1154958Y122110D01*
X1154994Y122216D01*
X1154997Y122264D01*
X1155009Y122310D01*
X1155019Y122470D01*
X1155019Y1436165D01*
X1155014Y1436208D01*
X1155016Y1436252D01*
X1154994Y1436366D01*
X1154979Y1436481D01*
X1154963Y1436521D01*
X1154955Y1436564D01*
X1154905Y1436669D01*
X1154862Y1436776D01*
X1154837Y1436812D01*
X1154818Y1436851D01*
X1154744Y1436940D01*
X1154676Y1437034D01*
X1154642Y1437061D01*
X1154614Y1437095D01*
X1154520Y1437163D01*
X1154431Y1437236D01*
X1154391Y1437255D01*
X1154356Y1437280D01*
X1154247Y1437323D01*
X1154143Y1437372D01*
X1154100Y1437380D01*
X1154059Y1437396D01*
X1153901Y1437425D01*
X1149811Y1437915D01*
X1131139Y1443562D01*
X1113732Y1452366D01*
X1098117Y1464059D01*
X1084770Y1478286D01*
X1074097Y1494614D01*
X1066421Y1512548D01*
X1061975Y1531542D01*
X1060896Y1551020D01*
X1061205Y1553599D01*
X1061204Y1553635D01*
X1061211Y1553670D01*
X1061203Y1553793D01*
X1061203Y1553917D01*
X1061194Y1553951D01*
X1061191Y1553987D01*
X1061153Y1554105D01*
X1061122Y1554225D01*
X1061104Y1554256D01*
X1061093Y1554289D01*
X1061027Y1554394D01*
X1060967Y1554502D01*
X1060942Y1554528D01*
X1060923Y1554558D01*
X1060833Y1554643D01*
X1060747Y1554733D01*
X1060717Y1554752D01*
X1060691Y1554776D01*
X1060583Y1554836D01*
X1060478Y1554902D01*
X1060444Y1554912D01*
X1060413Y1554930D01*
X1060293Y1554961D01*
X1060175Y1554998D01*
X1060139Y1555000D01*
X1060105Y1555009D01*
X1059944Y1555019D01*
X647700Y1555019D01*
X647582Y1555004D01*
X647463Y1554997D01*
X647425Y1554984D01*
X647384Y1554979D01*
X647274Y1554936D01*
X647161Y1554899D01*
X647126Y1554877D01*
X647089Y1554862D01*
X646993Y1554793D01*
X646892Y1554729D01*
X646864Y1554699D01*
X646831Y1554676D01*
X646756Y1554584D01*
X646674Y1554497D01*
X646654Y1554462D01*
X646629Y1554431D01*
X646578Y1554323D01*
X646520Y1554219D01*
X646510Y1554179D01*
X646493Y1554143D01*
X646471Y1554026D01*
X646441Y1553911D01*
X646437Y1553851D01*
X646433Y1553831D01*
X646435Y1553810D01*
X646431Y1553750D01*
X646431Y1290267D01*
X646448Y1290129D01*
X646461Y1289990D01*
X646468Y1289971D01*
X646471Y1289951D01*
X646522Y1289822D01*
X646569Y1289691D01*
X646580Y1289674D01*
X646588Y1289656D01*
X646669Y1289543D01*
X646747Y1289428D01*
X646763Y1289415D01*
X646774Y1289398D01*
X646882Y1289309D01*
X646986Y1289218D01*
X647004Y1289208D01*
X647019Y1289195D01*
X647145Y1289136D01*
X647269Y1289073D01*
X647289Y1289069D01*
X647307Y1289060D01*
X647443Y1289034D01*
X647579Y1289003D01*
X647600Y1289004D01*
X647620Y1289000D01*
X647758Y1289009D01*
X647897Y1289013D01*
X647917Y1289019D01*
X647937Y1289020D01*
X648069Y1289063D01*
X648203Y1289101D01*
X648220Y1289112D01*
X648239Y1289118D01*
X648357Y1289193D01*
X648477Y1289263D01*
X648498Y1289281D01*
X648508Y1289288D01*
X648522Y1289303D01*
X648598Y1289369D01*
X651374Y1292145D01*
X655997Y1294061D01*
X661003Y1294061D01*
X665626Y1292145D01*
X669165Y1288606D01*
X671081Y1283983D01*
X671081Y1278977D01*
X669165Y1274354D01*
X665484Y1270672D01*
X665411Y1270578D01*
X665332Y1270489D01*
X665314Y1270453D01*
X665289Y1270421D01*
X665242Y1270312D01*
X665188Y1270206D01*
X665179Y1270166D01*
X665163Y1270129D01*
X665144Y1270011D01*
X665118Y1269895D01*
X665119Y1269855D01*
X665113Y1269815D01*
X665124Y1269696D01*
X665128Y1269578D01*
X665139Y1269539D01*
X665143Y1269498D01*
X665183Y1269386D01*
X665216Y1269272D01*
X665237Y1269237D01*
X665250Y1269199D01*
X665317Y1269101D01*
X665378Y1268998D01*
X665418Y1268953D01*
X665429Y1268936D01*
X665444Y1268923D01*
X665484Y1268877D01*
X665771Y1268590D01*
X666653Y1267376D01*
X667334Y1266039D01*
X667798Y1264612D01*
X667835Y1264379D01*
X659230Y1264379D01*
X659112Y1264364D01*
X658993Y1264357D01*
X658955Y1264344D01*
X658915Y1264339D01*
X658804Y1264296D01*
X658691Y1264259D01*
X658657Y1264237D01*
X658619Y1264222D01*
X658523Y1264153D01*
X658422Y1264089D01*
X658394Y1264059D01*
X658362Y1264036D01*
X658286Y1263944D01*
X658204Y1263857D01*
X658185Y1263822D01*
X658159Y1263791D01*
X658108Y1263683D01*
X658051Y1263579D01*
X658041Y1263539D01*
X658023Y1263503D01*
X658001Y1263386D01*
X657971Y1263271D01*
X657967Y1263211D01*
X657964Y1263191D01*
X657965Y1263170D01*
X657961Y1263110D01*
X657961Y1261650D01*
X657976Y1261532D01*
X657983Y1261413D01*
X657996Y1261375D01*
X658001Y1261334D01*
X658045Y1261224D01*
X658081Y1261111D01*
X658103Y1261076D01*
X658118Y1261039D01*
X658188Y1260942D01*
X658251Y1260842D01*
X658281Y1260814D01*
X658305Y1260781D01*
X658396Y1260705D01*
X658483Y1260624D01*
X658518Y1260604D01*
X658550Y1260579D01*
X658657Y1260528D01*
X658762Y1260470D01*
X658801Y1260460D01*
X658837Y1260443D01*
X658954Y1260421D01*
X659070Y1260391D01*
X659130Y1260387D01*
X659150Y1260383D01*
X659170Y1260385D01*
X659230Y1260381D01*
X667835Y1260381D01*
X667798Y1260148D01*
X667334Y1258721D01*
X666653Y1257384D01*
X665771Y1256170D01*
X665484Y1255883D01*
X665411Y1255789D01*
X665332Y1255699D01*
X665314Y1255663D01*
X665289Y1255632D01*
X665242Y1255522D01*
X665188Y1255416D01*
X665179Y1255377D01*
X665163Y1255340D01*
X665144Y1255222D01*
X665118Y1255106D01*
X665119Y1255065D01*
X665113Y1255026D01*
X665124Y1254907D01*
X665128Y1254788D01*
X665139Y1254749D01*
X665143Y1254709D01*
X665183Y1254597D01*
X665216Y1254483D01*
X665237Y1254448D01*
X665250Y1254410D01*
X665317Y1254311D01*
X665378Y1254209D01*
X665417Y1254163D01*
X665429Y1254147D01*
X665444Y1254133D01*
X665484Y1254088D01*
X669165Y1250406D01*
X671081Y1245783D01*
X671081Y1240777D01*
X669165Y1236154D01*
X665626Y1232615D01*
X661003Y1230699D01*
X655997Y1230699D01*
X651374Y1232615D01*
X648598Y1235391D01*
X648488Y1235476D01*
X648381Y1235565D01*
X648362Y1235573D01*
X648346Y1235586D01*
X648218Y1235641D01*
X648093Y1235700D01*
X648073Y1235704D01*
X648054Y1235712D01*
X647916Y1235734D01*
X647781Y1235760D01*
X647760Y1235759D01*
X647740Y1235762D01*
X647601Y1235749D01*
X647463Y1235740D01*
X647444Y1235734D01*
X647424Y1235732D01*
X647292Y1235685D01*
X647161Y1235642D01*
X647143Y1235631D01*
X647124Y1235624D01*
X647009Y1235546D01*
X646892Y1235472D01*
X646878Y1235457D01*
X646861Y1235446D01*
X646769Y1235342D01*
X646674Y1235240D01*
X646664Y1235223D01*
X646651Y1235207D01*
X646587Y1235083D01*
X646520Y1234962D01*
X646515Y1234942D01*
X646506Y1234924D01*
X646476Y1234788D01*
X646441Y1234654D01*
X646439Y1234626D01*
X646437Y1234614D01*
X646437Y1234593D01*
X646431Y1234493D01*
X646431Y732840D01*
X646437Y732791D01*
X646435Y732741D01*
X646457Y732634D01*
X646471Y732525D01*
X646489Y732479D01*
X646499Y732430D01*
X646547Y732331D01*
X646588Y732229D01*
X646617Y732189D01*
X646639Y732144D01*
X646710Y732060D01*
X646774Y731972D01*
X646813Y731940D01*
X646845Y731902D01*
X646935Y731839D01*
X647019Y731769D01*
X647064Y731748D01*
X647105Y731719D01*
X647208Y731680D01*
X647307Y731633D01*
X647356Y731624D01*
X647402Y731606D01*
X647512Y731594D01*
X647620Y731574D01*
X647669Y731577D01*
X647718Y731571D01*
X647827Y731586D01*
X647937Y731593D01*
X647984Y731609D01*
X648033Y731616D01*
X648186Y731668D01*
X649312Y732134D01*
X698503Y732134D01*
X698601Y732146D01*
X698700Y732149D01*
X698758Y732166D01*
X698818Y732174D01*
X698911Y732210D01*
X699006Y732238D01*
X699058Y732269D01*
X699114Y732291D01*
X699194Y732349D01*
X699280Y732399D01*
X699355Y732466D01*
X699371Y732478D01*
X699379Y732487D01*
X699400Y732506D01*
X700164Y733270D01*
X703410Y734614D01*
X706923Y734614D01*
X710169Y733270D01*
X712653Y730785D01*
X713997Y727540D01*
X713997Y724027D01*
X712653Y720781D01*
X710169Y718297D01*
X706923Y716953D01*
X703410Y716953D01*
X700164Y718297D01*
X699400Y719061D01*
X699322Y719122D01*
X699250Y719189D01*
X699197Y719219D01*
X699149Y719256D01*
X699058Y719295D01*
X698972Y719343D01*
X698913Y719358D01*
X698857Y719382D01*
X698759Y719398D01*
X698664Y719422D01*
X698564Y719429D01*
X698543Y719432D01*
X698531Y719431D01*
X698503Y719433D01*
X653731Y719433D01*
X653633Y719420D01*
X653534Y719417D01*
X653476Y719400D01*
X653416Y719393D01*
X653324Y719356D01*
X653229Y719329D01*
X653176Y719298D01*
X653120Y719276D01*
X653040Y719217D01*
X652955Y719167D01*
X652879Y719101D01*
X652863Y719089D01*
X652855Y719079D01*
X652834Y719061D01*
X646803Y713029D01*
X646742Y712951D01*
X646674Y712879D01*
X646645Y712826D01*
X646608Y712778D01*
X646568Y712687D01*
X646520Y712601D01*
X646505Y712542D01*
X646481Y712486D01*
X646466Y712388D01*
X646441Y712293D01*
X646435Y712193D01*
X646431Y712172D01*
X646433Y712160D01*
X646431Y712132D01*
X646431Y686514D01*
X646448Y686376D01*
X646461Y686238D01*
X646468Y686219D01*
X646471Y686199D01*
X646522Y686069D01*
X646569Y685938D01*
X646580Y685922D01*
X646588Y685903D01*
X646669Y685790D01*
X646747Y685675D01*
X646763Y685662D01*
X646774Y685646D01*
X646882Y685556D01*
X646986Y685465D01*
X647004Y685456D01*
X647019Y685443D01*
X647145Y685383D01*
X647269Y685320D01*
X647289Y685316D01*
X647307Y685307D01*
X647443Y685281D01*
X647579Y685251D01*
X647600Y685251D01*
X647620Y685247D01*
X647758Y685256D01*
X647897Y685260D01*
X647917Y685266D01*
X647937Y685267D01*
X648069Y685310D01*
X648203Y685349D01*
X648220Y685359D01*
X648239Y685365D01*
X648357Y685440D01*
X648477Y685510D01*
X648498Y685529D01*
X648508Y685535D01*
X648522Y685550D01*
X648598Y685617D01*
X648773Y685792D01*
X650108Y685792D01*
X650108Y678425D01*
X650123Y678307D01*
X650131Y678188D01*
X650143Y678150D01*
X650148Y678110D01*
X650192Y677999D01*
X650229Y677886D01*
X650250Y677851D01*
X650265Y677814D01*
X650335Y677718D01*
X650368Y677665D01*
X650351Y677648D01*
X650332Y677612D01*
X650306Y677581D01*
X650255Y677474D01*
X650198Y677369D01*
X650188Y677330D01*
X650171Y677294D01*
X650148Y677177D01*
X650118Y677061D01*
X650115Y677001D01*
X650111Y676981D01*
X650112Y676961D01*
X650108Y676901D01*
X650108Y669534D01*
X648773Y669534D01*
X648598Y669709D01*
X648488Y669794D01*
X648381Y669883D01*
X648362Y669892D01*
X648346Y669904D01*
X648218Y669960D01*
X648093Y670019D01*
X648073Y670022D01*
X648054Y670030D01*
X647916Y670052D01*
X647781Y670078D01*
X647760Y670077D01*
X647740Y670080D01*
X647601Y670067D01*
X647463Y670059D01*
X647444Y670052D01*
X647424Y670051D01*
X647293Y670003D01*
X647161Y669961D01*
X647143Y669950D01*
X647124Y669943D01*
X647010Y669865D01*
X646892Y669790D01*
X646878Y669776D01*
X646861Y669764D01*
X646769Y669660D01*
X646674Y669559D01*
X646664Y669541D01*
X646651Y669526D01*
X646588Y669402D01*
X646520Y669280D01*
X646515Y669261D01*
X646506Y669243D01*
X646476Y669107D01*
X646441Y668972D01*
X646439Y668944D01*
X646437Y668932D01*
X646437Y668912D01*
X646431Y668812D01*
X646431Y665315D01*
X646443Y665217D01*
X646446Y665118D01*
X646463Y665060D01*
X646471Y665000D01*
X646507Y664908D01*
X646535Y664813D01*
X646565Y664760D01*
X646588Y664704D01*
X646646Y664624D01*
X646696Y664539D01*
X646762Y664463D01*
X646774Y664447D01*
X646784Y664439D01*
X646803Y664418D01*
X647409Y663811D01*
X647487Y663751D01*
X647559Y663683D01*
X647612Y663654D01*
X647660Y663616D01*
X647751Y663577D01*
X647838Y663529D01*
X647896Y663514D01*
X647952Y663490D01*
X648050Y663475D01*
X648146Y663450D01*
X648246Y663443D01*
X648266Y663440D01*
X648278Y663441D01*
X648306Y663440D01*
X656769Y663440D01*
X663316Y656892D01*
X663316Y647633D01*
X656769Y641086D01*
X647700Y641086D01*
X647582Y641071D01*
X647463Y641064D01*
X647425Y641051D01*
X647384Y641046D01*
X647274Y641002D01*
X647161Y640966D01*
X647126Y640944D01*
X647089Y640929D01*
X646993Y640859D01*
X646892Y640796D01*
X646864Y640766D01*
X646831Y640742D01*
X646756Y640651D01*
X646674Y640564D01*
X646654Y640529D01*
X646629Y640497D01*
X646578Y640390D01*
X646520Y640286D01*
X646510Y640246D01*
X646493Y640210D01*
X646471Y640093D01*
X646441Y639978D01*
X646437Y639917D01*
X646433Y639897D01*
X646435Y639877D01*
X646431Y639817D01*
X646431Y630759D01*
X646446Y630641D01*
X646453Y630522D01*
X646466Y630484D01*
X646471Y630443D01*
X646514Y630333D01*
X646551Y630219D01*
X646573Y630185D01*
X646588Y630148D01*
X646658Y630051D01*
X646721Y629951D01*
X646751Y629923D01*
X646774Y629890D01*
X646866Y629814D01*
X646953Y629733D01*
X646988Y629713D01*
X647019Y629688D01*
X647127Y629637D01*
X647231Y629579D01*
X647271Y629569D01*
X647307Y629552D01*
X647424Y629530D01*
X647539Y629500D01*
X647600Y629496D01*
X647620Y629492D01*
X647640Y629493D01*
X647700Y629490D01*
X655009Y629490D01*
X661556Y622942D01*
X661556Y613683D01*
X655009Y607136D01*
X647700Y607136D01*
X647582Y607121D01*
X647463Y607114D01*
X647425Y607101D01*
X647384Y607096D01*
X647274Y607053D01*
X647161Y607016D01*
X647126Y606994D01*
X647089Y606979D01*
X646993Y606909D01*
X646892Y606846D01*
X646864Y606816D01*
X646831Y606792D01*
X646756Y606701D01*
X646674Y606614D01*
X646654Y606579D01*
X646629Y606548D01*
X646578Y606440D01*
X646520Y606336D01*
X646510Y606296D01*
X646493Y606260D01*
X646471Y606143D01*
X646441Y606028D01*
X646437Y605967D01*
X646433Y605947D01*
X646435Y605927D01*
X646431Y605867D01*
X646431Y554559D01*
X646446Y554441D01*
X646453Y554322D01*
X646466Y554284D01*
X646471Y554243D01*
X646514Y554133D01*
X646551Y554019D01*
X646573Y553985D01*
X646588Y553948D01*
X646658Y553851D01*
X646721Y553751D01*
X646751Y553723D01*
X646774Y553690D01*
X646866Y553614D01*
X646953Y553533D01*
X646988Y553513D01*
X647019Y553488D01*
X647127Y553437D01*
X647231Y553379D01*
X647271Y553369D01*
X647307Y553352D01*
X647424Y553330D01*
X647539Y553300D01*
X647600Y553296D01*
X647620Y553292D01*
X647640Y553293D01*
X647700Y553290D01*
X655009Y553290D01*
X661556Y546742D01*
X661556Y537483D01*
X655009Y530936D01*
X647700Y530936D01*
X647582Y530921D01*
X647463Y530914D01*
X647425Y530901D01*
X647384Y530896D01*
X647274Y530853D01*
X647161Y530816D01*
X647126Y530794D01*
X647089Y530779D01*
X646993Y530709D01*
X646892Y530646D01*
X646864Y530616D01*
X646831Y530592D01*
X646756Y530501D01*
X646674Y530414D01*
X646654Y530379D01*
X646629Y530348D01*
X646578Y530240D01*
X646520Y530136D01*
X646510Y530096D01*
X646493Y530060D01*
X646471Y529943D01*
X646441Y529828D01*
X646437Y529767D01*
X646433Y529747D01*
X646435Y529727D01*
X646431Y529667D01*
X646431Y515567D01*
X646448Y515429D01*
X646461Y515290D01*
X646468Y515271D01*
X646471Y515251D01*
X646522Y515122D01*
X646569Y514991D01*
X646580Y514974D01*
X646588Y514956D01*
X646669Y514843D01*
X646747Y514728D01*
X646763Y514715D01*
X646774Y514698D01*
X646882Y514609D01*
X646986Y514518D01*
X647004Y514508D01*
X647019Y514495D01*
X647145Y514436D01*
X647269Y514373D01*
X647289Y514369D01*
X647307Y514360D01*
X647443Y514334D01*
X647579Y514303D01*
X647600Y514304D01*
X647620Y514300D01*
X647758Y514309D01*
X647897Y514313D01*
X647917Y514319D01*
X647937Y514320D01*
X648069Y514363D01*
X648203Y514401D01*
X648220Y514412D01*
X648239Y514418D01*
X648357Y514493D01*
X648477Y514563D01*
X648498Y514581D01*
X648508Y514588D01*
X648522Y514603D01*
X648598Y514669D01*
X651374Y517445D01*
X655997Y519361D01*
X661003Y519361D01*
X665626Y517445D01*
X669165Y513906D01*
X671081Y509283D01*
X671081Y504277D01*
X669165Y499654D01*
X665484Y495972D01*
X665411Y495878D01*
X665332Y495789D01*
X665314Y495753D01*
X665289Y495721D01*
X665242Y495612D01*
X665188Y495506D01*
X665179Y495466D01*
X665163Y495429D01*
X665144Y495311D01*
X665118Y495195D01*
X665119Y495155D01*
X665113Y495115D01*
X665124Y494996D01*
X665128Y494877D01*
X665139Y494839D01*
X665143Y494798D01*
X665183Y494686D01*
X665216Y494572D01*
X665237Y494537D01*
X665250Y494499D01*
X665317Y494400D01*
X665378Y494298D01*
X665417Y494253D01*
X665429Y494236D01*
X665444Y494222D01*
X665484Y494177D01*
X665771Y493890D01*
X666653Y492676D01*
X667334Y491339D01*
X667798Y489912D01*
X667835Y489679D01*
X659230Y489679D01*
X659112Y489664D01*
X658993Y489657D01*
X658955Y489644D01*
X658915Y489639D01*
X658804Y489596D01*
X658691Y489559D01*
X658657Y489537D01*
X658619Y489522D01*
X658523Y489453D01*
X658422Y489389D01*
X658394Y489359D01*
X658362Y489336D01*
X658286Y489244D01*
X658204Y489157D01*
X658185Y489122D01*
X658159Y489091D01*
X658108Y488983D01*
X658051Y488879D01*
X658041Y488839D01*
X658023Y488803D01*
X658001Y488686D01*
X657971Y488571D01*
X657967Y488511D01*
X657964Y488491D01*
X657965Y488470D01*
X657961Y488410D01*
X657961Y486950D01*
X657976Y486832D01*
X657983Y486713D01*
X657996Y486675D01*
X658001Y486634D01*
X658045Y486524D01*
X658081Y486411D01*
X658103Y486376D01*
X658118Y486339D01*
X658188Y486242D01*
X658251Y486142D01*
X658281Y486114D01*
X658305Y486081D01*
X658396Y486005D01*
X658483Y485924D01*
X658518Y485904D01*
X658550Y485879D01*
X658657Y485828D01*
X658762Y485770D01*
X658801Y485760D01*
X658837Y485743D01*
X658954Y485721D01*
X659070Y485691D01*
X659130Y485687D01*
X659150Y485683D01*
X659170Y485685D01*
X659230Y485681D01*
X667835Y485681D01*
X667798Y485448D01*
X667334Y484021D01*
X666653Y482684D01*
X665771Y481470D01*
X665484Y481183D01*
X665411Y481089D01*
X665332Y480999D01*
X665314Y480963D01*
X665289Y480932D01*
X665242Y480822D01*
X665188Y480716D01*
X665179Y480677D01*
X665163Y480640D01*
X665144Y480522D01*
X665118Y480406D01*
X665119Y480365D01*
X665113Y480326D01*
X665124Y480207D01*
X665128Y480088D01*
X665139Y480049D01*
X665143Y480009D01*
X665183Y479897D01*
X665216Y479783D01*
X665237Y479748D01*
X665250Y479710D01*
X665317Y479611D01*
X665378Y479509D01*
X665417Y479463D01*
X665429Y479447D01*
X665444Y479433D01*
X665484Y479388D01*
X669165Y475706D01*
X671081Y471083D01*
X671081Y466077D01*
X669165Y461454D01*
X665626Y457915D01*
X661003Y455999D01*
X655997Y455999D01*
X651374Y457915D01*
X648598Y460691D01*
X648488Y460776D01*
X648381Y460865D01*
X648362Y460873D01*
X648346Y460886D01*
X648218Y460941D01*
X648093Y461000D01*
X648073Y461004D01*
X648054Y461012D01*
X647916Y461034D01*
X647781Y461060D01*
X647760Y461059D01*
X647740Y461062D01*
X647601Y461049D01*
X647463Y461040D01*
X647444Y461034D01*
X647424Y461032D01*
X647292Y460985D01*
X647161Y460942D01*
X647143Y460931D01*
X647124Y460924D01*
X647009Y460846D01*
X646892Y460772D01*
X646878Y460757D01*
X646861Y460746D01*
X646769Y460642D01*
X646674Y460540D01*
X646664Y460523D01*
X646651Y460507D01*
X646587Y460383D01*
X646520Y460262D01*
X646515Y460242D01*
X646506Y460224D01*
X646476Y460088D01*
X646441Y459954D01*
X646439Y459926D01*
X646437Y459914D01*
X646437Y459893D01*
X646431Y459793D01*
X646431Y6350D01*
X646446Y6232D01*
X646453Y6113D01*
X646466Y6075D01*
X646471Y6034D01*
X646514Y5924D01*
X646551Y5811D01*
X646573Y5776D01*
X646588Y5739D01*
X646658Y5643D01*
X646721Y5542D01*
X646751Y5514D01*
X646774Y5481D01*
X646866Y5405D01*
X646953Y5324D01*
X646988Y5304D01*
X647019Y5279D01*
X647127Y5228D01*
X647231Y5170D01*
X647271Y5160D01*
X647307Y5143D01*
X647424Y5121D01*
X647539Y5091D01*
X647600Y5087D01*
X647620Y5083D01*
X647640Y5085D01*
X647700Y5081D01*
X1059989Y5081D01*
X1060020Y5085D01*
G37*
G36*
X460440Y1267238D02*
X460440Y1267238D01*
X460505Y1267236D01*
X460611Y1267258D01*
X460718Y1267271D01*
X460780Y1267293D01*
X460844Y1267306D01*
X460942Y1267351D01*
X461044Y1267388D01*
X461098Y1267424D01*
X461157Y1267451D01*
X461325Y1267570D01*
X462743Y1268731D01*
X482600Y1268731D01*
X482718Y1268746D01*
X482837Y1268753D01*
X482875Y1268766D01*
X482916Y1268771D01*
X483026Y1268814D01*
X483139Y1268851D01*
X483174Y1268873D01*
X483211Y1268888D01*
X483307Y1268958D01*
X483408Y1269021D01*
X483436Y1269051D01*
X483469Y1269074D01*
X483545Y1269166D01*
X483626Y1269253D01*
X483646Y1269288D01*
X483671Y1269319D01*
X483722Y1269427D01*
X483780Y1269531D01*
X483790Y1269571D01*
X483807Y1269607D01*
X483829Y1269724D01*
X483859Y1269839D01*
X483863Y1269900D01*
X483867Y1269920D01*
X483865Y1269940D01*
X483869Y1270000D01*
X483869Y1397000D01*
X483854Y1397118D01*
X483847Y1397237D01*
X483834Y1397275D01*
X483829Y1397316D01*
X483786Y1397426D01*
X483749Y1397539D01*
X483727Y1397574D01*
X483712Y1397611D01*
X483643Y1397707D01*
X483579Y1397808D01*
X483549Y1397836D01*
X483526Y1397869D01*
X483434Y1397945D01*
X483347Y1398026D01*
X483312Y1398046D01*
X483281Y1398071D01*
X483173Y1398122D01*
X483069Y1398180D01*
X483029Y1398190D01*
X482993Y1398207D01*
X482876Y1398229D01*
X482761Y1398259D01*
X482701Y1398263D01*
X482681Y1398267D01*
X482660Y1398265D01*
X482600Y1398269D01*
X63500Y1398269D01*
X63382Y1398254D01*
X63263Y1398247D01*
X63225Y1398234D01*
X63184Y1398229D01*
X63074Y1398186D01*
X62961Y1398149D01*
X62926Y1398127D01*
X62889Y1398112D01*
X62793Y1398043D01*
X62692Y1397979D01*
X62664Y1397949D01*
X62631Y1397926D01*
X62556Y1397834D01*
X62474Y1397747D01*
X62454Y1397712D01*
X62429Y1397681D01*
X62378Y1397573D01*
X62320Y1397469D01*
X62310Y1397429D01*
X62293Y1397393D01*
X62271Y1397276D01*
X62241Y1397161D01*
X62237Y1397101D01*
X62233Y1397081D01*
X62235Y1397060D01*
X62231Y1397000D01*
X62231Y1270000D01*
X62246Y1269882D01*
X62253Y1269763D01*
X62266Y1269725D01*
X62271Y1269684D01*
X62314Y1269574D01*
X62351Y1269461D01*
X62373Y1269426D01*
X62388Y1269389D01*
X62458Y1269293D01*
X62521Y1269192D01*
X62551Y1269164D01*
X62574Y1269131D01*
X62666Y1269056D01*
X62753Y1268974D01*
X62788Y1268954D01*
X62819Y1268929D01*
X62927Y1268878D01*
X63031Y1268820D01*
X63071Y1268810D01*
X63107Y1268793D01*
X63224Y1268771D01*
X63339Y1268741D01*
X63400Y1268737D01*
X63420Y1268733D01*
X63440Y1268735D01*
X63500Y1268731D01*
X426207Y1268731D01*
X427695Y1267554D01*
X427740Y1267526D01*
X427779Y1267492D01*
X427887Y1267436D01*
X427989Y1267372D01*
X428039Y1267356D01*
X428086Y1267331D01*
X428203Y1267301D01*
X428317Y1267263D01*
X428369Y1267258D01*
X428420Y1267245D01*
X428625Y1267231D01*
X460375Y1267231D01*
X460440Y1267238D01*
G37*
G36*
X460440Y492538D02*
X460440Y492538D01*
X460505Y492536D01*
X460611Y492558D01*
X460718Y492571D01*
X460780Y492593D01*
X460844Y492606D01*
X460942Y492651D01*
X461044Y492688D01*
X461098Y492724D01*
X461157Y492751D01*
X461325Y492870D01*
X462743Y494031D01*
X482600Y494031D01*
X482718Y494046D01*
X482837Y494053D01*
X482875Y494066D01*
X482916Y494071D01*
X483026Y494114D01*
X483139Y494151D01*
X483174Y494173D01*
X483211Y494188D01*
X483307Y494258D01*
X483408Y494321D01*
X483436Y494351D01*
X483469Y494374D01*
X483545Y494466D01*
X483626Y494553D01*
X483646Y494588D01*
X483671Y494619D01*
X483722Y494727D01*
X483780Y494831D01*
X483790Y494871D01*
X483807Y494907D01*
X483829Y495024D01*
X483859Y495139D01*
X483863Y495200D01*
X483867Y495220D01*
X483865Y495240D01*
X483869Y495300D01*
X483869Y622300D01*
X483854Y622418D01*
X483847Y622537D01*
X483834Y622575D01*
X483829Y622616D01*
X483786Y622726D01*
X483749Y622839D01*
X483727Y622874D01*
X483712Y622911D01*
X483643Y623007D01*
X483579Y623108D01*
X483549Y623136D01*
X483526Y623169D01*
X483434Y623245D01*
X483347Y623326D01*
X483312Y623346D01*
X483281Y623371D01*
X483173Y623422D01*
X483069Y623480D01*
X483029Y623490D01*
X482993Y623507D01*
X482876Y623529D01*
X482761Y623559D01*
X482701Y623563D01*
X482681Y623567D01*
X482660Y623565D01*
X482600Y623569D01*
X63500Y623569D01*
X63382Y623554D01*
X63263Y623547D01*
X63225Y623534D01*
X63184Y623529D01*
X63074Y623486D01*
X62961Y623449D01*
X62926Y623427D01*
X62889Y623412D01*
X62793Y623343D01*
X62692Y623279D01*
X62664Y623249D01*
X62631Y623226D01*
X62556Y623134D01*
X62474Y623047D01*
X62454Y623012D01*
X62429Y622981D01*
X62378Y622873D01*
X62320Y622769D01*
X62310Y622729D01*
X62293Y622693D01*
X62271Y622576D01*
X62241Y622461D01*
X62237Y622401D01*
X62233Y622381D01*
X62235Y622360D01*
X62231Y622300D01*
X62231Y495300D01*
X62246Y495182D01*
X62253Y495063D01*
X62266Y495025D01*
X62271Y494984D01*
X62314Y494874D01*
X62351Y494761D01*
X62373Y494726D01*
X62388Y494689D01*
X62458Y494593D01*
X62521Y494492D01*
X62551Y494464D01*
X62574Y494431D01*
X62666Y494356D01*
X62753Y494274D01*
X62788Y494254D01*
X62819Y494229D01*
X62927Y494178D01*
X63031Y494120D01*
X63071Y494110D01*
X63107Y494093D01*
X63224Y494071D01*
X63339Y494041D01*
X63400Y494037D01*
X63420Y494033D01*
X63440Y494035D01*
X63500Y494031D01*
X426207Y494031D01*
X427695Y492854D01*
X427740Y492826D01*
X427779Y492792D01*
X427887Y492736D01*
X427989Y492672D01*
X428039Y492656D01*
X428086Y492631D01*
X428203Y492601D01*
X428317Y492563D01*
X428369Y492558D01*
X428420Y492545D01*
X428625Y492531D01*
X460375Y492531D01*
X460440Y492538D01*
G37*
G36*
X313300Y1129046D02*
X313300Y1129046D01*
X313419Y1129053D01*
X313457Y1129066D01*
X313498Y1129071D01*
X313608Y1129114D01*
X313721Y1129151D01*
X313756Y1129173D01*
X313793Y1129188D01*
X313889Y1129258D01*
X313990Y1129321D01*
X314018Y1129351D01*
X314051Y1129374D01*
X314127Y1129466D01*
X314208Y1129553D01*
X314228Y1129588D01*
X314253Y1129619D01*
X314304Y1129727D01*
X314362Y1129831D01*
X314372Y1129871D01*
X314389Y1129907D01*
X314411Y1130024D01*
X314441Y1130139D01*
X314445Y1130200D01*
X314449Y1130220D01*
X314447Y1130240D01*
X314451Y1130300D01*
X314451Y1136823D01*
X323677Y1146049D01*
X336723Y1146049D01*
X345949Y1136823D01*
X345949Y1130300D01*
X345964Y1130182D01*
X345971Y1130063D01*
X345984Y1130025D01*
X345989Y1129984D01*
X346032Y1129874D01*
X346069Y1129761D01*
X346091Y1129726D01*
X346106Y1129689D01*
X346175Y1129593D01*
X346239Y1129492D01*
X346269Y1129464D01*
X346292Y1129431D01*
X346384Y1129356D01*
X346471Y1129274D01*
X346506Y1129254D01*
X346537Y1129229D01*
X346645Y1129178D01*
X346749Y1129120D01*
X346789Y1129110D01*
X346825Y1129093D01*
X346942Y1129071D01*
X347057Y1129041D01*
X347117Y1129037D01*
X347137Y1129033D01*
X347158Y1129035D01*
X347218Y1129031D01*
X482600Y1129031D01*
X482718Y1129046D01*
X482837Y1129053D01*
X482875Y1129066D01*
X482916Y1129071D01*
X483026Y1129114D01*
X483139Y1129151D01*
X483174Y1129173D01*
X483211Y1129188D01*
X483307Y1129258D01*
X483408Y1129321D01*
X483436Y1129351D01*
X483469Y1129374D01*
X483545Y1129466D01*
X483626Y1129553D01*
X483646Y1129588D01*
X483671Y1129619D01*
X483722Y1129727D01*
X483780Y1129831D01*
X483790Y1129871D01*
X483807Y1129907D01*
X483829Y1130024D01*
X483859Y1130139D01*
X483863Y1130200D01*
X483867Y1130220D01*
X483865Y1130240D01*
X483869Y1130300D01*
X483869Y1257300D01*
X483854Y1257418D01*
X483847Y1257537D01*
X483834Y1257575D01*
X483829Y1257616D01*
X483786Y1257726D01*
X483749Y1257839D01*
X483727Y1257874D01*
X483712Y1257911D01*
X483643Y1258007D01*
X483579Y1258108D01*
X483549Y1258136D01*
X483526Y1258169D01*
X483434Y1258245D01*
X483347Y1258326D01*
X483312Y1258346D01*
X483281Y1258371D01*
X483173Y1258422D01*
X483069Y1258480D01*
X483029Y1258490D01*
X482993Y1258507D01*
X482876Y1258529D01*
X482761Y1258559D01*
X482701Y1258563D01*
X482681Y1258567D01*
X482660Y1258565D01*
X482600Y1258569D01*
X476885Y1258569D01*
X476767Y1258554D01*
X476648Y1258547D01*
X476610Y1258534D01*
X476569Y1258529D01*
X476459Y1258486D01*
X476346Y1258449D01*
X476311Y1258427D01*
X476274Y1258412D01*
X476178Y1258343D01*
X476077Y1258279D01*
X476049Y1258249D01*
X476016Y1258226D01*
X475940Y1258134D01*
X475859Y1258047D01*
X475839Y1258012D01*
X475814Y1257981D01*
X475763Y1257873D01*
X475705Y1257769D01*
X475695Y1257729D01*
X475678Y1257693D01*
X475656Y1257576D01*
X475626Y1257462D01*
X474262Y1254169D01*
X471761Y1251668D01*
X468494Y1250314D01*
X468479Y1250314D01*
X468084Y1250897D01*
X468077Y1250906D01*
X468071Y1250917D01*
X467942Y1251076D01*
X464937Y1254311D01*
X464927Y1254319D01*
X464920Y1254329D01*
X464768Y1254467D01*
X461305Y1257206D01*
X461260Y1257234D01*
X461221Y1257268D01*
X461114Y1257324D01*
X461011Y1257388D01*
X460961Y1257404D01*
X460914Y1257429D01*
X460797Y1257459D01*
X460683Y1257497D01*
X460631Y1257502D01*
X460580Y1257515D01*
X460375Y1257529D01*
X428625Y1257529D01*
X428560Y1257522D01*
X428495Y1257524D01*
X428389Y1257502D01*
X428282Y1257489D01*
X428220Y1257467D01*
X428156Y1257454D01*
X428058Y1257409D01*
X427956Y1257372D01*
X427902Y1257336D01*
X427843Y1257309D01*
X427675Y1257190D01*
X424269Y1254402D01*
X424264Y1254397D01*
X424258Y1254393D01*
X424110Y1254251D01*
X421146Y1250996D01*
X421142Y1250990D01*
X421136Y1250985D01*
X421010Y1250823D01*
X420668Y1250314D01*
X420506Y1250314D01*
X417239Y1251668D01*
X414738Y1254169D01*
X413365Y1257482D01*
X413362Y1257537D01*
X413349Y1257575D01*
X413344Y1257616D01*
X413301Y1257726D01*
X413264Y1257839D01*
X413242Y1257874D01*
X413227Y1257911D01*
X413158Y1258007D01*
X413094Y1258108D01*
X413064Y1258136D01*
X413041Y1258169D01*
X412949Y1258245D01*
X412862Y1258326D01*
X412827Y1258346D01*
X412796Y1258371D01*
X412688Y1258422D01*
X412584Y1258480D01*
X412544Y1258490D01*
X412508Y1258507D01*
X412391Y1258529D01*
X412276Y1258559D01*
X412216Y1258563D01*
X412196Y1258567D01*
X412175Y1258565D01*
X412115Y1258569D01*
X63500Y1258569D01*
X63382Y1258554D01*
X63263Y1258547D01*
X63225Y1258534D01*
X63184Y1258529D01*
X63074Y1258486D01*
X62961Y1258449D01*
X62926Y1258427D01*
X62889Y1258412D01*
X62793Y1258343D01*
X62692Y1258279D01*
X62664Y1258249D01*
X62631Y1258226D01*
X62556Y1258134D01*
X62474Y1258047D01*
X62454Y1258012D01*
X62429Y1257981D01*
X62378Y1257873D01*
X62320Y1257769D01*
X62310Y1257729D01*
X62293Y1257693D01*
X62271Y1257576D01*
X62241Y1257461D01*
X62237Y1257401D01*
X62233Y1257381D01*
X62235Y1257360D01*
X62231Y1257300D01*
X62231Y1130300D01*
X62246Y1130182D01*
X62253Y1130063D01*
X62266Y1130025D01*
X62271Y1129984D01*
X62314Y1129874D01*
X62351Y1129761D01*
X62373Y1129726D01*
X62388Y1129689D01*
X62458Y1129593D01*
X62521Y1129492D01*
X62551Y1129464D01*
X62574Y1129431D01*
X62666Y1129356D01*
X62753Y1129274D01*
X62788Y1129254D01*
X62819Y1129229D01*
X62927Y1129178D01*
X63031Y1129120D01*
X63071Y1129110D01*
X63107Y1129093D01*
X63224Y1129071D01*
X63339Y1129041D01*
X63400Y1129037D01*
X63420Y1129033D01*
X63440Y1129035D01*
X63500Y1129031D01*
X313182Y1129031D01*
X313300Y1129046D01*
G37*
G36*
X313300Y354346D02*
X313300Y354346D01*
X313419Y354353D01*
X313457Y354366D01*
X313498Y354371D01*
X313608Y354414D01*
X313721Y354451D01*
X313756Y354473D01*
X313793Y354488D01*
X313889Y354558D01*
X313990Y354621D01*
X314018Y354651D01*
X314051Y354674D01*
X314127Y354766D01*
X314208Y354853D01*
X314228Y354888D01*
X314253Y354919D01*
X314304Y355027D01*
X314362Y355131D01*
X314372Y355171D01*
X314389Y355207D01*
X314411Y355324D01*
X314441Y355439D01*
X314445Y355500D01*
X314449Y355520D01*
X314447Y355540D01*
X314451Y355600D01*
X314451Y362123D01*
X323677Y371349D01*
X336723Y371349D01*
X345949Y362123D01*
X345949Y355600D01*
X345964Y355482D01*
X345971Y355363D01*
X345984Y355325D01*
X345989Y355284D01*
X346032Y355174D01*
X346069Y355061D01*
X346091Y355026D01*
X346106Y354989D01*
X346175Y354893D01*
X346239Y354792D01*
X346269Y354764D01*
X346292Y354731D01*
X346384Y354656D01*
X346471Y354574D01*
X346506Y354554D01*
X346537Y354529D01*
X346645Y354478D01*
X346749Y354420D01*
X346789Y354410D01*
X346825Y354393D01*
X346942Y354371D01*
X347057Y354341D01*
X347117Y354337D01*
X347137Y354333D01*
X347158Y354335D01*
X347218Y354331D01*
X482600Y354331D01*
X482718Y354346D01*
X482837Y354353D01*
X482875Y354366D01*
X482916Y354371D01*
X483026Y354414D01*
X483139Y354451D01*
X483174Y354473D01*
X483211Y354488D01*
X483307Y354558D01*
X483408Y354621D01*
X483436Y354651D01*
X483469Y354674D01*
X483545Y354766D01*
X483626Y354853D01*
X483646Y354888D01*
X483671Y354919D01*
X483722Y355027D01*
X483780Y355131D01*
X483790Y355171D01*
X483807Y355207D01*
X483829Y355324D01*
X483859Y355439D01*
X483863Y355500D01*
X483867Y355520D01*
X483865Y355540D01*
X483869Y355600D01*
X483869Y482600D01*
X483854Y482718D01*
X483847Y482837D01*
X483834Y482875D01*
X483829Y482916D01*
X483786Y483026D01*
X483749Y483139D01*
X483727Y483174D01*
X483712Y483211D01*
X483643Y483307D01*
X483579Y483408D01*
X483549Y483436D01*
X483526Y483469D01*
X483434Y483545D01*
X483347Y483626D01*
X483312Y483646D01*
X483281Y483671D01*
X483173Y483722D01*
X483069Y483780D01*
X483029Y483790D01*
X482993Y483807D01*
X482876Y483829D01*
X482761Y483859D01*
X482701Y483863D01*
X482681Y483867D01*
X482660Y483865D01*
X482600Y483869D01*
X476885Y483869D01*
X476767Y483854D01*
X476648Y483847D01*
X476610Y483834D01*
X476569Y483829D01*
X476459Y483786D01*
X476346Y483749D01*
X476311Y483727D01*
X476274Y483712D01*
X476178Y483643D01*
X476077Y483579D01*
X476049Y483549D01*
X476016Y483526D01*
X475940Y483434D01*
X475859Y483347D01*
X475839Y483312D01*
X475814Y483281D01*
X475763Y483173D01*
X475705Y483069D01*
X475695Y483029D01*
X475678Y482993D01*
X475656Y482876D01*
X475626Y482762D01*
X474262Y479469D01*
X471761Y476968D01*
X468494Y475614D01*
X468479Y475614D01*
X468084Y476197D01*
X468077Y476206D01*
X468071Y476217D01*
X467942Y476376D01*
X464937Y479611D01*
X464927Y479619D01*
X464920Y479629D01*
X464768Y479767D01*
X461305Y482506D01*
X461260Y482534D01*
X461221Y482568D01*
X461114Y482624D01*
X461011Y482688D01*
X460961Y482704D01*
X460914Y482729D01*
X460797Y482759D01*
X460683Y482797D01*
X460631Y482802D01*
X460580Y482815D01*
X460375Y482829D01*
X428625Y482829D01*
X428560Y482822D01*
X428495Y482824D01*
X428389Y482802D01*
X428282Y482789D01*
X428220Y482767D01*
X428156Y482754D01*
X428058Y482709D01*
X427956Y482672D01*
X427902Y482636D01*
X427843Y482609D01*
X427675Y482490D01*
X424269Y479702D01*
X424264Y479697D01*
X424258Y479693D01*
X424110Y479551D01*
X421146Y476296D01*
X421142Y476290D01*
X421136Y476285D01*
X421010Y476123D01*
X420668Y475614D01*
X420506Y475614D01*
X417239Y476968D01*
X414738Y479469D01*
X413365Y482782D01*
X413362Y482837D01*
X413349Y482875D01*
X413344Y482916D01*
X413301Y483026D01*
X413264Y483139D01*
X413242Y483174D01*
X413227Y483211D01*
X413158Y483307D01*
X413094Y483408D01*
X413064Y483436D01*
X413041Y483469D01*
X412949Y483545D01*
X412862Y483626D01*
X412827Y483646D01*
X412796Y483671D01*
X412688Y483722D01*
X412584Y483780D01*
X412544Y483790D01*
X412508Y483807D01*
X412391Y483829D01*
X412276Y483859D01*
X412216Y483863D01*
X412196Y483867D01*
X412175Y483865D01*
X412115Y483869D01*
X63500Y483869D01*
X63382Y483854D01*
X63263Y483847D01*
X63225Y483834D01*
X63184Y483829D01*
X63074Y483786D01*
X62961Y483749D01*
X62926Y483727D01*
X62889Y483712D01*
X62793Y483643D01*
X62692Y483579D01*
X62664Y483549D01*
X62631Y483526D01*
X62556Y483434D01*
X62474Y483347D01*
X62454Y483312D01*
X62429Y483281D01*
X62378Y483173D01*
X62320Y483069D01*
X62310Y483029D01*
X62293Y482993D01*
X62271Y482876D01*
X62241Y482761D01*
X62237Y482701D01*
X62233Y482681D01*
X62235Y482660D01*
X62231Y482600D01*
X62231Y355600D01*
X62246Y355482D01*
X62253Y355363D01*
X62266Y355325D01*
X62271Y355284D01*
X62314Y355174D01*
X62351Y355061D01*
X62373Y355026D01*
X62388Y354989D01*
X62458Y354893D01*
X62521Y354792D01*
X62551Y354764D01*
X62574Y354731D01*
X62666Y354656D01*
X62753Y354574D01*
X62788Y354554D01*
X62819Y354529D01*
X62927Y354478D01*
X63031Y354420D01*
X63071Y354410D01*
X63107Y354393D01*
X63224Y354371D01*
X63339Y354341D01*
X63400Y354337D01*
X63420Y354333D01*
X63440Y354335D01*
X63500Y354331D01*
X313182Y354331D01*
X313300Y354346D01*
G37*
G36*
X203220Y913642D02*
X203220Y913642D01*
X203239Y913640D01*
X203341Y913662D01*
X203443Y913679D01*
X203460Y913688D01*
X203480Y913692D01*
X203569Y913745D01*
X203660Y913794D01*
X203674Y913808D01*
X203691Y913818D01*
X203758Y913897D01*
X203830Y913972D01*
X203838Y913990D01*
X203851Y914005D01*
X203890Y914101D01*
X203933Y914195D01*
X203935Y914215D01*
X203943Y914233D01*
X203961Y914400D01*
X203961Y1041400D01*
X203958Y1041420D01*
X203960Y1041439D01*
X203938Y1041541D01*
X203922Y1041643D01*
X203912Y1041660D01*
X203908Y1041680D01*
X203855Y1041769D01*
X203806Y1041860D01*
X203792Y1041874D01*
X203782Y1041891D01*
X203703Y1041958D01*
X203628Y1042030D01*
X203610Y1042038D01*
X203595Y1042051D01*
X203499Y1042090D01*
X203405Y1042133D01*
X203385Y1042135D01*
X203367Y1042143D01*
X203200Y1042161D01*
X63500Y1042161D01*
X63480Y1042158D01*
X63461Y1042160D01*
X63359Y1042138D01*
X63257Y1042122D01*
X63240Y1042112D01*
X63220Y1042108D01*
X63131Y1042055D01*
X63040Y1042006D01*
X63026Y1041992D01*
X63009Y1041982D01*
X62942Y1041903D01*
X62871Y1041828D01*
X62862Y1041810D01*
X62849Y1041795D01*
X62810Y1041699D01*
X62767Y1041605D01*
X62765Y1041585D01*
X62757Y1041567D01*
X62739Y1041400D01*
X62739Y914400D01*
X62742Y914380D01*
X62740Y914361D01*
X62762Y914259D01*
X62779Y914157D01*
X62788Y914140D01*
X62792Y914120D01*
X62845Y914031D01*
X62894Y913940D01*
X62908Y913926D01*
X62918Y913909D01*
X62997Y913842D01*
X63072Y913771D01*
X63090Y913762D01*
X63105Y913749D01*
X63201Y913710D01*
X63295Y913667D01*
X63315Y913665D01*
X63333Y913657D01*
X63500Y913639D01*
X203200Y913639D01*
X203220Y913642D01*
G37*
G36*
X203220Y138942D02*
X203220Y138942D01*
X203239Y138940D01*
X203341Y138962D01*
X203443Y138979D01*
X203460Y138988D01*
X203480Y138992D01*
X203569Y139045D01*
X203660Y139094D01*
X203674Y139108D01*
X203691Y139118D01*
X203758Y139197D01*
X203830Y139272D01*
X203838Y139290D01*
X203851Y139305D01*
X203890Y139401D01*
X203933Y139495D01*
X203935Y139515D01*
X203943Y139533D01*
X203961Y139700D01*
X203961Y266700D01*
X203958Y266720D01*
X203960Y266739D01*
X203938Y266841D01*
X203922Y266943D01*
X203912Y266960D01*
X203908Y266980D01*
X203855Y267069D01*
X203806Y267160D01*
X203792Y267174D01*
X203782Y267191D01*
X203703Y267258D01*
X203628Y267330D01*
X203610Y267338D01*
X203595Y267351D01*
X203499Y267390D01*
X203405Y267433D01*
X203385Y267435D01*
X203367Y267443D01*
X203200Y267461D01*
X63500Y267461D01*
X63480Y267458D01*
X63461Y267460D01*
X63359Y267438D01*
X63257Y267422D01*
X63240Y267412D01*
X63220Y267408D01*
X63131Y267355D01*
X63040Y267306D01*
X63026Y267292D01*
X63009Y267282D01*
X62942Y267203D01*
X62871Y267128D01*
X62862Y267110D01*
X62849Y267095D01*
X62810Y266999D01*
X62767Y266905D01*
X62765Y266885D01*
X62757Y266867D01*
X62739Y266700D01*
X62739Y139700D01*
X62742Y139680D01*
X62740Y139661D01*
X62762Y139559D01*
X62779Y139457D01*
X62788Y139440D01*
X62792Y139420D01*
X62845Y139331D01*
X62894Y139240D01*
X62908Y139226D01*
X62918Y139209D01*
X62997Y139142D01*
X63072Y139071D01*
X63090Y139062D01*
X63105Y139049D01*
X63201Y139010D01*
X63295Y138967D01*
X63315Y138965D01*
X63333Y138957D01*
X63500Y138939D01*
X203200Y138939D01*
X203220Y138942D01*
G37*
%LPC*%
G36*
X739002Y293877D02*
X739002Y293877D01*
X734054Y295927D01*
X730267Y299714D01*
X728217Y304662D01*
X728217Y310018D01*
X730267Y314966D01*
X734054Y318753D01*
X734330Y318867D01*
X734450Y318936D01*
X734573Y319001D01*
X734588Y319015D01*
X734606Y319025D01*
X734705Y319121D01*
X734809Y319215D01*
X734820Y319232D01*
X734834Y319246D01*
X734907Y319365D01*
X734983Y319481D01*
X734990Y319500D01*
X735001Y319517D01*
X735042Y319650D01*
X735087Y319782D01*
X735088Y319802D01*
X735094Y319821D01*
X735101Y319960D01*
X735112Y320099D01*
X735108Y320119D01*
X735109Y320139D01*
X735081Y320275D01*
X735058Y320412D01*
X735049Y320431D01*
X735045Y320450D01*
X734984Y320575D01*
X734927Y320702D01*
X734914Y320718D01*
X734905Y320736D01*
X734815Y320842D01*
X734728Y320950D01*
X734712Y320963D01*
X734699Y320978D01*
X734585Y321058D01*
X734474Y321142D01*
X734449Y321154D01*
X734439Y321161D01*
X734420Y321168D01*
X734330Y321213D01*
X734054Y321327D01*
X730267Y325114D01*
X728217Y330062D01*
X728217Y335418D01*
X730267Y340366D01*
X734054Y344153D01*
X734330Y344267D01*
X734450Y344336D01*
X734573Y344401D01*
X734588Y344415D01*
X734606Y344425D01*
X734705Y344521D01*
X734809Y344615D01*
X734820Y344632D01*
X734834Y344646D01*
X734907Y344765D01*
X734983Y344881D01*
X734990Y344900D01*
X735001Y344917D01*
X735042Y345050D01*
X735087Y345182D01*
X735088Y345202D01*
X735094Y345221D01*
X735101Y345360D01*
X735112Y345499D01*
X735108Y345519D01*
X735109Y345539D01*
X735081Y345675D01*
X735058Y345812D01*
X735049Y345831D01*
X735045Y345850D01*
X734984Y345975D01*
X734927Y346102D01*
X734914Y346118D01*
X734905Y346136D01*
X734815Y346242D01*
X734728Y346350D01*
X734712Y346363D01*
X734699Y346378D01*
X734585Y346458D01*
X734474Y346542D01*
X734449Y346554D01*
X734439Y346561D01*
X734420Y346568D01*
X734330Y346613D01*
X734054Y346727D01*
X730267Y350514D01*
X728217Y355462D01*
X728217Y360818D01*
X730267Y365766D01*
X734054Y369553D01*
X734330Y369667D01*
X734450Y369736D01*
X734573Y369801D01*
X734588Y369815D01*
X734606Y369825D01*
X734705Y369921D01*
X734809Y370015D01*
X734820Y370032D01*
X734834Y370046D01*
X734907Y370165D01*
X734983Y370281D01*
X734990Y370300D01*
X735001Y370317D01*
X735042Y370450D01*
X735087Y370582D01*
X735088Y370602D01*
X735094Y370621D01*
X735101Y370760D01*
X735112Y370899D01*
X735108Y370919D01*
X735109Y370939D01*
X735081Y371075D01*
X735058Y371212D01*
X735049Y371231D01*
X735045Y371250D01*
X734984Y371375D01*
X734927Y371502D01*
X734914Y371518D01*
X734905Y371536D01*
X734815Y371642D01*
X734728Y371750D01*
X734712Y371763D01*
X734699Y371778D01*
X734585Y371858D01*
X734474Y371942D01*
X734449Y371954D01*
X734439Y371961D01*
X734420Y371968D01*
X734330Y372013D01*
X734054Y372127D01*
X730267Y375914D01*
X728217Y380862D01*
X728217Y386218D01*
X730267Y391166D01*
X734054Y394953D01*
X734330Y395067D01*
X734450Y395136D01*
X734573Y395201D01*
X734588Y395215D01*
X734606Y395225D01*
X734705Y395321D01*
X734809Y395415D01*
X734820Y395432D01*
X734834Y395446D01*
X734907Y395565D01*
X734983Y395681D01*
X734990Y395700D01*
X735001Y395717D01*
X735042Y395850D01*
X735087Y395982D01*
X735088Y396002D01*
X735094Y396021D01*
X735101Y396160D01*
X735112Y396299D01*
X735108Y396319D01*
X735109Y396339D01*
X735081Y396475D01*
X735058Y396612D01*
X735049Y396631D01*
X735045Y396650D01*
X734984Y396775D01*
X734927Y396902D01*
X734914Y396918D01*
X734905Y396936D01*
X734815Y397042D01*
X734728Y397150D01*
X734712Y397163D01*
X734699Y397178D01*
X734585Y397258D01*
X734474Y397342D01*
X734449Y397354D01*
X734439Y397361D01*
X734420Y397368D01*
X734330Y397413D01*
X734054Y397527D01*
X730267Y401314D01*
X728217Y406262D01*
X728217Y411618D01*
X730267Y416566D01*
X734054Y420353D01*
X734330Y420467D01*
X734450Y420536D01*
X734573Y420601D01*
X734588Y420615D01*
X734606Y420625D01*
X734705Y420721D01*
X734809Y420815D01*
X734820Y420832D01*
X734834Y420846D01*
X734907Y420965D01*
X734983Y421081D01*
X734990Y421100D01*
X735001Y421117D01*
X735042Y421250D01*
X735087Y421382D01*
X735088Y421402D01*
X735094Y421421D01*
X735101Y421560D01*
X735112Y421699D01*
X735108Y421719D01*
X735109Y421739D01*
X735081Y421875D01*
X735058Y422012D01*
X735049Y422031D01*
X735045Y422050D01*
X734984Y422175D01*
X734927Y422302D01*
X734914Y422318D01*
X734905Y422336D01*
X734815Y422442D01*
X734728Y422550D01*
X734712Y422563D01*
X734699Y422578D01*
X734585Y422658D01*
X734474Y422742D01*
X734449Y422754D01*
X734439Y422761D01*
X734420Y422768D01*
X734330Y422813D01*
X734054Y422927D01*
X730267Y426714D01*
X728217Y431662D01*
X728217Y437018D01*
X730267Y441966D01*
X734054Y445753D01*
X734330Y445867D01*
X734450Y445936D01*
X734573Y446001D01*
X734588Y446015D01*
X734606Y446025D01*
X734705Y446121D01*
X734809Y446215D01*
X734820Y446232D01*
X734834Y446246D01*
X734907Y446365D01*
X734983Y446481D01*
X734990Y446500D01*
X735001Y446517D01*
X735042Y446650D01*
X735087Y446782D01*
X735088Y446802D01*
X735094Y446821D01*
X735101Y446960D01*
X735112Y447099D01*
X735108Y447119D01*
X735109Y447139D01*
X735081Y447275D01*
X735058Y447412D01*
X735049Y447431D01*
X735045Y447450D01*
X734984Y447575D01*
X734927Y447702D01*
X734914Y447718D01*
X734905Y447736D01*
X734815Y447842D01*
X734728Y447950D01*
X734712Y447963D01*
X734699Y447978D01*
X734585Y448058D01*
X734474Y448142D01*
X734449Y448154D01*
X734439Y448161D01*
X734420Y448168D01*
X734330Y448213D01*
X734054Y448327D01*
X730267Y452114D01*
X728217Y457062D01*
X728217Y462418D01*
X730267Y467366D01*
X734054Y471153D01*
X734330Y471267D01*
X734450Y471336D01*
X734573Y471401D01*
X734588Y471415D01*
X734606Y471425D01*
X734705Y471521D01*
X734809Y471615D01*
X734820Y471632D01*
X734834Y471646D01*
X734907Y471765D01*
X734983Y471881D01*
X734990Y471900D01*
X735001Y471917D01*
X735042Y472050D01*
X735087Y472182D01*
X735088Y472202D01*
X735094Y472221D01*
X735101Y472360D01*
X735112Y472499D01*
X735108Y472519D01*
X735109Y472539D01*
X735081Y472675D01*
X735058Y472812D01*
X735049Y472831D01*
X735045Y472850D01*
X734984Y472975D01*
X734927Y473102D01*
X734914Y473118D01*
X734905Y473136D01*
X734815Y473242D01*
X734728Y473350D01*
X734712Y473363D01*
X734699Y473378D01*
X734585Y473458D01*
X734474Y473542D01*
X734449Y473554D01*
X734439Y473561D01*
X734420Y473568D01*
X734330Y473613D01*
X734054Y473727D01*
X730267Y477514D01*
X728217Y482462D01*
X728217Y487818D01*
X730267Y492766D01*
X734054Y496553D01*
X734330Y496667D01*
X734450Y496736D01*
X734573Y496801D01*
X734588Y496815D01*
X734606Y496825D01*
X734705Y496921D01*
X734809Y497015D01*
X734820Y497032D01*
X734834Y497046D01*
X734907Y497165D01*
X734983Y497281D01*
X734990Y497300D01*
X735001Y497317D01*
X735042Y497450D01*
X735087Y497582D01*
X735088Y497602D01*
X735094Y497621D01*
X735101Y497760D01*
X735112Y497899D01*
X735108Y497919D01*
X735109Y497939D01*
X735081Y498075D01*
X735058Y498212D01*
X735049Y498231D01*
X735045Y498250D01*
X734984Y498375D01*
X734927Y498502D01*
X734914Y498518D01*
X734905Y498536D01*
X734815Y498642D01*
X734728Y498750D01*
X734712Y498763D01*
X734699Y498778D01*
X734585Y498858D01*
X734474Y498942D01*
X734449Y498954D01*
X734439Y498961D01*
X734420Y498968D01*
X734330Y499013D01*
X734054Y499127D01*
X730267Y502914D01*
X728217Y507862D01*
X728217Y513218D01*
X730267Y518166D01*
X734054Y521953D01*
X734330Y522067D01*
X734450Y522136D01*
X734573Y522201D01*
X734588Y522215D01*
X734606Y522225D01*
X734705Y522321D01*
X734809Y522415D01*
X734820Y522432D01*
X734834Y522446D01*
X734907Y522565D01*
X734983Y522681D01*
X734990Y522700D01*
X735001Y522717D01*
X735042Y522850D01*
X735087Y522982D01*
X735088Y523002D01*
X735094Y523021D01*
X735101Y523160D01*
X735112Y523299D01*
X735108Y523319D01*
X735109Y523339D01*
X735081Y523475D01*
X735058Y523612D01*
X735049Y523631D01*
X735045Y523650D01*
X734984Y523775D01*
X734927Y523902D01*
X734914Y523918D01*
X734905Y523936D01*
X734815Y524042D01*
X734728Y524150D01*
X734712Y524163D01*
X734699Y524178D01*
X734585Y524258D01*
X734474Y524342D01*
X734449Y524354D01*
X734439Y524361D01*
X734420Y524368D01*
X734330Y524413D01*
X734054Y524527D01*
X730267Y528314D01*
X728217Y533262D01*
X728217Y538618D01*
X730267Y543566D01*
X734054Y547353D01*
X734330Y547467D01*
X734450Y547536D01*
X734573Y547601D01*
X734588Y547615D01*
X734606Y547625D01*
X734705Y547721D01*
X734809Y547815D01*
X734820Y547832D01*
X734834Y547846D01*
X734907Y547965D01*
X734983Y548081D01*
X734990Y548100D01*
X735001Y548117D01*
X735042Y548250D01*
X735087Y548382D01*
X735088Y548402D01*
X735094Y548421D01*
X735101Y548560D01*
X735112Y548699D01*
X735108Y548719D01*
X735109Y548739D01*
X735081Y548875D01*
X735058Y549012D01*
X735049Y549031D01*
X735045Y549050D01*
X734984Y549175D01*
X734927Y549302D01*
X734914Y549318D01*
X734905Y549336D01*
X734815Y549442D01*
X734728Y549550D01*
X734712Y549563D01*
X734699Y549578D01*
X734585Y549658D01*
X734474Y549742D01*
X734449Y549754D01*
X734439Y549761D01*
X734420Y549768D01*
X734330Y549813D01*
X734054Y549927D01*
X730267Y553714D01*
X728217Y558662D01*
X728217Y564018D01*
X730267Y568966D01*
X734054Y572753D01*
X734330Y572867D01*
X734450Y572936D01*
X734573Y573001D01*
X734588Y573015D01*
X734606Y573025D01*
X734705Y573121D01*
X734809Y573215D01*
X734820Y573232D01*
X734834Y573246D01*
X734907Y573365D01*
X734983Y573481D01*
X734990Y573500D01*
X735001Y573517D01*
X735042Y573650D01*
X735087Y573782D01*
X735088Y573802D01*
X735094Y573821D01*
X735101Y573960D01*
X735112Y574099D01*
X735108Y574119D01*
X735109Y574139D01*
X735081Y574275D01*
X735058Y574412D01*
X735049Y574431D01*
X735045Y574450D01*
X734984Y574575D01*
X734927Y574702D01*
X734914Y574718D01*
X734905Y574736D01*
X734815Y574842D01*
X734728Y574950D01*
X734712Y574963D01*
X734699Y574978D01*
X734585Y575058D01*
X734474Y575142D01*
X734449Y575154D01*
X734439Y575161D01*
X734420Y575168D01*
X734330Y575213D01*
X734054Y575327D01*
X730267Y579114D01*
X728217Y584062D01*
X728217Y589418D01*
X730267Y594366D01*
X734054Y598153D01*
X738335Y599927D01*
X738361Y599941D01*
X738390Y599951D01*
X738499Y600020D01*
X738612Y600084D01*
X738633Y600105D01*
X738658Y600121D01*
X738747Y600215D01*
X738840Y600305D01*
X738856Y600331D01*
X738876Y600353D01*
X738939Y600466D01*
X739006Y600577D01*
X739015Y600605D01*
X739030Y600631D01*
X739062Y600757D01*
X739100Y600880D01*
X739101Y600910D01*
X739109Y600939D01*
X739109Y601069D01*
X739115Y601198D01*
X739109Y601227D01*
X739109Y601257D01*
X739077Y601383D01*
X739051Y601510D01*
X739038Y601536D01*
X739030Y601565D01*
X738968Y601679D01*
X738911Y601795D01*
X738892Y601818D01*
X738877Y601844D01*
X738789Y601938D01*
X738705Y602037D01*
X738680Y602055D01*
X738660Y602076D01*
X738551Y602146D01*
X738445Y602220D01*
X738417Y602231D01*
X738392Y602247D01*
X738242Y602306D01*
X737682Y602488D01*
X736221Y603233D01*
X734895Y604196D01*
X733736Y605355D01*
X732773Y606681D01*
X732028Y608142D01*
X731541Y609641D01*
X740450Y609641D01*
X740568Y609656D01*
X740687Y609663D01*
X740725Y609675D01*
X740765Y609681D01*
X740876Y609724D01*
X740989Y609761D01*
X741023Y609783D01*
X741061Y609798D01*
X741157Y609867D01*
X741258Y609931D01*
X741286Y609961D01*
X741318Y609984D01*
X741394Y610076D01*
X741476Y610163D01*
X741495Y610198D01*
X741521Y610229D01*
X741572Y610337D01*
X741629Y610441D01*
X741639Y610481D01*
X741657Y610517D01*
X741677Y610624D01*
X741681Y610594D01*
X741725Y610484D01*
X741761Y610371D01*
X741783Y610336D01*
X741798Y610299D01*
X741868Y610202D01*
X741931Y610102D01*
X741961Y610074D01*
X741985Y610041D01*
X742076Y609965D01*
X742163Y609884D01*
X742198Y609864D01*
X742230Y609839D01*
X742337Y609788D01*
X742442Y609730D01*
X742481Y609720D01*
X742517Y609703D01*
X742634Y609681D01*
X742750Y609651D01*
X742810Y609647D01*
X742830Y609643D01*
X742850Y609645D01*
X742910Y609641D01*
X751819Y609641D01*
X751332Y608142D01*
X750587Y606681D01*
X749624Y605355D01*
X748465Y604196D01*
X747139Y603233D01*
X745678Y602488D01*
X745118Y602306D01*
X745091Y602294D01*
X745062Y602287D01*
X744948Y602226D01*
X744830Y602171D01*
X744807Y602152D01*
X744781Y602138D01*
X744685Y602051D01*
X744585Y601968D01*
X744568Y601944D01*
X744546Y601924D01*
X744474Y601816D01*
X744398Y601711D01*
X744387Y601683D01*
X744371Y601658D01*
X744329Y601536D01*
X744281Y601415D01*
X744277Y601386D01*
X744268Y601358D01*
X744257Y601228D01*
X744241Y601100D01*
X744245Y601070D01*
X744242Y601041D01*
X744265Y600912D01*
X744281Y600784D01*
X744292Y600757D01*
X744297Y600727D01*
X744350Y600609D01*
X744398Y600489D01*
X744415Y600464D01*
X744427Y600437D01*
X744508Y600336D01*
X744584Y600231D01*
X744607Y600212D01*
X744626Y600189D01*
X744730Y600111D01*
X744829Y600028D01*
X744856Y600016D01*
X744880Y599998D01*
X745025Y599927D01*
X749306Y598153D01*
X753093Y594366D01*
X755143Y589418D01*
X755143Y584062D01*
X753093Y579114D01*
X749306Y575327D01*
X749030Y575213D01*
X748909Y575144D01*
X748787Y575079D01*
X748772Y575065D01*
X748754Y575055D01*
X748654Y574958D01*
X748551Y574865D01*
X748540Y574848D01*
X748526Y574834D01*
X748453Y574716D01*
X748376Y574599D01*
X748370Y574580D01*
X748359Y574563D01*
X748318Y574430D01*
X748273Y574298D01*
X748272Y574278D01*
X748266Y574259D01*
X748259Y574120D01*
X748248Y573981D01*
X748252Y573961D01*
X748251Y573941D01*
X748279Y573805D01*
X748303Y573668D01*
X748311Y573649D01*
X748315Y573630D01*
X748376Y573504D01*
X748433Y573378D01*
X748446Y573362D01*
X748455Y573344D01*
X748545Y573238D01*
X748632Y573129D01*
X748648Y573117D01*
X748661Y573102D01*
X748775Y573021D01*
X748886Y572938D01*
X748911Y572926D01*
X748921Y572919D01*
X748940Y572912D01*
X749030Y572867D01*
X749306Y572753D01*
X753093Y568966D01*
X755143Y564018D01*
X755143Y558662D01*
X753093Y553714D01*
X749306Y549927D01*
X749030Y549813D01*
X748909Y549744D01*
X748787Y549679D01*
X748772Y549665D01*
X748754Y549655D01*
X748654Y549558D01*
X748551Y549465D01*
X748540Y549448D01*
X748526Y549434D01*
X748453Y549316D01*
X748376Y549199D01*
X748370Y549180D01*
X748359Y549163D01*
X748318Y549030D01*
X748273Y548898D01*
X748272Y548878D01*
X748266Y548859D01*
X748259Y548720D01*
X748248Y548581D01*
X748252Y548561D01*
X748251Y548541D01*
X748279Y548405D01*
X748303Y548268D01*
X748311Y548249D01*
X748315Y548230D01*
X748376Y548104D01*
X748433Y547978D01*
X748446Y547962D01*
X748455Y547944D01*
X748545Y547838D01*
X748632Y547729D01*
X748648Y547717D01*
X748661Y547702D01*
X748775Y547621D01*
X748886Y547538D01*
X748911Y547526D01*
X748921Y547519D01*
X748940Y547512D01*
X749030Y547467D01*
X749306Y547353D01*
X753093Y543566D01*
X755143Y538618D01*
X755143Y533262D01*
X753093Y528314D01*
X749306Y524527D01*
X749030Y524413D01*
X748909Y524344D01*
X748787Y524279D01*
X748772Y524265D01*
X748754Y524255D01*
X748654Y524158D01*
X748551Y524065D01*
X748540Y524048D01*
X748526Y524034D01*
X748453Y523916D01*
X748376Y523799D01*
X748370Y523780D01*
X748359Y523763D01*
X748318Y523630D01*
X748273Y523498D01*
X748272Y523478D01*
X748266Y523459D01*
X748259Y523320D01*
X748248Y523181D01*
X748252Y523161D01*
X748251Y523141D01*
X748279Y523005D01*
X748303Y522868D01*
X748311Y522849D01*
X748315Y522830D01*
X748376Y522704D01*
X748433Y522578D01*
X748446Y522562D01*
X748455Y522544D01*
X748545Y522438D01*
X748632Y522329D01*
X748648Y522317D01*
X748661Y522302D01*
X748775Y522221D01*
X748886Y522138D01*
X748911Y522126D01*
X748921Y522119D01*
X748940Y522112D01*
X749030Y522067D01*
X749306Y521953D01*
X753093Y518166D01*
X755143Y513218D01*
X755143Y507862D01*
X753093Y502914D01*
X749306Y499127D01*
X749030Y499013D01*
X748909Y498944D01*
X748787Y498879D01*
X748772Y498865D01*
X748754Y498855D01*
X748654Y498758D01*
X748551Y498665D01*
X748540Y498648D01*
X748526Y498634D01*
X748453Y498516D01*
X748376Y498399D01*
X748370Y498380D01*
X748359Y498363D01*
X748318Y498230D01*
X748273Y498098D01*
X748272Y498078D01*
X748266Y498059D01*
X748259Y497920D01*
X748248Y497781D01*
X748252Y497761D01*
X748251Y497741D01*
X748279Y497605D01*
X748303Y497468D01*
X748311Y497449D01*
X748315Y497430D01*
X748376Y497304D01*
X748433Y497178D01*
X748446Y497162D01*
X748455Y497144D01*
X748545Y497038D01*
X748632Y496929D01*
X748648Y496917D01*
X748661Y496902D01*
X748775Y496821D01*
X748886Y496738D01*
X748911Y496726D01*
X748921Y496719D01*
X748940Y496712D01*
X749030Y496667D01*
X749306Y496553D01*
X753093Y492766D01*
X755143Y487818D01*
X755143Y482462D01*
X753093Y477514D01*
X749306Y473727D01*
X749030Y473613D01*
X748909Y473544D01*
X748787Y473479D01*
X748772Y473465D01*
X748754Y473455D01*
X748654Y473358D01*
X748551Y473265D01*
X748540Y473248D01*
X748526Y473234D01*
X748453Y473116D01*
X748376Y472999D01*
X748370Y472980D01*
X748359Y472963D01*
X748318Y472830D01*
X748273Y472698D01*
X748272Y472678D01*
X748266Y472659D01*
X748259Y472520D01*
X748248Y472381D01*
X748252Y472361D01*
X748251Y472341D01*
X748279Y472205D01*
X748303Y472068D01*
X748311Y472049D01*
X748315Y472030D01*
X748376Y471904D01*
X748433Y471778D01*
X748446Y471762D01*
X748455Y471744D01*
X748545Y471638D01*
X748632Y471529D01*
X748648Y471517D01*
X748661Y471502D01*
X748775Y471421D01*
X748886Y471338D01*
X748911Y471326D01*
X748921Y471319D01*
X748940Y471312D01*
X749030Y471267D01*
X749306Y471153D01*
X753093Y467366D01*
X755143Y462418D01*
X755143Y457062D01*
X753093Y452114D01*
X749306Y448327D01*
X749030Y448213D01*
X748909Y448144D01*
X748787Y448079D01*
X748772Y448065D01*
X748754Y448055D01*
X748654Y447958D01*
X748551Y447865D01*
X748540Y447848D01*
X748526Y447834D01*
X748453Y447716D01*
X748376Y447599D01*
X748370Y447580D01*
X748359Y447563D01*
X748318Y447430D01*
X748273Y447298D01*
X748272Y447278D01*
X748266Y447259D01*
X748259Y447120D01*
X748248Y446981D01*
X748252Y446961D01*
X748251Y446941D01*
X748279Y446805D01*
X748303Y446668D01*
X748311Y446649D01*
X748315Y446630D01*
X748376Y446504D01*
X748433Y446378D01*
X748446Y446362D01*
X748455Y446344D01*
X748545Y446238D01*
X748632Y446129D01*
X748648Y446117D01*
X748661Y446102D01*
X748775Y446021D01*
X748886Y445938D01*
X748911Y445926D01*
X748921Y445919D01*
X748940Y445912D01*
X749030Y445867D01*
X749306Y445753D01*
X753093Y441966D01*
X755143Y437018D01*
X755143Y431662D01*
X753093Y426714D01*
X749306Y422927D01*
X749030Y422813D01*
X748909Y422744D01*
X748787Y422679D01*
X748772Y422665D01*
X748754Y422655D01*
X748654Y422558D01*
X748551Y422465D01*
X748540Y422448D01*
X748526Y422434D01*
X748453Y422316D01*
X748376Y422199D01*
X748370Y422180D01*
X748359Y422163D01*
X748318Y422030D01*
X748273Y421898D01*
X748272Y421878D01*
X748266Y421859D01*
X748259Y421720D01*
X748248Y421581D01*
X748252Y421561D01*
X748251Y421541D01*
X748279Y421405D01*
X748303Y421268D01*
X748311Y421249D01*
X748315Y421230D01*
X748376Y421104D01*
X748433Y420978D01*
X748446Y420962D01*
X748455Y420944D01*
X748545Y420838D01*
X748632Y420729D01*
X748648Y420717D01*
X748661Y420702D01*
X748775Y420621D01*
X748886Y420538D01*
X748911Y420526D01*
X748921Y420519D01*
X748940Y420512D01*
X749030Y420467D01*
X749306Y420353D01*
X753093Y416566D01*
X755143Y411618D01*
X755143Y406262D01*
X753093Y401314D01*
X749306Y397527D01*
X749030Y397413D01*
X748909Y397344D01*
X748787Y397279D01*
X748772Y397265D01*
X748754Y397255D01*
X748654Y397158D01*
X748551Y397065D01*
X748540Y397048D01*
X748526Y397034D01*
X748453Y396916D01*
X748376Y396799D01*
X748370Y396780D01*
X748359Y396763D01*
X748318Y396630D01*
X748273Y396498D01*
X748272Y396478D01*
X748266Y396459D01*
X748259Y396320D01*
X748248Y396181D01*
X748252Y396161D01*
X748251Y396141D01*
X748279Y396005D01*
X748303Y395868D01*
X748311Y395849D01*
X748315Y395830D01*
X748376Y395704D01*
X748433Y395578D01*
X748446Y395562D01*
X748455Y395544D01*
X748545Y395438D01*
X748632Y395329D01*
X748648Y395317D01*
X748661Y395302D01*
X748775Y395221D01*
X748886Y395138D01*
X748911Y395126D01*
X748921Y395119D01*
X748940Y395112D01*
X749030Y395067D01*
X749306Y394953D01*
X753093Y391166D01*
X755143Y386218D01*
X755143Y380862D01*
X753093Y375914D01*
X749306Y372127D01*
X749030Y372013D01*
X748909Y371944D01*
X748787Y371879D01*
X748772Y371865D01*
X748754Y371855D01*
X748654Y371758D01*
X748551Y371665D01*
X748540Y371648D01*
X748526Y371634D01*
X748453Y371516D01*
X748376Y371399D01*
X748370Y371380D01*
X748359Y371363D01*
X748318Y371230D01*
X748273Y371098D01*
X748272Y371078D01*
X748266Y371059D01*
X748259Y370920D01*
X748248Y370781D01*
X748252Y370761D01*
X748251Y370741D01*
X748279Y370605D01*
X748303Y370468D01*
X748311Y370449D01*
X748315Y370430D01*
X748376Y370304D01*
X748433Y370178D01*
X748446Y370162D01*
X748455Y370144D01*
X748545Y370038D01*
X748632Y369929D01*
X748648Y369917D01*
X748661Y369902D01*
X748775Y369821D01*
X748886Y369738D01*
X748911Y369726D01*
X748921Y369719D01*
X748940Y369712D01*
X749030Y369667D01*
X749306Y369553D01*
X753093Y365766D01*
X755143Y360818D01*
X755143Y355462D01*
X753093Y350514D01*
X749306Y346727D01*
X749030Y346613D01*
X748909Y346544D01*
X748787Y346479D01*
X748772Y346465D01*
X748754Y346455D01*
X748654Y346358D01*
X748551Y346265D01*
X748540Y346248D01*
X748526Y346234D01*
X748453Y346116D01*
X748376Y345999D01*
X748370Y345980D01*
X748359Y345963D01*
X748318Y345830D01*
X748273Y345698D01*
X748272Y345678D01*
X748266Y345659D01*
X748259Y345520D01*
X748248Y345381D01*
X748252Y345361D01*
X748251Y345341D01*
X748279Y345205D01*
X748303Y345068D01*
X748311Y345049D01*
X748315Y345030D01*
X748376Y344904D01*
X748433Y344778D01*
X748446Y344762D01*
X748455Y344744D01*
X748545Y344638D01*
X748632Y344529D01*
X748648Y344517D01*
X748661Y344502D01*
X748775Y344421D01*
X748886Y344338D01*
X748911Y344326D01*
X748921Y344319D01*
X748940Y344312D01*
X749030Y344267D01*
X749306Y344153D01*
X753093Y340366D01*
X755143Y335418D01*
X755143Y330062D01*
X753093Y325114D01*
X749306Y321327D01*
X749030Y321213D01*
X748909Y321144D01*
X748787Y321079D01*
X748772Y321065D01*
X748754Y321055D01*
X748654Y320958D01*
X748551Y320865D01*
X748540Y320848D01*
X748526Y320834D01*
X748453Y320716D01*
X748376Y320599D01*
X748370Y320580D01*
X748359Y320563D01*
X748318Y320430D01*
X748273Y320298D01*
X748272Y320278D01*
X748266Y320259D01*
X748259Y320120D01*
X748248Y319981D01*
X748252Y319961D01*
X748251Y319941D01*
X748279Y319805D01*
X748303Y319668D01*
X748311Y319649D01*
X748315Y319630D01*
X748376Y319504D01*
X748433Y319378D01*
X748446Y319362D01*
X748455Y319344D01*
X748545Y319238D01*
X748632Y319129D01*
X748648Y319117D01*
X748661Y319102D01*
X748775Y319021D01*
X748886Y318938D01*
X748911Y318926D01*
X748921Y318919D01*
X748940Y318912D01*
X749030Y318867D01*
X749306Y318753D01*
X753093Y314966D01*
X755143Y310018D01*
X755143Y304662D01*
X753093Y299714D01*
X749306Y295927D01*
X744358Y293877D01*
X739002Y293877D01*
G37*
%LPD*%
%LPC*%
G36*
X942202Y293877D02*
X942202Y293877D01*
X937254Y295927D01*
X933467Y299714D01*
X931417Y304662D01*
X931417Y310018D01*
X933467Y314966D01*
X937254Y318753D01*
X937530Y318867D01*
X937651Y318936D01*
X937773Y319001D01*
X937788Y319015D01*
X937806Y319025D01*
X937906Y319122D01*
X938009Y319215D01*
X938020Y319232D01*
X938034Y319246D01*
X938107Y319364D01*
X938184Y319481D01*
X938190Y319500D01*
X938201Y319517D01*
X938242Y319650D01*
X938287Y319782D01*
X938288Y319802D01*
X938294Y319821D01*
X938301Y319960D01*
X938312Y320099D01*
X938308Y320119D01*
X938309Y320139D01*
X938281Y320275D01*
X938257Y320412D01*
X938249Y320431D01*
X938245Y320450D01*
X938184Y320576D01*
X938127Y320702D01*
X938114Y320718D01*
X938105Y320736D01*
X938015Y320842D01*
X937928Y320951D01*
X937912Y320963D01*
X937899Y320978D01*
X937785Y321059D01*
X937674Y321142D01*
X937649Y321154D01*
X937639Y321161D01*
X937620Y321168D01*
X937530Y321213D01*
X937254Y321327D01*
X933467Y325114D01*
X931417Y330062D01*
X931417Y335418D01*
X933467Y340366D01*
X937254Y344153D01*
X937530Y344267D01*
X937651Y344336D01*
X937773Y344401D01*
X937788Y344415D01*
X937806Y344425D01*
X937906Y344522D01*
X938009Y344615D01*
X938020Y344632D01*
X938034Y344646D01*
X938107Y344764D01*
X938184Y344881D01*
X938190Y344900D01*
X938201Y344917D01*
X938242Y345050D01*
X938287Y345182D01*
X938288Y345202D01*
X938294Y345221D01*
X938301Y345360D01*
X938312Y345499D01*
X938308Y345519D01*
X938309Y345539D01*
X938281Y345675D01*
X938257Y345812D01*
X938249Y345831D01*
X938245Y345850D01*
X938184Y345976D01*
X938127Y346102D01*
X938114Y346118D01*
X938105Y346136D01*
X938015Y346242D01*
X937928Y346351D01*
X937912Y346363D01*
X937899Y346378D01*
X937785Y346459D01*
X937674Y346542D01*
X937649Y346554D01*
X937639Y346561D01*
X937620Y346568D01*
X937530Y346613D01*
X937254Y346727D01*
X933467Y350514D01*
X931417Y355462D01*
X931417Y360818D01*
X933467Y365766D01*
X937254Y369553D01*
X937530Y369667D01*
X937651Y369736D01*
X937773Y369801D01*
X937788Y369815D01*
X937806Y369825D01*
X937906Y369922D01*
X938009Y370015D01*
X938020Y370032D01*
X938034Y370046D01*
X938107Y370164D01*
X938184Y370281D01*
X938190Y370300D01*
X938201Y370317D01*
X938242Y370450D01*
X938287Y370582D01*
X938288Y370602D01*
X938294Y370621D01*
X938301Y370760D01*
X938312Y370899D01*
X938308Y370919D01*
X938309Y370939D01*
X938281Y371075D01*
X938257Y371212D01*
X938249Y371231D01*
X938245Y371250D01*
X938184Y371376D01*
X938127Y371502D01*
X938114Y371518D01*
X938105Y371536D01*
X938015Y371642D01*
X937928Y371751D01*
X937912Y371763D01*
X937899Y371778D01*
X937785Y371859D01*
X937674Y371942D01*
X937649Y371954D01*
X937639Y371961D01*
X937620Y371968D01*
X937530Y372013D01*
X937254Y372127D01*
X933467Y375914D01*
X931417Y380862D01*
X931417Y386218D01*
X933467Y391166D01*
X937254Y394953D01*
X937530Y395067D01*
X937651Y395136D01*
X937773Y395201D01*
X937788Y395215D01*
X937806Y395225D01*
X937906Y395322D01*
X938009Y395415D01*
X938020Y395432D01*
X938034Y395446D01*
X938107Y395564D01*
X938184Y395681D01*
X938190Y395700D01*
X938201Y395717D01*
X938242Y395850D01*
X938287Y395982D01*
X938288Y396002D01*
X938294Y396021D01*
X938301Y396160D01*
X938312Y396299D01*
X938308Y396319D01*
X938309Y396339D01*
X938281Y396475D01*
X938257Y396612D01*
X938249Y396631D01*
X938245Y396650D01*
X938184Y396776D01*
X938127Y396902D01*
X938114Y396918D01*
X938105Y396936D01*
X938015Y397042D01*
X937928Y397151D01*
X937912Y397163D01*
X937899Y397178D01*
X937785Y397259D01*
X937674Y397342D01*
X937649Y397354D01*
X937639Y397361D01*
X937620Y397368D01*
X937530Y397413D01*
X937254Y397527D01*
X933467Y401314D01*
X931417Y406262D01*
X931417Y411618D01*
X933467Y416566D01*
X937254Y420353D01*
X937530Y420467D01*
X937650Y420536D01*
X937773Y420601D01*
X937788Y420615D01*
X937806Y420625D01*
X937905Y420721D01*
X938009Y420815D01*
X938020Y420832D01*
X938034Y420846D01*
X938107Y420965D01*
X938183Y421081D01*
X938190Y421100D01*
X938201Y421117D01*
X938242Y421250D01*
X938287Y421382D01*
X938288Y421402D01*
X938294Y421421D01*
X938301Y421560D01*
X938312Y421699D01*
X938308Y421719D01*
X938309Y421739D01*
X938281Y421875D01*
X938258Y422012D01*
X938249Y422031D01*
X938245Y422050D01*
X938184Y422175D01*
X938127Y422302D01*
X938114Y422318D01*
X938105Y422336D01*
X938015Y422442D01*
X937928Y422550D01*
X937912Y422563D01*
X937899Y422578D01*
X937785Y422658D01*
X937674Y422742D01*
X937649Y422754D01*
X937639Y422761D01*
X937620Y422768D01*
X937530Y422813D01*
X937254Y422927D01*
X933467Y426714D01*
X931417Y431662D01*
X931417Y437018D01*
X933467Y441966D01*
X937254Y445753D01*
X937530Y445867D01*
X937650Y445936D01*
X937773Y446001D01*
X937788Y446015D01*
X937806Y446025D01*
X937906Y446122D01*
X938009Y446215D01*
X938020Y446232D01*
X938034Y446246D01*
X938107Y446365D01*
X938183Y446481D01*
X938190Y446500D01*
X938201Y446517D01*
X938242Y446650D01*
X938287Y446782D01*
X938288Y446802D01*
X938294Y446821D01*
X938301Y446960D01*
X938312Y447099D01*
X938308Y447119D01*
X938309Y447139D01*
X938281Y447275D01*
X938257Y447412D01*
X938249Y447431D01*
X938245Y447450D01*
X938184Y447575D01*
X938127Y447702D01*
X938114Y447718D01*
X938105Y447736D01*
X938015Y447842D01*
X937928Y447951D01*
X937912Y447963D01*
X937899Y447978D01*
X937786Y448058D01*
X937674Y448142D01*
X937649Y448154D01*
X937639Y448161D01*
X937620Y448168D01*
X937530Y448213D01*
X937254Y448327D01*
X933467Y452114D01*
X931417Y457062D01*
X931417Y462418D01*
X933467Y467366D01*
X937254Y471153D01*
X937530Y471267D01*
X937650Y471336D01*
X937773Y471401D01*
X937788Y471415D01*
X937806Y471425D01*
X937906Y471522D01*
X938009Y471615D01*
X938020Y471632D01*
X938034Y471646D01*
X938107Y471765D01*
X938183Y471881D01*
X938190Y471900D01*
X938201Y471917D01*
X938242Y472050D01*
X938287Y472182D01*
X938288Y472202D01*
X938294Y472221D01*
X938301Y472360D01*
X938312Y472499D01*
X938308Y472519D01*
X938309Y472539D01*
X938281Y472675D01*
X938257Y472812D01*
X938249Y472831D01*
X938245Y472850D01*
X938184Y472975D01*
X938127Y473102D01*
X938114Y473118D01*
X938105Y473136D01*
X938015Y473242D01*
X937928Y473351D01*
X937912Y473363D01*
X937899Y473378D01*
X937786Y473458D01*
X937674Y473542D01*
X937649Y473554D01*
X937639Y473561D01*
X937620Y473568D01*
X937530Y473613D01*
X937254Y473727D01*
X933467Y477514D01*
X931417Y482462D01*
X931417Y487818D01*
X933467Y492766D01*
X937254Y496553D01*
X937530Y496667D01*
X937650Y496736D01*
X937773Y496801D01*
X937788Y496815D01*
X937806Y496825D01*
X937906Y496922D01*
X938009Y497015D01*
X938020Y497032D01*
X938034Y497046D01*
X938107Y497165D01*
X938183Y497281D01*
X938190Y497300D01*
X938201Y497317D01*
X938242Y497450D01*
X938287Y497582D01*
X938288Y497602D01*
X938294Y497621D01*
X938301Y497760D01*
X938312Y497899D01*
X938308Y497919D01*
X938309Y497939D01*
X938281Y498075D01*
X938257Y498212D01*
X938249Y498231D01*
X938245Y498250D01*
X938184Y498375D01*
X938127Y498502D01*
X938114Y498518D01*
X938105Y498536D01*
X938015Y498642D01*
X937928Y498751D01*
X937912Y498763D01*
X937899Y498778D01*
X937786Y498858D01*
X937674Y498942D01*
X937649Y498954D01*
X937639Y498961D01*
X937620Y498968D01*
X937530Y499013D01*
X937254Y499127D01*
X933467Y502914D01*
X931417Y507862D01*
X931417Y513218D01*
X933467Y518166D01*
X937254Y521953D01*
X937530Y522067D01*
X937650Y522136D01*
X937773Y522201D01*
X937788Y522215D01*
X937806Y522225D01*
X937906Y522322D01*
X938009Y522415D01*
X938020Y522432D01*
X938034Y522446D01*
X938107Y522565D01*
X938183Y522681D01*
X938190Y522700D01*
X938201Y522717D01*
X938242Y522850D01*
X938287Y522982D01*
X938288Y523002D01*
X938294Y523021D01*
X938301Y523160D01*
X938312Y523299D01*
X938308Y523319D01*
X938309Y523339D01*
X938281Y523475D01*
X938257Y523612D01*
X938249Y523631D01*
X938245Y523650D01*
X938184Y523775D01*
X938127Y523902D01*
X938114Y523918D01*
X938105Y523936D01*
X938015Y524042D01*
X937928Y524151D01*
X937912Y524163D01*
X937899Y524178D01*
X937786Y524258D01*
X937674Y524342D01*
X937649Y524354D01*
X937639Y524361D01*
X937620Y524368D01*
X937530Y524413D01*
X937254Y524527D01*
X933467Y528314D01*
X931417Y533262D01*
X931417Y538618D01*
X933467Y543566D01*
X937254Y547353D01*
X937530Y547467D01*
X937650Y547536D01*
X937773Y547601D01*
X937788Y547615D01*
X937806Y547625D01*
X937906Y547722D01*
X938009Y547815D01*
X938020Y547832D01*
X938034Y547846D01*
X938107Y547965D01*
X938183Y548081D01*
X938190Y548100D01*
X938201Y548117D01*
X938242Y548250D01*
X938287Y548382D01*
X938288Y548402D01*
X938294Y548421D01*
X938301Y548560D01*
X938312Y548699D01*
X938308Y548719D01*
X938309Y548739D01*
X938281Y548875D01*
X938257Y549012D01*
X938249Y549031D01*
X938245Y549050D01*
X938184Y549175D01*
X938127Y549302D01*
X938114Y549318D01*
X938105Y549336D01*
X938015Y549442D01*
X937928Y549551D01*
X937912Y549563D01*
X937899Y549578D01*
X937786Y549658D01*
X937674Y549742D01*
X937649Y549754D01*
X937639Y549761D01*
X937620Y549768D01*
X937530Y549813D01*
X937254Y549927D01*
X933467Y553714D01*
X931417Y558662D01*
X931417Y564018D01*
X933467Y568966D01*
X937254Y572753D01*
X937530Y572867D01*
X937650Y572936D01*
X937773Y573001D01*
X937788Y573015D01*
X937806Y573025D01*
X937906Y573122D01*
X938009Y573215D01*
X938020Y573232D01*
X938034Y573246D01*
X938107Y573365D01*
X938183Y573481D01*
X938190Y573500D01*
X938201Y573517D01*
X938242Y573650D01*
X938287Y573782D01*
X938288Y573802D01*
X938294Y573821D01*
X938301Y573960D01*
X938312Y574099D01*
X938308Y574119D01*
X938309Y574139D01*
X938281Y574275D01*
X938257Y574412D01*
X938249Y574431D01*
X938245Y574450D01*
X938184Y574575D01*
X938127Y574702D01*
X938114Y574718D01*
X938105Y574736D01*
X938015Y574842D01*
X937928Y574951D01*
X937912Y574963D01*
X937899Y574978D01*
X937786Y575058D01*
X937674Y575142D01*
X937649Y575154D01*
X937639Y575161D01*
X937620Y575168D01*
X937530Y575213D01*
X937254Y575327D01*
X933467Y579114D01*
X931417Y584062D01*
X931417Y589418D01*
X933467Y594366D01*
X937254Y598153D01*
X942202Y600203D01*
X947558Y600203D01*
X952506Y598153D01*
X956293Y594366D01*
X958343Y589418D01*
X958343Y584062D01*
X956293Y579114D01*
X952506Y575327D01*
X952230Y575213D01*
X952110Y575144D01*
X951987Y575079D01*
X951972Y575065D01*
X951954Y575055D01*
X951854Y574958D01*
X951751Y574865D01*
X951740Y574848D01*
X951726Y574834D01*
X951653Y574715D01*
X951577Y574599D01*
X951570Y574580D01*
X951559Y574563D01*
X951518Y574430D01*
X951473Y574298D01*
X951472Y574278D01*
X951466Y574259D01*
X951459Y574120D01*
X951448Y573981D01*
X951452Y573961D01*
X951451Y573941D01*
X951479Y573805D01*
X951503Y573668D01*
X951511Y573650D01*
X951515Y573630D01*
X951576Y573505D01*
X951633Y573378D01*
X951646Y573362D01*
X951655Y573344D01*
X951745Y573238D01*
X951832Y573130D01*
X951848Y573117D01*
X951861Y573102D01*
X951975Y573022D01*
X952086Y572938D01*
X952111Y572926D01*
X952121Y572919D01*
X952140Y572912D01*
X952230Y572867D01*
X952506Y572753D01*
X956293Y568966D01*
X958343Y564018D01*
X958343Y558662D01*
X956293Y553714D01*
X952506Y549927D01*
X952230Y549813D01*
X952110Y549744D01*
X951987Y549679D01*
X951972Y549665D01*
X951954Y549655D01*
X951854Y549558D01*
X951751Y549465D01*
X951740Y549448D01*
X951726Y549434D01*
X951653Y549315D01*
X951577Y549199D01*
X951570Y549180D01*
X951559Y549163D01*
X951518Y549030D01*
X951473Y548898D01*
X951472Y548878D01*
X951466Y548859D01*
X951459Y548720D01*
X951448Y548581D01*
X951452Y548561D01*
X951451Y548541D01*
X951479Y548405D01*
X951503Y548268D01*
X951511Y548250D01*
X951515Y548230D01*
X951576Y548105D01*
X951633Y547978D01*
X951646Y547962D01*
X951655Y547944D01*
X951745Y547838D01*
X951832Y547730D01*
X951848Y547717D01*
X951861Y547702D01*
X951975Y547622D01*
X952086Y547538D01*
X952111Y547526D01*
X952121Y547519D01*
X952140Y547512D01*
X952230Y547467D01*
X952506Y547353D01*
X956293Y543566D01*
X958343Y538618D01*
X958343Y533262D01*
X956293Y528314D01*
X952506Y524527D01*
X952230Y524413D01*
X952110Y524344D01*
X951987Y524279D01*
X951972Y524265D01*
X951954Y524255D01*
X951854Y524158D01*
X951751Y524065D01*
X951740Y524048D01*
X951726Y524034D01*
X951653Y523915D01*
X951577Y523799D01*
X951570Y523780D01*
X951559Y523763D01*
X951518Y523630D01*
X951473Y523498D01*
X951472Y523478D01*
X951466Y523459D01*
X951459Y523320D01*
X951448Y523181D01*
X951452Y523161D01*
X951451Y523141D01*
X951479Y523005D01*
X951503Y522868D01*
X951511Y522850D01*
X951515Y522830D01*
X951576Y522705D01*
X951633Y522578D01*
X951646Y522562D01*
X951655Y522544D01*
X951745Y522438D01*
X951832Y522330D01*
X951848Y522317D01*
X951861Y522302D01*
X951975Y522222D01*
X952086Y522138D01*
X952111Y522126D01*
X952121Y522119D01*
X952140Y522112D01*
X952230Y522067D01*
X952506Y521953D01*
X956293Y518166D01*
X958343Y513218D01*
X958343Y507862D01*
X956293Y502914D01*
X952506Y499127D01*
X952230Y499013D01*
X952110Y498944D01*
X951987Y498879D01*
X951972Y498865D01*
X951954Y498855D01*
X951854Y498758D01*
X951751Y498665D01*
X951740Y498648D01*
X951726Y498634D01*
X951653Y498515D01*
X951577Y498399D01*
X951570Y498380D01*
X951559Y498363D01*
X951518Y498230D01*
X951473Y498098D01*
X951472Y498078D01*
X951466Y498059D01*
X951459Y497920D01*
X951448Y497781D01*
X951452Y497761D01*
X951451Y497741D01*
X951479Y497605D01*
X951503Y497468D01*
X951511Y497450D01*
X951515Y497430D01*
X951576Y497305D01*
X951633Y497178D01*
X951646Y497162D01*
X951655Y497144D01*
X951745Y497038D01*
X951832Y496930D01*
X951848Y496917D01*
X951861Y496902D01*
X951975Y496822D01*
X952086Y496738D01*
X952111Y496726D01*
X952121Y496719D01*
X952140Y496712D01*
X952230Y496667D01*
X952506Y496553D01*
X956293Y492766D01*
X958343Y487818D01*
X958343Y482462D01*
X956293Y477514D01*
X952506Y473727D01*
X952230Y473613D01*
X952110Y473544D01*
X951987Y473479D01*
X951972Y473465D01*
X951954Y473455D01*
X951854Y473358D01*
X951751Y473265D01*
X951740Y473248D01*
X951726Y473234D01*
X951653Y473115D01*
X951577Y472999D01*
X951570Y472980D01*
X951559Y472963D01*
X951518Y472830D01*
X951473Y472698D01*
X951472Y472678D01*
X951466Y472659D01*
X951459Y472520D01*
X951448Y472381D01*
X951452Y472361D01*
X951451Y472341D01*
X951479Y472205D01*
X951503Y472068D01*
X951511Y472050D01*
X951515Y472030D01*
X951576Y471905D01*
X951633Y471778D01*
X951646Y471762D01*
X951655Y471744D01*
X951745Y471638D01*
X951832Y471530D01*
X951848Y471517D01*
X951861Y471502D01*
X951975Y471422D01*
X952086Y471338D01*
X952111Y471326D01*
X952121Y471319D01*
X952140Y471312D01*
X952230Y471267D01*
X952506Y471153D01*
X956293Y467366D01*
X958343Y462418D01*
X958343Y457062D01*
X956293Y452114D01*
X952506Y448327D01*
X952230Y448213D01*
X952110Y448144D01*
X951987Y448079D01*
X951972Y448065D01*
X951954Y448055D01*
X951854Y447958D01*
X951751Y447865D01*
X951740Y447848D01*
X951726Y447834D01*
X951653Y447715D01*
X951577Y447599D01*
X951570Y447580D01*
X951559Y447563D01*
X951518Y447430D01*
X951473Y447298D01*
X951472Y447278D01*
X951466Y447259D01*
X951459Y447120D01*
X951448Y446981D01*
X951452Y446961D01*
X951451Y446941D01*
X951479Y446805D01*
X951503Y446668D01*
X951511Y446650D01*
X951515Y446630D01*
X951576Y446505D01*
X951633Y446378D01*
X951646Y446362D01*
X951655Y446344D01*
X951745Y446238D01*
X951832Y446130D01*
X951848Y446117D01*
X951861Y446102D01*
X951975Y446022D01*
X952086Y445938D01*
X952111Y445926D01*
X952121Y445919D01*
X952140Y445912D01*
X952230Y445867D01*
X952506Y445753D01*
X956293Y441966D01*
X958343Y437018D01*
X958343Y431662D01*
X956293Y426714D01*
X952506Y422927D01*
X952230Y422813D01*
X952109Y422744D01*
X951987Y422679D01*
X951972Y422665D01*
X951954Y422655D01*
X951854Y422558D01*
X951751Y422465D01*
X951740Y422448D01*
X951726Y422434D01*
X951653Y422316D01*
X951576Y422199D01*
X951570Y422180D01*
X951559Y422163D01*
X951518Y422030D01*
X951473Y421898D01*
X951472Y421878D01*
X951466Y421859D01*
X951459Y421720D01*
X951448Y421581D01*
X951452Y421561D01*
X951451Y421541D01*
X951479Y421405D01*
X951503Y421268D01*
X951511Y421249D01*
X951515Y421230D01*
X951576Y421104D01*
X951633Y420978D01*
X951646Y420962D01*
X951655Y420944D01*
X951745Y420838D01*
X951832Y420729D01*
X951848Y420717D01*
X951861Y420702D01*
X951975Y420621D01*
X952086Y420538D01*
X952111Y420526D01*
X952121Y420519D01*
X952140Y420512D01*
X952230Y420467D01*
X952506Y420353D01*
X956293Y416566D01*
X958343Y411618D01*
X958343Y406262D01*
X956293Y401314D01*
X952506Y397527D01*
X952230Y397413D01*
X952110Y397344D01*
X951987Y397279D01*
X951972Y397265D01*
X951954Y397255D01*
X951855Y397159D01*
X951751Y397065D01*
X951740Y397048D01*
X951726Y397034D01*
X951653Y396915D01*
X951577Y396799D01*
X951570Y396780D01*
X951559Y396763D01*
X951518Y396630D01*
X951473Y396498D01*
X951472Y396478D01*
X951466Y396459D01*
X951459Y396320D01*
X951448Y396181D01*
X951452Y396161D01*
X951451Y396141D01*
X951479Y396005D01*
X951502Y395868D01*
X951511Y395849D01*
X951515Y395830D01*
X951576Y395705D01*
X951633Y395578D01*
X951646Y395562D01*
X951655Y395544D01*
X951745Y395438D01*
X951832Y395330D01*
X951848Y395317D01*
X951861Y395302D01*
X951975Y395222D01*
X952086Y395138D01*
X952111Y395126D01*
X952121Y395119D01*
X952140Y395112D01*
X952230Y395067D01*
X952506Y394953D01*
X956293Y391166D01*
X958343Y386218D01*
X958343Y380862D01*
X956293Y375914D01*
X952506Y372127D01*
X952230Y372013D01*
X952110Y371944D01*
X951987Y371879D01*
X951972Y371865D01*
X951954Y371855D01*
X951855Y371759D01*
X951751Y371665D01*
X951740Y371648D01*
X951726Y371634D01*
X951653Y371515D01*
X951577Y371399D01*
X951570Y371380D01*
X951559Y371363D01*
X951518Y371230D01*
X951473Y371098D01*
X951472Y371078D01*
X951466Y371059D01*
X951459Y370920D01*
X951448Y370781D01*
X951452Y370761D01*
X951451Y370741D01*
X951479Y370605D01*
X951502Y370468D01*
X951511Y370449D01*
X951515Y370430D01*
X951576Y370305D01*
X951633Y370178D01*
X951646Y370162D01*
X951655Y370144D01*
X951745Y370038D01*
X951832Y369930D01*
X951848Y369917D01*
X951861Y369902D01*
X951975Y369822D01*
X952086Y369738D01*
X952111Y369726D01*
X952121Y369719D01*
X952140Y369712D01*
X952230Y369667D01*
X952506Y369553D01*
X956293Y365766D01*
X958343Y360818D01*
X958343Y355462D01*
X956293Y350514D01*
X952506Y346727D01*
X952230Y346613D01*
X952110Y346544D01*
X951987Y346479D01*
X951972Y346465D01*
X951954Y346455D01*
X951855Y346359D01*
X951751Y346265D01*
X951740Y346248D01*
X951726Y346234D01*
X951653Y346115D01*
X951577Y345999D01*
X951570Y345980D01*
X951559Y345963D01*
X951518Y345830D01*
X951473Y345698D01*
X951472Y345678D01*
X951466Y345659D01*
X951459Y345520D01*
X951448Y345381D01*
X951452Y345361D01*
X951451Y345341D01*
X951479Y345205D01*
X951502Y345068D01*
X951511Y345049D01*
X951515Y345030D01*
X951576Y344905D01*
X951633Y344778D01*
X951646Y344762D01*
X951655Y344744D01*
X951745Y344638D01*
X951832Y344530D01*
X951848Y344517D01*
X951861Y344502D01*
X951975Y344422D01*
X952086Y344338D01*
X952111Y344326D01*
X952121Y344319D01*
X952140Y344312D01*
X952230Y344267D01*
X952506Y344153D01*
X956293Y340366D01*
X958343Y335418D01*
X958343Y330062D01*
X956293Y325114D01*
X952506Y321327D01*
X952230Y321213D01*
X952110Y321144D01*
X951987Y321079D01*
X951972Y321065D01*
X951954Y321055D01*
X951855Y320959D01*
X951751Y320865D01*
X951740Y320848D01*
X951726Y320834D01*
X951653Y320715D01*
X951577Y320599D01*
X951570Y320580D01*
X951559Y320563D01*
X951518Y320430D01*
X951473Y320298D01*
X951472Y320278D01*
X951466Y320259D01*
X951459Y320120D01*
X951448Y319981D01*
X951452Y319961D01*
X951451Y319941D01*
X951479Y319805D01*
X951502Y319668D01*
X951511Y319649D01*
X951515Y319630D01*
X951576Y319505D01*
X951633Y319378D01*
X951646Y319362D01*
X951655Y319344D01*
X951745Y319238D01*
X951832Y319130D01*
X951848Y319117D01*
X951861Y319102D01*
X951975Y319022D01*
X952086Y318938D01*
X952111Y318926D01*
X952121Y318919D01*
X952140Y318912D01*
X952230Y318867D01*
X952506Y318753D01*
X956293Y314966D01*
X958343Y310018D01*
X958343Y304662D01*
X956293Y299714D01*
X952506Y295927D01*
X947558Y293877D01*
X942202Y293877D01*
G37*
%LPD*%
%LPC*%
G36*
X735610Y1221068D02*
X735610Y1221068D01*
X730942Y1223001D01*
X727369Y1226574D01*
X725436Y1231242D01*
X725436Y1236295D01*
X727369Y1240963D01*
X730942Y1244536D01*
X732777Y1245296D01*
X732898Y1245365D01*
X733021Y1245430D01*
X733036Y1245443D01*
X733054Y1245453D01*
X733153Y1245550D01*
X733256Y1245643D01*
X733268Y1245661D01*
X733282Y1245675D01*
X733354Y1245793D01*
X733431Y1245909D01*
X733438Y1245928D01*
X733448Y1245946D01*
X733489Y1246078D01*
X733534Y1246210D01*
X733536Y1246230D01*
X733542Y1246250D01*
X733548Y1246388D01*
X733560Y1246527D01*
X733556Y1246547D01*
X733557Y1246567D01*
X733529Y1246703D01*
X733505Y1246840D01*
X733497Y1246859D01*
X733493Y1246879D01*
X733431Y1247004D01*
X733375Y1247130D01*
X733362Y1247146D01*
X733353Y1247164D01*
X733262Y1247271D01*
X733176Y1247379D01*
X733160Y1247391D01*
X733147Y1247406D01*
X733033Y1247487D01*
X732922Y1247570D01*
X732897Y1247582D01*
X732887Y1247589D01*
X732867Y1247597D01*
X732777Y1247641D01*
X730942Y1248401D01*
X727369Y1251974D01*
X725436Y1256642D01*
X725436Y1261695D01*
X727369Y1266363D01*
X730942Y1269936D01*
X732777Y1270696D01*
X732898Y1270765D01*
X733021Y1270830D01*
X733036Y1270843D01*
X733054Y1270853D01*
X733153Y1270950D01*
X733256Y1271043D01*
X733268Y1271061D01*
X733282Y1271075D01*
X733354Y1271193D01*
X733431Y1271309D01*
X733438Y1271328D01*
X733448Y1271346D01*
X733489Y1271478D01*
X733534Y1271610D01*
X733536Y1271630D01*
X733542Y1271650D01*
X733548Y1271788D01*
X733560Y1271927D01*
X733556Y1271947D01*
X733557Y1271967D01*
X733529Y1272103D01*
X733505Y1272240D01*
X733497Y1272259D01*
X733493Y1272279D01*
X733431Y1272404D01*
X733375Y1272530D01*
X733362Y1272546D01*
X733353Y1272564D01*
X733262Y1272671D01*
X733176Y1272779D01*
X733160Y1272791D01*
X733147Y1272806D01*
X733033Y1272887D01*
X732922Y1272970D01*
X732897Y1272982D01*
X732887Y1272989D01*
X732867Y1272997D01*
X732777Y1273041D01*
X730942Y1273801D01*
X727369Y1277374D01*
X725436Y1282042D01*
X725436Y1287095D01*
X727369Y1291763D01*
X730942Y1295336D01*
X735610Y1297269D01*
X755903Y1297269D01*
X760571Y1295336D01*
X764144Y1291763D01*
X766077Y1287095D01*
X766077Y1282042D01*
X764144Y1277374D01*
X760571Y1273801D01*
X758735Y1273041D01*
X758615Y1272972D01*
X758492Y1272907D01*
X758477Y1272893D01*
X758459Y1272883D01*
X758360Y1272787D01*
X758256Y1272693D01*
X758245Y1272676D01*
X758231Y1272662D01*
X758158Y1272544D01*
X758082Y1272427D01*
X758075Y1272408D01*
X758065Y1272391D01*
X758024Y1272258D01*
X757979Y1272127D01*
X757977Y1272106D01*
X757971Y1272087D01*
X757964Y1271949D01*
X757953Y1271810D01*
X757957Y1271790D01*
X757956Y1271769D01*
X757984Y1271634D01*
X758008Y1271496D01*
X758016Y1271478D01*
X758020Y1271458D01*
X758081Y1271333D01*
X758138Y1271206D01*
X758151Y1271191D01*
X758160Y1271172D01*
X758250Y1271066D01*
X758337Y1270958D01*
X758353Y1270946D01*
X758366Y1270930D01*
X758480Y1270850D01*
X758591Y1270767D01*
X758616Y1270754D01*
X758626Y1270747D01*
X758645Y1270740D01*
X758735Y1270696D01*
X760571Y1269936D01*
X764144Y1266363D01*
X766077Y1261695D01*
X766077Y1256642D01*
X764144Y1251974D01*
X760571Y1248401D01*
X758735Y1247641D01*
X758615Y1247572D01*
X758492Y1247507D01*
X758477Y1247493D01*
X758459Y1247483D01*
X758360Y1247387D01*
X758256Y1247293D01*
X758245Y1247276D01*
X758231Y1247262D01*
X758158Y1247144D01*
X758082Y1247027D01*
X758075Y1247008D01*
X758065Y1246991D01*
X758024Y1246858D01*
X757979Y1246727D01*
X757977Y1246706D01*
X757971Y1246687D01*
X757964Y1246549D01*
X757953Y1246410D01*
X757957Y1246390D01*
X757956Y1246369D01*
X757984Y1246234D01*
X758008Y1246096D01*
X758016Y1246078D01*
X758020Y1246058D01*
X758081Y1245933D01*
X758138Y1245806D01*
X758151Y1245791D01*
X758160Y1245772D01*
X758250Y1245666D01*
X758337Y1245558D01*
X758353Y1245546D01*
X758366Y1245530D01*
X758480Y1245450D01*
X758591Y1245367D01*
X758616Y1245354D01*
X758626Y1245347D01*
X758645Y1245340D01*
X758735Y1245296D01*
X760571Y1244536D01*
X764144Y1240963D01*
X766077Y1236295D01*
X766077Y1231242D01*
X764144Y1226574D01*
X760571Y1223001D01*
X755903Y1221068D01*
X735610Y1221068D01*
G37*
%LPD*%
%LPC*%
G36*
X686327Y600110D02*
X686327Y600110D01*
X681659Y602044D01*
X678086Y605617D01*
X676153Y610285D01*
X676153Y615337D01*
X678086Y620005D01*
X681659Y623578D01*
X683494Y624338D01*
X683615Y624407D01*
X683738Y624472D01*
X683753Y624486D01*
X683770Y624496D01*
X683870Y624592D01*
X683973Y624686D01*
X683984Y624703D01*
X683999Y624717D01*
X684071Y624835D01*
X684148Y624952D01*
X684155Y624971D01*
X684165Y624988D01*
X684206Y625121D01*
X684251Y625253D01*
X684253Y625273D01*
X684259Y625292D01*
X684265Y625430D01*
X684276Y625570D01*
X684273Y625590D01*
X684274Y625610D01*
X684246Y625746D01*
X684222Y625883D01*
X684214Y625901D01*
X684210Y625921D01*
X684148Y626047D01*
X684091Y626173D01*
X684079Y626189D01*
X684070Y626207D01*
X683979Y626313D01*
X683893Y626421D01*
X683877Y626433D01*
X683864Y626449D01*
X683750Y626529D01*
X683639Y626613D01*
X683613Y626625D01*
X683604Y626632D01*
X683584Y626639D01*
X683494Y626684D01*
X681659Y627444D01*
X678086Y631017D01*
X676153Y635685D01*
X676153Y640737D01*
X678086Y645405D01*
X681659Y648978D01*
X683494Y649738D01*
X683615Y649807D01*
X683738Y649872D01*
X683753Y649886D01*
X683770Y649896D01*
X683870Y649992D01*
X683973Y650086D01*
X683984Y650103D01*
X683999Y650117D01*
X684071Y650235D01*
X684148Y650352D01*
X684155Y650371D01*
X684165Y650388D01*
X684206Y650521D01*
X684251Y650653D01*
X684253Y650673D01*
X684259Y650692D01*
X684265Y650830D01*
X684276Y650970D01*
X684273Y650990D01*
X684274Y651010D01*
X684246Y651146D01*
X684222Y651283D01*
X684214Y651301D01*
X684210Y651321D01*
X684148Y651447D01*
X684091Y651573D01*
X684079Y651589D01*
X684070Y651607D01*
X683979Y651713D01*
X683893Y651821D01*
X683877Y651833D01*
X683864Y651849D01*
X683750Y651929D01*
X683639Y652013D01*
X683613Y652025D01*
X683604Y652032D01*
X683584Y652039D01*
X683494Y652084D01*
X681659Y652844D01*
X678086Y656417D01*
X676153Y661085D01*
X676153Y666137D01*
X678086Y670805D01*
X681659Y674378D01*
X686327Y676312D01*
X706620Y676312D01*
X711288Y674378D01*
X714860Y670805D01*
X716794Y666137D01*
X716794Y661085D01*
X714860Y656417D01*
X711288Y652844D01*
X709452Y652084D01*
X709332Y652015D01*
X709209Y651950D01*
X709194Y651936D01*
X709176Y651926D01*
X709077Y651830D01*
X708973Y651736D01*
X708962Y651719D01*
X708948Y651705D01*
X708875Y651586D01*
X708799Y651470D01*
X708792Y651451D01*
X708781Y651434D01*
X708741Y651301D01*
X708695Y651169D01*
X708694Y651149D01*
X708688Y651130D01*
X708681Y650991D01*
X708670Y650852D01*
X708674Y650832D01*
X708673Y650812D01*
X708701Y650677D01*
X708725Y650539D01*
X708733Y650520D01*
X708737Y650501D01*
X708798Y650376D01*
X708855Y650249D01*
X708868Y650233D01*
X708877Y650215D01*
X708967Y650109D01*
X709054Y650000D01*
X709070Y649988D01*
X709083Y649973D01*
X709197Y649893D01*
X709308Y649809D01*
X709333Y649797D01*
X709343Y649790D01*
X709362Y649783D01*
X709452Y649738D01*
X711288Y648978D01*
X714860Y645405D01*
X716794Y640737D01*
X716794Y635685D01*
X714860Y631017D01*
X711288Y627444D01*
X709452Y626684D01*
X709332Y626615D01*
X709209Y626550D01*
X709194Y626536D01*
X709176Y626526D01*
X709077Y626430D01*
X708973Y626336D01*
X708962Y626319D01*
X708948Y626305D01*
X708875Y626186D01*
X708799Y626070D01*
X708792Y626051D01*
X708781Y626034D01*
X708741Y625901D01*
X708695Y625769D01*
X708694Y625749D01*
X708688Y625730D01*
X708681Y625591D01*
X708670Y625452D01*
X708674Y625432D01*
X708673Y625412D01*
X708701Y625277D01*
X708725Y625139D01*
X708733Y625120D01*
X708737Y625101D01*
X708798Y624976D01*
X708855Y624849D01*
X708868Y624833D01*
X708877Y624815D01*
X708967Y624709D01*
X709054Y624600D01*
X709070Y624588D01*
X709083Y624573D01*
X709197Y624493D01*
X709308Y624409D01*
X709333Y624397D01*
X709343Y624390D01*
X709362Y624383D01*
X709452Y624338D01*
X711288Y623578D01*
X714860Y620005D01*
X716794Y615337D01*
X716794Y610285D01*
X714860Y605617D01*
X711288Y602044D01*
X706620Y600110D01*
X686327Y600110D01*
G37*
%LPD*%
%LPC*%
G36*
X776698Y1434919D02*
X776698Y1434919D01*
X770319Y1436628D01*
X764600Y1439930D01*
X759930Y1444600D01*
X756628Y1450319D01*
X754919Y1456698D01*
X754919Y1463302D01*
X756628Y1469681D01*
X759930Y1475400D01*
X764600Y1480070D01*
X770319Y1483372D01*
X776698Y1485081D01*
X783302Y1485081D01*
X789681Y1483372D01*
X795400Y1480070D01*
X800070Y1475400D01*
X803372Y1469681D01*
X805081Y1463302D01*
X805081Y1456698D01*
X803372Y1450319D01*
X800070Y1444600D01*
X795400Y1439930D01*
X789681Y1436628D01*
X783302Y1434919D01*
X776698Y1434919D01*
G37*
%LPD*%
%LPC*%
G36*
X776698Y74919D02*
X776698Y74919D01*
X770319Y76628D01*
X764600Y79930D01*
X759930Y84600D01*
X756628Y90319D01*
X754919Y96698D01*
X754919Y103302D01*
X756628Y109681D01*
X759930Y115400D01*
X764600Y120070D01*
X770319Y123372D01*
X776698Y125081D01*
X783302Y125081D01*
X789681Y123372D01*
X795400Y120070D01*
X800070Y115400D01*
X803372Y109681D01*
X805081Y103302D01*
X805081Y96698D01*
X803372Y90319D01*
X800070Y84600D01*
X795400Y79930D01*
X789681Y76628D01*
X783302Y74919D01*
X776698Y74919D01*
G37*
%LPD*%
%LPC*%
G36*
X741679Y613686D02*
X741679Y613686D01*
X741635Y613796D01*
X741599Y613909D01*
X741577Y613944D01*
X741562Y613981D01*
X741492Y614077D01*
X741429Y614178D01*
X741399Y614206D01*
X741375Y614239D01*
X741284Y614315D01*
X741197Y614396D01*
X741162Y614416D01*
X741130Y614441D01*
X741023Y614492D01*
X740918Y614550D01*
X740879Y614560D01*
X740843Y614577D01*
X740726Y614599D01*
X740610Y614629D01*
X740550Y614633D01*
X740530Y614637D01*
X740510Y614635D01*
X740450Y614639D01*
X731541Y614639D01*
X732028Y616138D01*
X732773Y617599D01*
X733736Y618925D01*
X734895Y620084D01*
X736221Y621047D01*
X737682Y621792D01*
X738242Y621974D01*
X738269Y621986D01*
X738298Y621993D01*
X738412Y622054D01*
X738530Y622109D01*
X738553Y622128D01*
X738579Y622142D01*
X738675Y622229D01*
X738775Y622312D01*
X738792Y622336D01*
X738814Y622356D01*
X738886Y622464D01*
X738962Y622569D01*
X738973Y622597D01*
X738989Y622622D01*
X739031Y622744D01*
X739079Y622865D01*
X739083Y622894D01*
X739092Y622922D01*
X739103Y623052D01*
X739119Y623180D01*
X739115Y623210D01*
X739118Y623239D01*
X739095Y623368D01*
X739079Y623496D01*
X739068Y623523D01*
X739063Y623553D01*
X739010Y623671D01*
X738962Y623791D01*
X738945Y623816D01*
X738933Y623843D01*
X738852Y623944D01*
X738776Y624049D01*
X738753Y624068D01*
X738734Y624091D01*
X738630Y624169D01*
X738531Y624252D01*
X738504Y624264D01*
X738480Y624282D01*
X738335Y624353D01*
X734054Y626127D01*
X730267Y629914D01*
X728217Y634862D01*
X728217Y640218D01*
X730267Y645166D01*
X734054Y648953D01*
X734330Y649067D01*
X734450Y649136D01*
X734573Y649201D01*
X734588Y649215D01*
X734606Y649225D01*
X734706Y649322D01*
X734809Y649415D01*
X734820Y649432D01*
X734834Y649446D01*
X734907Y649565D01*
X734983Y649681D01*
X734990Y649700D01*
X735001Y649717D01*
X735042Y649850D01*
X735087Y649982D01*
X735088Y650002D01*
X735094Y650021D01*
X735101Y650160D01*
X735112Y650299D01*
X735108Y650319D01*
X735109Y650339D01*
X735081Y650475D01*
X735057Y650612D01*
X735049Y650630D01*
X735045Y650650D01*
X734984Y650775D01*
X734927Y650902D01*
X734914Y650918D01*
X734905Y650936D01*
X734815Y651042D01*
X734728Y651150D01*
X734712Y651163D01*
X734699Y651178D01*
X734585Y651258D01*
X734474Y651342D01*
X734449Y651354D01*
X734439Y651361D01*
X734420Y651368D01*
X734330Y651413D01*
X734054Y651527D01*
X730267Y655314D01*
X728217Y660262D01*
X728217Y665618D01*
X730267Y670566D01*
X734054Y674353D01*
X734330Y674467D01*
X734450Y674536D01*
X734573Y674601D01*
X734588Y674615D01*
X734606Y674625D01*
X734706Y674722D01*
X734809Y674815D01*
X734820Y674832D01*
X734834Y674846D01*
X734907Y674965D01*
X734983Y675081D01*
X734990Y675100D01*
X735001Y675117D01*
X735042Y675250D01*
X735087Y675382D01*
X735088Y675402D01*
X735094Y675421D01*
X735101Y675560D01*
X735112Y675699D01*
X735108Y675719D01*
X735109Y675739D01*
X735081Y675875D01*
X735057Y676012D01*
X735049Y676030D01*
X735045Y676050D01*
X734984Y676175D01*
X734927Y676302D01*
X734914Y676318D01*
X734905Y676336D01*
X734815Y676442D01*
X734728Y676550D01*
X734712Y676563D01*
X734699Y676578D01*
X734585Y676658D01*
X734474Y676742D01*
X734449Y676754D01*
X734439Y676761D01*
X734420Y676768D01*
X734330Y676813D01*
X734054Y676927D01*
X730267Y680714D01*
X728217Y685662D01*
X728217Y691018D01*
X730267Y695966D01*
X734054Y699753D01*
X739002Y701803D01*
X744358Y701803D01*
X749306Y699753D01*
X753093Y695966D01*
X755143Y691018D01*
X755143Y685662D01*
X753093Y680714D01*
X749306Y676927D01*
X749030Y676813D01*
X748910Y676744D01*
X748787Y676679D01*
X748772Y676665D01*
X748754Y676655D01*
X748654Y676558D01*
X748551Y676465D01*
X748540Y676448D01*
X748526Y676434D01*
X748453Y676315D01*
X748377Y676199D01*
X748370Y676180D01*
X748359Y676163D01*
X748318Y676030D01*
X748273Y675898D01*
X748272Y675878D01*
X748266Y675859D01*
X748259Y675720D01*
X748248Y675581D01*
X748252Y675561D01*
X748251Y675541D01*
X748279Y675405D01*
X748303Y675268D01*
X748311Y675249D01*
X748315Y675230D01*
X748376Y675105D01*
X748433Y674978D01*
X748446Y674962D01*
X748455Y674944D01*
X748545Y674838D01*
X748632Y674729D01*
X748648Y674717D01*
X748661Y674702D01*
X748774Y674622D01*
X748886Y674538D01*
X748911Y674526D01*
X748921Y674519D01*
X748940Y674512D01*
X749030Y674467D01*
X749306Y674353D01*
X753093Y670566D01*
X755143Y665618D01*
X755143Y660262D01*
X753093Y655314D01*
X749306Y651527D01*
X749030Y651413D01*
X748910Y651344D01*
X748787Y651279D01*
X748772Y651265D01*
X748754Y651255D01*
X748654Y651158D01*
X748551Y651065D01*
X748540Y651048D01*
X748526Y651034D01*
X748453Y650915D01*
X748377Y650799D01*
X748370Y650780D01*
X748359Y650763D01*
X748318Y650630D01*
X748273Y650498D01*
X748272Y650478D01*
X748266Y650459D01*
X748259Y650320D01*
X748248Y650181D01*
X748252Y650161D01*
X748251Y650141D01*
X748279Y650005D01*
X748303Y649868D01*
X748311Y649849D01*
X748315Y649830D01*
X748376Y649705D01*
X748433Y649578D01*
X748446Y649562D01*
X748455Y649544D01*
X748545Y649438D01*
X748632Y649329D01*
X748648Y649317D01*
X748661Y649302D01*
X748774Y649222D01*
X748886Y649138D01*
X748911Y649126D01*
X748921Y649119D01*
X748940Y649112D01*
X749030Y649067D01*
X749306Y648953D01*
X753093Y645166D01*
X755143Y640218D01*
X755143Y634862D01*
X753093Y629914D01*
X749306Y626127D01*
X745025Y624353D01*
X744999Y624339D01*
X744970Y624329D01*
X744861Y624260D01*
X744748Y624196D01*
X744727Y624175D01*
X744702Y624159D01*
X744613Y624065D01*
X744520Y623975D01*
X744504Y623949D01*
X744484Y623927D01*
X744421Y623814D01*
X744354Y623703D01*
X744345Y623675D01*
X744330Y623649D01*
X744298Y623523D01*
X744260Y623400D01*
X744259Y623370D01*
X744251Y623341D01*
X744251Y623211D01*
X744245Y623082D01*
X744251Y623053D01*
X744251Y623023D01*
X744283Y622897D01*
X744309Y622770D01*
X744322Y622744D01*
X744330Y622715D01*
X744392Y622601D01*
X744449Y622485D01*
X744468Y622462D01*
X744483Y622436D01*
X744571Y622342D01*
X744655Y622243D01*
X744680Y622225D01*
X744700Y622204D01*
X744809Y622134D01*
X744915Y622060D01*
X744943Y622049D01*
X744968Y622033D01*
X745118Y621974D01*
X745678Y621792D01*
X747139Y621047D01*
X748465Y620084D01*
X749624Y618925D01*
X750587Y617599D01*
X751332Y616138D01*
X751819Y614639D01*
X742910Y614639D01*
X742792Y614624D01*
X742673Y614617D01*
X742635Y614604D01*
X742595Y614599D01*
X742484Y614556D01*
X742371Y614519D01*
X742337Y614497D01*
X742299Y614482D01*
X742203Y614413D01*
X742102Y614349D01*
X742074Y614319D01*
X742042Y614296D01*
X741966Y614204D01*
X741884Y614117D01*
X741865Y614082D01*
X741839Y614051D01*
X741788Y613943D01*
X741731Y613839D01*
X741721Y613799D01*
X741703Y613763D01*
X741683Y613656D01*
X741679Y613686D01*
G37*
%LPD*%
%LPC*%
G36*
X894839Y838323D02*
X894839Y838323D01*
X891594Y839668D01*
X889109Y842152D01*
X887765Y845398D01*
X887765Y848911D01*
X889109Y852156D01*
X889873Y852920D01*
X889934Y852998D01*
X890002Y853071D01*
X890031Y853124D01*
X890068Y853171D01*
X890108Y853262D01*
X890155Y853349D01*
X890171Y853408D01*
X890195Y853463D01*
X890210Y853561D01*
X890235Y853657D01*
X890241Y853757D01*
X890244Y853777D01*
X890243Y853790D01*
X890245Y853818D01*
X890245Y881203D01*
X891212Y883537D01*
X910949Y903274D01*
X913283Y904241D01*
X918643Y904241D01*
X918741Y904253D01*
X918840Y904256D01*
X918898Y904273D01*
X918958Y904281D01*
X919050Y904317D01*
X919145Y904345D01*
X919198Y904375D01*
X919254Y904398D01*
X919334Y904456D01*
X919419Y904506D01*
X919495Y904572D01*
X919511Y904584D01*
X919519Y904594D01*
X919540Y904612D01*
X922293Y907365D01*
X926401Y909067D01*
X943039Y909067D01*
X947147Y907365D01*
X950291Y904221D01*
X951993Y900113D01*
X951993Y895667D01*
X950291Y891559D01*
X947147Y888415D01*
X943039Y886713D01*
X926401Y886713D01*
X922293Y888415D01*
X919540Y891168D01*
X919462Y891228D01*
X919390Y891296D01*
X919337Y891325D01*
X919289Y891362D01*
X919198Y891402D01*
X919111Y891450D01*
X919053Y891465D01*
X918997Y891489D01*
X918899Y891504D01*
X918803Y891529D01*
X918703Y891535D01*
X918683Y891539D01*
X918671Y891537D01*
X918643Y891539D01*
X917702Y891539D01*
X917604Y891527D01*
X917505Y891524D01*
X917447Y891507D01*
X917387Y891499D01*
X917295Y891463D01*
X917200Y891435D01*
X917147Y891405D01*
X917091Y891382D01*
X917011Y891324D01*
X916926Y891274D01*
X916850Y891208D01*
X916834Y891196D01*
X916826Y891186D01*
X916805Y891168D01*
X903318Y877681D01*
X903258Y877603D01*
X903190Y877531D01*
X903161Y877478D01*
X903123Y877430D01*
X903084Y877339D01*
X903036Y877252D01*
X903021Y877194D01*
X902997Y877138D01*
X902982Y877040D01*
X902957Y876944D01*
X902950Y876844D01*
X902947Y876824D01*
X902948Y876812D01*
X902947Y876784D01*
X902947Y853818D01*
X902959Y853719D01*
X902962Y853620D01*
X902979Y853562D01*
X902986Y853502D01*
X903023Y853410D01*
X903050Y853315D01*
X903081Y853263D01*
X903103Y853206D01*
X903162Y853126D01*
X903212Y853041D01*
X903278Y852966D01*
X903290Y852949D01*
X903300Y852941D01*
X903318Y852920D01*
X904082Y852156D01*
X905427Y848911D01*
X905427Y845398D01*
X904082Y842152D01*
X901598Y839668D01*
X898352Y838323D01*
X894839Y838323D01*
G37*
%LPD*%
%LPC*%
G36*
X988802Y651689D02*
X988802Y651689D01*
X982799Y654175D01*
X978205Y658769D01*
X975719Y664772D01*
X975719Y671268D01*
X978205Y677271D01*
X982799Y681865D01*
X988802Y684351D01*
X1017798Y684351D01*
X1023801Y681865D01*
X1028395Y677271D01*
X1030881Y671268D01*
X1030881Y664772D01*
X1028395Y658769D01*
X1023801Y654175D01*
X1017798Y651689D01*
X988802Y651689D01*
G37*
%LPD*%
%LPC*%
G36*
X987532Y329109D02*
X987532Y329109D01*
X981529Y331595D01*
X976935Y336189D01*
X974449Y342192D01*
X974449Y348688D01*
X976935Y354691D01*
X981529Y359285D01*
X987532Y361771D01*
X1016528Y361771D01*
X1022531Y359285D01*
X1027125Y354691D01*
X1029611Y348688D01*
X1029611Y342192D01*
X1027125Y336189D01*
X1022531Y331595D01*
X1016528Y329109D01*
X987532Y329109D01*
G37*
%LPD*%
%LPC*%
G36*
X987532Y1180009D02*
X987532Y1180009D01*
X981529Y1182495D01*
X976935Y1187089D01*
X974449Y1193092D01*
X974449Y1199588D01*
X976935Y1205591D01*
X981529Y1210185D01*
X987532Y1212671D01*
X1016528Y1212671D01*
X1022531Y1210185D01*
X1027125Y1205591D01*
X1029611Y1199588D01*
X1029611Y1193092D01*
X1027125Y1187089D01*
X1022531Y1182495D01*
X1016528Y1180009D01*
X987532Y1180009D01*
G37*
%LPD*%
%LPC*%
G36*
X987532Y405309D02*
X987532Y405309D01*
X981529Y407795D01*
X976935Y412389D01*
X974449Y418392D01*
X974449Y424888D01*
X976935Y430891D01*
X981529Y435485D01*
X987532Y437971D01*
X1016528Y437971D01*
X1022531Y435485D01*
X1027125Y430891D01*
X1029611Y424888D01*
X1029611Y418392D01*
X1027125Y412389D01*
X1022531Y407795D01*
X1016528Y405309D01*
X987532Y405309D01*
G37*
%LPD*%
%LPC*%
G36*
X988802Y727889D02*
X988802Y727889D01*
X982799Y730375D01*
X978205Y734969D01*
X975719Y740972D01*
X975719Y747468D01*
X978205Y753471D01*
X982799Y758065D01*
X988802Y760551D01*
X1017798Y760551D01*
X1023801Y758065D01*
X1028395Y753471D01*
X1030881Y747468D01*
X1030881Y740972D01*
X1028395Y734969D01*
X1023801Y730375D01*
X1017798Y727889D01*
X988802Y727889D01*
G37*
%LPD*%
%LPC*%
G36*
X987532Y1103809D02*
X987532Y1103809D01*
X981529Y1106295D01*
X976935Y1110889D01*
X974449Y1116892D01*
X974449Y1123388D01*
X976935Y1129391D01*
X981529Y1133985D01*
X987532Y1136471D01*
X1016528Y1136471D01*
X1022531Y1133985D01*
X1027125Y1129391D01*
X1029611Y1123388D01*
X1029611Y1116892D01*
X1027125Y1110889D01*
X1022531Y1106295D01*
X1016528Y1103809D01*
X987532Y1103809D01*
G37*
%LPD*%
%LPC*%
G36*
X857164Y539507D02*
X857164Y539507D01*
X853918Y540851D01*
X851434Y543335D01*
X850090Y546581D01*
X850090Y550094D01*
X851434Y553340D01*
X852527Y554433D01*
X852588Y554511D01*
X852655Y554583D01*
X852685Y554636D01*
X852722Y554684D01*
X852761Y554775D01*
X852809Y554862D01*
X852824Y554920D01*
X852848Y554976D01*
X852864Y555074D01*
X852888Y555170D01*
X852895Y555270D01*
X852898Y555290D01*
X852897Y555302D01*
X852899Y555330D01*
X852899Y634763D01*
X852886Y634861D01*
X852883Y634960D01*
X852866Y635019D01*
X852859Y635079D01*
X852822Y635171D01*
X852795Y635266D01*
X852764Y635318D01*
X852742Y635374D01*
X852684Y635454D01*
X852633Y635540D01*
X852567Y635615D01*
X852555Y635632D01*
X852546Y635640D01*
X852527Y635661D01*
X851763Y636425D01*
X850419Y639670D01*
X850419Y643183D01*
X851763Y646429D01*
X854247Y648913D01*
X857493Y650257D01*
X861006Y650257D01*
X864252Y648913D01*
X866736Y646429D01*
X868080Y643183D01*
X868080Y639670D01*
X866736Y636425D01*
X865972Y635661D01*
X865911Y635582D01*
X865843Y635510D01*
X865814Y635457D01*
X865777Y635409D01*
X865738Y635318D01*
X865690Y635232D01*
X865675Y635173D01*
X865651Y635118D01*
X865635Y635020D01*
X865610Y634924D01*
X865604Y634824D01*
X865601Y634803D01*
X865602Y634791D01*
X865600Y634763D01*
X865600Y554672D01*
X865613Y554574D01*
X865616Y554475D01*
X865629Y554430D01*
X865629Y554429D01*
X865630Y554426D01*
X865632Y554417D01*
X865640Y554357D01*
X865676Y554265D01*
X865704Y554170D01*
X865724Y554136D01*
X865727Y554127D01*
X865738Y554108D01*
X865757Y554061D01*
X865815Y553981D01*
X865865Y553896D01*
X865892Y553865D01*
X865897Y553858D01*
X865907Y553848D01*
X865932Y553820D01*
X865944Y553804D01*
X865953Y553796D01*
X865972Y553775D01*
X866407Y553340D01*
X867751Y550094D01*
X867751Y546581D01*
X866407Y543335D01*
X863923Y540851D01*
X860677Y539507D01*
X857164Y539507D01*
G37*
%LPD*%
%LPC*%
G36*
X996917Y113649D02*
X996917Y113649D01*
X992809Y115351D01*
X989665Y118495D01*
X987963Y122603D01*
X987963Y127049D01*
X989665Y131157D01*
X992809Y134301D01*
X996917Y136003D01*
X1013555Y136003D01*
X1017663Y134301D01*
X1020807Y131157D01*
X1020963Y130781D01*
X1020977Y130755D01*
X1020987Y130727D01*
X1021056Y130617D01*
X1021120Y130505D01*
X1021141Y130483D01*
X1021157Y130458D01*
X1021251Y130370D01*
X1021342Y130276D01*
X1021367Y130261D01*
X1021388Y130240D01*
X1021502Y130178D01*
X1021613Y130110D01*
X1021641Y130101D01*
X1021667Y130087D01*
X1021793Y130055D01*
X1021917Y130016D01*
X1021946Y130015D01*
X1021975Y130007D01*
X1022135Y129997D01*
X1055280Y129997D01*
X1055378Y130010D01*
X1055477Y130013D01*
X1055535Y130030D01*
X1055595Y130037D01*
X1055687Y130074D01*
X1055782Y130101D01*
X1055835Y130132D01*
X1055891Y130154D01*
X1055971Y130212D01*
X1056056Y130263D01*
X1056132Y130329D01*
X1056148Y130341D01*
X1056156Y130350D01*
X1056177Y130369D01*
X1056941Y131133D01*
X1060187Y132477D01*
X1063700Y132477D01*
X1066946Y131133D01*
X1069430Y128649D01*
X1070774Y125403D01*
X1070774Y121890D01*
X1069430Y118644D01*
X1066946Y116160D01*
X1063700Y114816D01*
X1060187Y114816D01*
X1056941Y116160D01*
X1056177Y116924D01*
X1056099Y116985D01*
X1056027Y117053D01*
X1055974Y117082D01*
X1055926Y117119D01*
X1055835Y117158D01*
X1055748Y117206D01*
X1055690Y117221D01*
X1055634Y117245D01*
X1055536Y117261D01*
X1055440Y117286D01*
X1055340Y117292D01*
X1055320Y117295D01*
X1055308Y117294D01*
X1055280Y117296D01*
X1020134Y117296D01*
X1020035Y117283D01*
X1019936Y117280D01*
X1019878Y117264D01*
X1019818Y117256D01*
X1019726Y117220D01*
X1019631Y117192D01*
X1019579Y117161D01*
X1019522Y117139D01*
X1019442Y117081D01*
X1019357Y117030D01*
X1019281Y116964D01*
X1019265Y116952D01*
X1019257Y116943D01*
X1019236Y116924D01*
X1017663Y115351D01*
X1013555Y113649D01*
X996917Y113649D01*
G37*
%LPD*%
%LPC*%
G36*
X750883Y251659D02*
X750883Y251659D01*
X744421Y254336D01*
X739476Y259281D01*
X736799Y265743D01*
X736799Y272737D01*
X739476Y279199D01*
X744421Y284144D01*
X750883Y286821D01*
X757877Y286821D01*
X764339Y284144D01*
X769284Y279199D01*
X771961Y272737D01*
X771961Y265743D01*
X769284Y259281D01*
X764339Y254336D01*
X757877Y251659D01*
X750883Y251659D01*
G37*
%LPD*%
%LPC*%
G36*
X928615Y708855D02*
X928615Y708855D01*
X922154Y711531D01*
X917208Y716477D01*
X914532Y722938D01*
X914532Y729932D01*
X917208Y736394D01*
X922154Y741339D01*
X928615Y744016D01*
X935609Y744016D01*
X942071Y741339D01*
X947017Y736394D01*
X949693Y729932D01*
X949693Y722938D01*
X947017Y716477D01*
X942071Y711531D01*
X935609Y708855D01*
X928615Y708855D01*
G37*
%LPD*%
%LPC*%
G36*
X928683Y251659D02*
X928683Y251659D01*
X922221Y254336D01*
X917276Y259281D01*
X914599Y265743D01*
X914599Y272737D01*
X917276Y279199D01*
X922221Y284144D01*
X928683Y286821D01*
X935677Y286821D01*
X942139Y284144D01*
X947084Y279199D01*
X949761Y272737D01*
X949761Y265743D01*
X947084Y259281D01*
X942139Y254336D01*
X935677Y251659D01*
X928683Y251659D01*
G37*
%LPD*%
%LPC*%
G36*
X750871Y708855D02*
X750871Y708855D01*
X744409Y711531D01*
X739464Y716477D01*
X736787Y722938D01*
X736787Y729932D01*
X739464Y736394D01*
X744409Y741339D01*
X750871Y744016D01*
X757865Y744016D01*
X764327Y741339D01*
X769272Y736394D01*
X771949Y729932D01*
X771949Y722938D01*
X769272Y716477D01*
X764327Y711531D01*
X757865Y708855D01*
X750871Y708855D01*
G37*
%LPD*%
%LPC*%
G36*
X672624Y776247D02*
X672624Y776247D01*
X667956Y778180D01*
X664383Y781753D01*
X662450Y786421D01*
X662450Y806714D01*
X664383Y811382D01*
X667956Y814954D01*
X672624Y816888D01*
X677677Y816888D01*
X682345Y814954D01*
X685918Y811382D01*
X687851Y806714D01*
X687851Y786421D01*
X685918Y781753D01*
X682345Y778180D01*
X677677Y776247D01*
X672624Y776247D01*
G37*
%LPD*%
%LPC*%
G36*
X723424Y776247D02*
X723424Y776247D01*
X718756Y778180D01*
X715183Y781753D01*
X713250Y786421D01*
X713250Y806714D01*
X715183Y811382D01*
X718756Y814954D01*
X723424Y816888D01*
X728477Y816888D01*
X733145Y814954D01*
X736718Y811382D01*
X738651Y806714D01*
X738651Y786421D01*
X736718Y781753D01*
X733145Y778180D01*
X728477Y776247D01*
X723424Y776247D01*
G37*
%LPD*%
%LPC*%
G36*
X826612Y711730D02*
X826612Y711730D01*
X823366Y713074D01*
X820882Y715559D01*
X819538Y718804D01*
X819538Y722317D01*
X820882Y725563D01*
X823366Y728047D01*
X826612Y729392D01*
X830125Y729392D01*
X833371Y728047D01*
X834134Y727283D01*
X834213Y727223D01*
X834285Y727155D01*
X834338Y727126D01*
X834386Y727088D01*
X834477Y727049D01*
X834563Y727001D01*
X834622Y726986D01*
X834678Y726962D01*
X834775Y726946D01*
X834871Y726922D01*
X834971Y726915D01*
X834992Y726912D01*
X835004Y726913D01*
X835032Y726912D01*
X863167Y726912D01*
X863265Y726924D01*
X863364Y726927D01*
X863422Y726944D01*
X863482Y726951D01*
X863574Y726988D01*
X863669Y727015D01*
X863722Y727046D01*
X863778Y727068D01*
X863858Y727127D01*
X863943Y727177D01*
X864019Y727243D01*
X864035Y727255D01*
X864043Y727265D01*
X864064Y727283D01*
X865141Y728360D01*
X868387Y729705D01*
X871900Y729705D01*
X875145Y728360D01*
X877630Y725876D01*
X878974Y722630D01*
X878974Y719117D01*
X877630Y715872D01*
X875145Y713387D01*
X871900Y712043D01*
X868387Y712043D01*
X865141Y713387D01*
X864690Y713838D01*
X864612Y713899D01*
X864540Y713967D01*
X864487Y713996D01*
X864439Y714033D01*
X864348Y714073D01*
X864261Y714120D01*
X864203Y714136D01*
X864147Y714160D01*
X864049Y714175D01*
X863953Y714200D01*
X863853Y714206D01*
X863833Y714209D01*
X863821Y714208D01*
X863793Y714210D01*
X835032Y714210D01*
X834934Y714198D01*
X834835Y714195D01*
X834776Y714178D01*
X834716Y714170D01*
X834624Y714134D01*
X834529Y714106D01*
X834477Y714075D01*
X834421Y714053D01*
X834341Y713995D01*
X834255Y713945D01*
X834180Y713878D01*
X834163Y713866D01*
X834156Y713857D01*
X834134Y713838D01*
X833371Y713074D01*
X830125Y711730D01*
X826612Y711730D01*
G37*
%LPD*%
%LPC*%
G36*
X703659Y528669D02*
X703659Y528669D01*
X703624Y528689D01*
X703593Y528715D01*
X703485Y528765D01*
X703381Y528823D01*
X703342Y528833D01*
X703305Y528850D01*
X703188Y528872D01*
X703073Y528902D01*
X703013Y528906D01*
X702993Y528910D01*
X702972Y528909D01*
X702912Y528912D01*
X693641Y528912D01*
X693641Y531037D01*
X699518Y536915D01*
X700207Y536915D01*
X700276Y536924D01*
X700346Y536923D01*
X700433Y536943D01*
X700522Y536955D01*
X700587Y536980D01*
X700655Y536997D01*
X700734Y537039D01*
X700818Y537072D01*
X700874Y537113D01*
X700936Y537145D01*
X701002Y537206D01*
X701075Y537259D01*
X701120Y537312D01*
X701171Y537359D01*
X701221Y537434D01*
X701278Y537504D01*
X701308Y537567D01*
X701346Y537625D01*
X701375Y537710D01*
X701414Y537791D01*
X701427Y537860D01*
X701449Y537926D01*
X701456Y538016D01*
X701473Y538104D01*
X701469Y538173D01*
X701475Y538243D01*
X701459Y538332D01*
X701454Y538421D01*
X701432Y538487D01*
X701420Y538556D01*
X701383Y538638D01*
X701356Y538724D01*
X701318Y538783D01*
X701290Y538846D01*
X701234Y538916D01*
X701185Y538992D01*
X701135Y539040D01*
X701091Y539095D01*
X701019Y539149D01*
X700954Y539210D01*
X700893Y539244D01*
X700837Y539286D01*
X700692Y539357D01*
X696264Y541191D01*
X692584Y544871D01*
X690593Y549679D01*
X690593Y554883D01*
X692584Y559691D01*
X696264Y563371D01*
X701072Y565363D01*
X706276Y565363D01*
X711084Y563371D01*
X714764Y559691D01*
X716756Y554883D01*
X716756Y549679D01*
X714764Y544871D01*
X711084Y541191D01*
X706656Y539357D01*
X706596Y539322D01*
X706531Y539297D01*
X706458Y539244D01*
X706380Y539199D01*
X706330Y539151D01*
X706273Y539110D01*
X706216Y539041D01*
X706152Y538978D01*
X706115Y538918D01*
X706071Y538865D01*
X706032Y538783D01*
X705985Y538707D01*
X705965Y538640D01*
X705935Y538577D01*
X705918Y538489D01*
X705892Y538403D01*
X705888Y538333D01*
X705875Y538265D01*
X705881Y538175D01*
X705877Y538085D01*
X705891Y538017D01*
X705895Y537947D01*
X705923Y537862D01*
X705941Y537774D01*
X705972Y537711D01*
X705993Y537645D01*
X706041Y537569D01*
X706081Y537488D01*
X706126Y537435D01*
X706163Y537376D01*
X706229Y537315D01*
X706287Y537246D01*
X706344Y537206D01*
X706395Y537158D01*
X706473Y537115D01*
X706547Y537063D01*
X706612Y537038D01*
X706673Y537005D01*
X706760Y536982D01*
X706844Y536950D01*
X706914Y536943D01*
X706981Y536925D01*
X707142Y536915D01*
X707830Y536915D01*
X713708Y531037D01*
X713708Y528912D01*
X704437Y528912D01*
X704318Y528897D01*
X704200Y528890D01*
X704161Y528878D01*
X704121Y528873D01*
X704010Y528829D01*
X703897Y528792D01*
X703863Y528770D01*
X703825Y528756D01*
X703729Y528686D01*
X703677Y528653D01*
X703659Y528669D01*
G37*
%LPD*%
%LPC*%
G36*
X850201Y937513D02*
X850201Y937513D01*
X846093Y939215D01*
X842949Y942359D01*
X841247Y946467D01*
X841247Y950913D01*
X842949Y955021D01*
X846093Y958165D01*
X850201Y959867D01*
X866839Y959867D01*
X870947Y958165D01*
X874091Y955021D01*
X875793Y950913D01*
X875793Y946467D01*
X874091Y942359D01*
X870947Y939215D01*
X866839Y937513D01*
X850201Y937513D01*
G37*
%LPD*%
%LPC*%
G36*
X920717Y164449D02*
X920717Y164449D01*
X916609Y166151D01*
X913465Y169295D01*
X911763Y173403D01*
X911763Y177849D01*
X913465Y181957D01*
X916609Y185101D01*
X920717Y186803D01*
X937355Y186803D01*
X941463Y185101D01*
X944607Y181957D01*
X946308Y177849D01*
X946308Y173403D01*
X944607Y169295D01*
X941463Y166151D01*
X937355Y164449D01*
X920717Y164449D01*
G37*
%LPD*%
%LPC*%
G36*
X920717Y139049D02*
X920717Y139049D01*
X916609Y140751D01*
X913465Y143895D01*
X911763Y148003D01*
X911763Y152449D01*
X913465Y156557D01*
X916609Y159701D01*
X920717Y161403D01*
X937355Y161403D01*
X941463Y159701D01*
X944607Y156557D01*
X946308Y152449D01*
X946308Y148003D01*
X944607Y143895D01*
X941463Y140751D01*
X937355Y139049D01*
X920717Y139049D01*
G37*
%LPD*%
%LPC*%
G36*
X996917Y139049D02*
X996917Y139049D01*
X992809Y140751D01*
X989665Y143895D01*
X987963Y148003D01*
X987963Y152449D01*
X989665Y156557D01*
X992809Y159701D01*
X996917Y161403D01*
X1013555Y161403D01*
X1017663Y159701D01*
X1020807Y156557D01*
X1022508Y152449D01*
X1022508Y148003D01*
X1020807Y143895D01*
X1017663Y140751D01*
X1013555Y139049D01*
X996917Y139049D01*
G37*
%LPD*%
%LPC*%
G36*
X996917Y164449D02*
X996917Y164449D01*
X992809Y166151D01*
X989665Y169295D01*
X987963Y173403D01*
X987963Y177849D01*
X989665Y181957D01*
X992809Y185101D01*
X996917Y186803D01*
X1013555Y186803D01*
X1017663Y185101D01*
X1020807Y181957D01*
X1022508Y177849D01*
X1022508Y173403D01*
X1020807Y169295D01*
X1017663Y166151D01*
X1013555Y164449D01*
X996917Y164449D01*
G37*
%LPD*%
%LPC*%
G36*
X996917Y189849D02*
X996917Y189849D01*
X992809Y191551D01*
X989665Y194695D01*
X987963Y198803D01*
X987963Y203249D01*
X989665Y207357D01*
X992809Y210501D01*
X996917Y212203D01*
X1013555Y212203D01*
X1017663Y210501D01*
X1020807Y207357D01*
X1022508Y203249D01*
X1022508Y198803D01*
X1020807Y194695D01*
X1017663Y191551D01*
X1013555Y189849D01*
X996917Y189849D01*
G37*
%LPD*%
%LPC*%
G36*
X926401Y861313D02*
X926401Y861313D01*
X922293Y863015D01*
X919149Y866159D01*
X917447Y870267D01*
X917447Y874713D01*
X919149Y878821D01*
X922293Y881965D01*
X926401Y883667D01*
X943039Y883667D01*
X947147Y881965D01*
X950291Y878821D01*
X951993Y874713D01*
X951993Y870267D01*
X950291Y866159D01*
X947147Y863015D01*
X943039Y861313D01*
X926401Y861313D01*
G37*
%LPD*%
%LPC*%
G36*
X920717Y189849D02*
X920717Y189849D01*
X916609Y191551D01*
X913465Y194695D01*
X911763Y198803D01*
X911763Y203249D01*
X913465Y207357D01*
X916609Y210501D01*
X920717Y212203D01*
X937355Y212203D01*
X941463Y210501D01*
X944607Y207357D01*
X946308Y203249D01*
X946308Y198803D01*
X944607Y194695D01*
X941463Y191551D01*
X937355Y189849D01*
X920717Y189849D01*
G37*
%LPD*%
%LPC*%
G36*
X850201Y886713D02*
X850201Y886713D01*
X846093Y888415D01*
X842949Y891559D01*
X841247Y895667D01*
X841247Y900113D01*
X842949Y904221D01*
X846093Y907365D01*
X850201Y909067D01*
X866839Y909067D01*
X870947Y907365D01*
X874091Y904221D01*
X875793Y900113D01*
X875793Y895667D01*
X874091Y891559D01*
X870947Y888415D01*
X866839Y886713D01*
X850201Y886713D01*
G37*
%LPD*%
%LPC*%
G36*
X850201Y912113D02*
X850201Y912113D01*
X846093Y913815D01*
X842949Y916959D01*
X841247Y921067D01*
X841247Y925513D01*
X842949Y929621D01*
X846093Y932765D01*
X850201Y934467D01*
X866839Y934467D01*
X870947Y932765D01*
X874091Y929621D01*
X875793Y925513D01*
X875793Y921067D01*
X874091Y916959D01*
X870947Y913815D01*
X866839Y912113D01*
X850201Y912113D01*
G37*
%LPD*%
%LPC*%
G36*
X926401Y912113D02*
X926401Y912113D01*
X922293Y913815D01*
X919149Y916959D01*
X917447Y921067D01*
X917447Y925513D01*
X919149Y929621D01*
X922293Y932765D01*
X926401Y934467D01*
X943039Y934467D01*
X947147Y932765D01*
X950291Y929621D01*
X951993Y925513D01*
X951993Y921067D01*
X950291Y916959D01*
X947147Y913815D01*
X943039Y912113D01*
X926401Y912113D01*
G37*
%LPD*%
%LPC*%
G36*
X926401Y937513D02*
X926401Y937513D01*
X922293Y939215D01*
X919149Y942359D01*
X917447Y946467D01*
X917447Y950913D01*
X919149Y955021D01*
X922293Y958165D01*
X926401Y959867D01*
X943039Y959867D01*
X947147Y958165D01*
X950291Y955021D01*
X951993Y950913D01*
X951993Y946467D01*
X950291Y942359D01*
X947147Y939215D01*
X943039Y937513D01*
X926401Y937513D01*
G37*
%LPD*%
%LPC*%
G36*
X983803Y609805D02*
X983803Y609805D01*
X980557Y611149D01*
X978073Y613634D01*
X976729Y616879D01*
X976729Y620392D01*
X978073Y623638D01*
X978837Y624402D01*
X978897Y624480D01*
X978965Y624552D01*
X978995Y624605D01*
X979032Y624653D01*
X979071Y624744D01*
X979119Y624831D01*
X979134Y624889D01*
X979158Y624945D01*
X979174Y625043D01*
X979198Y625139D01*
X979205Y625239D01*
X979208Y625259D01*
X979207Y625271D01*
X979209Y625299D01*
X979209Y631560D01*
X979194Y631678D01*
X979186Y631797D01*
X979174Y631835D01*
X979169Y631876D01*
X979125Y631986D01*
X979088Y632099D01*
X979067Y632134D01*
X979052Y632171D01*
X978982Y632267D01*
X978918Y632368D01*
X978889Y632396D01*
X978865Y632429D01*
X978773Y632504D01*
X978686Y632586D01*
X978651Y632606D01*
X978620Y632631D01*
X978512Y632682D01*
X978408Y632740D01*
X978369Y632750D01*
X978332Y632767D01*
X978215Y632789D01*
X978100Y632819D01*
X978040Y632823D01*
X978020Y632827D01*
X977999Y632825D01*
X977939Y632829D01*
X976949Y632829D01*
X973703Y634174D01*
X971219Y636658D01*
X969875Y639903D01*
X969875Y643417D01*
X971219Y646662D01*
X973703Y649146D01*
X976949Y650491D01*
X980462Y650491D01*
X983708Y649146D01*
X986192Y646662D01*
X987536Y643417D01*
X987536Y642336D01*
X987549Y642238D01*
X987552Y642139D01*
X987569Y642081D01*
X987576Y642021D01*
X987613Y641929D01*
X987640Y641834D01*
X987671Y641781D01*
X987693Y641725D01*
X987751Y641645D01*
X987802Y641560D01*
X987868Y641484D01*
X987880Y641468D01*
X987889Y641460D01*
X987908Y641439D01*
X990943Y638404D01*
X991910Y636070D01*
X991910Y625299D01*
X991922Y625201D01*
X991925Y625102D01*
X991942Y625044D01*
X991950Y624984D01*
X991986Y624892D01*
X992014Y624797D01*
X992045Y624745D01*
X992067Y624688D01*
X992125Y624608D01*
X992175Y624523D01*
X992242Y624447D01*
X992254Y624431D01*
X992263Y624423D01*
X992282Y624402D01*
X993046Y623638D01*
X994390Y620392D01*
X994390Y616879D01*
X993046Y613634D01*
X990561Y611149D01*
X987316Y609805D01*
X983803Y609805D01*
G37*
%LPD*%
%LPC*%
G36*
X893034Y768642D02*
X893034Y768642D01*
X888226Y770634D01*
X884546Y774314D01*
X882554Y779122D01*
X882554Y784326D01*
X884546Y789134D01*
X888226Y792814D01*
X893034Y794806D01*
X898238Y794806D01*
X903046Y792814D01*
X906726Y789134D01*
X908718Y784326D01*
X908718Y779122D01*
X906726Y774314D01*
X903046Y770634D01*
X898238Y768642D01*
X893034Y768642D01*
G37*
%LPD*%
%LPC*%
G36*
X831030Y974343D02*
X831030Y974343D01*
X824483Y980890D01*
X824483Y990150D01*
X831030Y996697D01*
X840290Y996697D01*
X846837Y990150D01*
X846837Y980890D01*
X840290Y974343D01*
X831030Y974343D01*
G37*
%LPD*%
%LPC*%
G36*
X709110Y966723D02*
X709110Y966723D01*
X702563Y973270D01*
X702563Y982530D01*
X709110Y989077D01*
X718370Y989077D01*
X724917Y982530D01*
X724917Y973270D01*
X718370Y966723D01*
X709110Y966723D01*
G37*
%LPD*%
%LPC*%
G36*
X883766Y32369D02*
X883766Y32369D01*
X877219Y38916D01*
X877219Y48176D01*
X883766Y54723D01*
X893025Y54723D01*
X899572Y48176D01*
X899572Y38916D01*
X893025Y32369D01*
X883766Y32369D01*
G37*
%LPD*%
%LPC*%
G36*
X834205Y38393D02*
X834205Y38393D01*
X827658Y44940D01*
X827658Y54199D01*
X834205Y60747D01*
X843464Y60747D01*
X850012Y54199D01*
X850012Y44940D01*
X843464Y38393D01*
X834205Y38393D01*
G37*
%LPD*%
%LPC*%
G36*
X834205Y63793D02*
X834205Y63793D01*
X827658Y70340D01*
X827658Y79599D01*
X834205Y86147D01*
X843464Y86147D01*
X850012Y79599D01*
X850012Y70340D01*
X843464Y63793D01*
X834205Y63793D01*
G37*
%LPD*%
%LPC*%
G36*
X662609Y1422690D02*
X662609Y1422690D01*
X656062Y1429237D01*
X656062Y1438496D01*
X662609Y1445043D01*
X671868Y1445043D01*
X678416Y1438496D01*
X678416Y1429237D01*
X671868Y1422690D01*
X662609Y1422690D01*
G37*
%LPD*%
%LPC*%
G36*
X693870Y928623D02*
X693870Y928623D01*
X687323Y935170D01*
X687323Y944430D01*
X693870Y950977D01*
X703130Y950977D01*
X709677Y944430D01*
X709677Y935170D01*
X703130Y928623D01*
X693870Y928623D01*
G37*
%LPD*%
%LPC*%
G36*
X770070Y928623D02*
X770070Y928623D01*
X763523Y935170D01*
X763523Y944430D01*
X770070Y950977D01*
X779330Y950977D01*
X785877Y944430D01*
X785877Y935170D01*
X779330Y928623D01*
X770070Y928623D01*
G37*
%LPD*%
%LPC*%
G36*
X883766Y108569D02*
X883766Y108569D01*
X877219Y115116D01*
X877219Y124376D01*
X883766Y130923D01*
X893025Y130923D01*
X899572Y124376D01*
X899572Y115116D01*
X893025Y108569D01*
X883766Y108569D01*
G37*
%LPD*%
%LPC*%
G36*
X840586Y149209D02*
X840586Y149209D01*
X834039Y155756D01*
X834039Y165016D01*
X840586Y171563D01*
X849845Y171563D01*
X856392Y165016D01*
X856392Y155756D01*
X849845Y149209D01*
X840586Y149209D01*
G37*
%LPD*%
%LPC*%
G36*
X764386Y149209D02*
X764386Y149209D01*
X757839Y155756D01*
X757839Y165016D01*
X764386Y171563D01*
X773645Y171563D01*
X780192Y165016D01*
X780192Y155756D01*
X773645Y149209D01*
X764386Y149209D01*
G37*
%LPD*%
%LPC*%
G36*
X657701Y1384045D02*
X657701Y1384045D01*
X651154Y1390592D01*
X651154Y1399851D01*
X657701Y1406398D01*
X666960Y1406398D01*
X673507Y1399851D01*
X673507Y1390592D01*
X666960Y1384045D01*
X657701Y1384045D01*
G37*
%LPD*%
%LPC*%
G36*
X840586Y180959D02*
X840586Y180959D01*
X834039Y187506D01*
X834039Y196766D01*
X840586Y203313D01*
X849845Y203313D01*
X856392Y196766D01*
X856392Y187506D01*
X849845Y180959D01*
X840586Y180959D01*
G37*
%LPD*%
%LPC*%
G36*
X770070Y896873D02*
X770070Y896873D01*
X763523Y903420D01*
X763523Y912680D01*
X770070Y919227D01*
X779330Y919227D01*
X785877Y912680D01*
X785877Y903420D01*
X779330Y896873D01*
X770070Y896873D01*
G37*
%LPD*%
%LPC*%
G36*
X693870Y896873D02*
X693870Y896873D01*
X687323Y903420D01*
X687323Y912680D01*
X693870Y919227D01*
X703130Y919227D01*
X709677Y912680D01*
X709677Y903420D01*
X703130Y896873D01*
X693870Y896873D01*
G37*
%LPD*%
%LPC*%
G36*
X764386Y180959D02*
X764386Y180959D01*
X757839Y187506D01*
X757839Y196766D01*
X764386Y203313D01*
X773645Y203313D01*
X780192Y196766D01*
X780192Y187506D01*
X773645Y180959D01*
X764386Y180959D01*
G37*
%LPD*%
%LPC*%
G36*
X657701Y1307845D02*
X657701Y1307845D01*
X651154Y1314392D01*
X651154Y1323651D01*
X657701Y1330198D01*
X666960Y1330198D01*
X673507Y1323651D01*
X673507Y1314392D01*
X666960Y1307845D01*
X657701Y1307845D01*
G37*
%LPD*%
%LPC*%
G36*
X693870Y1248663D02*
X693870Y1248663D01*
X687323Y1255210D01*
X687323Y1264470D01*
X693870Y1271017D01*
X703130Y1271017D01*
X709677Y1264470D01*
X709677Y1255210D01*
X703130Y1248663D01*
X693870Y1248663D01*
G37*
%LPD*%
%LPC*%
G36*
X851251Y213802D02*
X851251Y213802D01*
X844704Y220349D01*
X844704Y229608D01*
X851251Y236155D01*
X860511Y236155D01*
X867058Y229608D01*
X867058Y220349D01*
X860511Y213802D01*
X851251Y213802D01*
G37*
%LPD*%
%LPC*%
G36*
X779626Y219059D02*
X779626Y219059D01*
X773079Y225606D01*
X773079Y234866D01*
X779626Y241413D01*
X788885Y241413D01*
X795432Y234866D01*
X795432Y225606D01*
X788885Y219059D01*
X779626Y219059D01*
G37*
%LPD*%
%LPC*%
G36*
X890643Y232841D02*
X890643Y232841D01*
X884096Y239388D01*
X884096Y248647D01*
X890643Y255194D01*
X899902Y255194D01*
X906449Y248647D01*
X906449Y239388D01*
X899902Y232841D01*
X890643Y232841D01*
G37*
%LPD*%
%LPC*%
G36*
X696410Y358393D02*
X696410Y358393D01*
X689863Y364940D01*
X689863Y374200D01*
X696410Y380747D01*
X705670Y380747D01*
X712217Y374200D01*
X712217Y364940D01*
X705670Y358393D01*
X696410Y358393D01*
G37*
%LPD*%
%LPC*%
G36*
X696410Y402843D02*
X696410Y402843D01*
X689863Y409390D01*
X689863Y418650D01*
X696410Y425197D01*
X705670Y425197D01*
X712217Y418650D01*
X712217Y409390D01*
X705670Y402843D01*
X696410Y402843D01*
G37*
%LPD*%
%LPC*%
G36*
X671010Y402843D02*
X671010Y402843D01*
X664463Y409390D01*
X664463Y418650D01*
X671010Y425197D01*
X680270Y425197D01*
X686817Y418650D01*
X686817Y409390D01*
X680270Y402843D01*
X671010Y402843D01*
G37*
%LPD*%
%LPC*%
G36*
X671010Y1177543D02*
X671010Y1177543D01*
X664463Y1184090D01*
X664463Y1193350D01*
X671010Y1199897D01*
X680270Y1199897D01*
X686817Y1193350D01*
X686817Y1184090D01*
X680270Y1177543D01*
X671010Y1177543D01*
G37*
%LPD*%
%LPC*%
G36*
X810407Y853959D02*
X810407Y853959D01*
X803860Y860506D01*
X803860Y869766D01*
X810407Y876313D01*
X819666Y876313D01*
X826213Y869766D01*
X826213Y860506D01*
X819666Y853959D01*
X810407Y853959D01*
G37*
%LPD*%
%LPC*%
G36*
X696410Y1177543D02*
X696410Y1177543D01*
X689863Y1184090D01*
X689863Y1193350D01*
X696410Y1199897D01*
X705670Y1199897D01*
X712217Y1193350D01*
X712217Y1184090D01*
X705670Y1177543D01*
X696410Y1177543D01*
G37*
%LPD*%
%LPC*%
G36*
X708087Y473395D02*
X708087Y473395D01*
X701540Y479942D01*
X701540Y489201D01*
X708087Y495748D01*
X717346Y495748D01*
X723894Y489201D01*
X723894Y479942D01*
X717346Y473395D01*
X708087Y473395D01*
G37*
%LPD*%
%LPC*%
G36*
X781898Y829128D02*
X781898Y829128D01*
X775351Y835675D01*
X775351Y844934D01*
X781898Y851481D01*
X791157Y851481D01*
X797704Y844934D01*
X797704Y835675D01*
X791157Y829128D01*
X781898Y829128D01*
G37*
%LPD*%
%LPC*%
G36*
X1078680Y495553D02*
X1078680Y495553D01*
X1072133Y502100D01*
X1072133Y511360D01*
X1078680Y517907D01*
X1087940Y517907D01*
X1094487Y511360D01*
X1094487Y502100D01*
X1087940Y495553D01*
X1078680Y495553D01*
G37*
%LPD*%
%LPC*%
G36*
X696410Y1133093D02*
X696410Y1133093D01*
X689863Y1139640D01*
X689863Y1148900D01*
X696410Y1155447D01*
X705670Y1155447D01*
X712217Y1148900D01*
X712217Y1139640D01*
X705670Y1133093D01*
X696410Y1133093D01*
G37*
%LPD*%
%LPC*%
G36*
X1086300Y556513D02*
X1086300Y556513D01*
X1079753Y563060D01*
X1079753Y572320D01*
X1086300Y578867D01*
X1095560Y578867D01*
X1102107Y572320D01*
X1102107Y563060D01*
X1095560Y556513D01*
X1086300Y556513D01*
G37*
%LPD*%
%LPC*%
G36*
X1086300Y581913D02*
X1086300Y581913D01*
X1079753Y588460D01*
X1079753Y597720D01*
X1086300Y604267D01*
X1095560Y604267D01*
X1102107Y597720D01*
X1102107Y588460D01*
X1095560Y581913D01*
X1086300Y581913D01*
G37*
%LPD*%
%LPC*%
G36*
X781898Y803728D02*
X781898Y803728D01*
X775351Y810275D01*
X775351Y819534D01*
X781898Y826081D01*
X791157Y826081D01*
X797704Y819534D01*
X797704Y810275D01*
X791157Y803728D01*
X781898Y803728D01*
G37*
%LPD*%
%LPC*%
G36*
X810407Y777759D02*
X810407Y777759D01*
X803860Y784306D01*
X803860Y793566D01*
X810407Y800113D01*
X819666Y800113D01*
X826213Y793566D01*
X826213Y784306D01*
X819666Y777759D01*
X810407Y777759D01*
G37*
%LPD*%
%LPC*%
G36*
X879290Y994663D02*
X879290Y994663D01*
X872743Y1001210D01*
X872743Y1010470D01*
X879290Y1017017D01*
X888550Y1017017D01*
X895097Y1010470D01*
X895097Y1001210D01*
X888550Y994663D01*
X879290Y994663D01*
G37*
%LPD*%
%LPC*%
G36*
X166623Y166623D02*
X166623Y166623D01*
X166623Y178383D01*
X177395Y178383D01*
X179460Y178056D01*
X181449Y177410D01*
X183312Y176460D01*
X185003Y175231D01*
X186481Y173753D01*
X187710Y172062D01*
X188660Y170199D01*
X189306Y168210D01*
X189557Y166623D01*
X166623Y166623D01*
G37*
%LPD*%
%LPC*%
G36*
X166623Y1017523D02*
X166623Y1017523D01*
X166623Y1029283D01*
X177395Y1029283D01*
X179460Y1028956D01*
X181449Y1028310D01*
X183312Y1027360D01*
X185003Y1026131D01*
X186481Y1024653D01*
X187710Y1022962D01*
X188660Y1021099D01*
X189306Y1019110D01*
X189557Y1017523D01*
X166623Y1017523D01*
G37*
%LPD*%
%LPC*%
G36*
X166623Y941323D02*
X166623Y941323D01*
X166623Y953083D01*
X177395Y953083D01*
X179460Y952756D01*
X181449Y952110D01*
X183312Y951160D01*
X185003Y949931D01*
X186481Y948453D01*
X187710Y946762D01*
X188660Y944899D01*
X189306Y942910D01*
X189557Y941323D01*
X166623Y941323D01*
G37*
%LPD*%
%LPC*%
G36*
X166623Y242823D02*
X166623Y242823D01*
X166623Y254583D01*
X177395Y254583D01*
X179460Y254256D01*
X181449Y253610D01*
X183312Y252660D01*
X185003Y251431D01*
X186481Y249953D01*
X187710Y248262D01*
X188660Y246399D01*
X189306Y244410D01*
X189557Y242823D01*
X166623Y242823D01*
G37*
%LPD*%
%LPC*%
G36*
X140643Y1017523D02*
X140643Y1017523D01*
X140894Y1019110D01*
X141540Y1021099D01*
X142490Y1022962D01*
X143719Y1024653D01*
X145197Y1026131D01*
X146888Y1027360D01*
X148751Y1028310D01*
X150740Y1028956D01*
X152805Y1029283D01*
X163577Y1029283D01*
X163577Y1017523D01*
X140643Y1017523D01*
G37*
%LPD*%
%LPC*%
G36*
X140643Y242823D02*
X140643Y242823D01*
X140894Y244410D01*
X141540Y246399D01*
X142490Y248262D01*
X143719Y249953D01*
X145197Y251431D01*
X146888Y252660D01*
X148751Y253610D01*
X150740Y254256D01*
X152805Y254583D01*
X163577Y254583D01*
X163577Y242823D01*
X140643Y242823D01*
G37*
%LPD*%
%LPC*%
G36*
X140643Y166623D02*
X140643Y166623D01*
X140894Y168210D01*
X141540Y170199D01*
X142490Y172062D01*
X143719Y173753D01*
X145197Y175231D01*
X146888Y176460D01*
X148751Y177410D01*
X150740Y178056D01*
X152805Y178383D01*
X163577Y178383D01*
X163577Y166623D01*
X140643Y166623D01*
G37*
%LPD*%
%LPC*%
G36*
X140643Y941323D02*
X140643Y941323D01*
X140894Y942910D01*
X141540Y944899D01*
X142490Y946762D01*
X143719Y948453D01*
X145197Y949931D01*
X146888Y951160D01*
X148751Y952110D01*
X150740Y952756D01*
X152805Y953083D01*
X163577Y953083D01*
X163577Y941323D01*
X140643Y941323D01*
G37*
%LPD*%
%LPC*%
G36*
X166623Y228017D02*
X166623Y228017D01*
X166623Y239777D01*
X189557Y239777D01*
X189306Y238190D01*
X188660Y236201D01*
X187710Y234338D01*
X186481Y232647D01*
X185003Y231169D01*
X183312Y229940D01*
X181449Y228990D01*
X179460Y228344D01*
X177395Y228017D01*
X166623Y228017D01*
G37*
%LPD*%
%LPC*%
G36*
X166623Y151817D02*
X166623Y151817D01*
X166623Y163577D01*
X189557Y163577D01*
X189306Y161990D01*
X188660Y160001D01*
X187710Y158138D01*
X186481Y156447D01*
X185003Y154969D01*
X183312Y153740D01*
X181449Y152790D01*
X179460Y152144D01*
X177395Y151817D01*
X166623Y151817D01*
G37*
%LPD*%
%LPC*%
G36*
X166623Y1002717D02*
X166623Y1002717D01*
X166623Y1014477D01*
X189557Y1014477D01*
X189306Y1012890D01*
X188660Y1010901D01*
X187710Y1009038D01*
X186481Y1007347D01*
X185003Y1005869D01*
X183312Y1004640D01*
X181449Y1003690D01*
X179460Y1003044D01*
X177395Y1002717D01*
X166623Y1002717D01*
G37*
%LPD*%
%LPC*%
G36*
X166623Y926517D02*
X166623Y926517D01*
X166623Y938277D01*
X189557Y938277D01*
X189306Y936690D01*
X188660Y934701D01*
X187710Y932838D01*
X186481Y931147D01*
X185003Y929669D01*
X183312Y928440D01*
X181449Y927490D01*
X179460Y926844D01*
X177395Y926517D01*
X166623Y926517D01*
G37*
%LPD*%
%LPC*%
G36*
X152805Y151817D02*
X152805Y151817D01*
X150740Y152144D01*
X148751Y152790D01*
X146888Y153740D01*
X145197Y154969D01*
X143719Y156447D01*
X142490Y158138D01*
X141540Y160001D01*
X140894Y161990D01*
X140643Y163577D01*
X163577Y163577D01*
X163577Y151817D01*
X152805Y151817D01*
G37*
%LPD*%
%LPC*%
G36*
X152805Y228017D02*
X152805Y228017D01*
X150740Y228344D01*
X148751Y228990D01*
X146888Y229940D01*
X145197Y231169D01*
X143719Y232647D01*
X142490Y234338D01*
X141540Y236201D01*
X140894Y238190D01*
X140643Y239777D01*
X163577Y239777D01*
X163577Y228017D01*
X152805Y228017D01*
G37*
%LPD*%
%LPC*%
G36*
X152805Y926517D02*
X152805Y926517D01*
X150740Y926844D01*
X148751Y927490D01*
X146888Y928440D01*
X145197Y929669D01*
X143719Y931147D01*
X142490Y932838D01*
X141540Y934701D01*
X140894Y936690D01*
X140643Y938277D01*
X163577Y938277D01*
X163577Y926517D01*
X152805Y926517D01*
G37*
%LPD*%
%LPC*%
G36*
X152805Y1002717D02*
X152805Y1002717D01*
X150740Y1003044D01*
X148751Y1003690D01*
X146888Y1004640D01*
X145197Y1005869D01*
X143719Y1007347D01*
X142490Y1009038D01*
X141540Y1010901D01*
X140894Y1012890D01*
X140643Y1014477D01*
X163577Y1014477D01*
X163577Y1002717D01*
X152805Y1002717D01*
G37*
%LPD*%
%LPC*%
G36*
X1005839Y899159D02*
X1005839Y899159D01*
X1005839Y909903D01*
X1015595Y909903D01*
X1017660Y909576D01*
X1019649Y908930D01*
X1021512Y907980D01*
X1023203Y906751D01*
X1024682Y905273D01*
X1025910Y903582D01*
X1026860Y901719D01*
X1027506Y899730D01*
X1027596Y899159D01*
X1005839Y899159D01*
G37*
%LPD*%
%LPC*%
G36*
X1005839Y822959D02*
X1005839Y822959D01*
X1005839Y833703D01*
X1015595Y833703D01*
X1017660Y833376D01*
X1019649Y832730D01*
X1021512Y831780D01*
X1023203Y830551D01*
X1024681Y829073D01*
X1025910Y827382D01*
X1026860Y825519D01*
X1027506Y823530D01*
X1027596Y822959D01*
X1005839Y822959D01*
G37*
%LPD*%
%LPC*%
G36*
X979004Y899159D02*
X979004Y899159D01*
X979094Y899730D01*
X979740Y901719D01*
X980690Y903582D01*
X981918Y905273D01*
X983397Y906751D01*
X985088Y907980D01*
X986951Y908930D01*
X988940Y909576D01*
X991005Y909903D01*
X1000761Y909903D01*
X1000761Y899159D01*
X979004Y899159D01*
G37*
%LPD*%
%LPC*%
G36*
X979004Y822959D02*
X979004Y822959D01*
X979094Y823530D01*
X979740Y825519D01*
X980690Y827382D01*
X981919Y829073D01*
X983397Y830551D01*
X985088Y831780D01*
X986951Y832730D01*
X988940Y833376D01*
X991005Y833703D01*
X1000761Y833703D01*
X1000761Y822959D01*
X979004Y822959D01*
G37*
%LPD*%
%LPC*%
G36*
X1005839Y883337D02*
X1005839Y883337D01*
X1005839Y894081D01*
X1027596Y894081D01*
X1027506Y893510D01*
X1026860Y891521D01*
X1025910Y889658D01*
X1024681Y887967D01*
X1023203Y886489D01*
X1021512Y885260D01*
X1019649Y884310D01*
X1017660Y883664D01*
X1015595Y883337D01*
X1005839Y883337D01*
G37*
%LPD*%
%LPC*%
G36*
X1005839Y807137D02*
X1005839Y807137D01*
X1005839Y817881D01*
X1027596Y817881D01*
X1027506Y817310D01*
X1026860Y815321D01*
X1025910Y813458D01*
X1024681Y811767D01*
X1023203Y810289D01*
X1021512Y809060D01*
X1019649Y808110D01*
X1017660Y807464D01*
X1015595Y807137D01*
X1005839Y807137D01*
G37*
%LPD*%
%LPC*%
G36*
X991005Y807137D02*
X991005Y807137D01*
X988940Y807464D01*
X986951Y808110D01*
X985088Y809060D01*
X983397Y810289D01*
X981919Y811767D01*
X980690Y813458D01*
X979740Y815321D01*
X979094Y817310D01*
X979004Y817881D01*
X1000761Y817881D01*
X1000761Y807137D01*
X991005Y807137D01*
G37*
%LPD*%
%LPC*%
G36*
X991005Y883337D02*
X991005Y883337D01*
X988940Y883664D01*
X986951Y884310D01*
X985088Y885260D01*
X983397Y886489D01*
X981919Y887967D01*
X980690Y889658D01*
X979740Y891521D01*
X979094Y893510D01*
X979004Y894081D01*
X1000761Y894081D01*
X1000761Y883337D01*
X991005Y883337D01*
G37*
%LPD*%
%LPC*%
G36*
X703090Y799106D02*
X703090Y799106D01*
X703090Y813512D01*
X704256Y813133D01*
X705610Y812443D01*
X706839Y811550D01*
X707913Y810476D01*
X708806Y809246D01*
X709496Y807893D01*
X709965Y806448D01*
X710203Y804947D01*
X710203Y799106D01*
X703090Y799106D01*
G37*
%LPD*%
%LPC*%
G36*
X703090Y794028D02*
X703090Y794028D01*
X710203Y794028D01*
X710203Y788188D01*
X709965Y786687D01*
X709496Y785242D01*
X708806Y783888D01*
X707913Y782659D01*
X706839Y781584D01*
X705610Y780691D01*
X704256Y780002D01*
X703090Y779623D01*
X703090Y794028D01*
G37*
%LPD*%
%LPC*%
G36*
X690898Y799106D02*
X690898Y799106D01*
X690898Y804947D01*
X691135Y806448D01*
X691605Y807893D01*
X692295Y809246D01*
X693188Y810476D01*
X694262Y811550D01*
X695491Y812443D01*
X696845Y813133D01*
X698011Y813512D01*
X698011Y799106D01*
X690898Y799106D01*
G37*
%LPD*%
%LPC*%
G36*
X696845Y780002D02*
X696845Y780002D01*
X695491Y780691D01*
X694262Y781584D01*
X693188Y782659D01*
X692295Y783888D01*
X691605Y785242D01*
X691135Y786687D01*
X690898Y788188D01*
X690898Y794028D01*
X698011Y794028D01*
X698011Y779623D01*
X696845Y780002D01*
G37*
%LPD*%
%LPC*%
G36*
X860551Y874521D02*
X860551Y874521D01*
X860551Y880619D01*
X865417Y880619D01*
X866987Y880306D01*
X868466Y879694D01*
X869798Y878804D01*
X870930Y877672D01*
X871820Y876340D01*
X872432Y874861D01*
X872500Y874521D01*
X860551Y874521D01*
G37*
%LPD*%
%LPC*%
G36*
X931067Y126857D02*
X931067Y126857D01*
X931067Y132955D01*
X935932Y132955D01*
X937503Y132642D01*
X938982Y132030D01*
X940313Y131140D01*
X941446Y130008D01*
X942335Y128676D01*
X942948Y127197D01*
X943016Y126857D01*
X931067Y126857D01*
G37*
%LPD*%
%LPC*%
G36*
X915056Y126857D02*
X915056Y126857D01*
X915123Y127197D01*
X915736Y128676D01*
X916626Y130008D01*
X917758Y131140D01*
X919089Y132030D01*
X920569Y132642D01*
X922139Y132955D01*
X927004Y132955D01*
X927004Y126857D01*
X915056Y126857D01*
G37*
%LPD*%
%LPC*%
G36*
X844540Y874521D02*
X844540Y874521D01*
X844608Y874861D01*
X845220Y876340D01*
X846110Y877672D01*
X847242Y878804D01*
X848574Y879694D01*
X850053Y880306D01*
X851623Y880619D01*
X856489Y880619D01*
X856489Y874521D01*
X844540Y874521D01*
G37*
%LPD*%
%LPC*%
G36*
X931067Y116697D02*
X931067Y116697D01*
X931067Y122795D01*
X943016Y122795D01*
X942948Y122455D01*
X942335Y120976D01*
X941446Y119644D01*
X940313Y118512D01*
X938982Y117622D01*
X937503Y117010D01*
X935932Y116697D01*
X931067Y116697D01*
G37*
%LPD*%
%LPC*%
G36*
X860551Y864361D02*
X860551Y864361D01*
X860551Y870459D01*
X872500Y870459D01*
X872432Y870119D01*
X871820Y868640D01*
X870930Y867308D01*
X869798Y866176D01*
X868466Y865286D01*
X866987Y864674D01*
X865417Y864361D01*
X860551Y864361D01*
G37*
%LPD*%
%LPC*%
G36*
X851623Y864361D02*
X851623Y864361D01*
X850053Y864674D01*
X848574Y865286D01*
X847242Y866176D01*
X846110Y867308D01*
X845220Y868640D01*
X844608Y870119D01*
X844540Y870459D01*
X856489Y870459D01*
X856489Y864361D01*
X851623Y864361D01*
G37*
%LPD*%
%LPC*%
G36*
X922139Y116697D02*
X922139Y116697D01*
X920569Y117010D01*
X919089Y117622D01*
X917758Y118512D01*
X916626Y119644D01*
X915736Y120976D01*
X915123Y122455D01*
X915056Y122795D01*
X927004Y122795D01*
X927004Y116697D01*
X922139Y116697D01*
G37*
%LPD*%
%LPC*%
G36*
X897667Y819315D02*
X897667Y819315D01*
X897667Y827318D01*
X899792Y827318D01*
X905670Y821440D01*
X905670Y819315D01*
X897667Y819315D01*
G37*
%LPD*%
%LPC*%
G36*
X885602Y819315D02*
X885602Y819315D01*
X885602Y821440D01*
X891480Y827318D01*
X893605Y827318D01*
X893605Y819315D01*
X885602Y819315D01*
G37*
%LPD*%
%LPC*%
G36*
X705706Y516847D02*
X705706Y516847D01*
X705706Y524850D01*
X713708Y524850D01*
X713708Y522725D01*
X707830Y516847D01*
X705706Y516847D01*
G37*
%LPD*%
%LPC*%
G36*
X897667Y807250D02*
X897667Y807250D01*
X897667Y815253D01*
X905670Y815253D01*
X905670Y813128D01*
X899792Y807250D01*
X897667Y807250D01*
G37*
%LPD*%
%LPC*%
G36*
X699518Y516847D02*
X699518Y516847D01*
X693641Y522725D01*
X693641Y524850D01*
X701643Y524850D01*
X701643Y516847D01*
X699518Y516847D01*
G37*
%LPD*%
%LPC*%
G36*
X891480Y807250D02*
X891480Y807250D01*
X885602Y813128D01*
X885602Y815253D01*
X893605Y815253D01*
X893605Y807250D01*
X891480Y807250D01*
G37*
%LPD*%
%LPC*%
G36*
X714748Y461203D02*
X714748Y461203D01*
X714748Y467300D01*
X716084Y467300D01*
X720846Y462539D01*
X720846Y461203D01*
X714748Y461203D01*
G37*
%LPD*%
%LPC*%
G36*
X837691Y1012951D02*
X837691Y1012951D01*
X837691Y1019049D01*
X839027Y1019049D01*
X843789Y1014287D01*
X843789Y1012951D01*
X837691Y1012951D01*
G37*
%LPD*%
%LPC*%
G36*
X715771Y1005331D02*
X715771Y1005331D01*
X715771Y1011429D01*
X717107Y1011429D01*
X721869Y1006667D01*
X721869Y1005331D01*
X715771Y1005331D01*
G37*
%LPD*%
%LPC*%
G36*
X1110741Y508761D02*
X1110741Y508761D01*
X1110741Y514859D01*
X1112077Y514859D01*
X1116839Y510097D01*
X1116839Y508761D01*
X1110741Y508761D01*
G37*
%LPD*%
%LPC*%
G36*
X654171Y679694D02*
X654171Y679694D01*
X654171Y685792D01*
X655507Y685792D01*
X660268Y681030D01*
X660268Y679694D01*
X654171Y679694D01*
G37*
%LPD*%
%LPC*%
G36*
X885951Y1084071D02*
X885951Y1084071D01*
X885951Y1090169D01*
X887287Y1090169D01*
X892049Y1085407D01*
X892049Y1084071D01*
X885951Y1084071D01*
G37*
%LPD*%
%LPC*%
G36*
X703071Y346201D02*
X703071Y346201D01*
X703071Y352299D01*
X704407Y352299D01*
X709169Y347537D01*
X709169Y346201D01*
X703071Y346201D01*
G37*
%LPD*%
%LPC*%
G36*
X703071Y1120901D02*
X703071Y1120901D01*
X703071Y1126999D01*
X704407Y1126999D01*
X709169Y1122237D01*
X709169Y1120901D01*
X703071Y1120901D01*
G37*
%LPD*%
%LPC*%
G36*
X700531Y1236471D02*
X700531Y1236471D01*
X700531Y1242569D01*
X701867Y1242569D01*
X706629Y1237807D01*
X706629Y1236471D01*
X700531Y1236471D01*
G37*
%LPD*%
%LPC*%
G36*
X694670Y1435898D02*
X694670Y1435898D01*
X694670Y1441995D01*
X696006Y1441995D01*
X700768Y1437233D01*
X700768Y1435898D01*
X694670Y1435898D01*
G37*
%LPD*%
%LPC*%
G36*
X857912Y303210D02*
X857912Y303210D01*
X857912Y309307D01*
X859248Y309307D01*
X864010Y304546D01*
X864010Y303210D01*
X857912Y303210D01*
G37*
%LPD*%
%LPC*%
G36*
X786287Y257667D02*
X786287Y257667D01*
X786287Y263765D01*
X787623Y263765D01*
X792384Y259003D01*
X792384Y257667D01*
X786287Y257667D01*
G37*
%LPD*%
%LPC*%
G36*
X897304Y271449D02*
X897304Y271449D01*
X897304Y277546D01*
X898640Y277546D01*
X903401Y272785D01*
X903401Y271449D01*
X897304Y271449D01*
G37*
%LPD*%
%LPC*%
G36*
X684510Y1435898D02*
X684510Y1435898D01*
X684510Y1437233D01*
X689272Y1441995D01*
X690608Y1441995D01*
X690608Y1435898D01*
X684510Y1435898D01*
G37*
%LPD*%
%LPC*%
G36*
X715771Y995171D02*
X715771Y995171D01*
X715771Y1001269D01*
X721869Y1001269D01*
X721869Y999933D01*
X717107Y995171D01*
X715771Y995171D01*
G37*
%LPD*%
%LPC*%
G36*
X857912Y293050D02*
X857912Y293050D01*
X857912Y299147D01*
X864010Y299147D01*
X864010Y297811D01*
X859248Y293050D01*
X857912Y293050D01*
G37*
%LPD*%
%LPC*%
G36*
X887144Y271449D02*
X887144Y271449D01*
X887144Y272785D01*
X891906Y277546D01*
X893241Y277546D01*
X893241Y271449D01*
X887144Y271449D01*
G37*
%LPD*%
%LPC*%
G36*
X690371Y1236471D02*
X690371Y1236471D01*
X690371Y1237807D01*
X695133Y1242569D01*
X696469Y1242569D01*
X696469Y1236471D01*
X690371Y1236471D01*
G37*
%LPD*%
%LPC*%
G36*
X897304Y261289D02*
X897304Y261289D01*
X897304Y267386D01*
X903401Y267386D01*
X903401Y266050D01*
X898640Y261289D01*
X897304Y261289D01*
G37*
%LPD*%
%LPC*%
G36*
X837691Y1002791D02*
X837691Y1002791D01*
X837691Y1008889D01*
X843789Y1008889D01*
X843789Y1007553D01*
X839027Y1002791D01*
X837691Y1002791D01*
G37*
%LPD*%
%LPC*%
G36*
X776127Y257667D02*
X776127Y257667D01*
X776127Y259003D01*
X780889Y263765D01*
X782224Y263765D01*
X782224Y257667D01*
X776127Y257667D01*
G37*
%LPD*%
%LPC*%
G36*
X827531Y1012951D02*
X827531Y1012951D01*
X827531Y1014287D01*
X832293Y1019049D01*
X833629Y1019049D01*
X833629Y1012951D01*
X827531Y1012951D01*
G37*
%LPD*%
%LPC*%
G36*
X847752Y303210D02*
X847752Y303210D01*
X847752Y304546D01*
X852514Y309307D01*
X853850Y309307D01*
X853850Y303210D01*
X847752Y303210D01*
G37*
%LPD*%
%LPC*%
G36*
X703071Y336041D02*
X703071Y336041D01*
X703071Y342139D01*
X709169Y342139D01*
X709169Y340803D01*
X704407Y336041D01*
X703071Y336041D01*
G37*
%LPD*%
%LPC*%
G36*
X885951Y1073911D02*
X885951Y1073911D01*
X885951Y1080009D01*
X892049Y1080009D01*
X892049Y1078673D01*
X887287Y1073911D01*
X885951Y1073911D01*
G37*
%LPD*%
%LPC*%
G36*
X786287Y247507D02*
X786287Y247507D01*
X786287Y253605D01*
X792384Y253605D01*
X792384Y252269D01*
X787623Y247507D01*
X786287Y247507D01*
G37*
%LPD*%
%LPC*%
G36*
X875791Y1084071D02*
X875791Y1084071D01*
X875791Y1085407D01*
X880553Y1090169D01*
X881889Y1090169D01*
X881889Y1084071D01*
X875791Y1084071D01*
G37*
%LPD*%
%LPC*%
G36*
X654171Y669534D02*
X654171Y669534D01*
X654171Y675632D01*
X660268Y675632D01*
X660268Y674296D01*
X655507Y669534D01*
X654171Y669534D01*
G37*
%LPD*%
%LPC*%
G36*
X703071Y1110741D02*
X703071Y1110741D01*
X703071Y1116839D01*
X709169Y1116839D01*
X709169Y1115503D01*
X704407Y1110741D01*
X703071Y1110741D01*
G37*
%LPD*%
%LPC*%
G36*
X692911Y346201D02*
X692911Y346201D01*
X692911Y347537D01*
X697673Y352299D01*
X699009Y352299D01*
X699009Y346201D01*
X692911Y346201D01*
G37*
%LPD*%
%LPC*%
G36*
X700531Y1226311D02*
X700531Y1226311D01*
X700531Y1232409D01*
X706629Y1232409D01*
X706629Y1231073D01*
X701867Y1226311D01*
X700531Y1226311D01*
G37*
%LPD*%
%LPC*%
G36*
X714748Y451043D02*
X714748Y451043D01*
X714748Y457140D01*
X720846Y457140D01*
X720846Y455804D01*
X716084Y451043D01*
X714748Y451043D01*
G37*
%LPD*%
%LPC*%
G36*
X705611Y1005331D02*
X705611Y1005331D01*
X705611Y1006667D01*
X710373Y1011429D01*
X711709Y1011429D01*
X711709Y1005331D01*
X705611Y1005331D01*
G37*
%LPD*%
%LPC*%
G36*
X692911Y1120901D02*
X692911Y1120901D01*
X692911Y1122237D01*
X697673Y1126999D01*
X699009Y1126999D01*
X699009Y1120901D01*
X692911Y1120901D01*
G37*
%LPD*%
%LPC*%
G36*
X704588Y461203D02*
X704588Y461203D01*
X704588Y462539D01*
X709350Y467300D01*
X710686Y467300D01*
X710686Y461203D01*
X704588Y461203D01*
G37*
%LPD*%
%LPC*%
G36*
X1100581Y508761D02*
X1100581Y508761D01*
X1100581Y510097D01*
X1105343Y514859D01*
X1106679Y514859D01*
X1106679Y508761D01*
X1100581Y508761D01*
G37*
%LPD*%
%LPC*%
G36*
X1110741Y498601D02*
X1110741Y498601D01*
X1110741Y504699D01*
X1116839Y504699D01*
X1116839Y503363D01*
X1112077Y498601D01*
X1110741Y498601D01*
G37*
%LPD*%
%LPC*%
G36*
X694670Y1425738D02*
X694670Y1425738D01*
X694670Y1431835D01*
X700768Y1431835D01*
X700768Y1430499D01*
X696006Y1425738D01*
X694670Y1425738D01*
G37*
%LPD*%
%LPC*%
G36*
X832293Y1002791D02*
X832293Y1002791D01*
X827531Y1007553D01*
X827531Y1008889D01*
X833629Y1008889D01*
X833629Y1002791D01*
X832293Y1002791D01*
G37*
%LPD*%
%LPC*%
G36*
X697673Y336041D02*
X697673Y336041D01*
X692911Y340803D01*
X692911Y342139D01*
X699009Y342139D01*
X699009Y336041D01*
X697673Y336041D01*
G37*
%LPD*%
%LPC*%
G36*
X709350Y451043D02*
X709350Y451043D01*
X704588Y455804D01*
X704588Y457140D01*
X710686Y457140D01*
X710686Y451043D01*
X709350Y451043D01*
G37*
%LPD*%
%LPC*%
G36*
X891906Y261289D02*
X891906Y261289D01*
X887144Y266050D01*
X887144Y267386D01*
X893241Y267386D01*
X893241Y261289D01*
X891906Y261289D01*
G37*
%LPD*%
%LPC*%
G36*
X710373Y995171D02*
X710373Y995171D01*
X705611Y999933D01*
X705611Y1001269D01*
X711709Y1001269D01*
X711709Y995171D01*
X710373Y995171D01*
G37*
%LPD*%
%LPC*%
G36*
X852514Y293050D02*
X852514Y293050D01*
X847752Y297811D01*
X847752Y299147D01*
X853850Y299147D01*
X853850Y293050D01*
X852514Y293050D01*
G37*
%LPD*%
%LPC*%
G36*
X780889Y247507D02*
X780889Y247507D01*
X776127Y252269D01*
X776127Y253605D01*
X782224Y253605D01*
X782224Y247507D01*
X780889Y247507D01*
G37*
%LPD*%
%LPC*%
G36*
X689272Y1425738D02*
X689272Y1425738D01*
X684510Y1430499D01*
X684510Y1431835D01*
X690608Y1431835D01*
X690608Y1425738D01*
X689272Y1425738D01*
G37*
%LPD*%
%LPC*%
G36*
X880553Y1073911D02*
X880553Y1073911D01*
X875791Y1078673D01*
X875791Y1080009D01*
X881889Y1080009D01*
X881889Y1073911D01*
X880553Y1073911D01*
G37*
%LPD*%
%LPC*%
G36*
X695133Y1226311D02*
X695133Y1226311D01*
X690371Y1231073D01*
X690371Y1232409D01*
X696469Y1232409D01*
X696469Y1226311D01*
X695133Y1226311D01*
G37*
%LPD*%
%LPC*%
G36*
X1105343Y498601D02*
X1105343Y498601D01*
X1100581Y503363D01*
X1100581Y504699D01*
X1106679Y504699D01*
X1106679Y498601D01*
X1105343Y498601D01*
G37*
%LPD*%
%LPC*%
G36*
X697673Y1110741D02*
X697673Y1110741D01*
X692911Y1115503D01*
X692911Y1116839D01*
X699009Y1116839D01*
X699009Y1110741D01*
X697673Y1110741D01*
G37*
%LPD*%
%LPC*%
G36*
X165099Y939799D02*
X165099Y939799D01*
X165099Y939801D01*
X165101Y939801D01*
X165101Y939799D01*
X165099Y939799D01*
G37*
%LPD*%
%LPC*%
G36*
X1003299Y896619D02*
X1003299Y896619D01*
X1003299Y896621D01*
X1003301Y896621D01*
X1003301Y896619D01*
X1003299Y896619D01*
G37*
%LPD*%
%LPC*%
G36*
X700549Y796566D02*
X700549Y796566D01*
X700549Y796568D01*
X700551Y796568D01*
X700551Y796566D01*
X700549Y796566D01*
G37*
%LPD*%
%LPC*%
G36*
X1003299Y820419D02*
X1003299Y820419D01*
X1003299Y820421D01*
X1003301Y820421D01*
X1003301Y820419D01*
X1003299Y820419D01*
G37*
%LPD*%
%LPC*%
G36*
X165099Y1015999D02*
X165099Y1015999D01*
X165099Y1016001D01*
X165101Y1016001D01*
X165101Y1015999D01*
X165099Y1015999D01*
G37*
%LPD*%
%LPC*%
G36*
X165099Y241299D02*
X165099Y241299D01*
X165099Y241301D01*
X165101Y241301D01*
X165101Y241299D01*
X165099Y241299D01*
G37*
%LPD*%
%LPC*%
G36*
X165099Y165099D02*
X165099Y165099D01*
X165099Y165101D01*
X165101Y165101D01*
X165101Y165099D01*
X165099Y165099D01*
G37*
%LPD*%
D10*
X330200Y355600D03*
X330200Y508000D03*
X330200Y177800D03*
X330200Y330200D03*
X299903Y21399D03*
X299903Y173799D03*
D11*
X426720Y158750D03*
X426720Y133350D03*
X485140Y158750D03*
X485140Y133350D03*
D12*
X176350Y525780D02*
X153850Y525780D01*
X153850Y601980D02*
X176350Y601980D01*
X176350Y165100D02*
X153850Y165100D01*
X153850Y241300D02*
X176350Y241300D01*
X992050Y744220D02*
X1014550Y744220D01*
X1014550Y668020D02*
X992050Y668020D01*
X992050Y896620D02*
X1014550Y896620D01*
X1014550Y820420D02*
X992050Y820420D01*
D13*
X769016Y192136D03*
X845216Y192136D03*
X769016Y160386D03*
X845216Y160386D03*
D14*
X784256Y230236D03*
X784256Y255636D03*
D11*
X888396Y119746D03*
X888396Y43546D03*
X838835Y74970D03*
X838835Y49570D03*
X855881Y301179D03*
X855881Y224979D03*
D14*
X895273Y244018D03*
X895273Y269418D03*
D15*
X922940Y201026D02*
X935132Y201026D01*
X935132Y175626D02*
X922940Y175626D01*
X999140Y175626D02*
X1011332Y175626D01*
X1011332Y201026D02*
X999140Y201026D01*
X935132Y150226D02*
X922940Y150226D01*
X922940Y124826D02*
X935132Y124826D01*
X999140Y150226D02*
X1011332Y150226D01*
X1011332Y124826D02*
X999140Y124826D01*
D12*
X990780Y421640D02*
X1013280Y421640D01*
X1013280Y345440D02*
X990780Y345440D01*
D16*
X438150Y398780D03*
X438150Y576580D03*
D17*
X444500Y557680D02*
X444500Y517680D01*
X444500Y457680D02*
X444500Y417680D01*
D18*
X658500Y468580D03*
X658500Y487680D03*
X658500Y506780D03*
D16*
X450850Y576580D03*
X450850Y398780D03*
X460750Y569430D03*
X464500Y557680D03*
X464500Y544430D03*
X464500Y531180D03*
X464500Y517680D03*
X460750Y505930D03*
X450750Y498680D03*
X438250Y498680D03*
X428250Y505930D03*
X424500Y517680D03*
X424500Y531180D03*
X424500Y544430D03*
X424500Y557680D03*
X428250Y569430D03*
X460750Y405930D03*
X464500Y417680D03*
X464500Y430930D03*
X464500Y444430D03*
X464500Y457680D03*
X460750Y469430D03*
X450750Y476680D03*
X438250Y476680D03*
X428250Y469430D03*
X424500Y457680D03*
X424500Y444430D03*
X424500Y430930D03*
X424500Y417680D03*
X428250Y405930D03*
D12*
X176350Y373380D02*
X153850Y373380D01*
X153850Y449580D02*
X176350Y449580D01*
D19*
X688853Y612811D02*
X704093Y612811D01*
X704093Y638211D02*
X688853Y638211D01*
X688853Y663611D02*
X704093Y663611D01*
X675150Y788947D02*
X675150Y804187D01*
X700550Y804187D02*
X700550Y788947D01*
X725950Y788947D02*
X725950Y804187D01*
D14*
X1090930Y567690D03*
X1090930Y593090D03*
D20*
X1108710Y506730D03*
X1083310Y506730D03*
D21*
X741680Y307340D03*
X741680Y332740D03*
X741680Y358140D03*
X741680Y383540D03*
X741680Y408940D03*
X741680Y434340D03*
X741680Y459740D03*
X741680Y485140D03*
X741680Y510540D03*
X741680Y535940D03*
X741680Y561340D03*
X741680Y586740D03*
X741680Y612140D03*
X741680Y637540D03*
X741680Y662940D03*
X741680Y688340D03*
X944880Y586740D03*
X944880Y561340D03*
X944880Y535940D03*
X944880Y510540D03*
X944880Y485140D03*
X944880Y459740D03*
X944880Y434340D03*
X944880Y408940D03*
X944880Y383540D03*
X944880Y358140D03*
X944880Y332740D03*
X944880Y307340D03*
D22*
X703674Y552281D03*
D23*
X703674Y526881D03*
D13*
X675640Y414020D03*
X701040Y414020D03*
D11*
X701040Y369570D03*
X701040Y344170D03*
D24*
X895636Y817284D03*
D22*
X895636Y781724D03*
D13*
X462280Y261620D03*
X487680Y261620D03*
D14*
X416560Y260350D03*
X416560Y285750D03*
D11*
X712717Y484572D03*
X712717Y459172D03*
D14*
X652140Y652263D03*
X652140Y677663D03*
X650380Y542113D03*
X650380Y618313D03*
D10*
X330200Y1130300D03*
X330200Y1282700D03*
X330200Y952500D03*
X330200Y1104900D03*
X360680Y798830D03*
X360680Y951230D03*
D11*
X426720Y933450D03*
X426720Y908050D03*
X485140Y933450D03*
X485140Y908050D03*
D12*
X176350Y1300480D02*
X153850Y1300480D01*
X153850Y1376680D02*
X176350Y1376680D01*
X176350Y939800D02*
X153850Y939800D01*
X153850Y1016000D02*
X176350Y1016000D01*
D13*
X698500Y939800D03*
X774700Y939800D03*
X698500Y908050D03*
X774700Y908050D03*
D14*
X713740Y977900D03*
X713740Y1003300D03*
D11*
X815036Y865136D03*
X815036Y788936D03*
X786528Y840305D03*
X786528Y814905D03*
X883920Y1082040D03*
X883920Y1005840D03*
D14*
X835660Y985520D03*
X835660Y1010920D03*
D15*
X852424Y948690D02*
X864616Y948690D01*
X864616Y923290D02*
X852424Y923290D01*
X928624Y923290D02*
X940816Y923290D01*
X940816Y948690D02*
X928624Y948690D01*
X864616Y897890D02*
X852424Y897890D01*
X852424Y872490D02*
X864616Y872490D01*
X928624Y897890D02*
X940816Y897890D01*
X940816Y872490D02*
X928624Y872490D01*
D12*
X990780Y1196340D02*
X1013280Y1196340D01*
X1013280Y1120140D02*
X990780Y1120140D01*
D16*
X438150Y1173480D03*
X438150Y1351280D03*
D17*
X444500Y1332380D02*
X444500Y1292380D01*
X444500Y1232380D02*
X444500Y1192380D01*
D18*
X658500Y1243280D03*
X658500Y1262380D03*
X658500Y1281480D03*
D16*
X450850Y1351280D03*
X450850Y1173480D03*
X460750Y1344130D03*
X464500Y1332380D03*
X464500Y1319130D03*
X464500Y1305880D03*
X464500Y1292380D03*
X460750Y1280630D03*
X450750Y1273380D03*
X438250Y1273380D03*
X428250Y1280630D03*
X424500Y1292380D03*
X424500Y1305880D03*
X424500Y1319130D03*
X424500Y1332380D03*
X428250Y1344130D03*
X460750Y1180630D03*
X464500Y1192380D03*
X464500Y1205630D03*
X464500Y1219130D03*
X464500Y1232380D03*
X460750Y1244130D03*
X450750Y1251380D03*
X438250Y1251380D03*
X428250Y1244130D03*
X424500Y1232380D03*
X424500Y1219130D03*
X424500Y1205630D03*
X424500Y1192380D03*
X428250Y1180630D03*
D12*
X176350Y1148080D02*
X153850Y1148080D01*
X153850Y1224280D02*
X176350Y1224280D01*
D19*
X738136Y1233768D02*
X753376Y1233768D01*
X753376Y1259168D02*
X738136Y1259168D01*
X738136Y1284568D02*
X753376Y1284568D01*
D13*
X675640Y1188720D03*
X701040Y1188720D03*
D11*
X701040Y1144270D03*
X701040Y1118870D03*
D13*
X462280Y1036320D03*
X487680Y1036320D03*
D14*
X416560Y1035050D03*
X416560Y1060450D03*
D11*
X698500Y1259840D03*
X698500Y1234440D03*
D13*
X667239Y1433866D03*
X692639Y1433866D03*
D14*
X662331Y1319022D03*
X662331Y1395222D03*
D25*
X105111Y204148D03*
X106292Y554621D03*
D26*
X652196Y380720D03*
X663426Y381672D03*
X662665Y356931D03*
X671420Y370824D03*
X667629Y133053D03*
X666198Y122592D03*
X654965Y123583D03*
X824122Y662265D03*
X792835Y699217D03*
X884988Y665108D03*
X804781Y537766D03*
X1067860Y330558D03*
X972798Y145215D03*
X828968Y1124534D03*
X780791Y1385163D03*
D25*
X106292Y420096D03*
D27*
X649976Y652263D02*
X652140Y652263D01*
X649976Y652263D02*
X634263Y667976D01*
X634263Y709472D01*
X650575Y725783D02*
X705167Y725783D01*
D26*
X705167Y725783D03*
X828368Y720561D03*
D27*
X869830Y720561D01*
X870143Y720874D01*
D26*
X870143Y720874D03*
X978706Y641660D03*
D27*
X985559Y634806D01*
X985559Y618636D01*
D26*
X985559Y618636D03*
X1061943Y123647D03*
D27*
X1006415Y123647D01*
X1005236Y124826D01*
X634263Y709472D02*
X650575Y725783D01*
X914546Y897890D02*
X934720Y897890D01*
X896596Y879940D02*
X896596Y847154D01*
D26*
X896596Y847154D03*
X859249Y641427D03*
D27*
X859249Y548667D01*
X858920Y548338D01*
D26*
X858920Y548338D03*
D27*
X896596Y879940D02*
X914546Y897890D01*
D25*
X103930Y1338170D03*
X102749Y1187124D03*
X106292Y974716D03*
M02*
