G75*
%MOIN*%
%OFA0B0*%
%FSLAX25Y25*%
%IPPOS*%
%LPD*%
%AMOC8*
5,1,8,0,0,1.08239X$1,22.5*
%
%ADD10R,0.01575X0.04724*%
%ADD11R,0.03937X0.04331*%
%ADD12R,0.07874X0.07874*%
%ADD13R,0.04331X0.03937*%
%ADD14R,0.05900X0.07900*%
%ADD15R,0.15000X0.07900*%
%ADD16R,0.13800X0.04100*%
%ADD17R,0.45900X0.42000*%
%ADD18R,0.05906X0.09843*%
%ADD19R,0.03150X0.02362*%
%ADD20R,0.16000X0.04300*%
%ADD21R,0.07874X0.04724*%
%ADD22R,0.04700X0.21100*%
%ADD23R,0.03350X0.04300*%
%ADD24R,0.02950X0.04300*%
%ADD25R,0.04606X0.07059*%
%ADD26R,0.07509X0.05306*%
%ADD27R,0.04706X0.03955*%
%ADD28R,0.06108X0.05307*%
%ADD29R,0.05512X0.06299*%
%ADD30R,0.04600X0.06300*%
%ADD31R,0.06000X0.02500*%
%ADD32R,0.24409X0.11811*%
%ADD33R,0.07480X0.05118*%
%ADD34R,0.05118X0.02362*%
%ADD35R,0.13937X0.10236*%
D10*
X0162988Y0196040D03*
X0165547Y0196040D03*
X0168106Y0196040D03*
X0170665Y0196040D03*
X0170665Y0213022D03*
X0168106Y0213022D03*
X0165547Y0213022D03*
X0162988Y0213022D03*
X0162988Y0251040D03*
X0165547Y0251040D03*
X0168106Y0251040D03*
X0170665Y0251040D03*
X0170665Y0268022D03*
X0168106Y0268022D03*
X0165547Y0268022D03*
X0162988Y0268022D03*
D11*
X0157627Y0271585D03*
X0157627Y0278278D03*
X0178480Y0271531D03*
X0185173Y0271531D03*
X0194786Y0290589D03*
X0202950Y0290576D03*
X0202950Y0297269D03*
X0194786Y0297282D03*
X0184051Y0251000D03*
X0184051Y0244307D03*
X0156827Y0241185D03*
X0156827Y0247878D03*
X0156127Y0224378D03*
X0156127Y0217685D03*
X0178441Y0216208D03*
X0185134Y0216208D03*
X0185027Y0196378D03*
X0185027Y0189685D03*
X0155827Y0192178D03*
X0155827Y0185485D03*
X0192480Y0129831D03*
X0199173Y0129831D03*
X0199173Y0106531D03*
X0192480Y0106531D03*
X0192480Y0098531D03*
X0199173Y0098531D03*
X0283480Y0105531D03*
X0290173Y0105531D03*
X0317372Y0097309D03*
X0317372Y0090616D03*
X0277627Y0157085D03*
X0277627Y0163778D03*
X0315327Y0328585D03*
X0315327Y0335278D03*
D12*
X0215111Y0302249D03*
X0215111Y0286501D03*
D13*
X0143827Y0244878D03*
X0143827Y0238185D03*
X0143827Y0232878D03*
X0143827Y0226185D03*
X0143827Y0190878D03*
X0143827Y0184185D03*
X0143827Y0177878D03*
X0143827Y0171185D03*
X0198277Y0144467D03*
X0198277Y0137774D03*
X0165827Y0116531D03*
X0165827Y0109838D03*
X0153485Y0116397D03*
X0153485Y0123090D03*
X0283480Y0090531D03*
X0290173Y0090531D03*
X0302827Y0098185D03*
X0302827Y0104878D03*
X0330456Y0097361D03*
X0330456Y0090668D03*
X0327365Y0162923D03*
X0327365Y0169615D03*
X0312827Y0169878D03*
X0312827Y0163185D03*
X0354729Y0308002D03*
X0361422Y0308002D03*
X0361197Y0321827D03*
X0354504Y0321827D03*
X0229972Y0345338D03*
X0223280Y0345338D03*
D14*
X0327038Y0335931D03*
X0336038Y0335931D03*
X0345038Y0335931D03*
D15*
X0336138Y0311131D03*
D16*
X0206902Y0316690D03*
X0206902Y0323390D03*
X0206902Y0330090D03*
X0206902Y0336790D03*
X0206902Y0343490D03*
D17*
X0171702Y0330090D03*
D18*
X0225715Y0322884D03*
X0249337Y0322884D03*
D19*
X0310472Y0306901D03*
X0320315Y0306901D03*
D20*
X0295627Y0323931D03*
X0271027Y0323931D03*
D21*
X0273827Y0145657D03*
X0273827Y0137783D03*
X0273827Y0129909D03*
X0273827Y0122035D03*
X0273827Y0114161D03*
X0273827Y0106287D03*
X0273827Y0098413D03*
X0273827Y0090539D03*
X0210047Y0090539D03*
X0210047Y0098413D03*
X0210047Y0106287D03*
X0210047Y0114161D03*
X0210047Y0122035D03*
X0210047Y0129909D03*
X0210047Y0137783D03*
X0210047Y0145657D03*
D22*
X0117426Y0303496D03*
X0117426Y0342696D03*
D23*
X0118328Y0112086D03*
X0114026Y0112086D03*
X0109733Y0112076D03*
X0105371Y0112067D03*
X0101061Y0112086D03*
X0096768Y0112086D03*
X0122684Y0112075D03*
D24*
X0126855Y0112076D03*
D25*
X0131578Y0110700D03*
D26*
X0100133Y0069536D03*
X0123614Y0069538D03*
D27*
X0086369Y0073350D03*
X0086369Y0087918D03*
D28*
X0087085Y0111590D03*
D29*
X0168522Y0138472D03*
X0186239Y0138472D03*
X0186239Y0171936D03*
X0168522Y0171936D03*
D30*
X0243827Y0206531D03*
X0249827Y0206531D03*
D31*
X0312681Y0234740D03*
X0312681Y0239740D03*
X0312681Y0244740D03*
X0312681Y0249740D03*
X0312681Y0254740D03*
X0312681Y0259740D03*
X0312681Y0264740D03*
X0312681Y0269740D03*
X0333902Y0269740D03*
X0333902Y0264740D03*
X0333902Y0259740D03*
X0333902Y0254740D03*
X0333902Y0249740D03*
X0333902Y0244740D03*
X0333902Y0239740D03*
X0333902Y0234740D03*
D32*
X0057457Y0242665D03*
X0057583Y0221366D03*
X0057583Y0187508D03*
X0057457Y0276523D03*
D33*
X0349055Y0105246D03*
X0361654Y0105246D03*
X0361654Y0083593D03*
X0349055Y0083593D03*
D34*
X0338063Y0111051D03*
X0338063Y0116169D03*
X0338063Y0120894D03*
X0338063Y0126012D03*
X0317197Y0126012D03*
X0317197Y0120894D03*
X0317197Y0116169D03*
X0317197Y0111051D03*
D35*
X0343150Y0147531D03*
X0405551Y0147531D03*
M02*
