G75*
%MOIN*%
%OFA0B0*%
%FSLAX25Y25*%
%IPPOS*%
%LPD*%
%AMOC8*
5,1,8,0,0,1.08239X$1,22.5*
%
%ADD10C,0.00600*%
%ADD11C,0.01200*%
%ADD12C,0.00500*%
%ADD13C,0.00300*%
%ADD14C,0.00700*%
%ADD15R,0.25000X0.00200*%
%ADD16R,0.26000X0.00200*%
%ADD17R,0.26600X0.00200*%
%ADD18R,0.27000X0.00200*%
%ADD19R,0.27400X0.00200*%
%ADD20R,0.27600X0.00200*%
%ADD21R,0.01800X0.00200*%
%ADD22R,0.01600X0.00200*%
%ADD23R,0.01400X0.00200*%
%ADD24R,0.01200X0.00200*%
%ADD25R,0.02000X0.00200*%
%ADD26R,0.02400X0.00200*%
%ADD27R,0.02600X0.00200*%
%ADD28R,0.02200X0.00200*%
%ADD29R,0.03200X0.00200*%
%ADD30R,0.03000X0.00200*%
%ADD31R,0.02800X0.00200*%
%ADD32R,0.01000X0.00200*%
%ADD33R,0.00800X0.00200*%
%ADD34R,0.00600X0.00200*%
%ADD35R,0.00400X0.00200*%
%ADD36R,0.00200X0.00200*%
%ADD37R,0.23600X0.00200*%
%ADD38R,0.23200X0.00200*%
%ADD39R,0.23000X0.00200*%
%ADD40R,0.22600X0.00200*%
%ADD41R,0.22000X0.00200*%
%ADD42R,0.21200X0.00200*%
%ADD43C,0.00400*%
%ADD44C,0.01000*%
%ADD45C,0.00900*%
%ADD46C,0.01800*%
%ADD47C,0.01100*%
%ADD48C,0.00800*%
%ADD49R,0.02362X0.04331*%
%ADD50C,0.00000*%
%ADD51R,0.03400X0.02400*%
%ADD52R,0.06000X0.06000*%
D10*
X0149227Y0090031D02*
X0174427Y0090031D01*
X0174427Y0115031D01*
X0149227Y0115031D01*
X0149227Y0090031D01*
X0153827Y0094531D02*
X0169827Y0094531D01*
X0169827Y0100531D01*
X0153827Y0100531D01*
X0153827Y0094531D01*
X0153827Y0104531D02*
X0169827Y0104531D01*
X0169827Y0110531D01*
X0153827Y0110531D01*
X0153827Y0104531D01*
X0062359Y0111725D02*
X0060091Y0112859D01*
X0060091Y0114274D02*
X0058957Y0115408D01*
X0062359Y0115408D01*
X0062359Y0114274D02*
X0062359Y0116542D01*
X0062359Y0117957D02*
X0062359Y0118524D01*
X0061792Y0118524D01*
X0061792Y0117957D01*
X0062359Y0117957D01*
X0062359Y0119798D02*
X0062359Y0122067D01*
X0062359Y0120933D02*
X0058957Y0120933D01*
X0060091Y0119798D01*
X0058957Y0127165D02*
X0058957Y0128866D01*
X0059524Y0129433D01*
X0061792Y0129433D01*
X0062359Y0128866D01*
X0062359Y0127165D01*
X0058957Y0127165D01*
X0060658Y0130848D02*
X0060091Y0131415D01*
X0060091Y0132549D01*
X0060658Y0133116D01*
X0061225Y0133116D01*
X0061225Y0130848D01*
X0061792Y0130848D02*
X0060658Y0130848D01*
X0061792Y0130848D02*
X0062359Y0131415D01*
X0062359Y0132549D01*
X0061792Y0134531D02*
X0062359Y0135098D01*
X0062359Y0136799D01*
X0060091Y0136799D02*
X0060091Y0135098D01*
X0060658Y0134531D01*
X0061792Y0134531D01*
X0062359Y0141897D02*
X0060091Y0144166D01*
X0059524Y0144166D01*
X0058957Y0143599D01*
X0058957Y0142464D01*
X0059524Y0141897D01*
X0062359Y0141897D02*
X0062359Y0144166D01*
X0061792Y0145580D02*
X0059524Y0147849D01*
X0061792Y0147849D01*
X0062359Y0147282D01*
X0062359Y0146147D01*
X0061792Y0145580D01*
X0059524Y0145580D01*
X0058957Y0146147D01*
X0058957Y0147282D01*
X0059524Y0147849D01*
X0060091Y0149263D02*
X0058957Y0150398D01*
X0062359Y0150398D01*
X0062359Y0151532D02*
X0062359Y0149263D01*
X0062359Y0152947D02*
X0061792Y0152947D01*
X0059524Y0155215D01*
X0058957Y0155215D01*
X0058957Y0152947D01*
X0058957Y0160313D02*
X0062359Y0160313D01*
X0062359Y0162014D01*
X0061792Y0162581D01*
X0060658Y0162581D01*
X0060091Y0162014D01*
X0060091Y0160313D01*
X0060091Y0163996D02*
X0061792Y0163996D01*
X0062359Y0164563D01*
X0062359Y0166265D01*
X0062927Y0166265D02*
X0063494Y0165697D01*
X0063494Y0165130D01*
X0062927Y0166265D02*
X0060091Y0166265D01*
X0058957Y0171362D02*
X0058957Y0173064D01*
X0059524Y0173631D01*
X0061792Y0173631D01*
X0062359Y0173064D01*
X0062359Y0171362D01*
X0058957Y0171362D01*
X0058957Y0175045D02*
X0058957Y0176747D01*
X0059524Y0177314D01*
X0060091Y0177314D01*
X0060658Y0176747D01*
X0060658Y0175045D01*
X0062359Y0175045D02*
X0062359Y0176747D01*
X0061792Y0177314D01*
X0061225Y0177314D01*
X0060658Y0176747D01*
X0062359Y0175045D02*
X0058957Y0175045D01*
X0062359Y0111725D02*
X0060091Y0110590D01*
X0192358Y0160370D02*
X0192358Y0165274D01*
X0195628Y0165274D01*
X0197423Y0165274D02*
X0200692Y0165274D01*
X0199057Y0165274D02*
X0199057Y0160370D01*
X0202487Y0160370D02*
X0204939Y0160370D01*
X0205756Y0161187D01*
X0205756Y0164456D01*
X0204939Y0165274D01*
X0202487Y0165274D01*
X0202487Y0160370D01*
X0207551Y0160370D02*
X0209186Y0160370D01*
X0208369Y0160370D02*
X0208369Y0165274D01*
X0209186Y0165274D02*
X0207551Y0165274D01*
X0211827Y0165031D02*
X0211827Y0160031D01*
X0214327Y0157531D01*
X0219327Y0157531D01*
X0221827Y0160031D01*
X0224327Y0157531D01*
X0229327Y0157531D01*
X0231827Y0160031D01*
X0234327Y0157531D01*
X0239327Y0157531D01*
X0241827Y0160031D01*
X0244327Y0157531D01*
X0249327Y0157531D01*
X0251827Y0160031D01*
X0254327Y0157531D01*
X0259327Y0157531D01*
X0261827Y0160031D01*
X0264327Y0157531D01*
X0269327Y0157531D01*
X0271827Y0160031D01*
X0271827Y0165031D01*
X0269327Y0167531D01*
X0264327Y0167531D01*
X0261827Y0165031D01*
X0259327Y0167531D01*
X0254327Y0167531D01*
X0251827Y0165031D01*
X0249327Y0167531D01*
X0244327Y0167531D01*
X0241827Y0165031D01*
X0239327Y0167531D01*
X0234327Y0167531D01*
X0231827Y0165031D01*
X0229327Y0167531D01*
X0224327Y0167531D01*
X0221827Y0165031D01*
X0219327Y0167531D01*
X0214327Y0167531D01*
X0211827Y0165031D01*
X0193993Y0162822D02*
X0192358Y0162822D01*
X0233226Y0191769D02*
X0234294Y0192836D01*
X0237496Y0192836D01*
X0237496Y0193904D02*
X0237496Y0190701D01*
X0234294Y0190701D01*
X0233226Y0191769D01*
X0234294Y0194972D02*
X0236429Y0194972D01*
X0237496Y0193904D01*
X0239672Y0193904D02*
X0240739Y0194972D01*
X0243942Y0194972D01*
X0243942Y0197107D02*
X0243942Y0190701D01*
X0240739Y0190701D01*
X0239672Y0191769D01*
X0239672Y0193904D01*
X0246117Y0193904D02*
X0246117Y0191769D01*
X0247185Y0190701D01*
X0250387Y0190701D01*
X0250387Y0194972D02*
X0247185Y0194972D01*
X0246117Y0193904D01*
X0252549Y0186939D02*
X0250414Y0184804D01*
X0253617Y0184804D01*
X0254684Y0183736D01*
X0254684Y0182669D01*
X0253617Y0181601D01*
X0251482Y0181601D01*
X0250414Y0182669D01*
X0250414Y0184804D01*
X0252549Y0186939D02*
X0254684Y0188007D01*
X0259008Y0191769D02*
X0260076Y0190701D01*
X0263278Y0190701D01*
X0265454Y0190701D02*
X0265454Y0197107D01*
X0266521Y0194972D02*
X0268656Y0194972D01*
X0269724Y0193904D01*
X0269724Y0190701D01*
X0271899Y0191769D02*
X0272967Y0192836D01*
X0276169Y0192836D01*
X0276169Y0193904D02*
X0276169Y0190701D01*
X0272967Y0190701D01*
X0271899Y0191769D01*
X0272967Y0194972D02*
X0275102Y0194972D01*
X0276169Y0193904D01*
X0278345Y0194972D02*
X0281547Y0194972D01*
X0282615Y0193904D01*
X0282615Y0190701D01*
X0284790Y0190701D02*
X0284790Y0194972D01*
X0287993Y0194972D01*
X0289060Y0193904D01*
X0289060Y0190701D01*
X0291236Y0191769D02*
X0291236Y0193904D01*
X0292303Y0194972D01*
X0294438Y0194972D01*
X0295506Y0193904D01*
X0295506Y0192836D01*
X0291236Y0192836D01*
X0291236Y0191769D02*
X0292303Y0190701D01*
X0294438Y0190701D01*
X0297681Y0190701D02*
X0299816Y0190701D01*
X0298749Y0190701D02*
X0298749Y0197107D01*
X0297681Y0197107D01*
X0301978Y0193904D02*
X0303046Y0194972D01*
X0306248Y0194972D01*
X0305181Y0192836D02*
X0303046Y0192836D01*
X0301978Y0193904D01*
X0301978Y0190701D02*
X0305181Y0190701D01*
X0306248Y0191769D01*
X0305181Y0192836D01*
X0289060Y0186939D02*
X0289060Y0185872D01*
X0287993Y0184804D01*
X0285858Y0184804D01*
X0284790Y0185872D01*
X0284790Y0186939D01*
X0285858Y0188007D01*
X0287993Y0188007D01*
X0289060Y0186939D01*
X0287993Y0184804D02*
X0289060Y0183736D01*
X0289060Y0182669D01*
X0287993Y0181601D01*
X0285858Y0181601D01*
X0284790Y0182669D01*
X0284790Y0183736D01*
X0285858Y0184804D01*
X0276183Y0182669D02*
X0276183Y0181601D01*
X0275115Y0181601D01*
X0275115Y0182669D01*
X0276183Y0182669D01*
X0276183Y0181601D02*
X0274048Y0179466D01*
X0267602Y0181601D02*
X0267602Y0182669D01*
X0271872Y0186939D01*
X0271872Y0188007D01*
X0267602Y0188007D01*
X0259008Y0191769D02*
X0259008Y0193904D01*
X0260076Y0194972D01*
X0263278Y0194972D01*
X0265454Y0193904D02*
X0266521Y0194972D01*
X0278345Y0194972D02*
X0278345Y0190701D01*
X0258995Y0182669D02*
X0258995Y0181601D01*
X0257927Y0181601D01*
X0257927Y0182669D01*
X0258995Y0182669D01*
X0258995Y0181601D02*
X0256860Y0179466D01*
X0252327Y0202531D02*
X0241327Y0202531D01*
X0241267Y0202533D01*
X0241206Y0202538D01*
X0241147Y0202547D01*
X0241088Y0202560D01*
X0241029Y0202576D01*
X0240972Y0202596D01*
X0240917Y0202619D01*
X0240862Y0202646D01*
X0240810Y0202675D01*
X0240759Y0202708D01*
X0240710Y0202744D01*
X0240664Y0202782D01*
X0240620Y0202824D01*
X0240578Y0202868D01*
X0240540Y0202914D01*
X0240504Y0202963D01*
X0240471Y0203014D01*
X0240442Y0203066D01*
X0240415Y0203121D01*
X0240392Y0203176D01*
X0240372Y0203233D01*
X0240356Y0203292D01*
X0240343Y0203351D01*
X0240334Y0203410D01*
X0240329Y0203471D01*
X0240327Y0203531D01*
X0240327Y0209531D01*
X0240329Y0209591D01*
X0240334Y0209652D01*
X0240343Y0209711D01*
X0240356Y0209770D01*
X0240372Y0209829D01*
X0240392Y0209886D01*
X0240415Y0209941D01*
X0240442Y0209996D01*
X0240471Y0210048D01*
X0240504Y0210099D01*
X0240540Y0210148D01*
X0240578Y0210194D01*
X0240620Y0210238D01*
X0240664Y0210280D01*
X0240710Y0210318D01*
X0240759Y0210354D01*
X0240810Y0210387D01*
X0240862Y0210416D01*
X0240917Y0210443D01*
X0240972Y0210466D01*
X0241029Y0210486D01*
X0241088Y0210502D01*
X0241147Y0210515D01*
X0241206Y0210524D01*
X0241267Y0210529D01*
X0241327Y0210531D01*
X0252327Y0210531D01*
X0252387Y0210529D01*
X0252448Y0210524D01*
X0252507Y0210515D01*
X0252566Y0210502D01*
X0252625Y0210486D01*
X0252682Y0210466D01*
X0252737Y0210443D01*
X0252792Y0210416D01*
X0252844Y0210387D01*
X0252895Y0210354D01*
X0252944Y0210318D01*
X0252990Y0210280D01*
X0253034Y0210238D01*
X0253076Y0210194D01*
X0253114Y0210148D01*
X0253150Y0210099D01*
X0253183Y0210048D01*
X0253212Y0209996D01*
X0253239Y0209941D01*
X0253262Y0209886D01*
X0253282Y0209829D01*
X0253298Y0209770D01*
X0253311Y0209711D01*
X0253320Y0209652D01*
X0253325Y0209591D01*
X0253327Y0209531D01*
X0253327Y0203531D01*
X0253325Y0203471D01*
X0253320Y0203410D01*
X0253311Y0203351D01*
X0253298Y0203292D01*
X0253282Y0203233D01*
X0253262Y0203176D01*
X0253239Y0203121D01*
X0253212Y0203066D01*
X0253183Y0203014D01*
X0253150Y0202963D01*
X0253114Y0202914D01*
X0253076Y0202868D01*
X0253034Y0202824D01*
X0252990Y0202782D01*
X0252944Y0202744D01*
X0252895Y0202708D01*
X0252844Y0202675D01*
X0252792Y0202646D01*
X0252737Y0202619D01*
X0252682Y0202596D01*
X0252625Y0202576D01*
X0252566Y0202560D01*
X0252507Y0202547D01*
X0252448Y0202538D01*
X0252387Y0202533D01*
X0252327Y0202531D01*
X0260327Y0240531D02*
X0259827Y0241031D01*
X0233827Y0241031D01*
X0233327Y0240531D01*
X0230827Y0240531D01*
X0230767Y0240533D01*
X0230706Y0240538D01*
X0230647Y0240547D01*
X0230588Y0240560D01*
X0230529Y0240576D01*
X0230472Y0240596D01*
X0230417Y0240619D01*
X0230362Y0240646D01*
X0230310Y0240675D01*
X0230259Y0240708D01*
X0230210Y0240744D01*
X0230164Y0240782D01*
X0230120Y0240824D01*
X0230078Y0240868D01*
X0230040Y0240914D01*
X0230004Y0240963D01*
X0229971Y0241014D01*
X0229942Y0241066D01*
X0229915Y0241121D01*
X0229892Y0241176D01*
X0229872Y0241233D01*
X0229856Y0241292D01*
X0229843Y0241351D01*
X0229834Y0241410D01*
X0229829Y0241471D01*
X0229827Y0241531D01*
X0229827Y0251531D01*
X0229829Y0251591D01*
X0229834Y0251652D01*
X0229843Y0251711D01*
X0229856Y0251770D01*
X0229872Y0251829D01*
X0229892Y0251886D01*
X0229915Y0251941D01*
X0229942Y0251996D01*
X0229971Y0252048D01*
X0230004Y0252099D01*
X0230040Y0252148D01*
X0230078Y0252194D01*
X0230120Y0252238D01*
X0230164Y0252280D01*
X0230210Y0252318D01*
X0230259Y0252354D01*
X0230310Y0252387D01*
X0230362Y0252416D01*
X0230417Y0252443D01*
X0230472Y0252466D01*
X0230529Y0252486D01*
X0230588Y0252502D01*
X0230647Y0252515D01*
X0230706Y0252524D01*
X0230767Y0252529D01*
X0230827Y0252531D01*
X0233327Y0252531D01*
X0233827Y0252031D01*
X0259827Y0252031D01*
X0260327Y0252531D01*
X0262827Y0252531D01*
X0262887Y0252529D01*
X0262948Y0252524D01*
X0263007Y0252515D01*
X0263066Y0252502D01*
X0263125Y0252486D01*
X0263182Y0252466D01*
X0263237Y0252443D01*
X0263292Y0252416D01*
X0263344Y0252387D01*
X0263395Y0252354D01*
X0263444Y0252318D01*
X0263490Y0252280D01*
X0263534Y0252238D01*
X0263576Y0252194D01*
X0263614Y0252148D01*
X0263650Y0252099D01*
X0263683Y0252048D01*
X0263712Y0251996D01*
X0263739Y0251941D01*
X0263762Y0251886D01*
X0263782Y0251829D01*
X0263798Y0251770D01*
X0263811Y0251711D01*
X0263820Y0251652D01*
X0263825Y0251591D01*
X0263827Y0251531D01*
X0263827Y0241531D01*
X0263825Y0241471D01*
X0263820Y0241410D01*
X0263811Y0241351D01*
X0263798Y0241292D01*
X0263782Y0241233D01*
X0263762Y0241176D01*
X0263739Y0241121D01*
X0263712Y0241066D01*
X0263683Y0241014D01*
X0263650Y0240963D01*
X0263614Y0240914D01*
X0263576Y0240868D01*
X0263534Y0240824D01*
X0263490Y0240782D01*
X0263444Y0240744D01*
X0263395Y0240708D01*
X0263344Y0240675D01*
X0263292Y0240646D01*
X0263237Y0240619D01*
X0263182Y0240596D01*
X0263125Y0240576D01*
X0263066Y0240560D01*
X0263007Y0240547D01*
X0262948Y0240538D01*
X0262887Y0240533D01*
X0262827Y0240531D01*
X0260327Y0240531D01*
X0260334Y0254256D02*
X0262834Y0254256D01*
X0262894Y0254258D01*
X0262955Y0254263D01*
X0263014Y0254272D01*
X0263073Y0254285D01*
X0263132Y0254301D01*
X0263189Y0254321D01*
X0263244Y0254344D01*
X0263299Y0254371D01*
X0263351Y0254400D01*
X0263402Y0254433D01*
X0263451Y0254469D01*
X0263497Y0254507D01*
X0263541Y0254549D01*
X0263583Y0254593D01*
X0263621Y0254639D01*
X0263657Y0254688D01*
X0263690Y0254739D01*
X0263719Y0254791D01*
X0263746Y0254846D01*
X0263769Y0254901D01*
X0263789Y0254958D01*
X0263805Y0255017D01*
X0263818Y0255076D01*
X0263827Y0255135D01*
X0263832Y0255196D01*
X0263834Y0255256D01*
X0263834Y0265256D01*
X0263832Y0265316D01*
X0263827Y0265377D01*
X0263818Y0265436D01*
X0263805Y0265495D01*
X0263789Y0265554D01*
X0263769Y0265611D01*
X0263746Y0265666D01*
X0263719Y0265721D01*
X0263690Y0265773D01*
X0263657Y0265824D01*
X0263621Y0265873D01*
X0263583Y0265919D01*
X0263541Y0265963D01*
X0263497Y0266005D01*
X0263451Y0266043D01*
X0263402Y0266079D01*
X0263351Y0266112D01*
X0263299Y0266141D01*
X0263244Y0266168D01*
X0263189Y0266191D01*
X0263132Y0266211D01*
X0263073Y0266227D01*
X0263014Y0266240D01*
X0262955Y0266249D01*
X0262894Y0266254D01*
X0262834Y0266256D01*
X0260334Y0266256D01*
X0259834Y0265756D01*
X0233834Y0265756D01*
X0233334Y0266256D01*
X0230834Y0266256D01*
X0230774Y0266254D01*
X0230713Y0266249D01*
X0230654Y0266240D01*
X0230595Y0266227D01*
X0230536Y0266211D01*
X0230479Y0266191D01*
X0230424Y0266168D01*
X0230369Y0266141D01*
X0230317Y0266112D01*
X0230266Y0266079D01*
X0230217Y0266043D01*
X0230171Y0266005D01*
X0230127Y0265963D01*
X0230085Y0265919D01*
X0230047Y0265873D01*
X0230011Y0265824D01*
X0229978Y0265773D01*
X0229949Y0265721D01*
X0229922Y0265666D01*
X0229899Y0265611D01*
X0229879Y0265554D01*
X0229863Y0265495D01*
X0229850Y0265436D01*
X0229841Y0265377D01*
X0229836Y0265316D01*
X0229834Y0265256D01*
X0229834Y0255256D01*
X0229836Y0255196D01*
X0229841Y0255135D01*
X0229850Y0255076D01*
X0229863Y0255017D01*
X0229879Y0254958D01*
X0229899Y0254901D01*
X0229922Y0254846D01*
X0229949Y0254791D01*
X0229978Y0254739D01*
X0230011Y0254688D01*
X0230047Y0254639D01*
X0230085Y0254593D01*
X0230127Y0254549D01*
X0230171Y0254507D01*
X0230217Y0254469D01*
X0230266Y0254433D01*
X0230317Y0254400D01*
X0230369Y0254371D01*
X0230424Y0254344D01*
X0230479Y0254321D01*
X0230536Y0254301D01*
X0230595Y0254285D01*
X0230654Y0254272D01*
X0230713Y0254263D01*
X0230774Y0254258D01*
X0230834Y0254256D01*
X0233334Y0254256D01*
X0233834Y0254756D01*
X0259834Y0254756D01*
X0260334Y0254256D01*
X0304827Y0276531D02*
X0304829Y0276608D01*
X0304835Y0276685D01*
X0304845Y0276762D01*
X0304859Y0276838D01*
X0304876Y0276913D01*
X0304898Y0276987D01*
X0304923Y0277060D01*
X0304953Y0277132D01*
X0304985Y0277202D01*
X0305022Y0277270D01*
X0305061Y0277336D01*
X0305104Y0277400D01*
X0305151Y0277462D01*
X0305200Y0277521D01*
X0305253Y0277578D01*
X0305308Y0277632D01*
X0305366Y0277683D01*
X0305427Y0277731D01*
X0305490Y0277776D01*
X0305555Y0277817D01*
X0305622Y0277855D01*
X0305691Y0277890D01*
X0305762Y0277920D01*
X0305834Y0277948D01*
X0305908Y0277971D01*
X0305982Y0277991D01*
X0306058Y0278007D01*
X0306134Y0278019D01*
X0306211Y0278027D01*
X0306288Y0278031D01*
X0306366Y0278031D01*
X0306443Y0278027D01*
X0306520Y0278019D01*
X0306596Y0278007D01*
X0306672Y0277991D01*
X0306746Y0277971D01*
X0306820Y0277948D01*
X0306892Y0277920D01*
X0306963Y0277890D01*
X0307032Y0277855D01*
X0307099Y0277817D01*
X0307164Y0277776D01*
X0307227Y0277731D01*
X0307288Y0277683D01*
X0307346Y0277632D01*
X0307401Y0277578D01*
X0307454Y0277521D01*
X0307503Y0277462D01*
X0307550Y0277400D01*
X0307593Y0277336D01*
X0307632Y0277270D01*
X0307669Y0277202D01*
X0307701Y0277132D01*
X0307731Y0277060D01*
X0307756Y0276987D01*
X0307778Y0276913D01*
X0307795Y0276838D01*
X0307809Y0276762D01*
X0307819Y0276685D01*
X0307825Y0276608D01*
X0307827Y0276531D01*
X0307825Y0276454D01*
X0307819Y0276377D01*
X0307809Y0276300D01*
X0307795Y0276224D01*
X0307778Y0276149D01*
X0307756Y0276075D01*
X0307731Y0276002D01*
X0307701Y0275930D01*
X0307669Y0275860D01*
X0307632Y0275792D01*
X0307593Y0275726D01*
X0307550Y0275662D01*
X0307503Y0275600D01*
X0307454Y0275541D01*
X0307401Y0275484D01*
X0307346Y0275430D01*
X0307288Y0275379D01*
X0307227Y0275331D01*
X0307164Y0275286D01*
X0307099Y0275245D01*
X0307032Y0275207D01*
X0306963Y0275172D01*
X0306892Y0275142D01*
X0306820Y0275114D01*
X0306746Y0275091D01*
X0306672Y0275071D01*
X0306596Y0275055D01*
X0306520Y0275043D01*
X0306443Y0275035D01*
X0306366Y0275031D01*
X0306288Y0275031D01*
X0306211Y0275035D01*
X0306134Y0275043D01*
X0306058Y0275055D01*
X0305982Y0275071D01*
X0305908Y0275091D01*
X0305834Y0275114D01*
X0305762Y0275142D01*
X0305691Y0275172D01*
X0305622Y0275207D01*
X0305555Y0275245D01*
X0305490Y0275286D01*
X0305427Y0275331D01*
X0305366Y0275379D01*
X0305308Y0275430D01*
X0305253Y0275484D01*
X0305200Y0275541D01*
X0305151Y0275600D01*
X0305104Y0275662D01*
X0305061Y0275726D01*
X0305022Y0275792D01*
X0304985Y0275860D01*
X0304953Y0275930D01*
X0304923Y0276002D01*
X0304898Y0276075D01*
X0304876Y0276149D01*
X0304859Y0276224D01*
X0304845Y0276300D01*
X0304835Y0276377D01*
X0304829Y0276454D01*
X0304827Y0276531D01*
X0355266Y0268258D02*
X0356333Y0268258D01*
X0358469Y0268258D02*
X0362739Y0268258D01*
X0362739Y0269325D02*
X0362739Y0267190D01*
X0359536Y0265015D02*
X0360604Y0263947D01*
X0360604Y0260745D01*
X0362739Y0260745D02*
X0356333Y0260745D01*
X0356333Y0263947D01*
X0357401Y0265015D01*
X0359536Y0265015D01*
X0358469Y0267190D02*
X0358469Y0268258D01*
X0366833Y0267190D02*
X0372171Y0267190D01*
X0373239Y0268258D01*
X0373239Y0270393D01*
X0372171Y0271460D01*
X0366833Y0271460D01*
X0366833Y0273636D02*
X0373239Y0273636D01*
X0373239Y0277906D01*
X0373239Y0280081D02*
X0373239Y0284351D01*
X0370036Y0282216D02*
X0370036Y0280081D01*
X0366833Y0280081D02*
X0373239Y0280081D01*
X0366833Y0280081D02*
X0366833Y0284351D01*
X0367901Y0265015D02*
X0366833Y0263947D01*
X0366833Y0260745D01*
X0373239Y0260745D01*
X0373239Y0263947D01*
X0372171Y0265015D01*
X0367901Y0265015D01*
X0367901Y0258570D02*
X0366833Y0257502D01*
X0366833Y0255367D01*
X0367901Y0254299D01*
X0372171Y0254299D01*
X0373239Y0255367D01*
X0373239Y0257502D01*
X0372171Y0258570D01*
X0367901Y0258570D01*
X0362739Y0257502D02*
X0361671Y0258570D01*
X0357401Y0258570D01*
X0356333Y0257502D01*
X0356333Y0255367D01*
X0357401Y0254299D01*
X0358469Y0254299D01*
X0359536Y0255367D01*
X0359536Y0258570D01*
X0362739Y0257502D02*
X0362739Y0255367D01*
X0361671Y0254299D01*
X0361671Y0252124D02*
X0360604Y0252124D01*
X0359536Y0251056D01*
X0359536Y0247854D01*
X0361671Y0247854D01*
X0362739Y0248921D01*
X0362739Y0251056D01*
X0361671Y0252124D01*
X0357401Y0249989D02*
X0359536Y0247854D01*
X0357401Y0249989D02*
X0356333Y0252124D01*
X0366833Y0252124D02*
X0373239Y0252124D01*
X0368969Y0249989D02*
X0366833Y0252124D01*
X0368969Y0249989D02*
X0366833Y0247854D01*
X0373239Y0247854D01*
X0362739Y0245679D02*
X0356333Y0245679D01*
X0358469Y0243543D01*
X0356333Y0241408D01*
X0362739Y0241408D01*
X0366833Y0239233D02*
X0366833Y0234963D01*
X0373239Y0234963D01*
X0373239Y0232788D02*
X0371104Y0230652D01*
X0371104Y0231720D02*
X0371104Y0228517D01*
X0373239Y0228517D02*
X0366833Y0228517D01*
X0366833Y0231720D01*
X0367901Y0232788D01*
X0370036Y0232788D01*
X0371104Y0231720D01*
X0370036Y0234963D02*
X0370036Y0237098D01*
X0362739Y0234963D02*
X0356333Y0234963D01*
X0356333Y0239233D01*
X0359536Y0237098D02*
X0359536Y0234963D01*
X0359536Y0232788D02*
X0360604Y0231720D01*
X0360604Y0228517D01*
X0362739Y0228517D02*
X0356333Y0228517D01*
X0356333Y0231720D01*
X0357401Y0232788D01*
X0359536Y0232788D01*
X0360604Y0230652D02*
X0362739Y0232788D01*
X0364327Y0174531D02*
X0369327Y0174531D01*
X0371827Y0172031D01*
X0374327Y0174531D01*
X0379327Y0174531D01*
X0381827Y0172031D01*
X0384327Y0174531D01*
X0389327Y0174531D01*
X0391827Y0172031D01*
X0394327Y0174531D01*
X0399327Y0174531D01*
X0401827Y0172031D01*
X0404327Y0174531D01*
X0409327Y0174531D01*
X0411827Y0172031D01*
X0411827Y0167031D01*
X0409327Y0164531D01*
X0404327Y0164531D01*
X0401827Y0167031D01*
X0399327Y0164531D01*
X0394327Y0164531D01*
X0391827Y0167031D01*
X0389327Y0164531D01*
X0384327Y0164531D01*
X0381827Y0167031D01*
X0379327Y0164531D01*
X0374327Y0164531D01*
X0371827Y0167031D01*
X0369327Y0164531D01*
X0364327Y0164531D01*
X0361827Y0167031D01*
X0359327Y0164531D01*
X0354327Y0164531D01*
X0351827Y0167031D01*
X0351827Y0172031D01*
X0354327Y0174531D01*
X0359327Y0174531D01*
X0361827Y0172031D01*
X0364327Y0174531D01*
X0297327Y0084031D02*
X0295327Y0084031D01*
X0297327Y0084031D02*
X0297327Y0082031D01*
X0297327Y0077031D02*
X0297327Y0075031D01*
X0295327Y0075031D01*
X0290327Y0075031D02*
X0288327Y0075031D01*
X0288327Y0077031D01*
X0288327Y0082031D02*
X0288327Y0084031D01*
X0290327Y0084031D01*
X0117426Y0287096D02*
X0117426Y0290096D01*
X0115926Y0288596D02*
X0118926Y0288596D01*
X0121126Y0296096D02*
X0130926Y0296096D01*
X0144426Y0309596D01*
X0134157Y0311592D02*
X0134157Y0313727D01*
X0133089Y0314795D01*
X0132022Y0314795D01*
X0130954Y0313727D01*
X0130954Y0311592D01*
X0129886Y0310524D01*
X0128819Y0310524D01*
X0127751Y0311592D01*
X0127751Y0313727D01*
X0128819Y0314795D01*
X0129886Y0314795D01*
X0130954Y0313727D01*
X0130954Y0311592D02*
X0132022Y0310524D01*
X0133089Y0310524D01*
X0134157Y0311592D01*
X0133089Y0316970D02*
X0128819Y0321240D01*
X0133089Y0321240D01*
X0134157Y0320172D01*
X0134157Y0318037D01*
X0133089Y0316970D01*
X0128819Y0316970D01*
X0127751Y0318037D01*
X0127751Y0320172D01*
X0128819Y0321240D01*
X0127751Y0323415D02*
X0132022Y0323415D01*
X0134157Y0325550D01*
X0132022Y0327686D01*
X0127751Y0327686D01*
X0105141Y0327996D02*
X0105141Y0325861D01*
X0104073Y0324793D01*
X0099803Y0329063D01*
X0104073Y0329063D01*
X0105141Y0327996D01*
X0104073Y0324793D02*
X0099803Y0324793D01*
X0098735Y0325861D01*
X0098735Y0327996D01*
X0099803Y0329063D01*
X0100871Y0331239D02*
X0104073Y0331239D01*
X0105141Y0332306D01*
X0105141Y0335509D01*
X0100871Y0335509D01*
X0101938Y0337684D02*
X0101938Y0339819D01*
X0098735Y0337684D02*
X0098735Y0341954D01*
X0098735Y0337684D02*
X0105141Y0337684D01*
X0113726Y0350096D02*
X0090426Y0350096D01*
X0090426Y0296096D01*
X0113726Y0296096D01*
X0103926Y0296096D02*
X0090426Y0309596D01*
X0098735Y0314037D02*
X0105141Y0314037D01*
X0105141Y0311902D02*
X0105141Y0316173D01*
X0104073Y0318348D02*
X0099803Y0322618D01*
X0104073Y0322618D01*
X0105141Y0321550D01*
X0105141Y0319415D01*
X0104073Y0318348D01*
X0099803Y0318348D01*
X0098735Y0319415D01*
X0098735Y0321550D01*
X0099803Y0322618D01*
X0098735Y0314037D02*
X0100871Y0311902D01*
X0130926Y0296096D02*
X0144426Y0296096D01*
X0144426Y0350096D01*
X0121126Y0350096D01*
X0197102Y0345490D02*
X0198702Y0345490D01*
X0198702Y0341490D02*
X0197102Y0341490D01*
X0197102Y0338690D02*
X0198702Y0338690D01*
X0198702Y0334890D02*
X0197102Y0334890D01*
X0197102Y0332090D02*
X0198702Y0332090D01*
X0198702Y0328090D02*
X0197102Y0328090D01*
X0197102Y0325290D02*
X0198702Y0325290D01*
X0198702Y0321490D02*
X0197102Y0321490D01*
X0197102Y0318690D02*
X0198702Y0318690D01*
X0198702Y0314690D02*
X0197102Y0314690D01*
X0222599Y0314674D02*
X0223666Y0315741D01*
X0225802Y0315741D01*
X0226869Y0314674D01*
X0226869Y0313606D01*
X0225802Y0312539D01*
X0226869Y0311471D01*
X0226869Y0310404D01*
X0225802Y0309336D01*
X0223666Y0309336D01*
X0222599Y0310404D01*
X0224734Y0312539D02*
X0225802Y0312539D01*
X0229044Y0314674D02*
X0230112Y0315741D01*
X0232247Y0315741D01*
X0233315Y0314674D01*
X0233315Y0313606D01*
X0232247Y0312539D01*
X0233315Y0311471D01*
X0233315Y0310404D01*
X0232247Y0309336D01*
X0230112Y0309336D01*
X0229044Y0310404D01*
X0231179Y0312539D02*
X0232247Y0312539D01*
X0235490Y0314674D02*
X0236557Y0315741D01*
X0238693Y0315741D01*
X0239760Y0314674D01*
X0235490Y0310404D01*
X0236557Y0309336D01*
X0238693Y0309336D01*
X0239760Y0310404D01*
X0239760Y0314674D01*
X0241935Y0313606D02*
X0241935Y0310404D01*
X0243003Y0309336D01*
X0246206Y0309336D01*
X0246206Y0313606D01*
X0248381Y0312539D02*
X0252651Y0312539D01*
X0252651Y0315741D02*
X0252651Y0309336D01*
X0248381Y0309336D02*
X0248381Y0315741D01*
X0257127Y0323931D02*
X0260127Y0323931D01*
X0258627Y0325431D02*
X0258627Y0322431D01*
X0266627Y0320431D02*
X0266627Y0315531D01*
X0274927Y0307231D01*
X0274663Y0311258D02*
X0278933Y0311258D01*
X0276798Y0311258D02*
X0276798Y0317664D01*
X0274663Y0315529D01*
X0281108Y0314461D02*
X0281108Y0312326D01*
X0282176Y0311258D01*
X0284311Y0311258D01*
X0285379Y0312326D01*
X0285379Y0313394D01*
X0284311Y0314461D01*
X0281108Y0314461D01*
X0283243Y0316596D01*
X0285379Y0317664D01*
X0287554Y0317664D02*
X0287554Y0313394D01*
X0289689Y0311258D01*
X0291824Y0313394D01*
X0291824Y0317664D01*
X0300027Y0320431D02*
X0300027Y0307231D01*
X0266627Y0307231D01*
X0266627Y0315531D01*
X0266627Y0327431D02*
X0266627Y0340631D01*
X0300027Y0340631D01*
X0300027Y0327431D01*
X0296412Y0330663D02*
X0296412Y0337069D01*
X0300683Y0337069D01*
X0298548Y0333866D02*
X0296412Y0333866D01*
X0294237Y0334934D02*
X0294237Y0330663D01*
X0291035Y0330663D01*
X0289967Y0331731D01*
X0289967Y0334934D01*
X0287792Y0336001D02*
X0283521Y0331731D01*
X0284589Y0330663D01*
X0286724Y0330663D01*
X0287792Y0331731D01*
X0287792Y0336001D01*
X0286724Y0337069D01*
X0284589Y0337069D01*
X0283521Y0336001D01*
X0283521Y0331731D01*
X0281346Y0336001D02*
X0277076Y0331731D01*
X0277076Y0330663D01*
X0273833Y0330663D02*
X0273833Y0337069D01*
X0270630Y0333866D01*
X0274901Y0333866D01*
X0277076Y0337069D02*
X0281346Y0337069D01*
X0281346Y0336001D01*
X0274927Y0340631D02*
X0266627Y0332331D01*
X0247794Y0340831D02*
X0243524Y0340831D01*
X0245659Y0340831D02*
X0245659Y0347237D01*
X0243524Y0345102D01*
X0241362Y0347237D02*
X0239227Y0347237D01*
X0240294Y0347237D02*
X0240294Y0340831D01*
X0239227Y0340831D02*
X0241362Y0340831D01*
X0264467Y0348421D02*
X0265034Y0347854D01*
X0266168Y0347854D01*
X0266736Y0348421D01*
X0266736Y0349556D01*
X0266168Y0350123D01*
X0265601Y0350123D01*
X0264467Y0349556D01*
X0264467Y0351257D01*
X0266736Y0351257D01*
X0268150Y0348421D02*
X0268717Y0348421D01*
X0268717Y0347854D01*
X0268150Y0347854D01*
X0268150Y0348421D01*
X0269992Y0348421D02*
X0272260Y0350690D01*
X0272260Y0348421D01*
X0271693Y0347854D01*
X0270559Y0347854D01*
X0269992Y0348421D01*
X0269992Y0350690D01*
X0270559Y0351257D01*
X0271693Y0351257D01*
X0272260Y0350690D01*
X0273675Y0351257D02*
X0273675Y0348988D01*
X0274809Y0347854D01*
X0275943Y0348988D01*
X0275943Y0351257D01*
X0305323Y0349644D02*
X0307591Y0349644D01*
X0307024Y0351345D02*
X0305323Y0349644D01*
X0307024Y0351345D02*
X0307024Y0347942D01*
X0309006Y0347942D02*
X0309573Y0347942D01*
X0309573Y0348509D01*
X0309006Y0348509D01*
X0309006Y0347942D01*
X0310848Y0347942D02*
X0310848Y0348509D01*
X0313116Y0350778D01*
X0313116Y0351345D01*
X0310848Y0351345D01*
X0314531Y0351345D02*
X0314531Y0349076D01*
X0315665Y0347942D01*
X0316799Y0349076D01*
X0316799Y0351345D01*
X0330839Y0331338D02*
X0355437Y0331338D01*
X0355437Y0317716D01*
X0330839Y0317716D01*
X0330839Y0331338D01*
X0251457Y0301417D02*
X0251457Y0299148D01*
X0250322Y0298014D01*
X0249188Y0299148D01*
X0249188Y0301417D01*
X0247773Y0301417D02*
X0247773Y0300850D01*
X0245505Y0298581D01*
X0245505Y0298014D01*
X0244230Y0298014D02*
X0243663Y0298014D01*
X0243663Y0298581D01*
X0244230Y0298581D01*
X0244230Y0298014D01*
X0241682Y0298014D02*
X0241682Y0301417D01*
X0239980Y0299715D01*
X0242249Y0299715D01*
X0245505Y0301417D02*
X0247773Y0301417D01*
X0235490Y0310404D02*
X0235490Y0314674D01*
D11*
X0144211Y0262839D02*
X0144211Y0253631D01*
X0135003Y0253631D02*
X0135003Y0262839D01*
X0139607Y0267443D01*
X0144211Y0262839D01*
X0144211Y0260537D02*
X0135003Y0260537D01*
X0074469Y0301713D02*
X0072868Y0303315D01*
X0073669Y0303315D02*
X0071267Y0303315D01*
X0071267Y0301713D02*
X0071267Y0306517D01*
X0073669Y0306517D01*
X0074469Y0305717D01*
X0074469Y0304115D01*
X0073669Y0303315D01*
X0068945Y0301713D02*
X0068945Y0306517D01*
X0065742Y0306517D02*
X0065742Y0301713D01*
X0067343Y0303315D01*
X0068945Y0301713D01*
X0063420Y0304115D02*
X0062619Y0303315D01*
X0060217Y0303315D01*
X0060217Y0301713D02*
X0060217Y0306517D01*
X0062619Y0306517D01*
X0063420Y0305717D01*
X0063420Y0304115D01*
X0228028Y0216905D02*
X0228028Y0212101D01*
X0231231Y0212101D01*
X0233553Y0212902D02*
X0234354Y0212101D01*
X0235955Y0212101D01*
X0236756Y0212902D01*
X0236756Y0213702D01*
X0235955Y0214503D01*
X0234354Y0214503D01*
X0233553Y0215304D01*
X0233553Y0216104D01*
X0234354Y0216905D01*
X0235955Y0216905D01*
X0236756Y0216104D01*
X0239078Y0216905D02*
X0241480Y0216905D01*
X0242281Y0216104D01*
X0242281Y0214503D01*
X0241480Y0213702D01*
X0239078Y0213702D01*
X0239078Y0212101D02*
X0239078Y0216905D01*
X0244603Y0214503D02*
X0247805Y0214503D01*
X0250127Y0213702D02*
X0252529Y0213702D01*
X0253330Y0214503D01*
X0253330Y0216104D01*
X0252529Y0216905D01*
X0250127Y0216905D01*
X0250127Y0212101D01*
X0255652Y0212101D02*
X0255652Y0216905D01*
X0258855Y0216905D02*
X0258855Y0212101D01*
X0257253Y0213702D01*
X0255652Y0212101D01*
X0261177Y0212101D02*
X0261177Y0216905D01*
X0263579Y0216905D01*
X0264379Y0216104D01*
X0264379Y0214503D01*
X0263579Y0213702D01*
X0261177Y0213702D01*
X0262778Y0213702D02*
X0264379Y0212101D01*
X0231231Y0216905D02*
X0228028Y0216905D01*
X0228028Y0214503D02*
X0229630Y0214503D01*
X0144410Y0209141D02*
X0144410Y0206839D01*
X0142108Y0204537D01*
X0135203Y0204537D01*
X0142108Y0204537D02*
X0144410Y0202235D01*
X0144410Y0199933D01*
X0142108Y0197631D01*
X0135203Y0197631D01*
X0135203Y0211443D01*
X0142108Y0211443D01*
X0144410Y0209141D01*
X0043782Y0176041D02*
X0043782Y0173772D01*
X0042648Y0172638D01*
X0040379Y0172638D01*
X0039245Y0173772D01*
X0039245Y0176041D01*
X0040379Y0177175D01*
X0042648Y0177175D01*
X0043782Y0176041D01*
X0043782Y0169809D02*
X0039245Y0169809D01*
X0043782Y0169809D02*
X0043782Y0166406D01*
X0042648Y0165272D01*
X0039245Y0165272D01*
X0039245Y0162443D02*
X0039245Y0159040D01*
X0040379Y0157905D01*
X0042648Y0157905D01*
X0043782Y0159040D01*
X0043782Y0162443D01*
X0036976Y0162443D01*
X0038110Y0155076D02*
X0036976Y0153942D01*
X0036976Y0151673D01*
X0038110Y0150539D01*
X0042648Y0150539D01*
X0043782Y0151673D01*
X0043782Y0153942D01*
X0042648Y0155076D01*
X0042648Y0147710D02*
X0038110Y0147710D01*
X0036976Y0146576D01*
X0036976Y0143173D01*
X0043782Y0143173D01*
X0043782Y0146576D01*
X0042648Y0147710D01*
X0043782Y0140344D02*
X0040379Y0140344D01*
X0039245Y0139209D01*
X0039245Y0135807D01*
X0043782Y0135807D01*
X0042648Y0132977D02*
X0040379Y0132977D01*
X0039245Y0131843D01*
X0039245Y0129575D01*
X0040379Y0128440D01*
X0042648Y0128440D01*
X0043782Y0129575D01*
X0043782Y0131843D01*
X0042648Y0132977D01*
X0043782Y0125611D02*
X0040379Y0125611D01*
X0039245Y0124477D01*
X0040379Y0123343D01*
X0043782Y0123343D01*
X0043782Y0121074D02*
X0039245Y0121074D01*
X0039245Y0122208D01*
X0040379Y0123343D01*
X0040379Y0118245D02*
X0041513Y0118245D01*
X0041513Y0113708D01*
X0040379Y0113708D02*
X0039245Y0114842D01*
X0039245Y0117111D01*
X0040379Y0118245D01*
X0043782Y0117111D02*
X0043782Y0114842D01*
X0042648Y0113708D01*
X0040379Y0113708D01*
D12*
X0085257Y0108852D02*
X0085257Y0068341D01*
X0132367Y0068341D01*
X0132364Y0068339D02*
X0132364Y0108852D01*
X0085257Y0108852D01*
X0055504Y0113568D02*
X0052502Y0113568D01*
X0053502Y0114569D01*
X0052502Y0115570D01*
X0055504Y0115570D01*
X0055004Y0116791D02*
X0055504Y0117291D01*
X0055504Y0118292D01*
X0055004Y0118793D01*
X0054003Y0118793D01*
X0053502Y0118292D01*
X0053502Y0117291D01*
X0054003Y0116791D01*
X0055004Y0116791D01*
X0055504Y0120014D02*
X0053502Y0120014D01*
X0053502Y0121515D01*
X0054003Y0122015D01*
X0055504Y0122015D01*
X0055504Y0123237D02*
X0055504Y0124237D01*
X0055504Y0123737D02*
X0053502Y0123737D01*
X0053502Y0123237D01*
X0052502Y0123737D02*
X0052001Y0123737D01*
X0050254Y0123126D02*
X0050254Y0122126D01*
X0049754Y0121625D01*
X0048753Y0121625D01*
X0048252Y0122126D01*
X0048252Y0123126D01*
X0048753Y0123627D01*
X0049253Y0123627D01*
X0049253Y0121625D01*
X0048252Y0120441D02*
X0048252Y0119940D01*
X0049253Y0118940D01*
X0050254Y0118940D02*
X0048252Y0118940D01*
X0048252Y0117291D02*
X0050254Y0117291D01*
X0050254Y0116791D02*
X0050254Y0117792D01*
X0048252Y0117291D02*
X0048252Y0116791D01*
X0047252Y0117291D02*
X0046751Y0117291D01*
X0047252Y0115570D02*
X0050254Y0115570D01*
X0049253Y0114569D01*
X0050254Y0113568D01*
X0047252Y0113568D01*
X0047252Y0124848D02*
X0047252Y0125348D01*
X0050254Y0125348D01*
X0050254Y0124848D02*
X0050254Y0125849D01*
X0049754Y0126996D02*
X0048753Y0126996D01*
X0048252Y0127497D01*
X0048252Y0128498D01*
X0048753Y0128998D01*
X0049253Y0128998D01*
X0049253Y0126996D01*
X0049754Y0126996D02*
X0050254Y0127497D01*
X0050254Y0128498D01*
X0050254Y0130219D02*
X0050254Y0131720D01*
X0049754Y0132221D01*
X0049253Y0131720D01*
X0049253Y0130720D01*
X0048753Y0130219D01*
X0048252Y0130720D01*
X0048252Y0132221D01*
X0048753Y0133442D02*
X0048252Y0133942D01*
X0048252Y0135444D01*
X0049253Y0134943D02*
X0049253Y0133942D01*
X0048753Y0133442D01*
X0050254Y0133442D02*
X0050254Y0134943D01*
X0049754Y0135444D01*
X0049253Y0134943D01*
X0052001Y0133942D02*
X0052502Y0133942D01*
X0053502Y0133942D02*
X0055504Y0133942D01*
X0055504Y0133442D02*
X0055504Y0134443D01*
X0055504Y0135590D02*
X0053502Y0135590D01*
X0053502Y0137092D01*
X0054003Y0137592D01*
X0055504Y0137592D01*
X0055004Y0138813D02*
X0055504Y0139314D01*
X0055504Y0140815D01*
X0056005Y0140815D02*
X0053502Y0140815D01*
X0053502Y0139314D01*
X0054003Y0138813D01*
X0055004Y0138813D01*
X0056505Y0139814D02*
X0056505Y0140314D01*
X0056005Y0140815D01*
X0055504Y0145259D02*
X0052502Y0145259D01*
X0055504Y0147260D01*
X0052502Y0147260D01*
X0054003Y0148481D02*
X0055004Y0148481D01*
X0055504Y0148982D01*
X0055504Y0149983D01*
X0055004Y0150483D01*
X0054003Y0150483D01*
X0053502Y0149983D01*
X0053502Y0148982D01*
X0054003Y0148481D01*
X0054003Y0151704D02*
X0053502Y0152205D01*
X0053502Y0153706D01*
X0052502Y0153706D02*
X0055504Y0153706D01*
X0055504Y0152205D01*
X0055004Y0151704D01*
X0054003Y0151704D01*
X0051255Y0153242D02*
X0051255Y0153743D01*
X0050755Y0154243D01*
X0048252Y0154243D01*
X0048252Y0152742D01*
X0048753Y0152241D01*
X0049754Y0152241D01*
X0050254Y0152742D01*
X0050254Y0154243D01*
X0049754Y0155464D02*
X0050254Y0155964D01*
X0050254Y0157466D01*
X0050755Y0157466D02*
X0051255Y0156965D01*
X0051255Y0156465D01*
X0050755Y0157466D02*
X0048252Y0157466D01*
X0048252Y0155464D02*
X0049754Y0155464D01*
X0053502Y0155427D02*
X0053502Y0156428D01*
X0054003Y0156929D01*
X0054503Y0156929D01*
X0054503Y0154927D01*
X0054003Y0154927D02*
X0053502Y0155427D01*
X0054003Y0154927D02*
X0055004Y0154927D01*
X0055504Y0155427D01*
X0055504Y0156428D01*
X0050254Y0149556D02*
X0048252Y0149556D01*
X0048252Y0150556D02*
X0048252Y0151057D01*
X0048252Y0150556D02*
X0049253Y0149556D01*
X0049253Y0148335D02*
X0049253Y0146333D01*
X0048753Y0146333D02*
X0048252Y0146833D01*
X0048252Y0147834D01*
X0048753Y0148335D01*
X0049253Y0148335D01*
X0050254Y0147834D02*
X0050254Y0146833D01*
X0049754Y0146333D01*
X0048753Y0146333D01*
X0048753Y0145112D02*
X0050254Y0145112D01*
X0048753Y0145112D02*
X0048252Y0144611D01*
X0048252Y0143110D01*
X0050254Y0143110D01*
X0050254Y0141889D02*
X0050254Y0139887D01*
X0047252Y0139887D01*
X0047252Y0141889D01*
X0048753Y0140888D02*
X0048753Y0139887D01*
X0053502Y0133942D02*
X0053502Y0133442D01*
X0053502Y0132258D02*
X0053502Y0131757D01*
X0054503Y0130756D01*
X0055504Y0130756D02*
X0053502Y0130756D01*
X0054003Y0129535D02*
X0053502Y0129035D01*
X0053502Y0128034D01*
X0054003Y0127534D01*
X0055004Y0127534D01*
X0055504Y0128034D01*
X0055504Y0129035D01*
X0055004Y0129535D01*
X0054003Y0129535D01*
X0053502Y0126386D02*
X0053502Y0125385D01*
X0053002Y0125885D02*
X0055004Y0125885D01*
X0055504Y0126386D01*
X0164979Y0142802D02*
X0189389Y0142802D01*
X0189389Y0167212D01*
X0164979Y0167212D01*
X0164979Y0142802D01*
X0165767Y0149889D02*
X0165767Y0160125D01*
X0171278Y0155007D02*
X0171280Y0155160D01*
X0171286Y0155314D01*
X0171296Y0155467D01*
X0171310Y0155619D01*
X0171328Y0155772D01*
X0171350Y0155923D01*
X0171375Y0156074D01*
X0171405Y0156225D01*
X0171439Y0156375D01*
X0171476Y0156523D01*
X0171517Y0156671D01*
X0171562Y0156817D01*
X0171611Y0156963D01*
X0171664Y0157107D01*
X0171720Y0157249D01*
X0171780Y0157390D01*
X0171844Y0157530D01*
X0171911Y0157668D01*
X0171982Y0157804D01*
X0172057Y0157938D01*
X0172134Y0158070D01*
X0172216Y0158200D01*
X0172300Y0158328D01*
X0172388Y0158454D01*
X0172479Y0158577D01*
X0172573Y0158698D01*
X0172671Y0158816D01*
X0172771Y0158932D01*
X0172875Y0159045D01*
X0172981Y0159156D01*
X0173090Y0159264D01*
X0173202Y0159369D01*
X0173316Y0159470D01*
X0173434Y0159569D01*
X0173553Y0159665D01*
X0173675Y0159758D01*
X0173800Y0159847D01*
X0173927Y0159934D01*
X0174056Y0160016D01*
X0174187Y0160096D01*
X0174320Y0160172D01*
X0174455Y0160245D01*
X0174592Y0160314D01*
X0174731Y0160379D01*
X0174871Y0160441D01*
X0175013Y0160499D01*
X0175156Y0160554D01*
X0175301Y0160605D01*
X0175447Y0160652D01*
X0175594Y0160695D01*
X0175742Y0160734D01*
X0175891Y0160770D01*
X0176041Y0160801D01*
X0176192Y0160829D01*
X0176343Y0160853D01*
X0176496Y0160873D01*
X0176648Y0160889D01*
X0176801Y0160901D01*
X0176954Y0160909D01*
X0177107Y0160913D01*
X0177261Y0160913D01*
X0177414Y0160909D01*
X0177567Y0160901D01*
X0177720Y0160889D01*
X0177872Y0160873D01*
X0178025Y0160853D01*
X0178176Y0160829D01*
X0178327Y0160801D01*
X0178477Y0160770D01*
X0178626Y0160734D01*
X0178774Y0160695D01*
X0178921Y0160652D01*
X0179067Y0160605D01*
X0179212Y0160554D01*
X0179355Y0160499D01*
X0179497Y0160441D01*
X0179637Y0160379D01*
X0179776Y0160314D01*
X0179913Y0160245D01*
X0180048Y0160172D01*
X0180181Y0160096D01*
X0180312Y0160016D01*
X0180441Y0159934D01*
X0180568Y0159847D01*
X0180693Y0159758D01*
X0180815Y0159665D01*
X0180934Y0159569D01*
X0181052Y0159470D01*
X0181166Y0159369D01*
X0181278Y0159264D01*
X0181387Y0159156D01*
X0181493Y0159045D01*
X0181597Y0158932D01*
X0181697Y0158816D01*
X0181795Y0158698D01*
X0181889Y0158577D01*
X0181980Y0158454D01*
X0182068Y0158328D01*
X0182152Y0158200D01*
X0182234Y0158070D01*
X0182311Y0157938D01*
X0182386Y0157804D01*
X0182457Y0157668D01*
X0182524Y0157530D01*
X0182588Y0157390D01*
X0182648Y0157249D01*
X0182704Y0157107D01*
X0182757Y0156963D01*
X0182806Y0156817D01*
X0182851Y0156671D01*
X0182892Y0156523D01*
X0182929Y0156375D01*
X0182963Y0156225D01*
X0182993Y0156074D01*
X0183018Y0155923D01*
X0183040Y0155772D01*
X0183058Y0155619D01*
X0183072Y0155467D01*
X0183082Y0155314D01*
X0183088Y0155160D01*
X0183090Y0155007D01*
X0183088Y0154854D01*
X0183082Y0154700D01*
X0183072Y0154547D01*
X0183058Y0154395D01*
X0183040Y0154242D01*
X0183018Y0154091D01*
X0182993Y0153940D01*
X0182963Y0153789D01*
X0182929Y0153639D01*
X0182892Y0153491D01*
X0182851Y0153343D01*
X0182806Y0153197D01*
X0182757Y0153051D01*
X0182704Y0152907D01*
X0182648Y0152765D01*
X0182588Y0152624D01*
X0182524Y0152484D01*
X0182457Y0152346D01*
X0182386Y0152210D01*
X0182311Y0152076D01*
X0182234Y0151944D01*
X0182152Y0151814D01*
X0182068Y0151686D01*
X0181980Y0151560D01*
X0181889Y0151437D01*
X0181795Y0151316D01*
X0181697Y0151198D01*
X0181597Y0151082D01*
X0181493Y0150969D01*
X0181387Y0150858D01*
X0181278Y0150750D01*
X0181166Y0150645D01*
X0181052Y0150544D01*
X0180934Y0150445D01*
X0180815Y0150349D01*
X0180693Y0150256D01*
X0180568Y0150167D01*
X0180441Y0150080D01*
X0180312Y0149998D01*
X0180181Y0149918D01*
X0180048Y0149842D01*
X0179913Y0149769D01*
X0179776Y0149700D01*
X0179637Y0149635D01*
X0179497Y0149573D01*
X0179355Y0149515D01*
X0179212Y0149460D01*
X0179067Y0149409D01*
X0178921Y0149362D01*
X0178774Y0149319D01*
X0178626Y0149280D01*
X0178477Y0149244D01*
X0178327Y0149213D01*
X0178176Y0149185D01*
X0178025Y0149161D01*
X0177872Y0149141D01*
X0177720Y0149125D01*
X0177567Y0149113D01*
X0177414Y0149105D01*
X0177261Y0149101D01*
X0177107Y0149101D01*
X0176954Y0149105D01*
X0176801Y0149113D01*
X0176648Y0149125D01*
X0176496Y0149141D01*
X0176343Y0149161D01*
X0176192Y0149185D01*
X0176041Y0149213D01*
X0175891Y0149244D01*
X0175742Y0149280D01*
X0175594Y0149319D01*
X0175447Y0149362D01*
X0175301Y0149409D01*
X0175156Y0149460D01*
X0175013Y0149515D01*
X0174871Y0149573D01*
X0174731Y0149635D01*
X0174592Y0149700D01*
X0174455Y0149769D01*
X0174320Y0149842D01*
X0174187Y0149918D01*
X0174056Y0149998D01*
X0173927Y0150080D01*
X0173800Y0150167D01*
X0173675Y0150256D01*
X0173553Y0150349D01*
X0173434Y0150445D01*
X0173316Y0150544D01*
X0173202Y0150645D01*
X0173090Y0150750D01*
X0172981Y0150858D01*
X0172875Y0150969D01*
X0172771Y0151082D01*
X0172671Y0151198D01*
X0172573Y0151316D01*
X0172479Y0151437D01*
X0172388Y0151560D01*
X0172300Y0151686D01*
X0172216Y0151814D01*
X0172134Y0151944D01*
X0172057Y0152076D01*
X0171982Y0152210D01*
X0171911Y0152346D01*
X0171844Y0152484D01*
X0171780Y0152624D01*
X0171720Y0152765D01*
X0171664Y0152907D01*
X0171611Y0153051D01*
X0171562Y0153197D01*
X0171517Y0153343D01*
X0171476Y0153491D01*
X0171439Y0153639D01*
X0171405Y0153789D01*
X0171375Y0153940D01*
X0171350Y0154091D01*
X0171328Y0154242D01*
X0171310Y0154395D01*
X0171296Y0154547D01*
X0171286Y0154700D01*
X0171280Y0154854D01*
X0171278Y0155007D01*
X0188601Y0149889D02*
X0188601Y0160125D01*
X0210047Y0153531D02*
X0210047Y0058649D01*
X0273827Y0058649D01*
X0273827Y0153531D01*
X0210047Y0153531D01*
X0233803Y0170602D02*
X0234303Y0170102D01*
X0235304Y0170102D01*
X0235805Y0170602D01*
X0235805Y0171603D01*
X0235304Y0172103D01*
X0234804Y0172103D01*
X0233803Y0171603D01*
X0233803Y0173104D01*
X0235805Y0173104D01*
X0237026Y0173104D02*
X0237026Y0171102D01*
X0238026Y0170102D01*
X0239027Y0171102D01*
X0239027Y0173104D01*
X0243811Y0173065D02*
X0245813Y0173065D01*
X0244812Y0173065D02*
X0244812Y0170062D01*
X0247034Y0170062D02*
X0249035Y0172064D01*
X0247034Y0172064D02*
X0249035Y0170062D01*
X0253816Y0170028D02*
X0253816Y0173030D01*
X0255317Y0173030D01*
X0255817Y0172530D01*
X0255817Y0171529D01*
X0255317Y0171029D01*
X0253816Y0171029D01*
X0254817Y0171029D02*
X0255817Y0170028D01*
X0257038Y0170028D02*
X0259040Y0172029D01*
X0259040Y0170028D02*
X0257038Y0172029D01*
X0262211Y0171074D02*
X0263712Y0171074D01*
X0264213Y0171574D01*
X0264213Y0172575D01*
X0263712Y0173076D01*
X0262211Y0173076D01*
X0262211Y0170073D01*
X0263212Y0171074D02*
X0264213Y0170073D01*
X0265434Y0170574D02*
X0265934Y0170073D01*
X0266935Y0170073D01*
X0267435Y0170574D01*
X0267435Y0171074D01*
X0266935Y0171574D01*
X0265934Y0171574D01*
X0265434Y0172075D01*
X0265434Y0172575D01*
X0265934Y0173076D01*
X0266935Y0173076D01*
X0267435Y0172575D01*
X0268656Y0173076D02*
X0270658Y0173076D01*
X0269657Y0173076D02*
X0269657Y0170073D01*
X0288613Y0147033D02*
X0288113Y0146532D01*
X0288113Y0144530D01*
X0288613Y0144030D01*
X0289614Y0144030D01*
X0290114Y0144530D01*
X0290114Y0145531D01*
X0289113Y0145531D01*
X0290114Y0146532D02*
X0289614Y0147033D01*
X0288613Y0147033D01*
X0291335Y0147033D02*
X0293337Y0144030D01*
X0293337Y0147033D01*
X0294558Y0147033D02*
X0296059Y0147033D01*
X0296560Y0146532D01*
X0296560Y0144530D01*
X0296059Y0144030D01*
X0294558Y0144030D01*
X0294558Y0147033D01*
X0291335Y0147033D02*
X0291335Y0144030D01*
X0300005Y0144072D02*
X0302006Y0144072D01*
X0301005Y0144072D02*
X0301005Y0147075D01*
X0300005Y0146074D01*
X0303227Y0145573D02*
X0304729Y0145573D01*
X0305229Y0145073D01*
X0305229Y0144572D01*
X0304729Y0144072D01*
X0303728Y0144072D01*
X0303227Y0144572D01*
X0303227Y0145573D01*
X0304228Y0146574D01*
X0305229Y0147075D01*
X0307879Y0146074D02*
X0308880Y0147075D01*
X0308880Y0144072D01*
X0309880Y0144072D02*
X0307879Y0144072D01*
X0311101Y0144072D02*
X0313103Y0146074D01*
X0313103Y0146574D01*
X0312603Y0147075D01*
X0311602Y0147075D01*
X0311101Y0146574D01*
X0311101Y0144072D02*
X0313103Y0144072D01*
X0315753Y0144072D02*
X0317754Y0144072D01*
X0316754Y0144072D02*
X0316754Y0147075D01*
X0315753Y0146074D01*
X0318975Y0146574D02*
X0319476Y0147075D01*
X0320477Y0147075D01*
X0320977Y0146574D01*
X0320977Y0146074D01*
X0320477Y0145573D01*
X0320977Y0145073D01*
X0320977Y0144572D01*
X0320477Y0144072D01*
X0319476Y0144072D01*
X0318975Y0144572D01*
X0319976Y0145573D02*
X0320477Y0145573D01*
X0323627Y0146074D02*
X0324628Y0147075D01*
X0324628Y0144072D01*
X0325628Y0144072D02*
X0323627Y0144072D01*
X0326849Y0145573D02*
X0328351Y0147075D01*
X0328351Y0144072D01*
X0328851Y0145573D02*
X0326849Y0145573D01*
X0333039Y0145073D02*
X0334540Y0145073D01*
X0335041Y0145573D01*
X0335041Y0146574D01*
X0334540Y0147075D01*
X0333039Y0147075D01*
X0333039Y0144072D01*
X0336262Y0144072D02*
X0337263Y0145073D01*
X0338263Y0144072D01*
X0338263Y0147075D01*
X0339484Y0147075D02*
X0339484Y0144072D01*
X0339484Y0145073D02*
X0340986Y0145073D01*
X0341486Y0145573D01*
X0341486Y0146574D01*
X0340986Y0147075D01*
X0339484Y0147075D01*
X0340485Y0145073D02*
X0341486Y0144072D01*
X0336262Y0144072D02*
X0336262Y0147075D01*
X0346299Y0140405D02*
X0352205Y0140405D01*
X0352205Y0124657D01*
X0346299Y0124657D01*
X0346299Y0104185D01*
X0346299Y0103791D02*
X0353780Y0103791D01*
X0360079Y0107334D01*
X0354173Y0116783D02*
X0354173Y0120327D01*
X0355748Y0118752D02*
X0352598Y0118752D01*
X0346234Y0132531D02*
X0346243Y0133257D01*
X0346270Y0133983D01*
X0346314Y0134708D01*
X0346376Y0135432D01*
X0346457Y0136153D01*
X0346554Y0136873D01*
X0346670Y0137590D01*
X0346803Y0138304D01*
X0346953Y0139015D01*
X0347121Y0139722D01*
X0347306Y0140424D01*
X0347508Y0141121D01*
X0347728Y0141814D01*
X0347964Y0142501D01*
X0348217Y0143181D01*
X0348487Y0143856D01*
X0348773Y0144523D01*
X0349075Y0145184D01*
X0349394Y0145836D01*
X0349728Y0146481D01*
X0350079Y0147117D01*
X0350444Y0147745D01*
X0350825Y0148363D01*
X0351221Y0148972D01*
X0351632Y0149571D01*
X0352058Y0150160D01*
X0352497Y0150738D01*
X0352951Y0151305D01*
X0353419Y0151860D01*
X0353900Y0152404D01*
X0354394Y0152937D01*
X0354902Y0153456D01*
X0355421Y0153964D01*
X0355954Y0154458D01*
X0356498Y0154939D01*
X0357053Y0155407D01*
X0357620Y0155861D01*
X0358198Y0156300D01*
X0358787Y0156726D01*
X0359386Y0157137D01*
X0359995Y0157533D01*
X0360613Y0157914D01*
X0361241Y0158279D01*
X0361877Y0158630D01*
X0362522Y0158964D01*
X0363174Y0159283D01*
X0363835Y0159585D01*
X0364502Y0159871D01*
X0365177Y0160141D01*
X0365857Y0160394D01*
X0366544Y0160630D01*
X0367237Y0160850D01*
X0367934Y0161052D01*
X0368636Y0161237D01*
X0369343Y0161405D01*
X0370054Y0161555D01*
X0370768Y0161688D01*
X0371485Y0161804D01*
X0372205Y0161901D01*
X0372926Y0161982D01*
X0373650Y0162044D01*
X0374375Y0162088D01*
X0375101Y0162115D01*
X0375827Y0162124D01*
X0376553Y0162115D01*
X0377279Y0162088D01*
X0378004Y0162044D01*
X0378728Y0161982D01*
X0379449Y0161901D01*
X0380169Y0161804D01*
X0380886Y0161688D01*
X0381600Y0161555D01*
X0382311Y0161405D01*
X0383018Y0161237D01*
X0383720Y0161052D01*
X0384417Y0160850D01*
X0385110Y0160630D01*
X0385797Y0160394D01*
X0386477Y0160141D01*
X0387152Y0159871D01*
X0387819Y0159585D01*
X0388480Y0159283D01*
X0389132Y0158964D01*
X0389777Y0158630D01*
X0390413Y0158279D01*
X0391041Y0157914D01*
X0391659Y0157533D01*
X0392268Y0157137D01*
X0392867Y0156726D01*
X0393456Y0156300D01*
X0394034Y0155861D01*
X0394601Y0155407D01*
X0395156Y0154939D01*
X0395700Y0154458D01*
X0396233Y0153964D01*
X0396752Y0153456D01*
X0397260Y0152937D01*
X0397754Y0152404D01*
X0398235Y0151860D01*
X0398703Y0151305D01*
X0399157Y0150738D01*
X0399596Y0150160D01*
X0400022Y0149571D01*
X0400433Y0148972D01*
X0400829Y0148363D01*
X0401210Y0147745D01*
X0401575Y0147117D01*
X0401926Y0146481D01*
X0402260Y0145836D01*
X0402579Y0145184D01*
X0402881Y0144523D01*
X0403167Y0143856D01*
X0403437Y0143181D01*
X0403690Y0142501D01*
X0403926Y0141814D01*
X0404146Y0141121D01*
X0404348Y0140424D01*
X0404533Y0139722D01*
X0404701Y0139015D01*
X0404851Y0138304D01*
X0404984Y0137590D01*
X0405100Y0136873D01*
X0405197Y0136153D01*
X0405278Y0135432D01*
X0405340Y0134708D01*
X0405384Y0133983D01*
X0405411Y0133257D01*
X0405420Y0132531D01*
X0405411Y0131805D01*
X0405384Y0131079D01*
X0405340Y0130354D01*
X0405278Y0129630D01*
X0405197Y0128909D01*
X0405100Y0128189D01*
X0404984Y0127472D01*
X0404851Y0126758D01*
X0404701Y0126047D01*
X0404533Y0125340D01*
X0404348Y0124638D01*
X0404146Y0123941D01*
X0403926Y0123248D01*
X0403690Y0122561D01*
X0403437Y0121881D01*
X0403167Y0121206D01*
X0402881Y0120539D01*
X0402579Y0119878D01*
X0402260Y0119226D01*
X0401926Y0118581D01*
X0401575Y0117945D01*
X0401210Y0117317D01*
X0400829Y0116699D01*
X0400433Y0116090D01*
X0400022Y0115491D01*
X0399596Y0114902D01*
X0399157Y0114324D01*
X0398703Y0113757D01*
X0398235Y0113202D01*
X0397754Y0112658D01*
X0397260Y0112125D01*
X0396752Y0111606D01*
X0396233Y0111098D01*
X0395700Y0110604D01*
X0395156Y0110123D01*
X0394601Y0109655D01*
X0394034Y0109201D01*
X0393456Y0108762D01*
X0392867Y0108336D01*
X0392268Y0107925D01*
X0391659Y0107529D01*
X0391041Y0107148D01*
X0390413Y0106783D01*
X0389777Y0106432D01*
X0389132Y0106098D01*
X0388480Y0105779D01*
X0387819Y0105477D01*
X0387152Y0105191D01*
X0386477Y0104921D01*
X0385797Y0104668D01*
X0385110Y0104432D01*
X0384417Y0104212D01*
X0383720Y0104010D01*
X0383018Y0103825D01*
X0382311Y0103657D01*
X0381600Y0103507D01*
X0380886Y0103374D01*
X0380169Y0103258D01*
X0379449Y0103161D01*
X0378728Y0103080D01*
X0378004Y0103018D01*
X0377279Y0102974D01*
X0376553Y0102947D01*
X0375827Y0102938D01*
X0375101Y0102947D01*
X0374375Y0102974D01*
X0373650Y0103018D01*
X0372926Y0103080D01*
X0372205Y0103161D01*
X0371485Y0103258D01*
X0370768Y0103374D01*
X0370054Y0103507D01*
X0369343Y0103657D01*
X0368636Y0103825D01*
X0367934Y0104010D01*
X0367237Y0104212D01*
X0366544Y0104432D01*
X0365857Y0104668D01*
X0365177Y0104921D01*
X0364502Y0105191D01*
X0363835Y0105477D01*
X0363174Y0105779D01*
X0362522Y0106098D01*
X0361877Y0106432D01*
X0361241Y0106783D01*
X0360613Y0107148D01*
X0359995Y0107529D01*
X0359386Y0107925D01*
X0358787Y0108336D01*
X0358198Y0108762D01*
X0357620Y0109201D01*
X0357053Y0109655D01*
X0356498Y0110123D01*
X0355954Y0110604D01*
X0355421Y0111098D01*
X0354902Y0111606D01*
X0354394Y0112125D01*
X0353900Y0112658D01*
X0353419Y0113202D01*
X0352951Y0113757D01*
X0352497Y0114324D01*
X0352058Y0114902D01*
X0351632Y0115491D01*
X0351221Y0116090D01*
X0350825Y0116699D01*
X0350444Y0117317D01*
X0350079Y0117945D01*
X0349728Y0118581D01*
X0349394Y0119226D01*
X0349075Y0119878D01*
X0348773Y0120539D01*
X0348487Y0121206D01*
X0348217Y0121881D01*
X0347964Y0122561D01*
X0347728Y0123248D01*
X0347508Y0123941D01*
X0347306Y0124638D01*
X0347121Y0125340D01*
X0346953Y0126047D01*
X0346803Y0126758D01*
X0346670Y0127472D01*
X0346554Y0128189D01*
X0346457Y0128909D01*
X0346376Y0129630D01*
X0346314Y0130354D01*
X0346270Y0131079D01*
X0346243Y0131805D01*
X0346234Y0132531D01*
X0346299Y0140405D02*
X0346299Y0160878D01*
X0354173Y0160878D01*
X0360079Y0157728D01*
X0359685Y0157728D01*
X0393922Y0157159D02*
X0393922Y0161663D01*
X0396924Y0161663D01*
X0398526Y0161663D02*
X0401528Y0161663D01*
X0400027Y0161663D02*
X0400027Y0157159D01*
X0403130Y0157159D02*
X0403130Y0161663D01*
X0405382Y0161663D01*
X0406132Y0160912D01*
X0406132Y0157910D01*
X0405382Y0157159D01*
X0403130Y0157159D01*
X0407734Y0157159D02*
X0409235Y0157159D01*
X0408484Y0157159D02*
X0408484Y0161663D01*
X0407734Y0161663D02*
X0409235Y0161663D01*
X0410803Y0160912D02*
X0411554Y0161663D01*
X0413055Y0161663D01*
X0413805Y0160912D01*
X0413805Y0160162D01*
X0410803Y0157159D01*
X0413805Y0157159D01*
X0395423Y0159411D02*
X0393922Y0159411D01*
X0394074Y0185934D02*
X0397076Y0185934D01*
X0398077Y0186935D01*
X0397076Y0187935D01*
X0395075Y0187935D01*
X0394074Y0188936D01*
X0395075Y0189937D01*
X0398077Y0189937D01*
X0400059Y0188936D02*
X0401060Y0189937D01*
X0403062Y0189937D01*
X0404062Y0188936D01*
X0404062Y0185934D01*
X0400059Y0185934D02*
X0400059Y0191939D01*
X0400062Y0195684D02*
X0400062Y0201689D01*
X0399061Y0201689D01*
X0397080Y0199687D02*
X0397080Y0195684D01*
X0394077Y0195684D01*
X0393076Y0196685D01*
X0393076Y0199687D01*
X0391095Y0199687D02*
X0388092Y0199687D01*
X0387091Y0198686D01*
X0387091Y0196685D01*
X0388092Y0195684D01*
X0391095Y0195684D01*
X0391095Y0201689D01*
X0385110Y0198686D02*
X0384109Y0199687D01*
X0382107Y0199687D01*
X0381106Y0198686D01*
X0381106Y0196685D01*
X0382107Y0195684D01*
X0384109Y0195684D01*
X0385110Y0196685D01*
X0385110Y0198686D01*
X0379124Y0198686D02*
X0379124Y0195684D01*
X0377123Y0195684D02*
X0377123Y0198686D01*
X0378124Y0199687D01*
X0379124Y0198686D01*
X0377123Y0198686D02*
X0376122Y0199687D01*
X0375121Y0199687D01*
X0375121Y0195684D01*
X0372135Y0191939D02*
X0370133Y0191939D01*
X0371134Y0191939D02*
X0371134Y0185934D01*
X0370133Y0185934D02*
X0372135Y0185934D01*
X0368152Y0186935D02*
X0368152Y0190938D01*
X0367151Y0191939D01*
X0364148Y0191939D01*
X0364148Y0185934D01*
X0367151Y0185934D01*
X0368152Y0186935D01*
X0362167Y0191939D02*
X0358163Y0191939D01*
X0356181Y0191939D02*
X0352178Y0191939D01*
X0352178Y0185934D01*
X0352178Y0188936D02*
X0354180Y0188936D01*
X0360165Y0185934D02*
X0360165Y0191939D01*
X0360162Y0195684D02*
X0363164Y0195684D01*
X0360162Y0195684D02*
X0359161Y0196685D01*
X0359161Y0198686D01*
X0360162Y0199687D01*
X0363164Y0199687D01*
X0365146Y0199687D02*
X0367148Y0199687D01*
X0366147Y0200688D02*
X0366147Y0196685D01*
X0367148Y0195684D01*
X0357179Y0197685D02*
X0353176Y0197685D01*
X0353176Y0196685D02*
X0353176Y0198686D01*
X0354176Y0199687D01*
X0356178Y0199687D01*
X0357179Y0198686D01*
X0357179Y0197685D01*
X0356178Y0195684D02*
X0354176Y0195684D01*
X0353176Y0196685D01*
X0351194Y0195684D02*
X0351194Y0198686D01*
X0350193Y0199687D01*
X0347190Y0199687D01*
X0347190Y0195684D01*
X0345209Y0195684D02*
X0345209Y0198686D01*
X0344208Y0199687D01*
X0341205Y0199687D01*
X0341205Y0195684D01*
X0339224Y0196685D02*
X0339224Y0198686D01*
X0338223Y0199687D01*
X0336221Y0199687D01*
X0335220Y0198686D01*
X0335220Y0196685D01*
X0336221Y0195684D01*
X0338223Y0195684D01*
X0339224Y0196685D01*
X0333239Y0195684D02*
X0330236Y0195684D01*
X0329235Y0196685D01*
X0329235Y0198686D01*
X0330236Y0199687D01*
X0333239Y0199687D01*
X0327253Y0199687D02*
X0324251Y0199687D01*
X0323250Y0198686D01*
X0324251Y0197685D01*
X0326253Y0197685D01*
X0327253Y0196685D01*
X0326253Y0195684D01*
X0323250Y0195684D01*
X0321262Y0195684D02*
X0319260Y0195684D01*
X0320261Y0195684D02*
X0320261Y0199687D01*
X0319260Y0199687D01*
X0317278Y0199687D02*
X0314276Y0199687D01*
X0313275Y0198686D01*
X0313275Y0196685D01*
X0314276Y0195684D01*
X0317278Y0195684D01*
X0317278Y0201689D01*
X0320261Y0201689D02*
X0320261Y0202690D01*
X0320261Y0189937D02*
X0322263Y0189937D01*
X0323263Y0188936D01*
X0323263Y0187935D01*
X0319260Y0187935D01*
X0319260Y0186935D02*
X0319260Y0188936D01*
X0320261Y0189937D01*
X0317278Y0188936D02*
X0316277Y0189937D01*
X0313275Y0189937D01*
X0313275Y0191939D02*
X0313275Y0185934D01*
X0316277Y0185934D01*
X0317278Y0186935D01*
X0317278Y0188936D01*
X0319260Y0186935D02*
X0320261Y0185934D01*
X0322263Y0185934D01*
X0326246Y0185934D02*
X0326246Y0190938D01*
X0327247Y0191939D01*
X0327247Y0188936D02*
X0325245Y0188936D01*
X0329235Y0188936D02*
X0329235Y0186935D01*
X0330236Y0185934D01*
X0332238Y0185934D01*
X0333239Y0186935D01*
X0333239Y0188936D01*
X0332238Y0189937D01*
X0330236Y0189937D01*
X0329235Y0188936D01*
X0335220Y0187935D02*
X0337222Y0189937D01*
X0338223Y0189937D01*
X0340208Y0188936D02*
X0341209Y0189937D01*
X0343210Y0189937D01*
X0344211Y0188936D01*
X0344211Y0187935D01*
X0340208Y0187935D01*
X0340208Y0186935D02*
X0340208Y0188936D01*
X0340208Y0186935D02*
X0341209Y0185934D01*
X0343210Y0185934D01*
X0335220Y0185934D02*
X0335220Y0189937D01*
X0380109Y0188936D02*
X0382110Y0188936D01*
X0381109Y0190938D02*
X0381109Y0185934D01*
X0384099Y0185934D02*
X0386100Y0185934D01*
X0385099Y0185934D02*
X0385099Y0191939D01*
X0384099Y0191939D01*
X0382110Y0191939D02*
X0381109Y0190938D01*
X0388089Y0186935D02*
X0389090Y0187935D01*
X0392092Y0187935D01*
X0392092Y0188936D02*
X0392092Y0185934D01*
X0389090Y0185934D01*
X0388089Y0186935D01*
X0389090Y0189937D02*
X0391091Y0189937D01*
X0392092Y0188936D01*
X0399061Y0195684D02*
X0401063Y0195684D01*
X0403052Y0196685D02*
X0403052Y0198686D01*
X0404052Y0199687D01*
X0406054Y0199687D01*
X0407055Y0198686D01*
X0407055Y0197685D01*
X0403052Y0197685D01*
X0403052Y0196685D02*
X0404052Y0195684D01*
X0406054Y0195684D01*
X0291296Y0243781D02*
X0287626Y0243781D01*
X0289461Y0243781D02*
X0289461Y0249286D01*
X0287626Y0247451D01*
X0285771Y0243781D02*
X0282101Y0243781D01*
X0283936Y0243781D02*
X0283936Y0249286D01*
X0282101Y0247451D01*
X0280247Y0246534D02*
X0279329Y0245616D01*
X0276577Y0245616D01*
X0278412Y0245616D02*
X0280247Y0243781D01*
X0280247Y0246534D02*
X0280247Y0248369D01*
X0279329Y0249286D01*
X0276577Y0249286D01*
X0276577Y0243781D01*
X0276584Y0257506D02*
X0276584Y0263011D01*
X0279336Y0263011D01*
X0280253Y0262093D01*
X0280253Y0260259D01*
X0279336Y0259341D01*
X0276584Y0259341D01*
X0278418Y0259341D02*
X0280253Y0257506D01*
X0282108Y0257506D02*
X0285778Y0257506D01*
X0283943Y0257506D02*
X0283943Y0263011D01*
X0282108Y0261176D01*
X0287633Y0262093D02*
X0287633Y0258424D01*
X0291303Y0262093D01*
X0291303Y0258424D01*
X0290385Y0257506D01*
X0288550Y0257506D01*
X0287633Y0258424D01*
X0287633Y0262093D02*
X0288550Y0263011D01*
X0290385Y0263011D01*
X0291303Y0262093D01*
X0271984Y0280854D02*
X0243835Y0280854D01*
X0243835Y0286169D01*
X0241669Y0288334D01*
X0241669Y0280854D01*
X0243835Y0280854D01*
X0241669Y0288334D02*
X0241669Y0296208D01*
X0271984Y0296208D01*
X0271984Y0288334D01*
X0269819Y0286169D01*
X0269819Y0280854D01*
X0271984Y0280854D02*
X0271984Y0288334D01*
X0253776Y0306634D02*
X0221276Y0306634D01*
X0221276Y0339134D01*
X0253776Y0339134D01*
X0253776Y0306634D01*
X0229017Y0302218D02*
X0217206Y0302218D01*
X0217206Y0282533D01*
X0229017Y0282533D01*
X0229017Y0302218D01*
X0229017Y0300249D02*
X0217206Y0300249D01*
X0217206Y0298281D01*
X0229017Y0298281D01*
X0229017Y0300249D01*
X0229017Y0299781D02*
X0217206Y0299781D01*
X0217206Y0299283D02*
X0229017Y0299283D01*
X0229017Y0298784D02*
X0217206Y0298784D01*
X0217206Y0298285D02*
X0229017Y0298285D01*
X0226214Y0279473D02*
X0224379Y0277639D01*
X0222525Y0278556D02*
X0221607Y0279473D01*
X0218855Y0279473D01*
X0218855Y0273969D01*
X0221607Y0273969D01*
X0222525Y0274886D01*
X0222525Y0278556D01*
X0226214Y0279473D02*
X0226214Y0273969D01*
X0224379Y0273969D02*
X0228049Y0273969D01*
X0159134Y0261533D02*
X0159134Y0260366D01*
X0158551Y0259782D01*
X0156799Y0259782D01*
X0156799Y0258614D02*
X0156799Y0262117D01*
X0158551Y0262117D01*
X0159134Y0261533D01*
X0155451Y0262117D02*
X0155451Y0258614D01*
X0153116Y0258614D02*
X0153116Y0262117D01*
X0154284Y0260950D01*
X0155451Y0262117D01*
X0151768Y0258614D02*
X0149433Y0258614D01*
X0149433Y0262117D01*
X0100367Y0261484D02*
X0100367Y0257814D01*
X0099449Y0256897D01*
X0096697Y0256897D01*
X0096697Y0262401D01*
X0099449Y0262401D01*
X0100367Y0261484D01*
X0094842Y0262401D02*
X0094842Y0256897D01*
X0091172Y0262401D01*
X0091172Y0256897D01*
X0089317Y0257814D02*
X0089317Y0259649D01*
X0087483Y0259649D01*
X0089317Y0257814D02*
X0088400Y0256897D01*
X0086565Y0256897D01*
X0085648Y0257814D01*
X0085648Y0261484D01*
X0086565Y0262401D01*
X0088400Y0262401D01*
X0089317Y0261484D01*
X0048757Y0291640D02*
X0048757Y0295310D01*
X0046922Y0297145D01*
X0045087Y0295310D01*
X0045087Y0291640D01*
X0045087Y0294393D02*
X0048757Y0294393D01*
X0084539Y0294921D02*
X0087291Y0294921D01*
X0088209Y0294004D01*
X0088209Y0293086D01*
X0087291Y0292169D01*
X0084539Y0292169D01*
X0084539Y0297673D01*
X0087291Y0297673D01*
X0088209Y0296756D01*
X0088209Y0295838D01*
X0087291Y0294921D01*
X0087400Y0207401D02*
X0085565Y0207401D01*
X0084648Y0206484D01*
X0084648Y0202814D01*
X0085565Y0201897D01*
X0087400Y0201897D01*
X0088317Y0202814D01*
X0088317Y0204649D01*
X0086483Y0204649D01*
X0088317Y0206484D02*
X0087400Y0207401D01*
X0090172Y0207401D02*
X0093842Y0201897D01*
X0093842Y0207401D01*
X0095697Y0207401D02*
X0098449Y0207401D01*
X0099367Y0206484D01*
X0099367Y0202814D01*
X0098449Y0201897D01*
X0095697Y0201897D01*
X0095697Y0207401D01*
X0090172Y0207401D02*
X0090172Y0201897D01*
X0149433Y0203114D02*
X0151768Y0203114D01*
X0153116Y0203114D02*
X0153116Y0206617D01*
X0154284Y0205450D01*
X0155451Y0206617D01*
X0155451Y0203114D01*
X0156799Y0203114D02*
X0156799Y0206617D01*
X0158551Y0206617D01*
X0159134Y0206033D01*
X0159134Y0204866D01*
X0158551Y0204282D01*
X0156799Y0204282D01*
X0149433Y0203114D02*
X0149433Y0206617D01*
X0292748Y0134827D02*
X0293916Y0134827D01*
X0293332Y0134827D02*
X0293332Y0131908D01*
X0292748Y0131324D01*
X0292165Y0131324D01*
X0291581Y0131908D01*
X0295264Y0131324D02*
X0297599Y0131324D01*
X0296431Y0131324D02*
X0296431Y0134827D01*
X0295264Y0133659D01*
X0337393Y0100799D02*
X0337395Y0100872D01*
X0337401Y0100946D01*
X0337411Y0101018D01*
X0337425Y0101090D01*
X0337442Y0101162D01*
X0337464Y0101232D01*
X0337489Y0101301D01*
X0337518Y0101368D01*
X0337551Y0101434D01*
X0337587Y0101498D01*
X0337626Y0101559D01*
X0337669Y0101619D01*
X0337715Y0101676D01*
X0337764Y0101731D01*
X0337816Y0101783D01*
X0337871Y0101832D01*
X0337928Y0101878D01*
X0337988Y0101921D01*
X0338049Y0101960D01*
X0338113Y0101996D01*
X0338179Y0102029D01*
X0338246Y0102058D01*
X0338315Y0102083D01*
X0338385Y0102105D01*
X0338457Y0102122D01*
X0338529Y0102136D01*
X0338601Y0102146D01*
X0338675Y0102152D01*
X0338748Y0102154D01*
X0338821Y0102152D01*
X0338895Y0102146D01*
X0338967Y0102136D01*
X0339039Y0102122D01*
X0339111Y0102105D01*
X0339181Y0102083D01*
X0339250Y0102058D01*
X0339317Y0102029D01*
X0339383Y0101996D01*
X0339447Y0101960D01*
X0339508Y0101921D01*
X0339568Y0101878D01*
X0339625Y0101832D01*
X0339680Y0101783D01*
X0339732Y0101731D01*
X0339781Y0101676D01*
X0339827Y0101619D01*
X0339870Y0101559D01*
X0339909Y0101498D01*
X0339945Y0101434D01*
X0339978Y0101368D01*
X0340007Y0101301D01*
X0340032Y0101232D01*
X0340054Y0101162D01*
X0340071Y0101090D01*
X0340085Y0101018D01*
X0340095Y0100946D01*
X0340101Y0100872D01*
X0340103Y0100799D01*
X0340101Y0100726D01*
X0340095Y0100652D01*
X0340085Y0100580D01*
X0340071Y0100508D01*
X0340054Y0100436D01*
X0340032Y0100366D01*
X0340007Y0100297D01*
X0339978Y0100230D01*
X0339945Y0100164D01*
X0339909Y0100100D01*
X0339870Y0100039D01*
X0339827Y0099979D01*
X0339781Y0099922D01*
X0339732Y0099867D01*
X0339680Y0099815D01*
X0339625Y0099766D01*
X0339568Y0099720D01*
X0339508Y0099677D01*
X0339447Y0099638D01*
X0339383Y0099602D01*
X0339317Y0099569D01*
X0339250Y0099540D01*
X0339181Y0099515D01*
X0339111Y0099493D01*
X0339039Y0099476D01*
X0338967Y0099462D01*
X0338895Y0099452D01*
X0338821Y0099446D01*
X0338748Y0099444D01*
X0338675Y0099446D01*
X0338601Y0099452D01*
X0338529Y0099462D01*
X0338457Y0099476D01*
X0338385Y0099493D01*
X0338315Y0099515D01*
X0338246Y0099540D01*
X0338179Y0099569D01*
X0338113Y0099602D01*
X0338049Y0099638D01*
X0337988Y0099677D01*
X0337928Y0099720D01*
X0337871Y0099766D01*
X0337816Y0099815D01*
X0337764Y0099867D01*
X0337715Y0099922D01*
X0337669Y0099979D01*
X0337626Y0100039D01*
X0337587Y0100100D01*
X0337551Y0100164D01*
X0337518Y0100230D01*
X0337489Y0100297D01*
X0337464Y0100366D01*
X0337442Y0100436D01*
X0337425Y0100508D01*
X0337411Y0100580D01*
X0337401Y0100652D01*
X0337395Y0100726D01*
X0337393Y0100799D01*
X0316452Y0072785D02*
X0314200Y0072785D01*
X0314200Y0068281D01*
X0316452Y0068281D01*
X0317203Y0069032D01*
X0317203Y0072035D01*
X0316452Y0072785D01*
X0312599Y0071284D02*
X0312599Y0068281D01*
X0312599Y0070533D02*
X0309596Y0070533D01*
X0309596Y0071284D02*
X0311098Y0072785D01*
X0312599Y0071284D01*
X0309596Y0071284D02*
X0309596Y0068281D01*
X0307995Y0070533D02*
X0307244Y0069783D01*
X0304992Y0069783D01*
X0304992Y0068281D02*
X0304992Y0072785D01*
X0307244Y0072785D01*
X0307995Y0072035D01*
X0307995Y0070533D01*
X0303391Y0070533D02*
X0300389Y0070533D01*
X0298787Y0069032D02*
X0298037Y0068281D01*
X0296535Y0068281D01*
X0295785Y0069032D01*
X0295785Y0072035D01*
X0296535Y0072785D01*
X0298037Y0072785D01*
X0298787Y0072035D01*
X0294183Y0072035D02*
X0294183Y0069032D01*
X0293433Y0068281D01*
X0291181Y0068281D01*
X0291181Y0072785D01*
X0293433Y0072785D01*
X0294183Y0072035D01*
X0289579Y0071284D02*
X0289579Y0068281D01*
X0289579Y0070533D02*
X0286577Y0070533D01*
X0286577Y0071284D02*
X0288078Y0072785D01*
X0289579Y0071284D01*
X0286577Y0071284D02*
X0286577Y0068281D01*
X0395512Y0118752D02*
X0399449Y0118752D01*
X0314268Y0326519D02*
X0311265Y0326519D01*
X0312766Y0326519D02*
X0312766Y0331022D01*
X0311265Y0329521D01*
X0309664Y0329521D02*
X0308913Y0328770D01*
X0306661Y0328770D01*
X0306661Y0326519D02*
X0306661Y0331022D01*
X0308913Y0331022D01*
X0309664Y0330272D01*
X0309664Y0329521D01*
X0308913Y0328770D02*
X0309664Y0328020D01*
X0309664Y0327269D01*
X0308913Y0326519D01*
X0306661Y0326519D01*
X0329287Y0343055D02*
X0329287Y0347559D01*
X0331539Y0347559D01*
X0332289Y0346808D01*
X0332289Y0345307D01*
X0331539Y0344556D01*
X0329287Y0344556D01*
X0330788Y0344556D02*
X0332289Y0343055D01*
X0333891Y0343055D02*
X0336893Y0343055D01*
X0338495Y0343806D02*
X0339245Y0343055D01*
X0340747Y0343055D01*
X0341497Y0343806D01*
X0341497Y0345307D01*
X0339996Y0345307D01*
X0341497Y0346808D02*
X0340747Y0347559D01*
X0339245Y0347559D01*
X0338495Y0346808D01*
X0338495Y0343806D01*
X0335392Y0345307D02*
X0333891Y0345307D01*
X0333891Y0347559D02*
X0333891Y0343055D01*
X0333891Y0347559D02*
X0336893Y0347559D01*
X0343099Y0346057D02*
X0344600Y0347559D01*
X0344600Y0343055D01*
X0343099Y0343055D02*
X0346101Y0343055D01*
X0347702Y0343055D02*
X0350705Y0343055D01*
X0349204Y0343055D02*
X0349204Y0347559D01*
X0347702Y0346057D01*
X0352306Y0346057D02*
X0353808Y0347559D01*
X0353808Y0343055D01*
X0355309Y0343055D02*
X0352306Y0343055D01*
X0356910Y0343055D02*
X0356910Y0343806D01*
X0359913Y0346808D01*
X0359913Y0347559D01*
X0356910Y0347559D01*
D13*
X0360758Y0317670D02*
X0360141Y0317053D01*
X0360141Y0314584D01*
X0360758Y0313967D01*
X0361992Y0313967D01*
X0362609Y0314584D01*
X0363824Y0313967D02*
X0366293Y0313967D01*
X0365058Y0313967D02*
X0365058Y0317670D01*
X0363824Y0316435D01*
X0362609Y0317053D02*
X0361992Y0317670D01*
X0360758Y0317670D01*
X0367507Y0317053D02*
X0368124Y0317670D01*
X0369358Y0317670D01*
X0369976Y0317053D01*
X0369976Y0316435D01*
X0369358Y0315818D01*
X0369976Y0315201D01*
X0369976Y0314584D01*
X0369358Y0313967D01*
X0368124Y0313967D01*
X0367507Y0314584D01*
X0368741Y0315818D02*
X0369358Y0315818D01*
X0324694Y0313158D02*
X0324076Y0313775D01*
X0322842Y0313775D01*
X0322225Y0313158D01*
X0321011Y0313158D02*
X0320393Y0313775D01*
X0318542Y0313775D01*
X0318542Y0310072D01*
X0320393Y0310072D01*
X0321011Y0310689D01*
X0321011Y0313158D01*
X0322225Y0310072D02*
X0324694Y0312540D01*
X0324694Y0313158D01*
X0324694Y0310072D02*
X0322225Y0310072D01*
X0231128Y0349565D02*
X0230511Y0348948D01*
X0229277Y0348948D01*
X0228660Y0349565D01*
X0228660Y0350182D01*
X0229277Y0350799D01*
X0230511Y0350799D01*
X0231128Y0350182D01*
X0231128Y0349565D01*
X0230511Y0350799D02*
X0231128Y0351416D01*
X0231128Y0352033D01*
X0230511Y0352651D01*
X0229277Y0352651D01*
X0228660Y0352033D01*
X0228660Y0351416D01*
X0229277Y0350799D01*
X0227445Y0350799D02*
X0224976Y0350799D01*
X0226828Y0352651D01*
X0226828Y0348948D01*
X0223762Y0349565D02*
X0223145Y0348948D01*
X0221910Y0348948D01*
X0221293Y0349565D01*
X0221293Y0352033D01*
X0221910Y0352651D01*
X0223145Y0352651D01*
X0223762Y0352033D01*
X0208568Y0311876D02*
X0205432Y0308740D01*
X0205432Y0310308D02*
X0208568Y0310308D01*
X0208568Y0308740D02*
X0205432Y0311876D01*
X0207000Y0311876D02*
X0207000Y0308740D01*
X0205706Y0285527D02*
X0208175Y0283059D01*
X0208792Y0283059D01*
X0208792Y0281844D02*
X0208792Y0279375D01*
X0208792Y0280610D02*
X0205089Y0280610D01*
X0206323Y0279375D01*
X0205706Y0278161D02*
X0205089Y0277544D01*
X0205089Y0276309D01*
X0205706Y0275692D01*
X0208175Y0275692D01*
X0208792Y0276309D01*
X0208792Y0277544D01*
X0208175Y0278161D01*
X0205089Y0283059D02*
X0205089Y0285527D01*
X0205706Y0285527D01*
X0199629Y0284941D02*
X0199629Y0283707D01*
X0199012Y0283090D01*
X0197777Y0283090D01*
X0197777Y0284941D01*
X0198394Y0285558D01*
X0199012Y0285558D01*
X0199629Y0284941D01*
X0197777Y0283090D02*
X0196543Y0284324D01*
X0195926Y0285558D01*
X0199629Y0281875D02*
X0199629Y0279406D01*
X0199629Y0280641D02*
X0195926Y0280641D01*
X0197160Y0279406D01*
X0196543Y0278192D02*
X0195926Y0277575D01*
X0195926Y0276340D01*
X0196543Y0275723D01*
X0199012Y0275723D01*
X0199629Y0276340D01*
X0199629Y0277575D01*
X0199012Y0278192D01*
X0186858Y0266109D02*
X0186241Y0266727D01*
X0185007Y0266727D01*
X0184390Y0266109D01*
X0185624Y0264875D02*
X0186241Y0264875D01*
X0186858Y0264258D01*
X0186858Y0263641D01*
X0186241Y0263023D01*
X0185007Y0263023D01*
X0184390Y0263641D01*
X0183175Y0263023D02*
X0180706Y0263023D01*
X0179492Y0263023D02*
X0178258Y0264258D01*
X0178875Y0264258D02*
X0177023Y0264258D01*
X0177023Y0263023D02*
X0177023Y0266727D01*
X0178875Y0266727D01*
X0179492Y0266109D01*
X0179492Y0264875D01*
X0178875Y0264258D01*
X0180706Y0265492D02*
X0181941Y0266727D01*
X0181941Y0263023D01*
X0186241Y0264875D02*
X0186858Y0265492D01*
X0186858Y0266109D01*
X0188685Y0252407D02*
X0189302Y0251173D01*
X0190536Y0249938D01*
X0190536Y0251790D01*
X0191154Y0252407D01*
X0191771Y0252407D01*
X0192388Y0251790D01*
X0192388Y0250556D01*
X0191771Y0249938D01*
X0190536Y0249938D01*
X0189919Y0248724D02*
X0189302Y0248724D01*
X0188685Y0248107D01*
X0188685Y0246873D01*
X0189302Y0246255D01*
X0189302Y0245041D02*
X0188685Y0244424D01*
X0188685Y0243189D01*
X0189302Y0242572D01*
X0191771Y0242572D01*
X0192388Y0243189D01*
X0192388Y0244424D01*
X0191771Y0245041D01*
X0192388Y0246255D02*
X0189919Y0248724D01*
X0192388Y0248724D02*
X0192388Y0246255D01*
X0187159Y0225536D02*
X0185925Y0225536D01*
X0186542Y0225536D02*
X0186542Y0221833D01*
X0185925Y0221833D02*
X0187159Y0221833D01*
X0184710Y0222450D02*
X0184093Y0221833D01*
X0182242Y0221833D01*
X0182242Y0225536D01*
X0184093Y0225536D01*
X0184710Y0224919D01*
X0184710Y0224301D01*
X0184093Y0223684D01*
X0182242Y0223684D01*
X0184093Y0223684D02*
X0184710Y0223067D01*
X0184710Y0222450D01*
X0176533Y0221868D02*
X0175299Y0221868D01*
X0175916Y0221868D02*
X0175916Y0225571D01*
X0175299Y0225571D02*
X0176533Y0225571D01*
X0174085Y0225571D02*
X0174085Y0221868D01*
X0171616Y0225571D01*
X0171616Y0221868D01*
X0170401Y0222485D02*
X0169784Y0221868D01*
X0168550Y0221868D01*
X0167933Y0222485D01*
X0167933Y0225571D01*
X0170401Y0225571D02*
X0170401Y0222485D01*
X0178738Y0212057D02*
X0180589Y0212057D01*
X0181207Y0211439D01*
X0181207Y0210205D01*
X0180589Y0209588D01*
X0178738Y0209588D01*
X0179972Y0209588D02*
X0181207Y0208353D01*
X0182421Y0208971D02*
X0183038Y0208353D01*
X0184273Y0208353D01*
X0184890Y0208971D01*
X0184890Y0210205D01*
X0184273Y0210822D01*
X0183655Y0210822D01*
X0182421Y0210205D01*
X0182421Y0212057D01*
X0184890Y0212057D01*
X0178738Y0212057D02*
X0178738Y0208353D01*
X0189433Y0195689D02*
X0188816Y0195072D01*
X0188816Y0192603D01*
X0189433Y0191986D01*
X0190667Y0191986D01*
X0191285Y0192603D01*
X0192499Y0192603D02*
X0193116Y0191986D01*
X0194351Y0191986D01*
X0194968Y0192603D01*
X0194968Y0195072D01*
X0194351Y0195689D01*
X0193116Y0195689D01*
X0192499Y0195072D01*
X0192499Y0194455D01*
X0193116Y0193838D01*
X0194968Y0193838D01*
X0191285Y0195072D02*
X0190667Y0195689D01*
X0189433Y0195689D01*
X0167029Y0187584D02*
X0165794Y0186967D01*
X0164560Y0185733D01*
X0166411Y0185733D01*
X0167029Y0185116D01*
X0167029Y0184499D01*
X0166411Y0183881D01*
X0165177Y0183881D01*
X0164560Y0184499D01*
X0164560Y0185733D01*
X0163346Y0186967D02*
X0162728Y0187584D01*
X0161494Y0187584D01*
X0160877Y0186967D01*
X0160877Y0184499D01*
X0161494Y0183881D01*
X0162728Y0183881D01*
X0163346Y0184499D01*
X0139802Y0185293D02*
X0136098Y0185293D01*
X0136098Y0187144D01*
X0136716Y0187761D01*
X0137950Y0187761D01*
X0138567Y0187144D01*
X0138567Y0185293D01*
X0138567Y0186527D02*
X0139802Y0187761D01*
X0139802Y0188976D02*
X0139802Y0191444D01*
X0139802Y0190210D02*
X0136098Y0190210D01*
X0137333Y0188976D01*
X0137871Y0182831D02*
X0138488Y0182213D01*
X0138488Y0181596D01*
X0137871Y0180979D01*
X0136019Y0180979D01*
X0134805Y0180979D02*
X0132336Y0180979D01*
X0131121Y0182831D02*
X0128653Y0182831D01*
X0128653Y0179127D01*
X0131121Y0179127D01*
X0129887Y0180979D02*
X0128653Y0180979D01*
X0127438Y0180362D02*
X0127438Y0179745D01*
X0126821Y0179127D01*
X0125587Y0179127D01*
X0124970Y0179745D01*
X0123755Y0179127D02*
X0123755Y0182831D01*
X0124970Y0182213D02*
X0125587Y0182831D01*
X0126821Y0182831D01*
X0127438Y0182213D01*
X0126821Y0180979D02*
X0127438Y0180362D01*
X0126821Y0180979D02*
X0125587Y0180979D01*
X0124970Y0181596D01*
X0124970Y0182213D01*
X0123755Y0179127D02*
X0121286Y0182831D01*
X0121286Y0179127D01*
X0120072Y0179127D02*
X0117603Y0179127D01*
X0117603Y0182831D01*
X0120072Y0182831D01*
X0118838Y0180979D02*
X0117603Y0180979D01*
X0116389Y0180362D02*
X0116389Y0179745D01*
X0115772Y0179127D01*
X0114537Y0179127D01*
X0113920Y0179745D01*
X0112706Y0180362D02*
X0112706Y0182831D01*
X0113920Y0182213D02*
X0113920Y0181596D01*
X0114537Y0180979D01*
X0115772Y0180979D01*
X0116389Y0180362D01*
X0116389Y0182213D02*
X0115772Y0182831D01*
X0114537Y0182831D01*
X0113920Y0182213D01*
X0112706Y0180362D02*
X0111471Y0179127D01*
X0110237Y0180362D01*
X0110237Y0182831D01*
X0136019Y0182831D02*
X0136019Y0179127D01*
X0137871Y0179127D01*
X0138488Y0179745D01*
X0138488Y0180362D01*
X0137871Y0180979D01*
X0137871Y0182831D02*
X0136019Y0182831D01*
X0136796Y0176883D02*
X0136179Y0176266D01*
X0136179Y0175031D01*
X0136796Y0174414D01*
X0136796Y0173200D02*
X0138031Y0173200D01*
X0138648Y0172583D01*
X0138648Y0170731D01*
X0139882Y0170731D02*
X0136179Y0170731D01*
X0136179Y0172583D01*
X0136796Y0173200D01*
X0138648Y0171965D02*
X0139882Y0173200D01*
X0139882Y0174414D02*
X0137413Y0176883D01*
X0136796Y0176883D01*
X0139882Y0176883D02*
X0139882Y0174414D01*
X0195622Y0152187D02*
X0195622Y0148484D01*
X0195622Y0149718D02*
X0197474Y0149718D01*
X0198091Y0150335D01*
X0198091Y0151570D01*
X0197474Y0152187D01*
X0195622Y0152187D01*
X0196857Y0149718D02*
X0198091Y0148484D01*
X0199305Y0149101D02*
X0199923Y0148484D01*
X0201157Y0148484D01*
X0201774Y0149101D01*
X0201774Y0149718D01*
X0201157Y0150335D01*
X0200540Y0150335D01*
X0201157Y0150335D02*
X0201774Y0150952D01*
X0201774Y0151570D01*
X0201157Y0152187D01*
X0199923Y0152187D01*
X0199305Y0151570D01*
X0199578Y0125284D02*
X0198343Y0124667D01*
X0197109Y0123432D01*
X0198960Y0123432D01*
X0199578Y0122815D01*
X0199578Y0122198D01*
X0198960Y0121581D01*
X0197726Y0121581D01*
X0197109Y0122198D01*
X0197109Y0123432D01*
X0195894Y0123432D02*
X0195277Y0122815D01*
X0193426Y0122815D01*
X0194660Y0122815D02*
X0195894Y0121581D01*
X0195894Y0123432D02*
X0195894Y0124667D01*
X0195277Y0125284D01*
X0193426Y0125284D01*
X0193426Y0121581D01*
X0186557Y0119847D02*
X0185323Y0119230D01*
X0184088Y0117996D01*
X0185940Y0117996D01*
X0186557Y0117378D01*
X0186557Y0116761D01*
X0185940Y0116144D01*
X0184706Y0116144D01*
X0184088Y0116761D01*
X0184088Y0117996D01*
X0182874Y0116144D02*
X0180405Y0116144D01*
X0179191Y0116144D02*
X0177956Y0117378D01*
X0178574Y0117378D02*
X0176722Y0117378D01*
X0176722Y0116144D02*
X0176722Y0119847D01*
X0178574Y0119847D01*
X0179191Y0119230D01*
X0179191Y0117996D01*
X0178574Y0117378D01*
X0180405Y0118613D02*
X0181640Y0119847D01*
X0181640Y0116144D01*
X0189827Y0114584D02*
X0189827Y0110881D01*
X0189827Y0112116D02*
X0191679Y0112116D01*
X0192296Y0112733D01*
X0192296Y0113967D01*
X0191679Y0114584D01*
X0189827Y0114584D01*
X0191062Y0112116D02*
X0192296Y0110881D01*
X0193510Y0110881D02*
X0195979Y0110881D01*
X0194745Y0110881D02*
X0194745Y0114584D01*
X0193510Y0113350D01*
X0197194Y0113350D02*
X0197194Y0113967D01*
X0197811Y0114584D01*
X0199045Y0114584D01*
X0199662Y0113967D01*
X0199662Y0113350D01*
X0199045Y0112733D01*
X0197811Y0112733D01*
X0197194Y0113350D01*
X0197811Y0112733D02*
X0197194Y0112116D01*
X0197194Y0111499D01*
X0197811Y0110881D01*
X0199045Y0110881D01*
X0199662Y0111499D01*
X0199662Y0112116D01*
X0199045Y0112733D01*
X0199162Y0094184D02*
X0196694Y0094184D01*
X0194245Y0094184D02*
X0194245Y0090481D01*
X0195479Y0090481D02*
X0193010Y0090481D01*
X0191796Y0090481D02*
X0190562Y0091716D01*
X0191179Y0091716D02*
X0189327Y0091716D01*
X0189327Y0090481D02*
X0189327Y0094184D01*
X0191179Y0094184D01*
X0191796Y0093567D01*
X0191796Y0092333D01*
X0191179Y0091716D01*
X0193010Y0092950D02*
X0194245Y0094184D01*
X0196694Y0091099D02*
X0196694Y0090481D01*
X0196694Y0091099D02*
X0199162Y0093567D01*
X0199162Y0094184D01*
X0160677Y0104498D02*
X0160677Y0106967D01*
X0160677Y0105733D02*
X0156974Y0105733D01*
X0158208Y0104498D01*
X0158169Y0117625D02*
X0155700Y0117625D01*
X0154486Y0117625D02*
X0153251Y0118859D01*
X0153868Y0118859D02*
X0152017Y0118859D01*
X0152017Y0117625D02*
X0152017Y0121328D01*
X0153868Y0121328D01*
X0154486Y0120711D01*
X0154486Y0119477D01*
X0153868Y0118859D01*
X0155700Y0120094D02*
X0156934Y0121328D01*
X0156934Y0117625D01*
X0159383Y0117625D02*
X0161852Y0120094D01*
X0161852Y0120711D01*
X0161235Y0121328D01*
X0160000Y0121328D01*
X0159383Y0120711D01*
X0159383Y0117625D02*
X0161852Y0117625D01*
X0272765Y0168123D02*
X0273382Y0167506D01*
X0274616Y0167506D01*
X0275234Y0168123D01*
X0276448Y0167506D02*
X0278917Y0169975D01*
X0278917Y0170592D01*
X0278300Y0171209D01*
X0277065Y0171209D01*
X0276448Y0170592D01*
X0275234Y0170592D02*
X0274616Y0171209D01*
X0273382Y0171209D01*
X0272765Y0170592D01*
X0272765Y0168123D01*
X0276448Y0167506D02*
X0278917Y0167506D01*
X0280131Y0167506D02*
X0282600Y0169975D01*
X0282600Y0170592D01*
X0281983Y0171209D01*
X0280748Y0171209D01*
X0280131Y0170592D01*
X0280131Y0167506D02*
X0282600Y0167506D01*
X0317462Y0167443D02*
X0317462Y0168677D01*
X0318079Y0169294D01*
X0318697Y0169294D01*
X0319314Y0168677D01*
X0319314Y0167443D01*
X0318697Y0166826D01*
X0318079Y0166826D01*
X0317462Y0167443D01*
X0319314Y0167443D02*
X0319931Y0166826D01*
X0320548Y0166826D01*
X0321165Y0167443D01*
X0321165Y0168677D01*
X0320548Y0169294D01*
X0319931Y0169294D01*
X0319314Y0168677D01*
X0319314Y0165611D02*
X0319931Y0164994D01*
X0319931Y0163143D01*
X0319931Y0164377D02*
X0321165Y0165611D01*
X0319314Y0165611D02*
X0318079Y0165611D01*
X0317462Y0164994D01*
X0317462Y0163143D01*
X0321165Y0163143D01*
X0331892Y0163118D02*
X0331892Y0164969D01*
X0332509Y0165587D01*
X0333744Y0165587D01*
X0334361Y0164969D01*
X0334361Y0163118D01*
X0335595Y0163118D02*
X0331892Y0163118D01*
X0334361Y0164352D02*
X0335595Y0165587D01*
X0333744Y0166801D02*
X0333744Y0169270D01*
X0335595Y0168653D02*
X0331892Y0168653D01*
X0333744Y0166801D01*
X0288989Y0125725D02*
X0286520Y0123257D01*
X0287137Y0122640D01*
X0288372Y0122640D01*
X0288989Y0123257D01*
X0288989Y0125725D01*
X0288372Y0126343D01*
X0287137Y0126343D01*
X0286520Y0125725D01*
X0286520Y0123257D01*
X0285306Y0122640D02*
X0282837Y0122640D01*
X0285306Y0125108D01*
X0285306Y0125725D01*
X0284688Y0126343D01*
X0283454Y0126343D01*
X0282837Y0125725D01*
X0281622Y0125725D02*
X0281622Y0124491D01*
X0281005Y0123874D01*
X0279154Y0123874D01*
X0280388Y0123874D02*
X0281622Y0122640D01*
X0279154Y0122640D02*
X0279154Y0126343D01*
X0281005Y0126343D01*
X0281622Y0125725D01*
X0307299Y0105899D02*
X0307299Y0104665D01*
X0307916Y0104048D01*
X0308533Y0104048D01*
X0309150Y0104665D01*
X0309150Y0106516D01*
X0307916Y0106516D02*
X0307299Y0105899D01*
X0307916Y0106516D02*
X0310385Y0106516D01*
X0311002Y0105899D01*
X0311002Y0104665D01*
X0310385Y0104048D01*
X0311002Y0102833D02*
X0311002Y0100364D01*
X0311002Y0099150D02*
X0309767Y0097916D01*
X0309767Y0098533D02*
X0309767Y0096681D01*
X0311002Y0096681D02*
X0307299Y0096681D01*
X0307299Y0098533D01*
X0307916Y0099150D01*
X0309150Y0099150D01*
X0309767Y0098533D01*
X0308533Y0100364D02*
X0307299Y0101599D01*
X0311002Y0101599D01*
X0302831Y0091414D02*
X0302831Y0087711D01*
X0301597Y0087711D02*
X0304066Y0087711D01*
X0301597Y0090180D02*
X0302831Y0091414D01*
X0300383Y0090797D02*
X0299765Y0091414D01*
X0298531Y0091414D01*
X0297914Y0090797D01*
X0296699Y0090797D02*
X0296082Y0091414D01*
X0294848Y0091414D01*
X0294231Y0090797D01*
X0294231Y0088328D01*
X0294848Y0087711D01*
X0296082Y0087711D01*
X0296699Y0088328D01*
X0297914Y0087711D02*
X0300383Y0090180D01*
X0300383Y0090797D01*
X0300383Y0087711D02*
X0297914Y0087711D01*
X0287536Y0098391D02*
X0287536Y0099009D01*
X0290005Y0101477D01*
X0290005Y0102095D01*
X0287536Y0102095D01*
X0286321Y0101477D02*
X0285704Y0102095D01*
X0283853Y0102095D01*
X0283853Y0098391D01*
X0283853Y0099626D02*
X0285704Y0099626D01*
X0286321Y0100243D01*
X0286321Y0101477D01*
X0285087Y0099626D02*
X0286321Y0098391D01*
X0321143Y0092993D02*
X0321143Y0090524D01*
X0321760Y0089310D02*
X0321143Y0088692D01*
X0321143Y0087458D01*
X0321760Y0086841D01*
X0324228Y0086841D01*
X0324846Y0087458D01*
X0324846Y0088692D01*
X0324228Y0089310D01*
X0324228Y0090524D02*
X0324846Y0090524D01*
X0324228Y0090524D02*
X0321760Y0092993D01*
X0321143Y0092993D01*
X0334293Y0092560D02*
X0334293Y0091326D01*
X0334910Y0090709D01*
X0335527Y0090709D01*
X0336144Y0091326D01*
X0336144Y0093178D01*
X0334910Y0093178D02*
X0334293Y0092560D01*
X0334910Y0093178D02*
X0337379Y0093178D01*
X0337996Y0092560D01*
X0337996Y0091326D01*
X0337379Y0090709D01*
X0337996Y0089495D02*
X0336761Y0088260D01*
X0336761Y0088877D02*
X0336761Y0087026D01*
X0337996Y0087026D02*
X0334293Y0087026D01*
X0334293Y0088877D01*
X0334910Y0089495D01*
X0336144Y0089495D01*
X0336761Y0088877D01*
X0337107Y0072959D02*
X0338958Y0072959D01*
X0339575Y0072342D01*
X0339575Y0071108D01*
X0338958Y0070491D01*
X0337107Y0070491D01*
X0338341Y0070491D02*
X0339575Y0069256D01*
X0342024Y0069256D02*
X0342024Y0071108D01*
X0343259Y0072342D01*
X0343259Y0072959D01*
X0344473Y0072342D02*
X0345090Y0072959D01*
X0346325Y0072959D01*
X0346942Y0072342D01*
X0348156Y0072959D02*
X0350625Y0072959D01*
X0349391Y0072959D02*
X0349391Y0069256D01*
X0351839Y0069256D02*
X0351839Y0071725D01*
X0353074Y0072959D01*
X0354308Y0071725D01*
X0354308Y0069256D01*
X0355522Y0069256D02*
X0357991Y0069256D01*
X0358285Y0066959D02*
X0358285Y0063256D01*
X0357070Y0063256D02*
X0354602Y0063256D01*
X0357070Y0065725D01*
X0357070Y0066342D01*
X0356453Y0066959D01*
X0355219Y0066959D01*
X0354602Y0066342D01*
X0353387Y0066342D02*
X0353387Y0065725D01*
X0352770Y0065108D01*
X0353387Y0064491D01*
X0353387Y0063873D01*
X0352770Y0063256D01*
X0351536Y0063256D01*
X0350919Y0063873D01*
X0352153Y0065108D02*
X0352770Y0065108D01*
X0353387Y0066342D02*
X0352770Y0066959D01*
X0351536Y0066959D01*
X0350919Y0066342D01*
X0351839Y0071108D02*
X0354308Y0071108D01*
X0355522Y0072959D02*
X0355522Y0069256D01*
X0358902Y0065108D02*
X0360754Y0063256D01*
X0361968Y0063256D02*
X0361968Y0066959D01*
X0360754Y0066959D02*
X0358285Y0064491D01*
X0361968Y0065108D02*
X0364437Y0065108D01*
X0365651Y0065725D02*
X0368120Y0065725D01*
X0365651Y0063256D01*
X0368120Y0063256D01*
X0364437Y0063256D02*
X0364437Y0066959D01*
X0364740Y0069256D02*
X0363506Y0069256D01*
X0362889Y0069873D01*
X0362889Y0070491D01*
X0363506Y0071108D01*
X0364740Y0071108D01*
X0365357Y0070491D01*
X0365357Y0069873D01*
X0364740Y0069256D01*
X0366572Y0069256D02*
X0369041Y0071725D01*
X0370255Y0072342D02*
X0370872Y0072959D01*
X0372107Y0072959D01*
X0372724Y0072342D01*
X0372724Y0071725D01*
X0372107Y0071108D01*
X0372724Y0070491D01*
X0372724Y0069873D01*
X0372107Y0069256D01*
X0370872Y0069256D01*
X0370255Y0069873D01*
X0369041Y0069256D02*
X0366572Y0071725D01*
X0365357Y0071725D02*
X0364740Y0071108D01*
X0365357Y0071725D02*
X0365357Y0072342D01*
X0364740Y0072959D01*
X0363506Y0072959D01*
X0362889Y0072342D01*
X0362889Y0071725D01*
X0363506Y0071108D01*
X0371489Y0071108D02*
X0372107Y0071108D01*
X0373938Y0069873D02*
X0374555Y0069873D01*
X0374555Y0069256D01*
X0373938Y0069256D01*
X0373938Y0069873D01*
X0375780Y0069873D02*
X0376397Y0069256D01*
X0377631Y0069256D01*
X0378248Y0069873D01*
X0378248Y0070491D01*
X0377631Y0071108D01*
X0376397Y0071108D01*
X0375780Y0071725D01*
X0375780Y0072342D01*
X0376397Y0072959D01*
X0377631Y0072959D01*
X0378248Y0072342D01*
X0378248Y0071725D01*
X0377631Y0071108D01*
X0376397Y0071108D02*
X0375780Y0070491D01*
X0375780Y0069873D01*
X0379463Y0069256D02*
X0379463Y0071725D01*
X0380080Y0071725D01*
X0380697Y0071108D01*
X0381314Y0071725D01*
X0381932Y0071108D01*
X0381932Y0069256D01*
X0383146Y0069256D02*
X0383146Y0071725D01*
X0383763Y0071725D01*
X0384380Y0071108D01*
X0384998Y0071725D01*
X0385615Y0071108D01*
X0385615Y0069256D01*
X0384380Y0069256D02*
X0384380Y0071108D01*
X0380697Y0071108D02*
X0380697Y0069256D01*
X0346942Y0069873D02*
X0346325Y0069256D01*
X0345090Y0069256D01*
X0344473Y0069873D01*
X0345090Y0071108D02*
X0346325Y0071108D01*
X0346942Y0070491D01*
X0346942Y0069873D01*
X0345090Y0071108D02*
X0344473Y0071725D01*
X0344473Y0072342D01*
X0342024Y0071108D02*
X0340790Y0072342D01*
X0340790Y0072959D01*
X0337107Y0072959D02*
X0337107Y0069256D01*
X0335892Y0069873D02*
X0335275Y0069256D01*
X0334041Y0069256D01*
X0333424Y0069873D01*
X0333424Y0072342D01*
X0334041Y0072959D01*
X0335275Y0072959D01*
X0335892Y0072342D01*
X0152211Y0214892D02*
X0152211Y0216126D01*
X0151593Y0216743D01*
X0152211Y0217958D02*
X0149742Y0220426D01*
X0149125Y0220426D01*
X0148507Y0219809D01*
X0148507Y0218575D01*
X0149125Y0217958D01*
X0149125Y0216743D02*
X0148507Y0216126D01*
X0148507Y0214892D01*
X0149125Y0214274D01*
X0151593Y0214274D01*
X0152211Y0214892D01*
X0152211Y0217958D02*
X0152211Y0220426D01*
X0150359Y0221641D02*
X0150359Y0224109D01*
X0148507Y0223492D02*
X0150359Y0221641D01*
X0152211Y0223492D02*
X0148507Y0223492D01*
X0139754Y0223307D02*
X0139754Y0225775D01*
X0139754Y0224541D02*
X0136051Y0224541D01*
X0137286Y0223307D01*
X0137903Y0222092D02*
X0138520Y0221475D01*
X0138520Y0219623D01*
X0139754Y0219623D02*
X0136051Y0219623D01*
X0136051Y0221475D01*
X0136668Y0222092D01*
X0137903Y0222092D01*
X0138520Y0220858D02*
X0139754Y0222092D01*
X0139137Y0226990D02*
X0139754Y0227607D01*
X0139754Y0228841D01*
X0139137Y0229459D01*
X0137903Y0229459D01*
X0137286Y0228841D01*
X0137286Y0228224D01*
X0137903Y0226990D01*
X0136051Y0226990D01*
X0136051Y0229459D01*
X0136394Y0232977D02*
X0136394Y0235446D01*
X0137628Y0236680D01*
X0138862Y0235446D01*
X0138862Y0232977D01*
X0138862Y0234829D02*
X0136394Y0234829D01*
X0135179Y0234829D02*
X0132710Y0234829D01*
X0131496Y0236680D02*
X0129027Y0236680D01*
X0129027Y0232977D01*
X0131496Y0232977D01*
X0130262Y0234829D02*
X0129027Y0234829D01*
X0127813Y0234212D02*
X0127813Y0233595D01*
X0127196Y0232977D01*
X0125961Y0232977D01*
X0125344Y0233595D01*
X0124130Y0232977D02*
X0124130Y0236680D01*
X0125344Y0236063D02*
X0125344Y0235446D01*
X0125961Y0234829D01*
X0127196Y0234829D01*
X0127813Y0234212D01*
X0127813Y0236063D02*
X0127196Y0236680D01*
X0125961Y0236680D01*
X0125344Y0236063D01*
X0124130Y0232977D02*
X0121661Y0236680D01*
X0121661Y0232977D01*
X0120447Y0232977D02*
X0117978Y0232977D01*
X0117978Y0236680D01*
X0120447Y0236680D01*
X0119212Y0234829D02*
X0117978Y0234829D01*
X0116764Y0234212D02*
X0116764Y0233595D01*
X0116146Y0232977D01*
X0114912Y0232977D01*
X0114295Y0233595D01*
X0113080Y0234212D02*
X0111846Y0232977D01*
X0110612Y0234212D01*
X0110612Y0236680D01*
X0113080Y0236680D02*
X0113080Y0234212D01*
X0114295Y0235446D02*
X0114912Y0234829D01*
X0116146Y0234829D01*
X0116764Y0234212D01*
X0116764Y0236063D02*
X0116146Y0236680D01*
X0114912Y0236680D01*
X0114295Y0236063D01*
X0114295Y0235446D01*
X0136100Y0240040D02*
X0136100Y0241891D01*
X0136717Y0242508D01*
X0137952Y0242508D01*
X0138569Y0241891D01*
X0138569Y0240040D01*
X0138569Y0241274D02*
X0139803Y0242508D01*
X0139803Y0243723D02*
X0139803Y0246192D01*
X0139803Y0244957D02*
X0136100Y0244957D01*
X0137334Y0243723D01*
X0137952Y0247406D02*
X0137952Y0249875D01*
X0139803Y0249258D02*
X0136100Y0249258D01*
X0137952Y0247406D01*
X0139803Y0240040D02*
X0136100Y0240040D01*
X0149511Y0239558D02*
X0149511Y0238324D01*
X0150128Y0237706D01*
X0150128Y0236492D02*
X0149511Y0235875D01*
X0149511Y0234640D01*
X0150128Y0234023D01*
X0152597Y0234023D01*
X0153214Y0234640D01*
X0153214Y0235875D01*
X0152597Y0236492D01*
X0153214Y0237706D02*
X0150745Y0240175D01*
X0150128Y0240175D01*
X0149511Y0239558D01*
X0149511Y0241390D02*
X0151362Y0241390D01*
X0150745Y0242624D01*
X0150745Y0243241D01*
X0151362Y0243858D01*
X0152597Y0243858D01*
X0153214Y0243241D01*
X0153214Y0242007D01*
X0152597Y0241390D01*
X0153214Y0240175D02*
X0153214Y0237706D01*
X0149511Y0241390D02*
X0149511Y0243858D01*
X0148940Y0269427D02*
X0151408Y0269427D01*
X0152025Y0270044D01*
X0152025Y0271279D01*
X0151408Y0271896D01*
X0152025Y0273110D02*
X0149557Y0275579D01*
X0148940Y0275579D01*
X0148322Y0274962D01*
X0148322Y0273728D01*
X0148940Y0273110D01*
X0148940Y0271896D02*
X0148322Y0271279D01*
X0148322Y0270044D01*
X0148940Y0269427D01*
X0152025Y0273110D02*
X0152025Y0275579D01*
X0151408Y0276794D02*
X0152025Y0277411D01*
X0152025Y0278645D01*
X0151408Y0279262D01*
X0150791Y0279262D01*
X0150174Y0278645D01*
X0150174Y0278028D01*
X0150174Y0278645D02*
X0149557Y0279262D01*
X0148940Y0279262D01*
X0148322Y0278645D01*
X0148322Y0277411D01*
X0148940Y0276794D01*
X0162370Y0280115D02*
X0162987Y0279498D01*
X0164222Y0279498D01*
X0164839Y0280115D01*
X0164839Y0283201D01*
X0166053Y0283201D02*
X0168522Y0279498D01*
X0168522Y0283201D01*
X0169737Y0283201D02*
X0170971Y0283201D01*
X0170354Y0283201D02*
X0170354Y0279498D01*
X0169737Y0279498D02*
X0170971Y0279498D01*
X0174521Y0279394D02*
X0176373Y0279394D01*
X0176990Y0280011D01*
X0176990Y0280629D01*
X0176373Y0281246D01*
X0174521Y0281246D01*
X0174521Y0283097D02*
X0176373Y0283097D01*
X0176990Y0282480D01*
X0176990Y0281863D01*
X0176373Y0281246D01*
X0178204Y0283097D02*
X0179439Y0283097D01*
X0178822Y0283097D02*
X0178822Y0279394D01*
X0179439Y0279394D02*
X0178204Y0279394D01*
X0174521Y0279394D02*
X0174521Y0283097D01*
X0166053Y0283201D02*
X0166053Y0279498D01*
X0162370Y0280115D02*
X0162370Y0283201D01*
D14*
X0100922Y0243786D02*
X0097653Y0243786D01*
X0097653Y0238881D01*
X0100922Y0238881D01*
X0099288Y0241333D02*
X0097653Y0241333D01*
X0095766Y0239699D02*
X0094949Y0238881D01*
X0093314Y0238881D01*
X0092496Y0239699D01*
X0092496Y0242968D01*
X0093314Y0243786D01*
X0094949Y0243786D01*
X0095766Y0242968D01*
X0090610Y0242968D02*
X0090610Y0241333D01*
X0089792Y0240516D01*
X0087340Y0240516D01*
X0087340Y0238881D02*
X0087340Y0243786D01*
X0089792Y0243786D01*
X0090610Y0242968D01*
X0088975Y0240516D02*
X0090610Y0238881D01*
X0085453Y0239699D02*
X0085453Y0243786D01*
X0082184Y0243786D02*
X0082184Y0239699D01*
X0083001Y0238881D01*
X0084636Y0238881D01*
X0085453Y0239699D01*
X0080297Y0239699D02*
X0080297Y0242968D01*
X0079479Y0243786D01*
X0077845Y0243786D01*
X0077027Y0242968D01*
X0077027Y0239699D01*
X0077845Y0238881D01*
X0079479Y0238881D01*
X0080297Y0239699D01*
X0075140Y0239699D02*
X0074323Y0238881D01*
X0072688Y0238881D01*
X0071871Y0239699D01*
X0072688Y0241333D02*
X0074323Y0241333D01*
X0075140Y0240516D01*
X0075140Y0239699D01*
X0072688Y0241333D02*
X0071871Y0242151D01*
X0071871Y0242968D01*
X0072688Y0243786D01*
X0074323Y0243786D01*
X0075140Y0242968D01*
X0073782Y0188357D02*
X0072147Y0188357D01*
X0071330Y0187539D01*
X0071330Y0186722D01*
X0072147Y0185905D01*
X0073782Y0185905D01*
X0074599Y0185087D01*
X0074599Y0184270D01*
X0073782Y0183452D01*
X0072147Y0183452D01*
X0071330Y0184270D01*
X0074599Y0187539D02*
X0073782Y0188357D01*
X0076486Y0187539D02*
X0076486Y0184270D01*
X0077303Y0183452D01*
X0078938Y0183452D01*
X0079756Y0184270D01*
X0079756Y0187539D01*
X0078938Y0188357D01*
X0077303Y0188357D01*
X0076486Y0187539D01*
X0081643Y0188357D02*
X0081643Y0184270D01*
X0082460Y0183452D01*
X0084095Y0183452D01*
X0084912Y0184270D01*
X0084912Y0188357D01*
X0086799Y0188357D02*
X0089251Y0188357D01*
X0090068Y0187539D01*
X0090068Y0185905D01*
X0089251Y0185087D01*
X0086799Y0185087D01*
X0086799Y0183452D02*
X0086799Y0188357D01*
X0088434Y0185087D02*
X0090068Y0183452D01*
X0091955Y0184270D02*
X0091955Y0187539D01*
X0092773Y0188357D01*
X0094407Y0188357D01*
X0095225Y0187539D01*
X0097112Y0188357D02*
X0097112Y0183452D01*
X0100381Y0183452D01*
X0098746Y0185905D02*
X0097112Y0185905D01*
X0097112Y0188357D02*
X0100381Y0188357D01*
X0095225Y0184270D02*
X0094407Y0183452D01*
X0092773Y0183452D01*
X0091955Y0184270D01*
X0210957Y0173311D02*
X0210957Y0170775D01*
X0211591Y0170141D01*
X0212858Y0170141D01*
X0213492Y0170775D01*
X0213492Y0172043D01*
X0212225Y0172043D01*
X0213492Y0173311D02*
X0212858Y0173945D01*
X0211591Y0173945D01*
X0210957Y0173311D01*
X0215100Y0173945D02*
X0217636Y0170141D01*
X0217636Y0173945D01*
X0219244Y0173945D02*
X0219244Y0170141D01*
X0221145Y0170141D01*
X0221779Y0170775D01*
X0221779Y0173311D01*
X0221145Y0173945D01*
X0219244Y0173945D01*
X0215100Y0173945D02*
X0215100Y0170141D01*
X0339107Y0170744D02*
X0339107Y0168209D01*
X0339741Y0167575D01*
X0341009Y0167575D01*
X0341643Y0168209D01*
X0341643Y0169477D01*
X0340375Y0169477D01*
X0339107Y0170744D02*
X0339741Y0171378D01*
X0341009Y0171378D01*
X0341643Y0170744D01*
X0343251Y0171378D02*
X0345786Y0167575D01*
X0345786Y0171378D01*
X0347394Y0171378D02*
X0349296Y0171378D01*
X0349930Y0170744D01*
X0349930Y0168209D01*
X0349296Y0167575D01*
X0347394Y0167575D01*
X0347394Y0171378D01*
X0343251Y0171378D02*
X0343251Y0167575D01*
D15*
X0106827Y0161331D03*
D16*
X0106927Y0161131D03*
D17*
X0106827Y0160931D03*
D18*
X0106827Y0160731D03*
D19*
X0106827Y0160531D03*
D20*
X0106927Y0160331D03*
D21*
X0119827Y0160131D03*
X0093827Y0160131D03*
X0094627Y0148131D03*
X0094827Y0147931D03*
X0094227Y0139731D03*
X0094427Y0139531D03*
X0094627Y0139331D03*
X0096627Y0137731D03*
X0096827Y0137531D03*
X0115027Y0132131D03*
X0115027Y0131931D03*
D22*
X0115127Y0131731D03*
X0115127Y0131531D03*
X0115127Y0131331D03*
X0119927Y0125931D03*
X0097927Y0125931D03*
X0097127Y0137131D03*
X0096927Y0137331D03*
X0093927Y0140131D03*
X0093727Y0143131D03*
X0095527Y0144531D03*
X0095127Y0147531D03*
X0094927Y0147731D03*
X0094527Y0148331D03*
X0094327Y0148531D03*
X0094127Y0148731D03*
X0093927Y0149131D03*
X0120127Y0159931D03*
D23*
X0120227Y0159731D03*
X0093627Y0159931D03*
X0093627Y0149931D03*
X0093627Y0149731D03*
X0093827Y0149531D03*
X0093827Y0149331D03*
X0094027Y0148931D03*
X0095227Y0147331D03*
X0095427Y0147131D03*
X0095427Y0146931D03*
X0095627Y0146531D03*
X0095627Y0146331D03*
X0095627Y0144731D03*
X0093627Y0142931D03*
X0093627Y0140731D03*
X0093627Y0140531D03*
X0093827Y0140331D03*
X0094027Y0139931D03*
X0097227Y0136931D03*
X0097227Y0136731D03*
X0097427Y0136531D03*
X0097427Y0136331D03*
X0097627Y0126531D03*
X0097627Y0126331D03*
X0097827Y0126131D03*
X0115027Y0130931D03*
X0115027Y0131131D03*
X0120227Y0126331D03*
X0120227Y0126131D03*
D24*
X0120327Y0126531D03*
X0120327Y0126731D03*
X0120327Y0126931D03*
X0120327Y0127131D03*
X0120327Y0127331D03*
X0120327Y0127531D03*
X0120327Y0127731D03*
X0120327Y0127931D03*
X0120327Y0128131D03*
X0120327Y0128331D03*
X0120327Y0128531D03*
X0120327Y0128731D03*
X0120327Y0128931D03*
X0120327Y0129131D03*
X0120327Y0129331D03*
X0120327Y0129531D03*
X0120327Y0129731D03*
X0120327Y0129931D03*
X0120327Y0130131D03*
X0120327Y0130331D03*
X0120327Y0130531D03*
X0120327Y0130731D03*
X0120327Y0130931D03*
X0120327Y0131131D03*
X0120327Y0131331D03*
X0120327Y0131531D03*
X0120327Y0131731D03*
X0120327Y0131931D03*
X0120327Y0132131D03*
X0120327Y0132331D03*
X0120327Y0132531D03*
X0120327Y0132731D03*
X0120327Y0132931D03*
X0120327Y0133131D03*
X0120327Y0133331D03*
X0120327Y0133531D03*
X0120327Y0133731D03*
X0120327Y0133931D03*
X0120327Y0134131D03*
X0120327Y0134331D03*
X0120327Y0134531D03*
X0120327Y0134731D03*
X0120327Y0134931D03*
X0120327Y0135131D03*
X0120327Y0135331D03*
X0120327Y0135531D03*
X0120327Y0135731D03*
X0120327Y0135931D03*
X0120327Y0136131D03*
X0120327Y0136331D03*
X0120327Y0136531D03*
X0120327Y0136731D03*
X0120327Y0136931D03*
X0120327Y0137131D03*
X0120327Y0137331D03*
X0120327Y0137531D03*
X0120327Y0137731D03*
X0120327Y0137931D03*
X0120327Y0138131D03*
X0120327Y0138331D03*
X0120327Y0138531D03*
X0120327Y0138731D03*
X0120327Y0138931D03*
X0120327Y0139131D03*
X0120327Y0139331D03*
X0120327Y0139531D03*
X0120327Y0139731D03*
X0120327Y0139931D03*
X0120327Y0140131D03*
X0120327Y0140331D03*
X0120327Y0140531D03*
X0120327Y0140731D03*
X0120327Y0140931D03*
X0120327Y0141131D03*
X0120327Y0141331D03*
X0120327Y0141531D03*
X0120327Y0141731D03*
X0120327Y0141931D03*
X0120327Y0142131D03*
X0120327Y0142331D03*
X0120327Y0142531D03*
X0120327Y0142731D03*
X0120327Y0142931D03*
X0120327Y0143131D03*
X0120327Y0143331D03*
X0120327Y0143531D03*
X0120327Y0143731D03*
X0120327Y0143931D03*
X0120327Y0144131D03*
X0120327Y0144331D03*
X0120327Y0144531D03*
X0120327Y0144731D03*
X0120327Y0144931D03*
X0120327Y0145131D03*
X0120327Y0145331D03*
X0120327Y0145531D03*
X0120327Y0145731D03*
X0120327Y0145931D03*
X0120327Y0146131D03*
X0120327Y0146331D03*
X0120327Y0146531D03*
X0120327Y0146731D03*
X0120327Y0146931D03*
X0120327Y0147131D03*
X0120327Y0147331D03*
X0120327Y0147531D03*
X0120327Y0147731D03*
X0120327Y0147931D03*
X0120327Y0148131D03*
X0120327Y0148331D03*
X0120327Y0148531D03*
X0120327Y0148731D03*
X0120327Y0148931D03*
X0120327Y0149131D03*
X0120327Y0149331D03*
X0120327Y0149531D03*
X0120327Y0149731D03*
X0120327Y0149931D03*
X0120327Y0150131D03*
X0120327Y0150331D03*
X0120327Y0150531D03*
X0120327Y0150731D03*
X0120327Y0150931D03*
X0120327Y0151131D03*
X0120327Y0151331D03*
X0120327Y0151531D03*
X0120327Y0151731D03*
X0120327Y0151931D03*
X0120327Y0152131D03*
X0120327Y0152331D03*
X0120327Y0152531D03*
X0120327Y0152731D03*
X0120327Y0152931D03*
X0120327Y0153131D03*
X0120327Y0153331D03*
X0120327Y0153531D03*
X0120327Y0153731D03*
X0120327Y0153931D03*
X0120327Y0154131D03*
X0120327Y0154331D03*
X0120327Y0154531D03*
X0120327Y0154731D03*
X0120327Y0154931D03*
X0120327Y0155131D03*
X0120327Y0155331D03*
X0120327Y0155531D03*
X0120327Y0155731D03*
X0120327Y0155931D03*
X0120327Y0156131D03*
X0120327Y0156331D03*
X0120327Y0156531D03*
X0120327Y0156731D03*
X0120327Y0156931D03*
X0120327Y0157131D03*
X0120327Y0157331D03*
X0120327Y0157531D03*
X0120327Y0157731D03*
X0120327Y0157931D03*
X0120327Y0158131D03*
X0120327Y0158331D03*
X0120327Y0158531D03*
X0120327Y0158731D03*
X0120327Y0158931D03*
X0120327Y0159131D03*
X0120327Y0159331D03*
X0120327Y0159531D03*
X0093527Y0159531D03*
X0093527Y0159331D03*
X0093527Y0159131D03*
X0093527Y0158931D03*
X0093527Y0158731D03*
X0093527Y0158531D03*
X0093527Y0158331D03*
X0093527Y0158131D03*
X0093527Y0157931D03*
X0093527Y0157731D03*
X0093527Y0157531D03*
X0093527Y0157331D03*
X0093527Y0157131D03*
X0093527Y0156931D03*
X0093527Y0156731D03*
X0093527Y0156531D03*
X0093527Y0156331D03*
X0093527Y0156131D03*
X0093527Y0155931D03*
X0093527Y0155731D03*
X0093527Y0155531D03*
X0093527Y0155331D03*
X0093527Y0155131D03*
X0093527Y0154931D03*
X0093527Y0154731D03*
X0093527Y0154531D03*
X0093527Y0154331D03*
X0093527Y0154131D03*
X0093527Y0153931D03*
X0093527Y0153731D03*
X0093527Y0153531D03*
X0093527Y0153331D03*
X0093527Y0153131D03*
X0093527Y0152931D03*
X0093527Y0152731D03*
X0093527Y0152531D03*
X0093527Y0152331D03*
X0093527Y0152131D03*
X0093527Y0151931D03*
X0093527Y0151731D03*
X0093527Y0151531D03*
X0093527Y0151331D03*
X0093527Y0151131D03*
X0093527Y0150931D03*
X0093527Y0150731D03*
X0093527Y0150531D03*
X0093527Y0150331D03*
X0093527Y0150131D03*
X0095527Y0146731D03*
X0095727Y0146131D03*
X0095727Y0145931D03*
X0095727Y0145731D03*
X0095727Y0145531D03*
X0095727Y0145331D03*
X0095727Y0145131D03*
X0095727Y0144931D03*
X0093527Y0142731D03*
X0093527Y0142531D03*
X0093527Y0142331D03*
X0093527Y0142131D03*
X0093527Y0141931D03*
X0093527Y0141731D03*
X0093527Y0141531D03*
X0093527Y0141331D03*
X0093527Y0141131D03*
X0093527Y0140931D03*
X0097527Y0136131D03*
X0097527Y0135931D03*
X0097527Y0135731D03*
X0097527Y0135531D03*
X0097527Y0135331D03*
X0097527Y0135131D03*
X0097527Y0134931D03*
X0097527Y0134731D03*
X0097527Y0134531D03*
X0097527Y0134331D03*
X0097527Y0134131D03*
X0097527Y0133931D03*
X0097527Y0133731D03*
X0097527Y0133531D03*
X0097527Y0133331D03*
X0097527Y0133131D03*
X0097527Y0132931D03*
X0097527Y0132731D03*
X0097527Y0132531D03*
X0097527Y0132331D03*
X0097527Y0132131D03*
X0097527Y0131931D03*
X0097527Y0131731D03*
X0097527Y0131531D03*
X0097527Y0131331D03*
X0097527Y0131131D03*
X0097527Y0130931D03*
X0097527Y0130731D03*
X0097527Y0130531D03*
X0097527Y0130331D03*
X0097527Y0130131D03*
X0097527Y0129931D03*
X0097527Y0129731D03*
X0097527Y0129531D03*
X0097527Y0129331D03*
X0097527Y0129131D03*
X0097527Y0128931D03*
X0097527Y0128731D03*
X0097527Y0128531D03*
X0097527Y0128331D03*
X0097527Y0128131D03*
X0097527Y0127931D03*
X0097527Y0127731D03*
X0097527Y0127531D03*
X0097527Y0127331D03*
X0097527Y0127131D03*
X0097527Y0126931D03*
X0097527Y0126731D03*
X0115127Y0130331D03*
X0115127Y0130531D03*
X0115127Y0130731D03*
X0093527Y0159731D03*
D25*
X0095127Y0144331D03*
X0096127Y0138131D03*
X0096327Y0137931D03*
X0115127Y0132731D03*
X0115127Y0132531D03*
X0115127Y0132331D03*
D26*
X0115127Y0133531D03*
X0115127Y0133731D03*
X0094927Y0144131D03*
X0094527Y0143731D03*
X0094327Y0143531D03*
D27*
X0094627Y0143931D03*
X0115027Y0134331D03*
X0115027Y0134131D03*
X0115027Y0133931D03*
D28*
X0115027Y0133331D03*
X0115027Y0133131D03*
X0115027Y0132931D03*
X0095827Y0138331D03*
X0095627Y0138531D03*
X0095427Y0138731D03*
X0095027Y0138931D03*
X0094827Y0139131D03*
X0094227Y0143331D03*
D29*
X0115023Y0135525D03*
D30*
X0115027Y0135331D03*
X0115027Y0135131D03*
X0115027Y0134931D03*
D31*
X0115127Y0134731D03*
X0115127Y0134531D03*
D32*
X0115027Y0130131D03*
X0115027Y0129931D03*
D33*
X0115127Y0129731D03*
X0115127Y0129531D03*
X0115127Y0129331D03*
D34*
X0115027Y0129131D03*
X0115027Y0128931D03*
D35*
X0115127Y0128731D03*
X0115127Y0128531D03*
X0115127Y0128331D03*
D36*
X0115027Y0128131D03*
D37*
X0108927Y0125731D03*
D38*
X0108927Y0125531D03*
D39*
X0109027Y0125331D03*
D40*
X0109027Y0125131D03*
D41*
X0108927Y0124931D03*
D42*
X0108927Y0124731D03*
D43*
X0106127Y0128731D02*
X0101523Y0128731D01*
X0103057Y0130266D01*
X0101523Y0131801D01*
X0106127Y0131801D01*
X0106127Y0133335D02*
X0106127Y0134870D01*
X0106127Y0134103D02*
X0103057Y0134103D01*
X0103057Y0133335D01*
X0101523Y0134103D02*
X0100756Y0134103D01*
X0103825Y0136405D02*
X0105359Y0136405D01*
X0106127Y0137172D01*
X0106127Y0139474D01*
X0106127Y0141008D02*
X0103057Y0141008D01*
X0103057Y0139474D02*
X0103057Y0137172D01*
X0103825Y0136405D01*
X0104592Y0141008D02*
X0103057Y0142543D01*
X0103057Y0143310D01*
X0103825Y0144845D02*
X0105359Y0144845D01*
X0106127Y0145612D01*
X0106127Y0147147D01*
X0105359Y0147914D01*
X0103825Y0147914D01*
X0103057Y0147147D01*
X0103057Y0145612D01*
X0103825Y0144845D01*
X0103057Y0149449D02*
X0103825Y0150216D01*
X0103825Y0151751D01*
X0104592Y0152518D01*
X0105359Y0152518D01*
X0106127Y0151751D01*
X0106127Y0150216D01*
X0105359Y0149449D01*
X0103057Y0149449D02*
X0102290Y0149449D01*
X0101523Y0150216D01*
X0101523Y0151751D01*
X0102290Y0152518D01*
X0101523Y0154053D02*
X0101523Y0156355D01*
X0102290Y0157122D01*
X0105359Y0157122D01*
X0106127Y0156355D01*
X0106127Y0154053D01*
X0101523Y0154053D01*
X0158561Y0195499D02*
X0158561Y0198568D01*
X0157027Y0197033D02*
X0160096Y0197033D01*
X0162076Y0200371D02*
X0162078Y0200420D01*
X0162084Y0200469D01*
X0162093Y0200517D01*
X0162107Y0200564D01*
X0162124Y0200610D01*
X0162145Y0200654D01*
X0162169Y0200697D01*
X0162197Y0200738D01*
X0162227Y0200776D01*
X0162261Y0200812D01*
X0162297Y0200845D01*
X0162336Y0200874D01*
X0162377Y0200901D01*
X0162421Y0200925D01*
X0162465Y0200944D01*
X0162512Y0200961D01*
X0162559Y0200973D01*
X0162607Y0200982D01*
X0162656Y0200987D01*
X0162705Y0200988D01*
X0162754Y0200985D01*
X0162803Y0200978D01*
X0162851Y0200968D01*
X0162898Y0200953D01*
X0162943Y0200935D01*
X0162987Y0200913D01*
X0163029Y0200888D01*
X0163069Y0200860D01*
X0163107Y0200828D01*
X0163142Y0200794D01*
X0163174Y0200757D01*
X0163203Y0200718D01*
X0163229Y0200676D01*
X0163252Y0200632D01*
X0163271Y0200587D01*
X0163286Y0200541D01*
X0163298Y0200493D01*
X0163306Y0200444D01*
X0163310Y0200396D01*
X0163310Y0200346D01*
X0163306Y0200298D01*
X0163298Y0200249D01*
X0163286Y0200201D01*
X0163271Y0200155D01*
X0163252Y0200110D01*
X0163229Y0200066D01*
X0163203Y0200024D01*
X0163174Y0199985D01*
X0163142Y0199948D01*
X0163107Y0199914D01*
X0163069Y0199882D01*
X0163029Y0199854D01*
X0162987Y0199829D01*
X0162943Y0199807D01*
X0162898Y0199789D01*
X0162851Y0199774D01*
X0162803Y0199764D01*
X0162754Y0199757D01*
X0162705Y0199754D01*
X0162656Y0199755D01*
X0162607Y0199760D01*
X0162559Y0199769D01*
X0162512Y0199781D01*
X0162465Y0199798D01*
X0162421Y0199817D01*
X0162377Y0199841D01*
X0162336Y0199868D01*
X0162297Y0199897D01*
X0162261Y0199930D01*
X0162227Y0199966D01*
X0162197Y0200004D01*
X0162169Y0200045D01*
X0162145Y0200088D01*
X0162124Y0200132D01*
X0162107Y0200178D01*
X0162093Y0200225D01*
X0162084Y0200273D01*
X0162078Y0200322D01*
X0162076Y0200371D01*
X0161096Y0213033D02*
X0158027Y0213033D01*
X0158561Y0250499D02*
X0158561Y0253568D01*
X0157027Y0252033D02*
X0160096Y0252033D01*
X0162076Y0255371D02*
X0162078Y0255420D01*
X0162084Y0255469D01*
X0162093Y0255517D01*
X0162107Y0255564D01*
X0162124Y0255610D01*
X0162145Y0255654D01*
X0162169Y0255697D01*
X0162197Y0255738D01*
X0162227Y0255776D01*
X0162261Y0255812D01*
X0162297Y0255845D01*
X0162336Y0255874D01*
X0162377Y0255901D01*
X0162421Y0255925D01*
X0162465Y0255944D01*
X0162512Y0255961D01*
X0162559Y0255973D01*
X0162607Y0255982D01*
X0162656Y0255987D01*
X0162705Y0255988D01*
X0162754Y0255985D01*
X0162803Y0255978D01*
X0162851Y0255968D01*
X0162898Y0255953D01*
X0162943Y0255935D01*
X0162987Y0255913D01*
X0163029Y0255888D01*
X0163069Y0255860D01*
X0163107Y0255828D01*
X0163142Y0255794D01*
X0163174Y0255757D01*
X0163203Y0255718D01*
X0163229Y0255676D01*
X0163252Y0255632D01*
X0163271Y0255587D01*
X0163286Y0255541D01*
X0163298Y0255493D01*
X0163306Y0255444D01*
X0163310Y0255396D01*
X0163310Y0255346D01*
X0163306Y0255298D01*
X0163298Y0255249D01*
X0163286Y0255201D01*
X0163271Y0255155D01*
X0163252Y0255110D01*
X0163229Y0255066D01*
X0163203Y0255024D01*
X0163174Y0254985D01*
X0163142Y0254948D01*
X0163107Y0254914D01*
X0163069Y0254882D01*
X0163029Y0254854D01*
X0162987Y0254829D01*
X0162943Y0254807D01*
X0162898Y0254789D01*
X0162851Y0254774D01*
X0162803Y0254764D01*
X0162754Y0254757D01*
X0162705Y0254754D01*
X0162656Y0254755D01*
X0162607Y0254760D01*
X0162559Y0254769D01*
X0162512Y0254781D01*
X0162465Y0254798D01*
X0162421Y0254817D01*
X0162377Y0254841D01*
X0162336Y0254868D01*
X0162297Y0254897D01*
X0162261Y0254930D01*
X0162227Y0254966D01*
X0162197Y0255004D01*
X0162169Y0255045D01*
X0162145Y0255088D01*
X0162124Y0255132D01*
X0162107Y0255178D01*
X0162093Y0255225D01*
X0162084Y0255273D01*
X0162078Y0255322D01*
X0162076Y0255371D01*
X0161096Y0268033D02*
X0158027Y0268033D01*
X0276845Y0286742D02*
X0277612Y0285975D01*
X0279146Y0285975D01*
X0279914Y0286742D01*
X0279914Y0290579D01*
X0281448Y0289812D02*
X0281448Y0289044D01*
X0282216Y0288277D01*
X0283750Y0288277D01*
X0284518Y0287510D01*
X0284518Y0286742D01*
X0283750Y0285975D01*
X0282216Y0285975D01*
X0281448Y0286742D01*
X0281448Y0289812D02*
X0282216Y0290579D01*
X0283750Y0290579D01*
X0284518Y0289812D01*
X0286052Y0290579D02*
X0288354Y0290579D01*
X0289122Y0289812D01*
X0289122Y0289044D01*
X0288354Y0288277D01*
X0286052Y0288277D01*
X0286052Y0285975D02*
X0286052Y0290579D01*
X0288354Y0288277D02*
X0289122Y0287510D01*
X0289122Y0286742D01*
X0288354Y0285975D01*
X0286052Y0285975D01*
X0290656Y0285208D02*
X0293726Y0285208D01*
X0295260Y0285975D02*
X0295260Y0290579D01*
X0297562Y0290579D01*
X0298330Y0289812D01*
X0298330Y0288277D01*
X0297562Y0287510D01*
X0295260Y0287510D01*
X0299864Y0285975D02*
X0299864Y0290579D01*
X0302933Y0290579D02*
X0302933Y0285975D01*
X0301399Y0287510D01*
X0299864Y0285975D01*
X0304468Y0285975D02*
X0304468Y0290579D01*
X0306770Y0290579D01*
X0307537Y0289812D01*
X0307537Y0288277D01*
X0306770Y0287510D01*
X0304468Y0287510D01*
X0306003Y0287510D02*
X0307537Y0285975D01*
X0312900Y0280197D02*
X0314435Y0278662D01*
X0315969Y0280197D01*
X0315969Y0275593D01*
X0317504Y0276360D02*
X0318271Y0275593D01*
X0319806Y0275593D01*
X0320573Y0276360D01*
X0322108Y0275593D02*
X0322108Y0280197D01*
X0324410Y0280197D01*
X0325177Y0279429D01*
X0325177Y0277895D01*
X0324410Y0277127D01*
X0322108Y0277127D01*
X0320573Y0279429D02*
X0319806Y0280197D01*
X0318271Y0280197D01*
X0317504Y0279429D01*
X0317504Y0276360D01*
X0312900Y0275593D02*
X0312900Y0280197D01*
X0326712Y0279429D02*
X0327479Y0280197D01*
X0329014Y0280197D01*
X0329781Y0279429D01*
X0329781Y0278662D01*
X0329014Y0277895D01*
X0329781Y0277127D01*
X0329781Y0276360D01*
X0329014Y0275593D01*
X0327479Y0275593D01*
X0326712Y0276360D01*
X0328246Y0277895D02*
X0329014Y0277895D01*
X0331316Y0279429D02*
X0332083Y0280197D01*
X0333618Y0280197D01*
X0334385Y0279429D01*
X0334385Y0278662D01*
X0331316Y0275593D01*
X0334385Y0275593D01*
X0335920Y0276360D02*
X0338989Y0279429D01*
X0338989Y0276360D01*
X0338221Y0275593D01*
X0336687Y0275593D01*
X0335920Y0276360D01*
X0335920Y0279429D01*
X0336687Y0280197D01*
X0338221Y0280197D01*
X0338989Y0279429D01*
X0340523Y0279429D02*
X0340523Y0278662D01*
X0341291Y0277895D01*
X0342825Y0277895D01*
X0343593Y0277127D01*
X0343593Y0276360D01*
X0342825Y0275593D01*
X0341291Y0275593D01*
X0340523Y0276360D01*
X0340523Y0277127D01*
X0341291Y0277895D01*
X0342825Y0277895D02*
X0343593Y0278662D01*
X0343593Y0279429D01*
X0342825Y0280197D01*
X0341291Y0280197D01*
X0340523Y0279429D01*
X0325740Y0304735D02*
X0319047Y0304735D01*
X0319047Y0309066D02*
X0325740Y0309066D01*
X0359905Y0328480D02*
X0360505Y0327879D01*
X0361706Y0327879D01*
X0362307Y0328480D01*
X0363588Y0327879D02*
X0365990Y0327879D01*
X0364789Y0327879D02*
X0364789Y0331482D01*
X0363588Y0330281D01*
X0362307Y0330882D02*
X0361706Y0331482D01*
X0360505Y0331482D01*
X0359905Y0330882D01*
X0359905Y0328480D01*
X0367271Y0328480D02*
X0367271Y0329080D01*
X0367872Y0329681D01*
X0369073Y0329681D01*
X0369673Y0329080D01*
X0369673Y0328480D01*
X0369073Y0327879D01*
X0367872Y0327879D01*
X0367271Y0328480D01*
X0367872Y0329681D02*
X0367271Y0330281D01*
X0367271Y0330882D01*
X0367872Y0331482D01*
X0369073Y0331482D01*
X0369673Y0330882D01*
X0369673Y0330281D01*
X0369073Y0329681D01*
X0317772Y0332074D02*
X0317172Y0331473D01*
X0314770Y0331473D01*
X0314169Y0332074D01*
X0314169Y0333275D01*
X0314770Y0333875D01*
X0315370Y0335156D02*
X0314169Y0336357D01*
X0317772Y0336357D01*
X0317772Y0335156D02*
X0317772Y0337558D01*
X0317172Y0333875D02*
X0317772Y0333275D01*
X0317772Y0332074D01*
X0276845Y0290579D02*
X0276845Y0286742D01*
X0397781Y0213563D02*
X0397781Y0212029D01*
X0398548Y0211261D01*
X0398548Y0209727D02*
X0397781Y0208959D01*
X0397781Y0207425D01*
X0398548Y0206658D01*
X0401617Y0206658D01*
X0402385Y0207425D01*
X0402385Y0208959D01*
X0401617Y0209727D01*
X0402385Y0211261D02*
X0399315Y0214331D01*
X0398548Y0214331D01*
X0397781Y0213563D01*
X0402385Y0214331D02*
X0402385Y0211261D01*
X0377104Y0143795D02*
X0374034Y0143795D01*
X0377104Y0140726D01*
X0377871Y0141493D01*
X0377871Y0143028D01*
X0377104Y0143795D01*
X0377104Y0140726D02*
X0374034Y0140726D01*
X0373267Y0141493D01*
X0373267Y0143028D01*
X0374034Y0143795D01*
X0374034Y0139191D02*
X0373267Y0138424D01*
X0373267Y0136889D01*
X0374034Y0136122D01*
X0374034Y0134587D02*
X0373267Y0133820D01*
X0373267Y0132285D01*
X0374034Y0131518D01*
X0374034Y0134587D02*
X0374802Y0134587D01*
X0377871Y0131518D01*
X0377871Y0134587D01*
X0377871Y0136122D02*
X0374802Y0139191D01*
X0374034Y0139191D01*
X0377871Y0139191D02*
X0377871Y0136122D01*
X0377871Y0129983D02*
X0377871Y0126914D01*
X0377871Y0128449D02*
X0373267Y0128449D01*
X0374802Y0126914D01*
X0375569Y0125379D02*
X0376336Y0124612D01*
X0376336Y0122310D01*
X0376336Y0123845D02*
X0377871Y0125379D01*
X0375569Y0125379D02*
X0374034Y0125379D01*
X0373267Y0124612D01*
X0373267Y0122310D01*
X0377871Y0122310D01*
X0377104Y0120775D02*
X0377871Y0120008D01*
X0377871Y0118473D01*
X0377104Y0117706D01*
X0374034Y0117706D01*
X0373267Y0118473D01*
X0373267Y0120008D01*
X0374034Y0120775D01*
X0332779Y0129049D02*
X0332012Y0128282D01*
X0330477Y0128282D01*
X0329710Y0129049D01*
X0328175Y0128282D02*
X0325106Y0128282D01*
X0328175Y0131351D01*
X0328175Y0132118D01*
X0327408Y0132886D01*
X0325873Y0132886D01*
X0325106Y0132118D01*
X0323571Y0132886D02*
X0320502Y0132886D01*
X0320502Y0130584D01*
X0322036Y0131351D01*
X0322804Y0131351D01*
X0323571Y0130584D01*
X0323571Y0129049D01*
X0322804Y0128282D01*
X0321269Y0128282D01*
X0320502Y0129049D01*
X0318967Y0129049D02*
X0318200Y0128282D01*
X0316665Y0128282D01*
X0315898Y0129049D01*
X0315898Y0129816D01*
X0316665Y0130584D01*
X0318200Y0130584D01*
X0318967Y0129816D01*
X0318967Y0129049D01*
X0318200Y0130584D02*
X0318967Y0131351D01*
X0318967Y0132118D01*
X0318200Y0132886D01*
X0316665Y0132886D01*
X0315898Y0132118D01*
X0315898Y0131351D01*
X0316665Y0130584D01*
X0314363Y0132886D02*
X0311294Y0132886D01*
X0311294Y0128282D01*
X0309759Y0129049D02*
X0308992Y0128282D01*
X0307457Y0128282D01*
X0306690Y0129049D01*
X0306690Y0132118D01*
X0307457Y0132886D01*
X0308992Y0132886D01*
X0309759Y0132118D01*
X0311294Y0130584D02*
X0312829Y0130584D01*
X0305155Y0130584D02*
X0305155Y0132118D01*
X0304388Y0132886D01*
X0302086Y0132886D01*
X0302086Y0128282D01*
X0302086Y0129816D02*
X0304388Y0129816D01*
X0305155Y0130584D01*
X0329710Y0132118D02*
X0330477Y0132886D01*
X0332012Y0132886D01*
X0332779Y0132118D01*
X0332779Y0131351D01*
X0332012Y0130584D01*
X0332779Y0129816D01*
X0332779Y0129049D01*
X0332012Y0130584D02*
X0331244Y0130584D01*
X0252807Y0073828D02*
X0252040Y0074595D01*
X0250505Y0074595D01*
X0249738Y0073828D01*
X0252807Y0073828D02*
X0252807Y0073060D01*
X0249738Y0069991D01*
X0252807Y0069991D01*
X0248203Y0069991D02*
X0245134Y0069991D01*
X0246668Y0069991D02*
X0246668Y0074595D01*
X0245134Y0073060D01*
X0243599Y0072293D02*
X0240530Y0072293D01*
X0238995Y0072293D02*
X0238995Y0073828D01*
X0238228Y0074595D01*
X0235926Y0074595D01*
X0235926Y0069991D01*
X0235926Y0071526D02*
X0238228Y0071526D01*
X0238995Y0072293D01*
X0234391Y0071526D02*
X0234391Y0070758D01*
X0233624Y0069991D01*
X0232089Y0069991D01*
X0231322Y0070758D01*
X0229787Y0069991D02*
X0226718Y0069991D01*
X0226718Y0074595D01*
X0229787Y0074595D01*
X0231322Y0073828D02*
X0231322Y0073060D01*
X0232089Y0072293D01*
X0233624Y0072293D01*
X0234391Y0071526D01*
X0234391Y0073828D02*
X0233624Y0074595D01*
X0232089Y0074595D01*
X0231322Y0073828D01*
X0228253Y0072293D02*
X0226718Y0072293D01*
D44*
X0154371Y0141888D02*
X0154371Y0144557D01*
X0153704Y0146492D02*
X0154371Y0147160D01*
X0154371Y0148494D01*
X0153704Y0149161D01*
X0151035Y0149161D01*
X0150368Y0148494D01*
X0150368Y0147160D01*
X0151035Y0146492D01*
X0153704Y0146492D01*
X0157868Y0146492D02*
X0159202Y0147827D01*
X0157868Y0149161D01*
X0161871Y0149161D01*
X0161204Y0151096D02*
X0161871Y0151763D01*
X0161871Y0153098D01*
X0161204Y0153765D01*
X0158535Y0153765D01*
X0157868Y0153098D01*
X0157868Y0151763D01*
X0158535Y0151096D01*
X0161204Y0151096D01*
X0161871Y0146492D02*
X0157868Y0146492D01*
X0154371Y0151096D02*
X0151702Y0151096D01*
X0150368Y0152431D01*
X0151702Y0153765D01*
X0154371Y0153765D01*
X0154371Y0155700D02*
X0154371Y0157702D01*
X0153704Y0158369D01*
X0151035Y0158369D01*
X0150368Y0157702D01*
X0150368Y0155700D01*
X0154371Y0155700D01*
X0152370Y0153765D02*
X0152370Y0151096D01*
X0146871Y0150796D02*
X0146871Y0149461D01*
X0146204Y0148794D01*
X0143535Y0148794D01*
X0142868Y0149461D01*
X0142868Y0150796D01*
X0143535Y0151463D01*
X0146204Y0151463D01*
X0146871Y0150796D01*
X0146204Y0153398D02*
X0146871Y0154065D01*
X0146871Y0155400D01*
X0146204Y0156067D01*
X0143535Y0156067D01*
X0142868Y0155400D01*
X0142868Y0154065D01*
X0143535Y0153398D01*
X0146204Y0153398D01*
X0142868Y0158002D02*
X0142868Y0160671D01*
X0142868Y0159337D02*
X0146871Y0159337D01*
X0150368Y0160304D02*
X0150368Y0162973D01*
X0150368Y0164908D02*
X0150368Y0166910D01*
X0151035Y0167577D01*
X0152370Y0167577D01*
X0153037Y0166910D01*
X0153037Y0164908D01*
X0154371Y0164908D02*
X0150368Y0164908D01*
X0153037Y0166242D02*
X0154371Y0167577D01*
X0154371Y0162973D02*
X0154371Y0160304D01*
X0150368Y0160304D01*
X0152370Y0160304D02*
X0152370Y0161639D01*
X0157868Y0162973D02*
X0157868Y0160304D01*
X0161871Y0160304D01*
X0161871Y0162973D01*
X0159870Y0161639D02*
X0159870Y0160304D01*
X0161204Y0158369D02*
X0158535Y0158369D01*
X0157868Y0157702D01*
X0157868Y0155700D01*
X0161871Y0155700D01*
X0161871Y0157702D01*
X0161204Y0158369D01*
X0144870Y0162606D02*
X0144870Y0165275D01*
X0145537Y0146859D02*
X0146204Y0146859D01*
X0146871Y0146192D01*
X0146871Y0144190D01*
X0142868Y0144190D01*
X0142868Y0146192D01*
X0143535Y0146859D01*
X0144202Y0146859D01*
X0144870Y0146192D01*
X0144870Y0144190D01*
X0144870Y0146192D02*
X0145537Y0146859D01*
X0150368Y0141888D02*
X0154371Y0141888D01*
X0309827Y0177531D02*
X0412827Y0177531D01*
X0412827Y0300531D01*
X0309827Y0300531D01*
X0309827Y0177531D01*
X0235607Y0231372D02*
X0234940Y0230705D01*
X0232938Y0230705D01*
X0232938Y0234708D01*
X0234940Y0234708D01*
X0235607Y0234041D01*
X0235607Y0233374D01*
X0234940Y0232706D01*
X0232938Y0232706D01*
X0234940Y0232706D02*
X0235607Y0232039D01*
X0235607Y0231372D01*
X0231003Y0230037D02*
X0228334Y0230037D01*
X0226399Y0230705D02*
X0223730Y0230705D01*
X0223730Y0234708D01*
X0221795Y0234708D02*
X0219126Y0234708D01*
X0219126Y0230705D01*
X0221795Y0230705D01*
X0220461Y0232706D02*
X0219126Y0232706D01*
X0217192Y0232039D02*
X0217192Y0231372D01*
X0216524Y0230705D01*
X0215190Y0230705D01*
X0214523Y0231372D01*
X0215190Y0232706D02*
X0216524Y0232706D01*
X0217192Y0232039D01*
X0217192Y0234041D02*
X0216524Y0234708D01*
X0215190Y0234708D01*
X0214523Y0234041D01*
X0214523Y0233374D01*
X0215190Y0232706D01*
X0212588Y0230037D02*
X0209919Y0230037D01*
X0206649Y0232706D02*
X0205315Y0232706D01*
X0205315Y0230705D02*
X0205315Y0234708D01*
X0207984Y0234708D01*
X0203380Y0234708D02*
X0200711Y0234708D01*
X0200711Y0230705D01*
X0203380Y0230705D01*
X0202045Y0232706D02*
X0200711Y0232706D01*
X0198776Y0232706D02*
X0198109Y0232039D01*
X0196107Y0232039D01*
X0196107Y0230705D02*
X0196107Y0234708D01*
X0198109Y0234708D01*
X0198776Y0234041D01*
X0198776Y0232706D01*
X0197441Y0232039D02*
X0198776Y0230705D01*
X0160199Y0286433D02*
X0160199Y0289102D01*
X0158865Y0290437D01*
X0157531Y0289102D01*
X0157531Y0286433D01*
X0157531Y0288435D02*
X0160199Y0288435D01*
X0155596Y0285766D02*
X0152927Y0285766D01*
X0150992Y0286433D02*
X0148323Y0286433D01*
X0148323Y0290437D01*
X0146388Y0290437D02*
X0143719Y0290437D01*
X0143719Y0286433D01*
X0146388Y0286433D01*
X0145053Y0288435D02*
X0143719Y0288435D01*
X0141784Y0287768D02*
X0141784Y0287100D01*
X0141117Y0286433D01*
X0139782Y0286433D01*
X0139115Y0287100D01*
X0139782Y0288435D02*
X0141117Y0288435D01*
X0141784Y0287768D01*
X0141784Y0289769D02*
X0141117Y0290437D01*
X0139782Y0290437D01*
X0139115Y0289769D01*
X0139115Y0289102D01*
X0139782Y0288435D01*
X0137180Y0285766D02*
X0134511Y0285766D01*
X0131241Y0288435D02*
X0129907Y0288435D01*
X0129907Y0290437D02*
X0132576Y0290437D01*
X0129907Y0290437D02*
X0129907Y0286433D01*
X0127972Y0286433D02*
X0125303Y0286433D01*
X0125303Y0290437D01*
X0127972Y0290437D01*
X0126638Y0288435D02*
X0125303Y0288435D01*
X0123368Y0288435D02*
X0122701Y0287768D01*
X0120699Y0287768D01*
X0122034Y0287768D02*
X0123368Y0286433D01*
X0123368Y0288435D02*
X0123368Y0289769D01*
X0122701Y0290437D01*
X0120699Y0290437D01*
X0120699Y0286433D01*
D45*
X0098314Y0280069D02*
X0098314Y0275999D01*
X0097296Y0274981D01*
X0094243Y0274981D01*
X0094243Y0281087D01*
X0097296Y0281087D01*
X0098314Y0280069D01*
X0091868Y0279051D02*
X0091868Y0274981D01*
X0091868Y0278034D02*
X0087798Y0278034D01*
X0087798Y0279051D02*
X0089833Y0281087D01*
X0091868Y0279051D01*
X0087798Y0279051D02*
X0087798Y0274981D01*
X0085423Y0275999D02*
X0085423Y0280069D01*
X0084405Y0281087D01*
X0082370Y0281087D01*
X0081352Y0280069D01*
X0081352Y0275999D01*
X0082370Y0274981D01*
X0084405Y0274981D01*
X0085423Y0275999D01*
X0078977Y0274981D02*
X0074907Y0274981D01*
X0074907Y0281087D01*
X0074724Y0225934D02*
X0074724Y0219828D01*
X0078794Y0219828D01*
X0081169Y0220846D02*
X0082187Y0219828D01*
X0084222Y0219828D01*
X0085239Y0220846D01*
X0085239Y0224916D01*
X0084222Y0225934D01*
X0082187Y0225934D01*
X0081169Y0224916D01*
X0081169Y0220846D01*
X0087615Y0219828D02*
X0087615Y0223898D01*
X0089650Y0225934D01*
X0091685Y0223898D01*
X0091685Y0219828D01*
X0094060Y0219828D02*
X0094060Y0225934D01*
X0097113Y0225934D01*
X0098130Y0224916D01*
X0098130Y0220846D01*
X0097113Y0219828D01*
X0094060Y0219828D01*
X0091685Y0222881D02*
X0087615Y0222881D01*
X0287315Y0167725D02*
X0287315Y0161620D01*
X0291385Y0161620D01*
X0293761Y0162638D02*
X0294778Y0161620D01*
X0296813Y0161620D01*
X0297831Y0162638D01*
X0300206Y0161620D02*
X0303259Y0161620D01*
X0304276Y0162638D01*
X0304276Y0166708D01*
X0303259Y0167725D01*
X0300206Y0167725D01*
X0300206Y0161620D01*
X0297831Y0166708D02*
X0296813Y0167725D01*
X0294778Y0167725D01*
X0293761Y0166708D01*
X0293761Y0162638D01*
D46*
X0038751Y0187534D02*
X0035281Y0187534D01*
X0037016Y0189268D02*
X0037016Y0185799D01*
X0035281Y0221534D02*
X0038751Y0221534D01*
X0037016Y0240299D02*
X0037016Y0243768D01*
X0035281Y0242034D02*
X0038751Y0242034D01*
X0038751Y0276534D02*
X0035281Y0276534D01*
D47*
X0139959Y0087398D02*
X0143895Y0087398D01*
X0141927Y0087398D02*
X0141927Y0081493D01*
X0142540Y0078648D02*
X0139587Y0078648D01*
X0139587Y0072743D01*
X0139587Y0074711D02*
X0142540Y0074711D01*
X0143524Y0075695D01*
X0143524Y0077664D01*
X0142540Y0078648D01*
X0146033Y0078648D02*
X0149970Y0078648D01*
X0150341Y0081493D02*
X0146404Y0087398D01*
X0150341Y0087398D02*
X0146404Y0081493D01*
X0146033Y0078648D02*
X0146033Y0072743D01*
X0143524Y0072743D02*
X0141556Y0074711D01*
X0146033Y0075695D02*
X0148001Y0075695D01*
X0144869Y0069132D02*
X0144869Y0068148D01*
X0144869Y0066180D02*
X0144869Y0062243D01*
X0145853Y0062243D02*
X0143884Y0062243D01*
X0141376Y0062243D02*
X0138423Y0062243D01*
X0137439Y0063227D01*
X0137439Y0065195D01*
X0138423Y0066180D01*
X0141376Y0066180D01*
X0141376Y0068148D02*
X0141376Y0062243D01*
X0143884Y0066180D02*
X0144869Y0066180D01*
X0148181Y0065195D02*
X0149166Y0066180D01*
X0152118Y0066180D01*
X0151134Y0064211D02*
X0149166Y0064211D01*
X0148181Y0065195D01*
X0148181Y0062243D02*
X0151134Y0062243D01*
X0152118Y0063227D01*
X0151134Y0064211D01*
X0154627Y0062243D02*
X0156595Y0064211D01*
X0156595Y0066180D01*
X0154627Y0068148D01*
X0158924Y0065195D02*
X0158924Y0063227D01*
X0159908Y0062243D01*
X0162861Y0062243D01*
X0165369Y0063227D02*
X0166354Y0062243D01*
X0168322Y0062243D01*
X0169306Y0063227D01*
X0169306Y0065195D01*
X0168322Y0066180D01*
X0166354Y0066180D01*
X0165369Y0065195D01*
X0165369Y0063227D01*
X0162861Y0066180D02*
X0159908Y0066180D01*
X0158924Y0065195D01*
X0160892Y0072743D02*
X0159908Y0073727D01*
X0159908Y0077664D01*
X0158924Y0076680D02*
X0160892Y0076680D01*
X0163221Y0075695D02*
X0163221Y0073727D01*
X0164205Y0072743D01*
X0166173Y0072743D01*
X0167158Y0073727D01*
X0167158Y0075695D01*
X0166173Y0076680D01*
X0164205Y0076680D01*
X0163221Y0075695D01*
X0176112Y0075695D02*
X0178080Y0075695D01*
X0176112Y0072743D02*
X0180049Y0072743D01*
X0182557Y0073727D02*
X0183542Y0072743D01*
X0185510Y0072743D01*
X0186494Y0073727D01*
X0186494Y0074711D01*
X0185510Y0075695D01*
X0183542Y0075695D01*
X0182557Y0076680D01*
X0182557Y0077664D01*
X0183542Y0078648D01*
X0185510Y0078648D01*
X0186494Y0077664D01*
X0189003Y0078648D02*
X0191955Y0078648D01*
X0192940Y0077664D01*
X0192940Y0075695D01*
X0191955Y0074711D01*
X0189003Y0074711D01*
X0189003Y0072743D02*
X0189003Y0078648D01*
X0182568Y0081493D02*
X0178632Y0087398D01*
X0176123Y0086414D02*
X0176123Y0084445D01*
X0175139Y0083461D01*
X0172186Y0083461D01*
X0172186Y0081493D02*
X0172186Y0087398D01*
X0175139Y0087398D01*
X0176123Y0086414D01*
X0174154Y0083461D02*
X0176123Y0081493D01*
X0178632Y0081493D02*
X0182568Y0087398D01*
X0180049Y0078648D02*
X0176112Y0078648D01*
X0176112Y0072743D01*
X0174767Y0066180D02*
X0175752Y0065195D01*
X0175752Y0062243D01*
X0178260Y0062243D02*
X0178260Y0066180D01*
X0181213Y0066180D01*
X0182197Y0065195D01*
X0182197Y0062243D01*
X0184706Y0063227D02*
X0184706Y0065195D01*
X0185690Y0066180D01*
X0187658Y0066180D01*
X0188643Y0065195D01*
X0188643Y0064211D01*
X0184706Y0064211D01*
X0184706Y0063227D02*
X0185690Y0062243D01*
X0187658Y0062243D01*
X0191151Y0063227D02*
X0192136Y0062243D01*
X0195088Y0062243D01*
X0198581Y0063227D02*
X0198581Y0067164D01*
X0197597Y0066180D02*
X0199565Y0066180D01*
X0198581Y0063227D02*
X0199565Y0062243D01*
X0195088Y0066180D02*
X0192136Y0066180D01*
X0191151Y0065195D01*
X0191151Y0063227D01*
X0174767Y0066180D02*
X0171815Y0066180D01*
X0171815Y0062243D01*
X0159295Y0081493D02*
X0163232Y0087398D01*
X0135110Y0068148D02*
X0133142Y0066180D01*
X0133142Y0064211D01*
X0135110Y0062243D01*
D48*
X0289744Y0112494D02*
X0292244Y0109994D01*
X0297244Y0109994D01*
X0299744Y0112494D01*
X0299744Y0117494D01*
X0297244Y0119994D01*
X0299744Y0122494D01*
X0299744Y0127494D01*
X0297244Y0129994D01*
X0292244Y0129994D01*
X0289744Y0127494D01*
X0289744Y0122494D01*
X0292244Y0119994D01*
X0289744Y0117494D01*
X0289744Y0112494D01*
X0286677Y0139935D02*
X0286677Y0159226D01*
X0342976Y0159226D01*
X0342976Y0139935D01*
X0286677Y0139935D01*
X0343262Y0093837D02*
X0343262Y0078089D01*
X0345231Y0078089D01*
X0351924Y0078089D02*
X0366884Y0078089D01*
X0373577Y0078089D02*
X0375546Y0078089D01*
X0375546Y0093837D01*
X0373577Y0093837D01*
X0366884Y0093837D02*
X0351924Y0093837D01*
X0345231Y0093837D02*
X0343262Y0093837D01*
X0292165Y0199311D02*
X0287165Y0199311D01*
X0284665Y0201811D01*
X0282165Y0199311D01*
X0277165Y0199311D01*
X0274665Y0201811D01*
X0272165Y0199311D01*
X0267165Y0199311D01*
X0264665Y0201811D01*
X0264665Y0206811D01*
X0267165Y0209311D01*
X0272165Y0209311D01*
X0274665Y0206811D01*
X0277165Y0209311D01*
X0282165Y0209311D01*
X0284665Y0206811D01*
X0287165Y0209311D01*
X0292165Y0209311D01*
X0294665Y0206811D01*
X0294665Y0201811D01*
X0292165Y0199311D01*
X0193997Y0230316D02*
X0191497Y0227816D01*
X0186497Y0227816D01*
X0183997Y0230316D01*
X0181497Y0227816D01*
X0176497Y0227816D01*
X0173997Y0230316D01*
X0171497Y0227816D01*
X0166497Y0227816D01*
X0163997Y0230316D01*
X0163997Y0235316D01*
X0166497Y0237816D01*
X0171497Y0237816D01*
X0173997Y0235316D01*
X0176497Y0237816D01*
X0181497Y0237816D01*
X0183997Y0235316D01*
X0186497Y0237816D01*
X0191497Y0237816D01*
X0193997Y0235316D01*
X0193997Y0230316D01*
X0172437Y0210070D02*
X0161217Y0210070D01*
X0161217Y0198993D01*
X0172437Y0198993D01*
X0172437Y0210070D01*
X0132213Y0224807D02*
X0103079Y0224807D01*
X0103079Y0184256D01*
X0132213Y0184256D01*
X0132213Y0224807D01*
X0108492Y0224512D02*
X0108492Y0223134D01*
X0107114Y0221756D01*
X0103669Y0221756D01*
X0103669Y0214866D02*
X0107114Y0214866D01*
X0108492Y0213488D01*
X0108492Y0209354D01*
X0107114Y0207976D01*
X0103669Y0207976D01*
X0103669Y0201086D02*
X0107114Y0201086D01*
X0108492Y0199708D01*
X0108492Y0195575D01*
X0107114Y0194197D01*
X0103669Y0194197D01*
X0103669Y0187307D02*
X0107114Y0187307D01*
X0108492Y0185929D01*
X0108492Y0184551D01*
X0072827Y0195031D02*
X0072827Y0200031D01*
X0070327Y0202531D01*
X0065327Y0202531D01*
X0062827Y0200031D01*
X0060327Y0202531D01*
X0055327Y0202531D01*
X0052827Y0200031D01*
X0050327Y0202531D01*
X0045327Y0202531D01*
X0042827Y0200031D01*
X0042827Y0195031D01*
X0045327Y0192531D01*
X0050327Y0192531D01*
X0052827Y0195031D01*
X0055327Y0192531D01*
X0060327Y0192531D01*
X0062827Y0195031D01*
X0065327Y0192531D01*
X0070327Y0192531D01*
X0072827Y0195031D01*
X0070327Y0206531D02*
X0065327Y0206531D01*
X0062827Y0209031D01*
X0060327Y0206531D01*
X0055327Y0206531D01*
X0052827Y0209031D01*
X0050327Y0206531D01*
X0045327Y0206531D01*
X0042827Y0209031D01*
X0042827Y0214031D01*
X0045327Y0216531D01*
X0050327Y0216531D01*
X0052827Y0214031D01*
X0055327Y0216531D01*
X0060327Y0216531D01*
X0062827Y0214031D01*
X0065327Y0216531D01*
X0070327Y0216531D01*
X0072827Y0214031D01*
X0072827Y0209031D01*
X0070327Y0206531D01*
X0103079Y0239256D02*
X0103079Y0279807D01*
X0132213Y0279807D01*
X0132213Y0239256D01*
X0103079Y0239256D01*
X0103669Y0242307D02*
X0107114Y0242307D01*
X0108492Y0240929D01*
X0108492Y0239551D01*
X0107114Y0249197D02*
X0103669Y0249197D01*
X0107114Y0249197D02*
X0108492Y0250575D01*
X0108492Y0254708D01*
X0107114Y0256086D01*
X0103669Y0256086D01*
X0103669Y0262976D02*
X0107114Y0262976D01*
X0108492Y0264354D01*
X0108492Y0268488D01*
X0107114Y0269866D01*
X0103669Y0269866D01*
X0103669Y0276756D02*
X0107114Y0276756D01*
X0108492Y0278134D01*
X0108492Y0279512D01*
X0081737Y0292402D02*
X0081737Y0297402D01*
X0079237Y0299902D01*
X0074237Y0299902D01*
X0071737Y0297402D01*
X0069237Y0299902D01*
X0064237Y0299902D01*
X0061737Y0297402D01*
X0059237Y0299902D01*
X0054237Y0299902D01*
X0051737Y0297402D01*
X0051737Y0292402D01*
X0054237Y0289902D01*
X0059237Y0289902D01*
X0061737Y0292402D01*
X0064237Y0289902D01*
X0069237Y0289902D01*
X0071737Y0292402D01*
X0074237Y0289902D01*
X0079237Y0289902D01*
X0081737Y0292402D01*
X0070327Y0271531D02*
X0072827Y0269031D01*
X0072827Y0264031D01*
X0070327Y0261531D01*
X0065327Y0261531D01*
X0062827Y0264031D01*
X0060327Y0261531D01*
X0055327Y0261531D01*
X0052827Y0264031D01*
X0050327Y0261531D01*
X0045327Y0261531D01*
X0042827Y0264031D01*
X0042827Y0269031D01*
X0045327Y0271531D01*
X0050327Y0271531D01*
X0052827Y0269031D01*
X0055327Y0271531D01*
X0060327Y0271531D01*
X0062827Y0269031D01*
X0065327Y0271531D01*
X0070327Y0271531D01*
X0070327Y0257531D02*
X0072827Y0255031D01*
X0072827Y0250031D01*
X0070327Y0247531D01*
X0065327Y0247531D01*
X0062827Y0250031D01*
X0060327Y0247531D01*
X0055327Y0247531D01*
X0052827Y0250031D01*
X0050327Y0247531D01*
X0045327Y0247531D01*
X0042827Y0250031D01*
X0042827Y0255031D01*
X0045327Y0257531D01*
X0050327Y0257531D01*
X0052827Y0255031D01*
X0055327Y0257531D01*
X0060327Y0257531D01*
X0062827Y0255031D01*
X0065327Y0257531D01*
X0070327Y0257531D01*
X0151081Y0300040D02*
X0151081Y0306746D01*
X0148846Y0306746D02*
X0153317Y0306746D01*
X0155752Y0306746D02*
X0155752Y0300040D01*
X0160222Y0300040D01*
X0162658Y0300040D02*
X0167128Y0304511D01*
X0167128Y0305629D01*
X0166011Y0306746D01*
X0163775Y0306746D01*
X0162658Y0305629D01*
X0162658Y0300040D02*
X0167128Y0300040D01*
X0169564Y0301158D02*
X0170681Y0300040D01*
X0172917Y0300040D01*
X0174034Y0301158D01*
X0174034Y0303393D01*
X0172917Y0304511D01*
X0171799Y0304511D01*
X0169564Y0303393D01*
X0169564Y0306746D01*
X0174034Y0306746D01*
X0176470Y0306746D02*
X0180940Y0306746D01*
X0180940Y0305629D01*
X0176470Y0301158D01*
X0176470Y0300040D01*
X0183376Y0301158D02*
X0184493Y0300040D01*
X0186728Y0300040D01*
X0187846Y0301158D01*
X0187846Y0303393D01*
X0186728Y0304511D01*
X0185611Y0304511D01*
X0183376Y0303393D01*
X0183376Y0306746D01*
X0187846Y0306746D01*
X0190281Y0306746D02*
X0190281Y0300040D01*
X0190281Y0303393D02*
X0194752Y0303393D01*
X0197187Y0302276D02*
X0199423Y0300040D01*
X0201658Y0302276D01*
X0201658Y0306746D01*
X0197187Y0306746D02*
X0197187Y0302276D01*
X0194752Y0300040D02*
X0194752Y0306746D01*
X0189826Y0292631D02*
X0192326Y0290131D01*
X0192326Y0285131D01*
X0189826Y0282631D01*
X0184826Y0282631D01*
X0182326Y0285131D01*
X0179826Y0282631D01*
X0174826Y0282631D01*
X0172326Y0285131D01*
X0169826Y0282631D01*
X0164826Y0282631D01*
X0162326Y0285131D01*
X0162326Y0290131D01*
X0164826Y0292631D01*
X0169826Y0292631D01*
X0172326Y0290131D01*
X0174826Y0292631D01*
X0179826Y0292631D01*
X0182326Y0290131D01*
X0184826Y0292631D01*
X0189826Y0292631D01*
X0172437Y0265070D02*
X0161217Y0265070D01*
X0161217Y0253993D01*
X0172437Y0253993D01*
X0172437Y0265070D01*
X0087826Y0328887D02*
X0086592Y0327653D01*
X0081655Y0332591D01*
X0080420Y0331356D01*
X0080420Y0328887D01*
X0081655Y0327653D01*
X0086592Y0327653D01*
X0087826Y0328887D02*
X0087826Y0331356D01*
X0086592Y0332591D01*
X0081655Y0332591D01*
X0080420Y0335204D02*
X0080420Y0340141D01*
X0080420Y0337672D02*
X0087826Y0337672D01*
X0085358Y0340141D01*
X0086592Y0342754D02*
X0087826Y0343988D01*
X0087826Y0346457D01*
X0086592Y0347692D01*
X0081655Y0347692D01*
X0080420Y0346457D01*
X0080420Y0343988D01*
X0081655Y0342754D01*
X0284434Y0343494D02*
X0285668Y0342259D01*
X0288137Y0342259D01*
X0289371Y0343494D01*
X0291984Y0343494D02*
X0293219Y0342259D01*
X0295688Y0342259D01*
X0296922Y0343494D01*
X0296922Y0344728D01*
X0295688Y0345962D01*
X0294453Y0345962D01*
X0295688Y0345962D02*
X0296922Y0347197D01*
X0296922Y0348431D01*
X0295688Y0349666D01*
X0293219Y0349666D01*
X0291984Y0348431D01*
X0289371Y0348431D02*
X0288137Y0349666D01*
X0285668Y0349666D01*
X0284434Y0348431D01*
X0284434Y0343494D01*
X0306827Y0322378D02*
X0309327Y0324878D01*
X0314327Y0324878D01*
X0316827Y0322378D01*
X0319327Y0324878D01*
X0324327Y0324878D01*
X0326827Y0322378D01*
X0326827Y0317378D01*
X0324327Y0314878D01*
X0319327Y0314878D01*
X0316827Y0317378D01*
X0314327Y0314878D01*
X0309327Y0314878D01*
X0306827Y0317378D01*
X0306827Y0322378D01*
X0318092Y0268185D02*
X0318094Y0268256D01*
X0318100Y0268327D01*
X0318110Y0268398D01*
X0318124Y0268468D01*
X0318141Y0268537D01*
X0318163Y0268605D01*
X0318188Y0268671D01*
X0318217Y0268737D01*
X0318249Y0268800D01*
X0318285Y0268862D01*
X0318324Y0268921D01*
X0318367Y0268978D01*
X0318413Y0269033D01*
X0318461Y0269085D01*
X0318513Y0269135D01*
X0318567Y0269181D01*
X0318623Y0269224D01*
X0318682Y0269264D01*
X0318743Y0269301D01*
X0318806Y0269334D01*
X0318871Y0269364D01*
X0318937Y0269390D01*
X0319005Y0269413D01*
X0319074Y0269431D01*
X0319144Y0269446D01*
X0319214Y0269457D01*
X0319285Y0269464D01*
X0319356Y0269467D01*
X0319427Y0269466D01*
X0319499Y0269461D01*
X0319569Y0269452D01*
X0319639Y0269439D01*
X0319709Y0269423D01*
X0319777Y0269402D01*
X0319844Y0269378D01*
X0319910Y0269350D01*
X0319973Y0269318D01*
X0320035Y0269283D01*
X0320095Y0269245D01*
X0320153Y0269203D01*
X0320209Y0269158D01*
X0320261Y0269110D01*
X0320311Y0269059D01*
X0320359Y0269006D01*
X0320403Y0268950D01*
X0320444Y0268892D01*
X0320481Y0268831D01*
X0320515Y0268769D01*
X0320546Y0268704D01*
X0320573Y0268638D01*
X0320597Y0268571D01*
X0320616Y0268502D01*
X0320632Y0268433D01*
X0320644Y0268363D01*
X0320652Y0268292D01*
X0320656Y0268221D01*
X0320656Y0268149D01*
X0320652Y0268078D01*
X0320644Y0268007D01*
X0320632Y0267937D01*
X0320616Y0267868D01*
X0320597Y0267799D01*
X0320573Y0267732D01*
X0320546Y0267666D01*
X0320515Y0267601D01*
X0320481Y0267539D01*
X0320444Y0267478D01*
X0320403Y0267420D01*
X0320359Y0267364D01*
X0320311Y0267311D01*
X0320261Y0267260D01*
X0320209Y0267212D01*
X0320153Y0267167D01*
X0320095Y0267125D01*
X0320035Y0267087D01*
X0319973Y0267052D01*
X0319910Y0267020D01*
X0319844Y0266992D01*
X0319777Y0266968D01*
X0319709Y0266947D01*
X0319639Y0266931D01*
X0319569Y0266918D01*
X0319499Y0266909D01*
X0319427Y0266904D01*
X0319356Y0266903D01*
X0319285Y0266906D01*
X0319214Y0266913D01*
X0319144Y0266924D01*
X0319074Y0266939D01*
X0319005Y0266957D01*
X0318937Y0266980D01*
X0318871Y0267006D01*
X0318806Y0267036D01*
X0318743Y0267069D01*
X0318682Y0267106D01*
X0318623Y0267146D01*
X0318567Y0267189D01*
X0318513Y0267235D01*
X0318461Y0267285D01*
X0318413Y0267337D01*
X0318367Y0267392D01*
X0318324Y0267449D01*
X0318285Y0267508D01*
X0318249Y0267570D01*
X0318217Y0267633D01*
X0318188Y0267699D01*
X0318163Y0267765D01*
X0318141Y0267833D01*
X0318124Y0267902D01*
X0318110Y0267972D01*
X0318100Y0268043D01*
X0318094Y0268114D01*
X0318092Y0268185D01*
D49*
X0323772Y0306901D03*
D50*
X0074780Y0270618D02*
X0040134Y0270618D01*
X0040134Y0248571D02*
X0074780Y0248571D01*
X0074906Y0215460D02*
X0040260Y0215460D01*
X0040260Y0193413D02*
X0074906Y0193413D01*
D51*
X0228127Y0246531D03*
X0228134Y0260256D03*
X0265534Y0260256D03*
X0265527Y0246531D03*
D52*
X0166827Y0107531D03*
X0166827Y0097531D03*
M02*
