G75*
%MOIN*%
%OFA0B0*%
%FSLAX25Y25*%
%IPPOS*%
%LPD*%
%AMOC8*
5,1,8,0,0,1.08239X$1,22.5*
%
%ADD10C,0.01100*%
%ADD11C,0.00600*%
%ADD12C,0.01200*%
%ADD13C,0.03000*%
%ADD14C,0.00800*%
%ADD15R,0.58000X0.57000*%
%ADD16C,0.00400*%
%ADD17C,0.00500*%
D10*
X0288673Y0155797D02*
X0288673Y0160718D01*
X0291625Y0160718D01*
X0292609Y0159734D01*
X0292609Y0157765D01*
X0291625Y0156781D01*
X0288673Y0156781D01*
X0288673Y0155797D02*
X0289657Y0154813D01*
X0290641Y0154813D01*
X0297981Y0156781D02*
X0297981Y0160718D01*
X0297981Y0158750D02*
X0296012Y0160718D01*
X0295028Y0160718D01*
X0300489Y0159734D02*
X0301474Y0160718D01*
X0303442Y0160718D01*
X0304426Y0159734D01*
X0304426Y0157765D01*
X0303442Y0156781D01*
X0301474Y0156781D01*
X0300489Y0157765D01*
X0300489Y0159734D01*
X0306665Y0157765D02*
X0306665Y0156781D01*
X0307649Y0156781D01*
X0307649Y0157765D01*
X0306665Y0157765D01*
X0310068Y0160718D02*
X0311052Y0160718D01*
X0313020Y0158750D01*
X0313020Y0160718D02*
X0313020Y0156781D01*
X0315529Y0157765D02*
X0315529Y0159734D01*
X0316513Y0160718D01*
X0318481Y0160718D01*
X0319466Y0159734D01*
X0319466Y0157765D01*
X0318481Y0156781D01*
X0316513Y0156781D01*
X0315529Y0157765D01*
X0321794Y0156781D02*
X0322778Y0157765D01*
X0322778Y0161702D01*
X0321794Y0160718D02*
X0323763Y0160718D01*
X0327075Y0160718D02*
X0327075Y0156781D01*
X0326091Y0156781D02*
X0328060Y0156781D01*
X0330568Y0156781D02*
X0330568Y0159734D01*
X0331553Y0160718D01*
X0334505Y0160718D01*
X0334505Y0156781D01*
X0337014Y0157765D02*
X0337014Y0159734D01*
X0337998Y0160718D01*
X0339966Y0160718D01*
X0340951Y0159734D01*
X0340951Y0157765D01*
X0339966Y0156781D01*
X0337998Y0156781D01*
X0337014Y0157765D01*
X0343459Y0156781D02*
X0343459Y0162686D01*
X0345428Y0160718D01*
X0347396Y0162686D01*
X0347396Y0156781D01*
X0349905Y0156781D02*
X0352857Y0156781D01*
X0353842Y0157765D01*
X0353842Y0160718D01*
X0356350Y0160718D02*
X0359303Y0160718D01*
X0360287Y0159734D01*
X0360287Y0157765D01*
X0359303Y0156781D01*
X0356350Y0156781D01*
X0356350Y0155797D02*
X0356350Y0160718D01*
X0362706Y0160718D02*
X0363690Y0160718D01*
X0365658Y0158750D01*
X0365658Y0160718D02*
X0365658Y0156781D01*
X0368167Y0158750D02*
X0372104Y0158750D01*
X0372104Y0159734D02*
X0371120Y0160718D01*
X0369151Y0160718D01*
X0368167Y0159734D01*
X0368167Y0158750D01*
X0369151Y0156781D02*
X0371120Y0156781D01*
X0372104Y0157765D01*
X0372104Y0159734D01*
X0374613Y0159734D02*
X0375597Y0160718D01*
X0378549Y0160718D01*
X0378549Y0156781D01*
X0381058Y0156781D02*
X0384995Y0156781D01*
X0384995Y0162686D01*
X0381058Y0162686D01*
X0383026Y0159734D02*
X0384995Y0159734D01*
X0387504Y0159734D02*
X0387504Y0156781D01*
X0387504Y0159734D02*
X0388488Y0160718D01*
X0391440Y0160718D01*
X0391440Y0156781D01*
X0393949Y0158750D02*
X0397886Y0158750D01*
X0397886Y0159734D02*
X0396902Y0160718D01*
X0394933Y0160718D01*
X0393949Y0159734D01*
X0393949Y0158750D01*
X0394933Y0156781D02*
X0396902Y0156781D01*
X0397886Y0157765D01*
X0397886Y0159734D01*
X0400395Y0159734D02*
X0400395Y0157765D01*
X0401379Y0156781D01*
X0404331Y0156781D01*
X0404331Y0154813D02*
X0404331Y0160718D01*
X0401379Y0160718D01*
X0400395Y0159734D01*
X0406840Y0161702D02*
X0407824Y0162686D01*
X0409793Y0162686D01*
X0410777Y0161702D01*
X0410777Y0157765D01*
X0409793Y0156781D01*
X0407824Y0156781D01*
X0406840Y0157765D01*
X0406840Y0161702D01*
X0374613Y0159734D02*
X0374613Y0156781D01*
X0358319Y0154813D02*
X0357335Y0154813D01*
X0356350Y0155797D01*
X0351873Y0154813D02*
X0350889Y0154813D01*
X0349905Y0155797D01*
X0349905Y0160718D01*
X0328060Y0160718D02*
X0327075Y0160718D01*
X0327075Y0162686D02*
X0327075Y0163671D01*
X0326557Y0312283D02*
X0323604Y0312283D01*
X0322620Y0313267D01*
X0323604Y0314251D01*
X0325573Y0314251D01*
X0326557Y0315236D01*
X0325573Y0316220D01*
X0322620Y0316220D01*
X0320111Y0315236D02*
X0319127Y0316220D01*
X0316175Y0316220D01*
X0317159Y0314251D02*
X0319127Y0314251D01*
X0320111Y0315236D01*
X0320111Y0312283D02*
X0317159Y0312283D01*
X0316175Y0313267D01*
X0317159Y0314251D01*
X0307220Y0314251D02*
X0303284Y0314251D01*
X0303284Y0315236D01*
X0304268Y0316220D01*
X0306236Y0316220D01*
X0307220Y0315236D01*
X0307220Y0313267D01*
X0306236Y0312283D01*
X0304268Y0312283D01*
X0300775Y0312283D02*
X0300775Y0316220D01*
X0297822Y0316220D01*
X0296838Y0315236D01*
X0296838Y0312283D01*
X0294329Y0313267D02*
X0294329Y0315236D01*
X0293345Y0316220D01*
X0291377Y0316220D01*
X0290393Y0315236D01*
X0290393Y0314251D01*
X0294329Y0314251D01*
X0294329Y0313267D02*
X0293345Y0312283D01*
X0291377Y0312283D01*
X0287884Y0312283D02*
X0287884Y0316220D01*
X0285916Y0316220D02*
X0284931Y0316220D01*
X0285916Y0316220D02*
X0287884Y0314251D01*
X0282513Y0313267D02*
X0281528Y0312283D01*
X0278576Y0312283D01*
X0278576Y0311299D02*
X0278576Y0316220D01*
X0281528Y0316220D01*
X0282513Y0315236D01*
X0282513Y0313267D01*
X0280544Y0310315D02*
X0279560Y0310315D01*
X0278576Y0311299D01*
X0276067Y0313267D02*
X0275083Y0312283D01*
X0272130Y0312283D01*
X0272130Y0311299D02*
X0273115Y0310315D01*
X0274099Y0310315D01*
X0272130Y0311299D02*
X0272130Y0316220D01*
X0276067Y0316220D02*
X0276067Y0313267D01*
X0263176Y0312283D02*
X0263176Y0316220D01*
X0262192Y0316220D01*
X0261208Y0315236D01*
X0260224Y0316220D01*
X0259239Y0315236D01*
X0259239Y0312283D01*
X0261208Y0312283D02*
X0261208Y0315236D01*
X0256731Y0315236D02*
X0256731Y0313267D01*
X0255747Y0312283D01*
X0253778Y0312283D01*
X0252794Y0313267D01*
X0252794Y0315236D01*
X0253778Y0316220D01*
X0255747Y0316220D01*
X0256731Y0315236D01*
X0250285Y0316220D02*
X0250285Y0312283D01*
X0246348Y0312283D02*
X0246348Y0315236D01*
X0247333Y0316220D01*
X0250285Y0316220D01*
X0243840Y0316220D02*
X0242856Y0316220D01*
X0242856Y0312283D01*
X0243840Y0312283D02*
X0241871Y0312283D01*
X0238559Y0313267D02*
X0237574Y0312283D01*
X0238559Y0313267D02*
X0238559Y0317204D01*
X0239543Y0316220D02*
X0237574Y0316220D01*
X0235246Y0315236D02*
X0235246Y0313267D01*
X0234262Y0312283D01*
X0232293Y0312283D01*
X0231309Y0313267D01*
X0231309Y0315236D01*
X0232293Y0316220D01*
X0234262Y0316220D01*
X0235246Y0315236D01*
X0228800Y0316220D02*
X0228800Y0312283D01*
X0228800Y0314251D02*
X0226832Y0316220D01*
X0225848Y0316220D01*
X0223429Y0316220D02*
X0222445Y0316220D01*
X0222445Y0312283D01*
X0223429Y0312283D02*
X0221461Y0312283D01*
X0219132Y0312283D02*
X0219132Y0316220D01*
X0216179Y0316220D01*
X0215195Y0315236D01*
X0215195Y0312283D01*
X0212686Y0313267D02*
X0211702Y0312283D01*
X0208750Y0312283D01*
X0208750Y0311299D02*
X0208750Y0316220D01*
X0211702Y0316220D01*
X0212686Y0315236D01*
X0212686Y0313267D01*
X0210718Y0310315D02*
X0209734Y0310315D01*
X0208750Y0311299D01*
X0199795Y0312283D02*
X0199795Y0316220D01*
X0196843Y0316220D01*
X0195859Y0315236D01*
X0195859Y0312283D01*
X0193350Y0313267D02*
X0192366Y0312283D01*
X0190397Y0312283D01*
X0189413Y0313267D01*
X0189413Y0315236D01*
X0190397Y0316220D01*
X0192366Y0316220D01*
X0193350Y0315236D01*
X0193350Y0313267D01*
X0186904Y0313267D02*
X0186904Y0315236D01*
X0185920Y0316220D01*
X0182968Y0316220D01*
X0182968Y0318188D02*
X0182968Y0312283D01*
X0185920Y0312283D01*
X0186904Y0313267D01*
X0180459Y0313267D02*
X0180459Y0315236D01*
X0179475Y0316220D01*
X0177506Y0316220D01*
X0176522Y0315236D01*
X0176522Y0314251D01*
X0180459Y0314251D01*
X0180459Y0313267D02*
X0179475Y0312283D01*
X0177506Y0312283D01*
X0222445Y0318188D02*
X0222445Y0319172D01*
X0242856Y0319172D02*
X0242856Y0318188D01*
X0329066Y0315236D02*
X0329066Y0314251D01*
X0333002Y0314251D01*
X0333002Y0313267D02*
X0333002Y0315236D01*
X0332018Y0316220D01*
X0330050Y0316220D01*
X0329066Y0315236D01*
X0330050Y0312283D02*
X0332018Y0312283D01*
X0333002Y0313267D01*
X0335331Y0312283D02*
X0337299Y0312283D01*
X0336315Y0312283D02*
X0336315Y0318188D01*
X0337299Y0318188D01*
X0339808Y0315236D02*
X0339808Y0314251D01*
X0343745Y0314251D01*
X0343745Y0313267D02*
X0343745Y0315236D01*
X0342761Y0316220D01*
X0340792Y0316220D01*
X0339808Y0315236D01*
X0340792Y0312283D02*
X0342761Y0312283D01*
X0343745Y0313267D01*
X0346164Y0316220D02*
X0347148Y0316220D01*
X0349116Y0314251D01*
X0349116Y0312283D02*
X0349116Y0316220D01*
X0352429Y0316220D02*
X0352429Y0312283D01*
X0353413Y0312283D02*
X0351445Y0312283D01*
X0352429Y0316220D02*
X0353413Y0316220D01*
X0352429Y0318188D02*
X0352429Y0319172D01*
X0355922Y0316220D02*
X0355922Y0313267D01*
X0356906Y0312283D01*
X0357890Y0313267D01*
X0358874Y0312283D01*
X0359859Y0313267D01*
X0359859Y0316220D01*
D11*
X0353807Y0172466D02*
X0352106Y0172466D01*
X0351539Y0171898D01*
X0351539Y0170764D01*
X0352106Y0170197D01*
X0353807Y0170197D01*
X0352673Y0170197D02*
X0351539Y0169063D01*
X0350124Y0169630D02*
X0349557Y0169063D01*
X0348423Y0169063D01*
X0347856Y0169630D01*
X0347856Y0170764D01*
X0348423Y0171331D01*
X0349557Y0171331D01*
X0350124Y0170764D01*
X0350124Y0169630D01*
X0346441Y0169063D02*
X0346441Y0172466D01*
X0346441Y0170764D02*
X0344172Y0170764D01*
X0342758Y0171331D02*
X0342191Y0170764D01*
X0341056Y0170764D01*
X0340489Y0170197D01*
X0340489Y0169630D01*
X0341056Y0169063D01*
X0342191Y0169063D01*
X0342758Y0169630D01*
X0344172Y0169063D02*
X0344172Y0172466D01*
X0342758Y0171898D02*
X0342758Y0171331D01*
X0342758Y0171898D02*
X0342191Y0172466D01*
X0341056Y0172466D01*
X0340489Y0171898D01*
X0335392Y0170764D02*
X0335392Y0169630D01*
X0334824Y0169063D01*
X0333123Y0169063D01*
X0331708Y0169630D02*
X0331141Y0169063D01*
X0330007Y0169063D01*
X0329440Y0169630D01*
X0329440Y0170764D01*
X0330007Y0171331D01*
X0331141Y0171331D01*
X0331708Y0170764D01*
X0331708Y0169630D01*
X0333123Y0171331D02*
X0334824Y0171331D01*
X0335392Y0170764D01*
X0328025Y0171331D02*
X0327458Y0171331D01*
X0326891Y0170764D01*
X0326324Y0171331D01*
X0325757Y0170764D01*
X0325757Y0169063D01*
X0326891Y0169063D02*
X0326891Y0170764D01*
X0328025Y0171331D02*
X0328025Y0169063D01*
X0324342Y0169063D02*
X0322641Y0169063D01*
X0322074Y0169630D01*
X0322074Y0170764D01*
X0322641Y0171331D01*
X0324342Y0171331D01*
X0324342Y0167928D01*
X0320659Y0169630D02*
X0320092Y0169063D01*
X0318958Y0169063D01*
X0318390Y0169630D01*
X0318390Y0170764D01*
X0318958Y0171331D01*
X0320092Y0171331D01*
X0320659Y0170764D01*
X0320659Y0169630D01*
X0316976Y0169063D02*
X0316976Y0171331D01*
X0315274Y0171331D01*
X0314707Y0170764D01*
X0314707Y0169063D01*
X0313293Y0169630D02*
X0313293Y0170764D01*
X0312726Y0171331D01*
X0311591Y0171331D01*
X0311024Y0170764D01*
X0311024Y0170197D01*
X0313293Y0170197D01*
X0313293Y0169630D02*
X0312726Y0169063D01*
X0311591Y0169063D01*
X0309610Y0169063D02*
X0309610Y0171331D01*
X0307908Y0171331D01*
X0307341Y0170764D01*
X0307341Y0169063D01*
X0305359Y0169630D02*
X0304792Y0169063D01*
X0305359Y0169630D02*
X0305359Y0171898D01*
X0305926Y0171331D02*
X0304792Y0171331D01*
X0303471Y0170764D02*
X0302904Y0171331D01*
X0301202Y0171331D01*
X0301770Y0170197D02*
X0302904Y0170197D01*
X0303471Y0170764D01*
X0303471Y0169063D02*
X0301770Y0169063D01*
X0301202Y0169630D01*
X0301770Y0170197D01*
X0353807Y0169063D02*
X0353807Y0172466D01*
X0358905Y0170764D02*
X0361174Y0170764D01*
X0366271Y0170197D02*
X0366271Y0169630D01*
X0366838Y0169063D01*
X0368540Y0169063D01*
X0368540Y0172466D01*
X0366838Y0172466D01*
X0366271Y0171898D01*
X0366271Y0171331D01*
X0366838Y0170764D01*
X0368540Y0170764D01*
X0366838Y0170764D02*
X0366271Y0170197D01*
X0369954Y0169630D02*
X0370522Y0169063D01*
X0371656Y0169063D01*
X0372223Y0169630D01*
X0372223Y0171898D01*
X0371656Y0172466D01*
X0370522Y0172466D01*
X0369954Y0171898D01*
X0373638Y0171898D02*
X0373638Y0170764D01*
X0374205Y0170197D01*
X0375906Y0170197D01*
X0375906Y0169063D02*
X0375906Y0172466D01*
X0374205Y0172466D01*
X0373638Y0171898D01*
X0381004Y0170764D02*
X0381004Y0170197D01*
X0383272Y0170197D01*
X0383272Y0169630D02*
X0383272Y0170764D01*
X0382705Y0171331D01*
X0381571Y0171331D01*
X0381004Y0170764D01*
X0381571Y0169063D02*
X0382705Y0169063D01*
X0383272Y0169630D01*
X0384687Y0170197D02*
X0386956Y0170197D01*
X0386956Y0169630D02*
X0386956Y0170764D01*
X0386388Y0171331D01*
X0385254Y0171331D01*
X0384687Y0170764D01*
X0384687Y0170197D01*
X0385254Y0169063D02*
X0386388Y0169063D01*
X0386956Y0169630D01*
X0388323Y0171331D02*
X0388891Y0171331D01*
X0390025Y0170197D01*
X0390025Y0169063D02*
X0390025Y0171331D01*
X0391346Y0170764D02*
X0392480Y0170764D01*
X0391913Y0171898D02*
X0391913Y0169063D01*
X0391913Y0171898D02*
X0391346Y0172466D01*
X0397578Y0172466D02*
X0397578Y0169063D01*
X0399279Y0169063D01*
X0399847Y0169630D01*
X0399847Y0170764D01*
X0399279Y0171331D01*
X0397578Y0171331D01*
X0401261Y0170764D02*
X0401261Y0169063D01*
X0402963Y0169063D01*
X0403530Y0169630D01*
X0402963Y0170197D01*
X0401261Y0170197D01*
X0401261Y0170764D02*
X0401828Y0171331D01*
X0402963Y0171331D01*
X0404944Y0170764D02*
X0404944Y0170197D01*
X0407213Y0170197D01*
X0407213Y0169630D02*
X0407213Y0170764D01*
X0406646Y0171331D01*
X0405511Y0171331D01*
X0404944Y0170764D01*
X0405511Y0169063D02*
X0406646Y0169063D01*
X0407213Y0169630D01*
X0408627Y0169063D02*
X0410896Y0169063D01*
X0410896Y0172466D01*
X0129727Y0114411D02*
X0129727Y0112143D01*
X0129160Y0111575D01*
X0128025Y0111575D01*
X0127458Y0112143D01*
X0127458Y0114411D01*
X0128025Y0114978D01*
X0129160Y0114978D01*
X0129727Y0114411D01*
X0126044Y0113844D02*
X0126044Y0110441D01*
X0126044Y0111575D02*
X0124342Y0111575D01*
X0123775Y0112143D01*
X0123775Y0113277D01*
X0124342Y0113844D01*
X0126044Y0113844D01*
X0122360Y0113277D02*
X0121793Y0113844D01*
X0120659Y0113844D01*
X0120092Y0113277D01*
X0120092Y0112710D01*
X0122360Y0112710D01*
X0122360Y0112143D02*
X0122360Y0113277D01*
X0122360Y0112143D02*
X0121793Y0111575D01*
X0120659Y0111575D01*
X0118677Y0111575D02*
X0118677Y0113844D01*
X0116976Y0113844D01*
X0116409Y0113277D01*
X0116409Y0111575D01*
X0114994Y0113277D02*
X0112726Y0113277D01*
X0111311Y0113277D02*
X0109042Y0113277D01*
X0109042Y0114978D02*
X0109042Y0111575D01*
X0107628Y0112143D02*
X0107061Y0112710D01*
X0105359Y0112710D01*
X0105359Y0113277D02*
X0105359Y0111575D01*
X0107061Y0111575D01*
X0107628Y0112143D01*
X0107061Y0113844D02*
X0105926Y0113844D01*
X0105359Y0113277D01*
X0103945Y0113844D02*
X0103945Y0111575D01*
X0103945Y0112710D02*
X0102810Y0113844D01*
X0102243Y0113844D01*
X0100875Y0113277D02*
X0100308Y0113844D01*
X0098607Y0113844D01*
X0098607Y0114978D02*
X0098607Y0111575D01*
X0100308Y0111575D01*
X0100875Y0112143D01*
X0100875Y0113277D01*
X0097192Y0113844D02*
X0097192Y0112143D01*
X0096625Y0111575D01*
X0096058Y0112143D01*
X0095491Y0111575D01*
X0094924Y0112143D01*
X0094924Y0113844D01*
X0092942Y0113844D02*
X0091808Y0113844D01*
X0091241Y0113277D01*
X0091241Y0111575D01*
X0092942Y0111575D01*
X0093509Y0112143D01*
X0092942Y0112710D01*
X0091241Y0112710D01*
X0089826Y0112710D02*
X0088692Y0113844D01*
X0088125Y0113844D01*
X0086757Y0113277D02*
X0086190Y0113844D01*
X0085055Y0113844D01*
X0084488Y0113277D01*
X0084488Y0112710D01*
X0086757Y0112710D01*
X0086757Y0112143D02*
X0086757Y0113277D01*
X0086757Y0112143D02*
X0086190Y0111575D01*
X0085055Y0111575D01*
X0089826Y0111575D02*
X0089826Y0113844D01*
X0098790Y0122131D02*
X0100690Y0120231D01*
X0103090Y0121931D01*
X0104090Y0121331D01*
X0105990Y0125831D01*
X0100489Y0124526D02*
X0100393Y0124692D01*
X0100300Y0124859D01*
X0100212Y0125029D01*
X0100128Y0125201D01*
X0100048Y0125374D01*
X0099972Y0125550D01*
X0099900Y0125727D01*
X0099833Y0125906D01*
X0099769Y0126087D01*
X0099710Y0126269D01*
X0099656Y0126452D01*
X0099605Y0126637D01*
X0099559Y0126822D01*
X0099518Y0127009D01*
X0099481Y0127197D01*
X0099490Y0127231D02*
X0096490Y0127731D01*
X0096490Y0130331D01*
X0099490Y0130931D01*
X0100590Y0133431D02*
X0098790Y0136031D01*
X0100690Y0137831D01*
X0103290Y0136031D01*
X0105790Y0137031D02*
X0106290Y0140231D01*
X0108990Y0140231D01*
X0109490Y0137031D01*
X0111990Y0136031D02*
X0114590Y0137831D01*
X0116490Y0136031D01*
X0114690Y0133431D01*
X0115790Y0130931D02*
X0118790Y0130331D01*
X0118790Y0127731D01*
X0115790Y0127231D01*
X0114790Y0124531D02*
X0116390Y0122131D01*
X0114590Y0120231D01*
X0112190Y0121931D01*
X0111190Y0121331D01*
X0109190Y0125831D01*
X0114756Y0124563D02*
X0114859Y0124739D01*
X0114958Y0124918D01*
X0115052Y0125099D01*
X0115142Y0125282D01*
X0115227Y0125468D01*
X0115308Y0125655D01*
X0115384Y0125845D01*
X0115455Y0126036D01*
X0115522Y0126229D01*
X0115583Y0126424D01*
X0115641Y0126620D01*
X0115693Y0126817D01*
X0115740Y0127015D01*
X0115783Y0127215D01*
X0111956Y0136068D02*
X0111784Y0136168D01*
X0111609Y0136265D01*
X0111433Y0136357D01*
X0111254Y0136445D01*
X0111073Y0136529D01*
X0110890Y0136608D01*
X0110706Y0136683D01*
X0110519Y0136754D01*
X0110331Y0136820D01*
X0110142Y0136881D01*
X0109951Y0136938D01*
X0109758Y0136991D01*
X0109565Y0137038D01*
X0109190Y0125931D02*
X0109297Y0125986D01*
X0109403Y0126043D01*
X0109506Y0126105D01*
X0109608Y0126169D01*
X0109707Y0126237D01*
X0109804Y0126308D01*
X0109899Y0126382D01*
X0109991Y0126459D01*
X0110081Y0126540D01*
X0110168Y0126623D01*
X0110252Y0126709D01*
X0110333Y0126797D01*
X0110411Y0126889D01*
X0110487Y0126983D01*
X0110559Y0127079D01*
X0110628Y0127177D01*
X0110694Y0127278D01*
X0110756Y0127381D01*
X0110815Y0127486D01*
X0110871Y0127592D01*
X0110923Y0127701D01*
X0110971Y0127811D01*
X0111016Y0127923D01*
X0111057Y0128036D01*
X0111094Y0128150D01*
X0111128Y0128266D01*
X0111157Y0128382D01*
X0111183Y0128500D01*
X0111205Y0128618D01*
X0111224Y0128737D01*
X0111238Y0128856D01*
X0111248Y0128976D01*
X0111255Y0129096D01*
X0111257Y0129217D01*
X0111255Y0129337D01*
X0111250Y0129457D01*
X0111241Y0129577D01*
X0111227Y0129697D01*
X0111210Y0129816D01*
X0111189Y0129934D01*
X0111164Y0130052D01*
X0111135Y0130169D01*
X0111102Y0130284D01*
X0111066Y0130399D01*
X0111026Y0130512D01*
X0110982Y0130624D01*
X0110934Y0130735D01*
X0110883Y0130844D01*
X0110829Y0130951D01*
X0110770Y0131056D01*
X0110709Y0131160D01*
X0110644Y0131261D01*
X0110576Y0131360D01*
X0110504Y0131457D01*
X0110430Y0131551D01*
X0110352Y0131643D01*
X0110272Y0131732D01*
X0110188Y0131819D01*
X0110102Y0131903D01*
X0110013Y0131984D01*
X0109921Y0132062D01*
X0109827Y0132137D01*
X0109731Y0132208D01*
X0109632Y0132277D01*
X0109531Y0132342D01*
X0109428Y0132404D01*
X0109323Y0132463D01*
X0109216Y0132518D01*
X0109107Y0132570D01*
X0108997Y0132617D01*
X0108885Y0132662D01*
X0108772Y0132702D01*
X0108657Y0132739D01*
X0108541Y0132772D01*
X0108425Y0132802D01*
X0108307Y0132827D01*
X0108189Y0132849D01*
X0108070Y0132866D01*
X0107950Y0132880D01*
X0107830Y0132890D01*
X0107710Y0132896D01*
X0107590Y0132898D01*
X0107470Y0132896D01*
X0107350Y0132890D01*
X0107230Y0132880D01*
X0107110Y0132866D01*
X0106991Y0132849D01*
X0106873Y0132827D01*
X0106755Y0132802D01*
X0106639Y0132772D01*
X0106523Y0132739D01*
X0106408Y0132702D01*
X0106295Y0132662D01*
X0106183Y0132617D01*
X0106073Y0132570D01*
X0105964Y0132518D01*
X0105857Y0132463D01*
X0105752Y0132404D01*
X0105649Y0132342D01*
X0105548Y0132277D01*
X0105449Y0132208D01*
X0105353Y0132137D01*
X0105259Y0132062D01*
X0105167Y0131984D01*
X0105078Y0131903D01*
X0104992Y0131819D01*
X0104908Y0131732D01*
X0104828Y0131643D01*
X0104750Y0131551D01*
X0104676Y0131457D01*
X0104604Y0131360D01*
X0104536Y0131261D01*
X0104471Y0131160D01*
X0104410Y0131056D01*
X0104351Y0130951D01*
X0104297Y0130844D01*
X0104246Y0130735D01*
X0104198Y0130624D01*
X0104154Y0130512D01*
X0104114Y0130399D01*
X0104078Y0130284D01*
X0104045Y0130169D01*
X0104016Y0130052D01*
X0103991Y0129934D01*
X0103970Y0129816D01*
X0103953Y0129697D01*
X0103939Y0129577D01*
X0103930Y0129457D01*
X0103925Y0129337D01*
X0103923Y0129217D01*
X0103925Y0129096D01*
X0103932Y0128976D01*
X0103942Y0128856D01*
X0103956Y0128737D01*
X0103975Y0128618D01*
X0103997Y0128500D01*
X0104023Y0128382D01*
X0104052Y0128266D01*
X0104086Y0128150D01*
X0104123Y0128036D01*
X0104164Y0127923D01*
X0104209Y0127811D01*
X0104257Y0127701D01*
X0104309Y0127592D01*
X0104365Y0127486D01*
X0104424Y0127381D01*
X0104486Y0127278D01*
X0104552Y0127177D01*
X0104621Y0127079D01*
X0104693Y0126983D01*
X0104769Y0126889D01*
X0104847Y0126797D01*
X0104928Y0126709D01*
X0105012Y0126623D01*
X0105099Y0126540D01*
X0105189Y0126459D01*
X0105281Y0126382D01*
X0105376Y0126308D01*
X0105473Y0126237D01*
X0105572Y0126169D01*
X0105674Y0126105D01*
X0105777Y0126043D01*
X0105883Y0125986D01*
X0105990Y0125931D01*
X0099500Y0130932D02*
X0099550Y0131120D01*
X0099605Y0131307D01*
X0099664Y0131493D01*
X0099728Y0131677D01*
X0099796Y0131860D01*
X0099869Y0132041D01*
X0099946Y0132220D01*
X0100027Y0132397D01*
X0100113Y0132573D01*
X0100202Y0132746D01*
X0100296Y0132917D01*
X0100394Y0133085D01*
X0100496Y0133252D01*
X0100601Y0133415D01*
X0103253Y0136048D02*
X0103418Y0136146D01*
X0103586Y0136240D01*
X0103756Y0136330D01*
X0103928Y0136417D01*
X0104101Y0136499D01*
X0104277Y0136578D01*
X0104454Y0136652D01*
X0104633Y0136722D01*
X0104814Y0136788D01*
X0104996Y0136850D01*
X0105179Y0136908D01*
X0105364Y0136962D01*
X0105550Y0137011D01*
X0105737Y0137056D01*
X0105152Y0145020D02*
X0105152Y0147289D01*
X0103450Y0147289D01*
X0102883Y0146721D01*
X0102883Y0145020D01*
X0106473Y0145020D02*
X0107607Y0145020D01*
X0107040Y0145020D02*
X0107040Y0147289D01*
X0107607Y0147289D01*
X0107040Y0148423D02*
X0107040Y0148990D01*
X0106403Y0152215D02*
X0105269Y0153350D01*
X0104135Y0152215D01*
X0104135Y0155618D01*
X0106403Y0155618D02*
X0106403Y0152215D01*
X0102720Y0152782D02*
X0102153Y0153350D01*
X0100451Y0153350D01*
X0100451Y0153917D02*
X0100451Y0152215D01*
X0102153Y0152215D01*
X0102720Y0152782D01*
X0102153Y0154484D02*
X0101019Y0154484D01*
X0100451Y0153917D01*
X0099037Y0155618D02*
X0098470Y0155618D01*
X0098470Y0152215D01*
X0099037Y0152215D02*
X0097903Y0152215D01*
X0096581Y0152782D02*
X0096581Y0153917D01*
X0096014Y0154484D01*
X0094880Y0154484D01*
X0094313Y0153917D01*
X0094313Y0153350D01*
X0096581Y0153350D01*
X0096581Y0152782D02*
X0096014Y0152215D01*
X0094880Y0152215D01*
X0092898Y0152215D02*
X0091197Y0152215D01*
X0090630Y0152782D01*
X0091197Y0153350D01*
X0092331Y0153350D01*
X0092898Y0153917D01*
X0092331Y0154484D01*
X0090630Y0154484D01*
X0091833Y0148423D02*
X0094102Y0146154D01*
X0093535Y0146721D02*
X0091833Y0145020D01*
X0094102Y0145020D02*
X0094102Y0148423D01*
X0095517Y0148423D02*
X0095517Y0145587D01*
X0096084Y0145020D01*
X0097218Y0145020D01*
X0097785Y0145587D01*
X0097785Y0148423D01*
X0111501Y0152215D02*
X0111501Y0153917D01*
X0112068Y0154484D01*
X0113202Y0154484D01*
X0113769Y0153917D01*
X0115091Y0154484D02*
X0116225Y0154484D01*
X0115658Y0155051D02*
X0115658Y0152782D01*
X0115091Y0152215D01*
X0113769Y0152215D02*
X0113769Y0155618D01*
X0117593Y0154484D02*
X0118160Y0154484D01*
X0119294Y0153350D01*
X0119294Y0154484D02*
X0119294Y0152215D01*
X0120709Y0152782D02*
X0120709Y0153917D01*
X0121276Y0154484D01*
X0122410Y0154484D01*
X0122977Y0153917D01*
X0122977Y0152782D01*
X0122410Y0152215D01*
X0121276Y0152215D01*
X0120709Y0152782D01*
X0124392Y0152215D02*
X0124392Y0155618D01*
X0126660Y0155618D02*
X0124392Y0152215D01*
X0126660Y0152215D02*
X0126660Y0155618D01*
X0126452Y0161271D02*
X0124751Y0161271D01*
X0124184Y0161838D01*
X0124184Y0164107D01*
X0124751Y0164674D01*
X0126452Y0164674D01*
X0126452Y0161271D01*
X0122769Y0161838D02*
X0122769Y0162973D01*
X0122202Y0163540D01*
X0121068Y0163540D01*
X0120500Y0162973D01*
X0120500Y0162405D01*
X0122769Y0162405D01*
X0122769Y0161838D02*
X0122202Y0161271D01*
X0121068Y0161271D01*
X0119086Y0161271D02*
X0117384Y0161271D01*
X0116817Y0161838D01*
X0117384Y0162405D01*
X0118519Y0162405D01*
X0119086Y0162973D01*
X0118519Y0163540D01*
X0116817Y0163540D01*
X0115403Y0163540D02*
X0114836Y0163540D01*
X0114836Y0161271D01*
X0115403Y0161271D02*
X0114268Y0161271D01*
X0112947Y0161838D02*
X0112380Y0161271D01*
X0110679Y0161271D01*
X0110679Y0160704D02*
X0110679Y0163540D01*
X0112380Y0163540D01*
X0112947Y0162973D01*
X0112947Y0161838D01*
X0111813Y0160137D02*
X0111246Y0160137D01*
X0110679Y0160704D01*
X0109264Y0161271D02*
X0109264Y0163540D01*
X0107563Y0163540D01*
X0106996Y0162973D01*
X0106996Y0161271D01*
X0105581Y0161838D02*
X0105581Y0162973D01*
X0105014Y0163540D01*
X0103880Y0163540D01*
X0103312Y0162973D01*
X0103312Y0162405D01*
X0105581Y0162405D01*
X0105581Y0161838D02*
X0105014Y0161271D01*
X0103880Y0161271D01*
X0101898Y0161838D02*
X0101898Y0162973D01*
X0101331Y0163540D01*
X0099629Y0163540D01*
X0099629Y0164674D02*
X0099629Y0161271D01*
X0101331Y0161271D01*
X0101898Y0161838D01*
X0094532Y0161271D02*
X0093397Y0161271D01*
X0093964Y0161271D02*
X0093964Y0163540D01*
X0094532Y0163540D01*
X0093964Y0164674D02*
X0093964Y0165241D01*
X0092076Y0163540D02*
X0090375Y0163540D01*
X0089808Y0162973D01*
X0089808Y0161271D01*
X0092076Y0161271D02*
X0092076Y0163540D01*
X0114836Y0164674D02*
X0114836Y0165241D01*
X0116388Y0148423D02*
X0116388Y0145020D01*
X0118089Y0145020D01*
X0118656Y0145587D01*
X0118656Y0146721D01*
X0118089Y0147289D01*
X0116388Y0147289D01*
X0114973Y0146721D02*
X0114406Y0147289D01*
X0113272Y0147289D01*
X0112705Y0146721D01*
X0112705Y0146154D01*
X0114973Y0146154D01*
X0114973Y0145587D02*
X0114973Y0146721D01*
X0114973Y0145587D02*
X0114406Y0145020D01*
X0113272Y0145020D01*
X0120071Y0145020D02*
X0121772Y0145020D01*
X0122340Y0145587D01*
X0121772Y0146154D01*
X0120071Y0146154D01*
X0120071Y0146721D02*
X0120071Y0145020D01*
X0120071Y0146721D02*
X0120638Y0147289D01*
X0121772Y0147289D01*
X0123754Y0148423D02*
X0123754Y0145020D01*
X0126023Y0145020D02*
X0126023Y0148423D01*
X0124888Y0147289D01*
X0123754Y0148423D01*
X0114681Y0133378D02*
X0114781Y0133216D01*
X0114878Y0133051D01*
X0114971Y0132884D01*
X0115059Y0132715D01*
X0115144Y0132545D01*
X0115225Y0132372D01*
X0115302Y0132197D01*
X0115375Y0132021D01*
X0115444Y0131843D01*
X0115509Y0131663D01*
X0115570Y0131483D01*
X0115626Y0131300D01*
X0115679Y0131117D01*
X0115727Y0130932D01*
X0100490Y0124531D02*
X0098790Y0122131D01*
X0111311Y0114978D02*
X0111311Y0111575D01*
D12*
X0116679Y0295593D02*
X0361090Y0295593D01*
X0360892Y0307908D02*
X0117481Y0307908D01*
D13*
X0256972Y0329230D02*
X0259808Y0326395D01*
X0265479Y0326395D01*
X0268315Y0329230D01*
X0268315Y0340573D01*
X0265479Y0343409D01*
X0259808Y0343409D01*
X0256972Y0340573D01*
X0275388Y0340573D02*
X0278223Y0343409D01*
X0286731Y0343409D01*
X0286731Y0326395D01*
X0278223Y0326395D01*
X0275388Y0329230D01*
X0275388Y0340573D01*
X0293803Y0334902D02*
X0293803Y0326395D01*
X0293803Y0334902D02*
X0296639Y0337738D01*
X0305146Y0337738D01*
X0305146Y0326395D01*
X0312219Y0329230D02*
X0312219Y0334902D01*
X0315055Y0337738D01*
X0320726Y0337738D01*
X0323562Y0334902D01*
X0323562Y0329230D01*
X0320726Y0326395D01*
X0315055Y0326395D01*
X0312219Y0329230D01*
X0330635Y0326395D02*
X0330635Y0334902D01*
X0333471Y0337738D01*
X0336306Y0334902D01*
X0336306Y0326395D01*
X0341978Y0326395D02*
X0341978Y0337738D01*
X0339142Y0337738D01*
X0336306Y0334902D01*
X0349051Y0334902D02*
X0349051Y0332066D01*
X0360394Y0332066D01*
X0360394Y0329230D02*
X0360394Y0334902D01*
X0357558Y0337738D01*
X0351886Y0337738D01*
X0349051Y0334902D01*
X0357558Y0326395D02*
X0360394Y0329230D01*
X0357558Y0326395D02*
X0351886Y0326395D01*
D14*
X0357459Y0304444D02*
X0360595Y0304444D01*
X0359027Y0304444D02*
X0359027Y0299740D01*
X0355530Y0300524D02*
X0355530Y0302092D01*
X0354746Y0302876D01*
X0353178Y0302876D01*
X0352394Y0302092D01*
X0352394Y0301308D01*
X0355530Y0301308D01*
X0355530Y0300524D02*
X0354746Y0299740D01*
X0353178Y0299740D01*
X0350466Y0300524D02*
X0349682Y0299740D01*
X0347330Y0299740D01*
X0345402Y0299740D02*
X0345402Y0304444D01*
X0344618Y0302876D02*
X0343050Y0302876D01*
X0342266Y0302092D01*
X0342266Y0299740D01*
X0340338Y0299740D02*
X0340338Y0302876D01*
X0337986Y0302876D01*
X0337202Y0302092D01*
X0337202Y0299740D01*
X0335273Y0300524D02*
X0334489Y0299740D01*
X0332921Y0299740D01*
X0332137Y0300524D01*
X0332137Y0302092D01*
X0332921Y0302876D01*
X0334489Y0302876D01*
X0335273Y0302092D01*
X0335273Y0300524D01*
X0330209Y0299740D02*
X0328641Y0299740D01*
X0329425Y0299740D02*
X0329425Y0304444D01*
X0330209Y0304444D01*
X0326833Y0302092D02*
X0326049Y0302876D01*
X0324481Y0302876D01*
X0323697Y0302092D01*
X0323697Y0300524D01*
X0324481Y0299740D01*
X0326049Y0299740D01*
X0326833Y0300524D01*
X0326833Y0302092D01*
X0321768Y0302092D02*
X0320984Y0302876D01*
X0318632Y0302876D01*
X0318632Y0298956D01*
X0319416Y0298172D01*
X0320200Y0298172D01*
X0320984Y0299740D02*
X0318632Y0299740D01*
X0316704Y0300524D02*
X0316704Y0302876D01*
X0316704Y0300524D02*
X0315920Y0299740D01*
X0313568Y0299740D01*
X0313568Y0298956D02*
X0314352Y0298172D01*
X0315136Y0298172D01*
X0313568Y0298956D02*
X0313568Y0302876D01*
X0306575Y0302876D02*
X0305007Y0302876D01*
X0305791Y0303660D02*
X0305791Y0300524D01*
X0305007Y0299740D01*
X0303199Y0299740D02*
X0303199Y0304444D01*
X0302415Y0302876D02*
X0300847Y0302876D01*
X0300063Y0302092D01*
X0300063Y0299740D01*
X0298135Y0300524D02*
X0297351Y0301308D01*
X0294999Y0301308D01*
X0294999Y0302092D02*
X0294999Y0299740D01*
X0297351Y0299740D01*
X0298135Y0300524D01*
X0297351Y0302876D02*
X0295783Y0302876D01*
X0294999Y0302092D01*
X0293071Y0302876D02*
X0291503Y0302876D01*
X0292287Y0303660D02*
X0292287Y0300524D01*
X0291503Y0299740D01*
X0284630Y0299740D02*
X0284630Y0304444D01*
X0283846Y0302876D02*
X0282278Y0302876D01*
X0281494Y0302092D01*
X0281494Y0299740D01*
X0279566Y0300524D02*
X0279566Y0302092D01*
X0278782Y0302876D01*
X0277214Y0302876D01*
X0276430Y0302092D01*
X0276430Y0301308D01*
X0279566Y0301308D01*
X0279566Y0300524D02*
X0278782Y0299740D01*
X0277214Y0299740D01*
X0274501Y0299740D02*
X0272933Y0299740D01*
X0273717Y0299740D02*
X0273717Y0304444D01*
X0274501Y0304444D01*
X0271125Y0302876D02*
X0268773Y0302876D01*
X0267989Y0302092D01*
X0267989Y0300524D01*
X0268773Y0299740D01*
X0271125Y0299740D01*
X0271125Y0298172D02*
X0271125Y0302876D01*
X0266061Y0302092D02*
X0265277Y0302876D01*
X0262925Y0302876D01*
X0263709Y0301308D02*
X0265277Y0301308D01*
X0266061Y0302092D01*
X0266061Y0299740D02*
X0263709Y0299740D01*
X0262925Y0300524D01*
X0263709Y0301308D01*
X0255932Y0300524D02*
X0255932Y0302876D01*
X0255932Y0300524D02*
X0255148Y0299740D01*
X0252796Y0299740D01*
X0252796Y0302876D01*
X0250868Y0302092D02*
X0250084Y0302876D01*
X0247732Y0302876D01*
X0248516Y0301308D02*
X0250084Y0301308D01*
X0250868Y0302092D01*
X0250868Y0299740D02*
X0248516Y0299740D01*
X0247732Y0300524D01*
X0248516Y0301308D01*
X0240739Y0299740D02*
X0239171Y0299740D01*
X0239955Y0299740D02*
X0239955Y0304444D01*
X0240739Y0304444D01*
X0237363Y0302876D02*
X0236579Y0302876D01*
X0236579Y0299740D01*
X0237363Y0299740D02*
X0235795Y0299740D01*
X0232419Y0299740D02*
X0230851Y0302876D01*
X0228922Y0302092D02*
X0228138Y0302876D01*
X0226570Y0302876D01*
X0225786Y0302092D01*
X0225786Y0301308D01*
X0228922Y0301308D01*
X0228922Y0300524D02*
X0228922Y0302092D01*
X0228922Y0300524D02*
X0228138Y0299740D01*
X0226570Y0299740D01*
X0232419Y0299740D02*
X0233987Y0302876D01*
X0236579Y0304444D02*
X0236579Y0305228D01*
X0218794Y0302876D02*
X0218794Y0300524D01*
X0218010Y0299740D01*
X0217226Y0300524D01*
X0216442Y0299740D01*
X0215658Y0300524D01*
X0215658Y0302876D01*
X0213729Y0302876D02*
X0212945Y0302876D01*
X0212945Y0299740D01*
X0213729Y0299740D02*
X0212161Y0299740D01*
X0209569Y0300524D02*
X0209569Y0303660D01*
X0210353Y0302876D02*
X0208785Y0302876D01*
X0206977Y0302092D02*
X0206193Y0302876D01*
X0204625Y0302876D01*
X0203841Y0302092D01*
X0203841Y0299740D01*
X0201913Y0299740D02*
X0200345Y0299740D01*
X0201129Y0299740D02*
X0201129Y0302876D01*
X0201913Y0302876D01*
X0201129Y0304444D02*
X0201129Y0305228D01*
X0198536Y0302876D02*
X0196184Y0302876D01*
X0195400Y0302092D01*
X0195400Y0299740D01*
X0198536Y0299740D02*
X0198536Y0302876D01*
X0206977Y0304444D02*
X0206977Y0299740D01*
X0208785Y0299740D02*
X0209569Y0300524D01*
X0212945Y0304444D02*
X0212945Y0305228D01*
X0188408Y0302092D02*
X0187624Y0302876D01*
X0186056Y0302876D01*
X0185272Y0302092D01*
X0185272Y0301308D01*
X0188408Y0301308D01*
X0188408Y0300524D02*
X0188408Y0302092D01*
X0188408Y0300524D02*
X0187624Y0299740D01*
X0186056Y0299740D01*
X0183344Y0300524D02*
X0182560Y0299740D01*
X0180208Y0299740D01*
X0178279Y0300524D02*
X0177495Y0299740D01*
X0175927Y0299740D01*
X0175143Y0300524D01*
X0175143Y0302092D01*
X0175927Y0302876D01*
X0177495Y0302876D01*
X0178279Y0302092D01*
X0178279Y0300524D01*
X0180208Y0302876D02*
X0182560Y0302876D01*
X0183344Y0302092D01*
X0183344Y0300524D01*
X0173215Y0299740D02*
X0171647Y0299740D01*
X0172431Y0299740D02*
X0172431Y0304444D01*
X0173215Y0304444D01*
X0169839Y0302092D02*
X0169839Y0300524D01*
X0169055Y0299740D01*
X0167487Y0299740D01*
X0166703Y0300524D01*
X0166703Y0302092D01*
X0167487Y0302876D01*
X0169055Y0302876D01*
X0169839Y0302092D01*
X0164774Y0302092D02*
X0163990Y0302876D01*
X0161638Y0302876D01*
X0161638Y0298956D01*
X0162422Y0298172D01*
X0163206Y0298172D01*
X0163990Y0299740D02*
X0161638Y0299740D01*
X0159710Y0299740D02*
X0158142Y0299740D01*
X0158926Y0299740D02*
X0158926Y0302876D01*
X0159710Y0302876D01*
X0158926Y0304444D02*
X0158926Y0305228D01*
X0156334Y0302092D02*
X0155550Y0302876D01*
X0153198Y0302876D01*
X0150485Y0302876D02*
X0148917Y0302876D01*
X0148133Y0302092D01*
X0148133Y0299740D01*
X0150485Y0299740D01*
X0151269Y0300524D01*
X0150485Y0301308D01*
X0148133Y0301308D01*
X0146205Y0299740D02*
X0144637Y0299740D01*
X0145421Y0299740D02*
X0145421Y0304444D01*
X0146205Y0304444D01*
X0153198Y0299740D02*
X0155550Y0299740D01*
X0156334Y0300524D01*
X0156334Y0302092D01*
X0163990Y0299740D02*
X0164774Y0300524D01*
X0164774Y0302092D01*
X0137765Y0299740D02*
X0136197Y0299740D01*
X0136981Y0299740D02*
X0136981Y0304444D01*
X0137765Y0304444D01*
X0134388Y0302876D02*
X0133604Y0302876D01*
X0133604Y0299740D01*
X0134388Y0299740D02*
X0132820Y0299740D01*
X0131012Y0299740D02*
X0131012Y0302876D01*
X0130228Y0302876D01*
X0129444Y0302092D01*
X0128660Y0302876D01*
X0127876Y0302092D01*
X0127876Y0299740D01*
X0129444Y0299740D02*
X0129444Y0302092D01*
X0125948Y0302876D02*
X0125164Y0302876D01*
X0125164Y0299740D01*
X0125948Y0299740D02*
X0124380Y0299740D01*
X0121788Y0300524D02*
X0121004Y0299740D01*
X0121788Y0300524D02*
X0121788Y0303660D01*
X0122572Y0302876D02*
X0121004Y0302876D01*
X0119195Y0302092D02*
X0118411Y0302876D01*
X0116059Y0302876D01*
X0116843Y0301308D02*
X0118411Y0301308D01*
X0119195Y0302092D01*
X0119195Y0299740D02*
X0116843Y0299740D01*
X0116059Y0300524D01*
X0116843Y0301308D01*
X0125164Y0304444D02*
X0125164Y0305228D01*
X0133604Y0305228D02*
X0133604Y0304444D01*
X0221278Y0253213D02*
X0221278Y0252513D01*
X0221278Y0251112D02*
X0221278Y0248309D01*
X0221978Y0248309D02*
X0220577Y0248309D01*
X0221278Y0251112D02*
X0221978Y0251112D01*
X0223780Y0250411D02*
X0223780Y0248309D01*
X0223780Y0250411D02*
X0224480Y0251112D01*
X0226582Y0251112D01*
X0226582Y0248309D01*
X0228384Y0248309D02*
X0230485Y0248309D01*
X0231186Y0249010D01*
X0231186Y0250411D01*
X0230485Y0251112D01*
X0228384Y0251112D01*
X0228384Y0247609D01*
X0229084Y0246908D01*
X0229785Y0246908D01*
X0233688Y0248309D02*
X0235089Y0248309D01*
X0235790Y0249010D01*
X0235790Y0250411D01*
X0235089Y0251112D01*
X0233688Y0251112D01*
X0232988Y0250411D01*
X0232988Y0249710D01*
X0235790Y0249710D01*
X0237591Y0248309D02*
X0237591Y0252513D01*
X0238993Y0251112D01*
X0240394Y0252513D01*
X0240394Y0248309D01*
X0246799Y0248309D02*
X0248901Y0248309D01*
X0249602Y0249010D01*
X0249602Y0251112D01*
X0251403Y0250411D02*
X0252104Y0251112D01*
X0254206Y0251112D01*
X0254206Y0252513D02*
X0254206Y0248309D01*
X0252104Y0248309D01*
X0251403Y0249010D01*
X0251403Y0250411D01*
X0246799Y0251112D02*
X0246799Y0247609D01*
X0247500Y0246908D01*
X0248201Y0246908D01*
X0260611Y0248309D02*
X0262713Y0250411D01*
X0263413Y0249710D02*
X0260611Y0252513D01*
X0263413Y0252513D02*
X0263413Y0248309D01*
X0265215Y0249010D02*
X0265215Y0252513D01*
X0268017Y0252513D02*
X0268017Y0249010D01*
X0267317Y0248309D01*
X0265916Y0248309D01*
X0265215Y0249010D01*
X0274423Y0249010D02*
X0275123Y0249710D01*
X0276525Y0249710D01*
X0277225Y0250411D01*
X0276525Y0251112D01*
X0274423Y0251112D01*
X0274423Y0249010D02*
X0275123Y0248309D01*
X0277225Y0248309D01*
X0279027Y0249710D02*
X0281829Y0249710D01*
X0281829Y0249010D02*
X0281829Y0250411D01*
X0281129Y0251112D01*
X0279727Y0251112D01*
X0279027Y0250411D01*
X0279027Y0249710D01*
X0279727Y0248309D02*
X0281129Y0248309D01*
X0281829Y0249010D01*
X0283497Y0248309D02*
X0284898Y0248309D01*
X0284198Y0248309D02*
X0284198Y0252513D01*
X0284898Y0252513D01*
X0286700Y0250411D02*
X0286700Y0248309D01*
X0288802Y0248309D01*
X0289502Y0249010D01*
X0288802Y0249710D01*
X0286700Y0249710D01*
X0286700Y0250411D02*
X0287401Y0251112D01*
X0288802Y0251112D01*
X0291304Y0252513D02*
X0291304Y0248309D01*
X0292705Y0249710D01*
X0294106Y0248309D01*
X0294106Y0252513D01*
X0300512Y0250411D02*
X0300512Y0248309D01*
X0300512Y0250411D02*
X0301212Y0251112D01*
X0302614Y0251112D01*
X0303314Y0250411D01*
X0304982Y0251112D02*
X0306383Y0251112D01*
X0305683Y0251812D02*
X0305683Y0249010D01*
X0304982Y0248309D01*
X0303314Y0248309D02*
X0303314Y0252513D01*
X0308118Y0251112D02*
X0308819Y0251112D01*
X0310220Y0249710D01*
X0310220Y0248309D02*
X0310220Y0251112D01*
X0312022Y0250411D02*
X0312722Y0251112D01*
X0314123Y0251112D01*
X0314824Y0250411D01*
X0314824Y0249010D01*
X0314123Y0248309D01*
X0312722Y0248309D01*
X0312022Y0249010D01*
X0312022Y0250411D01*
X0316626Y0248309D02*
X0316626Y0252513D01*
X0319428Y0252513D02*
X0316626Y0248309D01*
X0319428Y0248309D02*
X0319428Y0252513D01*
X0325833Y0250411D02*
X0325833Y0248309D01*
X0325833Y0250411D02*
X0326534Y0251112D01*
X0328636Y0251112D01*
X0328636Y0248309D01*
X0330304Y0248309D02*
X0331705Y0248309D01*
X0331004Y0248309D02*
X0331004Y0251112D01*
X0331705Y0251112D01*
X0331004Y0252513D02*
X0331004Y0253213D01*
X0338110Y0252513D02*
X0338110Y0248309D01*
X0340212Y0248309D01*
X0340913Y0249010D01*
X0340913Y0250411D01*
X0340212Y0251112D01*
X0338110Y0251112D01*
X0342714Y0250411D02*
X0342714Y0249710D01*
X0345517Y0249710D01*
X0345517Y0249010D02*
X0345517Y0250411D01*
X0344816Y0251112D01*
X0343415Y0251112D01*
X0342714Y0250411D01*
X0343415Y0248309D02*
X0344816Y0248309D01*
X0345517Y0249010D01*
X0347318Y0248309D02*
X0347318Y0250411D01*
X0348019Y0251112D01*
X0350121Y0251112D01*
X0350121Y0248309D01*
X0351922Y0248309D02*
X0354024Y0248309D01*
X0354725Y0249010D01*
X0354725Y0250411D01*
X0354024Y0251112D01*
X0351922Y0251112D01*
X0351922Y0247609D01*
X0352623Y0246908D01*
X0353323Y0246908D01*
X0356393Y0248309D02*
X0357794Y0248309D01*
X0357093Y0248309D02*
X0357093Y0251112D01*
X0357794Y0251112D01*
X0357093Y0252513D02*
X0357093Y0253213D01*
X0359595Y0251112D02*
X0361697Y0251112D01*
X0362398Y0250411D01*
X0361697Y0249710D01*
X0360296Y0249710D01*
X0359595Y0249010D01*
X0360296Y0248309D01*
X0362398Y0248309D01*
X0364199Y0249710D02*
X0367002Y0249710D01*
X0367002Y0249010D02*
X0367002Y0250411D01*
X0366301Y0251112D01*
X0364900Y0251112D01*
X0364199Y0250411D01*
X0364199Y0249710D01*
X0364900Y0248309D02*
X0366301Y0248309D01*
X0367002Y0249010D01*
X0368803Y0249010D02*
X0368803Y0251812D01*
X0369504Y0252513D01*
X0371606Y0252513D01*
X0371606Y0248309D01*
X0369504Y0248309D01*
X0368803Y0249010D01*
X0350466Y0300524D02*
X0350466Y0302092D01*
X0349682Y0302876D01*
X0347330Y0302876D01*
X0345402Y0302092D02*
X0344618Y0302876D01*
X0321768Y0302092D02*
X0321768Y0300524D01*
X0320984Y0299740D01*
X0303199Y0302092D02*
X0302415Y0302876D01*
X0284630Y0302092D02*
X0283846Y0302876D01*
X0380885Y0136067D02*
X0380885Y0135283D01*
X0381669Y0135283D01*
X0381669Y0136067D01*
X0380885Y0136067D01*
X0380885Y0133715D02*
X0380885Y0132931D01*
X0381669Y0132931D01*
X0381669Y0133715D01*
X0380885Y0133715D01*
X0383598Y0134499D02*
X0383598Y0135283D01*
X0384382Y0136067D01*
X0385950Y0136067D01*
X0386734Y0135283D01*
X0386734Y0133715D01*
X0385950Y0132931D01*
X0384382Y0132931D01*
X0383598Y0134499D02*
X0386734Y0134499D01*
X0388662Y0132931D02*
X0391014Y0132931D01*
X0391798Y0133715D01*
X0391798Y0135283D01*
X0391014Y0136067D01*
X0388662Y0136067D01*
X0388662Y0137635D02*
X0388662Y0132931D01*
X0393726Y0133715D02*
X0393726Y0135283D01*
X0394510Y0136067D01*
X0396078Y0136067D01*
X0396862Y0135283D01*
X0396862Y0133715D01*
X0396078Y0132931D01*
X0394510Y0132931D01*
X0393726Y0133715D01*
X0398791Y0132931D02*
X0398791Y0137635D01*
X0401927Y0137635D02*
X0398791Y0132931D01*
X0401927Y0132931D02*
X0401927Y0137635D01*
D15*
X0348827Y0109531D03*
D16*
X0189759Y0075466D02*
X0188992Y0076233D01*
X0188992Y0077768D01*
X0191294Y0075466D02*
X0192828Y0075466D01*
X0192061Y0076233D02*
X0192061Y0073164D01*
X0191294Y0072397D01*
X0194363Y0072397D02*
X0197432Y0075466D01*
X0198967Y0075466D02*
X0200501Y0075466D01*
X0199734Y0076233D02*
X0199734Y0073164D01*
X0198967Y0072397D01*
X0197432Y0072397D02*
X0194363Y0075466D01*
X0202036Y0073164D02*
X0202036Y0072397D01*
X0202803Y0072397D01*
X0202803Y0073164D01*
X0202036Y0073164D01*
X0204338Y0072397D02*
X0206640Y0072397D01*
X0207407Y0073164D01*
X0207407Y0074699D01*
X0206640Y0075466D01*
X0204338Y0075466D01*
X0204338Y0071629D01*
X0205105Y0070862D01*
X0205873Y0070862D01*
X0208942Y0073164D02*
X0209709Y0072397D01*
X0211244Y0072397D01*
X0212011Y0073164D01*
X0212011Y0074699D01*
X0211244Y0075466D01*
X0209709Y0075466D01*
X0208942Y0074699D01*
X0208942Y0073164D01*
X0213546Y0072397D02*
X0215081Y0072397D01*
X0214313Y0072397D02*
X0214313Y0077001D01*
X0215081Y0077001D01*
X0217382Y0075466D02*
X0216615Y0074699D01*
X0216615Y0072397D01*
X0218917Y0072397D01*
X0219684Y0073164D01*
X0218917Y0073931D01*
X0216615Y0073931D01*
X0217382Y0075466D02*
X0218917Y0075466D01*
X0221219Y0075466D02*
X0222754Y0075466D01*
X0221986Y0076233D02*
X0221986Y0073164D01*
X0221219Y0072397D01*
X0224288Y0072397D02*
X0226590Y0072397D01*
X0227358Y0073164D01*
X0226590Y0073931D01*
X0224288Y0073931D01*
X0224288Y0074699D02*
X0224288Y0072397D01*
X0224288Y0074699D02*
X0225056Y0075466D01*
X0226590Y0075466D01*
X0228892Y0075466D02*
X0231194Y0075466D01*
X0231962Y0074699D01*
X0231962Y0073164D01*
X0231194Y0072397D01*
X0228892Y0072397D01*
X0228892Y0077001D01*
X0228125Y0079897D02*
X0227358Y0079897D01*
X0227358Y0080664D01*
X0228125Y0080664D01*
X0228125Y0079897D01*
X0229660Y0079897D02*
X0232729Y0079897D01*
X0229660Y0082966D01*
X0229660Y0083733D01*
X0230427Y0084501D01*
X0231962Y0084501D01*
X0232729Y0083733D01*
X0234264Y0083733D02*
X0235031Y0084501D01*
X0236566Y0084501D01*
X0237333Y0083733D01*
X0238867Y0084501D02*
X0241937Y0084501D01*
X0240402Y0084501D02*
X0240402Y0079897D01*
X0243471Y0079897D02*
X0243471Y0082966D01*
X0245006Y0084501D01*
X0246541Y0082966D01*
X0246541Y0079897D01*
X0246541Y0082199D02*
X0243471Y0082199D01*
X0248075Y0084501D02*
X0251145Y0084501D01*
X0251145Y0079897D01*
X0251145Y0082199D02*
X0249610Y0082199D01*
X0249610Y0087397D02*
X0251145Y0087397D01*
X0250377Y0087397D02*
X0250377Y0090466D01*
X0251145Y0090466D01*
X0250377Y0092001D02*
X0250377Y0092768D01*
X0252679Y0092001D02*
X0252679Y0087397D01*
X0255749Y0087397D02*
X0255749Y0092001D01*
X0254214Y0090466D01*
X0252679Y0092001D01*
X0248075Y0089699D02*
X0247308Y0090466D01*
X0245006Y0090466D01*
X0243471Y0090466D02*
X0243471Y0087397D01*
X0243471Y0088931D02*
X0241937Y0090466D01*
X0241169Y0090466D01*
X0239635Y0089699D02*
X0239635Y0088164D01*
X0238867Y0087397D01*
X0237333Y0087397D01*
X0236566Y0088164D01*
X0236566Y0089699D01*
X0237333Y0090466D01*
X0238867Y0090466D01*
X0239635Y0089699D01*
X0235031Y0090466D02*
X0234264Y0089699D01*
X0232729Y0089699D01*
X0231962Y0088931D01*
X0231962Y0088164D01*
X0232729Y0087397D01*
X0234264Y0087397D01*
X0235031Y0088164D01*
X0235031Y0090466D02*
X0235031Y0091233D01*
X0234264Y0092001D01*
X0232729Y0092001D01*
X0231962Y0091233D01*
X0230427Y0092001D02*
X0228125Y0092001D01*
X0227358Y0091233D01*
X0227358Y0088164D01*
X0228125Y0087397D01*
X0230427Y0087397D01*
X0230427Y0092001D01*
X0245006Y0087397D02*
X0247308Y0087397D01*
X0248075Y0088164D01*
X0248075Y0089699D01*
X0257283Y0082199D02*
X0258050Y0082966D01*
X0259585Y0082966D01*
X0260352Y0082199D01*
X0260352Y0080664D01*
X0259585Y0079897D01*
X0258050Y0079897D01*
X0257283Y0080664D01*
X0257283Y0082199D01*
X0261887Y0082966D02*
X0263422Y0082966D01*
X0262654Y0083733D02*
X0262654Y0080664D01*
X0261887Y0079897D01*
X0259585Y0077001D02*
X0259585Y0072397D01*
X0257283Y0072397D01*
X0256516Y0073164D01*
X0256516Y0074699D01*
X0257283Y0075466D01*
X0259585Y0075466D01*
X0254981Y0077001D02*
X0254214Y0077001D01*
X0254214Y0072397D01*
X0254981Y0072397D02*
X0253447Y0072397D01*
X0251912Y0073164D02*
X0251145Y0072397D01*
X0248843Y0072397D01*
X0248843Y0074699D01*
X0249610Y0075466D01*
X0251145Y0075466D01*
X0251145Y0073931D02*
X0248843Y0073931D01*
X0247308Y0072397D02*
X0247308Y0075466D01*
X0245006Y0075466D01*
X0244239Y0074699D01*
X0244239Y0072397D01*
X0242704Y0072397D02*
X0242704Y0077001D01*
X0240402Y0075466D02*
X0242704Y0073931D01*
X0240402Y0072397D01*
X0234264Y0075466D02*
X0233496Y0076233D01*
X0233496Y0077768D01*
X0235031Y0079897D02*
X0236566Y0079897D01*
X0237333Y0080664D01*
X0235798Y0082199D02*
X0235031Y0082199D01*
X0234264Y0081431D01*
X0234264Y0080664D01*
X0235031Y0079897D01*
X0235031Y0082199D02*
X0234264Y0082966D01*
X0234264Y0083733D01*
X0251145Y0073931D02*
X0251912Y0073164D01*
X0252679Y0067966D02*
X0253447Y0067966D01*
X0254981Y0066431D01*
X0254981Y0064897D02*
X0254981Y0067966D01*
X0256516Y0067199D02*
X0256516Y0066431D01*
X0259585Y0066431D01*
X0259585Y0065664D02*
X0259585Y0067199D01*
X0258818Y0067966D01*
X0257283Y0067966D01*
X0256516Y0067199D01*
X0257283Y0064897D02*
X0258818Y0064897D01*
X0259585Y0065664D01*
X0261120Y0064897D02*
X0261120Y0067199D01*
X0261887Y0067966D01*
X0263422Y0067966D01*
X0264189Y0067199D01*
X0265724Y0067966D02*
X0267258Y0067966D01*
X0266491Y0068733D02*
X0266491Y0065664D01*
X0265724Y0064897D01*
X0264189Y0064897D02*
X0264189Y0069501D01*
X0266491Y0072397D02*
X0268026Y0072397D01*
X0268793Y0073164D01*
X0268793Y0074699D01*
X0268026Y0075466D01*
X0266491Y0075466D01*
X0265724Y0074699D01*
X0265724Y0073931D01*
X0268793Y0073931D01*
X0270328Y0072397D02*
X0272630Y0072397D01*
X0273397Y0073164D01*
X0273397Y0074699D01*
X0272630Y0075466D01*
X0270328Y0075466D01*
X0269560Y0079897D02*
X0271862Y0079897D01*
X0272630Y0080664D01*
X0272630Y0082199D01*
X0271862Y0082966D01*
X0269560Y0082966D01*
X0269560Y0084501D02*
X0269560Y0079897D01*
X0274164Y0082966D02*
X0274932Y0082966D01*
X0276466Y0081431D01*
X0276466Y0079897D02*
X0276466Y0082966D01*
X0278001Y0082199D02*
X0278001Y0079897D01*
X0280303Y0079897D01*
X0281070Y0080664D01*
X0280303Y0081431D01*
X0278001Y0081431D01*
X0278001Y0082199D02*
X0278768Y0082966D01*
X0280303Y0082966D01*
X0282605Y0082966D02*
X0284907Y0082966D01*
X0285674Y0082199D01*
X0285674Y0080664D01*
X0284907Y0079897D01*
X0282605Y0079897D01*
X0283372Y0077001D02*
X0282605Y0076233D01*
X0282605Y0074699D01*
X0283372Y0073931D01*
X0285674Y0073931D01*
X0285674Y0072397D02*
X0285674Y0077001D01*
X0283372Y0077001D01*
X0281070Y0077001D02*
X0280303Y0077001D01*
X0280303Y0072397D01*
X0281070Y0072397D02*
X0279535Y0072397D01*
X0278001Y0073164D02*
X0277234Y0072397D01*
X0274932Y0072397D01*
X0274932Y0074699D01*
X0275699Y0075466D01*
X0277234Y0075466D01*
X0277234Y0073931D02*
X0274932Y0073931D01*
X0277234Y0073931D02*
X0278001Y0073164D01*
X0278768Y0069501D02*
X0278768Y0064897D01*
X0279535Y0064897D02*
X0278001Y0064897D01*
X0276466Y0065664D02*
X0275699Y0064897D01*
X0274164Y0064897D01*
X0273397Y0066431D02*
X0276466Y0066431D01*
X0276466Y0065664D02*
X0276466Y0067199D01*
X0275699Y0067966D01*
X0274164Y0067966D01*
X0273397Y0067199D01*
X0273397Y0066431D01*
X0278768Y0069501D02*
X0279535Y0069501D01*
X0281837Y0069501D02*
X0281837Y0070268D01*
X0281837Y0067966D02*
X0281837Y0064897D01*
X0281070Y0064897D02*
X0282605Y0064897D01*
X0284907Y0064897D02*
X0284907Y0068733D01*
X0284139Y0069501D01*
X0282605Y0067966D02*
X0281837Y0067966D01*
X0284139Y0067199D02*
X0285674Y0067199D01*
X0285674Y0087397D02*
X0285674Y0092001D01*
X0282605Y0092001D01*
X0284139Y0089699D02*
X0285674Y0089699D01*
X0281070Y0089699D02*
X0281070Y0088164D01*
X0280303Y0087397D01*
X0278768Y0087397D01*
X0278001Y0088164D01*
X0278001Y0089699D01*
X0278768Y0090466D01*
X0280303Y0090466D01*
X0281070Y0089699D01*
X0276466Y0090466D02*
X0276466Y0087397D01*
X0276466Y0088931D02*
X0274932Y0090466D01*
X0274164Y0090466D01*
X0272630Y0090466D02*
X0271862Y0090466D01*
X0271095Y0089699D01*
X0270328Y0090466D01*
X0269560Y0089699D01*
X0269560Y0087397D01*
X0271095Y0087397D02*
X0271095Y0089699D01*
X0272630Y0090466D02*
X0272630Y0087397D01*
X0268026Y0088164D02*
X0267258Y0088931D01*
X0264956Y0088931D01*
X0264956Y0089699D02*
X0264956Y0087397D01*
X0267258Y0087397D01*
X0268026Y0088164D01*
X0267258Y0090466D02*
X0265724Y0090466D01*
X0264956Y0089699D01*
X0263422Y0090466D02*
X0261887Y0090466D01*
X0262654Y0091233D02*
X0262654Y0088164D01*
X0261887Y0087397D01*
X0250377Y0067966D02*
X0248843Y0067966D01*
X0248075Y0067199D01*
X0248075Y0066431D01*
X0251145Y0066431D01*
X0251145Y0065664D02*
X0251145Y0067199D01*
X0250377Y0067966D01*
X0251145Y0065664D02*
X0250377Y0064897D01*
X0248843Y0064897D01*
X0246541Y0064897D02*
X0246541Y0065664D01*
X0245773Y0065664D01*
X0245773Y0064897D01*
X0246541Y0064897D01*
D17*
X0321134Y0108689D02*
X0333732Y0108689D01*
X0333732Y0128374D01*
X0321134Y0128374D01*
X0321134Y0108689D01*
X0413324Y0251692D02*
X0416326Y0251692D01*
X0417077Y0252443D01*
X0417077Y0253944D01*
X0416326Y0254695D01*
X0414825Y0254695D01*
X0414825Y0253194D01*
X0413324Y0254695D02*
X0412573Y0253944D01*
X0412573Y0252443D01*
X0413324Y0251692D01*
X0412573Y0256296D02*
X0412573Y0258548D01*
X0413324Y0259299D01*
X0414825Y0259299D01*
X0415575Y0258548D01*
X0415575Y0256296D01*
X0417077Y0256296D02*
X0412573Y0256296D01*
X0412573Y0260900D02*
X0412573Y0262401D01*
X0412573Y0261651D02*
X0417077Y0261651D01*
X0417077Y0262401D02*
X0417077Y0260900D01*
X0416326Y0263969D02*
X0417077Y0264720D01*
X0417077Y0266221D01*
X0416326Y0266972D01*
X0413324Y0266972D01*
X0412573Y0266221D01*
X0412573Y0264720D01*
X0413324Y0263969D01*
X0416326Y0263969D01*
X0417827Y0268573D02*
X0417827Y0271576D01*
X0417077Y0273177D02*
X0417077Y0276180D01*
X0417077Y0274679D02*
X0412573Y0274679D01*
X0414074Y0273177D01*
M02*
