G75*
%MOIN*%
%OFA0B0*%
%FSLAX25Y25*%
%IPPOS*%
%LPD*%
%AMOC8*
5,1,8,0,0,1.08239X$1,22.5*
%
%ADD10R,0.02375X0.05524*%
%ADD11R,0.04737X0.05131*%
%ADD12R,0.08674X0.08674*%
%ADD13R,0.05131X0.04737*%
%ADD14R,0.06700X0.08700*%
%ADD15R,0.15800X0.08700*%
%ADD16R,0.14600X0.04900*%
%ADD17R,0.46700X0.42800*%
%ADD18R,0.06706X0.10643*%
%ADD19R,0.03950X0.03162*%
%ADD20R,0.16800X0.05100*%
%ADD21C,0.08200*%
%ADD22R,0.08674X0.05524*%
%ADD23C,0.06800*%
%ADD24R,0.05500X0.21900*%
%ADD25R,0.04150X0.05100*%
%ADD26R,0.03750X0.05100*%
%ADD27R,0.05406X0.07859*%
%ADD28R,0.08309X0.06106*%
%ADD29R,0.05506X0.04755*%
%ADD30R,0.06908X0.06107*%
%ADD31C,0.05556*%
%ADD32C,0.07400*%
%ADD33R,0.06312X0.07099*%
%ADD34R,0.05400X0.07100*%
%ADD35R,0.00600X0.07200*%
%ADD36R,0.06800X0.03300*%
%ADD37R,0.25209X0.12611*%
%ADD38OC8,0.06000*%
%ADD39C,0.06400*%
%ADD40OC8,0.06400*%
%ADD41R,0.08280X0.05918*%
%ADD42R,0.05918X0.03162*%
%ADD43C,0.09200*%
%ADD44C,0.04737*%
%ADD45C,0.05918*%
%ADD46R,0.14737X0.11036*%
%ADD47OC8,0.09300*%
%ADD48C,0.22800*%
%ADD49C,0.04369*%
%ADD50R,0.07296X0.07296*%
%ADD51C,0.04300*%
D10*
X0162988Y0196040D03*
X0165547Y0196040D03*
X0168106Y0196040D03*
X0170665Y0196040D03*
X0170665Y0213022D03*
X0168106Y0213022D03*
X0165547Y0213022D03*
X0162988Y0213022D03*
X0162988Y0251040D03*
X0165547Y0251040D03*
X0168106Y0251040D03*
X0170665Y0251040D03*
X0170665Y0268022D03*
X0168106Y0268022D03*
X0165547Y0268022D03*
X0162988Y0268022D03*
D11*
X0157627Y0271585D03*
X0157627Y0278278D03*
X0178480Y0271531D03*
X0185173Y0271531D03*
X0194786Y0290589D03*
X0202950Y0290576D03*
X0202950Y0297269D03*
X0194786Y0297282D03*
X0184051Y0251000D03*
X0184051Y0244307D03*
X0156827Y0241185D03*
X0156827Y0247878D03*
X0156127Y0224378D03*
X0156127Y0217685D03*
X0178441Y0216208D03*
X0185134Y0216208D03*
X0185027Y0196378D03*
X0185027Y0189685D03*
X0155827Y0192178D03*
X0155827Y0185485D03*
X0192480Y0129831D03*
X0199173Y0129831D03*
X0199173Y0106531D03*
X0192480Y0106531D03*
X0192480Y0098531D03*
X0199173Y0098531D03*
X0283480Y0105531D03*
X0290173Y0105531D03*
X0317372Y0097309D03*
X0317372Y0090616D03*
X0277627Y0157085D03*
X0277627Y0163778D03*
X0315327Y0328585D03*
X0315327Y0335278D03*
D12*
X0215111Y0302249D03*
X0215111Y0286501D03*
D13*
X0143827Y0244878D03*
X0143827Y0238185D03*
X0143827Y0232878D03*
X0143827Y0226185D03*
X0143827Y0190878D03*
X0143827Y0184185D03*
X0143827Y0177878D03*
X0143827Y0171185D03*
X0198277Y0144467D03*
X0198277Y0137774D03*
X0165827Y0116531D03*
X0165827Y0109838D03*
X0153485Y0116397D03*
X0153485Y0123090D03*
X0283480Y0090531D03*
X0290173Y0090531D03*
X0302827Y0098185D03*
X0302827Y0104878D03*
X0330456Y0097361D03*
X0330456Y0090668D03*
X0327365Y0162923D03*
X0327365Y0169615D03*
X0312827Y0169878D03*
X0312827Y0163185D03*
X0354729Y0308002D03*
X0361422Y0308002D03*
X0361197Y0321827D03*
X0354504Y0321827D03*
X0229972Y0345338D03*
X0223280Y0345338D03*
D14*
X0327038Y0335931D03*
X0336038Y0335931D03*
X0345038Y0335931D03*
D15*
X0336138Y0311131D03*
D16*
X0206902Y0316690D03*
X0206902Y0323390D03*
X0206902Y0330090D03*
X0206902Y0336790D03*
X0206902Y0343490D03*
D17*
X0171702Y0330090D03*
D18*
X0225715Y0322884D03*
X0249337Y0322884D03*
D19*
X0310472Y0306901D03*
X0320315Y0306901D03*
D20*
X0295627Y0323931D03*
X0271027Y0323931D03*
D21*
X0182326Y0287631D03*
X0172326Y0287631D03*
X0162326Y0287631D03*
X0076737Y0294902D03*
X0066737Y0294902D03*
X0056737Y0294902D03*
X0057827Y0266531D03*
X0067827Y0266531D03*
X0047827Y0266531D03*
X0047827Y0252531D03*
X0057827Y0252531D03*
X0067827Y0252531D03*
X0067827Y0211531D03*
X0057827Y0211531D03*
X0047827Y0211531D03*
X0047827Y0197531D03*
X0057827Y0197531D03*
X0067827Y0197531D03*
X0168997Y0232816D03*
X0178997Y0232816D03*
X0188997Y0232816D03*
X0292827Y0124531D03*
X0292827Y0114531D03*
D22*
X0273827Y0114161D03*
X0273827Y0106287D03*
X0273827Y0098413D03*
X0273827Y0090539D03*
X0273827Y0122035D03*
X0273827Y0129909D03*
X0273827Y0137783D03*
X0273827Y0145657D03*
X0210047Y0145657D03*
X0210047Y0137783D03*
X0210047Y0129909D03*
X0210047Y0122035D03*
X0210047Y0114161D03*
X0210047Y0106287D03*
X0210047Y0098413D03*
X0210047Y0090539D03*
D23*
X0216827Y0159531D02*
X0216827Y0165531D01*
X0226827Y0165531D02*
X0226827Y0159531D01*
X0236827Y0159531D02*
X0236827Y0165531D01*
X0246827Y0165531D02*
X0246827Y0159531D01*
X0256827Y0159531D02*
X0256827Y0165531D01*
X0266827Y0165531D02*
X0266827Y0159531D01*
X0269827Y0200531D02*
X0269827Y0206531D01*
X0279827Y0206531D02*
X0279827Y0200531D01*
X0289827Y0200531D02*
X0289827Y0206531D01*
D24*
X0117426Y0303496D03*
X0117426Y0342696D03*
D25*
X0118328Y0112086D03*
X0114026Y0112086D03*
X0109733Y0112076D03*
X0105371Y0112067D03*
X0101061Y0112086D03*
X0096768Y0112086D03*
X0122684Y0112075D03*
D26*
X0126855Y0112076D03*
D27*
X0131578Y0110700D03*
D28*
X0100133Y0069536D03*
X0123614Y0069538D03*
D29*
X0086369Y0073350D03*
X0086369Y0087918D03*
D30*
X0087085Y0111590D03*
D31*
X0250528Y0281035D02*
X0250528Y0285791D01*
X0256827Y0285791D02*
X0256827Y0281035D01*
X0263126Y0281035D02*
X0263126Y0285791D01*
X0259976Y0291271D02*
X0259976Y0296027D01*
X0253677Y0296027D02*
X0253677Y0291271D01*
D32*
X0242457Y0291831D02*
X0242457Y0285231D01*
X0271197Y0285231D02*
X0271197Y0291831D01*
D33*
X0186239Y0171936D03*
X0168522Y0171936D03*
X0168522Y0138472D03*
X0186239Y0138472D03*
D34*
X0243827Y0206531D03*
X0249827Y0206531D03*
D35*
X0246827Y0206531D03*
D36*
X0312681Y0234740D03*
X0312681Y0239740D03*
X0312681Y0244740D03*
X0312681Y0249740D03*
X0312681Y0254740D03*
X0312681Y0259740D03*
X0312681Y0264740D03*
X0312681Y0269740D03*
X0333902Y0269740D03*
X0333902Y0264740D03*
X0333902Y0259740D03*
X0333902Y0254740D03*
X0333902Y0249740D03*
X0333902Y0244740D03*
X0333902Y0239740D03*
X0333902Y0234740D03*
D37*
X0057457Y0242665D03*
X0057583Y0221366D03*
X0057583Y0187508D03*
X0057457Y0276523D03*
D38*
X0221834Y0260256D03*
X0221827Y0246531D03*
X0271827Y0246531D03*
X0271834Y0260256D03*
D39*
X0403827Y0287531D03*
D40*
X0403827Y0277531D03*
X0393827Y0277531D03*
X0393827Y0287531D03*
X0393827Y0267531D03*
X0403827Y0267531D03*
X0403827Y0257531D03*
X0393827Y0257531D03*
X0393827Y0247531D03*
X0403827Y0247531D03*
D41*
X0361654Y0105246D03*
X0349055Y0105246D03*
X0349055Y0083593D03*
X0361654Y0083593D03*
D42*
X0338063Y0111051D03*
X0338063Y0116169D03*
X0338063Y0120894D03*
X0338063Y0126012D03*
X0317197Y0126012D03*
X0317197Y0120894D03*
X0317197Y0116169D03*
X0317197Y0111051D03*
D43*
X0123027Y0190752D02*
X0114627Y0190752D01*
X0114627Y0204531D02*
X0123027Y0204531D01*
X0123027Y0218311D02*
X0114627Y0218311D01*
X0114627Y0245752D02*
X0123027Y0245752D01*
X0123027Y0259531D02*
X0114627Y0259531D01*
X0114627Y0273311D02*
X0123027Y0273311D01*
D44*
X0389606Y0147531D03*
D45*
X0360079Y0147531D03*
D46*
X0343150Y0147531D03*
X0405551Y0147531D03*
D47*
X0292827Y0079531D03*
D48*
X0392316Y0091741D03*
X0069504Y0091748D03*
X0069504Y0320134D03*
X0392316Y0320205D03*
D49*
X0320321Y0294947D03*
X0319702Y0287281D03*
X0342840Y0269870D03*
X0341899Y0262240D03*
X0322899Y0263240D03*
X0332367Y0230403D03*
X0320899Y0228240D03*
X0331805Y0211140D03*
X0335815Y0192512D03*
X0309327Y0179531D03*
X0303827Y0174531D03*
X0295089Y0186233D03*
X0271204Y0154817D03*
X0282827Y0145531D03*
X0281283Y0139079D03*
X0310827Y0120531D03*
X0308827Y0111531D03*
X0283827Y0084531D03*
X0317260Y0083579D03*
X0256827Y0107031D03*
X0253717Y0101979D03*
X0241327Y0101031D03*
X0232260Y0100579D03*
X0218327Y0098531D03*
X0218327Y0091031D03*
X0186064Y0098619D03*
X0186211Y0112695D03*
X0174168Y0109441D03*
X0174168Y0124441D03*
X0153527Y0130011D03*
X0179141Y0145415D03*
X0207053Y0150807D03*
X0216709Y0144505D03*
X0218327Y0137031D03*
X0236899Y0142240D03*
X0241327Y0121031D03*
X0159898Y0098378D03*
X0130260Y0101579D03*
X0118360Y0106279D03*
X0100827Y0093531D03*
X0089360Y0101279D03*
X0111760Y0069479D03*
X0137123Y0070814D03*
X0175927Y0070470D03*
X0150840Y0171273D03*
X0150637Y0185573D03*
X0177040Y0195573D03*
X0196596Y0189656D03*
X0218089Y0190233D03*
X0231292Y0187735D03*
X0201589Y0208233D03*
X0163714Y0226012D03*
X0150085Y0228245D03*
X0150540Y0248273D03*
X0177115Y0249112D03*
X0190262Y0257928D03*
X0201827Y0260531D03*
X0231827Y0260031D03*
X0229327Y0238531D03*
X0241827Y0232531D03*
X0245089Y0237233D03*
X0272827Y0224531D03*
X0260589Y0221733D03*
X0249673Y0220097D03*
X0213089Y0240233D03*
X0154401Y0283423D03*
X0198825Y0285210D03*
X0211677Y0293850D03*
X0218475Y0293880D03*
X0223022Y0288453D03*
X0244827Y0307031D03*
X0217620Y0329941D03*
X0236420Y0343504D03*
X0235826Y0349153D03*
X0209429Y0349571D03*
X0201429Y0349571D03*
X0143524Y0336926D03*
X0143179Y0329976D03*
X0144443Y0322566D03*
X0117502Y0325603D03*
X0126257Y0343716D03*
X0108720Y0344341D03*
X0095742Y0288934D03*
X0297088Y0317864D03*
X0308718Y0322533D03*
X0314158Y0321349D03*
X0297428Y0330043D03*
X0088557Y0172248D03*
D50*
X0259827Y0349531D03*
X0314827Y0349531D03*
D51*
X0322827Y0254531D03*
X0348827Y0245031D03*
X0348827Y0206031D03*
X0316327Y0144531D03*
X0294640Y0095122D03*
M02*
