G75*
%MOIN*%
%OFA0B0*%
%FSLAX25Y25*%
%IPPOS*%
%LPD*%
%AMOC8*
5,1,8,0,0,1.08239X$1,22.5*
%
%ADD10C,0.01100*%
%ADD11C,0.00600*%
%ADD12C,0.01200*%
%ADD13C,0.03000*%
%ADD14C,0.00800*%
%ADD15R,0.58000X0.57000*%
%ADD16C,0.00400*%
%ADD17C,0.00500*%
D10*
X0289071Y0154679D02*
X0289071Y0159600D01*
X0292023Y0159600D01*
X0293008Y0158616D01*
X0293008Y0156648D01*
X0292023Y0155663D01*
X0289071Y0155663D01*
X0289071Y0154679D02*
X0290055Y0153695D01*
X0291039Y0153695D01*
X0295426Y0159600D02*
X0296410Y0159600D01*
X0298379Y0157632D01*
X0298379Y0159600D02*
X0298379Y0155663D01*
X0300888Y0156648D02*
X0300888Y0158616D01*
X0301872Y0159600D01*
X0303840Y0159600D01*
X0304824Y0158616D01*
X0304824Y0156648D01*
X0303840Y0155663D01*
X0301872Y0155663D01*
X0300888Y0156648D01*
X0307063Y0156648D02*
X0307063Y0155663D01*
X0308047Y0155663D01*
X0308047Y0156648D01*
X0307063Y0156648D01*
X0310466Y0159600D02*
X0311450Y0159600D01*
X0313418Y0157632D01*
X0313418Y0159600D02*
X0313418Y0155663D01*
X0315927Y0156648D02*
X0315927Y0158616D01*
X0316911Y0159600D01*
X0318880Y0159600D01*
X0319864Y0158616D01*
X0319864Y0156648D01*
X0318880Y0155663D01*
X0316911Y0155663D01*
X0315927Y0156648D01*
X0322192Y0155663D02*
X0323177Y0156648D01*
X0323177Y0160584D01*
X0324161Y0159600D02*
X0322192Y0159600D01*
X0327474Y0159600D02*
X0327474Y0155663D01*
X0328458Y0155663D02*
X0326489Y0155663D01*
X0327474Y0159600D02*
X0328458Y0159600D01*
X0327474Y0161568D02*
X0327474Y0162553D01*
X0330967Y0158616D02*
X0330967Y0155663D01*
X0330967Y0158616D02*
X0331951Y0159600D01*
X0334903Y0159600D01*
X0334903Y0155663D01*
X0337412Y0156648D02*
X0337412Y0158616D01*
X0338396Y0159600D01*
X0340365Y0159600D01*
X0341349Y0158616D01*
X0341349Y0156648D01*
X0340365Y0155663D01*
X0338396Y0155663D01*
X0337412Y0156648D01*
X0343858Y0155663D02*
X0343858Y0161568D01*
X0345826Y0159600D01*
X0347794Y0161568D01*
X0347794Y0155663D01*
X0350303Y0155663D02*
X0353256Y0155663D01*
X0354240Y0156648D01*
X0354240Y0159600D01*
X0356749Y0159600D02*
X0359701Y0159600D01*
X0360685Y0158616D01*
X0360685Y0156648D01*
X0359701Y0155663D01*
X0356749Y0155663D01*
X0356749Y0154679D02*
X0356749Y0159600D01*
X0356749Y0154679D02*
X0357733Y0153695D01*
X0358717Y0153695D01*
X0352271Y0153695D02*
X0351287Y0153695D01*
X0350303Y0154679D01*
X0350303Y0159600D01*
X0363104Y0159600D02*
X0364088Y0159600D01*
X0366056Y0157632D01*
X0366056Y0159600D02*
X0366056Y0155663D01*
X0368565Y0157632D02*
X0372502Y0157632D01*
X0372502Y0158616D02*
X0371518Y0159600D01*
X0369549Y0159600D01*
X0368565Y0158616D01*
X0368565Y0157632D01*
X0369549Y0155663D02*
X0371518Y0155663D01*
X0372502Y0156648D01*
X0372502Y0158616D01*
X0375011Y0158616D02*
X0375011Y0155663D01*
X0375011Y0158616D02*
X0375995Y0159600D01*
X0378947Y0159600D01*
X0378947Y0155663D01*
X0381456Y0155663D02*
X0385393Y0155663D01*
X0385393Y0161568D01*
X0381456Y0161568D01*
X0383425Y0158616D02*
X0385393Y0158616D01*
X0387902Y0158616D02*
X0387902Y0155663D01*
X0387902Y0158616D02*
X0388886Y0159600D01*
X0391838Y0159600D01*
X0391838Y0155663D01*
X0394347Y0157632D02*
X0398284Y0157632D01*
X0398284Y0158616D02*
X0397300Y0159600D01*
X0395331Y0159600D01*
X0394347Y0158616D01*
X0394347Y0157632D01*
X0395331Y0155663D02*
X0397300Y0155663D01*
X0398284Y0156648D01*
X0398284Y0158616D01*
X0400793Y0158616D02*
X0400793Y0156648D01*
X0401777Y0155663D01*
X0404729Y0155663D01*
X0404729Y0153695D02*
X0404729Y0159600D01*
X0401777Y0159600D01*
X0400793Y0158616D01*
X0407238Y0156648D02*
X0407238Y0160584D01*
X0408222Y0161568D01*
X0410191Y0161568D01*
X0411175Y0160584D01*
X0411175Y0156648D01*
X0410191Y0155663D01*
X0408222Y0155663D01*
X0407238Y0156648D01*
X0358874Y0312283D02*
X0357890Y0313267D01*
X0356906Y0312283D01*
X0355922Y0313267D01*
X0355922Y0316220D01*
X0353413Y0316220D02*
X0352429Y0316220D01*
X0352429Y0312283D01*
X0353413Y0312283D02*
X0351445Y0312283D01*
X0349116Y0312283D02*
X0349116Y0316220D01*
X0347148Y0316220D02*
X0346164Y0316220D01*
X0347148Y0316220D02*
X0349116Y0314251D01*
X0352429Y0318188D02*
X0352429Y0319172D01*
X0359859Y0316220D02*
X0359859Y0313267D01*
X0358874Y0312283D01*
X0343745Y0313267D02*
X0343745Y0315236D01*
X0342761Y0316220D01*
X0340792Y0316220D01*
X0339808Y0315236D01*
X0339808Y0314251D01*
X0343745Y0314251D01*
X0343745Y0313267D02*
X0342761Y0312283D01*
X0340792Y0312283D01*
X0337299Y0312283D02*
X0335331Y0312283D01*
X0336315Y0312283D02*
X0336315Y0318188D01*
X0337299Y0318188D01*
X0333002Y0315236D02*
X0332018Y0316220D01*
X0330050Y0316220D01*
X0329066Y0315236D01*
X0329066Y0314251D01*
X0333002Y0314251D01*
X0333002Y0313267D02*
X0333002Y0315236D01*
X0333002Y0313267D02*
X0332018Y0312283D01*
X0330050Y0312283D01*
X0326557Y0312283D02*
X0323604Y0312283D01*
X0322620Y0313267D01*
X0323604Y0314251D01*
X0325573Y0314251D01*
X0326557Y0315236D01*
X0325573Y0316220D01*
X0322620Y0316220D01*
X0320111Y0315236D02*
X0319127Y0316220D01*
X0316175Y0316220D01*
X0317159Y0314251D02*
X0319127Y0314251D01*
X0320111Y0315236D01*
X0320111Y0312283D02*
X0317159Y0312283D01*
X0316175Y0313267D01*
X0317159Y0314251D01*
X0307220Y0314251D02*
X0303284Y0314251D01*
X0303284Y0315236D01*
X0304268Y0316220D01*
X0306236Y0316220D01*
X0307220Y0315236D01*
X0307220Y0313267D01*
X0306236Y0312283D01*
X0304268Y0312283D01*
X0300775Y0312283D02*
X0300775Y0316220D01*
X0297822Y0316220D01*
X0296838Y0315236D01*
X0296838Y0312283D01*
X0294329Y0313267D02*
X0294329Y0315236D01*
X0293345Y0316220D01*
X0291377Y0316220D01*
X0290393Y0315236D01*
X0290393Y0314251D01*
X0294329Y0314251D01*
X0294329Y0313267D02*
X0293345Y0312283D01*
X0291377Y0312283D01*
X0287884Y0312283D02*
X0287884Y0316220D01*
X0285916Y0316220D02*
X0284931Y0316220D01*
X0285916Y0316220D02*
X0287884Y0314251D01*
X0282513Y0313267D02*
X0281528Y0312283D01*
X0278576Y0312283D01*
X0278576Y0311299D02*
X0278576Y0316220D01*
X0281528Y0316220D01*
X0282513Y0315236D01*
X0282513Y0313267D01*
X0280544Y0310315D02*
X0279560Y0310315D01*
X0278576Y0311299D01*
X0276067Y0313267D02*
X0275083Y0312283D01*
X0272130Y0312283D01*
X0272130Y0311299D02*
X0273115Y0310315D01*
X0274099Y0310315D01*
X0272130Y0311299D02*
X0272130Y0316220D01*
X0276067Y0316220D02*
X0276067Y0313267D01*
X0263176Y0312283D02*
X0263176Y0316220D01*
X0262192Y0316220D01*
X0261208Y0315236D01*
X0260224Y0316220D01*
X0259239Y0315236D01*
X0259239Y0312283D01*
X0261208Y0312283D02*
X0261208Y0315236D01*
X0256731Y0315236D02*
X0256731Y0313267D01*
X0255747Y0312283D01*
X0253778Y0312283D01*
X0252794Y0313267D01*
X0252794Y0315236D01*
X0253778Y0316220D01*
X0255747Y0316220D01*
X0256731Y0315236D01*
X0250285Y0316220D02*
X0250285Y0312283D01*
X0246348Y0312283D02*
X0246348Y0315236D01*
X0247333Y0316220D01*
X0250285Y0316220D01*
X0243840Y0316220D02*
X0242856Y0316220D01*
X0242856Y0312283D01*
X0243840Y0312283D02*
X0241871Y0312283D01*
X0238559Y0313267D02*
X0237574Y0312283D01*
X0238559Y0313267D02*
X0238559Y0317204D01*
X0239543Y0316220D02*
X0237574Y0316220D01*
X0235246Y0315236D02*
X0235246Y0313267D01*
X0234262Y0312283D01*
X0232293Y0312283D01*
X0231309Y0313267D01*
X0231309Y0315236D01*
X0232293Y0316220D01*
X0234262Y0316220D01*
X0235246Y0315236D01*
X0228800Y0316220D02*
X0228800Y0312283D01*
X0228800Y0314251D02*
X0226832Y0316220D01*
X0225848Y0316220D01*
X0223429Y0316220D02*
X0222445Y0316220D01*
X0222445Y0312283D01*
X0223429Y0312283D02*
X0221461Y0312283D01*
X0219132Y0312283D02*
X0219132Y0316220D01*
X0216179Y0316220D01*
X0215195Y0315236D01*
X0215195Y0312283D01*
X0212686Y0313267D02*
X0211702Y0312283D01*
X0208750Y0312283D01*
X0208750Y0311299D02*
X0208750Y0316220D01*
X0211702Y0316220D01*
X0212686Y0315236D01*
X0212686Y0313267D01*
X0210718Y0310315D02*
X0209734Y0310315D01*
X0208750Y0311299D01*
X0199795Y0312283D02*
X0199795Y0316220D01*
X0196843Y0316220D01*
X0195859Y0315236D01*
X0195859Y0312283D01*
X0193350Y0313267D02*
X0192366Y0312283D01*
X0190397Y0312283D01*
X0189413Y0313267D01*
X0189413Y0315236D01*
X0190397Y0316220D01*
X0192366Y0316220D01*
X0193350Y0315236D01*
X0193350Y0313267D01*
X0186904Y0313267D02*
X0186904Y0315236D01*
X0185920Y0316220D01*
X0182968Y0316220D01*
X0182968Y0318188D02*
X0182968Y0312283D01*
X0185920Y0312283D01*
X0186904Y0313267D01*
X0180459Y0313267D02*
X0180459Y0315236D01*
X0179475Y0316220D01*
X0177506Y0316220D01*
X0176522Y0315236D01*
X0176522Y0314251D01*
X0180459Y0314251D01*
X0180459Y0313267D02*
X0179475Y0312283D01*
X0177506Y0312283D01*
X0222445Y0318188D02*
X0222445Y0319172D01*
X0242856Y0319172D02*
X0242856Y0318188D01*
D11*
X0302273Y0186063D02*
X0303974Y0186063D01*
X0304541Y0185496D01*
X0303974Y0184928D01*
X0302840Y0184928D01*
X0302273Y0184361D01*
X0302840Y0183794D01*
X0304541Y0183794D01*
X0305863Y0183794D02*
X0306430Y0184361D01*
X0306430Y0186630D01*
X0306997Y0186063D02*
X0305863Y0186063D01*
X0308411Y0185496D02*
X0308979Y0186063D01*
X0310680Y0186063D01*
X0310680Y0183794D01*
X0312095Y0184928D02*
X0314363Y0184928D01*
X0314363Y0184361D02*
X0314363Y0185496D01*
X0313796Y0186063D01*
X0312662Y0186063D01*
X0312095Y0185496D01*
X0312095Y0184928D01*
X0312662Y0183794D02*
X0313796Y0183794D01*
X0314363Y0184361D01*
X0315778Y0183794D02*
X0315778Y0185496D01*
X0316345Y0186063D01*
X0318046Y0186063D01*
X0318046Y0183794D01*
X0319461Y0184361D02*
X0319461Y0185496D01*
X0320028Y0186063D01*
X0321162Y0186063D01*
X0321729Y0185496D01*
X0321729Y0184361D01*
X0321162Y0183794D01*
X0320028Y0183794D01*
X0319461Y0184361D01*
X0323144Y0184361D02*
X0323711Y0183794D01*
X0325413Y0183794D01*
X0325413Y0182660D02*
X0325413Y0186063D01*
X0323711Y0186063D01*
X0323144Y0185496D01*
X0323144Y0184361D01*
X0326827Y0183794D02*
X0326827Y0185496D01*
X0327394Y0186063D01*
X0327961Y0185496D01*
X0327961Y0183794D01*
X0329096Y0183794D02*
X0329096Y0186063D01*
X0328529Y0186063D01*
X0327961Y0185496D01*
X0330510Y0185496D02*
X0331077Y0186063D01*
X0332212Y0186063D01*
X0332779Y0185496D01*
X0332779Y0184361D01*
X0332212Y0183794D01*
X0331077Y0183794D01*
X0330510Y0184361D01*
X0330510Y0185496D01*
X0334193Y0186063D02*
X0335895Y0186063D01*
X0336462Y0185496D01*
X0336462Y0184361D01*
X0335895Y0183794D01*
X0334193Y0183794D01*
X0341560Y0184361D02*
X0342127Y0183794D01*
X0343261Y0183794D01*
X0343828Y0184361D01*
X0343261Y0185496D02*
X0342127Y0185496D01*
X0341560Y0184928D01*
X0341560Y0184361D01*
X0343261Y0185496D02*
X0343828Y0186063D01*
X0343828Y0186630D01*
X0343261Y0187197D01*
X0342127Y0187197D01*
X0341560Y0186630D01*
X0345243Y0187197D02*
X0345243Y0183794D01*
X0345243Y0185496D02*
X0347511Y0185496D01*
X0348926Y0185496D02*
X0349493Y0186063D01*
X0350627Y0186063D01*
X0351195Y0185496D01*
X0351195Y0184361D01*
X0350627Y0183794D01*
X0349493Y0183794D01*
X0348926Y0184361D01*
X0348926Y0185496D01*
X0347511Y0187197D02*
X0347511Y0183794D01*
X0352609Y0183794D02*
X0353743Y0184928D01*
X0353176Y0184928D02*
X0354878Y0184928D01*
X0354878Y0183794D02*
X0354878Y0187197D01*
X0353176Y0187197D01*
X0352609Y0186630D01*
X0352609Y0185496D01*
X0353176Y0184928D01*
X0359975Y0185496D02*
X0362244Y0185496D01*
X0367342Y0186063D02*
X0367909Y0185496D01*
X0369610Y0185496D01*
X0369610Y0187197D02*
X0369610Y0183794D01*
X0367909Y0183794D01*
X0367342Y0184361D01*
X0367342Y0184928D01*
X0367909Y0185496D01*
X0367342Y0186063D02*
X0367342Y0186630D01*
X0367909Y0187197D01*
X0369610Y0187197D01*
X0371025Y0186630D02*
X0371592Y0187197D01*
X0372726Y0187197D01*
X0373293Y0186630D01*
X0373293Y0184361D01*
X0372726Y0183794D01*
X0371592Y0183794D01*
X0371025Y0184361D01*
X0374708Y0185496D02*
X0374708Y0186630D01*
X0375275Y0187197D01*
X0376977Y0187197D01*
X0376977Y0183794D01*
X0376977Y0184928D02*
X0375275Y0184928D01*
X0374708Y0185496D01*
X0382074Y0185496D02*
X0382641Y0186063D01*
X0383776Y0186063D01*
X0384343Y0185496D01*
X0384343Y0184361D01*
X0383776Y0183794D01*
X0382641Y0183794D01*
X0382074Y0184928D02*
X0384343Y0184928D01*
X0385757Y0184928D02*
X0388026Y0184928D01*
X0388026Y0184361D02*
X0388026Y0185496D01*
X0387459Y0186063D01*
X0386325Y0186063D01*
X0385757Y0185496D01*
X0385757Y0184928D01*
X0386325Y0183794D02*
X0387459Y0183794D01*
X0388026Y0184361D01*
X0389394Y0186063D02*
X0389961Y0186063D01*
X0391095Y0184928D01*
X0391095Y0183794D02*
X0391095Y0186063D01*
X0392416Y0185496D02*
X0393551Y0185496D01*
X0392984Y0186630D02*
X0392984Y0183794D01*
X0392984Y0186630D02*
X0392416Y0187197D01*
X0398648Y0187197D02*
X0398648Y0183794D01*
X0400350Y0183794D01*
X0400917Y0184361D01*
X0400917Y0185496D01*
X0400350Y0186063D01*
X0398648Y0186063D01*
X0402332Y0185496D02*
X0402332Y0183794D01*
X0404033Y0183794D01*
X0404600Y0184361D01*
X0404033Y0184928D01*
X0402332Y0184928D01*
X0402332Y0185496D02*
X0402899Y0186063D01*
X0404033Y0186063D01*
X0406015Y0185496D02*
X0406582Y0186063D01*
X0407716Y0186063D01*
X0408283Y0185496D01*
X0408283Y0184361D01*
X0407716Y0183794D01*
X0406582Y0183794D01*
X0406015Y0184928D02*
X0408283Y0184928D01*
X0409698Y0183794D02*
X0411966Y0183794D01*
X0411966Y0187197D01*
X0406015Y0185496D02*
X0406015Y0184928D01*
X0382074Y0184928D02*
X0382074Y0185496D01*
X0382867Y0147065D02*
X0381799Y0145997D01*
X0381799Y0143862D01*
X0382867Y0142795D01*
X0386070Y0142795D01*
X0386070Y0140660D02*
X0386070Y0147065D01*
X0382867Y0147065D01*
X0379624Y0144930D02*
X0377489Y0147065D01*
X0377489Y0140660D01*
X0379624Y0140660D02*
X0375354Y0140660D01*
X0373179Y0140660D02*
X0368908Y0144930D01*
X0368908Y0145997D01*
X0369976Y0147065D01*
X0372111Y0147065D01*
X0373179Y0145997D01*
X0366733Y0145997D02*
X0365665Y0147065D01*
X0363530Y0147065D01*
X0362463Y0145997D01*
X0362463Y0144930D01*
X0366733Y0140660D01*
X0362463Y0140660D01*
X0360288Y0141727D02*
X0356017Y0145997D01*
X0356017Y0141727D01*
X0357085Y0140660D01*
X0359220Y0140660D01*
X0360288Y0141727D01*
X0360288Y0145997D01*
X0359220Y0147065D01*
X0357085Y0147065D01*
X0356017Y0145997D01*
X0368908Y0140660D02*
X0373179Y0140660D01*
X0381799Y0140660D02*
X0383934Y0142795D01*
X0388245Y0141727D02*
X0389312Y0140660D01*
X0391447Y0140660D01*
X0392515Y0141727D01*
X0392515Y0145997D01*
X0391447Y0147065D01*
X0389312Y0147065D01*
X0388245Y0145997D01*
X0308411Y0183794D02*
X0308411Y0185496D01*
X0129727Y0114411D02*
X0129727Y0112143D01*
X0129160Y0111575D01*
X0128025Y0111575D01*
X0127458Y0112143D01*
X0127458Y0114411D01*
X0128025Y0114978D01*
X0129160Y0114978D01*
X0129727Y0114411D01*
X0126044Y0113844D02*
X0126044Y0110441D01*
X0126044Y0111575D02*
X0124342Y0111575D01*
X0123775Y0112143D01*
X0123775Y0113277D01*
X0124342Y0113844D01*
X0126044Y0113844D01*
X0122360Y0113277D02*
X0121793Y0113844D01*
X0120659Y0113844D01*
X0120092Y0113277D01*
X0120092Y0112710D01*
X0122360Y0112710D01*
X0122360Y0112143D02*
X0122360Y0113277D01*
X0122360Y0112143D02*
X0121793Y0111575D01*
X0120659Y0111575D01*
X0118677Y0111575D02*
X0118677Y0113844D01*
X0116976Y0113844D01*
X0116409Y0113277D01*
X0116409Y0111575D01*
X0114994Y0113277D02*
X0112726Y0113277D01*
X0111311Y0113277D02*
X0109042Y0113277D01*
X0109042Y0114978D02*
X0109042Y0111575D01*
X0107628Y0112143D02*
X0107061Y0112710D01*
X0105359Y0112710D01*
X0105359Y0113277D02*
X0105359Y0111575D01*
X0107061Y0111575D01*
X0107628Y0112143D01*
X0107061Y0113844D02*
X0105926Y0113844D01*
X0105359Y0113277D01*
X0103945Y0113844D02*
X0103945Y0111575D01*
X0103945Y0112710D02*
X0102810Y0113844D01*
X0102243Y0113844D01*
X0100875Y0113277D02*
X0100308Y0113844D01*
X0098607Y0113844D01*
X0098607Y0114978D02*
X0098607Y0111575D01*
X0100308Y0111575D01*
X0100875Y0112143D01*
X0100875Y0113277D01*
X0097192Y0113844D02*
X0097192Y0112143D01*
X0096625Y0111575D01*
X0096058Y0112143D01*
X0095491Y0111575D01*
X0094924Y0112143D01*
X0094924Y0113844D01*
X0092942Y0113844D02*
X0091808Y0113844D01*
X0091241Y0113277D01*
X0091241Y0111575D01*
X0092942Y0111575D01*
X0093509Y0112143D01*
X0092942Y0112710D01*
X0091241Y0112710D01*
X0089826Y0112710D02*
X0088692Y0113844D01*
X0088125Y0113844D01*
X0086757Y0113277D02*
X0086190Y0113844D01*
X0085055Y0113844D01*
X0084488Y0113277D01*
X0084488Y0112710D01*
X0086757Y0112710D01*
X0086757Y0112143D02*
X0086757Y0113277D01*
X0086757Y0112143D02*
X0086190Y0111575D01*
X0085055Y0111575D01*
X0089826Y0111575D02*
X0089826Y0113844D01*
X0098790Y0122131D02*
X0100690Y0120231D01*
X0103090Y0121931D01*
X0104090Y0121331D01*
X0105990Y0125831D01*
X0100489Y0124526D02*
X0100393Y0124692D01*
X0100300Y0124859D01*
X0100212Y0125029D01*
X0100128Y0125201D01*
X0100048Y0125374D01*
X0099972Y0125550D01*
X0099900Y0125727D01*
X0099833Y0125906D01*
X0099769Y0126087D01*
X0099710Y0126269D01*
X0099656Y0126452D01*
X0099605Y0126637D01*
X0099559Y0126822D01*
X0099518Y0127009D01*
X0099481Y0127197D01*
X0099490Y0127231D02*
X0096490Y0127731D01*
X0096490Y0130331D01*
X0099490Y0130931D01*
X0100590Y0133431D02*
X0098790Y0136031D01*
X0100690Y0137831D01*
X0103290Y0136031D01*
X0105790Y0137031D02*
X0106290Y0140231D01*
X0108990Y0140231D01*
X0109490Y0137031D01*
X0111990Y0136031D02*
X0114590Y0137831D01*
X0116490Y0136031D01*
X0114690Y0133431D01*
X0115790Y0130931D02*
X0118790Y0130331D01*
X0118790Y0127731D01*
X0115790Y0127231D01*
X0114790Y0124531D02*
X0116390Y0122131D01*
X0114590Y0120231D01*
X0112190Y0121931D01*
X0111190Y0121331D01*
X0109190Y0125831D01*
X0114756Y0124563D02*
X0114859Y0124739D01*
X0114958Y0124918D01*
X0115052Y0125099D01*
X0115142Y0125282D01*
X0115227Y0125468D01*
X0115308Y0125655D01*
X0115384Y0125845D01*
X0115455Y0126036D01*
X0115522Y0126229D01*
X0115583Y0126424D01*
X0115641Y0126620D01*
X0115693Y0126817D01*
X0115740Y0127015D01*
X0115783Y0127215D01*
X0111956Y0136068D02*
X0111784Y0136168D01*
X0111609Y0136265D01*
X0111433Y0136357D01*
X0111254Y0136445D01*
X0111073Y0136529D01*
X0110890Y0136608D01*
X0110706Y0136683D01*
X0110519Y0136754D01*
X0110331Y0136820D01*
X0110142Y0136881D01*
X0109951Y0136938D01*
X0109758Y0136991D01*
X0109565Y0137038D01*
X0109190Y0125931D02*
X0109297Y0125986D01*
X0109403Y0126043D01*
X0109506Y0126105D01*
X0109608Y0126169D01*
X0109707Y0126237D01*
X0109804Y0126308D01*
X0109899Y0126382D01*
X0109991Y0126459D01*
X0110081Y0126540D01*
X0110168Y0126623D01*
X0110252Y0126709D01*
X0110333Y0126797D01*
X0110411Y0126889D01*
X0110487Y0126983D01*
X0110559Y0127079D01*
X0110628Y0127177D01*
X0110694Y0127278D01*
X0110756Y0127381D01*
X0110815Y0127486D01*
X0110871Y0127592D01*
X0110923Y0127701D01*
X0110971Y0127811D01*
X0111016Y0127923D01*
X0111057Y0128036D01*
X0111094Y0128150D01*
X0111128Y0128266D01*
X0111157Y0128382D01*
X0111183Y0128500D01*
X0111205Y0128618D01*
X0111224Y0128737D01*
X0111238Y0128856D01*
X0111248Y0128976D01*
X0111255Y0129096D01*
X0111257Y0129217D01*
X0111255Y0129337D01*
X0111250Y0129457D01*
X0111241Y0129577D01*
X0111227Y0129697D01*
X0111210Y0129816D01*
X0111189Y0129934D01*
X0111164Y0130052D01*
X0111135Y0130169D01*
X0111102Y0130284D01*
X0111066Y0130399D01*
X0111026Y0130512D01*
X0110982Y0130624D01*
X0110934Y0130735D01*
X0110883Y0130844D01*
X0110829Y0130951D01*
X0110770Y0131056D01*
X0110709Y0131160D01*
X0110644Y0131261D01*
X0110576Y0131360D01*
X0110504Y0131457D01*
X0110430Y0131551D01*
X0110352Y0131643D01*
X0110272Y0131732D01*
X0110188Y0131819D01*
X0110102Y0131903D01*
X0110013Y0131984D01*
X0109921Y0132062D01*
X0109827Y0132137D01*
X0109731Y0132208D01*
X0109632Y0132277D01*
X0109531Y0132342D01*
X0109428Y0132404D01*
X0109323Y0132463D01*
X0109216Y0132518D01*
X0109107Y0132570D01*
X0108997Y0132617D01*
X0108885Y0132662D01*
X0108772Y0132702D01*
X0108657Y0132739D01*
X0108541Y0132772D01*
X0108425Y0132802D01*
X0108307Y0132827D01*
X0108189Y0132849D01*
X0108070Y0132866D01*
X0107950Y0132880D01*
X0107830Y0132890D01*
X0107710Y0132896D01*
X0107590Y0132898D01*
X0107470Y0132896D01*
X0107350Y0132890D01*
X0107230Y0132880D01*
X0107110Y0132866D01*
X0106991Y0132849D01*
X0106873Y0132827D01*
X0106755Y0132802D01*
X0106639Y0132772D01*
X0106523Y0132739D01*
X0106408Y0132702D01*
X0106295Y0132662D01*
X0106183Y0132617D01*
X0106073Y0132570D01*
X0105964Y0132518D01*
X0105857Y0132463D01*
X0105752Y0132404D01*
X0105649Y0132342D01*
X0105548Y0132277D01*
X0105449Y0132208D01*
X0105353Y0132137D01*
X0105259Y0132062D01*
X0105167Y0131984D01*
X0105078Y0131903D01*
X0104992Y0131819D01*
X0104908Y0131732D01*
X0104828Y0131643D01*
X0104750Y0131551D01*
X0104676Y0131457D01*
X0104604Y0131360D01*
X0104536Y0131261D01*
X0104471Y0131160D01*
X0104410Y0131056D01*
X0104351Y0130951D01*
X0104297Y0130844D01*
X0104246Y0130735D01*
X0104198Y0130624D01*
X0104154Y0130512D01*
X0104114Y0130399D01*
X0104078Y0130284D01*
X0104045Y0130169D01*
X0104016Y0130052D01*
X0103991Y0129934D01*
X0103970Y0129816D01*
X0103953Y0129697D01*
X0103939Y0129577D01*
X0103930Y0129457D01*
X0103925Y0129337D01*
X0103923Y0129217D01*
X0103925Y0129096D01*
X0103932Y0128976D01*
X0103942Y0128856D01*
X0103956Y0128737D01*
X0103975Y0128618D01*
X0103997Y0128500D01*
X0104023Y0128382D01*
X0104052Y0128266D01*
X0104086Y0128150D01*
X0104123Y0128036D01*
X0104164Y0127923D01*
X0104209Y0127811D01*
X0104257Y0127701D01*
X0104309Y0127592D01*
X0104365Y0127486D01*
X0104424Y0127381D01*
X0104486Y0127278D01*
X0104552Y0127177D01*
X0104621Y0127079D01*
X0104693Y0126983D01*
X0104769Y0126889D01*
X0104847Y0126797D01*
X0104928Y0126709D01*
X0105012Y0126623D01*
X0105099Y0126540D01*
X0105189Y0126459D01*
X0105281Y0126382D01*
X0105376Y0126308D01*
X0105473Y0126237D01*
X0105572Y0126169D01*
X0105674Y0126105D01*
X0105777Y0126043D01*
X0105883Y0125986D01*
X0105990Y0125931D01*
X0099500Y0130932D02*
X0099550Y0131120D01*
X0099605Y0131307D01*
X0099664Y0131493D01*
X0099728Y0131677D01*
X0099796Y0131860D01*
X0099869Y0132041D01*
X0099946Y0132220D01*
X0100027Y0132397D01*
X0100113Y0132573D01*
X0100202Y0132746D01*
X0100296Y0132917D01*
X0100394Y0133085D01*
X0100496Y0133252D01*
X0100601Y0133415D01*
X0103253Y0136048D02*
X0103418Y0136146D01*
X0103586Y0136240D01*
X0103756Y0136330D01*
X0103928Y0136417D01*
X0104101Y0136499D01*
X0104277Y0136578D01*
X0104454Y0136652D01*
X0104633Y0136722D01*
X0104814Y0136788D01*
X0104996Y0136850D01*
X0105179Y0136908D01*
X0105364Y0136962D01*
X0105550Y0137011D01*
X0105737Y0137056D01*
X0105152Y0145020D02*
X0105152Y0147289D01*
X0103450Y0147289D01*
X0102883Y0146721D01*
X0102883Y0145020D01*
X0106473Y0145020D02*
X0107607Y0145020D01*
X0107040Y0145020D02*
X0107040Y0147289D01*
X0107607Y0147289D01*
X0107040Y0148423D02*
X0107040Y0148990D01*
X0106403Y0152215D02*
X0105269Y0153350D01*
X0104135Y0152215D01*
X0104135Y0155618D01*
X0106403Y0155618D02*
X0106403Y0152215D01*
X0102720Y0152782D02*
X0102153Y0153350D01*
X0100451Y0153350D01*
X0100451Y0153917D02*
X0100451Y0152215D01*
X0102153Y0152215D01*
X0102720Y0152782D01*
X0102153Y0154484D02*
X0101019Y0154484D01*
X0100451Y0153917D01*
X0099037Y0155618D02*
X0098470Y0155618D01*
X0098470Y0152215D01*
X0099037Y0152215D02*
X0097903Y0152215D01*
X0096581Y0152782D02*
X0096581Y0153917D01*
X0096014Y0154484D01*
X0094880Y0154484D01*
X0094313Y0153917D01*
X0094313Y0153350D01*
X0096581Y0153350D01*
X0096581Y0152782D02*
X0096014Y0152215D01*
X0094880Y0152215D01*
X0092898Y0152215D02*
X0091197Y0152215D01*
X0090630Y0152782D01*
X0091197Y0153350D01*
X0092331Y0153350D01*
X0092898Y0153917D01*
X0092331Y0154484D01*
X0090630Y0154484D01*
X0091833Y0148423D02*
X0094102Y0146154D01*
X0093535Y0146721D02*
X0091833Y0145020D01*
X0094102Y0145020D02*
X0094102Y0148423D01*
X0095517Y0148423D02*
X0095517Y0145587D01*
X0096084Y0145020D01*
X0097218Y0145020D01*
X0097785Y0145587D01*
X0097785Y0148423D01*
X0111501Y0152215D02*
X0111501Y0153917D01*
X0112068Y0154484D01*
X0113202Y0154484D01*
X0113769Y0153917D01*
X0115091Y0154484D02*
X0116225Y0154484D01*
X0115658Y0155051D02*
X0115658Y0152782D01*
X0115091Y0152215D01*
X0113769Y0152215D02*
X0113769Y0155618D01*
X0117593Y0154484D02*
X0118160Y0154484D01*
X0119294Y0153350D01*
X0119294Y0154484D02*
X0119294Y0152215D01*
X0120709Y0152782D02*
X0120709Y0153917D01*
X0121276Y0154484D01*
X0122410Y0154484D01*
X0122977Y0153917D01*
X0122977Y0152782D01*
X0122410Y0152215D01*
X0121276Y0152215D01*
X0120709Y0152782D01*
X0124392Y0152215D02*
X0124392Y0155618D01*
X0126660Y0155618D02*
X0124392Y0152215D01*
X0126660Y0152215D02*
X0126660Y0155618D01*
X0126452Y0161271D02*
X0124751Y0161271D01*
X0124184Y0161838D01*
X0124184Y0164107D01*
X0124751Y0164674D01*
X0126452Y0164674D01*
X0126452Y0161271D01*
X0122769Y0161838D02*
X0122769Y0162973D01*
X0122202Y0163540D01*
X0121068Y0163540D01*
X0120500Y0162973D01*
X0120500Y0162405D01*
X0122769Y0162405D01*
X0122769Y0161838D02*
X0122202Y0161271D01*
X0121068Y0161271D01*
X0119086Y0161271D02*
X0117384Y0161271D01*
X0116817Y0161838D01*
X0117384Y0162405D01*
X0118519Y0162405D01*
X0119086Y0162973D01*
X0118519Y0163540D01*
X0116817Y0163540D01*
X0115403Y0163540D02*
X0114836Y0163540D01*
X0114836Y0161271D01*
X0115403Y0161271D02*
X0114268Y0161271D01*
X0112947Y0161838D02*
X0112380Y0161271D01*
X0110679Y0161271D01*
X0110679Y0160704D02*
X0110679Y0163540D01*
X0112380Y0163540D01*
X0112947Y0162973D01*
X0112947Y0161838D01*
X0111813Y0160137D02*
X0111246Y0160137D01*
X0110679Y0160704D01*
X0109264Y0161271D02*
X0109264Y0163540D01*
X0107563Y0163540D01*
X0106996Y0162973D01*
X0106996Y0161271D01*
X0105581Y0161838D02*
X0105581Y0162973D01*
X0105014Y0163540D01*
X0103880Y0163540D01*
X0103312Y0162973D01*
X0103312Y0162405D01*
X0105581Y0162405D01*
X0105581Y0161838D02*
X0105014Y0161271D01*
X0103880Y0161271D01*
X0101898Y0161838D02*
X0101898Y0162973D01*
X0101331Y0163540D01*
X0099629Y0163540D01*
X0099629Y0164674D02*
X0099629Y0161271D01*
X0101331Y0161271D01*
X0101898Y0161838D01*
X0094532Y0161271D02*
X0093397Y0161271D01*
X0093964Y0161271D02*
X0093964Y0163540D01*
X0094532Y0163540D01*
X0093964Y0164674D02*
X0093964Y0165241D01*
X0092076Y0163540D02*
X0090375Y0163540D01*
X0089808Y0162973D01*
X0089808Y0161271D01*
X0092076Y0161271D02*
X0092076Y0163540D01*
X0114836Y0164674D02*
X0114836Y0165241D01*
X0116388Y0148423D02*
X0116388Y0145020D01*
X0118089Y0145020D01*
X0118656Y0145587D01*
X0118656Y0146721D01*
X0118089Y0147289D01*
X0116388Y0147289D01*
X0114973Y0146721D02*
X0114406Y0147289D01*
X0113272Y0147289D01*
X0112705Y0146721D01*
X0112705Y0146154D01*
X0114973Y0146154D01*
X0114973Y0145587D02*
X0114973Y0146721D01*
X0114973Y0145587D02*
X0114406Y0145020D01*
X0113272Y0145020D01*
X0120071Y0145020D02*
X0121772Y0145020D01*
X0122340Y0145587D01*
X0121772Y0146154D01*
X0120071Y0146154D01*
X0120071Y0146721D02*
X0120071Y0145020D01*
X0120071Y0146721D02*
X0120638Y0147289D01*
X0121772Y0147289D01*
X0123754Y0148423D02*
X0123754Y0145020D01*
X0126023Y0145020D02*
X0126023Y0148423D01*
X0124888Y0147289D01*
X0123754Y0148423D01*
X0114681Y0133378D02*
X0114781Y0133216D01*
X0114878Y0133051D01*
X0114971Y0132884D01*
X0115059Y0132715D01*
X0115144Y0132545D01*
X0115225Y0132372D01*
X0115302Y0132197D01*
X0115375Y0132021D01*
X0115444Y0131843D01*
X0115509Y0131663D01*
X0115570Y0131483D01*
X0115626Y0131300D01*
X0115679Y0131117D01*
X0115727Y0130932D01*
X0100490Y0124531D02*
X0098790Y0122131D01*
X0111311Y0114978D02*
X0111311Y0111575D01*
D12*
X0116679Y0295593D02*
X0361090Y0295593D01*
X0360892Y0307908D02*
X0117481Y0307908D01*
D13*
X0256274Y0328532D02*
X0259110Y0325696D01*
X0264781Y0325696D01*
X0267617Y0328532D01*
X0267617Y0339875D01*
X0264781Y0342711D01*
X0259110Y0342711D01*
X0256274Y0339875D01*
X0274690Y0339875D02*
X0277525Y0342711D01*
X0286033Y0342711D01*
X0286033Y0325696D01*
X0277525Y0325696D01*
X0274690Y0328532D01*
X0274690Y0339875D01*
X0293105Y0334203D02*
X0293105Y0325696D01*
X0293105Y0334203D02*
X0295941Y0337039D01*
X0304448Y0337039D01*
X0304448Y0325696D01*
X0311521Y0328532D02*
X0311521Y0334203D01*
X0314357Y0337039D01*
X0320028Y0337039D01*
X0322864Y0334203D01*
X0322864Y0328532D01*
X0320028Y0325696D01*
X0314357Y0325696D01*
X0311521Y0328532D01*
X0329937Y0325696D02*
X0329937Y0334203D01*
X0332773Y0337039D01*
X0335608Y0334203D01*
X0335608Y0325696D01*
X0341280Y0325696D02*
X0341280Y0337039D01*
X0338444Y0337039D01*
X0335608Y0334203D01*
X0348353Y0334203D02*
X0348353Y0331367D01*
X0359696Y0331367D01*
X0359696Y0328532D02*
X0359696Y0334203D01*
X0356860Y0337039D01*
X0351188Y0337039D01*
X0348353Y0334203D01*
X0356860Y0325696D02*
X0359696Y0328532D01*
X0356860Y0325696D02*
X0351188Y0325696D01*
D14*
X0345402Y0304444D02*
X0345402Y0299740D01*
X0347330Y0299740D02*
X0349682Y0299740D01*
X0350466Y0300524D01*
X0350466Y0302092D01*
X0349682Y0302876D01*
X0347330Y0302876D01*
X0345402Y0302092D02*
X0344618Y0302876D01*
X0343050Y0302876D01*
X0342266Y0302092D01*
X0342266Y0299740D01*
X0340338Y0299740D02*
X0340338Y0302876D01*
X0337986Y0302876D01*
X0337202Y0302092D01*
X0337202Y0299740D01*
X0335273Y0300524D02*
X0334489Y0299740D01*
X0332921Y0299740D01*
X0332137Y0300524D01*
X0332137Y0302092D01*
X0332921Y0302876D01*
X0334489Y0302876D01*
X0335273Y0302092D01*
X0335273Y0300524D01*
X0330209Y0299740D02*
X0328641Y0299740D01*
X0329425Y0299740D02*
X0329425Y0304444D01*
X0330209Y0304444D01*
X0326833Y0302092D02*
X0326049Y0302876D01*
X0324481Y0302876D01*
X0323697Y0302092D01*
X0323697Y0300524D01*
X0324481Y0299740D01*
X0326049Y0299740D01*
X0326833Y0300524D01*
X0326833Y0302092D01*
X0321768Y0302092D02*
X0320984Y0302876D01*
X0318632Y0302876D01*
X0318632Y0298956D01*
X0319416Y0298172D01*
X0320200Y0298172D01*
X0320984Y0299740D02*
X0318632Y0299740D01*
X0316704Y0300524D02*
X0316704Y0302876D01*
X0316704Y0300524D02*
X0315920Y0299740D01*
X0313568Y0299740D01*
X0313568Y0298956D02*
X0314352Y0298172D01*
X0315136Y0298172D01*
X0313568Y0298956D02*
X0313568Y0302876D01*
X0306575Y0302876D02*
X0305007Y0302876D01*
X0305791Y0303660D02*
X0305791Y0300524D01*
X0305007Y0299740D01*
X0303199Y0299740D02*
X0303199Y0304444D01*
X0302415Y0302876D02*
X0300847Y0302876D01*
X0300063Y0302092D01*
X0300063Y0299740D01*
X0298135Y0300524D02*
X0297351Y0301308D01*
X0294999Y0301308D01*
X0294999Y0302092D02*
X0294999Y0299740D01*
X0297351Y0299740D01*
X0298135Y0300524D01*
X0297351Y0302876D02*
X0295783Y0302876D01*
X0294999Y0302092D01*
X0293071Y0302876D02*
X0291503Y0302876D01*
X0292287Y0303660D02*
X0292287Y0300524D01*
X0291503Y0299740D01*
X0284630Y0299740D02*
X0284630Y0304444D01*
X0283846Y0302876D02*
X0282278Y0302876D01*
X0281494Y0302092D01*
X0281494Y0299740D01*
X0279566Y0300524D02*
X0279566Y0302092D01*
X0278782Y0302876D01*
X0277214Y0302876D01*
X0276430Y0302092D01*
X0276430Y0301308D01*
X0279566Y0301308D01*
X0279566Y0300524D02*
X0278782Y0299740D01*
X0277214Y0299740D01*
X0274501Y0299740D02*
X0272933Y0299740D01*
X0273717Y0299740D02*
X0273717Y0304444D01*
X0274501Y0304444D01*
X0271125Y0302876D02*
X0268773Y0302876D01*
X0267989Y0302092D01*
X0267989Y0300524D01*
X0268773Y0299740D01*
X0271125Y0299740D01*
X0271125Y0298172D02*
X0271125Y0302876D01*
X0266061Y0302092D02*
X0265277Y0302876D01*
X0262925Y0302876D01*
X0263709Y0301308D02*
X0265277Y0301308D01*
X0266061Y0302092D01*
X0266061Y0299740D02*
X0263709Y0299740D01*
X0262925Y0300524D01*
X0263709Y0301308D01*
X0255932Y0300524D02*
X0255932Y0302876D01*
X0255932Y0300524D02*
X0255148Y0299740D01*
X0252796Y0299740D01*
X0252796Y0302876D01*
X0250868Y0302092D02*
X0250084Y0302876D01*
X0247732Y0302876D01*
X0248516Y0301308D02*
X0250084Y0301308D01*
X0250868Y0302092D01*
X0250868Y0299740D02*
X0248516Y0299740D01*
X0247732Y0300524D01*
X0248516Y0301308D01*
X0240739Y0299740D02*
X0239171Y0299740D01*
X0239955Y0299740D02*
X0239955Y0304444D01*
X0240739Y0304444D01*
X0237363Y0302876D02*
X0236579Y0302876D01*
X0236579Y0299740D01*
X0237363Y0299740D02*
X0235795Y0299740D01*
X0232419Y0299740D02*
X0230851Y0302876D01*
X0228922Y0302092D02*
X0228138Y0302876D01*
X0226570Y0302876D01*
X0225786Y0302092D01*
X0225786Y0301308D01*
X0228922Y0301308D01*
X0228922Y0300524D02*
X0228922Y0302092D01*
X0228922Y0300524D02*
X0228138Y0299740D01*
X0226570Y0299740D01*
X0232419Y0299740D02*
X0233987Y0302876D01*
X0236579Y0304444D02*
X0236579Y0305228D01*
X0218794Y0302876D02*
X0218794Y0300524D01*
X0218010Y0299740D01*
X0217226Y0300524D01*
X0216442Y0299740D01*
X0215658Y0300524D01*
X0215658Y0302876D01*
X0213729Y0302876D02*
X0212945Y0302876D01*
X0212945Y0299740D01*
X0213729Y0299740D02*
X0212161Y0299740D01*
X0209569Y0300524D02*
X0209569Y0303660D01*
X0210353Y0302876D02*
X0208785Y0302876D01*
X0206977Y0302092D02*
X0206193Y0302876D01*
X0204625Y0302876D01*
X0203841Y0302092D01*
X0203841Y0299740D01*
X0201913Y0299740D02*
X0200345Y0299740D01*
X0201129Y0299740D02*
X0201129Y0302876D01*
X0201913Y0302876D01*
X0201129Y0304444D02*
X0201129Y0305228D01*
X0198536Y0302876D02*
X0196184Y0302876D01*
X0195400Y0302092D01*
X0195400Y0299740D01*
X0198536Y0299740D02*
X0198536Y0302876D01*
X0206977Y0304444D02*
X0206977Y0299740D01*
X0208785Y0299740D02*
X0209569Y0300524D01*
X0212945Y0304444D02*
X0212945Y0305228D01*
X0188408Y0302092D02*
X0187624Y0302876D01*
X0186056Y0302876D01*
X0185272Y0302092D01*
X0185272Y0301308D01*
X0188408Y0301308D01*
X0188408Y0300524D02*
X0188408Y0302092D01*
X0188408Y0300524D02*
X0187624Y0299740D01*
X0186056Y0299740D01*
X0183344Y0300524D02*
X0182560Y0299740D01*
X0180208Y0299740D01*
X0178279Y0300524D02*
X0177495Y0299740D01*
X0175927Y0299740D01*
X0175143Y0300524D01*
X0175143Y0302092D01*
X0175927Y0302876D01*
X0177495Y0302876D01*
X0178279Y0302092D01*
X0178279Y0300524D01*
X0180208Y0302876D02*
X0182560Y0302876D01*
X0183344Y0302092D01*
X0183344Y0300524D01*
X0173215Y0299740D02*
X0171647Y0299740D01*
X0172431Y0299740D02*
X0172431Y0304444D01*
X0173215Y0304444D01*
X0169839Y0302092D02*
X0169839Y0300524D01*
X0169055Y0299740D01*
X0167487Y0299740D01*
X0166703Y0300524D01*
X0166703Y0302092D01*
X0167487Y0302876D01*
X0169055Y0302876D01*
X0169839Y0302092D01*
X0164774Y0302092D02*
X0163990Y0302876D01*
X0161638Y0302876D01*
X0161638Y0298956D01*
X0162422Y0298172D01*
X0163206Y0298172D01*
X0163990Y0299740D02*
X0161638Y0299740D01*
X0159710Y0299740D02*
X0158142Y0299740D01*
X0158926Y0299740D02*
X0158926Y0302876D01*
X0159710Y0302876D01*
X0158926Y0304444D02*
X0158926Y0305228D01*
X0156334Y0302092D02*
X0155550Y0302876D01*
X0153198Y0302876D01*
X0150485Y0302876D02*
X0148917Y0302876D01*
X0148133Y0302092D01*
X0148133Y0299740D01*
X0150485Y0299740D01*
X0151269Y0300524D01*
X0150485Y0301308D01*
X0148133Y0301308D01*
X0146205Y0299740D02*
X0144637Y0299740D01*
X0145421Y0299740D02*
X0145421Y0304444D01*
X0146205Y0304444D01*
X0153198Y0299740D02*
X0155550Y0299740D01*
X0156334Y0300524D01*
X0156334Y0302092D01*
X0163990Y0299740D02*
X0164774Y0300524D01*
X0164774Y0302092D01*
X0137765Y0299740D02*
X0136197Y0299740D01*
X0136981Y0299740D02*
X0136981Y0304444D01*
X0137765Y0304444D01*
X0134388Y0302876D02*
X0133604Y0302876D01*
X0133604Y0299740D01*
X0134388Y0299740D02*
X0132820Y0299740D01*
X0131012Y0299740D02*
X0131012Y0302876D01*
X0130228Y0302876D01*
X0129444Y0302092D01*
X0128660Y0302876D01*
X0127876Y0302092D01*
X0127876Y0299740D01*
X0129444Y0299740D02*
X0129444Y0302092D01*
X0125948Y0302876D02*
X0125164Y0302876D01*
X0125164Y0299740D01*
X0125948Y0299740D02*
X0124380Y0299740D01*
X0121788Y0300524D02*
X0121004Y0299740D01*
X0121788Y0300524D02*
X0121788Y0303660D01*
X0122572Y0302876D02*
X0121004Y0302876D01*
X0119195Y0302092D02*
X0118411Y0302876D01*
X0116059Y0302876D01*
X0116843Y0301308D02*
X0118411Y0301308D01*
X0119195Y0302092D01*
X0119195Y0299740D02*
X0116843Y0299740D01*
X0116059Y0300524D01*
X0116843Y0301308D01*
X0125164Y0304444D02*
X0125164Y0305228D01*
X0133604Y0305228D02*
X0133604Y0304444D01*
X0228025Y0277664D02*
X0228025Y0276964D01*
X0228025Y0275563D02*
X0228025Y0272760D01*
X0227325Y0272760D02*
X0228726Y0272760D01*
X0230528Y0272760D02*
X0230528Y0274862D01*
X0231228Y0275563D01*
X0233330Y0275563D01*
X0233330Y0272760D01*
X0235131Y0272760D02*
X0237233Y0272760D01*
X0237934Y0273461D01*
X0237934Y0274862D01*
X0237233Y0275563D01*
X0235131Y0275563D01*
X0235131Y0272060D01*
X0235832Y0271359D01*
X0236533Y0271359D01*
X0240436Y0272760D02*
X0241837Y0272760D01*
X0242538Y0273461D01*
X0242538Y0274862D01*
X0241837Y0275563D01*
X0240436Y0275563D01*
X0239735Y0274862D01*
X0239735Y0274161D01*
X0242538Y0274161D01*
X0244339Y0272760D02*
X0244339Y0276964D01*
X0245741Y0275563D01*
X0247142Y0276964D01*
X0247142Y0272760D01*
X0253547Y0272760D02*
X0255649Y0272760D01*
X0256350Y0273461D01*
X0256350Y0275563D01*
X0258151Y0274862D02*
X0258852Y0275563D01*
X0260953Y0275563D01*
X0260953Y0276964D02*
X0260953Y0272760D01*
X0258852Y0272760D01*
X0258151Y0273461D01*
X0258151Y0274862D01*
X0253547Y0275563D02*
X0253547Y0272060D01*
X0254248Y0271359D01*
X0254948Y0271359D01*
X0267359Y0272760D02*
X0269461Y0274862D01*
X0270161Y0274161D02*
X0267359Y0276964D01*
X0270161Y0276964D02*
X0270161Y0272760D01*
X0271963Y0273461D02*
X0272663Y0272760D01*
X0274065Y0272760D01*
X0274765Y0273461D01*
X0274765Y0276964D01*
X0271963Y0276964D02*
X0271963Y0273461D01*
X0281171Y0273461D02*
X0281871Y0272760D01*
X0283973Y0272760D01*
X0283273Y0274161D02*
X0281871Y0274161D01*
X0281171Y0273461D01*
X0281171Y0275563D02*
X0283273Y0275563D01*
X0283973Y0274862D01*
X0283273Y0274161D01*
X0285775Y0274161D02*
X0288577Y0274161D01*
X0288577Y0273461D02*
X0288577Y0274862D01*
X0287876Y0275563D01*
X0286475Y0275563D01*
X0285775Y0274862D01*
X0285775Y0274161D01*
X0286475Y0272760D02*
X0287876Y0272760D01*
X0288577Y0273461D01*
X0290245Y0272760D02*
X0291646Y0272760D01*
X0290946Y0272760D02*
X0290946Y0276964D01*
X0291646Y0276964D01*
X0293448Y0274862D02*
X0293448Y0272760D01*
X0295550Y0272760D01*
X0296250Y0273461D01*
X0295550Y0274161D01*
X0293448Y0274161D01*
X0293448Y0274862D02*
X0294148Y0275563D01*
X0295550Y0275563D01*
X0298052Y0276964D02*
X0298052Y0272760D01*
X0299453Y0274161D01*
X0300854Y0272760D01*
X0300854Y0276964D01*
X0307260Y0274862D02*
X0307260Y0272760D01*
X0307260Y0274862D02*
X0307960Y0275563D01*
X0309361Y0275563D01*
X0310062Y0274862D01*
X0311730Y0275563D02*
X0313131Y0275563D01*
X0312431Y0276263D02*
X0312431Y0273461D01*
X0311730Y0272760D01*
X0310062Y0272760D02*
X0310062Y0276964D01*
X0314866Y0275563D02*
X0315567Y0275563D01*
X0316968Y0274161D01*
X0316968Y0272760D02*
X0316968Y0275563D01*
X0318769Y0274862D02*
X0319470Y0275563D01*
X0320871Y0275563D01*
X0321572Y0274862D01*
X0321572Y0273461D01*
X0320871Y0272760D01*
X0319470Y0272760D01*
X0318769Y0273461D01*
X0318769Y0274862D01*
X0323373Y0272760D02*
X0323373Y0276964D01*
X0326176Y0276964D02*
X0323373Y0272760D01*
X0326176Y0272760D02*
X0326176Y0276964D01*
X0332581Y0274862D02*
X0332581Y0272760D01*
X0332581Y0274862D02*
X0333282Y0275563D01*
X0335384Y0275563D01*
X0335384Y0272760D01*
X0337052Y0272760D02*
X0338453Y0272760D01*
X0337752Y0272760D02*
X0337752Y0275563D01*
X0338453Y0275563D01*
X0337752Y0276964D02*
X0337752Y0277664D01*
X0344858Y0276964D02*
X0344858Y0272760D01*
X0346960Y0272760D01*
X0347661Y0273461D01*
X0347661Y0274862D01*
X0346960Y0275563D01*
X0344858Y0275563D01*
X0349462Y0274862D02*
X0349462Y0274161D01*
X0352265Y0274161D01*
X0352265Y0273461D02*
X0352265Y0274862D01*
X0351564Y0275563D01*
X0350163Y0275563D01*
X0349462Y0274862D01*
X0350163Y0272760D02*
X0351564Y0272760D01*
X0352265Y0273461D01*
X0354066Y0272760D02*
X0354066Y0274862D01*
X0354767Y0275563D01*
X0356869Y0275563D01*
X0356869Y0272760D01*
X0358670Y0272760D02*
X0360772Y0272760D01*
X0361472Y0273461D01*
X0361472Y0274862D01*
X0360772Y0275563D01*
X0358670Y0275563D01*
X0358670Y0272060D01*
X0359371Y0271359D01*
X0360071Y0271359D01*
X0363141Y0272760D02*
X0364542Y0272760D01*
X0363841Y0272760D02*
X0363841Y0275563D01*
X0364542Y0275563D01*
X0363841Y0276964D02*
X0363841Y0277664D01*
X0366343Y0275563D02*
X0368445Y0275563D01*
X0369146Y0274862D01*
X0368445Y0274161D01*
X0367044Y0274161D01*
X0366343Y0273461D01*
X0367044Y0272760D01*
X0369146Y0272760D01*
X0370947Y0274161D02*
X0373750Y0274161D01*
X0373750Y0273461D02*
X0373750Y0274862D01*
X0373049Y0275563D01*
X0371648Y0275563D01*
X0370947Y0274862D01*
X0370947Y0274161D01*
X0371648Y0272760D02*
X0373049Y0272760D01*
X0373750Y0273461D01*
X0375551Y0273461D02*
X0376252Y0272760D01*
X0378354Y0272760D01*
X0378354Y0276964D01*
X0376252Y0276964D01*
X0375551Y0276263D01*
X0375551Y0273461D01*
X0359027Y0299740D02*
X0359027Y0304444D01*
X0360595Y0304444D02*
X0357459Y0304444D01*
X0355530Y0302092D02*
X0354746Y0302876D01*
X0353178Y0302876D01*
X0352394Y0302092D01*
X0352394Y0301308D01*
X0355530Y0301308D01*
X0355530Y0300524D02*
X0355530Y0302092D01*
X0355530Y0300524D02*
X0354746Y0299740D01*
X0353178Y0299740D01*
X0321768Y0300524D02*
X0320984Y0299740D01*
X0321768Y0300524D02*
X0321768Y0302092D01*
X0303199Y0302092D02*
X0302415Y0302876D01*
X0284630Y0302092D02*
X0283846Y0302876D01*
X0228726Y0275563D02*
X0228025Y0275563D01*
X0326228Y0129194D02*
X0326228Y0128410D01*
X0327012Y0128410D01*
X0327012Y0129194D01*
X0326228Y0129194D01*
X0326228Y0126842D02*
X0326228Y0126058D01*
X0327012Y0126058D01*
X0327012Y0126842D01*
X0326228Y0126842D01*
X0328940Y0127626D02*
X0332076Y0127626D01*
X0332076Y0126842D02*
X0332076Y0128410D01*
X0331292Y0129194D01*
X0329724Y0129194D01*
X0328940Y0128410D01*
X0328940Y0127626D01*
X0329724Y0126058D02*
X0331292Y0126058D01*
X0332076Y0126842D01*
X0334005Y0126058D02*
X0334005Y0130762D01*
X0334005Y0129194D02*
X0336357Y0129194D01*
X0337141Y0128410D01*
X0337141Y0126842D01*
X0336357Y0126058D01*
X0334005Y0126058D01*
X0339069Y0126842D02*
X0339069Y0128410D01*
X0339853Y0129194D01*
X0341421Y0129194D01*
X0342205Y0128410D01*
X0342205Y0126842D01*
X0341421Y0126058D01*
X0339853Y0126058D01*
X0339069Y0126842D01*
X0344133Y0126058D02*
X0344133Y0130762D01*
X0347269Y0130762D02*
X0344133Y0126058D01*
X0347269Y0126058D02*
X0347269Y0130762D01*
D15*
X0350048Y0094777D03*
D16*
X0189557Y0074454D02*
X0188789Y0075221D01*
X0188789Y0076756D01*
X0191091Y0074454D02*
X0192626Y0074454D01*
X0191859Y0075221D02*
X0191859Y0072152D01*
X0191091Y0071384D01*
X0194161Y0071384D02*
X0197230Y0074454D01*
X0198765Y0074454D02*
X0200299Y0074454D01*
X0199532Y0075221D02*
X0199532Y0072152D01*
X0198765Y0071384D01*
X0197230Y0071384D02*
X0194161Y0074454D01*
X0201834Y0072152D02*
X0201834Y0071384D01*
X0202601Y0071384D01*
X0202601Y0072152D01*
X0201834Y0072152D01*
X0204136Y0071384D02*
X0206438Y0071384D01*
X0207205Y0072152D01*
X0207205Y0073686D01*
X0206438Y0074454D01*
X0204136Y0074454D01*
X0204136Y0070617D01*
X0204903Y0069850D01*
X0205670Y0069850D01*
X0208740Y0072152D02*
X0208740Y0073686D01*
X0209507Y0074454D01*
X0211042Y0074454D01*
X0211809Y0073686D01*
X0211809Y0072152D01*
X0211042Y0071384D01*
X0209507Y0071384D01*
X0208740Y0072152D01*
X0213344Y0071384D02*
X0214878Y0071384D01*
X0214111Y0071384D02*
X0214111Y0075988D01*
X0214878Y0075988D01*
X0216413Y0073686D02*
X0216413Y0071384D01*
X0218715Y0071384D01*
X0219482Y0072152D01*
X0218715Y0072919D01*
X0216413Y0072919D01*
X0216413Y0073686D02*
X0217180Y0074454D01*
X0218715Y0074454D01*
X0221017Y0074454D02*
X0222551Y0074454D01*
X0221784Y0075221D02*
X0221784Y0072152D01*
X0221017Y0071384D01*
X0224086Y0071384D02*
X0226388Y0071384D01*
X0227155Y0072152D01*
X0226388Y0072919D01*
X0224086Y0072919D01*
X0224086Y0073686D02*
X0224086Y0071384D01*
X0224086Y0073686D02*
X0224853Y0074454D01*
X0226388Y0074454D01*
X0228690Y0074454D02*
X0230992Y0074454D01*
X0231759Y0073686D01*
X0231759Y0072152D01*
X0230992Y0071384D01*
X0228690Y0071384D01*
X0228690Y0075988D01*
X0227923Y0078884D02*
X0227155Y0078884D01*
X0227155Y0079652D01*
X0227923Y0079652D01*
X0227923Y0078884D01*
X0229457Y0078884D02*
X0232527Y0078884D01*
X0229457Y0081954D01*
X0229457Y0082721D01*
X0230225Y0083488D01*
X0231759Y0083488D01*
X0232527Y0082721D01*
X0234061Y0082721D02*
X0234061Y0081954D01*
X0234829Y0081186D01*
X0234061Y0080419D01*
X0234061Y0079652D01*
X0234829Y0078884D01*
X0236363Y0078884D01*
X0237131Y0079652D01*
X0235596Y0081186D02*
X0234829Y0081186D01*
X0234061Y0082721D02*
X0234829Y0083488D01*
X0236363Y0083488D01*
X0237131Y0082721D01*
X0238665Y0083488D02*
X0241734Y0083488D01*
X0240200Y0083488D02*
X0240200Y0078884D01*
X0243269Y0078884D02*
X0243269Y0081954D01*
X0244804Y0083488D01*
X0246338Y0081954D01*
X0246338Y0078884D01*
X0246338Y0081186D02*
X0243269Y0081186D01*
X0247873Y0083488D02*
X0250942Y0083488D01*
X0250942Y0078884D01*
X0250942Y0081186D02*
X0249408Y0081186D01*
X0249408Y0086384D02*
X0250942Y0086384D01*
X0250175Y0086384D02*
X0250175Y0089454D01*
X0250942Y0089454D01*
X0250175Y0090988D02*
X0250175Y0091756D01*
X0252477Y0090988D02*
X0252477Y0086384D01*
X0255546Y0086384D02*
X0255546Y0090988D01*
X0254012Y0089454D01*
X0252477Y0090988D01*
X0247873Y0088686D02*
X0247873Y0087152D01*
X0247106Y0086384D01*
X0244804Y0086384D01*
X0243269Y0086384D02*
X0243269Y0089454D01*
X0241734Y0089454D02*
X0240967Y0089454D01*
X0241734Y0089454D02*
X0243269Y0087919D01*
X0244804Y0089454D02*
X0247106Y0089454D01*
X0247873Y0088686D01*
X0239432Y0088686D02*
X0239432Y0087152D01*
X0238665Y0086384D01*
X0237131Y0086384D01*
X0236363Y0087152D01*
X0236363Y0088686D01*
X0237131Y0089454D01*
X0238665Y0089454D01*
X0239432Y0088686D01*
X0234829Y0089454D02*
X0234061Y0088686D01*
X0232527Y0088686D01*
X0231759Y0087919D01*
X0231759Y0087152D01*
X0232527Y0086384D01*
X0234061Y0086384D01*
X0234829Y0087152D01*
X0234829Y0089454D02*
X0234829Y0090221D01*
X0234061Y0090988D01*
X0232527Y0090988D01*
X0231759Y0090221D01*
X0230225Y0090988D02*
X0227923Y0090988D01*
X0227155Y0090221D01*
X0227155Y0087152D01*
X0227923Y0086384D01*
X0230225Y0086384D01*
X0230225Y0090988D01*
X0233294Y0076756D02*
X0233294Y0075221D01*
X0234061Y0074454D01*
X0240200Y0074454D02*
X0242502Y0072919D01*
X0240200Y0071384D01*
X0242502Y0071384D02*
X0242502Y0075988D01*
X0244036Y0073686D02*
X0244036Y0071384D01*
X0244036Y0073686D02*
X0244804Y0074454D01*
X0247106Y0074454D01*
X0247106Y0071384D01*
X0248640Y0071384D02*
X0248640Y0073686D01*
X0249408Y0074454D01*
X0250942Y0074454D01*
X0250942Y0072919D02*
X0248640Y0072919D01*
X0248640Y0071384D02*
X0250942Y0071384D01*
X0251710Y0072152D01*
X0250942Y0072919D01*
X0253244Y0071384D02*
X0254779Y0071384D01*
X0254012Y0071384D02*
X0254012Y0075988D01*
X0254779Y0075988D01*
X0256314Y0073686D02*
X0257081Y0074454D01*
X0259383Y0074454D01*
X0259383Y0075988D02*
X0259383Y0071384D01*
X0257081Y0071384D01*
X0256314Y0072152D01*
X0256314Y0073686D01*
X0257848Y0078884D02*
X0257081Y0079652D01*
X0257081Y0081186D01*
X0257848Y0081954D01*
X0259383Y0081954D01*
X0260150Y0081186D01*
X0260150Y0079652D01*
X0259383Y0078884D01*
X0257848Y0078884D01*
X0261685Y0078884D02*
X0262452Y0079652D01*
X0262452Y0082721D01*
X0263219Y0081954D02*
X0261685Y0081954D01*
X0261685Y0086384D02*
X0262452Y0087152D01*
X0262452Y0090221D01*
X0263219Y0089454D02*
X0261685Y0089454D01*
X0264754Y0088686D02*
X0264754Y0086384D01*
X0267056Y0086384D01*
X0267823Y0087152D01*
X0267056Y0087919D01*
X0264754Y0087919D01*
X0264754Y0088686D02*
X0265521Y0089454D01*
X0267056Y0089454D01*
X0269358Y0088686D02*
X0269358Y0086384D01*
X0270893Y0086384D02*
X0270893Y0088686D01*
X0270125Y0089454D01*
X0269358Y0088686D01*
X0270893Y0088686D02*
X0271660Y0089454D01*
X0272427Y0089454D01*
X0272427Y0086384D01*
X0273962Y0089454D02*
X0274729Y0089454D01*
X0276264Y0087919D01*
X0276264Y0086384D02*
X0276264Y0089454D01*
X0277799Y0088686D02*
X0278566Y0089454D01*
X0280100Y0089454D01*
X0280868Y0088686D01*
X0280868Y0087152D01*
X0280100Y0086384D01*
X0278566Y0086384D01*
X0277799Y0087152D01*
X0277799Y0088686D01*
X0282402Y0090988D02*
X0285472Y0090988D01*
X0285472Y0086384D01*
X0285472Y0088686D02*
X0283937Y0088686D01*
X0284704Y0081954D02*
X0282402Y0081954D01*
X0280100Y0081954D02*
X0278566Y0081954D01*
X0277799Y0081186D01*
X0277799Y0078884D01*
X0280100Y0078884D01*
X0280868Y0079652D01*
X0280100Y0080419D01*
X0277799Y0080419D01*
X0276264Y0080419D02*
X0274729Y0081954D01*
X0273962Y0081954D01*
X0272427Y0081186D02*
X0271660Y0081954D01*
X0269358Y0081954D01*
X0269358Y0083488D02*
X0269358Y0078884D01*
X0271660Y0078884D01*
X0272427Y0079652D01*
X0272427Y0081186D01*
X0276264Y0081954D02*
X0276264Y0078884D01*
X0277031Y0074454D02*
X0275497Y0074454D01*
X0274729Y0073686D01*
X0274729Y0071384D01*
X0277031Y0071384D01*
X0277799Y0072152D01*
X0277031Y0072919D01*
X0274729Y0072919D01*
X0273195Y0073686D02*
X0273195Y0072152D01*
X0272427Y0071384D01*
X0270125Y0071384D01*
X0268591Y0072152D02*
X0268591Y0073686D01*
X0267823Y0074454D01*
X0266289Y0074454D01*
X0265521Y0073686D01*
X0265521Y0072919D01*
X0268591Y0072919D01*
X0268591Y0072152D02*
X0267823Y0071384D01*
X0266289Y0071384D01*
X0266289Y0067721D02*
X0266289Y0064652D01*
X0265521Y0063884D01*
X0263987Y0063884D02*
X0263987Y0068488D01*
X0263219Y0066954D02*
X0261685Y0066954D01*
X0260917Y0066186D01*
X0260917Y0063884D01*
X0259383Y0064652D02*
X0259383Y0066186D01*
X0258616Y0066954D01*
X0257081Y0066954D01*
X0256314Y0066186D01*
X0256314Y0065419D01*
X0259383Y0065419D01*
X0259383Y0064652D02*
X0258616Y0063884D01*
X0257081Y0063884D01*
X0254779Y0063884D02*
X0254779Y0066954D01*
X0254779Y0065419D02*
X0253244Y0066954D01*
X0252477Y0066954D01*
X0250942Y0066186D02*
X0250175Y0066954D01*
X0248640Y0066954D01*
X0247873Y0066186D01*
X0247873Y0065419D01*
X0250942Y0065419D01*
X0250942Y0064652D02*
X0250942Y0066186D01*
X0250942Y0064652D02*
X0250175Y0063884D01*
X0248640Y0063884D01*
X0246338Y0063884D02*
X0245571Y0063884D01*
X0245571Y0064652D01*
X0246338Y0064652D01*
X0246338Y0063884D01*
X0263219Y0066954D02*
X0263987Y0066186D01*
X0265521Y0066954D02*
X0267056Y0066954D01*
X0273195Y0066186D02*
X0273195Y0065419D01*
X0276264Y0065419D01*
X0276264Y0064652D02*
X0276264Y0066186D01*
X0275497Y0066954D01*
X0273962Y0066954D01*
X0273195Y0066186D01*
X0273962Y0063884D02*
X0275497Y0063884D01*
X0276264Y0064652D01*
X0277799Y0063884D02*
X0279333Y0063884D01*
X0278566Y0063884D02*
X0278566Y0068488D01*
X0279333Y0068488D01*
X0281635Y0068488D02*
X0281635Y0069256D01*
X0280868Y0071384D02*
X0279333Y0071384D01*
X0280100Y0071384D02*
X0280100Y0075988D01*
X0280868Y0075988D01*
X0282402Y0075221D02*
X0282402Y0073686D01*
X0283170Y0072919D01*
X0285472Y0072919D01*
X0285472Y0071384D02*
X0285472Y0075988D01*
X0283170Y0075988D01*
X0282402Y0075221D01*
X0282402Y0078884D02*
X0284704Y0078884D01*
X0285472Y0079652D01*
X0285472Y0081186D01*
X0284704Y0081954D01*
X0273195Y0073686D02*
X0272427Y0074454D01*
X0270125Y0074454D01*
X0281635Y0066954D02*
X0281635Y0063884D01*
X0282402Y0063884D02*
X0280868Y0063884D01*
X0281635Y0066954D02*
X0282402Y0066954D01*
X0283937Y0066186D02*
X0285472Y0066186D01*
X0284704Y0067721D02*
X0283937Y0068488D01*
X0284704Y0067721D02*
X0284704Y0063884D01*
D17*
X0322134Y0102689D02*
X0334732Y0102689D01*
X0334732Y0122374D01*
X0322134Y0122374D01*
X0322134Y0102689D01*
M02*
