%
M48
M72
T01C0.01900
T02C0.01969
T03C0.02756
T04C0.03200
T05C0.03600
T06C0.03937
T07C0.04000
T08C0.04331
T09C0.05118
T10C0.05600
T11C0.12598
%
T01
X294640Y95122
X316327Y144531
X348827Y206031
X348827Y245031
X322827Y254531
T02
X111760Y69479
X137123Y70814
X175927Y70470
X218327Y91031
X218327Y98531
X232260Y100579
X241327Y101031
X253717Y101979
X256827Y107031
X241327Y121031
X218327Y137031
X216709Y144505
X207053Y150807
X179141Y145415
X153527Y130011
X174168Y124441
X174168Y109441
X186211Y112695
X186064Y98619
X159898Y98378
X130260Y101579
X118360Y106279
X100827Y93531
X89360Y101279
X150840Y171273
X150637Y185573
X177040Y195573
X196596Y189656
X218089Y190233
X231292Y187735
X201589Y208233
X163714Y226012
X150085Y228245
X150540Y248273
X177115Y249112
X190262Y257928
X201827Y260531
X231827Y260031
X229327Y238531
X241827Y232531
X245089Y237233
X272827Y224531
X260589Y221733
X249673Y220097
X213089Y240233
X154401Y283423
X198825Y285210
X211677Y293850
X218475Y293880
X223022Y288453
X244827Y307031
X217620Y329941
X236420Y343504
X235826Y349153
X209429Y349571
X201429Y349571
X143524Y336926
X143179Y329976
X144443Y322566
X117502Y325603
X126257Y343716
X108720Y344341
X95742Y288934
X295089Y186233
X309327Y179531
X303827Y174531
X335815Y192512
X331805Y211140
X320899Y228240
X332367Y230403
X341899Y262240
X342840Y269870
X322899Y263240
X319702Y287281
X320321Y294947
X297088Y317864
X308718Y322533
X314158Y321349
X297428Y330043
X88557Y172248
X236899Y142240
X271204Y154817
X282827Y145531
X281283Y139079
X310827Y120531
X308827Y111531
X283827Y84531
X317260Y83579
T03
X263126Y283413
X256827Y283413
X250528Y283413
X242457Y288531
X253677Y293649
X259976Y293649
X271197Y288531
T04
X271834Y260256
X271827Y246531
X221827Y246531
X221834Y260256
T05
X393827Y257531
X403827Y257531
X403827Y247531
X393827Y247531
X393827Y267531
X403827Y267531
X403827Y277531
X393827Y277531
X393827Y287531
X403827Y287531
T06
X389606Y147531
T07
X292827Y124531
X292827Y114531
X292827Y79531
X266827Y162531
X256827Y162531
X246827Y162531
X236827Y162531
X226827Y162531
X216827Y162531
X269827Y203531
X279827Y203531
X289827Y203531
X188997Y232816
X178997Y232816
X168997Y232816
X67827Y252531
X57827Y252531
X47827Y252531
X47827Y266531
X57827Y266531
X67827Y266531
X66737Y294902
X76737Y294902
X56737Y294902
X162326Y287631
X172326Y287631
X182326Y287631
X67827Y211531
X57827Y211531
X47827Y211531
X47827Y197531
X57827Y197531
X67827Y197531
T08
X259827Y349531
X314827Y349531
T09
X360079Y147531
T10
X118827Y190752
X118827Y204531
X118827Y218311
X118827Y245752
X118827Y259531
X118827Y273311
T11
X69504Y320134
X392316Y320205
X392316Y91741
X69504Y91748
M30
