%
M48
M72
T01C0.01900
T02C0.01969
T03C0.02756
T04C0.03200
T05C0.03600
T06C0.03937
T07C0.04000
T08C0.04331
T09C0.05118
T10C0.05600
T11C0.12598
%
T01
X294640Y95122
X314388Y142021
X348827Y206031
X348827Y245031
X322827Y254531
T02
X111760Y69479
X133077Y73278
X100827Y93531
X89360Y101279
X118360Y106279
X130260Y101579
X159827Y97531
X171731Y102611
X187008Y98505
X187617Y106532
X163053Y115118
X189369Y123605
X218327Y137031
X216709Y144505
X207053Y150807
X179141Y145415
X156141Y131626
X232260Y100579
X241327Y101031
X253717Y101979
X256827Y107031
X241327Y121031
X242899Y139240
X271204Y154817
X282827Y145531
X281283Y139079
X286623Y133860
X310827Y120531
X308827Y111531
X283827Y84531
X317202Y82486
X222827Y94531
X171376Y89939
X150840Y174509
X132900Y174058
X149851Y186884
X177040Y195573
X196596Y189656
X220089Y191233
X231292Y187735
X257827Y206531
X261589Y224733
X272827Y224531
X245089Y237233
X241827Y232531
X231890Y238531
X213089Y240233
X190262Y257928
X201827Y260531
X177115Y249112
X150540Y248273
X150085Y228245
X163714Y226012
X201589Y208233
X295089Y186233
X309827Y176531
X301827Y171531
X335815Y192512
X331805Y211140
X320899Y228240
X332367Y230403
X341899Y262240
X342840Y269870
X322899Y263240
X319702Y287281
X320321Y294947
X297088Y317864
X297428Y330043
X311371Y339384
X244827Y307031
X223111Y291831
X214215Y284803
X202415Y284678
X231827Y263031
X151609Y282359
X95742Y288934
X144443Y322566
X143179Y329976
X143524Y336926
X126257Y343716
X108720Y344341
X117502Y325603
X201429Y349571
X209429Y349571
X235826Y349153
X236420Y343504
X217620Y329941
X402827Y223531
X386827Y181531
T03
X263126Y283413
X256827Y283413
X250528Y283413
X242457Y288531
X253677Y293649
X259976Y293649
X271197Y288531
T04
X271834Y260256
X271827Y246531
X221827Y246531
X221834Y260256
X295142Y151746
X303016Y151746
X310890Y151746
X318764Y151746
X326638Y151746
X334512Y151746
T05
X393827Y247531
X403827Y247531
X403827Y257531
X393827Y257531
X393827Y267531
X403827Y267531
X403827Y277531
X393827Y277531
X393827Y287531
X403827Y287531
T06
X389606Y132531
T07
X386827Y169531
X376827Y169531
X366827Y169531
X356827Y169531
X396827Y169531
X406827Y169531
X294744Y124994
X294744Y114994
X292827Y79531
X266827Y162531
X256827Y162531
X246827Y162531
X236827Y162531
X226827Y162531
X216827Y162531
X269665Y204311
X279665Y204311
X289665Y204311
X188997Y232816
X178997Y232816
X168997Y232816
X67827Y252531
X57827Y252531
X47827Y252531
X47827Y266531
X57827Y266531
X67827Y266531
X66737Y294902
X76737Y294902
X56737Y294902
X167326Y287631
X177326Y287631
X187326Y287631
X311827Y319878
X321827Y319878
X67827Y211531
X57827Y211531
X47827Y211531
X47827Y197531
X57827Y197531
X67827Y197531
T08
X259827Y348531
X321827Y348531
T09
X360079Y132531
T10
X118827Y190752
X118827Y204531
X118827Y218311
X118827Y245752
X118827Y259531
X118827Y273311
T11
X69504Y320134
X392316Y320205
X392316Y91741
X69504Y91748
M30
