G75*
%MOIN*%
%OFA0B0*%
%FSLAX25Y25*%
%IPPOS*%
%LPD*%
%AMOC8*
5,1,8,0,0,1.08239X$1,22.5*
%
%ADD10C,0.08200*%
%ADD11C,0.06800*%
%ADD12C,0.05556*%
%ADD13C,0.07400*%
%ADD14OC8,0.06000*%
%ADD15C,0.06400*%
%ADD16OC8,0.06400*%
%ADD17C,0.09200*%
%ADD18C,0.04737*%
%ADD19C,0.05918*%
%ADD20OC8,0.09300*%
%ADD21R,0.06000X0.06000*%
%ADD22C,0.22800*%
%ADD23C,0.04369*%
%ADD24R,0.07296X0.07296*%
%ADD25C,0.04300*%
D10*
X0294744Y0114994D03*
X0294744Y0124994D03*
X0289665Y0204311D03*
X0279665Y0204311D03*
X0269665Y0204311D03*
X0188997Y0232816D03*
X0178997Y0232816D03*
X0168997Y0232816D03*
X0067827Y0252531D03*
X0057827Y0252531D03*
X0047827Y0252531D03*
X0047827Y0266531D03*
X0057827Y0266531D03*
X0067827Y0266531D03*
X0066737Y0294902D03*
X0076737Y0294902D03*
X0056737Y0294902D03*
X0167326Y0287631D03*
X0177326Y0287631D03*
X0187326Y0287631D03*
X0311827Y0319878D03*
X0321827Y0319878D03*
X0067827Y0211531D03*
X0057827Y0211531D03*
X0047827Y0211531D03*
X0047827Y0197531D03*
X0057827Y0197531D03*
X0067827Y0197531D03*
D11*
X0216827Y0165531D02*
X0216827Y0159531D01*
X0226827Y0159531D02*
X0226827Y0165531D01*
X0236827Y0165531D02*
X0236827Y0159531D01*
X0246827Y0159531D02*
X0246827Y0165531D01*
X0256827Y0165531D02*
X0256827Y0159531D01*
X0266827Y0159531D02*
X0266827Y0165531D01*
X0356827Y0166531D02*
X0356827Y0172531D01*
X0366827Y0172531D02*
X0366827Y0166531D01*
X0376827Y0166531D02*
X0376827Y0172531D01*
X0386827Y0172531D02*
X0386827Y0166531D01*
X0396827Y0166531D02*
X0396827Y0172531D01*
X0406827Y0172531D02*
X0406827Y0166531D01*
D12*
X0263126Y0281035D02*
X0263126Y0285791D01*
X0256827Y0285791D02*
X0256827Y0281035D01*
X0250528Y0281035D02*
X0250528Y0285791D01*
X0253677Y0291271D02*
X0253677Y0296027D01*
X0259976Y0296027D02*
X0259976Y0291271D01*
D13*
X0271197Y0291831D02*
X0271197Y0285231D01*
X0242457Y0285231D02*
X0242457Y0291831D01*
D14*
X0221834Y0260256D03*
X0221827Y0246531D03*
X0271827Y0246531D03*
X0271834Y0260256D03*
X0303016Y0151746D03*
X0310890Y0151746D03*
X0318764Y0151746D03*
X0326638Y0151746D03*
X0334512Y0151746D03*
D15*
X0403827Y0287531D03*
D16*
X0403827Y0277531D03*
X0393827Y0277531D03*
X0393827Y0287531D03*
X0393827Y0267531D03*
X0403827Y0267531D03*
X0403827Y0257531D03*
X0393827Y0257531D03*
X0393827Y0247531D03*
X0403827Y0247531D03*
D17*
X0123027Y0245752D02*
X0114627Y0245752D01*
X0114627Y0259531D02*
X0123027Y0259531D01*
X0123027Y0273311D02*
X0114627Y0273311D01*
X0114627Y0218311D02*
X0123027Y0218311D01*
X0123027Y0204531D02*
X0114627Y0204531D01*
X0114627Y0190752D02*
X0123027Y0190752D01*
D18*
X0389606Y0132531D03*
D19*
X0360079Y0132531D03*
D20*
X0292827Y0079531D03*
D21*
X0295142Y0151746D03*
D22*
X0392316Y0091741D03*
X0069504Y0091748D03*
X0069504Y0320134D03*
X0392316Y0320205D03*
D23*
X0111760Y0069479D03*
X0133077Y0073278D03*
X0100827Y0093531D03*
X0089360Y0101279D03*
X0118360Y0106279D03*
X0130260Y0101579D03*
X0159827Y0097531D03*
X0171731Y0102611D03*
X0187008Y0098505D03*
X0187617Y0106532D03*
X0163053Y0115118D03*
X0189369Y0123605D03*
X0218327Y0137031D03*
X0216709Y0144505D03*
X0207053Y0150807D03*
X0179141Y0145415D03*
X0156141Y0131626D03*
X0232260Y0100579D03*
X0241327Y0101031D03*
X0253717Y0101979D03*
X0256827Y0107031D03*
X0241327Y0121031D03*
X0242899Y0139240D03*
X0271204Y0154817D03*
X0282827Y0145531D03*
X0281283Y0139079D03*
X0286623Y0133860D03*
X0310827Y0120531D03*
X0308827Y0111531D03*
X0283827Y0084531D03*
X0317202Y0082486D03*
X0222827Y0094531D03*
X0171376Y0089939D03*
X0150840Y0174509D03*
X0132900Y0174058D03*
X0149851Y0186884D03*
X0177040Y0195573D03*
X0196596Y0189656D03*
X0220089Y0191233D03*
X0231292Y0187735D03*
X0257827Y0206531D03*
X0261589Y0224733D03*
X0272827Y0224531D03*
X0245089Y0237233D03*
X0241827Y0232531D03*
X0231890Y0238531D03*
X0213089Y0240233D03*
X0190262Y0257928D03*
X0201827Y0260531D03*
X0177115Y0249112D03*
X0150540Y0248273D03*
X0150085Y0228245D03*
X0163714Y0226012D03*
X0201589Y0208233D03*
X0295089Y0186233D03*
X0309827Y0176531D03*
X0301827Y0171531D03*
X0335815Y0192512D03*
X0331805Y0211140D03*
X0320899Y0228240D03*
X0332367Y0230403D03*
X0341899Y0262240D03*
X0342840Y0269870D03*
X0322899Y0263240D03*
X0319702Y0287281D03*
X0320321Y0294947D03*
X0297088Y0317864D03*
X0297428Y0330043D03*
X0311371Y0339384D03*
X0244827Y0307031D03*
X0223111Y0291831D03*
X0214215Y0284803D03*
X0202415Y0284678D03*
X0231827Y0263031D03*
X0151609Y0282359D03*
X0095742Y0288934D03*
X0144443Y0322566D03*
X0143179Y0329976D03*
X0143524Y0336926D03*
X0126257Y0343716D03*
X0108720Y0344341D03*
X0117502Y0325603D03*
X0201429Y0349571D03*
X0209429Y0349571D03*
X0235826Y0349153D03*
X0236420Y0343504D03*
X0217620Y0329941D03*
X0402827Y0223531D03*
X0386827Y0181531D03*
D24*
X0321827Y0348531D03*
X0259827Y0348531D03*
D25*
X0322827Y0254531D03*
X0348827Y0245031D03*
X0348827Y0206031D03*
X0314388Y0142021D03*
X0294640Y0095122D03*
M02*
