%
M48
M72
T01C0.01969
T02C0.03200
T03C0.05200
%
T01
X32415Y26009
X32415Y31009
X47415Y31009
X47415Y26009
X89915Y63509
X94915Y63509
X94915Y68509
X89915Y68509
X89915Y73509
X94915Y73509
X94915Y78509
X89915Y78509
X191915Y36009
X201915Y36009
X201915Y31009
X191915Y31009
T02
X151272Y79621
X141272Y79621
X131272Y79621
T03
X47668Y11895
X207668Y11895
X207668Y81895
X47668Y81895
M30
