G75*
%MOIN*%
%OFA0B0*%
%FSLAX25Y25*%
%IPPOS*%
%LPD*%
%AMOC8*
5,1,8,0,0,1.08239X$1,22.5*
%
%ADD10C,0.00700*%
%ADD11C,0.00600*%
%ADD12C,0.00800*%
%ADD13C,0.00400*%
%ADD14R,0.12992X0.02500*%
%ADD15C,0.01000*%
%ADD16C,0.00500*%
D10*
X0069799Y0007240D02*
X0072465Y0007240D01*
X0071132Y0007240D02*
X0071132Y0012040D01*
X0069799Y0010974D01*
X0077522Y0008440D02*
X0079922Y0008440D01*
X0080322Y0007240D02*
X0078722Y0012040D01*
X0077122Y0007240D01*
X0082567Y0007240D02*
X0082567Y0010440D01*
X0084967Y0010440D01*
X0085022Y0010438D01*
X0085076Y0010433D01*
X0085130Y0010423D01*
X0085183Y0010410D01*
X0085235Y0010394D01*
X0085286Y0010374D01*
X0085335Y0010350D01*
X0085383Y0010324D01*
X0085428Y0010294D01*
X0085472Y0010261D01*
X0085513Y0010225D01*
X0085552Y0010186D01*
X0085588Y0010145D01*
X0085621Y0010101D01*
X0085651Y0010056D01*
X0085677Y0010008D01*
X0085701Y0009959D01*
X0085721Y0009908D01*
X0085737Y0009856D01*
X0085750Y0009803D01*
X0085760Y0009749D01*
X0085765Y0009695D01*
X0085767Y0009640D01*
X0085767Y0007240D01*
X0084167Y0007240D02*
X0084167Y0010440D01*
X0088413Y0010440D02*
X0089747Y0010440D01*
X0089802Y0010438D01*
X0089856Y0010433D01*
X0089910Y0010423D01*
X0089963Y0010410D01*
X0090015Y0010394D01*
X0090066Y0010374D01*
X0090115Y0010350D01*
X0090163Y0010324D01*
X0090208Y0010294D01*
X0090252Y0010261D01*
X0090293Y0010225D01*
X0090332Y0010186D01*
X0090368Y0010145D01*
X0090401Y0010101D01*
X0090431Y0010056D01*
X0090457Y0010008D01*
X0090481Y0009959D01*
X0090501Y0009908D01*
X0090517Y0009856D01*
X0090530Y0009803D01*
X0090540Y0009749D01*
X0090545Y0009695D01*
X0090547Y0009640D01*
X0090547Y0008040D01*
X0090545Y0007985D01*
X0090540Y0007931D01*
X0090530Y0007877D01*
X0090517Y0007824D01*
X0090501Y0007772D01*
X0090481Y0007721D01*
X0090457Y0007672D01*
X0090431Y0007624D01*
X0090401Y0007579D01*
X0090368Y0007535D01*
X0090332Y0007494D01*
X0090293Y0007455D01*
X0090252Y0007419D01*
X0090208Y0007386D01*
X0090163Y0007356D01*
X0090115Y0007330D01*
X0090066Y0007306D01*
X0090015Y0007286D01*
X0089963Y0007270D01*
X0089910Y0007257D01*
X0089856Y0007247D01*
X0089802Y0007242D01*
X0089747Y0007240D01*
X0088413Y0007240D01*
X0088413Y0005640D02*
X0088413Y0010440D01*
X0095602Y0012040D02*
X0097202Y0009374D01*
X0098802Y0012040D01*
X0098802Y0007240D01*
X0101047Y0007240D02*
X0102647Y0012040D01*
X0104247Y0007240D01*
X0105997Y0007240D02*
X0109197Y0012040D01*
X0105997Y0012040D02*
X0109197Y0007240D01*
X0111150Y0008307D02*
X0111150Y0009374D01*
X0111152Y0009438D01*
X0111158Y0009503D01*
X0111167Y0009566D01*
X0111181Y0009629D01*
X0111198Y0009691D01*
X0111219Y0009752D01*
X0111244Y0009812D01*
X0111272Y0009870D01*
X0111304Y0009926D01*
X0111339Y0009980D01*
X0111377Y0010032D01*
X0111418Y0010082D01*
X0111463Y0010128D01*
X0111509Y0010173D01*
X0111559Y0010214D01*
X0111611Y0010252D01*
X0111665Y0010287D01*
X0111721Y0010319D01*
X0111779Y0010347D01*
X0111839Y0010372D01*
X0111900Y0010393D01*
X0111962Y0010410D01*
X0112025Y0010424D01*
X0112088Y0010433D01*
X0112153Y0010439D01*
X0112217Y0010441D01*
X0112281Y0010439D01*
X0112346Y0010433D01*
X0112409Y0010424D01*
X0112472Y0010410D01*
X0112534Y0010393D01*
X0112595Y0010372D01*
X0112655Y0010347D01*
X0112713Y0010319D01*
X0112769Y0010287D01*
X0112823Y0010252D01*
X0112875Y0010214D01*
X0112925Y0010173D01*
X0112971Y0010128D01*
X0113016Y0010082D01*
X0113057Y0010032D01*
X0113095Y0009980D01*
X0113130Y0009926D01*
X0113162Y0009870D01*
X0113190Y0009812D01*
X0113215Y0009752D01*
X0113236Y0009691D01*
X0113253Y0009629D01*
X0113267Y0009566D01*
X0113276Y0009503D01*
X0113282Y0009438D01*
X0113284Y0009374D01*
X0113284Y0008307D01*
X0113282Y0008243D01*
X0113276Y0008178D01*
X0113267Y0008115D01*
X0113253Y0008052D01*
X0113236Y0007990D01*
X0113215Y0007929D01*
X0113190Y0007869D01*
X0113162Y0007811D01*
X0113130Y0007755D01*
X0113095Y0007701D01*
X0113057Y0007649D01*
X0113016Y0007599D01*
X0112971Y0007553D01*
X0112925Y0007508D01*
X0112875Y0007467D01*
X0112823Y0007429D01*
X0112769Y0007394D01*
X0112713Y0007362D01*
X0112655Y0007334D01*
X0112595Y0007309D01*
X0112534Y0007288D01*
X0112472Y0007271D01*
X0112409Y0007257D01*
X0112346Y0007248D01*
X0112281Y0007242D01*
X0112217Y0007240D01*
X0112153Y0007242D01*
X0112088Y0007248D01*
X0112025Y0007257D01*
X0111962Y0007271D01*
X0111900Y0007288D01*
X0111839Y0007309D01*
X0111779Y0007334D01*
X0111721Y0007362D01*
X0111665Y0007394D01*
X0111611Y0007429D01*
X0111559Y0007467D01*
X0111509Y0007508D01*
X0111463Y0007553D01*
X0111418Y0007599D01*
X0111377Y0007649D01*
X0111339Y0007701D01*
X0111304Y0007755D01*
X0111272Y0007811D01*
X0111244Y0007869D01*
X0111219Y0007929D01*
X0111198Y0007990D01*
X0111181Y0008052D01*
X0111167Y0008115D01*
X0111158Y0008178D01*
X0111152Y0008243D01*
X0111150Y0008307D01*
X0115605Y0008040D02*
X0115605Y0010440D01*
X0117739Y0010440D02*
X0117739Y0007240D01*
X0116405Y0007240D01*
X0116350Y0007242D01*
X0116296Y0007247D01*
X0116242Y0007257D01*
X0116189Y0007270D01*
X0116137Y0007286D01*
X0116086Y0007306D01*
X0116037Y0007330D01*
X0115989Y0007356D01*
X0115944Y0007386D01*
X0115900Y0007419D01*
X0115859Y0007455D01*
X0115820Y0007494D01*
X0115784Y0007535D01*
X0115751Y0007579D01*
X0115721Y0007624D01*
X0115695Y0007672D01*
X0115671Y0007721D01*
X0115651Y0007772D01*
X0115635Y0007824D01*
X0115622Y0007877D01*
X0115612Y0007931D01*
X0115607Y0007985D01*
X0115605Y0008040D01*
X0120148Y0008040D02*
X0120148Y0012040D01*
X0119615Y0010440D02*
X0121215Y0010440D01*
X0120148Y0008040D02*
X0120150Y0007985D01*
X0120155Y0007931D01*
X0120165Y0007877D01*
X0120178Y0007824D01*
X0120194Y0007772D01*
X0120214Y0007721D01*
X0120238Y0007672D01*
X0120264Y0007624D01*
X0120294Y0007579D01*
X0120327Y0007535D01*
X0120363Y0007494D01*
X0120402Y0007455D01*
X0120443Y0007419D01*
X0120487Y0007386D01*
X0120532Y0007356D01*
X0120580Y0007330D01*
X0120629Y0007306D01*
X0120680Y0007286D01*
X0120732Y0007270D01*
X0120785Y0007257D01*
X0120839Y0007247D01*
X0120893Y0007242D01*
X0120948Y0007240D01*
X0121215Y0007240D01*
X0103847Y0008440D02*
X0101447Y0008440D01*
X0095602Y0007240D02*
X0095602Y0012040D01*
X0097950Y0015490D02*
X0100617Y0015490D01*
X0099284Y0015490D02*
X0099284Y0020290D01*
X0097950Y0019224D01*
X0092964Y0018690D02*
X0089764Y0017357D01*
X0092964Y0016024D01*
X0085017Y0015490D02*
X0084750Y0015490D01*
X0084695Y0015492D01*
X0084641Y0015497D01*
X0084587Y0015507D01*
X0084534Y0015520D01*
X0084482Y0015536D01*
X0084431Y0015556D01*
X0084382Y0015580D01*
X0084334Y0015606D01*
X0084289Y0015636D01*
X0084245Y0015669D01*
X0084204Y0015705D01*
X0084165Y0015744D01*
X0084129Y0015785D01*
X0084096Y0015829D01*
X0084066Y0015874D01*
X0084040Y0015922D01*
X0084016Y0015971D01*
X0083996Y0016022D01*
X0083980Y0016074D01*
X0083967Y0016127D01*
X0083957Y0016181D01*
X0083952Y0016235D01*
X0083950Y0016290D01*
X0083950Y0020290D01*
X0083417Y0018690D02*
X0085017Y0018690D01*
X0081540Y0018690D02*
X0081540Y0015490D01*
X0080207Y0015490D01*
X0080152Y0015492D01*
X0080098Y0015497D01*
X0080044Y0015507D01*
X0079991Y0015520D01*
X0079939Y0015536D01*
X0079888Y0015556D01*
X0079839Y0015580D01*
X0079791Y0015606D01*
X0079746Y0015636D01*
X0079702Y0015669D01*
X0079661Y0015705D01*
X0079622Y0015744D01*
X0079586Y0015785D01*
X0079553Y0015829D01*
X0079523Y0015874D01*
X0079497Y0015922D01*
X0079473Y0015971D01*
X0079453Y0016022D01*
X0079437Y0016074D01*
X0079424Y0016127D01*
X0079414Y0016181D01*
X0079409Y0016235D01*
X0079407Y0016290D01*
X0079407Y0018690D01*
X0077085Y0017624D02*
X0077085Y0016557D01*
X0077086Y0016557D02*
X0077084Y0016493D01*
X0077078Y0016428D01*
X0077069Y0016365D01*
X0077055Y0016302D01*
X0077038Y0016240D01*
X0077017Y0016179D01*
X0076992Y0016119D01*
X0076964Y0016061D01*
X0076932Y0016005D01*
X0076897Y0015951D01*
X0076859Y0015899D01*
X0076818Y0015849D01*
X0076773Y0015803D01*
X0076727Y0015758D01*
X0076677Y0015717D01*
X0076625Y0015679D01*
X0076571Y0015644D01*
X0076515Y0015612D01*
X0076457Y0015584D01*
X0076397Y0015559D01*
X0076336Y0015538D01*
X0076274Y0015521D01*
X0076211Y0015507D01*
X0076148Y0015498D01*
X0076083Y0015492D01*
X0076019Y0015490D01*
X0075955Y0015492D01*
X0075890Y0015498D01*
X0075827Y0015507D01*
X0075764Y0015521D01*
X0075702Y0015538D01*
X0075641Y0015559D01*
X0075581Y0015584D01*
X0075523Y0015612D01*
X0075467Y0015644D01*
X0075413Y0015679D01*
X0075361Y0015717D01*
X0075311Y0015758D01*
X0075265Y0015803D01*
X0075220Y0015849D01*
X0075179Y0015899D01*
X0075141Y0015951D01*
X0075106Y0016005D01*
X0075074Y0016061D01*
X0075046Y0016119D01*
X0075021Y0016179D01*
X0075000Y0016240D01*
X0074983Y0016302D01*
X0074969Y0016365D01*
X0074960Y0016428D01*
X0074954Y0016493D01*
X0074952Y0016557D01*
X0074952Y0017624D01*
X0074954Y0017688D01*
X0074960Y0017753D01*
X0074969Y0017816D01*
X0074983Y0017879D01*
X0075000Y0017941D01*
X0075021Y0018002D01*
X0075046Y0018062D01*
X0075074Y0018120D01*
X0075106Y0018176D01*
X0075141Y0018230D01*
X0075179Y0018282D01*
X0075220Y0018332D01*
X0075265Y0018378D01*
X0075311Y0018423D01*
X0075361Y0018464D01*
X0075413Y0018502D01*
X0075467Y0018537D01*
X0075523Y0018569D01*
X0075581Y0018597D01*
X0075641Y0018622D01*
X0075702Y0018643D01*
X0075764Y0018660D01*
X0075827Y0018674D01*
X0075890Y0018683D01*
X0075955Y0018689D01*
X0076019Y0018691D01*
X0076083Y0018689D01*
X0076148Y0018683D01*
X0076211Y0018674D01*
X0076274Y0018660D01*
X0076336Y0018643D01*
X0076397Y0018622D01*
X0076457Y0018597D01*
X0076515Y0018569D01*
X0076571Y0018537D01*
X0076625Y0018502D01*
X0076677Y0018464D01*
X0076727Y0018423D01*
X0076773Y0018378D01*
X0076818Y0018332D01*
X0076859Y0018282D01*
X0076897Y0018230D01*
X0076932Y0018176D01*
X0076964Y0018120D01*
X0076992Y0018062D01*
X0077017Y0018002D01*
X0077038Y0017941D01*
X0077055Y0017879D01*
X0077069Y0017816D01*
X0077078Y0017753D01*
X0077084Y0017688D01*
X0077086Y0017624D01*
X0072999Y0020290D02*
X0071399Y0015490D01*
X0069799Y0020290D01*
X0071399Y0023740D02*
X0072999Y0028540D01*
X0074730Y0028540D02*
X0074730Y0028274D01*
X0074997Y0028274D01*
X0074997Y0028540D01*
X0074730Y0028540D01*
X0074864Y0026940D02*
X0074864Y0023740D01*
X0077097Y0023740D02*
X0077097Y0026940D01*
X0078430Y0026940D01*
X0078485Y0026938D01*
X0078539Y0026933D01*
X0078593Y0026923D01*
X0078646Y0026910D01*
X0078698Y0026894D01*
X0078749Y0026874D01*
X0078798Y0026850D01*
X0078846Y0026824D01*
X0078891Y0026794D01*
X0078935Y0026761D01*
X0078976Y0026725D01*
X0079015Y0026686D01*
X0079051Y0026645D01*
X0079084Y0026601D01*
X0079114Y0026556D01*
X0079140Y0026508D01*
X0079164Y0026459D01*
X0079184Y0026408D01*
X0079200Y0026356D01*
X0079213Y0026303D01*
X0079223Y0026249D01*
X0079228Y0026195D01*
X0079230Y0026140D01*
X0079230Y0023740D01*
X0084319Y0025607D02*
X0087519Y0024274D01*
X0087519Y0026940D02*
X0084319Y0025607D01*
X0092506Y0025074D02*
X0092508Y0025002D01*
X0092514Y0024930D01*
X0092524Y0024858D01*
X0092537Y0024787D01*
X0092555Y0024717D01*
X0092576Y0024648D01*
X0092601Y0024581D01*
X0092629Y0024514D01*
X0092661Y0024450D01*
X0092697Y0024387D01*
X0092736Y0024326D01*
X0092778Y0024267D01*
X0092823Y0024211D01*
X0092871Y0024157D01*
X0092922Y0024106D01*
X0092976Y0024058D01*
X0093032Y0024013D01*
X0093091Y0023971D01*
X0093152Y0023932D01*
X0093215Y0023896D01*
X0093279Y0023864D01*
X0093346Y0023836D01*
X0093413Y0023811D01*
X0093482Y0023790D01*
X0093552Y0023772D01*
X0093623Y0023759D01*
X0093695Y0023749D01*
X0093767Y0023743D01*
X0093839Y0023741D01*
X0093911Y0023743D01*
X0093983Y0023749D01*
X0094055Y0023759D01*
X0094126Y0023772D01*
X0094196Y0023790D01*
X0094265Y0023811D01*
X0094332Y0023836D01*
X0094399Y0023864D01*
X0094463Y0023896D01*
X0094526Y0023932D01*
X0094587Y0023971D01*
X0094646Y0024013D01*
X0094702Y0024058D01*
X0094756Y0024106D01*
X0094807Y0024157D01*
X0094855Y0024211D01*
X0094900Y0024267D01*
X0094942Y0024326D01*
X0094981Y0024387D01*
X0095017Y0024450D01*
X0095049Y0024514D01*
X0095077Y0024581D01*
X0095102Y0024648D01*
X0095123Y0024717D01*
X0095141Y0024787D01*
X0095154Y0024858D01*
X0095164Y0024930D01*
X0095170Y0025002D01*
X0095172Y0025074D01*
X0095170Y0025146D01*
X0095164Y0025218D01*
X0095154Y0025290D01*
X0095141Y0025361D01*
X0095123Y0025431D01*
X0095102Y0025500D01*
X0095077Y0025567D01*
X0095049Y0025634D01*
X0095017Y0025698D01*
X0094981Y0025761D01*
X0094942Y0025822D01*
X0094900Y0025881D01*
X0094855Y0025937D01*
X0094807Y0025991D01*
X0094756Y0026042D01*
X0094702Y0026090D01*
X0094646Y0026135D01*
X0094587Y0026177D01*
X0094526Y0026216D01*
X0094463Y0026252D01*
X0094399Y0026284D01*
X0094332Y0026312D01*
X0094265Y0026337D01*
X0094196Y0026358D01*
X0094126Y0026376D01*
X0094055Y0026389D01*
X0093983Y0026399D01*
X0093911Y0026405D01*
X0093839Y0026407D01*
X0093767Y0026405D01*
X0093695Y0026399D01*
X0093623Y0026389D01*
X0093552Y0026376D01*
X0093482Y0026358D01*
X0093413Y0026337D01*
X0093346Y0026312D01*
X0093279Y0026284D01*
X0093215Y0026252D01*
X0093152Y0026216D01*
X0093091Y0026177D01*
X0093032Y0026135D01*
X0092976Y0026090D01*
X0092922Y0026042D01*
X0092871Y0025991D01*
X0092823Y0025937D01*
X0092778Y0025881D01*
X0092736Y0025822D01*
X0092697Y0025761D01*
X0092661Y0025698D01*
X0092629Y0025634D01*
X0092601Y0025567D01*
X0092576Y0025500D01*
X0092555Y0025431D01*
X0092537Y0025361D01*
X0092524Y0025290D01*
X0092514Y0025218D01*
X0092508Y0025146D01*
X0092506Y0025074D01*
X0099722Y0024406D02*
X0099773Y0024515D01*
X0099820Y0024625D01*
X0099864Y0024736D01*
X0099905Y0024848D01*
X0099942Y0024962D01*
X0099976Y0025077D01*
X0100007Y0025192D01*
X0100034Y0025309D01*
X0100057Y0025426D01*
X0100077Y0025544D01*
X0100093Y0025663D01*
X0100106Y0025782D01*
X0100115Y0025901D01*
X0100120Y0026020D01*
X0100122Y0026140D01*
X0097455Y0026140D02*
X0097457Y0026260D01*
X0097462Y0026379D01*
X0097471Y0026498D01*
X0097484Y0026617D01*
X0097500Y0026736D01*
X0097520Y0026854D01*
X0097543Y0026971D01*
X0097570Y0027088D01*
X0097601Y0027203D01*
X0097635Y0027318D01*
X0097672Y0027432D01*
X0097713Y0027544D01*
X0097757Y0027655D01*
X0097804Y0027765D01*
X0097855Y0027874D01*
X0098789Y0028541D02*
X0098850Y0028539D01*
X0098911Y0028533D01*
X0098972Y0028524D01*
X0099031Y0028511D01*
X0099090Y0028494D01*
X0099148Y0028473D01*
X0099204Y0028449D01*
X0099259Y0028422D01*
X0099312Y0028391D01*
X0099363Y0028357D01*
X0099411Y0028320D01*
X0099458Y0028280D01*
X0099501Y0028237D01*
X0099542Y0028192D01*
X0099580Y0028144D01*
X0099615Y0028094D01*
X0099647Y0028041D01*
X0099676Y0027987D01*
X0099701Y0027931D01*
X0099723Y0027874D01*
X0099855Y0027474D02*
X0097722Y0024807D01*
X0098789Y0023740D02*
X0098850Y0023742D01*
X0098911Y0023748D01*
X0098972Y0023757D01*
X0099031Y0023770D01*
X0099090Y0023787D01*
X0099148Y0023808D01*
X0099204Y0023832D01*
X0099259Y0023859D01*
X0099312Y0023890D01*
X0099363Y0023924D01*
X0099411Y0023961D01*
X0099458Y0024001D01*
X0099501Y0024044D01*
X0099542Y0024089D01*
X0099580Y0024137D01*
X0099615Y0024187D01*
X0099647Y0024240D01*
X0099676Y0024294D01*
X0099701Y0024350D01*
X0099723Y0024407D01*
X0098789Y0023740D02*
X0098728Y0023742D01*
X0098667Y0023748D01*
X0098606Y0023757D01*
X0098547Y0023770D01*
X0098488Y0023787D01*
X0098430Y0023808D01*
X0098374Y0023832D01*
X0098319Y0023859D01*
X0098266Y0023890D01*
X0098215Y0023924D01*
X0098167Y0023961D01*
X0098120Y0024001D01*
X0098077Y0024044D01*
X0098036Y0024089D01*
X0097998Y0024137D01*
X0097963Y0024187D01*
X0097931Y0024240D01*
X0097902Y0024294D01*
X0097877Y0024350D01*
X0097855Y0024407D01*
X0100122Y0026140D02*
X0100120Y0026260D01*
X0100115Y0026379D01*
X0100106Y0026498D01*
X0100093Y0026617D01*
X0100077Y0026736D01*
X0100057Y0026854D01*
X0100034Y0026971D01*
X0100007Y0027088D01*
X0099976Y0027203D01*
X0099942Y0027318D01*
X0099905Y0027432D01*
X0099864Y0027544D01*
X0099820Y0027655D01*
X0099773Y0027765D01*
X0099722Y0027874D01*
X0098789Y0028541D02*
X0098728Y0028539D01*
X0098667Y0028533D01*
X0098606Y0028524D01*
X0098547Y0028511D01*
X0098488Y0028494D01*
X0098430Y0028473D01*
X0098374Y0028449D01*
X0098319Y0028422D01*
X0098266Y0028391D01*
X0098215Y0028357D01*
X0098167Y0028320D01*
X0098120Y0028280D01*
X0098077Y0028237D01*
X0098036Y0028192D01*
X0097998Y0028144D01*
X0097963Y0028094D01*
X0097931Y0028041D01*
X0097902Y0027987D01*
X0097877Y0027931D01*
X0097855Y0027874D01*
X0097455Y0026140D02*
X0097457Y0026020D01*
X0097462Y0025901D01*
X0097471Y0025782D01*
X0097484Y0025663D01*
X0097500Y0025544D01*
X0097520Y0025426D01*
X0097543Y0025309D01*
X0097570Y0025192D01*
X0097601Y0025077D01*
X0097635Y0024962D01*
X0097672Y0024848D01*
X0097713Y0024736D01*
X0097757Y0024625D01*
X0097804Y0024515D01*
X0097855Y0024406D01*
X0103739Y0023740D02*
X0105339Y0028540D01*
X0102139Y0028540D02*
X0103739Y0023740D01*
X0104500Y0020290D02*
X0102900Y0020290D01*
X0104500Y0020291D02*
X0104564Y0020289D01*
X0104629Y0020283D01*
X0104692Y0020274D01*
X0104755Y0020260D01*
X0104817Y0020243D01*
X0104878Y0020222D01*
X0104938Y0020197D01*
X0104996Y0020169D01*
X0105052Y0020137D01*
X0105106Y0020102D01*
X0105158Y0020064D01*
X0105208Y0020023D01*
X0105254Y0019978D01*
X0105299Y0019932D01*
X0105340Y0019882D01*
X0105378Y0019830D01*
X0105413Y0019776D01*
X0105445Y0019720D01*
X0105473Y0019662D01*
X0105498Y0019602D01*
X0105519Y0019541D01*
X0105536Y0019479D01*
X0105550Y0019416D01*
X0105559Y0019353D01*
X0105565Y0019288D01*
X0105567Y0019224D01*
X0105565Y0019160D01*
X0105559Y0019095D01*
X0105550Y0019032D01*
X0105536Y0018969D01*
X0105519Y0018907D01*
X0105498Y0018846D01*
X0105473Y0018786D01*
X0105445Y0018728D01*
X0105413Y0018672D01*
X0105378Y0018618D01*
X0105340Y0018566D01*
X0105299Y0018516D01*
X0105254Y0018470D01*
X0105208Y0018425D01*
X0105158Y0018384D01*
X0105106Y0018346D01*
X0105052Y0018311D01*
X0104996Y0018279D01*
X0104938Y0018251D01*
X0104878Y0018226D01*
X0104817Y0018205D01*
X0104755Y0018188D01*
X0104692Y0018174D01*
X0104629Y0018165D01*
X0104564Y0018159D01*
X0104500Y0018157D01*
X0103434Y0018157D01*
X0104234Y0018157D02*
X0104306Y0018155D01*
X0104378Y0018149D01*
X0104450Y0018139D01*
X0104521Y0018126D01*
X0104591Y0018108D01*
X0104660Y0018087D01*
X0104727Y0018062D01*
X0104794Y0018034D01*
X0104858Y0018002D01*
X0104921Y0017966D01*
X0104982Y0017927D01*
X0105041Y0017885D01*
X0105097Y0017840D01*
X0105151Y0017792D01*
X0105202Y0017741D01*
X0105250Y0017687D01*
X0105295Y0017631D01*
X0105337Y0017572D01*
X0105376Y0017511D01*
X0105412Y0017448D01*
X0105444Y0017384D01*
X0105472Y0017317D01*
X0105497Y0017250D01*
X0105518Y0017181D01*
X0105536Y0017111D01*
X0105549Y0017040D01*
X0105559Y0016968D01*
X0105565Y0016896D01*
X0105567Y0016824D01*
X0105565Y0016752D01*
X0105559Y0016680D01*
X0105549Y0016608D01*
X0105536Y0016537D01*
X0105518Y0016467D01*
X0105497Y0016398D01*
X0105472Y0016331D01*
X0105444Y0016264D01*
X0105412Y0016200D01*
X0105376Y0016137D01*
X0105337Y0016076D01*
X0105295Y0016017D01*
X0105250Y0015961D01*
X0105202Y0015907D01*
X0105151Y0015856D01*
X0105097Y0015808D01*
X0105041Y0015763D01*
X0104982Y0015721D01*
X0104921Y0015682D01*
X0104858Y0015646D01*
X0104794Y0015614D01*
X0104727Y0015586D01*
X0104660Y0015561D01*
X0104591Y0015540D01*
X0104521Y0015522D01*
X0104450Y0015509D01*
X0104378Y0015499D01*
X0104306Y0015493D01*
X0104234Y0015491D01*
X0104234Y0015490D02*
X0102900Y0015490D01*
X0107565Y0015490D02*
X0107832Y0015490D01*
X0107832Y0015757D01*
X0107565Y0015757D01*
X0107565Y0015490D01*
X0109830Y0015490D02*
X0112497Y0015490D01*
X0116114Y0015490D02*
X0117714Y0020290D01*
X0114514Y0020290D02*
X0116114Y0015490D01*
X0112097Y0018157D02*
X0109830Y0015490D01*
X0109830Y0019224D02*
X0109856Y0019297D01*
X0109885Y0019369D01*
X0109918Y0019439D01*
X0109955Y0019508D01*
X0109994Y0019574D01*
X0110038Y0019639D01*
X0110084Y0019701D01*
X0110133Y0019761D01*
X0110186Y0019818D01*
X0110241Y0019872D01*
X0110299Y0019924D01*
X0110359Y0019973D01*
X0110422Y0020018D01*
X0110487Y0020061D01*
X0110554Y0020100D01*
X0110622Y0020136D01*
X0110693Y0020168D01*
X0110765Y0020196D01*
X0110839Y0020221D01*
X0110913Y0020242D01*
X0110989Y0020260D01*
X0111065Y0020273D01*
X0111142Y0020283D01*
X0111219Y0020289D01*
X0111297Y0020291D01*
X0111297Y0020290D02*
X0111364Y0020288D01*
X0111431Y0020282D01*
X0111498Y0020273D01*
X0111564Y0020260D01*
X0111629Y0020243D01*
X0111693Y0020223D01*
X0111756Y0020199D01*
X0111818Y0020171D01*
X0111877Y0020140D01*
X0111935Y0020106D01*
X0111991Y0020069D01*
X0112045Y0020028D01*
X0112097Y0019985D01*
X0112146Y0019939D01*
X0112192Y0019890D01*
X0112235Y0019838D01*
X0112276Y0019784D01*
X0112313Y0019728D01*
X0112347Y0019670D01*
X0112378Y0019611D01*
X0112406Y0019549D01*
X0112430Y0019486D01*
X0112450Y0019422D01*
X0112467Y0019357D01*
X0112480Y0019291D01*
X0112489Y0019224D01*
X0112495Y0019157D01*
X0112497Y0019090D01*
X0112495Y0019020D01*
X0112489Y0018951D01*
X0112480Y0018882D01*
X0112467Y0018814D01*
X0112450Y0018746D01*
X0112430Y0018680D01*
X0112406Y0018614D01*
X0112379Y0018550D01*
X0112348Y0018488D01*
X0112314Y0018427D01*
X0112276Y0018369D01*
X0112236Y0018312D01*
X0112192Y0018258D01*
X0112146Y0018206D01*
X0112097Y0018157D01*
X0094906Y0027474D02*
X0094904Y0027410D01*
X0094898Y0027345D01*
X0094889Y0027282D01*
X0094875Y0027219D01*
X0094858Y0027157D01*
X0094837Y0027096D01*
X0094812Y0027036D01*
X0094784Y0026978D01*
X0094752Y0026922D01*
X0094717Y0026868D01*
X0094679Y0026816D01*
X0094638Y0026766D01*
X0094593Y0026720D01*
X0094547Y0026675D01*
X0094497Y0026634D01*
X0094445Y0026596D01*
X0094391Y0026561D01*
X0094335Y0026529D01*
X0094277Y0026501D01*
X0094217Y0026476D01*
X0094156Y0026455D01*
X0094094Y0026438D01*
X0094031Y0026424D01*
X0093968Y0026415D01*
X0093903Y0026409D01*
X0093839Y0026407D01*
X0093775Y0026409D01*
X0093710Y0026415D01*
X0093647Y0026424D01*
X0093584Y0026438D01*
X0093522Y0026455D01*
X0093461Y0026476D01*
X0093401Y0026501D01*
X0093343Y0026529D01*
X0093287Y0026561D01*
X0093233Y0026596D01*
X0093181Y0026634D01*
X0093131Y0026675D01*
X0093085Y0026720D01*
X0093040Y0026766D01*
X0092999Y0026816D01*
X0092961Y0026868D01*
X0092926Y0026922D01*
X0092894Y0026978D01*
X0092866Y0027036D01*
X0092841Y0027096D01*
X0092820Y0027157D01*
X0092803Y0027219D01*
X0092789Y0027282D01*
X0092780Y0027345D01*
X0092774Y0027410D01*
X0092772Y0027474D01*
X0092774Y0027538D01*
X0092780Y0027603D01*
X0092789Y0027666D01*
X0092803Y0027729D01*
X0092820Y0027791D01*
X0092841Y0027852D01*
X0092866Y0027912D01*
X0092894Y0027970D01*
X0092926Y0028026D01*
X0092961Y0028080D01*
X0092999Y0028132D01*
X0093040Y0028182D01*
X0093085Y0028228D01*
X0093131Y0028273D01*
X0093181Y0028314D01*
X0093233Y0028352D01*
X0093287Y0028387D01*
X0093343Y0028419D01*
X0093401Y0028447D01*
X0093461Y0028472D01*
X0093522Y0028493D01*
X0093584Y0028510D01*
X0093647Y0028524D01*
X0093710Y0028533D01*
X0093775Y0028539D01*
X0093839Y0028541D01*
X0093903Y0028539D01*
X0093968Y0028533D01*
X0094031Y0028524D01*
X0094094Y0028510D01*
X0094156Y0028493D01*
X0094217Y0028472D01*
X0094277Y0028447D01*
X0094335Y0028419D01*
X0094391Y0028387D01*
X0094445Y0028352D01*
X0094497Y0028314D01*
X0094547Y0028273D01*
X0094593Y0028228D01*
X0094638Y0028182D01*
X0094679Y0028132D01*
X0094717Y0028080D01*
X0094752Y0028026D01*
X0094784Y0027970D01*
X0094812Y0027912D01*
X0094837Y0027852D01*
X0094858Y0027791D01*
X0094875Y0027729D01*
X0094889Y0027666D01*
X0094898Y0027603D01*
X0094904Y0027538D01*
X0094906Y0027474D01*
X0071399Y0023740D02*
X0069799Y0028540D01*
X0144635Y0027608D02*
X0144635Y0024308D01*
X0146101Y0024308D01*
X0147623Y0024308D02*
X0149457Y0024308D01*
X0148540Y0024308D02*
X0148540Y0027608D01*
X0147623Y0026875D01*
D11*
X0180272Y0032609D02*
X0193472Y0032609D01*
X0200472Y0032609D02*
X0213672Y0032609D01*
X0213672Y0066009D01*
X0200472Y0066009D01*
X0205372Y0066009D02*
X0213672Y0057709D01*
X0193472Y0066009D02*
X0188572Y0066009D01*
X0180272Y0057709D01*
X0180272Y0066009D02*
X0180272Y0032609D01*
X0099354Y0059341D02*
X0093654Y0059341D01*
X0091254Y0059341D01*
X0085554Y0059341D01*
X0091254Y0059341D02*
X0091256Y0059410D01*
X0091262Y0059478D01*
X0091272Y0059546D01*
X0091285Y0059613D01*
X0091303Y0059679D01*
X0091324Y0059744D01*
X0091349Y0059808D01*
X0091377Y0059870D01*
X0091409Y0059931D01*
X0091444Y0059990D01*
X0091483Y0060046D01*
X0091525Y0060101D01*
X0091570Y0060152D01*
X0091618Y0060202D01*
X0091668Y0060248D01*
X0091721Y0060291D01*
X0091777Y0060332D01*
X0091834Y0060369D01*
X0091894Y0060402D01*
X0091956Y0060433D01*
X0092019Y0060459D01*
X0092083Y0060482D01*
X0092149Y0060502D01*
X0092216Y0060517D01*
X0092283Y0060529D01*
X0092351Y0060537D01*
X0092420Y0060541D01*
X0092488Y0060541D01*
X0092557Y0060537D01*
X0092625Y0060529D01*
X0092692Y0060517D01*
X0092759Y0060502D01*
X0092825Y0060482D01*
X0092889Y0060459D01*
X0092952Y0060433D01*
X0093014Y0060402D01*
X0093074Y0060369D01*
X0093131Y0060332D01*
X0093187Y0060291D01*
X0093240Y0060248D01*
X0093290Y0060202D01*
X0093338Y0060152D01*
X0093383Y0060101D01*
X0093425Y0060046D01*
X0093464Y0059990D01*
X0093499Y0059931D01*
X0093531Y0059870D01*
X0093559Y0059808D01*
X0093584Y0059744D01*
X0093605Y0059679D01*
X0093623Y0059613D01*
X0093636Y0059546D01*
X0093646Y0059478D01*
X0093652Y0059410D01*
X0093654Y0059341D01*
X0087881Y0051715D02*
X0086110Y0051715D01*
X0087881Y0051715D02*
X0087881Y0035770D01*
X0086110Y0035770D01*
X0076661Y0035770D02*
X0074889Y0035770D01*
X0074889Y0051715D01*
X0076661Y0051715D01*
X0067533Y0061106D02*
X0054033Y0074606D01*
X0044233Y0074606D02*
X0067533Y0074606D01*
X0067533Y0020606D01*
X0044233Y0020606D01*
X0036833Y0020606D02*
X0013533Y0020606D01*
X0013533Y0074606D01*
X0027033Y0074606D01*
X0013533Y0061106D01*
X0027033Y0074606D02*
X0036833Y0074606D01*
X0040533Y0080606D02*
X0040533Y0083606D01*
X0042033Y0082106D02*
X0039033Y0082106D01*
X0085554Y0078941D02*
X0099354Y0078941D01*
X0128772Y0074121D02*
X0128772Y0070921D01*
X0153772Y0070921D01*
X0153772Y0074121D01*
X0137772Y0074121D02*
X0137272Y0073621D01*
X0136772Y0073121D01*
X0136272Y0072621D01*
X0135772Y0072121D01*
X0135772Y0076121D01*
X0136272Y0075621D01*
X0136272Y0074121D01*
X0136272Y0072621D01*
X0136772Y0073121D02*
X0136772Y0075121D01*
X0137272Y0074621D01*
X0137272Y0073621D01*
X0137772Y0074121D02*
X0136272Y0074121D01*
X0130272Y0074121D01*
X0136272Y0075621D02*
X0136772Y0075121D01*
X0137272Y0074621D02*
X0137772Y0074121D01*
X0128772Y0085121D02*
X0128772Y0087621D01*
X0153772Y0087621D01*
X0153772Y0085121D01*
X0195472Y0074009D02*
X0198472Y0074009D01*
X0196972Y0072509D02*
X0196972Y0075509D01*
X0188572Y0066009D02*
X0180272Y0066009D01*
D12*
X0018791Y0011036D02*
X0017147Y0011036D01*
X0017069Y0011038D01*
X0016991Y0011043D01*
X0016913Y0011053D01*
X0016836Y0011066D01*
X0016759Y0011082D01*
X0016684Y0011103D01*
X0016609Y0011126D01*
X0016536Y0011154D01*
X0016464Y0011185D01*
X0016394Y0011219D01*
X0016325Y0011256D01*
X0016258Y0011297D01*
X0016193Y0011341D01*
X0016131Y0011388D01*
X0016070Y0011438D01*
X0016013Y0011490D01*
X0015957Y0011546D01*
X0015905Y0011603D01*
X0015855Y0011664D01*
X0015808Y0011726D01*
X0015764Y0011791D01*
X0015723Y0011858D01*
X0015686Y0011927D01*
X0015652Y0011997D01*
X0015621Y0012069D01*
X0015593Y0012142D01*
X0015570Y0012217D01*
X0015549Y0012292D01*
X0015533Y0012369D01*
X0015520Y0012446D01*
X0015510Y0012524D01*
X0015505Y0012602D01*
X0015503Y0012680D01*
X0015502Y0012680D02*
X0015502Y0016791D01*
X0015503Y0016791D02*
X0015505Y0016872D01*
X0015511Y0016952D01*
X0015521Y0017032D01*
X0015535Y0017112D01*
X0015552Y0017190D01*
X0015574Y0017268D01*
X0015599Y0017345D01*
X0015628Y0017420D01*
X0015661Y0017494D01*
X0015697Y0017566D01*
X0015737Y0017636D01*
X0015780Y0017704D01*
X0015827Y0017770D01*
X0015876Y0017834D01*
X0015929Y0017895D01*
X0015985Y0017953D01*
X0016043Y0018009D01*
X0016104Y0018062D01*
X0016168Y0018111D01*
X0016234Y0018158D01*
X0016302Y0018201D01*
X0016372Y0018241D01*
X0016444Y0018277D01*
X0016518Y0018310D01*
X0016593Y0018339D01*
X0016670Y0018364D01*
X0016748Y0018386D01*
X0016826Y0018403D01*
X0016906Y0018417D01*
X0016986Y0018427D01*
X0017066Y0018433D01*
X0017147Y0018435D01*
X0017147Y0018436D02*
X0018791Y0018436D01*
X0021369Y0016791D02*
X0023425Y0018436D01*
X0023425Y0011036D01*
X0025480Y0011036D02*
X0021369Y0011036D01*
X0180264Y0023249D02*
X0180264Y0027360D01*
X0180266Y0027441D01*
X0180272Y0027521D01*
X0180282Y0027601D01*
X0180296Y0027681D01*
X0180313Y0027759D01*
X0180335Y0027837D01*
X0180360Y0027914D01*
X0180389Y0027989D01*
X0180422Y0028063D01*
X0180458Y0028135D01*
X0180498Y0028205D01*
X0180541Y0028273D01*
X0180588Y0028339D01*
X0180637Y0028403D01*
X0180690Y0028464D01*
X0180746Y0028522D01*
X0180804Y0028578D01*
X0180865Y0028631D01*
X0180929Y0028680D01*
X0180995Y0028727D01*
X0181063Y0028770D01*
X0181133Y0028810D01*
X0181205Y0028846D01*
X0181279Y0028879D01*
X0181354Y0028908D01*
X0181431Y0028933D01*
X0181509Y0028955D01*
X0181587Y0028972D01*
X0181667Y0028986D01*
X0181747Y0028996D01*
X0181827Y0029002D01*
X0181908Y0029004D01*
X0183553Y0029004D01*
X0189625Y0025715D02*
X0189685Y0025775D01*
X0189743Y0025837D01*
X0189798Y0025902D01*
X0189850Y0025968D01*
X0189899Y0026038D01*
X0189945Y0026109D01*
X0189988Y0026181D01*
X0190028Y0026256D01*
X0190064Y0026333D01*
X0190098Y0026410D01*
X0190128Y0026490D01*
X0190154Y0026570D01*
X0190177Y0026651D01*
X0190197Y0026734D01*
X0190213Y0026817D01*
X0190226Y0026901D01*
X0190235Y0026985D01*
X0190240Y0027069D01*
X0190242Y0027154D01*
X0189625Y0025715D02*
X0186131Y0021604D01*
X0190242Y0021604D01*
X0183553Y0021604D02*
X0181908Y0021604D01*
X0181908Y0021605D02*
X0181830Y0021607D01*
X0181752Y0021612D01*
X0181674Y0021622D01*
X0181597Y0021635D01*
X0181520Y0021651D01*
X0181445Y0021672D01*
X0181370Y0021695D01*
X0181297Y0021723D01*
X0181225Y0021754D01*
X0181155Y0021788D01*
X0181086Y0021825D01*
X0181019Y0021866D01*
X0180954Y0021910D01*
X0180892Y0021957D01*
X0180831Y0022007D01*
X0180774Y0022059D01*
X0180718Y0022115D01*
X0180666Y0022172D01*
X0180616Y0022233D01*
X0180569Y0022295D01*
X0180525Y0022360D01*
X0180484Y0022427D01*
X0180447Y0022496D01*
X0180413Y0022566D01*
X0180382Y0022638D01*
X0180354Y0022711D01*
X0180331Y0022786D01*
X0180310Y0022861D01*
X0180294Y0022938D01*
X0180281Y0023015D01*
X0180271Y0023093D01*
X0180266Y0023171D01*
X0180264Y0023249D01*
X0186131Y0027359D02*
X0186162Y0027450D01*
X0186197Y0027540D01*
X0186236Y0027628D01*
X0186279Y0027715D01*
X0186325Y0027800D01*
X0186374Y0027883D01*
X0186426Y0027964D01*
X0186482Y0028042D01*
X0186541Y0028119D01*
X0186603Y0028192D01*
X0186668Y0028264D01*
X0186736Y0028332D01*
X0186806Y0028398D01*
X0186880Y0028461D01*
X0186955Y0028521D01*
X0187033Y0028577D01*
X0187113Y0028631D01*
X0187196Y0028681D01*
X0187280Y0028728D01*
X0187366Y0028771D01*
X0187454Y0028811D01*
X0187543Y0028847D01*
X0187634Y0028880D01*
X0187726Y0028909D01*
X0187819Y0028934D01*
X0187913Y0028955D01*
X0188008Y0028973D01*
X0188103Y0028986D01*
X0188199Y0028996D01*
X0188296Y0029002D01*
X0188392Y0029004D01*
X0188475Y0029002D01*
X0188558Y0028997D01*
X0188640Y0028987D01*
X0188722Y0028974D01*
X0188804Y0028958D01*
X0188884Y0028937D01*
X0188964Y0028913D01*
X0189042Y0028886D01*
X0189119Y0028855D01*
X0189195Y0028821D01*
X0189269Y0028783D01*
X0189341Y0028742D01*
X0189411Y0028698D01*
X0189479Y0028651D01*
X0189545Y0028600D01*
X0189609Y0028547D01*
X0189670Y0028491D01*
X0189729Y0028432D01*
X0189785Y0028371D01*
X0189838Y0028307D01*
X0189889Y0028241D01*
X0189936Y0028173D01*
X0189980Y0028103D01*
X0190021Y0028031D01*
X0190059Y0027957D01*
X0190093Y0027881D01*
X0190124Y0027804D01*
X0190151Y0027726D01*
X0190175Y0027646D01*
X0190196Y0027566D01*
X0190212Y0027484D01*
X0190225Y0027402D01*
X0190235Y0027320D01*
X0190240Y0027237D01*
X0190242Y0027154D01*
D13*
X0113138Y0044062D02*
X0110583Y0044062D01*
X0111605Y0047639D01*
X0108864Y0047639D02*
X0107842Y0047639D01*
X0107780Y0047637D01*
X0107719Y0047632D01*
X0107658Y0047622D01*
X0107597Y0047609D01*
X0107538Y0047593D01*
X0107480Y0047573D01*
X0107423Y0047549D01*
X0107367Y0047522D01*
X0107313Y0047492D01*
X0107261Y0047458D01*
X0107212Y0047421D01*
X0107164Y0047382D01*
X0107119Y0047340D01*
X0107077Y0047295D01*
X0107037Y0047247D01*
X0107001Y0047198D01*
X0106967Y0047146D01*
X0106937Y0047092D01*
X0106910Y0047036D01*
X0106886Y0046979D01*
X0106866Y0046921D01*
X0106850Y0046862D01*
X0106837Y0046801D01*
X0106827Y0046740D01*
X0106822Y0046679D01*
X0106820Y0046617D01*
X0106820Y0044062D01*
X0106822Y0044000D01*
X0106827Y0043939D01*
X0106837Y0043878D01*
X0106850Y0043817D01*
X0106866Y0043758D01*
X0106886Y0043700D01*
X0106910Y0043643D01*
X0106937Y0043587D01*
X0106967Y0043533D01*
X0107001Y0043481D01*
X0107037Y0043432D01*
X0107077Y0043384D01*
X0107119Y0043339D01*
X0107164Y0043297D01*
X0107212Y0043257D01*
X0107261Y0043221D01*
X0107313Y0043187D01*
X0107367Y0043157D01*
X0107423Y0043130D01*
X0107480Y0043106D01*
X0107538Y0043086D01*
X0107597Y0043070D01*
X0107658Y0043057D01*
X0107719Y0043047D01*
X0107780Y0043042D01*
X0107842Y0043040D01*
X0107842Y0043039D02*
X0108864Y0043039D01*
X0112372Y0043039D02*
X0112372Y0045084D01*
X0101243Y0055480D02*
X0100348Y0056630D01*
X0098943Y0057141D01*
X0100348Y0056630D02*
X0101754Y0057141D01*
X0100348Y0056630D02*
X0099454Y0055480D01*
X0100348Y0056630D02*
X0100348Y0058163D01*
X0114306Y0073609D02*
X0115328Y0073609D01*
X0114306Y0073609D02*
X0114244Y0073611D01*
X0114183Y0073616D01*
X0114122Y0073626D01*
X0114061Y0073639D01*
X0114002Y0073655D01*
X0113944Y0073675D01*
X0113887Y0073699D01*
X0113831Y0073726D01*
X0113777Y0073756D01*
X0113725Y0073790D01*
X0113676Y0073826D01*
X0113628Y0073866D01*
X0113583Y0073908D01*
X0113541Y0073953D01*
X0113501Y0074001D01*
X0113465Y0074050D01*
X0113431Y0074102D01*
X0113401Y0074156D01*
X0113374Y0074212D01*
X0113350Y0074269D01*
X0113330Y0074327D01*
X0113314Y0074386D01*
X0113301Y0074447D01*
X0113291Y0074508D01*
X0113286Y0074569D01*
X0113284Y0074631D01*
X0113284Y0077186D01*
X0113286Y0077248D01*
X0113291Y0077309D01*
X0113301Y0077370D01*
X0113314Y0077431D01*
X0113330Y0077490D01*
X0113350Y0077548D01*
X0113374Y0077605D01*
X0113401Y0077661D01*
X0113431Y0077715D01*
X0113465Y0077767D01*
X0113501Y0077816D01*
X0113541Y0077864D01*
X0113583Y0077909D01*
X0113628Y0077951D01*
X0113676Y0077990D01*
X0113725Y0078027D01*
X0113777Y0078061D01*
X0113831Y0078091D01*
X0113887Y0078118D01*
X0113944Y0078142D01*
X0114002Y0078162D01*
X0114061Y0078178D01*
X0114122Y0078191D01*
X0114183Y0078201D01*
X0114244Y0078206D01*
X0114306Y0078208D01*
X0114306Y0078209D02*
X0115328Y0078209D01*
X0117047Y0078209D02*
X0119603Y0078209D01*
X0117047Y0078209D02*
X0117047Y0076164D01*
X0118580Y0076164D01*
X0118642Y0076162D01*
X0118703Y0076157D01*
X0118764Y0076147D01*
X0118825Y0076134D01*
X0118884Y0076118D01*
X0118942Y0076098D01*
X0118999Y0076074D01*
X0119055Y0076047D01*
X0119109Y0076017D01*
X0119161Y0075983D01*
X0119210Y0075947D01*
X0119258Y0075907D01*
X0119303Y0075865D01*
X0119345Y0075820D01*
X0119385Y0075772D01*
X0119421Y0075723D01*
X0119455Y0075671D01*
X0119485Y0075617D01*
X0119512Y0075561D01*
X0119536Y0075504D01*
X0119556Y0075446D01*
X0119572Y0075387D01*
X0119585Y0075326D01*
X0119595Y0075265D01*
X0119600Y0075204D01*
X0119602Y0075142D01*
X0119603Y0075142D02*
X0119603Y0074631D01*
X0119602Y0074631D02*
X0119600Y0074569D01*
X0119595Y0074508D01*
X0119585Y0074447D01*
X0119572Y0074386D01*
X0119556Y0074327D01*
X0119536Y0074269D01*
X0119512Y0074212D01*
X0119485Y0074156D01*
X0119455Y0074102D01*
X0119421Y0074050D01*
X0119385Y0074001D01*
X0119345Y0073953D01*
X0119303Y0073908D01*
X0119258Y0073866D01*
X0119210Y0073826D01*
X0119161Y0073790D01*
X0119109Y0073756D01*
X0119055Y0073726D01*
X0118999Y0073699D01*
X0118942Y0073675D01*
X0118884Y0073655D01*
X0118825Y0073639D01*
X0118764Y0073626D01*
X0118703Y0073616D01*
X0118642Y0073611D01*
X0118580Y0073609D01*
X0117047Y0073609D01*
X0114005Y0081052D02*
X0112472Y0081052D01*
X0114005Y0081052D02*
X0114067Y0081054D01*
X0114128Y0081059D01*
X0114189Y0081069D01*
X0114250Y0081082D01*
X0114309Y0081098D01*
X0114367Y0081118D01*
X0114424Y0081142D01*
X0114480Y0081169D01*
X0114534Y0081199D01*
X0114586Y0081233D01*
X0114635Y0081269D01*
X0114683Y0081309D01*
X0114728Y0081351D01*
X0114770Y0081396D01*
X0114810Y0081444D01*
X0114846Y0081493D01*
X0114880Y0081545D01*
X0114910Y0081599D01*
X0114937Y0081655D01*
X0114961Y0081712D01*
X0114981Y0081770D01*
X0114997Y0081829D01*
X0115010Y0081890D01*
X0115020Y0081951D01*
X0115025Y0082012D01*
X0115027Y0082074D01*
X0115027Y0082585D01*
X0115025Y0082647D01*
X0115020Y0082708D01*
X0115010Y0082769D01*
X0114997Y0082830D01*
X0114981Y0082889D01*
X0114961Y0082947D01*
X0114937Y0083004D01*
X0114910Y0083060D01*
X0114880Y0083114D01*
X0114846Y0083166D01*
X0114810Y0083215D01*
X0114770Y0083263D01*
X0114728Y0083308D01*
X0114683Y0083350D01*
X0114635Y0083390D01*
X0114586Y0083426D01*
X0114534Y0083460D01*
X0114480Y0083490D01*
X0114424Y0083517D01*
X0114367Y0083541D01*
X0114309Y0083561D01*
X0114250Y0083577D01*
X0114189Y0083590D01*
X0114128Y0083600D01*
X0114067Y0083605D01*
X0114005Y0083607D01*
X0112472Y0083607D01*
X0112472Y0085652D01*
X0115027Y0085652D01*
X0109505Y0085652D02*
X0107972Y0085652D01*
X0109505Y0085652D02*
X0109568Y0085650D01*
X0109631Y0085644D01*
X0109693Y0085635D01*
X0109754Y0085621D01*
X0109815Y0085604D01*
X0109874Y0085583D01*
X0109932Y0085558D01*
X0109989Y0085530D01*
X0110043Y0085499D01*
X0110095Y0085464D01*
X0110146Y0085426D01*
X0110194Y0085385D01*
X0110239Y0085341D01*
X0110281Y0085295D01*
X0110321Y0085246D01*
X0110357Y0085195D01*
X0110390Y0085141D01*
X0110420Y0085086D01*
X0110446Y0085028D01*
X0110469Y0084970D01*
X0110488Y0084910D01*
X0110503Y0084849D01*
X0110515Y0084787D01*
X0110523Y0084724D01*
X0110527Y0084661D01*
X0110527Y0084599D01*
X0110523Y0084536D01*
X0110515Y0084473D01*
X0110503Y0084411D01*
X0110488Y0084350D01*
X0110469Y0084290D01*
X0110446Y0084232D01*
X0110420Y0084174D01*
X0110390Y0084119D01*
X0110357Y0084065D01*
X0110321Y0084014D01*
X0110281Y0083965D01*
X0110239Y0083919D01*
X0110194Y0083875D01*
X0110146Y0083834D01*
X0110095Y0083796D01*
X0110043Y0083761D01*
X0109989Y0083730D01*
X0109932Y0083702D01*
X0109874Y0083677D01*
X0109815Y0083656D01*
X0109754Y0083639D01*
X0109693Y0083625D01*
X0109631Y0083616D01*
X0109568Y0083610D01*
X0109505Y0083608D01*
X0109505Y0083607D02*
X0108483Y0083607D01*
X0103855Y0081691D02*
X0103807Y0081795D01*
X0103761Y0081900D01*
X0103719Y0082006D01*
X0103680Y0082114D01*
X0103644Y0082223D01*
X0103612Y0082333D01*
X0103582Y0082444D01*
X0103557Y0082556D01*
X0103534Y0082668D01*
X0103515Y0082781D01*
X0103500Y0082895D01*
X0103488Y0083009D01*
X0103479Y0083123D01*
X0103474Y0083237D01*
X0103472Y0083352D01*
X0106028Y0083352D02*
X0106026Y0083467D01*
X0106021Y0083581D01*
X0106012Y0083695D01*
X0106000Y0083809D01*
X0105985Y0083923D01*
X0105966Y0084036D01*
X0105943Y0084148D01*
X0105918Y0084260D01*
X0105888Y0084371D01*
X0105856Y0084481D01*
X0105820Y0084590D01*
X0105781Y0084698D01*
X0105739Y0084804D01*
X0105693Y0084909D01*
X0105645Y0085013D01*
X0105772Y0084630D02*
X0103727Y0082074D01*
X0104750Y0081051D02*
X0104809Y0081053D01*
X0104867Y0081058D01*
X0104925Y0081067D01*
X0104982Y0081080D01*
X0105039Y0081096D01*
X0105094Y0081116D01*
X0105148Y0081139D01*
X0105200Y0081165D01*
X0105251Y0081195D01*
X0105300Y0081227D01*
X0105347Y0081263D01*
X0105391Y0081301D01*
X0105433Y0081342D01*
X0105472Y0081386D01*
X0105509Y0081432D01*
X0105542Y0081480D01*
X0105573Y0081530D01*
X0105600Y0081582D01*
X0105624Y0081635D01*
X0105645Y0081690D01*
X0104750Y0081051D02*
X0104691Y0081053D01*
X0104633Y0081058D01*
X0104575Y0081067D01*
X0104518Y0081080D01*
X0104461Y0081096D01*
X0104406Y0081116D01*
X0104352Y0081139D01*
X0104300Y0081165D01*
X0104249Y0081195D01*
X0104200Y0081227D01*
X0104153Y0081263D01*
X0104109Y0081301D01*
X0104067Y0081342D01*
X0104028Y0081386D01*
X0103991Y0081432D01*
X0103958Y0081480D01*
X0103927Y0081530D01*
X0103900Y0081582D01*
X0103876Y0081635D01*
X0103855Y0081690D01*
X0101527Y0082074D02*
X0101527Y0082585D01*
X0101525Y0082647D01*
X0101520Y0082708D01*
X0101510Y0082769D01*
X0101497Y0082830D01*
X0101481Y0082889D01*
X0101461Y0082947D01*
X0101437Y0083004D01*
X0101410Y0083060D01*
X0101380Y0083114D01*
X0101346Y0083166D01*
X0101310Y0083215D01*
X0101270Y0083263D01*
X0101228Y0083308D01*
X0101183Y0083350D01*
X0101135Y0083390D01*
X0101086Y0083426D01*
X0101034Y0083460D01*
X0100980Y0083490D01*
X0100924Y0083517D01*
X0100867Y0083541D01*
X0100809Y0083561D01*
X0100750Y0083577D01*
X0100689Y0083590D01*
X0100628Y0083600D01*
X0100567Y0083605D01*
X0100505Y0083607D01*
X0098972Y0083607D01*
X0098972Y0085652D01*
X0101527Y0085652D01*
X0104750Y0085652D02*
X0104809Y0085650D01*
X0104867Y0085645D01*
X0104925Y0085636D01*
X0104982Y0085623D01*
X0105039Y0085607D01*
X0105094Y0085587D01*
X0105148Y0085564D01*
X0105200Y0085538D01*
X0105251Y0085508D01*
X0105300Y0085476D01*
X0105347Y0085440D01*
X0105391Y0085402D01*
X0105433Y0085361D01*
X0105472Y0085317D01*
X0105509Y0085271D01*
X0105542Y0085223D01*
X0105573Y0085173D01*
X0105600Y0085121D01*
X0105624Y0085068D01*
X0105645Y0085013D01*
X0104750Y0085652D02*
X0104691Y0085650D01*
X0104633Y0085645D01*
X0104575Y0085636D01*
X0104518Y0085623D01*
X0104461Y0085607D01*
X0104406Y0085587D01*
X0104352Y0085564D01*
X0104300Y0085538D01*
X0104249Y0085508D01*
X0104200Y0085476D01*
X0104153Y0085440D01*
X0104109Y0085402D01*
X0104067Y0085361D01*
X0104028Y0085317D01*
X0103991Y0085271D01*
X0103958Y0085223D01*
X0103927Y0085173D01*
X0103900Y0085121D01*
X0103876Y0085068D01*
X0103855Y0085013D01*
X0106028Y0083352D02*
X0106026Y0083237D01*
X0106021Y0083123D01*
X0106012Y0083009D01*
X0106000Y0082895D01*
X0105985Y0082781D01*
X0105966Y0082668D01*
X0105943Y0082556D01*
X0105918Y0082444D01*
X0105888Y0082333D01*
X0105856Y0082223D01*
X0105820Y0082114D01*
X0105781Y0082006D01*
X0105739Y0081900D01*
X0105693Y0081795D01*
X0105645Y0081691D01*
X0107972Y0081052D02*
X0109250Y0081052D01*
X0109320Y0081054D01*
X0109391Y0081060D01*
X0109460Y0081069D01*
X0109529Y0081083D01*
X0109598Y0081100D01*
X0109665Y0081121D01*
X0109731Y0081146D01*
X0109795Y0081174D01*
X0109858Y0081206D01*
X0109919Y0081241D01*
X0109978Y0081280D01*
X0110035Y0081321D01*
X0110089Y0081366D01*
X0110141Y0081414D01*
X0110190Y0081464D01*
X0110237Y0081518D01*
X0110280Y0081573D01*
X0110320Y0081631D01*
X0110357Y0081691D01*
X0110390Y0081753D01*
X0110420Y0081817D01*
X0110447Y0081882D01*
X0110470Y0081948D01*
X0110489Y0082016D01*
X0110504Y0082085D01*
X0110516Y0082154D01*
X0110524Y0082224D01*
X0110528Y0082295D01*
X0110528Y0082365D01*
X0110524Y0082436D01*
X0110516Y0082506D01*
X0110504Y0082575D01*
X0110489Y0082644D01*
X0110470Y0082712D01*
X0110447Y0082778D01*
X0110420Y0082843D01*
X0110390Y0082907D01*
X0110357Y0082969D01*
X0110320Y0083029D01*
X0110280Y0083087D01*
X0110237Y0083142D01*
X0110190Y0083196D01*
X0110141Y0083246D01*
X0110089Y0083294D01*
X0110035Y0083339D01*
X0109978Y0083380D01*
X0109919Y0083419D01*
X0109858Y0083454D01*
X0109795Y0083486D01*
X0109731Y0083514D01*
X0109665Y0083539D01*
X0109598Y0083560D01*
X0109529Y0083577D01*
X0109460Y0083591D01*
X0109391Y0083600D01*
X0109320Y0083606D01*
X0109250Y0083608D01*
X0103855Y0085013D02*
X0103807Y0084909D01*
X0103761Y0084804D01*
X0103719Y0084698D01*
X0103680Y0084590D01*
X0103644Y0084481D01*
X0103612Y0084371D01*
X0103582Y0084260D01*
X0103557Y0084148D01*
X0103534Y0084036D01*
X0103515Y0083923D01*
X0103500Y0083809D01*
X0103488Y0083695D01*
X0103479Y0083581D01*
X0103474Y0083467D01*
X0103472Y0083352D01*
X0101527Y0082074D02*
X0101525Y0082012D01*
X0101520Y0081951D01*
X0101510Y0081890D01*
X0101497Y0081829D01*
X0101481Y0081770D01*
X0101461Y0081712D01*
X0101437Y0081655D01*
X0101410Y0081599D01*
X0101380Y0081545D01*
X0101346Y0081493D01*
X0101310Y0081444D01*
X0101270Y0081396D01*
X0101228Y0081351D01*
X0101183Y0081309D01*
X0101135Y0081269D01*
X0101086Y0081233D01*
X0101034Y0081199D01*
X0100980Y0081169D01*
X0100924Y0081142D01*
X0100867Y0081118D01*
X0100809Y0081098D01*
X0100750Y0081082D01*
X0100689Y0081069D01*
X0100628Y0081059D01*
X0100567Y0081054D01*
X0100505Y0081052D01*
X0098972Y0081052D01*
X0097283Y0081052D02*
X0094216Y0085652D01*
X0091250Y0085652D02*
X0092783Y0081052D01*
X0092400Y0082202D02*
X0090100Y0082202D01*
X0089716Y0081052D02*
X0091250Y0085652D01*
X0087833Y0085652D02*
X0087833Y0081052D01*
X0086300Y0083096D02*
X0087833Y0085652D01*
X0086300Y0083096D02*
X0084766Y0085652D01*
X0084766Y0081052D01*
X0077896Y0080791D02*
X0077896Y0081814D01*
X0077895Y0080791D02*
X0077893Y0080729D01*
X0077888Y0080668D01*
X0077878Y0080607D01*
X0077865Y0080546D01*
X0077849Y0080487D01*
X0077829Y0080429D01*
X0077805Y0080372D01*
X0077778Y0080316D01*
X0077748Y0080262D01*
X0077714Y0080210D01*
X0077678Y0080161D01*
X0077638Y0080113D01*
X0077596Y0080068D01*
X0077551Y0080026D01*
X0077503Y0079986D01*
X0077454Y0079950D01*
X0077402Y0079916D01*
X0077348Y0079886D01*
X0077292Y0079859D01*
X0077235Y0079835D01*
X0077177Y0079815D01*
X0077118Y0079799D01*
X0077057Y0079786D01*
X0076996Y0079776D01*
X0076935Y0079771D01*
X0076873Y0079769D01*
X0074318Y0079769D01*
X0074256Y0079771D01*
X0074195Y0079776D01*
X0074134Y0079786D01*
X0074073Y0079799D01*
X0074014Y0079815D01*
X0073956Y0079835D01*
X0073899Y0079859D01*
X0073843Y0079886D01*
X0073789Y0079916D01*
X0073737Y0079950D01*
X0073688Y0079986D01*
X0073640Y0080026D01*
X0073595Y0080068D01*
X0073553Y0080113D01*
X0073514Y0080161D01*
X0073477Y0080210D01*
X0073443Y0080262D01*
X0073413Y0080316D01*
X0073386Y0080372D01*
X0073362Y0080429D01*
X0073342Y0080487D01*
X0073326Y0080546D01*
X0073313Y0080607D01*
X0073303Y0080668D01*
X0073298Y0080729D01*
X0073296Y0080791D01*
X0073296Y0081814D01*
X0073296Y0083532D02*
X0073296Y0085065D01*
X0073298Y0085128D01*
X0073304Y0085191D01*
X0073313Y0085253D01*
X0073327Y0085314D01*
X0073344Y0085375D01*
X0073365Y0085434D01*
X0073390Y0085492D01*
X0073418Y0085549D01*
X0073449Y0085603D01*
X0073484Y0085655D01*
X0073522Y0085706D01*
X0073563Y0085754D01*
X0073607Y0085799D01*
X0073653Y0085841D01*
X0073702Y0085881D01*
X0073753Y0085917D01*
X0073807Y0085950D01*
X0073862Y0085980D01*
X0073920Y0086006D01*
X0073978Y0086029D01*
X0074038Y0086048D01*
X0074099Y0086063D01*
X0074161Y0086075D01*
X0074224Y0086083D01*
X0074287Y0086087D01*
X0074349Y0086087D01*
X0074412Y0086083D01*
X0074475Y0086075D01*
X0074537Y0086063D01*
X0074598Y0086048D01*
X0074658Y0086029D01*
X0074716Y0086006D01*
X0074774Y0085980D01*
X0074829Y0085950D01*
X0074883Y0085917D01*
X0074934Y0085881D01*
X0074983Y0085841D01*
X0075029Y0085799D01*
X0075073Y0085754D01*
X0075114Y0085706D01*
X0075152Y0085655D01*
X0075187Y0085603D01*
X0075218Y0085549D01*
X0075246Y0085492D01*
X0075271Y0085434D01*
X0075292Y0085375D01*
X0075309Y0085314D01*
X0075323Y0085253D01*
X0075332Y0085191D01*
X0075338Y0085128D01*
X0075340Y0085065D01*
X0075340Y0084043D01*
X0075340Y0084810D02*
X0075342Y0084880D01*
X0075348Y0084951D01*
X0075357Y0085020D01*
X0075371Y0085089D01*
X0075388Y0085158D01*
X0075409Y0085225D01*
X0075434Y0085291D01*
X0075462Y0085355D01*
X0075494Y0085418D01*
X0075529Y0085479D01*
X0075568Y0085538D01*
X0075609Y0085595D01*
X0075654Y0085649D01*
X0075702Y0085701D01*
X0075752Y0085750D01*
X0075806Y0085797D01*
X0075861Y0085840D01*
X0075919Y0085880D01*
X0075979Y0085917D01*
X0076041Y0085950D01*
X0076105Y0085980D01*
X0076170Y0086007D01*
X0076236Y0086030D01*
X0076304Y0086049D01*
X0076373Y0086064D01*
X0076442Y0086076D01*
X0076512Y0086084D01*
X0076583Y0086088D01*
X0076653Y0086088D01*
X0076724Y0086084D01*
X0076794Y0086076D01*
X0076863Y0086064D01*
X0076932Y0086049D01*
X0077000Y0086030D01*
X0077066Y0086007D01*
X0077131Y0085980D01*
X0077195Y0085950D01*
X0077257Y0085917D01*
X0077317Y0085880D01*
X0077375Y0085840D01*
X0077430Y0085797D01*
X0077484Y0085750D01*
X0077534Y0085701D01*
X0077582Y0085649D01*
X0077627Y0085595D01*
X0077668Y0085538D01*
X0077707Y0085479D01*
X0077742Y0085418D01*
X0077774Y0085355D01*
X0077802Y0085291D01*
X0077827Y0085225D01*
X0077848Y0085158D01*
X0077865Y0085089D01*
X0077879Y0085020D01*
X0077888Y0084951D01*
X0077894Y0084880D01*
X0077896Y0084810D01*
X0077896Y0083532D01*
X0094216Y0081052D02*
X0097283Y0085652D01*
X0154875Y0068197D02*
X0154875Y0063597D01*
X0154875Y0065642D02*
X0156153Y0065642D01*
X0156408Y0065642D02*
X0157431Y0063597D01*
X0159346Y0063597D02*
X0161902Y0063597D01*
X0159346Y0063597D02*
X0161518Y0066153D01*
X0160752Y0068197D02*
X0160678Y0068195D01*
X0160604Y0068190D01*
X0160530Y0068180D01*
X0160457Y0068167D01*
X0160384Y0068151D01*
X0160313Y0068130D01*
X0160243Y0068106D01*
X0160174Y0068079D01*
X0160106Y0068048D01*
X0160040Y0068014D01*
X0159976Y0067977D01*
X0159914Y0067936D01*
X0159854Y0067892D01*
X0159796Y0067846D01*
X0159740Y0067796D01*
X0159687Y0067744D01*
X0159637Y0067689D01*
X0159590Y0067632D01*
X0159546Y0067572D01*
X0159504Y0067510D01*
X0159466Y0067447D01*
X0159431Y0067381D01*
X0159400Y0067314D01*
X0159372Y0067245D01*
X0159347Y0067175D01*
X0161518Y0066153D02*
X0161565Y0066200D01*
X0161609Y0066250D01*
X0161651Y0066302D01*
X0161690Y0066356D01*
X0161725Y0066412D01*
X0161758Y0066470D01*
X0161788Y0066530D01*
X0161814Y0066591D01*
X0161837Y0066654D01*
X0161856Y0066718D01*
X0161872Y0066782D01*
X0161885Y0066848D01*
X0161894Y0066914D01*
X0161899Y0066980D01*
X0161901Y0067047D01*
X0161902Y0067047D02*
X0161900Y0067114D01*
X0161894Y0067181D01*
X0161885Y0067247D01*
X0161871Y0067312D01*
X0161854Y0067377D01*
X0161833Y0067440D01*
X0161808Y0067502D01*
X0161780Y0067563D01*
X0161748Y0067622D01*
X0161713Y0067679D01*
X0161674Y0067734D01*
X0161633Y0067786D01*
X0161588Y0067836D01*
X0161541Y0067883D01*
X0161491Y0067928D01*
X0161439Y0067969D01*
X0161384Y0068008D01*
X0161327Y0068043D01*
X0161268Y0068075D01*
X0161207Y0068103D01*
X0161145Y0068128D01*
X0161082Y0068149D01*
X0161017Y0068166D01*
X0160952Y0068180D01*
X0160886Y0068189D01*
X0160819Y0068195D01*
X0160752Y0068197D01*
X0156153Y0068197D02*
X0154875Y0068197D01*
X0156153Y0068197D02*
X0156223Y0068195D01*
X0156294Y0068189D01*
X0156363Y0068180D01*
X0156432Y0068166D01*
X0156501Y0068149D01*
X0156568Y0068128D01*
X0156634Y0068103D01*
X0156698Y0068075D01*
X0156761Y0068043D01*
X0156822Y0068008D01*
X0156881Y0067969D01*
X0156938Y0067928D01*
X0156992Y0067883D01*
X0157044Y0067835D01*
X0157093Y0067785D01*
X0157140Y0067731D01*
X0157183Y0067676D01*
X0157223Y0067618D01*
X0157260Y0067558D01*
X0157293Y0067496D01*
X0157323Y0067432D01*
X0157350Y0067367D01*
X0157373Y0067301D01*
X0157392Y0067233D01*
X0157407Y0067164D01*
X0157419Y0067095D01*
X0157427Y0067025D01*
X0157431Y0066954D01*
X0157431Y0066884D01*
X0157427Y0066813D01*
X0157419Y0066743D01*
X0157407Y0066674D01*
X0157392Y0066605D01*
X0157373Y0066537D01*
X0157350Y0066471D01*
X0157323Y0066406D01*
X0157293Y0066342D01*
X0157260Y0066280D01*
X0157223Y0066220D01*
X0157183Y0066162D01*
X0157140Y0066107D01*
X0157093Y0066053D01*
X0157044Y0066003D01*
X0156992Y0065955D01*
X0156938Y0065910D01*
X0156881Y0065869D01*
X0156822Y0065830D01*
X0156761Y0065795D01*
X0156698Y0065763D01*
X0156634Y0065735D01*
X0156568Y0065710D01*
X0156501Y0065689D01*
X0156432Y0065672D01*
X0156363Y0065658D01*
X0156294Y0065649D01*
X0156223Y0065643D01*
X0156153Y0065641D01*
X0173193Y0074859D02*
X0174215Y0074859D01*
X0173193Y0074860D02*
X0173131Y0074862D01*
X0173070Y0074867D01*
X0173009Y0074877D01*
X0172948Y0074890D01*
X0172889Y0074906D01*
X0172831Y0074926D01*
X0172774Y0074950D01*
X0172718Y0074977D01*
X0172664Y0075007D01*
X0172612Y0075041D01*
X0172563Y0075077D01*
X0172515Y0075117D01*
X0172470Y0075159D01*
X0172428Y0075204D01*
X0172388Y0075252D01*
X0172352Y0075301D01*
X0172318Y0075353D01*
X0172288Y0075407D01*
X0172261Y0075463D01*
X0172237Y0075520D01*
X0172217Y0075578D01*
X0172201Y0075637D01*
X0172188Y0075698D01*
X0172178Y0075759D01*
X0172173Y0075820D01*
X0172171Y0075882D01*
X0172171Y0078437D01*
X0172173Y0078499D01*
X0172178Y0078560D01*
X0172188Y0078621D01*
X0172201Y0078682D01*
X0172217Y0078741D01*
X0172237Y0078799D01*
X0172261Y0078856D01*
X0172288Y0078912D01*
X0172318Y0078966D01*
X0172352Y0079018D01*
X0172388Y0079067D01*
X0172428Y0079115D01*
X0172470Y0079160D01*
X0172515Y0079202D01*
X0172563Y0079241D01*
X0172612Y0079278D01*
X0172664Y0079312D01*
X0172718Y0079342D01*
X0172774Y0079369D01*
X0172831Y0079393D01*
X0172889Y0079413D01*
X0172948Y0079429D01*
X0173009Y0079442D01*
X0173070Y0079452D01*
X0173131Y0079457D01*
X0173193Y0079459D01*
X0174215Y0079459D01*
X0175934Y0077415D02*
X0175934Y0076137D01*
X0175936Y0076067D01*
X0175942Y0075996D01*
X0175951Y0075927D01*
X0175965Y0075858D01*
X0175982Y0075789D01*
X0176003Y0075722D01*
X0176028Y0075656D01*
X0176056Y0075592D01*
X0176088Y0075529D01*
X0176123Y0075468D01*
X0176162Y0075409D01*
X0176203Y0075352D01*
X0176248Y0075298D01*
X0176296Y0075246D01*
X0176346Y0075197D01*
X0176400Y0075150D01*
X0176455Y0075107D01*
X0176513Y0075067D01*
X0176573Y0075030D01*
X0176635Y0074997D01*
X0176699Y0074967D01*
X0176764Y0074940D01*
X0176830Y0074917D01*
X0176898Y0074898D01*
X0176967Y0074883D01*
X0177036Y0074871D01*
X0177106Y0074863D01*
X0177177Y0074859D01*
X0177247Y0074859D01*
X0177318Y0074863D01*
X0177388Y0074871D01*
X0177457Y0074883D01*
X0177526Y0074898D01*
X0177594Y0074917D01*
X0177660Y0074940D01*
X0177725Y0074967D01*
X0177789Y0074997D01*
X0177851Y0075030D01*
X0177911Y0075067D01*
X0177969Y0075107D01*
X0178024Y0075150D01*
X0178078Y0075197D01*
X0178128Y0075246D01*
X0178176Y0075298D01*
X0178221Y0075352D01*
X0178262Y0075409D01*
X0178301Y0075468D01*
X0178336Y0075529D01*
X0178368Y0075592D01*
X0178396Y0075656D01*
X0178421Y0075722D01*
X0178442Y0075789D01*
X0178459Y0075858D01*
X0178473Y0075927D01*
X0178482Y0075996D01*
X0178488Y0076067D01*
X0178490Y0076137D01*
X0178489Y0076137D02*
X0178489Y0076393D01*
X0178487Y0076455D01*
X0178482Y0076516D01*
X0178472Y0076577D01*
X0178459Y0076638D01*
X0178443Y0076697D01*
X0178423Y0076755D01*
X0178399Y0076812D01*
X0178372Y0076868D01*
X0178342Y0076922D01*
X0178308Y0076974D01*
X0178272Y0077023D01*
X0178232Y0077071D01*
X0178190Y0077116D01*
X0178145Y0077158D01*
X0178097Y0077198D01*
X0178048Y0077234D01*
X0177996Y0077268D01*
X0177942Y0077298D01*
X0177886Y0077325D01*
X0177829Y0077349D01*
X0177771Y0077369D01*
X0177712Y0077385D01*
X0177651Y0077398D01*
X0177590Y0077408D01*
X0177529Y0077413D01*
X0177467Y0077415D01*
X0175934Y0077415D01*
X0175936Y0077504D01*
X0175942Y0077593D01*
X0175951Y0077682D01*
X0175965Y0077770D01*
X0175982Y0077857D01*
X0176004Y0077944D01*
X0176029Y0078030D01*
X0176057Y0078114D01*
X0176090Y0078197D01*
X0176126Y0078279D01*
X0176165Y0078359D01*
X0176208Y0078437D01*
X0176254Y0078513D01*
X0176304Y0078587D01*
X0176356Y0078659D01*
X0176412Y0078729D01*
X0176471Y0078796D01*
X0176533Y0078860D01*
X0176597Y0078922D01*
X0176664Y0078981D01*
X0176734Y0079037D01*
X0176806Y0079089D01*
X0176880Y0079139D01*
X0176956Y0079185D01*
X0177034Y0079228D01*
X0177114Y0079267D01*
X0177196Y0079303D01*
X0177279Y0079336D01*
X0177363Y0079364D01*
X0177449Y0079389D01*
X0177536Y0079411D01*
X0177623Y0079428D01*
X0177711Y0079442D01*
X0177800Y0079451D01*
X0177889Y0079457D01*
X0177978Y0079459D01*
D14*
X0081385Y0047493D03*
D15*
X0090244Y0045655D02*
X0091494Y0045655D01*
X0090244Y0045655D02*
X0090244Y0041155D01*
X0091494Y0041155D01*
X0091562Y0041157D01*
X0091629Y0041162D01*
X0091696Y0041171D01*
X0091763Y0041184D01*
X0091828Y0041201D01*
X0091893Y0041220D01*
X0091957Y0041244D01*
X0092019Y0041271D01*
X0092080Y0041301D01*
X0092138Y0041334D01*
X0092195Y0041370D01*
X0092250Y0041410D01*
X0092303Y0041452D01*
X0092354Y0041498D01*
X0092401Y0041545D01*
X0092447Y0041596D01*
X0092489Y0041649D01*
X0092529Y0041704D01*
X0092565Y0041761D01*
X0092598Y0041819D01*
X0092628Y0041880D01*
X0092655Y0041942D01*
X0092679Y0042006D01*
X0092698Y0042071D01*
X0092715Y0042136D01*
X0092728Y0042203D01*
X0092737Y0042270D01*
X0092742Y0042337D01*
X0092744Y0042405D01*
X0092744Y0044405D01*
X0092742Y0044473D01*
X0092737Y0044540D01*
X0092728Y0044607D01*
X0092715Y0044674D01*
X0092698Y0044739D01*
X0092679Y0044804D01*
X0092655Y0044868D01*
X0092628Y0044930D01*
X0092598Y0044991D01*
X0092565Y0045049D01*
X0092529Y0045106D01*
X0092489Y0045161D01*
X0092447Y0045214D01*
X0092401Y0045265D01*
X0092354Y0045312D01*
X0092303Y0045358D01*
X0092250Y0045400D01*
X0092195Y0045440D01*
X0092138Y0045476D01*
X0092080Y0045509D01*
X0092019Y0045539D01*
X0091957Y0045566D01*
X0091893Y0045590D01*
X0091828Y0045609D01*
X0091763Y0045626D01*
X0091696Y0045639D01*
X0091629Y0045648D01*
X0091562Y0045653D01*
X0091494Y0045655D01*
X0095359Y0044655D02*
X0096609Y0045655D01*
X0096609Y0041155D01*
X0095359Y0041155D02*
X0097859Y0041155D01*
X0122215Y0048999D02*
X0122215Y0054905D01*
X0122217Y0055029D01*
X0122223Y0055152D01*
X0122232Y0055276D01*
X0122246Y0055398D01*
X0122263Y0055521D01*
X0122285Y0055643D01*
X0122310Y0055764D01*
X0122339Y0055884D01*
X0122371Y0056003D01*
X0122408Y0056122D01*
X0122448Y0056239D01*
X0122491Y0056354D01*
X0122539Y0056469D01*
X0122590Y0056581D01*
X0122644Y0056692D01*
X0122702Y0056802D01*
X0122763Y0056909D01*
X0122828Y0057015D01*
X0122896Y0057118D01*
X0122967Y0057219D01*
X0123041Y0057318D01*
X0123118Y0057415D01*
X0123199Y0057509D01*
X0123282Y0057600D01*
X0123368Y0057689D01*
X0123457Y0057775D01*
X0123548Y0057858D01*
X0123642Y0057939D01*
X0123739Y0058016D01*
X0123838Y0058090D01*
X0123939Y0058161D01*
X0124042Y0058229D01*
X0124148Y0058294D01*
X0124255Y0058355D01*
X0124365Y0058413D01*
X0124476Y0058467D01*
X0124588Y0058518D01*
X0124703Y0058566D01*
X0124818Y0058609D01*
X0124935Y0058649D01*
X0125054Y0058686D01*
X0125173Y0058718D01*
X0125293Y0058747D01*
X0125414Y0058772D01*
X0125536Y0058794D01*
X0125659Y0058811D01*
X0125781Y0058825D01*
X0125905Y0058834D01*
X0126028Y0058840D01*
X0126152Y0058842D01*
X0167491Y0058842D01*
X0167615Y0058840D01*
X0167738Y0058834D01*
X0167862Y0058825D01*
X0167984Y0058811D01*
X0168107Y0058794D01*
X0168229Y0058772D01*
X0168350Y0058747D01*
X0168470Y0058718D01*
X0168589Y0058686D01*
X0168708Y0058649D01*
X0168825Y0058609D01*
X0168940Y0058566D01*
X0169055Y0058518D01*
X0169167Y0058467D01*
X0169278Y0058413D01*
X0169388Y0058355D01*
X0169495Y0058294D01*
X0169601Y0058229D01*
X0169704Y0058161D01*
X0169805Y0058090D01*
X0169904Y0058016D01*
X0170001Y0057939D01*
X0170095Y0057858D01*
X0170186Y0057775D01*
X0170275Y0057689D01*
X0170361Y0057600D01*
X0170444Y0057509D01*
X0170525Y0057415D01*
X0170602Y0057318D01*
X0170676Y0057219D01*
X0170747Y0057118D01*
X0170815Y0057015D01*
X0170880Y0056909D01*
X0170941Y0056802D01*
X0170999Y0056692D01*
X0171053Y0056581D01*
X0171104Y0056469D01*
X0171152Y0056354D01*
X0171195Y0056239D01*
X0171235Y0056122D01*
X0171272Y0056003D01*
X0171304Y0055884D01*
X0171333Y0055764D01*
X0171358Y0055643D01*
X0171380Y0055521D01*
X0171397Y0055398D01*
X0171411Y0055276D01*
X0171420Y0055152D01*
X0171426Y0055029D01*
X0171428Y0054905D01*
X0171428Y0048999D01*
X0171428Y0019472D02*
X0171428Y0013566D01*
X0171426Y0013442D01*
X0171420Y0013319D01*
X0171411Y0013195D01*
X0171397Y0013073D01*
X0171380Y0012950D01*
X0171358Y0012828D01*
X0171333Y0012707D01*
X0171304Y0012587D01*
X0171272Y0012468D01*
X0171235Y0012349D01*
X0171195Y0012232D01*
X0171152Y0012117D01*
X0171104Y0012002D01*
X0171053Y0011890D01*
X0170999Y0011779D01*
X0170941Y0011669D01*
X0170880Y0011562D01*
X0170815Y0011456D01*
X0170747Y0011353D01*
X0170676Y0011252D01*
X0170602Y0011153D01*
X0170525Y0011056D01*
X0170444Y0010962D01*
X0170361Y0010871D01*
X0170275Y0010782D01*
X0170186Y0010696D01*
X0170095Y0010613D01*
X0170001Y0010532D01*
X0169904Y0010455D01*
X0169805Y0010381D01*
X0169704Y0010310D01*
X0169601Y0010242D01*
X0169495Y0010177D01*
X0169388Y0010116D01*
X0169278Y0010058D01*
X0169167Y0010004D01*
X0169055Y0009953D01*
X0168940Y0009905D01*
X0168825Y0009862D01*
X0168708Y0009822D01*
X0168589Y0009785D01*
X0168470Y0009753D01*
X0168350Y0009724D01*
X0168229Y0009699D01*
X0168107Y0009677D01*
X0167984Y0009660D01*
X0167862Y0009646D01*
X0167738Y0009637D01*
X0167615Y0009631D01*
X0167491Y0009629D01*
X0126152Y0009629D01*
X0126028Y0009631D01*
X0125905Y0009637D01*
X0125781Y0009646D01*
X0125659Y0009660D01*
X0125536Y0009677D01*
X0125414Y0009699D01*
X0125293Y0009724D01*
X0125173Y0009753D01*
X0125054Y0009785D01*
X0124935Y0009822D01*
X0124818Y0009862D01*
X0124703Y0009905D01*
X0124588Y0009953D01*
X0124476Y0010004D01*
X0124365Y0010058D01*
X0124255Y0010116D01*
X0124148Y0010177D01*
X0124042Y0010242D01*
X0123939Y0010310D01*
X0123838Y0010381D01*
X0123739Y0010455D01*
X0123642Y0010532D01*
X0123548Y0010613D01*
X0123457Y0010696D01*
X0123368Y0010782D01*
X0123282Y0010871D01*
X0123199Y0010962D01*
X0123118Y0011056D01*
X0123041Y0011153D01*
X0122967Y0011252D01*
X0122896Y0011353D01*
X0122828Y0011456D01*
X0122763Y0011562D01*
X0122702Y0011669D01*
X0122644Y0011779D01*
X0122590Y0011890D01*
X0122539Y0012002D01*
X0122491Y0012117D01*
X0122448Y0012232D01*
X0122408Y0012349D01*
X0122371Y0012468D01*
X0122339Y0012587D01*
X0122310Y0012707D01*
X0122285Y0012828D01*
X0122263Y0012950D01*
X0122246Y0013073D01*
X0122232Y0013195D01*
X0122223Y0013319D01*
X0122217Y0013442D01*
X0122215Y0013566D01*
X0122215Y0019472D01*
D16*
X0184777Y0012929D02*
X0184777Y0010429D01*
X0184779Y0010369D01*
X0184784Y0010308D01*
X0184793Y0010249D01*
X0184806Y0010190D01*
X0184822Y0010131D01*
X0184842Y0010074D01*
X0184865Y0010019D01*
X0184892Y0009964D01*
X0184921Y0009912D01*
X0184954Y0009861D01*
X0184990Y0009812D01*
X0185028Y0009766D01*
X0185070Y0009722D01*
X0185114Y0009680D01*
X0185160Y0009642D01*
X0185209Y0009606D01*
X0185260Y0009573D01*
X0185312Y0009544D01*
X0185367Y0009517D01*
X0185422Y0009494D01*
X0185479Y0009474D01*
X0185538Y0009458D01*
X0185597Y0009445D01*
X0185656Y0009436D01*
X0185717Y0009431D01*
X0185777Y0009429D01*
X0187277Y0009429D01*
X0187277Y0011929D01*
X0186527Y0011929D01*
X0184777Y0012929D02*
X0184779Y0012989D01*
X0184784Y0013050D01*
X0184793Y0013109D01*
X0184806Y0013168D01*
X0184822Y0013227D01*
X0184842Y0013284D01*
X0184865Y0013339D01*
X0184892Y0013394D01*
X0184921Y0013446D01*
X0184954Y0013497D01*
X0184990Y0013546D01*
X0185028Y0013592D01*
X0185070Y0013636D01*
X0185114Y0013678D01*
X0185160Y0013716D01*
X0185209Y0013752D01*
X0185260Y0013785D01*
X0185312Y0013814D01*
X0185367Y0013841D01*
X0185422Y0013864D01*
X0185479Y0013884D01*
X0185538Y0013900D01*
X0185597Y0013913D01*
X0185656Y0013922D01*
X0185717Y0013927D01*
X0185777Y0013929D01*
X0187277Y0013929D01*
X0189577Y0013929D02*
X0192077Y0009429D01*
X0192077Y0013929D01*
X0194377Y0013929D02*
X0195627Y0013929D01*
X0194377Y0013929D02*
X0194377Y0009429D01*
X0195627Y0009429D01*
X0195695Y0009431D01*
X0195762Y0009436D01*
X0195829Y0009445D01*
X0195896Y0009458D01*
X0195961Y0009475D01*
X0196026Y0009494D01*
X0196090Y0009518D01*
X0196152Y0009545D01*
X0196213Y0009575D01*
X0196271Y0009608D01*
X0196328Y0009644D01*
X0196383Y0009684D01*
X0196436Y0009726D01*
X0196487Y0009772D01*
X0196534Y0009819D01*
X0196580Y0009870D01*
X0196622Y0009923D01*
X0196662Y0009978D01*
X0196698Y0010035D01*
X0196731Y0010093D01*
X0196761Y0010154D01*
X0196788Y0010216D01*
X0196812Y0010280D01*
X0196831Y0010345D01*
X0196848Y0010410D01*
X0196861Y0010477D01*
X0196870Y0010544D01*
X0196875Y0010611D01*
X0196877Y0010679D01*
X0196877Y0012679D01*
X0196875Y0012747D01*
X0196870Y0012814D01*
X0196861Y0012881D01*
X0196848Y0012948D01*
X0196831Y0013013D01*
X0196812Y0013078D01*
X0196788Y0013142D01*
X0196761Y0013204D01*
X0196731Y0013265D01*
X0196698Y0013323D01*
X0196662Y0013380D01*
X0196622Y0013435D01*
X0196580Y0013488D01*
X0196534Y0013539D01*
X0196487Y0013586D01*
X0196436Y0013632D01*
X0196383Y0013674D01*
X0196328Y0013714D01*
X0196271Y0013750D01*
X0196213Y0013783D01*
X0196152Y0013813D01*
X0196090Y0013840D01*
X0196026Y0013864D01*
X0195961Y0013883D01*
X0195896Y0013900D01*
X0195829Y0013913D01*
X0195762Y0013922D01*
X0195695Y0013927D01*
X0195627Y0013929D01*
X0201152Y0011929D02*
X0201198Y0011975D01*
X0201242Y0012024D01*
X0201282Y0012075D01*
X0201320Y0012128D01*
X0201355Y0012183D01*
X0201387Y0012240D01*
X0201416Y0012298D01*
X0201442Y0012358D01*
X0201464Y0012420D01*
X0201483Y0012482D01*
X0201499Y0012545D01*
X0201511Y0012609D01*
X0201520Y0012674D01*
X0201525Y0012739D01*
X0201527Y0012804D01*
X0201152Y0011929D02*
X0199027Y0009429D01*
X0201527Y0009429D01*
X0199027Y0012929D02*
X0199051Y0012998D01*
X0199079Y0013065D01*
X0199110Y0013131D01*
X0199144Y0013195D01*
X0199181Y0013257D01*
X0199222Y0013318D01*
X0199265Y0013376D01*
X0199311Y0013432D01*
X0199361Y0013486D01*
X0199412Y0013537D01*
X0199466Y0013585D01*
X0199523Y0013631D01*
X0199582Y0013674D01*
X0199643Y0013713D01*
X0199705Y0013750D01*
X0199770Y0013783D01*
X0199836Y0013814D01*
X0199904Y0013840D01*
X0199972Y0013864D01*
X0200042Y0013884D01*
X0200113Y0013900D01*
X0200185Y0013913D01*
X0200257Y0013922D01*
X0200329Y0013927D01*
X0200402Y0013929D01*
X0200467Y0013927D01*
X0200533Y0013921D01*
X0200597Y0013912D01*
X0200661Y0013899D01*
X0200725Y0013882D01*
X0200787Y0013861D01*
X0200848Y0013837D01*
X0200907Y0013809D01*
X0200965Y0013778D01*
X0201020Y0013744D01*
X0201074Y0013706D01*
X0201125Y0013666D01*
X0201174Y0013622D01*
X0201220Y0013576D01*
X0201264Y0013527D01*
X0201304Y0013476D01*
X0201342Y0013422D01*
X0201376Y0013367D01*
X0201407Y0013309D01*
X0201435Y0013250D01*
X0201459Y0013189D01*
X0201480Y0013127D01*
X0201497Y0013063D01*
X0201510Y0012999D01*
X0201519Y0012935D01*
X0201525Y0012869D01*
X0201527Y0012804D01*
X0189577Y0013929D02*
X0189577Y0009429D01*
X0042168Y0010548D02*
X0042168Y0012548D01*
X0042166Y0012616D01*
X0042161Y0012683D01*
X0042152Y0012750D01*
X0042139Y0012817D01*
X0042122Y0012882D01*
X0042103Y0012947D01*
X0042079Y0013011D01*
X0042052Y0013073D01*
X0042022Y0013134D01*
X0041989Y0013192D01*
X0041953Y0013249D01*
X0041913Y0013304D01*
X0041871Y0013357D01*
X0041825Y0013408D01*
X0041778Y0013455D01*
X0041727Y0013501D01*
X0041674Y0013543D01*
X0041619Y0013583D01*
X0041562Y0013619D01*
X0041504Y0013652D01*
X0041443Y0013682D01*
X0041381Y0013709D01*
X0041317Y0013733D01*
X0041252Y0013752D01*
X0041187Y0013769D01*
X0041120Y0013782D01*
X0041053Y0013791D01*
X0040986Y0013796D01*
X0040918Y0013798D01*
X0039668Y0013798D01*
X0039668Y0009298D01*
X0040918Y0009298D01*
X0040986Y0009300D01*
X0041053Y0009305D01*
X0041120Y0009314D01*
X0041187Y0009327D01*
X0041252Y0009344D01*
X0041317Y0009363D01*
X0041381Y0009387D01*
X0041443Y0009414D01*
X0041504Y0009444D01*
X0041562Y0009477D01*
X0041619Y0009513D01*
X0041674Y0009553D01*
X0041727Y0009595D01*
X0041778Y0009641D01*
X0041825Y0009688D01*
X0041871Y0009739D01*
X0041913Y0009792D01*
X0041953Y0009847D01*
X0041989Y0009904D01*
X0042022Y0009962D01*
X0042052Y0010023D01*
X0042079Y0010085D01*
X0042103Y0010149D01*
X0042122Y0010214D01*
X0042139Y0010279D01*
X0042152Y0010346D01*
X0042161Y0010413D01*
X0042166Y0010480D01*
X0042168Y0010548D01*
X0037368Y0009298D02*
X0037368Y0013798D01*
X0034868Y0013798D02*
X0037368Y0009298D01*
X0034868Y0009298D02*
X0034868Y0013798D01*
X0032568Y0013798D02*
X0031068Y0013798D01*
X0031008Y0013796D01*
X0030947Y0013791D01*
X0030888Y0013782D01*
X0030829Y0013769D01*
X0030770Y0013753D01*
X0030713Y0013733D01*
X0030658Y0013710D01*
X0030603Y0013683D01*
X0030551Y0013654D01*
X0030500Y0013621D01*
X0030451Y0013585D01*
X0030405Y0013547D01*
X0030361Y0013505D01*
X0030319Y0013461D01*
X0030281Y0013415D01*
X0030245Y0013366D01*
X0030212Y0013315D01*
X0030183Y0013263D01*
X0030156Y0013208D01*
X0030133Y0013153D01*
X0030113Y0013096D01*
X0030097Y0013037D01*
X0030084Y0012978D01*
X0030075Y0012919D01*
X0030070Y0012858D01*
X0030068Y0012798D01*
X0030068Y0010298D01*
X0030070Y0010238D01*
X0030075Y0010177D01*
X0030084Y0010118D01*
X0030097Y0010059D01*
X0030113Y0010000D01*
X0030133Y0009943D01*
X0030156Y0009888D01*
X0030183Y0009833D01*
X0030212Y0009781D01*
X0030245Y0009730D01*
X0030281Y0009681D01*
X0030319Y0009635D01*
X0030361Y0009591D01*
X0030405Y0009549D01*
X0030451Y0009511D01*
X0030500Y0009475D01*
X0030551Y0009442D01*
X0030603Y0009413D01*
X0030658Y0009386D01*
X0030713Y0009363D01*
X0030770Y0009343D01*
X0030829Y0009327D01*
X0030888Y0009314D01*
X0030947Y0009305D01*
X0031008Y0009300D01*
X0031068Y0009298D01*
X0032568Y0009298D01*
X0032568Y0011798D01*
X0031818Y0011798D01*
X0155834Y0076714D02*
X0155834Y0077964D01*
X0155836Y0078033D01*
X0155842Y0078102D01*
X0155851Y0078170D01*
X0155864Y0078237D01*
X0155881Y0078304D01*
X0155902Y0078370D01*
X0155926Y0078434D01*
X0155954Y0078497D01*
X0155985Y0078559D01*
X0156019Y0078619D01*
X0156057Y0078676D01*
X0156098Y0078732D01*
X0156141Y0078785D01*
X0156188Y0078836D01*
X0156237Y0078884D01*
X0156289Y0078929D01*
X0156344Y0078971D01*
X0156400Y0079010D01*
X0156459Y0079047D01*
X0156520Y0079079D01*
X0156582Y0079109D01*
X0156646Y0079135D01*
X0156711Y0079157D01*
X0156777Y0079176D01*
X0156844Y0079191D01*
X0156912Y0079202D01*
X0156981Y0079210D01*
X0157050Y0079214D01*
X0157118Y0079214D01*
X0157187Y0079210D01*
X0157256Y0079202D01*
X0157324Y0079191D01*
X0157391Y0079176D01*
X0157457Y0079157D01*
X0157522Y0079135D01*
X0157586Y0079109D01*
X0157648Y0079079D01*
X0157709Y0079047D01*
X0157768Y0079010D01*
X0157824Y0078971D01*
X0157879Y0078929D01*
X0157931Y0078884D01*
X0157980Y0078836D01*
X0158027Y0078785D01*
X0158070Y0078732D01*
X0158111Y0078676D01*
X0158149Y0078619D01*
X0158183Y0078559D01*
X0158214Y0078497D01*
X0158242Y0078434D01*
X0158266Y0078370D01*
X0158287Y0078304D01*
X0158304Y0078237D01*
X0158317Y0078170D01*
X0158326Y0078102D01*
X0158332Y0078033D01*
X0158334Y0077964D01*
X0158334Y0076714D01*
X0160334Y0076714D02*
X0155834Y0076714D01*
X0158334Y0078214D02*
X0160334Y0079214D01*
X0160334Y0081182D02*
X0160334Y0083682D01*
X0160334Y0082432D02*
X0155834Y0082432D01*
X0156834Y0081182D01*
X0181912Y0086808D02*
X0183412Y0082308D01*
X0184912Y0086808D01*
X0190262Y0085558D02*
X0190262Y0083558D01*
X0190264Y0083489D01*
X0190270Y0083420D01*
X0190279Y0083352D01*
X0190292Y0083285D01*
X0190309Y0083218D01*
X0190330Y0083152D01*
X0190354Y0083088D01*
X0190382Y0083025D01*
X0190413Y0082963D01*
X0190447Y0082903D01*
X0190485Y0082846D01*
X0190526Y0082790D01*
X0190569Y0082737D01*
X0190616Y0082686D01*
X0190665Y0082638D01*
X0190717Y0082593D01*
X0190772Y0082551D01*
X0190828Y0082512D01*
X0190887Y0082475D01*
X0190948Y0082443D01*
X0191010Y0082413D01*
X0191074Y0082387D01*
X0191139Y0082365D01*
X0191205Y0082346D01*
X0191272Y0082331D01*
X0191340Y0082320D01*
X0191409Y0082312D01*
X0191478Y0082308D01*
X0191546Y0082308D01*
X0191615Y0082312D01*
X0191684Y0082320D01*
X0191752Y0082331D01*
X0191819Y0082346D01*
X0191885Y0082365D01*
X0191950Y0082387D01*
X0192014Y0082413D01*
X0192076Y0082443D01*
X0192137Y0082475D01*
X0192196Y0082512D01*
X0192252Y0082551D01*
X0192307Y0082593D01*
X0192359Y0082638D01*
X0192408Y0082686D01*
X0192455Y0082737D01*
X0192498Y0082790D01*
X0192539Y0082846D01*
X0192577Y0082903D01*
X0192611Y0082963D01*
X0192642Y0083025D01*
X0192670Y0083088D01*
X0192694Y0083152D01*
X0192715Y0083218D01*
X0192732Y0083285D01*
X0192745Y0083352D01*
X0192754Y0083420D01*
X0192760Y0083489D01*
X0192762Y0083558D01*
X0192762Y0085558D01*
X0192760Y0085627D01*
X0192754Y0085696D01*
X0192745Y0085764D01*
X0192732Y0085831D01*
X0192715Y0085898D01*
X0192694Y0085964D01*
X0192670Y0086028D01*
X0192642Y0086091D01*
X0192611Y0086153D01*
X0192577Y0086213D01*
X0192539Y0086270D01*
X0192498Y0086326D01*
X0192455Y0086379D01*
X0192408Y0086430D01*
X0192359Y0086478D01*
X0192307Y0086523D01*
X0192252Y0086565D01*
X0192196Y0086604D01*
X0192137Y0086641D01*
X0192076Y0086673D01*
X0192014Y0086703D01*
X0191950Y0086729D01*
X0191885Y0086751D01*
X0191819Y0086770D01*
X0191752Y0086785D01*
X0191684Y0086796D01*
X0191615Y0086804D01*
X0191546Y0086808D01*
X0191478Y0086808D01*
X0191409Y0086804D01*
X0191340Y0086796D01*
X0191272Y0086785D01*
X0191205Y0086770D01*
X0191139Y0086751D01*
X0191074Y0086729D01*
X0191010Y0086703D01*
X0190948Y0086673D01*
X0190887Y0086641D01*
X0190828Y0086604D01*
X0190772Y0086565D01*
X0190717Y0086523D01*
X0190665Y0086478D01*
X0190616Y0086430D01*
X0190569Y0086379D01*
X0190526Y0086326D01*
X0190485Y0086270D01*
X0190447Y0086213D01*
X0190413Y0086153D01*
X0190382Y0086091D01*
X0190354Y0086028D01*
X0190330Y0085964D01*
X0190309Y0085898D01*
X0190292Y0085831D01*
X0190279Y0085764D01*
X0190270Y0085696D01*
X0190264Y0085627D01*
X0190262Y0085558D01*
X0194912Y0086808D02*
X0194912Y0083558D01*
X0194914Y0083489D01*
X0194920Y0083420D01*
X0194929Y0083352D01*
X0194942Y0083285D01*
X0194959Y0083218D01*
X0194980Y0083152D01*
X0195004Y0083088D01*
X0195032Y0083025D01*
X0195063Y0082963D01*
X0195097Y0082903D01*
X0195135Y0082846D01*
X0195176Y0082790D01*
X0195219Y0082737D01*
X0195266Y0082686D01*
X0195315Y0082638D01*
X0195367Y0082593D01*
X0195422Y0082551D01*
X0195478Y0082512D01*
X0195537Y0082475D01*
X0195598Y0082443D01*
X0195660Y0082413D01*
X0195724Y0082387D01*
X0195789Y0082365D01*
X0195855Y0082346D01*
X0195922Y0082331D01*
X0195990Y0082320D01*
X0196059Y0082312D01*
X0196128Y0082308D01*
X0196196Y0082308D01*
X0196265Y0082312D01*
X0196334Y0082320D01*
X0196402Y0082331D01*
X0196469Y0082346D01*
X0196535Y0082365D01*
X0196600Y0082387D01*
X0196664Y0082413D01*
X0196726Y0082443D01*
X0196787Y0082475D01*
X0196846Y0082512D01*
X0196902Y0082551D01*
X0196957Y0082593D01*
X0197009Y0082638D01*
X0197058Y0082686D01*
X0197105Y0082737D01*
X0197148Y0082790D01*
X0197189Y0082846D01*
X0197227Y0082903D01*
X0197261Y0082963D01*
X0197292Y0083025D01*
X0197320Y0083088D01*
X0197344Y0083152D01*
X0197365Y0083218D01*
X0197382Y0083285D01*
X0197395Y0083352D01*
X0197404Y0083420D01*
X0197410Y0083489D01*
X0197412Y0083558D01*
X0197412Y0086808D01*
X0199262Y0086808D02*
X0201762Y0086808D01*
X0200512Y0086808D02*
X0200512Y0082308D01*
X0188462Y0081808D02*
X0186462Y0081808D01*
X0036891Y0082195D02*
X0036891Y0086695D01*
X0034391Y0086695D02*
X0036891Y0082195D01*
X0034391Y0082195D02*
X0034391Y0086695D01*
X0032391Y0086695D02*
X0031391Y0086695D01*
X0031891Y0086695D02*
X0031891Y0082195D01*
X0031391Y0082195D02*
X0032391Y0082195D01*
X0029741Y0081695D02*
X0027741Y0081695D01*
X0024691Y0082195D02*
X0026191Y0086695D01*
X0023191Y0086695D02*
X0024691Y0082195D01*
M02*
