G75*
%MOIN*%
%OFA0B0*%
%FSLAX25Y25*%
%IPPOS*%
%LPD*%
%AMOC8*
5,1,8,0,0,1.08239X$1,22.5*
%
%ADD10C,0.00700*%
%ADD11C,0.00600*%
D10*
X0109095Y0019195D02*
X0109095Y0024445D01*
X0110845Y0024445D01*
X0110908Y0024443D01*
X0110972Y0024437D01*
X0111034Y0024428D01*
X0111096Y0024414D01*
X0111157Y0024397D01*
X0111217Y0024377D01*
X0111276Y0024352D01*
X0111333Y0024325D01*
X0111388Y0024294D01*
X0111441Y0024259D01*
X0111493Y0024222D01*
X0111541Y0024181D01*
X0111587Y0024137D01*
X0111631Y0024091D01*
X0111672Y0024043D01*
X0111709Y0023991D01*
X0111744Y0023938D01*
X0111775Y0023883D01*
X0111802Y0023826D01*
X0111827Y0023767D01*
X0111847Y0023707D01*
X0111864Y0023646D01*
X0111878Y0023584D01*
X0111887Y0023522D01*
X0111893Y0023458D01*
X0111895Y0023395D01*
X0111895Y0021295D01*
X0111893Y0021232D01*
X0111887Y0021168D01*
X0111878Y0021106D01*
X0111864Y0021044D01*
X0111847Y0020983D01*
X0111827Y0020923D01*
X0111802Y0020864D01*
X0111775Y0020807D01*
X0111744Y0020752D01*
X0111709Y0020699D01*
X0111672Y0020647D01*
X0111631Y0020599D01*
X0111587Y0020553D01*
X0111541Y0020509D01*
X0111493Y0020468D01*
X0111441Y0020431D01*
X0111388Y0020396D01*
X0111333Y0020365D01*
X0111276Y0020338D01*
X0111217Y0020313D01*
X0111157Y0020293D01*
X0111096Y0020276D01*
X0111034Y0020262D01*
X0110972Y0020253D01*
X0110908Y0020247D01*
X0110845Y0020245D01*
X0109095Y0020245D01*
X0109095Y0019195D02*
X0109097Y0019132D01*
X0109103Y0019068D01*
X0109112Y0019006D01*
X0109126Y0018944D01*
X0109143Y0018883D01*
X0109163Y0018823D01*
X0109188Y0018764D01*
X0109215Y0018707D01*
X0109246Y0018652D01*
X0109281Y0018599D01*
X0109318Y0018547D01*
X0109359Y0018499D01*
X0109403Y0018453D01*
X0109449Y0018409D01*
X0109497Y0018368D01*
X0109549Y0018331D01*
X0109602Y0018296D01*
X0109657Y0018265D01*
X0109714Y0018238D01*
X0109773Y0018213D01*
X0109833Y0018193D01*
X0109894Y0018176D01*
X0109956Y0018162D01*
X0110018Y0018153D01*
X0110082Y0018147D01*
X0110145Y0018145D01*
X0111545Y0018145D01*
X0115929Y0020245D02*
X0115929Y0024445D01*
X0113829Y0024445D01*
X0113829Y0023745D01*
X0118704Y0023045D02*
X0118704Y0021645D01*
X0118706Y0021572D01*
X0118712Y0021499D01*
X0118721Y0021426D01*
X0118735Y0021354D01*
X0118752Y0021283D01*
X0118773Y0021212D01*
X0118797Y0021143D01*
X0118825Y0021076D01*
X0118857Y0021009D01*
X0118892Y0020945D01*
X0118930Y0020883D01*
X0118971Y0020822D01*
X0119016Y0020764D01*
X0119064Y0020708D01*
X0119114Y0020655D01*
X0119167Y0020605D01*
X0119223Y0020557D01*
X0119281Y0020512D01*
X0119342Y0020471D01*
X0119404Y0020433D01*
X0119468Y0020398D01*
X0119535Y0020366D01*
X0119602Y0020338D01*
X0119671Y0020314D01*
X0119742Y0020293D01*
X0119813Y0020276D01*
X0119885Y0020262D01*
X0119958Y0020253D01*
X0120031Y0020247D01*
X0120104Y0020245D01*
X0120177Y0020247D01*
X0120250Y0020253D01*
X0120323Y0020262D01*
X0120395Y0020276D01*
X0120466Y0020293D01*
X0120537Y0020314D01*
X0120606Y0020338D01*
X0120673Y0020366D01*
X0120740Y0020398D01*
X0120804Y0020433D01*
X0120866Y0020471D01*
X0120927Y0020512D01*
X0120985Y0020557D01*
X0121041Y0020605D01*
X0121094Y0020655D01*
X0121144Y0020708D01*
X0121192Y0020764D01*
X0121237Y0020822D01*
X0121278Y0020883D01*
X0121316Y0020945D01*
X0121351Y0021009D01*
X0121383Y0021076D01*
X0121411Y0021143D01*
X0121435Y0021212D01*
X0121456Y0021283D01*
X0121473Y0021354D01*
X0121487Y0021426D01*
X0121496Y0021499D01*
X0121502Y0021572D01*
X0121504Y0021645D01*
X0121504Y0023045D01*
X0121502Y0023118D01*
X0121496Y0023191D01*
X0121487Y0023264D01*
X0121473Y0023336D01*
X0121456Y0023407D01*
X0121435Y0023478D01*
X0121411Y0023547D01*
X0121383Y0023614D01*
X0121351Y0023681D01*
X0121316Y0023745D01*
X0121278Y0023807D01*
X0121237Y0023868D01*
X0121192Y0023926D01*
X0121144Y0023982D01*
X0121094Y0024035D01*
X0121041Y0024085D01*
X0120985Y0024133D01*
X0120927Y0024178D01*
X0120866Y0024219D01*
X0120804Y0024257D01*
X0120740Y0024292D01*
X0120673Y0024324D01*
X0120606Y0024352D01*
X0120537Y0024376D01*
X0120466Y0024397D01*
X0120395Y0024414D01*
X0120323Y0024428D01*
X0120250Y0024437D01*
X0120177Y0024443D01*
X0120104Y0024445D01*
X0120031Y0024443D01*
X0119958Y0024437D01*
X0119885Y0024428D01*
X0119813Y0024414D01*
X0119742Y0024397D01*
X0119671Y0024376D01*
X0119602Y0024352D01*
X0119535Y0024324D01*
X0119468Y0024292D01*
X0119404Y0024257D01*
X0119342Y0024219D01*
X0119281Y0024178D01*
X0119223Y0024133D01*
X0119167Y0024085D01*
X0119114Y0024035D01*
X0119064Y0023982D01*
X0119016Y0023926D01*
X0118971Y0023868D01*
X0118930Y0023807D01*
X0118892Y0023745D01*
X0118857Y0023681D01*
X0118825Y0023614D01*
X0118797Y0023547D01*
X0118773Y0023478D01*
X0118752Y0023407D01*
X0118735Y0023336D01*
X0118721Y0023264D01*
X0118712Y0023191D01*
X0118706Y0023118D01*
X0118704Y0023045D01*
X0123827Y0020595D02*
X0123827Y0020245D01*
X0124177Y0020245D01*
X0124177Y0020595D01*
X0123827Y0020595D01*
X0128032Y0020245D02*
X0128032Y0024445D01*
X0125932Y0024445D01*
X0125932Y0023745D01*
X0130807Y0023045D02*
X0130807Y0021645D01*
X0130809Y0021572D01*
X0130815Y0021499D01*
X0130824Y0021426D01*
X0130838Y0021354D01*
X0130855Y0021283D01*
X0130876Y0021212D01*
X0130900Y0021143D01*
X0130928Y0021076D01*
X0130960Y0021009D01*
X0130995Y0020945D01*
X0131033Y0020883D01*
X0131074Y0020822D01*
X0131119Y0020764D01*
X0131167Y0020708D01*
X0131217Y0020655D01*
X0131270Y0020605D01*
X0131326Y0020557D01*
X0131384Y0020512D01*
X0131445Y0020471D01*
X0131507Y0020433D01*
X0131571Y0020398D01*
X0131638Y0020366D01*
X0131705Y0020338D01*
X0131774Y0020314D01*
X0131845Y0020293D01*
X0131916Y0020276D01*
X0131988Y0020262D01*
X0132061Y0020253D01*
X0132134Y0020247D01*
X0132207Y0020245D01*
X0132280Y0020247D01*
X0132353Y0020253D01*
X0132426Y0020262D01*
X0132498Y0020276D01*
X0132569Y0020293D01*
X0132640Y0020314D01*
X0132709Y0020338D01*
X0132776Y0020366D01*
X0132843Y0020398D01*
X0132907Y0020433D01*
X0132969Y0020471D01*
X0133030Y0020512D01*
X0133088Y0020557D01*
X0133144Y0020605D01*
X0133197Y0020655D01*
X0133247Y0020708D01*
X0133295Y0020764D01*
X0133340Y0020822D01*
X0133381Y0020883D01*
X0133419Y0020945D01*
X0133454Y0021009D01*
X0133486Y0021076D01*
X0133514Y0021143D01*
X0133538Y0021212D01*
X0133559Y0021283D01*
X0133576Y0021354D01*
X0133590Y0021426D01*
X0133599Y0021499D01*
X0133605Y0021572D01*
X0133607Y0021645D01*
X0133607Y0023045D01*
X0133605Y0023118D01*
X0133599Y0023191D01*
X0133590Y0023264D01*
X0133576Y0023336D01*
X0133559Y0023407D01*
X0133538Y0023478D01*
X0133514Y0023547D01*
X0133486Y0023614D01*
X0133454Y0023681D01*
X0133419Y0023745D01*
X0133381Y0023807D01*
X0133340Y0023868D01*
X0133295Y0023926D01*
X0133247Y0023982D01*
X0133197Y0024035D01*
X0133144Y0024085D01*
X0133088Y0024133D01*
X0133030Y0024178D01*
X0132969Y0024219D01*
X0132907Y0024257D01*
X0132843Y0024292D01*
X0132776Y0024324D01*
X0132709Y0024352D01*
X0132640Y0024376D01*
X0132569Y0024397D01*
X0132498Y0024414D01*
X0132426Y0024428D01*
X0132353Y0024437D01*
X0132280Y0024443D01*
X0132207Y0024445D01*
X0132134Y0024443D01*
X0132061Y0024437D01*
X0131988Y0024428D01*
X0131916Y0024414D01*
X0131845Y0024397D01*
X0131774Y0024376D01*
X0131705Y0024352D01*
X0131638Y0024324D01*
X0131571Y0024292D01*
X0131507Y0024257D01*
X0131445Y0024219D01*
X0131384Y0024178D01*
X0131326Y0024133D01*
X0131270Y0024085D01*
X0131217Y0024035D01*
X0131167Y0023982D01*
X0131119Y0023926D01*
X0131074Y0023868D01*
X0131033Y0023807D01*
X0130995Y0023745D01*
X0130960Y0023681D01*
X0130928Y0023614D01*
X0130900Y0023547D01*
X0130876Y0023478D01*
X0130855Y0023407D01*
X0130838Y0023336D01*
X0130824Y0023264D01*
X0130815Y0023191D01*
X0130809Y0023118D01*
X0130807Y0023045D01*
X0135926Y0024445D02*
X0138026Y0024445D01*
X0140002Y0024445D02*
X0140002Y0020245D01*
X0142705Y0020245D02*
X0142705Y0023395D01*
X0142707Y0023458D01*
X0142713Y0023522D01*
X0142722Y0023584D01*
X0142736Y0023646D01*
X0142753Y0023707D01*
X0142773Y0023767D01*
X0142798Y0023826D01*
X0142825Y0023883D01*
X0142856Y0023938D01*
X0142891Y0023991D01*
X0142928Y0024043D01*
X0142969Y0024091D01*
X0143013Y0024137D01*
X0143059Y0024181D01*
X0143107Y0024222D01*
X0143159Y0024259D01*
X0143212Y0024294D01*
X0143267Y0024325D01*
X0143324Y0024352D01*
X0143383Y0024377D01*
X0143443Y0024397D01*
X0143504Y0024414D01*
X0143566Y0024428D01*
X0143628Y0024437D01*
X0143692Y0024443D01*
X0143755Y0024445D01*
X0145505Y0024445D01*
X0145505Y0020245D01*
X0148244Y0021645D02*
X0148244Y0023045D01*
X0148246Y0023118D01*
X0148252Y0023191D01*
X0148261Y0023264D01*
X0148275Y0023336D01*
X0148292Y0023407D01*
X0148313Y0023478D01*
X0148337Y0023547D01*
X0148365Y0023614D01*
X0148397Y0023681D01*
X0148432Y0023745D01*
X0148470Y0023807D01*
X0148511Y0023868D01*
X0148556Y0023926D01*
X0148604Y0023982D01*
X0148654Y0024035D01*
X0148707Y0024085D01*
X0148763Y0024133D01*
X0148821Y0024178D01*
X0148882Y0024219D01*
X0148944Y0024257D01*
X0149008Y0024292D01*
X0149075Y0024324D01*
X0149142Y0024352D01*
X0149211Y0024376D01*
X0149282Y0024397D01*
X0149353Y0024414D01*
X0149425Y0024428D01*
X0149498Y0024437D01*
X0149571Y0024443D01*
X0149644Y0024445D01*
X0149717Y0024443D01*
X0149790Y0024437D01*
X0149863Y0024428D01*
X0149935Y0024414D01*
X0150006Y0024397D01*
X0150077Y0024376D01*
X0150146Y0024352D01*
X0150213Y0024324D01*
X0150280Y0024292D01*
X0150344Y0024257D01*
X0150406Y0024219D01*
X0150467Y0024178D01*
X0150525Y0024133D01*
X0150581Y0024085D01*
X0150634Y0024035D01*
X0150684Y0023982D01*
X0150732Y0023926D01*
X0150777Y0023868D01*
X0150818Y0023807D01*
X0150856Y0023745D01*
X0150891Y0023681D01*
X0150923Y0023614D01*
X0150951Y0023547D01*
X0150975Y0023478D01*
X0150996Y0023407D01*
X0151013Y0023336D01*
X0151027Y0023264D01*
X0151036Y0023191D01*
X0151042Y0023118D01*
X0151044Y0023045D01*
X0151044Y0021645D01*
X0151042Y0021572D01*
X0151036Y0021499D01*
X0151027Y0021426D01*
X0151013Y0021354D01*
X0150996Y0021283D01*
X0150975Y0021212D01*
X0150951Y0021143D01*
X0150923Y0021076D01*
X0150891Y0021009D01*
X0150856Y0020945D01*
X0150818Y0020883D01*
X0150777Y0020822D01*
X0150732Y0020764D01*
X0150684Y0020708D01*
X0150634Y0020655D01*
X0150581Y0020605D01*
X0150525Y0020557D01*
X0150467Y0020512D01*
X0150406Y0020471D01*
X0150344Y0020433D01*
X0150280Y0020398D01*
X0150213Y0020366D01*
X0150146Y0020338D01*
X0150077Y0020314D01*
X0150006Y0020293D01*
X0149935Y0020276D01*
X0149863Y0020262D01*
X0149790Y0020253D01*
X0149717Y0020247D01*
X0149644Y0020245D01*
X0149571Y0020247D01*
X0149498Y0020253D01*
X0149425Y0020262D01*
X0149353Y0020276D01*
X0149282Y0020293D01*
X0149211Y0020314D01*
X0149142Y0020338D01*
X0149075Y0020366D01*
X0149008Y0020398D01*
X0148944Y0020433D01*
X0148882Y0020471D01*
X0148821Y0020512D01*
X0148763Y0020557D01*
X0148707Y0020605D01*
X0148654Y0020655D01*
X0148604Y0020708D01*
X0148556Y0020764D01*
X0148511Y0020822D01*
X0148470Y0020883D01*
X0148432Y0020945D01*
X0148397Y0021009D01*
X0148365Y0021076D01*
X0148337Y0021143D01*
X0148313Y0021212D01*
X0148292Y0021283D01*
X0148275Y0021354D01*
X0148261Y0021426D01*
X0148252Y0021499D01*
X0148246Y0021572D01*
X0148244Y0021645D01*
X0153903Y0020245D02*
X0153903Y0026545D01*
X0156003Y0023045D01*
X0158103Y0026545D01*
X0158103Y0020245D01*
X0162157Y0020245D02*
X0163557Y0024445D01*
X0166122Y0024445D02*
X0166122Y0019195D01*
X0166124Y0019132D01*
X0166130Y0019068D01*
X0166139Y0019006D01*
X0166153Y0018944D01*
X0166170Y0018883D01*
X0166190Y0018823D01*
X0166215Y0018764D01*
X0166242Y0018707D01*
X0166273Y0018652D01*
X0166308Y0018599D01*
X0166345Y0018547D01*
X0166386Y0018499D01*
X0166430Y0018453D01*
X0166476Y0018409D01*
X0166524Y0018368D01*
X0166576Y0018331D01*
X0166629Y0018296D01*
X0166684Y0018265D01*
X0166741Y0018238D01*
X0166800Y0018213D01*
X0166860Y0018193D01*
X0166921Y0018176D01*
X0166983Y0018162D01*
X0167045Y0018153D01*
X0167109Y0018147D01*
X0167172Y0018145D01*
X0168572Y0018145D01*
X0167872Y0020245D02*
X0166122Y0020245D01*
X0167872Y0020245D02*
X0167935Y0020247D01*
X0167999Y0020253D01*
X0168061Y0020262D01*
X0168123Y0020276D01*
X0168184Y0020293D01*
X0168244Y0020313D01*
X0168303Y0020338D01*
X0168360Y0020365D01*
X0168415Y0020396D01*
X0168468Y0020431D01*
X0168520Y0020468D01*
X0168568Y0020509D01*
X0168614Y0020553D01*
X0168658Y0020599D01*
X0168699Y0020647D01*
X0168736Y0020699D01*
X0168771Y0020752D01*
X0168802Y0020807D01*
X0168829Y0020864D01*
X0168854Y0020923D01*
X0168874Y0020983D01*
X0168891Y0021044D01*
X0168905Y0021106D01*
X0168914Y0021168D01*
X0168920Y0021232D01*
X0168922Y0021295D01*
X0168922Y0023395D01*
X0168920Y0023458D01*
X0168914Y0023522D01*
X0168905Y0023584D01*
X0168891Y0023646D01*
X0168874Y0023707D01*
X0168854Y0023767D01*
X0168829Y0023826D01*
X0168802Y0023883D01*
X0168771Y0023938D01*
X0168736Y0023991D01*
X0168699Y0024043D01*
X0168658Y0024091D01*
X0168614Y0024137D01*
X0168568Y0024181D01*
X0168520Y0024222D01*
X0168468Y0024259D01*
X0168415Y0024294D01*
X0168360Y0024325D01*
X0168303Y0024352D01*
X0168244Y0024377D01*
X0168184Y0024397D01*
X0168123Y0024414D01*
X0168061Y0024428D01*
X0167999Y0024437D01*
X0167935Y0024443D01*
X0167872Y0024445D01*
X0166122Y0024445D01*
X0160757Y0024445D02*
X0162857Y0018145D01*
X0163557Y0018145D01*
X0172956Y0020245D02*
X0172956Y0024445D01*
X0170856Y0024445D01*
X0170856Y0023745D01*
X0175731Y0023045D02*
X0175731Y0022345D01*
X0178531Y0022345D01*
X0178531Y0023045D02*
X0178531Y0021295D01*
X0178529Y0021232D01*
X0178523Y0021168D01*
X0178514Y0021106D01*
X0178500Y0021044D01*
X0178483Y0020983D01*
X0178463Y0020923D01*
X0178438Y0020864D01*
X0178411Y0020807D01*
X0178380Y0020752D01*
X0178345Y0020699D01*
X0178308Y0020647D01*
X0178267Y0020599D01*
X0178223Y0020553D01*
X0178177Y0020509D01*
X0178129Y0020468D01*
X0178077Y0020431D01*
X0178024Y0020396D01*
X0177969Y0020365D01*
X0177912Y0020338D01*
X0177853Y0020313D01*
X0177793Y0020293D01*
X0177732Y0020276D01*
X0177670Y0020262D01*
X0177608Y0020253D01*
X0177544Y0020247D01*
X0177481Y0020245D01*
X0175731Y0020245D01*
X0181270Y0020245D02*
X0181270Y0023395D01*
X0181272Y0023458D01*
X0181278Y0023522D01*
X0181287Y0023584D01*
X0181301Y0023646D01*
X0181318Y0023707D01*
X0181338Y0023767D01*
X0181363Y0023826D01*
X0181390Y0023883D01*
X0181421Y0023938D01*
X0181456Y0023991D01*
X0181493Y0024043D01*
X0181534Y0024091D01*
X0181578Y0024137D01*
X0181624Y0024181D01*
X0181672Y0024222D01*
X0181724Y0024259D01*
X0181777Y0024294D01*
X0181832Y0024325D01*
X0181889Y0024352D01*
X0181948Y0024377D01*
X0182008Y0024397D01*
X0182069Y0024414D01*
X0182131Y0024428D01*
X0182193Y0024437D01*
X0182257Y0024443D01*
X0182320Y0024445D01*
X0184070Y0024445D01*
X0184070Y0020245D01*
X0186530Y0020245D02*
X0189330Y0020245D01*
X0189330Y0026545D01*
X0186530Y0026545D01*
X0193397Y0024445D02*
X0195147Y0024445D01*
X0195147Y0020245D01*
X0192347Y0020245D02*
X0192347Y0023395D01*
X0192349Y0023458D01*
X0192355Y0023522D01*
X0192364Y0023584D01*
X0192378Y0023646D01*
X0192395Y0023707D01*
X0192415Y0023767D01*
X0192440Y0023826D01*
X0192467Y0023883D01*
X0192498Y0023938D01*
X0192533Y0023991D01*
X0192570Y0024043D01*
X0192611Y0024091D01*
X0192655Y0024137D01*
X0192701Y0024181D01*
X0192749Y0024222D01*
X0192801Y0024259D01*
X0192854Y0024294D01*
X0192909Y0024325D01*
X0192966Y0024352D01*
X0193025Y0024377D01*
X0193085Y0024397D01*
X0193146Y0024414D01*
X0193208Y0024428D01*
X0193270Y0024437D01*
X0193334Y0024443D01*
X0193397Y0024445D01*
X0189330Y0023745D02*
X0187230Y0023745D01*
X0178531Y0023045D02*
X0178529Y0023118D01*
X0178523Y0023191D01*
X0178514Y0023264D01*
X0178500Y0023336D01*
X0178483Y0023407D01*
X0178462Y0023478D01*
X0178438Y0023547D01*
X0178410Y0023614D01*
X0178378Y0023681D01*
X0178343Y0023745D01*
X0178305Y0023807D01*
X0178264Y0023868D01*
X0178219Y0023926D01*
X0178171Y0023982D01*
X0178121Y0024035D01*
X0178068Y0024085D01*
X0178012Y0024133D01*
X0177954Y0024178D01*
X0177893Y0024219D01*
X0177831Y0024257D01*
X0177767Y0024292D01*
X0177700Y0024324D01*
X0177633Y0024352D01*
X0177564Y0024376D01*
X0177493Y0024397D01*
X0177422Y0024414D01*
X0177350Y0024428D01*
X0177277Y0024437D01*
X0177204Y0024443D01*
X0177131Y0024445D01*
X0177058Y0024443D01*
X0176985Y0024437D01*
X0176912Y0024428D01*
X0176840Y0024414D01*
X0176769Y0024397D01*
X0176698Y0024376D01*
X0176629Y0024352D01*
X0176562Y0024324D01*
X0176495Y0024292D01*
X0176431Y0024257D01*
X0176369Y0024219D01*
X0176308Y0024178D01*
X0176250Y0024133D01*
X0176194Y0024085D01*
X0176141Y0024035D01*
X0176091Y0023982D01*
X0176043Y0023926D01*
X0175998Y0023868D01*
X0175957Y0023807D01*
X0175919Y0023745D01*
X0175884Y0023681D01*
X0175852Y0023614D01*
X0175824Y0023547D01*
X0175800Y0023478D01*
X0175779Y0023407D01*
X0175762Y0023336D01*
X0175748Y0023264D01*
X0175739Y0023191D01*
X0175733Y0023118D01*
X0175731Y0023045D01*
X0197886Y0023045D02*
X0197886Y0022345D01*
X0200686Y0022345D01*
X0200686Y0023045D02*
X0200686Y0021295D01*
X0200684Y0021232D01*
X0200678Y0021168D01*
X0200669Y0021106D01*
X0200655Y0021044D01*
X0200638Y0020983D01*
X0200618Y0020923D01*
X0200593Y0020864D01*
X0200566Y0020807D01*
X0200535Y0020752D01*
X0200500Y0020699D01*
X0200463Y0020647D01*
X0200422Y0020599D01*
X0200378Y0020553D01*
X0200332Y0020509D01*
X0200284Y0020468D01*
X0200232Y0020431D01*
X0200179Y0020396D01*
X0200124Y0020365D01*
X0200067Y0020338D01*
X0200008Y0020313D01*
X0199948Y0020293D01*
X0199887Y0020276D01*
X0199825Y0020262D01*
X0199763Y0020253D01*
X0199699Y0020247D01*
X0199636Y0020245D01*
X0197886Y0020245D01*
X0203188Y0021295D02*
X0203188Y0023395D01*
X0203190Y0023458D01*
X0203196Y0023522D01*
X0203205Y0023584D01*
X0203219Y0023646D01*
X0203236Y0023707D01*
X0203256Y0023767D01*
X0203281Y0023826D01*
X0203308Y0023883D01*
X0203339Y0023938D01*
X0203374Y0023991D01*
X0203411Y0024043D01*
X0203452Y0024091D01*
X0203496Y0024137D01*
X0203542Y0024181D01*
X0203590Y0024222D01*
X0203642Y0024259D01*
X0203695Y0024294D01*
X0203750Y0024325D01*
X0203807Y0024352D01*
X0203866Y0024377D01*
X0203926Y0024397D01*
X0203987Y0024414D01*
X0204049Y0024428D01*
X0204111Y0024437D01*
X0204175Y0024443D01*
X0204238Y0024445D01*
X0205988Y0024445D01*
X0205988Y0018145D01*
X0205988Y0020245D02*
X0204238Y0020245D01*
X0204175Y0020247D01*
X0204111Y0020253D01*
X0204049Y0020262D01*
X0203987Y0020276D01*
X0203926Y0020293D01*
X0203866Y0020313D01*
X0203807Y0020338D01*
X0203750Y0020365D01*
X0203695Y0020396D01*
X0203642Y0020431D01*
X0203590Y0020468D01*
X0203542Y0020509D01*
X0203496Y0020553D01*
X0203452Y0020599D01*
X0203411Y0020647D01*
X0203374Y0020699D01*
X0203339Y0020752D01*
X0203308Y0020807D01*
X0203281Y0020864D01*
X0203256Y0020923D01*
X0203236Y0020983D01*
X0203219Y0021044D01*
X0203205Y0021106D01*
X0203196Y0021168D01*
X0203190Y0021232D01*
X0203188Y0021295D01*
X0200686Y0023045D02*
X0200684Y0023118D01*
X0200678Y0023191D01*
X0200669Y0023264D01*
X0200655Y0023336D01*
X0200638Y0023407D01*
X0200617Y0023478D01*
X0200593Y0023547D01*
X0200565Y0023614D01*
X0200533Y0023681D01*
X0200498Y0023745D01*
X0200460Y0023807D01*
X0200419Y0023868D01*
X0200374Y0023926D01*
X0200326Y0023982D01*
X0200276Y0024035D01*
X0200223Y0024085D01*
X0200167Y0024133D01*
X0200109Y0024178D01*
X0200048Y0024219D01*
X0199986Y0024257D01*
X0199922Y0024292D01*
X0199855Y0024324D01*
X0199788Y0024352D01*
X0199719Y0024376D01*
X0199648Y0024397D01*
X0199577Y0024414D01*
X0199505Y0024428D01*
X0199432Y0024437D01*
X0199359Y0024443D01*
X0199286Y0024445D01*
X0199213Y0024443D01*
X0199140Y0024437D01*
X0199067Y0024428D01*
X0198995Y0024414D01*
X0198924Y0024397D01*
X0198853Y0024376D01*
X0198784Y0024352D01*
X0198717Y0024324D01*
X0198650Y0024292D01*
X0198586Y0024257D01*
X0198524Y0024219D01*
X0198463Y0024178D01*
X0198405Y0024133D01*
X0198349Y0024085D01*
X0198296Y0024035D01*
X0198246Y0023982D01*
X0198198Y0023926D01*
X0198153Y0023868D01*
X0198112Y0023807D01*
X0198074Y0023745D01*
X0198039Y0023681D01*
X0198007Y0023614D01*
X0197979Y0023547D01*
X0197955Y0023478D01*
X0197934Y0023407D01*
X0197917Y0023336D01*
X0197903Y0023264D01*
X0197894Y0023191D01*
X0197888Y0023118D01*
X0197886Y0023045D01*
X0208818Y0021995D02*
X0208818Y0024795D01*
X0208820Y0024877D01*
X0208826Y0024959D01*
X0208835Y0025040D01*
X0208849Y0025121D01*
X0208866Y0025202D01*
X0208887Y0025281D01*
X0208911Y0025359D01*
X0208940Y0025436D01*
X0208972Y0025512D01*
X0209007Y0025586D01*
X0209046Y0025658D01*
X0209088Y0025729D01*
X0209133Y0025797D01*
X0209182Y0025863D01*
X0209233Y0025927D01*
X0209288Y0025988D01*
X0209345Y0026047D01*
X0209405Y0026103D01*
X0209468Y0026156D01*
X0209533Y0026206D01*
X0209600Y0026253D01*
X0209669Y0026297D01*
X0209741Y0026337D01*
X0209814Y0026374D01*
X0209889Y0026408D01*
X0209965Y0026438D01*
X0210043Y0026464D01*
X0210122Y0026487D01*
X0210201Y0026506D01*
X0210282Y0026521D01*
X0210363Y0026533D01*
X0210445Y0026541D01*
X0210527Y0026545D01*
X0210609Y0026545D01*
X0210691Y0026541D01*
X0210773Y0026533D01*
X0210854Y0026521D01*
X0210935Y0026506D01*
X0211014Y0026487D01*
X0211093Y0026464D01*
X0211171Y0026438D01*
X0211247Y0026408D01*
X0211322Y0026374D01*
X0211395Y0026337D01*
X0211467Y0026297D01*
X0211536Y0026253D01*
X0211603Y0026206D01*
X0211668Y0026156D01*
X0211731Y0026103D01*
X0211791Y0026047D01*
X0211848Y0025988D01*
X0211903Y0025927D01*
X0211954Y0025863D01*
X0212003Y0025797D01*
X0212048Y0025729D01*
X0212090Y0025658D01*
X0212129Y0025586D01*
X0212164Y0025512D01*
X0212196Y0025436D01*
X0212225Y0025359D01*
X0212249Y0025281D01*
X0212270Y0025202D01*
X0212287Y0025121D01*
X0212301Y0025040D01*
X0212310Y0024959D01*
X0212316Y0024877D01*
X0212318Y0024795D01*
X0212318Y0021995D01*
X0212316Y0021913D01*
X0212310Y0021831D01*
X0212301Y0021750D01*
X0212287Y0021669D01*
X0212270Y0021588D01*
X0212249Y0021509D01*
X0212225Y0021431D01*
X0212196Y0021354D01*
X0212164Y0021278D01*
X0212129Y0021204D01*
X0212090Y0021132D01*
X0212048Y0021061D01*
X0212003Y0020993D01*
X0211954Y0020927D01*
X0211903Y0020863D01*
X0211848Y0020802D01*
X0211791Y0020743D01*
X0211731Y0020687D01*
X0211668Y0020634D01*
X0211603Y0020584D01*
X0211536Y0020537D01*
X0211467Y0020493D01*
X0211395Y0020453D01*
X0211322Y0020416D01*
X0211247Y0020382D01*
X0211171Y0020352D01*
X0211093Y0020326D01*
X0211014Y0020303D01*
X0210935Y0020284D01*
X0210854Y0020269D01*
X0210773Y0020257D01*
X0210691Y0020249D01*
X0210609Y0020245D01*
X0210527Y0020245D01*
X0210445Y0020249D01*
X0210363Y0020257D01*
X0210282Y0020269D01*
X0210201Y0020284D01*
X0210122Y0020303D01*
X0210043Y0020326D01*
X0209965Y0020352D01*
X0209889Y0020382D01*
X0209814Y0020416D01*
X0209741Y0020453D01*
X0209669Y0020493D01*
X0209600Y0020537D01*
X0209533Y0020584D01*
X0209468Y0020634D01*
X0209405Y0020687D01*
X0209345Y0020743D01*
X0209288Y0020802D01*
X0209233Y0020863D01*
X0209182Y0020927D01*
X0209133Y0020993D01*
X0209088Y0021061D01*
X0209046Y0021132D01*
X0209007Y0021204D01*
X0208972Y0021278D01*
X0208940Y0021354D01*
X0208911Y0021431D01*
X0208887Y0021509D01*
X0208866Y0021588D01*
X0208849Y0021669D01*
X0208835Y0021750D01*
X0208826Y0021831D01*
X0208820Y0021913D01*
X0208818Y0021995D01*
X0168274Y0039845D02*
X0167749Y0041245D01*
X0167749Y0041595D01*
X0168099Y0041595D01*
X0168099Y0041245D01*
X0167749Y0041245D01*
X0171930Y0041245D02*
X0171930Y0045445D01*
X0169830Y0045445D01*
X0169830Y0044745D01*
X0174706Y0044045D02*
X0174706Y0043345D01*
X0177506Y0043345D01*
X0177506Y0044045D02*
X0177506Y0042295D01*
X0177504Y0042232D01*
X0177498Y0042168D01*
X0177489Y0042106D01*
X0177475Y0042044D01*
X0177458Y0041983D01*
X0177438Y0041923D01*
X0177413Y0041864D01*
X0177386Y0041807D01*
X0177355Y0041752D01*
X0177320Y0041699D01*
X0177283Y0041647D01*
X0177242Y0041599D01*
X0177198Y0041553D01*
X0177152Y0041509D01*
X0177104Y0041468D01*
X0177052Y0041431D01*
X0176999Y0041396D01*
X0176944Y0041365D01*
X0176887Y0041338D01*
X0176828Y0041313D01*
X0176768Y0041293D01*
X0176707Y0041276D01*
X0176645Y0041262D01*
X0176583Y0041253D01*
X0176519Y0041247D01*
X0176456Y0041245D01*
X0174706Y0041245D01*
X0174706Y0044045D02*
X0174708Y0044118D01*
X0174714Y0044191D01*
X0174723Y0044264D01*
X0174737Y0044336D01*
X0174754Y0044407D01*
X0174775Y0044478D01*
X0174799Y0044547D01*
X0174827Y0044614D01*
X0174859Y0044681D01*
X0174894Y0044745D01*
X0174932Y0044807D01*
X0174973Y0044868D01*
X0175018Y0044926D01*
X0175066Y0044982D01*
X0175116Y0045035D01*
X0175169Y0045085D01*
X0175225Y0045133D01*
X0175283Y0045178D01*
X0175344Y0045219D01*
X0175406Y0045257D01*
X0175470Y0045292D01*
X0175537Y0045324D01*
X0175604Y0045352D01*
X0175673Y0045376D01*
X0175744Y0045397D01*
X0175815Y0045414D01*
X0175887Y0045428D01*
X0175960Y0045437D01*
X0176033Y0045443D01*
X0176106Y0045445D01*
X0176179Y0045443D01*
X0176252Y0045437D01*
X0176325Y0045428D01*
X0176397Y0045414D01*
X0176468Y0045397D01*
X0176539Y0045376D01*
X0176608Y0045352D01*
X0176675Y0045324D01*
X0176742Y0045292D01*
X0176806Y0045257D01*
X0176868Y0045219D01*
X0176929Y0045178D01*
X0176987Y0045133D01*
X0177043Y0045085D01*
X0177096Y0045035D01*
X0177146Y0044982D01*
X0177194Y0044926D01*
X0177239Y0044868D01*
X0177280Y0044807D01*
X0177318Y0044745D01*
X0177353Y0044681D01*
X0177385Y0044614D01*
X0177413Y0044547D01*
X0177437Y0044478D01*
X0177458Y0044407D01*
X0177475Y0044336D01*
X0177489Y0044264D01*
X0177498Y0044191D01*
X0177504Y0044118D01*
X0177506Y0044045D01*
X0180008Y0044395D02*
X0180008Y0042295D01*
X0180010Y0042232D01*
X0180016Y0042168D01*
X0180025Y0042106D01*
X0180039Y0042044D01*
X0180056Y0041983D01*
X0180076Y0041923D01*
X0180101Y0041864D01*
X0180128Y0041807D01*
X0180159Y0041752D01*
X0180194Y0041699D01*
X0180231Y0041647D01*
X0180272Y0041599D01*
X0180316Y0041553D01*
X0180362Y0041509D01*
X0180410Y0041468D01*
X0180462Y0041431D01*
X0180515Y0041396D01*
X0180570Y0041365D01*
X0180627Y0041338D01*
X0180686Y0041313D01*
X0180746Y0041293D01*
X0180807Y0041276D01*
X0180869Y0041262D01*
X0180931Y0041253D01*
X0180995Y0041247D01*
X0181058Y0041245D01*
X0182808Y0041245D01*
X0182808Y0047545D01*
X0182808Y0045445D02*
X0181058Y0045445D01*
X0180995Y0045443D01*
X0180931Y0045437D01*
X0180869Y0045428D01*
X0180807Y0045414D01*
X0180746Y0045397D01*
X0180686Y0045377D01*
X0180627Y0045352D01*
X0180570Y0045325D01*
X0180515Y0045294D01*
X0180462Y0045259D01*
X0180410Y0045222D01*
X0180362Y0045181D01*
X0180316Y0045137D01*
X0180272Y0045091D01*
X0180231Y0045043D01*
X0180194Y0044991D01*
X0180159Y0044938D01*
X0180128Y0044883D01*
X0180101Y0044826D01*
X0180076Y0044767D01*
X0180056Y0044707D01*
X0180039Y0044646D01*
X0180025Y0044584D01*
X0180016Y0044522D01*
X0180010Y0044458D01*
X0180008Y0044395D01*
X0185904Y0044395D02*
X0185904Y0041245D01*
X0188004Y0041245D02*
X0188004Y0045445D01*
X0186954Y0045445D02*
X0190104Y0045445D01*
X0190104Y0041245D01*
X0192963Y0041245D02*
X0194713Y0041245D01*
X0194776Y0041247D01*
X0194840Y0041253D01*
X0194902Y0041262D01*
X0194964Y0041276D01*
X0195025Y0041293D01*
X0195085Y0041313D01*
X0195144Y0041338D01*
X0195201Y0041365D01*
X0195256Y0041396D01*
X0195309Y0041431D01*
X0195361Y0041468D01*
X0195409Y0041509D01*
X0195455Y0041553D01*
X0195499Y0041599D01*
X0195540Y0041647D01*
X0195577Y0041699D01*
X0195612Y0041752D01*
X0195643Y0041807D01*
X0195670Y0041864D01*
X0195695Y0041923D01*
X0195715Y0041983D01*
X0195732Y0042044D01*
X0195746Y0042106D01*
X0195755Y0042168D01*
X0195761Y0042232D01*
X0195763Y0042295D01*
X0195763Y0044045D01*
X0195763Y0043345D02*
X0192963Y0043345D01*
X0192963Y0044045D01*
X0192965Y0044118D01*
X0192971Y0044191D01*
X0192980Y0044264D01*
X0192994Y0044336D01*
X0193011Y0044407D01*
X0193032Y0044478D01*
X0193056Y0044547D01*
X0193084Y0044614D01*
X0193116Y0044681D01*
X0193151Y0044745D01*
X0193189Y0044807D01*
X0193230Y0044868D01*
X0193275Y0044926D01*
X0193323Y0044982D01*
X0193373Y0045035D01*
X0193426Y0045085D01*
X0193482Y0045133D01*
X0193540Y0045178D01*
X0193601Y0045219D01*
X0193663Y0045257D01*
X0193727Y0045292D01*
X0193794Y0045324D01*
X0193861Y0045352D01*
X0193930Y0045376D01*
X0194001Y0045397D01*
X0194072Y0045414D01*
X0194144Y0045428D01*
X0194217Y0045437D01*
X0194290Y0045443D01*
X0194363Y0045445D01*
X0194436Y0045443D01*
X0194509Y0045437D01*
X0194582Y0045428D01*
X0194654Y0045414D01*
X0194725Y0045397D01*
X0194796Y0045376D01*
X0194865Y0045352D01*
X0194932Y0045324D01*
X0194999Y0045292D01*
X0195063Y0045257D01*
X0195125Y0045219D01*
X0195186Y0045178D01*
X0195244Y0045133D01*
X0195300Y0045085D01*
X0195353Y0045035D01*
X0195403Y0044982D01*
X0195451Y0044926D01*
X0195496Y0044868D01*
X0195537Y0044807D01*
X0195575Y0044745D01*
X0195610Y0044681D01*
X0195642Y0044614D01*
X0195670Y0044547D01*
X0195694Y0044478D01*
X0195715Y0044407D01*
X0195732Y0044336D01*
X0195746Y0044264D01*
X0195755Y0044191D01*
X0195761Y0044118D01*
X0195763Y0044045D01*
X0198091Y0045445D02*
X0199491Y0041245D01*
X0200891Y0045445D01*
X0203219Y0044045D02*
X0203219Y0042645D01*
X0203221Y0042572D01*
X0203227Y0042499D01*
X0203236Y0042426D01*
X0203250Y0042354D01*
X0203267Y0042283D01*
X0203288Y0042212D01*
X0203312Y0042143D01*
X0203340Y0042076D01*
X0203372Y0042009D01*
X0203407Y0041945D01*
X0203445Y0041883D01*
X0203486Y0041822D01*
X0203531Y0041764D01*
X0203579Y0041708D01*
X0203629Y0041655D01*
X0203682Y0041605D01*
X0203738Y0041557D01*
X0203796Y0041512D01*
X0203857Y0041471D01*
X0203919Y0041433D01*
X0203983Y0041398D01*
X0204050Y0041366D01*
X0204117Y0041338D01*
X0204186Y0041314D01*
X0204257Y0041293D01*
X0204328Y0041276D01*
X0204400Y0041262D01*
X0204473Y0041253D01*
X0204546Y0041247D01*
X0204619Y0041245D01*
X0204692Y0041247D01*
X0204765Y0041253D01*
X0204838Y0041262D01*
X0204910Y0041276D01*
X0204981Y0041293D01*
X0205052Y0041314D01*
X0205121Y0041338D01*
X0205188Y0041366D01*
X0205255Y0041398D01*
X0205319Y0041433D01*
X0205381Y0041471D01*
X0205442Y0041512D01*
X0205500Y0041557D01*
X0205556Y0041605D01*
X0205609Y0041655D01*
X0205659Y0041708D01*
X0205707Y0041764D01*
X0205752Y0041822D01*
X0205793Y0041883D01*
X0205831Y0041945D01*
X0205866Y0042009D01*
X0205898Y0042076D01*
X0205926Y0042143D01*
X0205950Y0042212D01*
X0205971Y0042283D01*
X0205988Y0042354D01*
X0206002Y0042426D01*
X0206011Y0042499D01*
X0206017Y0042572D01*
X0206019Y0042645D01*
X0206019Y0044045D01*
X0206017Y0044118D01*
X0206011Y0044191D01*
X0206002Y0044264D01*
X0205988Y0044336D01*
X0205971Y0044407D01*
X0205950Y0044478D01*
X0205926Y0044547D01*
X0205898Y0044614D01*
X0205866Y0044681D01*
X0205831Y0044745D01*
X0205793Y0044807D01*
X0205752Y0044868D01*
X0205707Y0044926D01*
X0205659Y0044982D01*
X0205609Y0045035D01*
X0205556Y0045085D01*
X0205500Y0045133D01*
X0205442Y0045178D01*
X0205381Y0045219D01*
X0205319Y0045257D01*
X0205255Y0045292D01*
X0205188Y0045324D01*
X0205121Y0045352D01*
X0205052Y0045376D01*
X0204981Y0045397D01*
X0204910Y0045414D01*
X0204838Y0045428D01*
X0204765Y0045437D01*
X0204692Y0045443D01*
X0204619Y0045445D01*
X0204546Y0045443D01*
X0204473Y0045437D01*
X0204400Y0045428D01*
X0204328Y0045414D01*
X0204257Y0045397D01*
X0204186Y0045376D01*
X0204117Y0045352D01*
X0204050Y0045324D01*
X0203983Y0045292D01*
X0203919Y0045257D01*
X0203857Y0045219D01*
X0203796Y0045178D01*
X0203738Y0045133D01*
X0203682Y0045085D01*
X0203629Y0045035D01*
X0203579Y0044982D01*
X0203531Y0044926D01*
X0203486Y0044868D01*
X0203445Y0044807D01*
X0203407Y0044745D01*
X0203372Y0044681D01*
X0203340Y0044614D01*
X0203312Y0044547D01*
X0203288Y0044478D01*
X0203267Y0044407D01*
X0203250Y0044336D01*
X0203236Y0044264D01*
X0203227Y0044191D01*
X0203221Y0044118D01*
X0203219Y0044045D01*
X0208818Y0041245D02*
X0208818Y0047545D01*
X0212318Y0047545D02*
X0208818Y0041245D01*
X0212318Y0041245D02*
X0212318Y0047545D01*
X0212318Y0051745D02*
X0210218Y0058045D01*
X0208118Y0051745D01*
X0205906Y0052795D02*
X0205906Y0054895D01*
X0205904Y0054958D01*
X0205898Y0055022D01*
X0205889Y0055084D01*
X0205875Y0055146D01*
X0205858Y0055207D01*
X0205838Y0055267D01*
X0205813Y0055326D01*
X0205786Y0055383D01*
X0205755Y0055438D01*
X0205720Y0055491D01*
X0205683Y0055543D01*
X0205642Y0055591D01*
X0205598Y0055637D01*
X0205552Y0055681D01*
X0205504Y0055722D01*
X0205452Y0055759D01*
X0205399Y0055794D01*
X0205344Y0055825D01*
X0205287Y0055852D01*
X0205228Y0055877D01*
X0205168Y0055897D01*
X0205107Y0055914D01*
X0205045Y0055928D01*
X0204983Y0055937D01*
X0204919Y0055943D01*
X0204856Y0055945D01*
X0203106Y0055945D01*
X0200477Y0055945D02*
X0200477Y0050695D01*
X0200479Y0050632D01*
X0200485Y0050568D01*
X0200494Y0050506D01*
X0200508Y0050444D01*
X0200525Y0050383D01*
X0200545Y0050323D01*
X0200570Y0050264D01*
X0200597Y0050207D01*
X0200628Y0050152D01*
X0200663Y0050099D01*
X0200700Y0050047D01*
X0200741Y0049999D01*
X0200785Y0049953D01*
X0200831Y0049909D01*
X0200879Y0049868D01*
X0200931Y0049831D01*
X0200984Y0049796D01*
X0201039Y0049765D01*
X0201096Y0049738D01*
X0201155Y0049713D01*
X0201215Y0049693D01*
X0201276Y0049676D01*
X0201338Y0049662D01*
X0201400Y0049653D01*
X0201464Y0049647D01*
X0201527Y0049645D01*
X0201877Y0049645D01*
X0203106Y0051745D02*
X0204856Y0051745D01*
X0204919Y0051747D01*
X0204983Y0051753D01*
X0205045Y0051762D01*
X0205107Y0051776D01*
X0205168Y0051793D01*
X0205228Y0051813D01*
X0205287Y0051838D01*
X0205344Y0051865D01*
X0205399Y0051896D01*
X0205452Y0051931D01*
X0205504Y0051968D01*
X0205552Y0052009D01*
X0205598Y0052053D01*
X0205642Y0052099D01*
X0205683Y0052147D01*
X0205720Y0052199D01*
X0205755Y0052252D01*
X0205786Y0052307D01*
X0205813Y0052364D01*
X0205838Y0052423D01*
X0205858Y0052483D01*
X0205875Y0052544D01*
X0205889Y0052606D01*
X0205898Y0052668D01*
X0205904Y0052732D01*
X0205906Y0052795D01*
X0208643Y0053320D02*
X0211793Y0053320D01*
X0203106Y0051745D02*
X0203106Y0058045D01*
X0200652Y0058045D02*
X0200302Y0058045D01*
X0200302Y0057695D01*
X0200652Y0057695D01*
X0200652Y0058045D01*
X0197669Y0055945D02*
X0197669Y0052795D01*
X0197667Y0052732D01*
X0197661Y0052668D01*
X0197652Y0052606D01*
X0197638Y0052544D01*
X0197621Y0052483D01*
X0197601Y0052423D01*
X0197576Y0052364D01*
X0197549Y0052307D01*
X0197518Y0052252D01*
X0197483Y0052199D01*
X0197446Y0052147D01*
X0197405Y0052099D01*
X0197361Y0052053D01*
X0197315Y0052009D01*
X0197267Y0051968D01*
X0197215Y0051931D01*
X0197162Y0051896D01*
X0197107Y0051865D01*
X0197050Y0051838D01*
X0196991Y0051813D01*
X0196931Y0051793D01*
X0196870Y0051776D01*
X0196808Y0051762D01*
X0196746Y0051753D01*
X0196682Y0051747D01*
X0196619Y0051745D01*
X0194869Y0051745D01*
X0194869Y0055945D01*
X0191256Y0055946D02*
X0191316Y0055945D01*
X0191376Y0055940D01*
X0191435Y0055931D01*
X0191494Y0055918D01*
X0191551Y0055901D01*
X0191608Y0055880D01*
X0191663Y0055856D01*
X0191716Y0055829D01*
X0191767Y0055797D01*
X0191816Y0055763D01*
X0191863Y0055725D01*
X0191907Y0055684D01*
X0191948Y0055641D01*
X0191986Y0055595D01*
X0192022Y0055546D01*
X0192053Y0055495D01*
X0192082Y0055443D01*
X0192107Y0055388D01*
X0192128Y0055332D01*
X0192146Y0055274D01*
X0192159Y0055216D01*
X0192169Y0055157D01*
X0192175Y0055097D01*
X0192177Y0055037D01*
X0192175Y0054977D01*
X0192169Y0054918D01*
X0192159Y0054858D01*
X0192145Y0054800D01*
X0192128Y0054743D01*
X0192106Y0054687D01*
X0192081Y0054632D01*
X0192053Y0054579D01*
X0192021Y0054529D01*
X0191985Y0054480D01*
X0191947Y0054434D01*
X0191906Y0054391D01*
X0191861Y0054350D01*
X0191815Y0054312D01*
X0191766Y0054278D01*
X0191714Y0054247D01*
X0191661Y0054219D01*
X0191606Y0054195D01*
X0189856Y0053495D01*
X0189856Y0053496D02*
X0189801Y0053472D01*
X0189748Y0053444D01*
X0189696Y0053413D01*
X0189647Y0053379D01*
X0189601Y0053341D01*
X0189556Y0053300D01*
X0189515Y0053257D01*
X0189477Y0053211D01*
X0189441Y0053162D01*
X0189409Y0053112D01*
X0189381Y0053059D01*
X0189356Y0053004D01*
X0189334Y0052948D01*
X0189317Y0052891D01*
X0189303Y0052833D01*
X0189293Y0052773D01*
X0189287Y0052714D01*
X0189285Y0052654D01*
X0189287Y0052594D01*
X0189293Y0052534D01*
X0189303Y0052475D01*
X0189316Y0052417D01*
X0189334Y0052359D01*
X0189355Y0052303D01*
X0189380Y0052248D01*
X0189409Y0052196D01*
X0189440Y0052145D01*
X0189476Y0052096D01*
X0189514Y0052050D01*
X0189555Y0052007D01*
X0189599Y0051966D01*
X0189646Y0051928D01*
X0189695Y0051894D01*
X0189746Y0051862D01*
X0189799Y0051835D01*
X0189854Y0051811D01*
X0189911Y0051790D01*
X0189968Y0051773D01*
X0190027Y0051760D01*
X0190086Y0051751D01*
X0190146Y0051746D01*
X0190206Y0051745D01*
X0189680Y0055596D02*
X0189795Y0055645D01*
X0189911Y0055691D01*
X0190029Y0055733D01*
X0190148Y0055772D01*
X0190268Y0055806D01*
X0190389Y0055837D01*
X0190511Y0055864D01*
X0190634Y0055888D01*
X0190757Y0055907D01*
X0190881Y0055923D01*
X0191006Y0055934D01*
X0191130Y0055942D01*
X0191255Y0055946D01*
X0192131Y0052096D02*
X0191988Y0052046D01*
X0191844Y0052001D01*
X0191699Y0051958D01*
X0191552Y0051920D01*
X0191405Y0051886D01*
X0191257Y0051855D01*
X0191108Y0051828D01*
X0190959Y0051804D01*
X0190809Y0051785D01*
X0190659Y0051769D01*
X0190508Y0051758D01*
X0190357Y0051750D01*
X0190206Y0051746D01*
X0186618Y0052795D02*
X0186618Y0058045D01*
X0187318Y0055945D02*
X0185218Y0055945D01*
X0182581Y0055945D02*
X0181181Y0055945D01*
X0181118Y0055943D01*
X0181054Y0055937D01*
X0180992Y0055928D01*
X0180930Y0055914D01*
X0180869Y0055897D01*
X0180809Y0055877D01*
X0180750Y0055852D01*
X0180693Y0055825D01*
X0180638Y0055794D01*
X0180585Y0055759D01*
X0180533Y0055722D01*
X0180485Y0055681D01*
X0180439Y0055637D01*
X0180395Y0055591D01*
X0180354Y0055543D01*
X0180317Y0055491D01*
X0180282Y0055438D01*
X0180251Y0055383D01*
X0180224Y0055326D01*
X0180199Y0055267D01*
X0180179Y0055207D01*
X0180162Y0055146D01*
X0180148Y0055084D01*
X0180139Y0055022D01*
X0180133Y0054958D01*
X0180131Y0054895D01*
X0180131Y0051745D01*
X0181706Y0051745D01*
X0181775Y0051747D01*
X0181843Y0051753D01*
X0181911Y0051762D01*
X0181979Y0051776D01*
X0182045Y0051793D01*
X0182111Y0051814D01*
X0182175Y0051838D01*
X0182238Y0051866D01*
X0182299Y0051898D01*
X0182358Y0051933D01*
X0182415Y0051971D01*
X0182470Y0052012D01*
X0182522Y0052057D01*
X0182572Y0052104D01*
X0182619Y0052154D01*
X0182664Y0052206D01*
X0182705Y0052261D01*
X0182743Y0052318D01*
X0182778Y0052377D01*
X0182810Y0052438D01*
X0182838Y0052501D01*
X0182862Y0052565D01*
X0182883Y0052631D01*
X0182900Y0052697D01*
X0182914Y0052765D01*
X0182923Y0052833D01*
X0182929Y0052901D01*
X0182931Y0052970D01*
X0182929Y0053039D01*
X0182923Y0053107D01*
X0182914Y0053175D01*
X0182900Y0053243D01*
X0182883Y0053309D01*
X0182862Y0053375D01*
X0182838Y0053439D01*
X0182810Y0053502D01*
X0182778Y0053563D01*
X0182743Y0053622D01*
X0182705Y0053679D01*
X0182664Y0053734D01*
X0182619Y0053786D01*
X0182572Y0053836D01*
X0182522Y0053883D01*
X0182470Y0053928D01*
X0182415Y0053969D01*
X0182358Y0054007D01*
X0182299Y0054042D01*
X0182238Y0054074D01*
X0182175Y0054102D01*
X0182111Y0054126D01*
X0182045Y0054147D01*
X0181979Y0054164D01*
X0181911Y0054178D01*
X0181843Y0054187D01*
X0181775Y0054193D01*
X0181706Y0054195D01*
X0180131Y0054195D01*
X0177124Y0055945D02*
X0175374Y0055945D01*
X0175311Y0055943D01*
X0175247Y0055937D01*
X0175185Y0055928D01*
X0175123Y0055914D01*
X0175062Y0055897D01*
X0175002Y0055877D01*
X0174943Y0055852D01*
X0174886Y0055825D01*
X0174831Y0055794D01*
X0174778Y0055759D01*
X0174726Y0055722D01*
X0174678Y0055681D01*
X0174632Y0055637D01*
X0174588Y0055591D01*
X0174547Y0055543D01*
X0174510Y0055491D01*
X0174475Y0055438D01*
X0174444Y0055383D01*
X0174417Y0055326D01*
X0174392Y0055267D01*
X0174372Y0055207D01*
X0174355Y0055146D01*
X0174341Y0055084D01*
X0174332Y0055022D01*
X0174326Y0054958D01*
X0174324Y0054895D01*
X0174324Y0052795D01*
X0174326Y0052732D01*
X0174332Y0052668D01*
X0174341Y0052606D01*
X0174355Y0052544D01*
X0174372Y0052483D01*
X0174392Y0052423D01*
X0174417Y0052364D01*
X0174444Y0052307D01*
X0174475Y0052252D01*
X0174510Y0052199D01*
X0174547Y0052147D01*
X0174588Y0052099D01*
X0174632Y0052053D01*
X0174678Y0052009D01*
X0174726Y0051968D01*
X0174778Y0051931D01*
X0174831Y0051896D01*
X0174886Y0051865D01*
X0174943Y0051838D01*
X0175002Y0051813D01*
X0175062Y0051793D01*
X0175123Y0051776D01*
X0175185Y0051762D01*
X0175247Y0051753D01*
X0175311Y0051747D01*
X0175374Y0051745D01*
X0177124Y0051745D01*
X0177124Y0058045D01*
X0171740Y0058045D02*
X0171740Y0052795D01*
X0171738Y0052732D01*
X0171732Y0052668D01*
X0171723Y0052606D01*
X0171709Y0052544D01*
X0171692Y0052483D01*
X0171672Y0052423D01*
X0171647Y0052364D01*
X0171620Y0052307D01*
X0171589Y0052252D01*
X0171554Y0052199D01*
X0171517Y0052147D01*
X0171476Y0052099D01*
X0171432Y0052053D01*
X0171386Y0052009D01*
X0171338Y0051968D01*
X0171286Y0051931D01*
X0171233Y0051896D01*
X0171178Y0051865D01*
X0171121Y0051838D01*
X0171062Y0051813D01*
X0171002Y0051793D01*
X0170941Y0051776D01*
X0170879Y0051762D01*
X0170817Y0051753D01*
X0170753Y0051747D01*
X0170690Y0051745D01*
X0168540Y0052795D02*
X0168540Y0054545D01*
X0168540Y0053845D02*
X0165740Y0053845D01*
X0165740Y0054545D01*
X0165742Y0054618D01*
X0165748Y0054691D01*
X0165757Y0054764D01*
X0165771Y0054836D01*
X0165788Y0054907D01*
X0165809Y0054978D01*
X0165833Y0055047D01*
X0165861Y0055114D01*
X0165893Y0055181D01*
X0165928Y0055245D01*
X0165966Y0055307D01*
X0166007Y0055368D01*
X0166052Y0055426D01*
X0166100Y0055482D01*
X0166150Y0055535D01*
X0166203Y0055585D01*
X0166259Y0055633D01*
X0166317Y0055678D01*
X0166378Y0055719D01*
X0166440Y0055757D01*
X0166504Y0055792D01*
X0166571Y0055824D01*
X0166638Y0055852D01*
X0166707Y0055876D01*
X0166778Y0055897D01*
X0166849Y0055914D01*
X0166921Y0055928D01*
X0166994Y0055937D01*
X0167067Y0055943D01*
X0167140Y0055945D01*
X0167213Y0055943D01*
X0167286Y0055937D01*
X0167359Y0055928D01*
X0167431Y0055914D01*
X0167502Y0055897D01*
X0167573Y0055876D01*
X0167642Y0055852D01*
X0167709Y0055824D01*
X0167776Y0055792D01*
X0167840Y0055757D01*
X0167902Y0055719D01*
X0167963Y0055678D01*
X0168021Y0055633D01*
X0168077Y0055585D01*
X0168130Y0055535D01*
X0168180Y0055482D01*
X0168228Y0055426D01*
X0168273Y0055368D01*
X0168314Y0055307D01*
X0168352Y0055245D01*
X0168387Y0055181D01*
X0168419Y0055114D01*
X0168447Y0055047D01*
X0168471Y0054978D01*
X0168492Y0054907D01*
X0168509Y0054836D01*
X0168523Y0054764D01*
X0168532Y0054691D01*
X0168538Y0054618D01*
X0168540Y0054545D01*
X0168540Y0052795D02*
X0168538Y0052732D01*
X0168532Y0052668D01*
X0168523Y0052606D01*
X0168509Y0052544D01*
X0168492Y0052483D01*
X0168472Y0052423D01*
X0168447Y0052364D01*
X0168420Y0052307D01*
X0168389Y0052252D01*
X0168354Y0052199D01*
X0168317Y0052147D01*
X0168276Y0052099D01*
X0168232Y0052053D01*
X0168186Y0052009D01*
X0168138Y0051968D01*
X0168086Y0051931D01*
X0168033Y0051896D01*
X0167978Y0051865D01*
X0167921Y0051838D01*
X0167862Y0051813D01*
X0167802Y0051793D01*
X0167741Y0051776D01*
X0167679Y0051762D01*
X0167617Y0051753D01*
X0167553Y0051747D01*
X0167490Y0051745D01*
X0165740Y0051745D01*
X0159659Y0051745D02*
X0157909Y0051745D01*
X0159659Y0051745D02*
X0159659Y0058045D01*
X0157909Y0058045D01*
X0157828Y0058043D01*
X0157748Y0058038D01*
X0157667Y0058028D01*
X0157587Y0058015D01*
X0157508Y0057999D01*
X0157430Y0057978D01*
X0157353Y0057954D01*
X0157277Y0057927D01*
X0157202Y0057896D01*
X0157129Y0057862D01*
X0157057Y0057824D01*
X0156988Y0057783D01*
X0156920Y0057739D01*
X0156854Y0057692D01*
X0156791Y0057641D01*
X0156730Y0057588D01*
X0156672Y0057532D01*
X0156616Y0057474D01*
X0156563Y0057413D01*
X0156512Y0057350D01*
X0156465Y0057284D01*
X0156421Y0057216D01*
X0156380Y0057147D01*
X0156342Y0057075D01*
X0156308Y0057002D01*
X0156277Y0056927D01*
X0156250Y0056851D01*
X0156226Y0056774D01*
X0156205Y0056696D01*
X0156189Y0056617D01*
X0156176Y0056537D01*
X0156166Y0056456D01*
X0156161Y0056376D01*
X0156159Y0056295D01*
X0156159Y0053495D01*
X0156161Y0053414D01*
X0156166Y0053334D01*
X0156176Y0053253D01*
X0156189Y0053173D01*
X0156205Y0053094D01*
X0156226Y0053016D01*
X0156250Y0052939D01*
X0156277Y0052863D01*
X0156308Y0052788D01*
X0156342Y0052715D01*
X0156380Y0052643D01*
X0156421Y0052574D01*
X0156465Y0052506D01*
X0156512Y0052440D01*
X0156563Y0052377D01*
X0156616Y0052316D01*
X0156672Y0052258D01*
X0156730Y0052202D01*
X0156791Y0052149D01*
X0156854Y0052098D01*
X0156920Y0052051D01*
X0156988Y0052007D01*
X0157057Y0051966D01*
X0157129Y0051928D01*
X0157202Y0051894D01*
X0157277Y0051863D01*
X0157353Y0051836D01*
X0157430Y0051812D01*
X0157508Y0051791D01*
X0157587Y0051775D01*
X0157667Y0051762D01*
X0157748Y0051752D01*
X0157828Y0051747D01*
X0157909Y0051745D01*
X0153317Y0053145D02*
X0153317Y0056645D01*
X0153315Y0056718D01*
X0153309Y0056791D01*
X0153300Y0056864D01*
X0153286Y0056936D01*
X0153269Y0057007D01*
X0153248Y0057078D01*
X0153224Y0057147D01*
X0153196Y0057214D01*
X0153164Y0057281D01*
X0153129Y0057345D01*
X0153091Y0057407D01*
X0153050Y0057468D01*
X0153005Y0057526D01*
X0152957Y0057582D01*
X0152907Y0057635D01*
X0152854Y0057685D01*
X0152798Y0057733D01*
X0152740Y0057778D01*
X0152679Y0057819D01*
X0152617Y0057857D01*
X0152553Y0057892D01*
X0152486Y0057924D01*
X0152419Y0057952D01*
X0152350Y0057976D01*
X0152279Y0057997D01*
X0152208Y0058014D01*
X0152136Y0058028D01*
X0152063Y0058037D01*
X0151990Y0058043D01*
X0151917Y0058045D01*
X0150517Y0058045D01*
X0148111Y0054195D02*
X0143911Y0054195D01*
X0140992Y0051745D02*
X0139242Y0051745D01*
X0140992Y0051745D02*
X0140992Y0058045D01*
X0139242Y0058045D01*
X0139161Y0058043D01*
X0139081Y0058038D01*
X0139000Y0058028D01*
X0138920Y0058015D01*
X0138841Y0057999D01*
X0138763Y0057978D01*
X0138686Y0057954D01*
X0138610Y0057927D01*
X0138535Y0057896D01*
X0138462Y0057862D01*
X0138390Y0057824D01*
X0138321Y0057783D01*
X0138253Y0057739D01*
X0138187Y0057692D01*
X0138124Y0057641D01*
X0138063Y0057588D01*
X0138005Y0057532D01*
X0137949Y0057474D01*
X0137896Y0057413D01*
X0137845Y0057350D01*
X0137798Y0057284D01*
X0137754Y0057216D01*
X0137713Y0057147D01*
X0137675Y0057075D01*
X0137641Y0057002D01*
X0137610Y0056927D01*
X0137583Y0056851D01*
X0137559Y0056774D01*
X0137538Y0056696D01*
X0137522Y0056617D01*
X0137509Y0056537D01*
X0137499Y0056456D01*
X0137494Y0056376D01*
X0137492Y0056295D01*
X0137492Y0053495D01*
X0137494Y0053414D01*
X0137499Y0053334D01*
X0137509Y0053253D01*
X0137522Y0053173D01*
X0137538Y0053094D01*
X0137559Y0053016D01*
X0137583Y0052939D01*
X0137610Y0052863D01*
X0137641Y0052788D01*
X0137675Y0052715D01*
X0137713Y0052643D01*
X0137754Y0052574D01*
X0137798Y0052506D01*
X0137845Y0052440D01*
X0137896Y0052377D01*
X0137949Y0052316D01*
X0138005Y0052258D01*
X0138063Y0052202D01*
X0138124Y0052149D01*
X0138187Y0052098D01*
X0138253Y0052051D01*
X0138321Y0052007D01*
X0138390Y0051966D01*
X0138462Y0051928D01*
X0138535Y0051894D01*
X0138610Y0051863D01*
X0138686Y0051836D01*
X0138763Y0051812D01*
X0138841Y0051791D01*
X0138920Y0051775D01*
X0139000Y0051762D01*
X0139081Y0051752D01*
X0139161Y0051747D01*
X0139242Y0051745D01*
X0134650Y0053145D02*
X0134650Y0056645D01*
X0134648Y0056718D01*
X0134642Y0056791D01*
X0134633Y0056864D01*
X0134619Y0056936D01*
X0134602Y0057007D01*
X0134581Y0057078D01*
X0134557Y0057147D01*
X0134529Y0057214D01*
X0134497Y0057281D01*
X0134462Y0057345D01*
X0134424Y0057407D01*
X0134383Y0057468D01*
X0134338Y0057526D01*
X0134290Y0057582D01*
X0134240Y0057635D01*
X0134187Y0057685D01*
X0134131Y0057733D01*
X0134073Y0057778D01*
X0134012Y0057819D01*
X0133950Y0057857D01*
X0133886Y0057892D01*
X0133819Y0057924D01*
X0133752Y0057952D01*
X0133683Y0057976D01*
X0133612Y0057997D01*
X0133541Y0058014D01*
X0133469Y0058028D01*
X0133396Y0058037D01*
X0133323Y0058043D01*
X0133250Y0058045D01*
X0131850Y0058045D01*
X0125926Y0058045D02*
X0124176Y0058045D01*
X0125926Y0058045D02*
X0125926Y0051745D01*
X0124176Y0051745D01*
X0124094Y0051747D01*
X0124012Y0051753D01*
X0123931Y0051762D01*
X0123850Y0051776D01*
X0123769Y0051793D01*
X0123690Y0051814D01*
X0123612Y0051838D01*
X0123535Y0051867D01*
X0123459Y0051899D01*
X0123385Y0051934D01*
X0123313Y0051973D01*
X0123242Y0052015D01*
X0123174Y0052060D01*
X0123108Y0052109D01*
X0123044Y0052160D01*
X0122983Y0052215D01*
X0122924Y0052272D01*
X0122868Y0052332D01*
X0122815Y0052395D01*
X0122765Y0052460D01*
X0122718Y0052527D01*
X0122674Y0052596D01*
X0122634Y0052668D01*
X0122597Y0052741D01*
X0122563Y0052816D01*
X0122533Y0052892D01*
X0122507Y0052970D01*
X0122484Y0053049D01*
X0122465Y0053128D01*
X0122450Y0053209D01*
X0122438Y0053290D01*
X0122430Y0053372D01*
X0122426Y0053454D01*
X0122426Y0053536D01*
X0122430Y0053618D01*
X0122438Y0053700D01*
X0122450Y0053781D01*
X0122465Y0053862D01*
X0122484Y0053941D01*
X0122507Y0054020D01*
X0122533Y0054098D01*
X0122563Y0054174D01*
X0122597Y0054249D01*
X0122634Y0054322D01*
X0122674Y0054394D01*
X0122718Y0054463D01*
X0122765Y0054530D01*
X0122815Y0054595D01*
X0122868Y0054658D01*
X0122924Y0054718D01*
X0122983Y0054775D01*
X0123044Y0054830D01*
X0123108Y0054881D01*
X0123174Y0054930D01*
X0123242Y0054975D01*
X0123313Y0055017D01*
X0123385Y0055056D01*
X0123459Y0055091D01*
X0123535Y0055123D01*
X0123612Y0055152D01*
X0123690Y0055176D01*
X0123769Y0055197D01*
X0123850Y0055214D01*
X0123931Y0055228D01*
X0124012Y0055237D01*
X0124094Y0055243D01*
X0124176Y0055245D01*
X0125926Y0055245D01*
X0124176Y0055245D02*
X0124103Y0055247D01*
X0124030Y0055253D01*
X0123957Y0055262D01*
X0123885Y0055276D01*
X0123814Y0055293D01*
X0123743Y0055314D01*
X0123674Y0055338D01*
X0123607Y0055366D01*
X0123540Y0055398D01*
X0123476Y0055433D01*
X0123414Y0055471D01*
X0123353Y0055512D01*
X0123295Y0055557D01*
X0123239Y0055605D01*
X0123186Y0055655D01*
X0123136Y0055708D01*
X0123088Y0055764D01*
X0123043Y0055822D01*
X0123002Y0055883D01*
X0122964Y0055945D01*
X0122929Y0056009D01*
X0122897Y0056076D01*
X0122869Y0056143D01*
X0122845Y0056212D01*
X0122824Y0056283D01*
X0122807Y0056354D01*
X0122793Y0056426D01*
X0122784Y0056499D01*
X0122778Y0056572D01*
X0122776Y0056645D01*
X0122778Y0056718D01*
X0122784Y0056791D01*
X0122793Y0056864D01*
X0122807Y0056936D01*
X0122824Y0057007D01*
X0122845Y0057078D01*
X0122869Y0057147D01*
X0122897Y0057214D01*
X0122929Y0057281D01*
X0122964Y0057345D01*
X0123002Y0057407D01*
X0123043Y0057468D01*
X0123088Y0057526D01*
X0123136Y0057582D01*
X0123186Y0057635D01*
X0123239Y0057685D01*
X0123295Y0057733D01*
X0123353Y0057778D01*
X0123414Y0057819D01*
X0123476Y0057857D01*
X0123540Y0057892D01*
X0123607Y0057924D01*
X0123674Y0057952D01*
X0123743Y0057976D01*
X0123814Y0057997D01*
X0123885Y0058014D01*
X0123957Y0058028D01*
X0124030Y0058037D01*
X0124103Y0058043D01*
X0124176Y0058045D01*
X0119923Y0055945D02*
X0119923Y0052795D01*
X0119921Y0052732D01*
X0119915Y0052668D01*
X0119906Y0052606D01*
X0119892Y0052544D01*
X0119875Y0052483D01*
X0119855Y0052423D01*
X0119830Y0052364D01*
X0119803Y0052307D01*
X0119772Y0052252D01*
X0119737Y0052199D01*
X0119700Y0052147D01*
X0119659Y0052099D01*
X0119615Y0052053D01*
X0119569Y0052009D01*
X0119521Y0051968D01*
X0119469Y0051931D01*
X0119416Y0051896D01*
X0119361Y0051865D01*
X0119304Y0051838D01*
X0119245Y0051813D01*
X0119185Y0051793D01*
X0119124Y0051776D01*
X0119062Y0051762D01*
X0119000Y0051753D01*
X0118936Y0051747D01*
X0118873Y0051745D01*
X0117123Y0051745D01*
X0117123Y0055945D01*
X0114377Y0054895D02*
X0114377Y0052795D01*
X0114375Y0052732D01*
X0114369Y0052668D01*
X0114360Y0052606D01*
X0114346Y0052544D01*
X0114329Y0052483D01*
X0114309Y0052423D01*
X0114284Y0052364D01*
X0114257Y0052307D01*
X0114226Y0052252D01*
X0114191Y0052199D01*
X0114154Y0052147D01*
X0114113Y0052099D01*
X0114069Y0052053D01*
X0114023Y0052009D01*
X0113975Y0051968D01*
X0113923Y0051931D01*
X0113870Y0051896D01*
X0113815Y0051865D01*
X0113758Y0051838D01*
X0113699Y0051813D01*
X0113639Y0051793D01*
X0113578Y0051776D01*
X0113516Y0051762D01*
X0113454Y0051753D01*
X0113390Y0051747D01*
X0113327Y0051745D01*
X0111927Y0051745D01*
X0109388Y0051745D02*
X0109388Y0058045D01*
X0111927Y0055945D02*
X0113327Y0055945D01*
X0113390Y0055943D01*
X0113454Y0055937D01*
X0113516Y0055928D01*
X0113578Y0055914D01*
X0113639Y0055897D01*
X0113699Y0055877D01*
X0113758Y0055852D01*
X0113815Y0055825D01*
X0113870Y0055794D01*
X0113923Y0055759D01*
X0113975Y0055722D01*
X0114023Y0055681D01*
X0114069Y0055637D01*
X0114113Y0055591D01*
X0114154Y0055543D01*
X0114191Y0055491D01*
X0114226Y0055438D01*
X0114257Y0055383D01*
X0114284Y0055326D01*
X0114309Y0055267D01*
X0114329Y0055207D01*
X0114346Y0055146D01*
X0114360Y0055084D01*
X0114369Y0055022D01*
X0114375Y0054958D01*
X0114377Y0054895D01*
X0109388Y0053845D02*
X0106588Y0055945D01*
X0108163Y0054720D02*
X0106588Y0051745D01*
X0100694Y0051745D02*
X0100694Y0058045D01*
X0098944Y0058045D01*
X0098862Y0058043D01*
X0098780Y0058037D01*
X0098699Y0058028D01*
X0098618Y0058014D01*
X0098537Y0057997D01*
X0098458Y0057976D01*
X0098380Y0057952D01*
X0098303Y0057923D01*
X0098227Y0057891D01*
X0098153Y0057856D01*
X0098081Y0057817D01*
X0098010Y0057775D01*
X0097942Y0057730D01*
X0097876Y0057681D01*
X0097812Y0057630D01*
X0097751Y0057575D01*
X0097692Y0057518D01*
X0097636Y0057458D01*
X0097583Y0057395D01*
X0097533Y0057330D01*
X0097486Y0057263D01*
X0097442Y0057194D01*
X0097402Y0057122D01*
X0097365Y0057049D01*
X0097331Y0056974D01*
X0097301Y0056898D01*
X0097275Y0056820D01*
X0097252Y0056741D01*
X0097233Y0056662D01*
X0097218Y0056581D01*
X0097206Y0056500D01*
X0097198Y0056418D01*
X0097194Y0056336D01*
X0097194Y0056254D01*
X0097198Y0056172D01*
X0097206Y0056090D01*
X0097218Y0056009D01*
X0097233Y0055928D01*
X0097252Y0055849D01*
X0097275Y0055770D01*
X0097301Y0055692D01*
X0097331Y0055616D01*
X0097365Y0055541D01*
X0097402Y0055468D01*
X0097442Y0055396D01*
X0097486Y0055327D01*
X0097533Y0055260D01*
X0097583Y0055195D01*
X0097636Y0055132D01*
X0097692Y0055072D01*
X0097751Y0055015D01*
X0097812Y0054960D01*
X0097876Y0054909D01*
X0097942Y0054860D01*
X0098010Y0054815D01*
X0098081Y0054773D01*
X0098153Y0054734D01*
X0098227Y0054699D01*
X0098303Y0054667D01*
X0098380Y0054638D01*
X0098458Y0054614D01*
X0098537Y0054593D01*
X0098618Y0054576D01*
X0098699Y0054562D01*
X0098780Y0054553D01*
X0098862Y0054547D01*
X0098944Y0054545D01*
X0100694Y0054545D01*
X0094897Y0054545D02*
X0094897Y0053145D01*
X0094895Y0053072D01*
X0094889Y0052999D01*
X0094880Y0052926D01*
X0094866Y0052854D01*
X0094849Y0052783D01*
X0094828Y0052712D01*
X0094804Y0052643D01*
X0094776Y0052576D01*
X0094744Y0052509D01*
X0094709Y0052445D01*
X0094671Y0052383D01*
X0094630Y0052322D01*
X0094585Y0052264D01*
X0094537Y0052208D01*
X0094487Y0052155D01*
X0094434Y0052105D01*
X0094378Y0052057D01*
X0094320Y0052012D01*
X0094259Y0051971D01*
X0094197Y0051933D01*
X0094133Y0051898D01*
X0094066Y0051866D01*
X0093999Y0051838D01*
X0093930Y0051814D01*
X0093859Y0051793D01*
X0093788Y0051776D01*
X0093716Y0051762D01*
X0093643Y0051753D01*
X0093570Y0051747D01*
X0093497Y0051745D01*
X0093424Y0051747D01*
X0093351Y0051753D01*
X0093278Y0051762D01*
X0093206Y0051776D01*
X0093135Y0051793D01*
X0093064Y0051814D01*
X0092995Y0051838D01*
X0092928Y0051866D01*
X0092861Y0051898D01*
X0092797Y0051933D01*
X0092735Y0051971D01*
X0092674Y0052012D01*
X0092616Y0052057D01*
X0092560Y0052105D01*
X0092507Y0052155D01*
X0092457Y0052208D01*
X0092409Y0052264D01*
X0092364Y0052322D01*
X0092323Y0052383D01*
X0092285Y0052445D01*
X0092250Y0052509D01*
X0092218Y0052576D01*
X0092190Y0052643D01*
X0092166Y0052712D01*
X0092145Y0052783D01*
X0092128Y0052854D01*
X0092114Y0052926D01*
X0092105Y0052999D01*
X0092099Y0053072D01*
X0092097Y0053145D01*
X0092097Y0054545D01*
X0092099Y0054618D01*
X0092105Y0054691D01*
X0092114Y0054764D01*
X0092128Y0054836D01*
X0092145Y0054907D01*
X0092166Y0054978D01*
X0092190Y0055047D01*
X0092218Y0055114D01*
X0092250Y0055181D01*
X0092285Y0055245D01*
X0092323Y0055307D01*
X0092364Y0055368D01*
X0092409Y0055426D01*
X0092457Y0055482D01*
X0092507Y0055535D01*
X0092560Y0055585D01*
X0092616Y0055633D01*
X0092674Y0055678D01*
X0092735Y0055719D01*
X0092797Y0055757D01*
X0092861Y0055792D01*
X0092928Y0055824D01*
X0092995Y0055852D01*
X0093064Y0055876D01*
X0093135Y0055897D01*
X0093206Y0055914D01*
X0093278Y0055928D01*
X0093351Y0055937D01*
X0093424Y0055943D01*
X0093497Y0055945D01*
X0093570Y0055943D01*
X0093643Y0055937D01*
X0093716Y0055928D01*
X0093788Y0055914D01*
X0093859Y0055897D01*
X0093930Y0055876D01*
X0093999Y0055852D01*
X0094066Y0055824D01*
X0094133Y0055792D01*
X0094197Y0055757D01*
X0094259Y0055719D01*
X0094320Y0055678D01*
X0094378Y0055633D01*
X0094434Y0055585D01*
X0094487Y0055535D01*
X0094537Y0055482D01*
X0094585Y0055426D01*
X0094630Y0055368D01*
X0094671Y0055307D01*
X0094709Y0055245D01*
X0094744Y0055181D01*
X0094776Y0055114D01*
X0094804Y0055047D01*
X0094828Y0054978D01*
X0094849Y0054907D01*
X0094866Y0054836D01*
X0094880Y0054764D01*
X0094889Y0054691D01*
X0094895Y0054618D01*
X0094897Y0054545D01*
X0089648Y0055945D02*
X0088598Y0051745D01*
X0087548Y0054545D01*
X0086498Y0051745D01*
X0085448Y0055945D01*
X0082999Y0054545D02*
X0082999Y0052795D01*
X0082997Y0052732D01*
X0082991Y0052668D01*
X0082982Y0052606D01*
X0082968Y0052544D01*
X0082951Y0052483D01*
X0082931Y0052423D01*
X0082906Y0052364D01*
X0082879Y0052307D01*
X0082848Y0052252D01*
X0082813Y0052199D01*
X0082776Y0052147D01*
X0082735Y0052099D01*
X0082691Y0052053D01*
X0082645Y0052009D01*
X0082597Y0051968D01*
X0082545Y0051931D01*
X0082492Y0051896D01*
X0082437Y0051865D01*
X0082380Y0051838D01*
X0082321Y0051813D01*
X0082261Y0051793D01*
X0082200Y0051776D01*
X0082138Y0051762D01*
X0082076Y0051753D01*
X0082012Y0051747D01*
X0081949Y0051745D01*
X0080199Y0051745D01*
X0077424Y0051745D02*
X0077424Y0055945D01*
X0075324Y0055945D01*
X0075324Y0055245D01*
X0080199Y0054545D02*
X0080199Y0053845D01*
X0082999Y0053845D01*
X0082999Y0054545D02*
X0082997Y0054618D01*
X0082991Y0054691D01*
X0082982Y0054764D01*
X0082968Y0054836D01*
X0082951Y0054907D01*
X0082930Y0054978D01*
X0082906Y0055047D01*
X0082878Y0055114D01*
X0082846Y0055181D01*
X0082811Y0055245D01*
X0082773Y0055307D01*
X0082732Y0055368D01*
X0082687Y0055426D01*
X0082639Y0055482D01*
X0082589Y0055535D01*
X0082536Y0055585D01*
X0082480Y0055633D01*
X0082422Y0055678D01*
X0082361Y0055719D01*
X0082299Y0055757D01*
X0082235Y0055792D01*
X0082168Y0055824D01*
X0082101Y0055852D01*
X0082032Y0055876D01*
X0081961Y0055897D01*
X0081890Y0055914D01*
X0081818Y0055928D01*
X0081745Y0055937D01*
X0081672Y0055943D01*
X0081599Y0055945D01*
X0081526Y0055943D01*
X0081453Y0055937D01*
X0081380Y0055928D01*
X0081308Y0055914D01*
X0081237Y0055897D01*
X0081166Y0055876D01*
X0081097Y0055852D01*
X0081030Y0055824D01*
X0080963Y0055792D01*
X0080899Y0055757D01*
X0080837Y0055719D01*
X0080776Y0055678D01*
X0080718Y0055633D01*
X0080662Y0055585D01*
X0080609Y0055535D01*
X0080559Y0055482D01*
X0080511Y0055426D01*
X0080466Y0055368D01*
X0080425Y0055307D01*
X0080387Y0055245D01*
X0080352Y0055181D01*
X0080320Y0055114D01*
X0080292Y0055047D01*
X0080268Y0054978D01*
X0080247Y0054907D01*
X0080230Y0054836D01*
X0080216Y0054764D01*
X0080207Y0054691D01*
X0080201Y0054618D01*
X0080199Y0054545D01*
X0069346Y0055420D02*
X0067421Y0054370D01*
X0068121Y0051745D02*
X0068227Y0051747D01*
X0068333Y0051753D01*
X0068439Y0051762D01*
X0068544Y0051775D01*
X0068649Y0051792D01*
X0068753Y0051813D01*
X0068856Y0051838D01*
X0068959Y0051866D01*
X0069060Y0051898D01*
X0069160Y0051933D01*
X0069259Y0051973D01*
X0069356Y0052015D01*
X0069452Y0052061D01*
X0069546Y0052111D01*
X0069638Y0052163D01*
X0069728Y0052219D01*
X0069816Y0052279D01*
X0069902Y0052341D01*
X0069985Y0052406D01*
X0070067Y0052475D01*
X0070145Y0052546D01*
X0070221Y0052620D01*
X0067421Y0054370D02*
X0067358Y0054331D01*
X0067298Y0054289D01*
X0067240Y0054243D01*
X0067184Y0054195D01*
X0067131Y0054144D01*
X0067080Y0054090D01*
X0067033Y0054033D01*
X0066988Y0053975D01*
X0066947Y0053914D01*
X0066908Y0053851D01*
X0066873Y0053785D01*
X0066842Y0053719D01*
X0066814Y0053650D01*
X0066789Y0053581D01*
X0066769Y0053510D01*
X0066752Y0053438D01*
X0066738Y0053366D01*
X0066729Y0053292D01*
X0066723Y0053219D01*
X0066721Y0053145D01*
X0066723Y0053072D01*
X0066729Y0052999D01*
X0066738Y0052926D01*
X0066752Y0052854D01*
X0066769Y0052783D01*
X0066790Y0052712D01*
X0066814Y0052643D01*
X0066842Y0052576D01*
X0066874Y0052509D01*
X0066909Y0052445D01*
X0066947Y0052383D01*
X0066988Y0052322D01*
X0067033Y0052264D01*
X0067081Y0052208D01*
X0067131Y0052155D01*
X0067184Y0052105D01*
X0067240Y0052057D01*
X0067298Y0052012D01*
X0067359Y0051971D01*
X0067421Y0051933D01*
X0067485Y0051898D01*
X0067552Y0051866D01*
X0067619Y0051838D01*
X0067688Y0051814D01*
X0067759Y0051793D01*
X0067830Y0051776D01*
X0067902Y0051762D01*
X0067975Y0051753D01*
X0068048Y0051747D01*
X0068121Y0051745D01*
X0064127Y0052795D02*
X0064127Y0055945D01*
X0061327Y0055945D02*
X0061327Y0051745D01*
X0063077Y0051745D01*
X0063140Y0051747D01*
X0063204Y0051753D01*
X0063266Y0051762D01*
X0063328Y0051776D01*
X0063389Y0051793D01*
X0063449Y0051813D01*
X0063508Y0051838D01*
X0063565Y0051865D01*
X0063620Y0051896D01*
X0063673Y0051931D01*
X0063725Y0051968D01*
X0063773Y0052009D01*
X0063819Y0052053D01*
X0063863Y0052099D01*
X0063904Y0052147D01*
X0063941Y0052199D01*
X0063976Y0052252D01*
X0064007Y0052307D01*
X0064034Y0052364D01*
X0064059Y0052423D01*
X0064079Y0052483D01*
X0064096Y0052544D01*
X0064110Y0052606D01*
X0064119Y0052668D01*
X0064125Y0052732D01*
X0064127Y0052795D01*
X0067071Y0057520D02*
X0067152Y0057578D01*
X0067234Y0057633D01*
X0067319Y0057685D01*
X0067406Y0057734D01*
X0067494Y0057779D01*
X0067584Y0057821D01*
X0067676Y0057859D01*
X0067769Y0057894D01*
X0067863Y0057926D01*
X0067959Y0057953D01*
X0068055Y0057978D01*
X0068152Y0057998D01*
X0068250Y0058015D01*
X0068349Y0058028D01*
X0068447Y0058037D01*
X0068547Y0058043D01*
X0068646Y0058045D01*
X0068719Y0058043D01*
X0068792Y0058037D01*
X0068865Y0058028D01*
X0068937Y0058014D01*
X0069008Y0057997D01*
X0069079Y0057976D01*
X0069148Y0057952D01*
X0069215Y0057924D01*
X0069282Y0057892D01*
X0069346Y0057857D01*
X0069408Y0057819D01*
X0069469Y0057778D01*
X0069527Y0057733D01*
X0069583Y0057685D01*
X0069636Y0057635D01*
X0069686Y0057582D01*
X0069734Y0057526D01*
X0069779Y0057468D01*
X0069820Y0057407D01*
X0069858Y0057345D01*
X0069893Y0057281D01*
X0069925Y0057214D01*
X0069953Y0057147D01*
X0069977Y0057078D01*
X0069998Y0057007D01*
X0070015Y0056936D01*
X0070029Y0056864D01*
X0070038Y0056791D01*
X0070044Y0056718D01*
X0070046Y0056645D01*
X0070044Y0056571D01*
X0070038Y0056498D01*
X0070029Y0056424D01*
X0070015Y0056352D01*
X0069998Y0056280D01*
X0069978Y0056209D01*
X0069953Y0056140D01*
X0069925Y0056071D01*
X0069894Y0056005D01*
X0069859Y0055939D01*
X0069820Y0055876D01*
X0069779Y0055815D01*
X0069734Y0055757D01*
X0069687Y0055700D01*
X0069636Y0055646D01*
X0069583Y0055595D01*
X0069527Y0055547D01*
X0069469Y0055501D01*
X0069409Y0055459D01*
X0069346Y0055420D01*
X0058351Y0055945D02*
X0056601Y0055945D01*
X0056538Y0055943D01*
X0056474Y0055937D01*
X0056412Y0055928D01*
X0056350Y0055914D01*
X0056289Y0055897D01*
X0056229Y0055877D01*
X0056170Y0055852D01*
X0056113Y0055825D01*
X0056058Y0055794D01*
X0056005Y0055759D01*
X0055953Y0055722D01*
X0055905Y0055681D01*
X0055859Y0055637D01*
X0055815Y0055591D01*
X0055774Y0055543D01*
X0055737Y0055491D01*
X0055702Y0055438D01*
X0055671Y0055383D01*
X0055644Y0055326D01*
X0055619Y0055267D01*
X0055599Y0055207D01*
X0055582Y0055146D01*
X0055568Y0055084D01*
X0055559Y0055022D01*
X0055553Y0054958D01*
X0055551Y0054895D01*
X0055551Y0052795D01*
X0055553Y0052732D01*
X0055559Y0052668D01*
X0055568Y0052606D01*
X0055582Y0052544D01*
X0055599Y0052483D01*
X0055619Y0052423D01*
X0055644Y0052364D01*
X0055671Y0052307D01*
X0055702Y0052252D01*
X0055737Y0052199D01*
X0055774Y0052147D01*
X0055815Y0052099D01*
X0055859Y0052053D01*
X0055905Y0052009D01*
X0055953Y0051968D01*
X0056005Y0051931D01*
X0056058Y0051896D01*
X0056113Y0051865D01*
X0056170Y0051838D01*
X0056229Y0051813D01*
X0056289Y0051793D01*
X0056350Y0051776D01*
X0056412Y0051762D01*
X0056474Y0051753D01*
X0056538Y0051747D01*
X0056601Y0051745D01*
X0058351Y0051745D01*
X0058351Y0049645D02*
X0058351Y0055945D01*
X0052813Y0055945D02*
X0051063Y0055945D01*
X0051000Y0055943D01*
X0050936Y0055937D01*
X0050874Y0055928D01*
X0050812Y0055914D01*
X0050751Y0055897D01*
X0050691Y0055877D01*
X0050632Y0055852D01*
X0050575Y0055825D01*
X0050520Y0055794D01*
X0050467Y0055759D01*
X0050415Y0055722D01*
X0050367Y0055681D01*
X0050321Y0055637D01*
X0050277Y0055591D01*
X0050236Y0055543D01*
X0050199Y0055491D01*
X0050164Y0055438D01*
X0050133Y0055383D01*
X0050106Y0055326D01*
X0050081Y0055267D01*
X0050061Y0055207D01*
X0050044Y0055146D01*
X0050030Y0055084D01*
X0050021Y0055022D01*
X0050015Y0054958D01*
X0050013Y0054895D01*
X0050013Y0052795D01*
X0050015Y0052732D01*
X0050021Y0052668D01*
X0050030Y0052606D01*
X0050044Y0052544D01*
X0050061Y0052483D01*
X0050081Y0052423D01*
X0050106Y0052364D01*
X0050133Y0052307D01*
X0050164Y0052252D01*
X0050199Y0052199D01*
X0050236Y0052147D01*
X0050277Y0052099D01*
X0050321Y0052053D01*
X0050367Y0052009D01*
X0050415Y0051968D01*
X0050467Y0051931D01*
X0050520Y0051896D01*
X0050575Y0051865D01*
X0050632Y0051838D01*
X0050691Y0051813D01*
X0050751Y0051793D01*
X0050812Y0051776D01*
X0050874Y0051762D01*
X0050936Y0051753D01*
X0051000Y0051747D01*
X0051063Y0051745D01*
X0052813Y0051745D01*
X0052813Y0049645D02*
X0052813Y0055945D01*
X0047429Y0058045D02*
X0047429Y0052795D01*
X0047427Y0052732D01*
X0047421Y0052668D01*
X0047412Y0052606D01*
X0047398Y0052544D01*
X0047381Y0052483D01*
X0047361Y0052423D01*
X0047336Y0052364D01*
X0047309Y0052307D01*
X0047278Y0052252D01*
X0047243Y0052199D01*
X0047206Y0052147D01*
X0047165Y0052099D01*
X0047121Y0052053D01*
X0047075Y0052009D01*
X0047027Y0051968D01*
X0046975Y0051931D01*
X0046922Y0051896D01*
X0046867Y0051865D01*
X0046810Y0051838D01*
X0046751Y0051813D01*
X0046691Y0051793D01*
X0046630Y0051776D01*
X0046568Y0051762D01*
X0046506Y0051753D01*
X0046442Y0051747D01*
X0046379Y0051745D01*
X0043034Y0051745D02*
X0044434Y0055945D01*
X0041634Y0055945D02*
X0043734Y0049645D01*
X0044434Y0049645D01*
X0111807Y0047545D02*
X0113557Y0047545D01*
X0113557Y0041245D01*
X0111807Y0041245D01*
X0111725Y0041247D01*
X0111643Y0041253D01*
X0111562Y0041262D01*
X0111481Y0041276D01*
X0111400Y0041293D01*
X0111321Y0041314D01*
X0111243Y0041338D01*
X0111166Y0041367D01*
X0111090Y0041399D01*
X0111016Y0041434D01*
X0110944Y0041473D01*
X0110873Y0041515D01*
X0110805Y0041560D01*
X0110739Y0041609D01*
X0110675Y0041660D01*
X0110614Y0041715D01*
X0110555Y0041772D01*
X0110499Y0041832D01*
X0110446Y0041895D01*
X0110396Y0041960D01*
X0110349Y0042027D01*
X0110305Y0042096D01*
X0110265Y0042168D01*
X0110228Y0042241D01*
X0110194Y0042316D01*
X0110164Y0042392D01*
X0110138Y0042470D01*
X0110115Y0042549D01*
X0110096Y0042628D01*
X0110081Y0042709D01*
X0110069Y0042790D01*
X0110061Y0042872D01*
X0110057Y0042954D01*
X0110057Y0043036D01*
X0110061Y0043118D01*
X0110069Y0043200D01*
X0110081Y0043281D01*
X0110096Y0043362D01*
X0110115Y0043441D01*
X0110138Y0043520D01*
X0110164Y0043598D01*
X0110194Y0043674D01*
X0110228Y0043749D01*
X0110265Y0043822D01*
X0110305Y0043894D01*
X0110349Y0043963D01*
X0110396Y0044030D01*
X0110446Y0044095D01*
X0110499Y0044158D01*
X0110555Y0044218D01*
X0110614Y0044275D01*
X0110675Y0044330D01*
X0110739Y0044381D01*
X0110805Y0044430D01*
X0110873Y0044475D01*
X0110944Y0044517D01*
X0111016Y0044556D01*
X0111090Y0044591D01*
X0111166Y0044623D01*
X0111243Y0044652D01*
X0111321Y0044676D01*
X0111400Y0044697D01*
X0111481Y0044714D01*
X0111562Y0044728D01*
X0111643Y0044737D01*
X0111725Y0044743D01*
X0111807Y0044745D01*
X0113557Y0044745D01*
X0116713Y0045795D02*
X0116713Y0042995D01*
X0116715Y0042914D01*
X0116720Y0042834D01*
X0116730Y0042753D01*
X0116743Y0042673D01*
X0116759Y0042594D01*
X0116780Y0042516D01*
X0116804Y0042439D01*
X0116831Y0042363D01*
X0116862Y0042288D01*
X0116896Y0042215D01*
X0116934Y0042143D01*
X0116975Y0042074D01*
X0117019Y0042006D01*
X0117066Y0041940D01*
X0117117Y0041877D01*
X0117170Y0041816D01*
X0117226Y0041758D01*
X0117284Y0041702D01*
X0117345Y0041649D01*
X0117408Y0041598D01*
X0117474Y0041551D01*
X0117542Y0041507D01*
X0117611Y0041466D01*
X0117683Y0041428D01*
X0117756Y0041394D01*
X0117831Y0041363D01*
X0117907Y0041336D01*
X0117984Y0041312D01*
X0118062Y0041291D01*
X0118141Y0041275D01*
X0118221Y0041262D01*
X0118302Y0041252D01*
X0118382Y0041247D01*
X0118463Y0041245D01*
X0120213Y0041245D01*
X0120213Y0047545D01*
X0118463Y0047545D01*
X0118382Y0047543D01*
X0118302Y0047538D01*
X0118221Y0047528D01*
X0118141Y0047515D01*
X0118062Y0047499D01*
X0117984Y0047478D01*
X0117907Y0047454D01*
X0117831Y0047427D01*
X0117756Y0047396D01*
X0117683Y0047362D01*
X0117611Y0047324D01*
X0117542Y0047283D01*
X0117474Y0047239D01*
X0117408Y0047192D01*
X0117345Y0047141D01*
X0117284Y0047088D01*
X0117226Y0047032D01*
X0117170Y0046974D01*
X0117117Y0046913D01*
X0117066Y0046850D01*
X0117019Y0046784D01*
X0116975Y0046716D01*
X0116934Y0046647D01*
X0116896Y0046575D01*
X0116862Y0046502D01*
X0116831Y0046427D01*
X0116804Y0046351D01*
X0116780Y0046274D01*
X0116759Y0046196D01*
X0116743Y0046117D01*
X0116730Y0046037D01*
X0116720Y0045956D01*
X0116715Y0045876D01*
X0116713Y0045795D01*
X0111807Y0044745D02*
X0111734Y0044747D01*
X0111661Y0044753D01*
X0111588Y0044762D01*
X0111516Y0044776D01*
X0111445Y0044793D01*
X0111374Y0044814D01*
X0111305Y0044838D01*
X0111238Y0044866D01*
X0111171Y0044898D01*
X0111107Y0044933D01*
X0111045Y0044971D01*
X0110984Y0045012D01*
X0110926Y0045057D01*
X0110870Y0045105D01*
X0110817Y0045155D01*
X0110767Y0045208D01*
X0110719Y0045264D01*
X0110674Y0045322D01*
X0110633Y0045383D01*
X0110595Y0045445D01*
X0110560Y0045509D01*
X0110528Y0045576D01*
X0110500Y0045643D01*
X0110476Y0045712D01*
X0110455Y0045783D01*
X0110438Y0045854D01*
X0110424Y0045926D01*
X0110415Y0045999D01*
X0110409Y0046072D01*
X0110407Y0046145D01*
X0110409Y0046218D01*
X0110415Y0046291D01*
X0110424Y0046364D01*
X0110438Y0046436D01*
X0110455Y0046507D01*
X0110476Y0046578D01*
X0110500Y0046647D01*
X0110528Y0046714D01*
X0110560Y0046781D01*
X0110595Y0046845D01*
X0110633Y0046907D01*
X0110674Y0046968D01*
X0110719Y0047026D01*
X0110767Y0047082D01*
X0110817Y0047135D01*
X0110870Y0047185D01*
X0110926Y0047233D01*
X0110984Y0047278D01*
X0111045Y0047319D01*
X0111107Y0047357D01*
X0111171Y0047392D01*
X0111238Y0047424D01*
X0111305Y0047452D01*
X0111374Y0047476D01*
X0111445Y0047497D01*
X0111516Y0047514D01*
X0111588Y0047528D01*
X0111661Y0047537D01*
X0111734Y0047543D01*
X0111807Y0047545D01*
X0126089Y0045445D02*
X0128189Y0039145D01*
X0128889Y0039145D01*
X0127489Y0041245D02*
X0128889Y0045445D01*
X0131186Y0044395D02*
X0131186Y0042295D01*
X0131188Y0042232D01*
X0131194Y0042168D01*
X0131203Y0042106D01*
X0131217Y0042044D01*
X0131234Y0041983D01*
X0131254Y0041923D01*
X0131279Y0041864D01*
X0131306Y0041807D01*
X0131337Y0041752D01*
X0131372Y0041699D01*
X0131409Y0041647D01*
X0131450Y0041599D01*
X0131494Y0041553D01*
X0131540Y0041509D01*
X0131588Y0041468D01*
X0131640Y0041431D01*
X0131693Y0041396D01*
X0131748Y0041365D01*
X0131805Y0041338D01*
X0131864Y0041313D01*
X0131924Y0041293D01*
X0131985Y0041276D01*
X0132047Y0041262D01*
X0132109Y0041253D01*
X0132173Y0041247D01*
X0132236Y0041245D01*
X0133986Y0041245D01*
X0133986Y0047545D01*
X0133986Y0045445D02*
X0132236Y0045445D01*
X0132173Y0045443D01*
X0132109Y0045437D01*
X0132047Y0045428D01*
X0131985Y0045414D01*
X0131924Y0045397D01*
X0131864Y0045377D01*
X0131805Y0045352D01*
X0131748Y0045325D01*
X0131693Y0045294D01*
X0131640Y0045259D01*
X0131588Y0045222D01*
X0131540Y0045181D01*
X0131494Y0045137D01*
X0131450Y0045091D01*
X0131409Y0045043D01*
X0131372Y0044991D01*
X0131337Y0044938D01*
X0131306Y0044883D01*
X0131279Y0044826D01*
X0131254Y0044767D01*
X0131234Y0044707D01*
X0131217Y0044646D01*
X0131203Y0044584D01*
X0131194Y0044522D01*
X0131188Y0044458D01*
X0131186Y0044395D01*
X0140098Y0042995D02*
X0140100Y0042913D01*
X0140106Y0042831D01*
X0140115Y0042750D01*
X0140129Y0042669D01*
X0140146Y0042588D01*
X0140167Y0042509D01*
X0140191Y0042431D01*
X0140220Y0042354D01*
X0140252Y0042278D01*
X0140287Y0042204D01*
X0140326Y0042132D01*
X0140368Y0042061D01*
X0140413Y0041993D01*
X0140462Y0041927D01*
X0140513Y0041863D01*
X0140568Y0041802D01*
X0140625Y0041743D01*
X0140685Y0041687D01*
X0140748Y0041634D01*
X0140813Y0041584D01*
X0140880Y0041537D01*
X0140949Y0041493D01*
X0141021Y0041453D01*
X0141094Y0041416D01*
X0141169Y0041382D01*
X0141245Y0041352D01*
X0141323Y0041326D01*
X0141402Y0041303D01*
X0141481Y0041284D01*
X0141562Y0041269D01*
X0141643Y0041257D01*
X0141725Y0041249D01*
X0141807Y0041245D01*
X0141889Y0041245D01*
X0141971Y0041249D01*
X0142053Y0041257D01*
X0142134Y0041269D01*
X0142215Y0041284D01*
X0142294Y0041303D01*
X0142373Y0041326D01*
X0142451Y0041352D01*
X0142527Y0041382D01*
X0142602Y0041416D01*
X0142675Y0041453D01*
X0142747Y0041493D01*
X0142816Y0041537D01*
X0142883Y0041584D01*
X0142948Y0041634D01*
X0143011Y0041687D01*
X0143071Y0041743D01*
X0143128Y0041802D01*
X0143183Y0041863D01*
X0143234Y0041927D01*
X0143283Y0041993D01*
X0143328Y0042061D01*
X0143370Y0042132D01*
X0143409Y0042204D01*
X0143444Y0042278D01*
X0143476Y0042354D01*
X0143505Y0042431D01*
X0143529Y0042509D01*
X0143550Y0042588D01*
X0143567Y0042669D01*
X0143581Y0042750D01*
X0143590Y0042831D01*
X0143596Y0042913D01*
X0143598Y0042995D01*
X0143596Y0043077D01*
X0143590Y0043159D01*
X0143581Y0043240D01*
X0143567Y0043321D01*
X0143550Y0043402D01*
X0143529Y0043481D01*
X0143505Y0043559D01*
X0143476Y0043636D01*
X0143444Y0043712D01*
X0143409Y0043786D01*
X0143370Y0043858D01*
X0143328Y0043929D01*
X0143283Y0043997D01*
X0143234Y0044063D01*
X0143183Y0044127D01*
X0143128Y0044188D01*
X0143071Y0044247D01*
X0143011Y0044303D01*
X0142948Y0044356D01*
X0142883Y0044406D01*
X0142816Y0044453D01*
X0142747Y0044497D01*
X0142675Y0044537D01*
X0142602Y0044574D01*
X0142527Y0044608D01*
X0142451Y0044638D01*
X0142373Y0044664D01*
X0142294Y0044687D01*
X0142215Y0044706D01*
X0142134Y0044721D01*
X0142053Y0044733D01*
X0141971Y0044741D01*
X0141889Y0044745D01*
X0141807Y0044745D01*
X0141725Y0044741D01*
X0141643Y0044733D01*
X0141562Y0044721D01*
X0141481Y0044706D01*
X0141402Y0044687D01*
X0141323Y0044664D01*
X0141245Y0044638D01*
X0141169Y0044608D01*
X0141094Y0044574D01*
X0141021Y0044537D01*
X0140949Y0044497D01*
X0140880Y0044453D01*
X0140813Y0044406D01*
X0140748Y0044356D01*
X0140685Y0044303D01*
X0140625Y0044247D01*
X0140568Y0044188D01*
X0140513Y0044127D01*
X0140462Y0044063D01*
X0140413Y0043997D01*
X0140368Y0043929D01*
X0140326Y0043858D01*
X0140287Y0043786D01*
X0140252Y0043712D01*
X0140220Y0043636D01*
X0140191Y0043559D01*
X0140167Y0043481D01*
X0140146Y0043402D01*
X0140129Y0043321D01*
X0140115Y0043240D01*
X0140106Y0043159D01*
X0140100Y0043077D01*
X0140098Y0042995D01*
X0140448Y0046145D02*
X0140450Y0046072D01*
X0140456Y0045999D01*
X0140465Y0045926D01*
X0140479Y0045854D01*
X0140496Y0045783D01*
X0140517Y0045712D01*
X0140541Y0045643D01*
X0140569Y0045576D01*
X0140601Y0045509D01*
X0140636Y0045445D01*
X0140674Y0045383D01*
X0140715Y0045322D01*
X0140760Y0045264D01*
X0140808Y0045208D01*
X0140858Y0045155D01*
X0140911Y0045105D01*
X0140967Y0045057D01*
X0141025Y0045012D01*
X0141086Y0044971D01*
X0141148Y0044933D01*
X0141212Y0044898D01*
X0141279Y0044866D01*
X0141346Y0044838D01*
X0141415Y0044814D01*
X0141486Y0044793D01*
X0141557Y0044776D01*
X0141629Y0044762D01*
X0141702Y0044753D01*
X0141775Y0044747D01*
X0141848Y0044745D01*
X0141921Y0044747D01*
X0141994Y0044753D01*
X0142067Y0044762D01*
X0142139Y0044776D01*
X0142210Y0044793D01*
X0142281Y0044814D01*
X0142350Y0044838D01*
X0142417Y0044866D01*
X0142484Y0044898D01*
X0142548Y0044933D01*
X0142610Y0044971D01*
X0142671Y0045012D01*
X0142729Y0045057D01*
X0142785Y0045105D01*
X0142838Y0045155D01*
X0142888Y0045208D01*
X0142936Y0045264D01*
X0142981Y0045322D01*
X0143022Y0045383D01*
X0143060Y0045445D01*
X0143095Y0045509D01*
X0143127Y0045576D01*
X0143155Y0045643D01*
X0143179Y0045712D01*
X0143200Y0045783D01*
X0143217Y0045854D01*
X0143231Y0045926D01*
X0143240Y0045999D01*
X0143246Y0046072D01*
X0143248Y0046145D01*
X0143246Y0046218D01*
X0143240Y0046291D01*
X0143231Y0046364D01*
X0143217Y0046436D01*
X0143200Y0046507D01*
X0143179Y0046578D01*
X0143155Y0046647D01*
X0143127Y0046714D01*
X0143095Y0046781D01*
X0143060Y0046845D01*
X0143022Y0046907D01*
X0142981Y0046968D01*
X0142936Y0047026D01*
X0142888Y0047082D01*
X0142838Y0047135D01*
X0142785Y0047185D01*
X0142729Y0047233D01*
X0142671Y0047278D01*
X0142610Y0047319D01*
X0142548Y0047357D01*
X0142484Y0047392D01*
X0142417Y0047424D01*
X0142350Y0047452D01*
X0142281Y0047476D01*
X0142210Y0047497D01*
X0142139Y0047514D01*
X0142067Y0047528D01*
X0141994Y0047537D01*
X0141921Y0047543D01*
X0141848Y0047545D01*
X0141775Y0047543D01*
X0141702Y0047537D01*
X0141629Y0047528D01*
X0141557Y0047514D01*
X0141486Y0047497D01*
X0141415Y0047476D01*
X0141346Y0047452D01*
X0141279Y0047424D01*
X0141212Y0047392D01*
X0141148Y0047357D01*
X0141086Y0047319D01*
X0141025Y0047278D01*
X0140967Y0047233D01*
X0140911Y0047185D01*
X0140858Y0047135D01*
X0140808Y0047082D01*
X0140760Y0047026D01*
X0140715Y0046968D01*
X0140674Y0046907D01*
X0140636Y0046845D01*
X0140601Y0046781D01*
X0140569Y0046714D01*
X0140541Y0046647D01*
X0140517Y0046578D01*
X0140496Y0046507D01*
X0140479Y0046436D01*
X0140465Y0046364D01*
X0140456Y0046291D01*
X0140450Y0046218D01*
X0140448Y0046145D01*
X0148002Y0047545D02*
X0148002Y0041245D01*
X0149752Y0041245D02*
X0146252Y0041245D01*
X0155382Y0042120D02*
X0155441Y0042245D01*
X0155497Y0042372D01*
X0155549Y0042500D01*
X0155598Y0042630D01*
X0155643Y0042761D01*
X0155685Y0042893D01*
X0155723Y0043026D01*
X0155758Y0043160D01*
X0155789Y0043295D01*
X0155817Y0043431D01*
X0155841Y0043567D01*
X0155861Y0043704D01*
X0155877Y0043842D01*
X0155890Y0043980D01*
X0155900Y0044118D01*
X0155905Y0044256D01*
X0155907Y0044395D01*
X0152406Y0044395D02*
X0152408Y0044256D01*
X0152413Y0044118D01*
X0152423Y0043980D01*
X0152436Y0043842D01*
X0152452Y0043704D01*
X0152472Y0043567D01*
X0152496Y0043431D01*
X0152524Y0043295D01*
X0152555Y0043160D01*
X0152590Y0043026D01*
X0152628Y0042893D01*
X0152670Y0042761D01*
X0152715Y0042630D01*
X0152764Y0042500D01*
X0152816Y0042372D01*
X0152872Y0042245D01*
X0152931Y0042120D01*
X0152955Y0042055D01*
X0152983Y0041991D01*
X0153015Y0041928D01*
X0153049Y0041867D01*
X0153087Y0041809D01*
X0153128Y0041752D01*
X0153172Y0041698D01*
X0153219Y0041646D01*
X0153268Y0041597D01*
X0153321Y0041550D01*
X0153375Y0041507D01*
X0153432Y0041466D01*
X0153491Y0041429D01*
X0153552Y0041395D01*
X0153614Y0041364D01*
X0153679Y0041336D01*
X0153744Y0041312D01*
X0153811Y0041292D01*
X0153879Y0041275D01*
X0153947Y0041262D01*
X0154017Y0041253D01*
X0154086Y0041247D01*
X0154156Y0041245D01*
X0154226Y0041247D01*
X0154295Y0041253D01*
X0154365Y0041262D01*
X0154433Y0041275D01*
X0154501Y0041292D01*
X0154568Y0041312D01*
X0154633Y0041336D01*
X0154698Y0041364D01*
X0154760Y0041395D01*
X0154821Y0041429D01*
X0154880Y0041466D01*
X0154937Y0041507D01*
X0154991Y0041550D01*
X0155044Y0041597D01*
X0155093Y0041646D01*
X0155140Y0041698D01*
X0155184Y0041752D01*
X0155225Y0041809D01*
X0155263Y0041867D01*
X0155297Y0041928D01*
X0155329Y0041991D01*
X0155357Y0042055D01*
X0155381Y0042120D01*
X0155556Y0042645D02*
X0152756Y0046145D01*
X0152931Y0046670D02*
X0152955Y0046735D01*
X0152983Y0046799D01*
X0153015Y0046862D01*
X0153049Y0046923D01*
X0153087Y0046981D01*
X0153128Y0047038D01*
X0153172Y0047092D01*
X0153219Y0047144D01*
X0153268Y0047193D01*
X0153321Y0047240D01*
X0153375Y0047283D01*
X0153432Y0047324D01*
X0153491Y0047361D01*
X0153552Y0047395D01*
X0153614Y0047426D01*
X0153679Y0047454D01*
X0153744Y0047478D01*
X0153811Y0047498D01*
X0153879Y0047515D01*
X0153947Y0047528D01*
X0154017Y0047537D01*
X0154086Y0047543D01*
X0154156Y0047545D01*
X0154226Y0047543D01*
X0154295Y0047537D01*
X0154365Y0047528D01*
X0154433Y0047515D01*
X0154501Y0047498D01*
X0154568Y0047478D01*
X0154633Y0047454D01*
X0154698Y0047426D01*
X0154760Y0047395D01*
X0154821Y0047361D01*
X0154880Y0047324D01*
X0154937Y0047283D01*
X0154991Y0047240D01*
X0155044Y0047193D01*
X0155093Y0047144D01*
X0155140Y0047092D01*
X0155184Y0047038D01*
X0155225Y0046981D01*
X0155263Y0046923D01*
X0155297Y0046862D01*
X0155329Y0046799D01*
X0155357Y0046735D01*
X0155381Y0046670D01*
X0158560Y0045970D02*
X0158562Y0046047D01*
X0158568Y0046124D01*
X0158577Y0046201D01*
X0158590Y0046277D01*
X0158607Y0046353D01*
X0158628Y0046427D01*
X0158652Y0046501D01*
X0158680Y0046573D01*
X0158711Y0046643D01*
X0158746Y0046712D01*
X0158784Y0046780D01*
X0158825Y0046845D01*
X0158870Y0046908D01*
X0158918Y0046969D01*
X0158968Y0047028D01*
X0159021Y0047084D01*
X0159077Y0047137D01*
X0159136Y0047187D01*
X0159197Y0047235D01*
X0159260Y0047280D01*
X0159325Y0047321D01*
X0159393Y0047359D01*
X0159462Y0047394D01*
X0159532Y0047425D01*
X0159604Y0047453D01*
X0159678Y0047477D01*
X0159752Y0047498D01*
X0159828Y0047515D01*
X0159904Y0047528D01*
X0159981Y0047537D01*
X0160058Y0047543D01*
X0160135Y0047545D01*
X0158560Y0045970D02*
X0158562Y0045889D01*
X0158568Y0045809D01*
X0158577Y0045729D01*
X0158591Y0045650D01*
X0158608Y0045571D01*
X0158629Y0045493D01*
X0158653Y0045416D01*
X0158681Y0045341D01*
X0158713Y0045267D01*
X0158748Y0045194D01*
X0158787Y0045123D01*
X0158829Y0045055D01*
X0158874Y0044988D01*
X0158923Y0044923D01*
X0158974Y0044861D01*
X0159028Y0044802D01*
X0159085Y0044745D01*
X0162060Y0041245D01*
X0158560Y0041245D01*
X0152406Y0044395D02*
X0152408Y0044534D01*
X0152413Y0044672D01*
X0152423Y0044810D01*
X0152436Y0044948D01*
X0152452Y0045086D01*
X0152472Y0045223D01*
X0152496Y0045359D01*
X0152524Y0045495D01*
X0152555Y0045630D01*
X0152590Y0045764D01*
X0152628Y0045897D01*
X0152670Y0046029D01*
X0152715Y0046160D01*
X0152764Y0046290D01*
X0152816Y0046418D01*
X0152872Y0046545D01*
X0152931Y0046670D01*
X0149752Y0046145D02*
X0148002Y0047545D01*
X0155382Y0046670D02*
X0155441Y0046545D01*
X0155497Y0046418D01*
X0155549Y0046290D01*
X0155598Y0046160D01*
X0155643Y0046029D01*
X0155685Y0045897D01*
X0155723Y0045764D01*
X0155758Y0045630D01*
X0155789Y0045495D01*
X0155817Y0045359D01*
X0155841Y0045223D01*
X0155861Y0045086D01*
X0155877Y0044948D01*
X0155890Y0044810D01*
X0155900Y0044672D01*
X0155905Y0044534D01*
X0155907Y0044395D01*
X0160135Y0047545D02*
X0160223Y0047543D01*
X0160310Y0047537D01*
X0160397Y0047528D01*
X0160484Y0047515D01*
X0160570Y0047498D01*
X0160655Y0047477D01*
X0160740Y0047453D01*
X0160823Y0047424D01*
X0160905Y0047393D01*
X0160985Y0047358D01*
X0161064Y0047319D01*
X0161141Y0047277D01*
X0161216Y0047232D01*
X0161289Y0047183D01*
X0161360Y0047132D01*
X0161429Y0047077D01*
X0161495Y0047020D01*
X0161559Y0046959D01*
X0161620Y0046896D01*
X0161678Y0046831D01*
X0161733Y0046763D01*
X0161785Y0046692D01*
X0161834Y0046619D01*
X0161880Y0046545D01*
X0161923Y0046468D01*
X0161962Y0046390D01*
X0161998Y0046310D01*
X0162031Y0046228D01*
X0162060Y0046145D01*
X0151917Y0051745D02*
X0150517Y0051745D01*
X0151917Y0051745D02*
X0151990Y0051747D01*
X0152063Y0051753D01*
X0152136Y0051762D01*
X0152208Y0051776D01*
X0152279Y0051793D01*
X0152350Y0051814D01*
X0152419Y0051838D01*
X0152486Y0051866D01*
X0152553Y0051898D01*
X0152617Y0051933D01*
X0152679Y0051971D01*
X0152740Y0052012D01*
X0152798Y0052057D01*
X0152854Y0052105D01*
X0152907Y0052155D01*
X0152957Y0052208D01*
X0153005Y0052264D01*
X0153050Y0052322D01*
X0153091Y0052383D01*
X0153129Y0052445D01*
X0153164Y0052509D01*
X0153196Y0052576D01*
X0153224Y0052643D01*
X0153248Y0052712D01*
X0153269Y0052783D01*
X0153286Y0052854D01*
X0153300Y0052926D01*
X0153309Y0052999D01*
X0153315Y0053072D01*
X0153317Y0053145D01*
X0134650Y0053145D02*
X0134648Y0053072D01*
X0134642Y0052999D01*
X0134633Y0052926D01*
X0134619Y0052854D01*
X0134602Y0052783D01*
X0134581Y0052712D01*
X0134557Y0052643D01*
X0134529Y0052576D01*
X0134497Y0052509D01*
X0134462Y0052445D01*
X0134424Y0052383D01*
X0134383Y0052322D01*
X0134338Y0052264D01*
X0134290Y0052208D01*
X0134240Y0052155D01*
X0134187Y0052105D01*
X0134131Y0052057D01*
X0134073Y0052012D01*
X0134012Y0051971D01*
X0133950Y0051933D01*
X0133886Y0051898D01*
X0133819Y0051866D01*
X0133752Y0051838D01*
X0133683Y0051814D01*
X0133612Y0051793D01*
X0133541Y0051776D01*
X0133469Y0051762D01*
X0133396Y0051753D01*
X0133323Y0051747D01*
X0133250Y0051745D01*
X0131850Y0051745D01*
X0185218Y0051745D02*
X0185568Y0051745D01*
X0185631Y0051747D01*
X0185695Y0051753D01*
X0185757Y0051762D01*
X0185819Y0051776D01*
X0185880Y0051793D01*
X0185940Y0051813D01*
X0185999Y0051838D01*
X0186056Y0051865D01*
X0186111Y0051896D01*
X0186164Y0051931D01*
X0186216Y0051968D01*
X0186264Y0052009D01*
X0186310Y0052053D01*
X0186354Y0052099D01*
X0186395Y0052147D01*
X0186432Y0052199D01*
X0186467Y0052252D01*
X0186498Y0052307D01*
X0186525Y0052364D01*
X0186550Y0052423D01*
X0186570Y0052483D01*
X0186587Y0052544D01*
X0186601Y0052606D01*
X0186610Y0052668D01*
X0186616Y0052732D01*
X0186618Y0052795D01*
X0186954Y0045445D02*
X0186891Y0045443D01*
X0186827Y0045437D01*
X0186765Y0045428D01*
X0186703Y0045414D01*
X0186642Y0045397D01*
X0186582Y0045377D01*
X0186523Y0045352D01*
X0186466Y0045325D01*
X0186411Y0045294D01*
X0186358Y0045259D01*
X0186306Y0045222D01*
X0186258Y0045181D01*
X0186212Y0045137D01*
X0186168Y0045091D01*
X0186127Y0045043D01*
X0186090Y0044991D01*
X0186055Y0044938D01*
X0186024Y0044883D01*
X0185997Y0044826D01*
X0185972Y0044767D01*
X0185952Y0044707D01*
X0185935Y0044646D01*
X0185921Y0044584D01*
X0185912Y0044522D01*
X0185906Y0044458D01*
X0185904Y0044395D01*
X0140177Y0026545D02*
X0140177Y0026195D01*
X0139827Y0026195D01*
X0139827Y0026545D01*
X0140177Y0026545D01*
X0137326Y0026545D02*
X0137326Y0021295D01*
X0137324Y0021232D01*
X0137318Y0021168D01*
X0137309Y0021106D01*
X0137295Y0021044D01*
X0137278Y0020983D01*
X0137258Y0020923D01*
X0137233Y0020864D01*
X0137206Y0020807D01*
X0137175Y0020752D01*
X0137140Y0020699D01*
X0137103Y0020647D01*
X0137062Y0020599D01*
X0137018Y0020553D01*
X0136972Y0020509D01*
X0136924Y0020468D01*
X0136872Y0020431D01*
X0136819Y0020396D01*
X0136764Y0020365D01*
X0136707Y0020338D01*
X0136648Y0020313D01*
X0136588Y0020293D01*
X0136527Y0020276D01*
X0136465Y0020262D01*
X0136403Y0020253D01*
X0136339Y0020247D01*
X0136276Y0020245D01*
X0135926Y0020245D01*
D11*
X0060368Y0017895D02*
X0057368Y0018395D01*
X0057368Y0020995D01*
X0060368Y0021595D01*
X0061468Y0024095D02*
X0059668Y0026695D01*
X0061568Y0028495D01*
X0064168Y0026695D01*
X0066668Y0027695D02*
X0067168Y0030895D01*
X0069868Y0030895D01*
X0070368Y0027695D01*
X0072868Y0026695D02*
X0075468Y0028495D01*
X0077368Y0026695D01*
X0075568Y0024095D01*
X0076668Y0021595D02*
X0079668Y0020995D01*
X0079668Y0018395D01*
X0076668Y0017895D01*
X0075668Y0015195D02*
X0077268Y0012795D01*
X0075468Y0010895D01*
X0073068Y0012595D01*
X0072068Y0011995D01*
X0070068Y0016495D01*
X0066868Y0016495D02*
X0064968Y0011995D01*
X0063968Y0012595D01*
X0061568Y0010895D01*
X0059668Y0012795D01*
X0061368Y0015195D01*
X0061368Y0015190D02*
X0061272Y0015356D01*
X0061179Y0015523D01*
X0061091Y0015693D01*
X0061007Y0015865D01*
X0060927Y0016038D01*
X0060851Y0016214D01*
X0060779Y0016391D01*
X0060712Y0016570D01*
X0060648Y0016751D01*
X0060589Y0016933D01*
X0060535Y0017116D01*
X0060484Y0017301D01*
X0060438Y0017486D01*
X0060397Y0017673D01*
X0060360Y0017861D01*
X0060379Y0021596D02*
X0060429Y0021784D01*
X0060484Y0021971D01*
X0060543Y0022157D01*
X0060607Y0022341D01*
X0060675Y0022524D01*
X0060748Y0022705D01*
X0060825Y0022884D01*
X0060906Y0023061D01*
X0060992Y0023237D01*
X0061081Y0023410D01*
X0061175Y0023581D01*
X0061273Y0023749D01*
X0061375Y0023916D01*
X0061480Y0024079D01*
X0066868Y0016595D02*
X0066761Y0016650D01*
X0066655Y0016707D01*
X0066552Y0016769D01*
X0066450Y0016833D01*
X0066351Y0016901D01*
X0066254Y0016972D01*
X0066159Y0017046D01*
X0066067Y0017123D01*
X0065977Y0017204D01*
X0065890Y0017287D01*
X0065806Y0017373D01*
X0065725Y0017461D01*
X0065647Y0017553D01*
X0065571Y0017647D01*
X0065499Y0017743D01*
X0065430Y0017841D01*
X0065364Y0017942D01*
X0065302Y0018045D01*
X0065243Y0018150D01*
X0065187Y0018256D01*
X0065135Y0018365D01*
X0065087Y0018475D01*
X0065042Y0018587D01*
X0065001Y0018700D01*
X0064964Y0018814D01*
X0064930Y0018930D01*
X0064901Y0019046D01*
X0064875Y0019164D01*
X0064853Y0019282D01*
X0064834Y0019401D01*
X0064820Y0019520D01*
X0064810Y0019640D01*
X0064803Y0019760D01*
X0064801Y0019881D01*
X0064803Y0020001D01*
X0064808Y0020121D01*
X0064817Y0020241D01*
X0064831Y0020361D01*
X0064848Y0020480D01*
X0064869Y0020598D01*
X0064894Y0020716D01*
X0064923Y0020833D01*
X0064956Y0020948D01*
X0064992Y0021063D01*
X0065032Y0021176D01*
X0065076Y0021288D01*
X0065124Y0021399D01*
X0065175Y0021508D01*
X0065229Y0021615D01*
X0065288Y0021720D01*
X0065349Y0021824D01*
X0065414Y0021925D01*
X0065482Y0022024D01*
X0065554Y0022121D01*
X0065628Y0022215D01*
X0065706Y0022307D01*
X0065786Y0022396D01*
X0065870Y0022483D01*
X0065956Y0022567D01*
X0066045Y0022648D01*
X0066137Y0022726D01*
X0066231Y0022801D01*
X0066327Y0022872D01*
X0066426Y0022941D01*
X0066527Y0023006D01*
X0066630Y0023068D01*
X0066735Y0023127D01*
X0066842Y0023182D01*
X0066951Y0023234D01*
X0067061Y0023281D01*
X0067173Y0023326D01*
X0067286Y0023366D01*
X0067401Y0023403D01*
X0067517Y0023436D01*
X0067633Y0023466D01*
X0067751Y0023491D01*
X0067869Y0023513D01*
X0067988Y0023530D01*
X0068108Y0023544D01*
X0068228Y0023554D01*
X0068348Y0023560D01*
X0068468Y0023562D01*
X0068588Y0023560D01*
X0068708Y0023554D01*
X0068828Y0023544D01*
X0068948Y0023530D01*
X0069067Y0023513D01*
X0069185Y0023491D01*
X0069303Y0023466D01*
X0069419Y0023436D01*
X0069535Y0023403D01*
X0069650Y0023366D01*
X0069763Y0023326D01*
X0069875Y0023281D01*
X0069985Y0023234D01*
X0070094Y0023182D01*
X0070201Y0023127D01*
X0070306Y0023068D01*
X0070409Y0023006D01*
X0070510Y0022941D01*
X0070609Y0022872D01*
X0070705Y0022801D01*
X0070799Y0022726D01*
X0070891Y0022648D01*
X0070980Y0022567D01*
X0071066Y0022483D01*
X0071150Y0022396D01*
X0071230Y0022307D01*
X0071308Y0022215D01*
X0071382Y0022121D01*
X0071454Y0022024D01*
X0071522Y0021925D01*
X0071587Y0021824D01*
X0071648Y0021720D01*
X0071707Y0021615D01*
X0071761Y0021508D01*
X0071812Y0021399D01*
X0071860Y0021288D01*
X0071904Y0021176D01*
X0071944Y0021063D01*
X0071980Y0020948D01*
X0072013Y0020833D01*
X0072042Y0020716D01*
X0072067Y0020598D01*
X0072088Y0020480D01*
X0072105Y0020361D01*
X0072119Y0020241D01*
X0072128Y0020121D01*
X0072133Y0020001D01*
X0072135Y0019881D01*
X0072133Y0019760D01*
X0072126Y0019640D01*
X0072116Y0019520D01*
X0072102Y0019401D01*
X0072083Y0019282D01*
X0072061Y0019164D01*
X0072035Y0019046D01*
X0072006Y0018930D01*
X0071972Y0018814D01*
X0071935Y0018700D01*
X0071894Y0018587D01*
X0071849Y0018475D01*
X0071801Y0018365D01*
X0071749Y0018256D01*
X0071693Y0018150D01*
X0071634Y0018045D01*
X0071572Y0017942D01*
X0071506Y0017841D01*
X0071437Y0017743D01*
X0071365Y0017647D01*
X0071289Y0017553D01*
X0071211Y0017461D01*
X0071130Y0017373D01*
X0071046Y0017287D01*
X0070959Y0017204D01*
X0070869Y0017123D01*
X0070777Y0017046D01*
X0070682Y0016972D01*
X0070585Y0016901D01*
X0070486Y0016833D01*
X0070384Y0016769D01*
X0070281Y0016707D01*
X0070175Y0016650D01*
X0070068Y0016595D01*
X0075635Y0015227D02*
X0075738Y0015403D01*
X0075837Y0015582D01*
X0075931Y0015763D01*
X0076021Y0015946D01*
X0076106Y0016132D01*
X0076187Y0016319D01*
X0076263Y0016509D01*
X0076334Y0016700D01*
X0076401Y0016893D01*
X0076462Y0017088D01*
X0076520Y0017284D01*
X0076572Y0017481D01*
X0076619Y0017679D01*
X0076662Y0017879D01*
X0072834Y0026732D02*
X0072662Y0026832D01*
X0072487Y0026929D01*
X0072311Y0027021D01*
X0072132Y0027109D01*
X0071951Y0027193D01*
X0071768Y0027272D01*
X0071584Y0027347D01*
X0071397Y0027418D01*
X0071209Y0027484D01*
X0071020Y0027545D01*
X0070829Y0027602D01*
X0070636Y0027655D01*
X0070443Y0027702D01*
X0075560Y0024042D02*
X0075660Y0023880D01*
X0075757Y0023715D01*
X0075850Y0023548D01*
X0075938Y0023379D01*
X0076023Y0023209D01*
X0076104Y0023036D01*
X0076181Y0022861D01*
X0076254Y0022685D01*
X0076323Y0022507D01*
X0076388Y0022327D01*
X0076449Y0022147D01*
X0076505Y0021964D01*
X0076558Y0021781D01*
X0076606Y0021596D01*
X0066615Y0027720D02*
X0066428Y0027675D01*
X0066242Y0027626D01*
X0066057Y0027572D01*
X0065874Y0027514D01*
X0065692Y0027452D01*
X0065511Y0027386D01*
X0065332Y0027316D01*
X0065155Y0027242D01*
X0064979Y0027163D01*
X0064806Y0027081D01*
X0064634Y0026994D01*
X0064464Y0026904D01*
X0064296Y0026810D01*
X0064131Y0026712D01*
M02*
