G75*
%MOIN*%
%OFA0B0*%
%FSLAX25Y25*%
%IPPOS*%
%LPD*%
%AMOC8*
5,1,8,0,0,1.08239X$1,22.5*
%
%ADD10R,0.05500X0.21900*%
%ADD11R,0.05918X0.06706*%
%ADD12R,0.05100X0.16800*%
%ADD13R,0.06706X0.05918*%
%ADD14R,0.09383X0.07178*%
%ADD15R,0.16548X0.28359*%
%ADD16C,0.06000*%
%ADD17R,0.04737X0.05131*%
%ADD18R,0.07100X0.02900*%
%ADD19OC8,0.09300*%
%ADD20C,0.04369*%
D10*
X0040533Y0028006D03*
X0040533Y0067206D03*
D11*
X0061604Y0083032D03*
X0069084Y0083032D03*
X0113000Y0068465D03*
X0120480Y0068465D03*
X0183752Y0077011D03*
X0191232Y0077011D03*
D12*
X0196972Y0061609D03*
X0196972Y0037009D03*
D13*
X0113127Y0052590D03*
X0113127Y0060070D03*
D14*
X0081385Y0052050D03*
X0081385Y0035436D03*
D15*
X0127137Y0034235D03*
X0166507Y0034235D03*
D16*
X0151272Y0077021D02*
X0151272Y0082221D01*
X0141272Y0082221D02*
X0141272Y0077021D01*
X0131272Y0077021D02*
X0131272Y0082221D01*
D17*
X0144225Y0065926D03*
X0150917Y0065926D03*
D18*
X0102904Y0066641D03*
X0102904Y0061641D03*
X0082004Y0061641D03*
X0082004Y0066641D03*
X0082004Y0071641D03*
X0082004Y0076641D03*
X0102904Y0076641D03*
X0102904Y0071641D03*
D19*
X0047668Y0011895D03*
X0207668Y0011895D03*
X0207668Y0081895D03*
X0047668Y0081895D03*
D20*
X0089915Y0078509D03*
X0094915Y0078509D03*
X0094915Y0073509D03*
X0089915Y0073509D03*
X0089915Y0068509D03*
X0094915Y0068509D03*
X0094915Y0063509D03*
X0089915Y0063509D03*
X0047415Y0031009D03*
X0047415Y0026009D03*
X0032415Y0026009D03*
X0032415Y0031009D03*
X0191915Y0031009D03*
X0201915Y0031009D03*
X0201915Y0036009D03*
X0191915Y0036009D03*
M02*
