G75*
%MOIN*%
%OFA0B0*%
%FSLAX25Y25*%
%IPPOS*%
%LPD*%
%AMOC8*
5,1,8,0,0,1.08239X$1,22.5*
%
%ADD10C,0.05200*%
%ADD11OC8,0.08500*%
%ADD12C,0.00600*%
%ADD13C,0.03569*%
D10*
X0131272Y0077021D02*
X0131272Y0082221D01*
X0141272Y0082221D02*
X0141272Y0077021D01*
X0151272Y0077021D02*
X0151272Y0082221D01*
D11*
X0207668Y0081895D03*
X0047668Y0081895D03*
X0047668Y0011895D03*
X0207668Y0011895D03*
D12*
X0014968Y0006695D02*
X0014968Y0087056D01*
X0044697Y0087056D01*
X0041918Y0084277D01*
X0041918Y0079514D01*
X0045287Y0076145D01*
X0050050Y0076145D01*
X0053418Y0079514D01*
X0053418Y0084277D01*
X0050639Y0087056D01*
X0204697Y0087056D01*
X0201918Y0084277D01*
X0201918Y0079514D01*
X0205287Y0076145D01*
X0210050Y0076145D01*
X0213418Y0079514D01*
X0213418Y0084277D01*
X0210639Y0087056D01*
X0214069Y0087056D01*
X0214069Y0006695D01*
X0014968Y0006695D01*
X0014968Y0007282D02*
X0214069Y0007282D01*
X0214069Y0007880D02*
X0014968Y0007880D01*
X0014968Y0008479D02*
X0214069Y0008479D01*
X0214069Y0009077D02*
X0014968Y0009077D01*
X0014968Y0009676D02*
X0214069Y0009676D01*
X0214069Y0010274D02*
X0014968Y0010274D01*
X0014968Y0010873D02*
X0214069Y0010873D01*
X0214069Y0011471D02*
X0014968Y0011471D01*
X0014968Y0012070D02*
X0214069Y0012070D01*
X0214069Y0012668D02*
X0014968Y0012668D01*
X0014968Y0013267D02*
X0214069Y0013267D01*
X0214069Y0013865D02*
X0014968Y0013865D01*
X0014968Y0014464D02*
X0214069Y0014464D01*
X0214069Y0015063D02*
X0014968Y0015063D01*
X0014968Y0015661D02*
X0214069Y0015661D01*
X0214069Y0016260D02*
X0014968Y0016260D01*
X0014968Y0016858D02*
X0214069Y0016858D01*
X0214069Y0017457D02*
X0014968Y0017457D01*
X0014968Y0018055D02*
X0214069Y0018055D01*
X0214069Y0018654D02*
X0014968Y0018654D01*
X0014968Y0019252D02*
X0214069Y0019252D01*
X0214069Y0019851D02*
X0014968Y0019851D01*
X0014968Y0020449D02*
X0214069Y0020449D01*
X0214069Y0021048D02*
X0014968Y0021048D01*
X0014968Y0021646D02*
X0214069Y0021646D01*
X0214069Y0022245D02*
X0014968Y0022245D01*
X0014968Y0022843D02*
X0214069Y0022843D01*
X0214069Y0023442D02*
X0014968Y0023442D01*
X0014968Y0024040D02*
X0214069Y0024040D01*
X0214069Y0024639D02*
X0014968Y0024639D01*
X0014968Y0025237D02*
X0214069Y0025237D01*
X0214069Y0025836D02*
X0014968Y0025836D01*
X0014968Y0026434D02*
X0214069Y0026434D01*
X0214069Y0027033D02*
X0014968Y0027033D01*
X0014968Y0027631D02*
X0214069Y0027631D01*
X0214069Y0028230D02*
X0014968Y0028230D01*
X0014968Y0028828D02*
X0214069Y0028828D01*
X0214069Y0029427D02*
X0014968Y0029427D01*
X0014968Y0030025D02*
X0214069Y0030025D01*
X0214069Y0030624D02*
X0014968Y0030624D01*
X0014968Y0031222D02*
X0214069Y0031222D01*
X0214069Y0031821D02*
X0014968Y0031821D01*
X0014968Y0032419D02*
X0214069Y0032419D01*
X0214069Y0033018D02*
X0014968Y0033018D01*
X0014968Y0033616D02*
X0214069Y0033616D01*
X0214069Y0034215D02*
X0014968Y0034215D01*
X0014968Y0034813D02*
X0214069Y0034813D01*
X0214069Y0035412D02*
X0014968Y0035412D01*
X0014968Y0036010D02*
X0214069Y0036010D01*
X0214069Y0036609D02*
X0014968Y0036609D01*
X0014968Y0037207D02*
X0214069Y0037207D01*
X0214069Y0037806D02*
X0014968Y0037806D01*
X0014968Y0038404D02*
X0214069Y0038404D01*
X0214069Y0039003D02*
X0014968Y0039003D01*
X0014968Y0039601D02*
X0214069Y0039601D01*
X0214069Y0040200D02*
X0014968Y0040200D01*
X0014968Y0040798D02*
X0214069Y0040798D01*
X0214069Y0041397D02*
X0014968Y0041397D01*
X0014968Y0041996D02*
X0214069Y0041996D01*
X0214069Y0042594D02*
X0014968Y0042594D01*
X0014968Y0043193D02*
X0214069Y0043193D01*
X0214069Y0043791D02*
X0014968Y0043791D01*
X0014968Y0044390D02*
X0214069Y0044390D01*
X0214069Y0044988D02*
X0014968Y0044988D01*
X0014968Y0045587D02*
X0214069Y0045587D01*
X0214069Y0046185D02*
X0014968Y0046185D01*
X0014968Y0046784D02*
X0214069Y0046784D01*
X0214069Y0047382D02*
X0014968Y0047382D01*
X0014968Y0047981D02*
X0214069Y0047981D01*
X0214069Y0048579D02*
X0014968Y0048579D01*
X0014968Y0049178D02*
X0214069Y0049178D01*
X0214069Y0049776D02*
X0014968Y0049776D01*
X0014968Y0050375D02*
X0214069Y0050375D01*
X0214069Y0050973D02*
X0014968Y0050973D01*
X0014968Y0051572D02*
X0214069Y0051572D01*
X0214069Y0052170D02*
X0014968Y0052170D01*
X0014968Y0052769D02*
X0214069Y0052769D01*
X0214069Y0053367D02*
X0014968Y0053367D01*
X0014968Y0053966D02*
X0214069Y0053966D01*
X0214069Y0054564D02*
X0014968Y0054564D01*
X0014968Y0055163D02*
X0214069Y0055163D01*
X0214069Y0055761D02*
X0014968Y0055761D01*
X0014968Y0056360D02*
X0214069Y0056360D01*
X0214069Y0056958D02*
X0014968Y0056958D01*
X0014968Y0057557D02*
X0214069Y0057557D01*
X0214069Y0058155D02*
X0014968Y0058155D01*
X0014968Y0058754D02*
X0214069Y0058754D01*
X0214069Y0059352D02*
X0014968Y0059352D01*
X0014968Y0059951D02*
X0214069Y0059951D01*
X0214069Y0060549D02*
X0014968Y0060549D01*
X0014968Y0061148D02*
X0214069Y0061148D01*
X0214069Y0061746D02*
X0014968Y0061746D01*
X0014968Y0062345D02*
X0214069Y0062345D01*
X0214069Y0062943D02*
X0014968Y0062943D01*
X0014968Y0063542D02*
X0214069Y0063542D01*
X0214069Y0064140D02*
X0014968Y0064140D01*
X0014968Y0064739D02*
X0214069Y0064739D01*
X0214069Y0065337D02*
X0014968Y0065337D01*
X0014968Y0065936D02*
X0214069Y0065936D01*
X0214069Y0066534D02*
X0014968Y0066534D01*
X0014968Y0067133D02*
X0214069Y0067133D01*
X0214069Y0067732D02*
X0014968Y0067732D01*
X0014968Y0068330D02*
X0214069Y0068330D01*
X0214069Y0068929D02*
X0014968Y0068929D01*
X0014968Y0069527D02*
X0214069Y0069527D01*
X0214069Y0070126D02*
X0014968Y0070126D01*
X0014968Y0070724D02*
X0214069Y0070724D01*
X0214069Y0071323D02*
X0014968Y0071323D01*
X0014968Y0071921D02*
X0214069Y0071921D01*
X0214069Y0072520D02*
X0014968Y0072520D01*
X0014968Y0073118D02*
X0149980Y0073118D01*
X0150457Y0072921D02*
X0152088Y0072921D01*
X0153595Y0073545D01*
X0154748Y0074698D01*
X0155372Y0076205D01*
X0155372Y0083036D01*
X0154748Y0084543D01*
X0153595Y0085696D01*
X0152088Y0086321D01*
X0150457Y0086321D01*
X0148950Y0085696D01*
X0147796Y0084543D01*
X0147172Y0083036D01*
X0147172Y0076205D01*
X0147796Y0074698D01*
X0148950Y0073545D01*
X0150457Y0072921D01*
X0148778Y0073717D02*
X0142964Y0073717D01*
X0143368Y0073884D02*
X0144409Y0074925D01*
X0144972Y0076285D01*
X0144972Y0082957D01*
X0144409Y0084316D01*
X0143368Y0085357D01*
X0142008Y0085921D01*
X0140536Y0085921D01*
X0139176Y0085357D01*
X0138136Y0084316D01*
X0137572Y0082957D01*
X0137572Y0076285D01*
X0138136Y0074925D01*
X0139176Y0073884D01*
X0140536Y0073321D01*
X0142008Y0073321D01*
X0143368Y0073884D01*
X0143799Y0074315D02*
X0148179Y0074315D01*
X0147707Y0074914D02*
X0144398Y0074914D01*
X0144652Y0075512D02*
X0147459Y0075512D01*
X0147211Y0076111D02*
X0144900Y0076111D01*
X0144972Y0076709D02*
X0147172Y0076709D01*
X0147172Y0077308D02*
X0144972Y0077308D01*
X0144972Y0077906D02*
X0147172Y0077906D01*
X0147172Y0078505D02*
X0144972Y0078505D01*
X0144972Y0079103D02*
X0147172Y0079103D01*
X0147172Y0079702D02*
X0144972Y0079702D01*
X0144972Y0080300D02*
X0147172Y0080300D01*
X0147172Y0080899D02*
X0144972Y0080899D01*
X0144972Y0081497D02*
X0147172Y0081497D01*
X0147172Y0082096D02*
X0144972Y0082096D01*
X0144972Y0082694D02*
X0147172Y0082694D01*
X0147279Y0083293D02*
X0144833Y0083293D01*
X0144585Y0083891D02*
X0147526Y0083891D01*
X0147774Y0084490D02*
X0144236Y0084490D01*
X0143637Y0085088D02*
X0148342Y0085088D01*
X0148940Y0085687D02*
X0142573Y0085687D01*
X0139972Y0085687D02*
X0132573Y0085687D01*
X0132008Y0085921D02*
X0130536Y0085921D01*
X0129176Y0085357D01*
X0128136Y0084316D01*
X0127572Y0082957D01*
X0127572Y0076285D01*
X0128136Y0074925D01*
X0129176Y0073884D01*
X0130536Y0073321D01*
X0132008Y0073321D01*
X0133368Y0073884D01*
X0134409Y0074925D01*
X0134972Y0076285D01*
X0134972Y0082957D01*
X0134409Y0084316D01*
X0133368Y0085357D01*
X0132008Y0085921D01*
X0133637Y0085088D02*
X0138907Y0085088D01*
X0138309Y0084490D02*
X0134236Y0084490D01*
X0134585Y0083891D02*
X0137959Y0083891D01*
X0137712Y0083293D02*
X0134833Y0083293D01*
X0134972Y0082694D02*
X0137572Y0082694D01*
X0137572Y0082096D02*
X0134972Y0082096D01*
X0134972Y0081497D02*
X0137572Y0081497D01*
X0137572Y0080899D02*
X0134972Y0080899D01*
X0134972Y0080300D02*
X0137572Y0080300D01*
X0137572Y0079702D02*
X0134972Y0079702D01*
X0134972Y0079103D02*
X0137572Y0079103D01*
X0137572Y0078505D02*
X0134972Y0078505D01*
X0134972Y0077906D02*
X0137572Y0077906D01*
X0137572Y0077308D02*
X0134972Y0077308D01*
X0134972Y0076709D02*
X0137572Y0076709D01*
X0137644Y0076111D02*
X0134900Y0076111D01*
X0134652Y0075512D02*
X0137892Y0075512D01*
X0138147Y0074914D02*
X0134398Y0074914D01*
X0133799Y0074315D02*
X0138745Y0074315D01*
X0139580Y0073717D02*
X0132964Y0073717D01*
X0129580Y0073717D02*
X0014968Y0073717D01*
X0014968Y0074315D02*
X0128745Y0074315D01*
X0128147Y0074914D02*
X0014968Y0074914D01*
X0014968Y0075512D02*
X0127892Y0075512D01*
X0127644Y0076111D02*
X0014968Y0076111D01*
X0014968Y0076709D02*
X0044723Y0076709D01*
X0044124Y0077308D02*
X0014968Y0077308D01*
X0014968Y0077906D02*
X0043526Y0077906D01*
X0042927Y0078505D02*
X0014968Y0078505D01*
X0014968Y0079103D02*
X0042329Y0079103D01*
X0041918Y0079702D02*
X0014968Y0079702D01*
X0014968Y0080300D02*
X0041918Y0080300D01*
X0041918Y0080899D02*
X0014968Y0080899D01*
X0014968Y0081497D02*
X0041918Y0081497D01*
X0041918Y0082096D02*
X0014968Y0082096D01*
X0014968Y0082694D02*
X0041918Y0082694D01*
X0041918Y0083293D02*
X0014968Y0083293D01*
X0014968Y0083891D02*
X0041918Y0083891D01*
X0042131Y0084490D02*
X0014968Y0084490D01*
X0014968Y0085088D02*
X0042730Y0085088D01*
X0043328Y0085687D02*
X0014968Y0085687D01*
X0014968Y0086285D02*
X0043927Y0086285D01*
X0044525Y0086884D02*
X0014968Y0086884D01*
X0050811Y0086884D02*
X0204525Y0086884D01*
X0203927Y0086285D02*
X0152173Y0086285D01*
X0153604Y0085687D02*
X0203328Y0085687D01*
X0202730Y0085088D02*
X0154203Y0085088D01*
X0154770Y0084490D02*
X0202131Y0084490D01*
X0201918Y0083891D02*
X0155018Y0083891D01*
X0155266Y0083293D02*
X0201918Y0083293D01*
X0201918Y0082694D02*
X0155372Y0082694D01*
X0155372Y0082096D02*
X0201918Y0082096D01*
X0201918Y0081497D02*
X0155372Y0081497D01*
X0155372Y0080899D02*
X0201918Y0080899D01*
X0201918Y0080300D02*
X0155372Y0080300D01*
X0155372Y0079702D02*
X0201918Y0079702D01*
X0202329Y0079103D02*
X0155372Y0079103D01*
X0155372Y0078505D02*
X0202927Y0078505D01*
X0203526Y0077906D02*
X0155372Y0077906D01*
X0155372Y0077308D02*
X0204124Y0077308D01*
X0204723Y0076709D02*
X0155372Y0076709D01*
X0155333Y0076111D02*
X0214069Y0076111D01*
X0214069Y0076709D02*
X0210614Y0076709D01*
X0211212Y0077308D02*
X0214069Y0077308D01*
X0214069Y0077906D02*
X0211811Y0077906D01*
X0212409Y0078505D02*
X0214069Y0078505D01*
X0214069Y0079103D02*
X0213008Y0079103D01*
X0213418Y0079702D02*
X0214069Y0079702D01*
X0214069Y0080300D02*
X0213418Y0080300D01*
X0213418Y0080899D02*
X0214069Y0080899D01*
X0214069Y0081497D02*
X0213418Y0081497D01*
X0213418Y0082096D02*
X0214069Y0082096D01*
X0214069Y0082694D02*
X0213418Y0082694D01*
X0213418Y0083293D02*
X0214069Y0083293D01*
X0214069Y0083891D02*
X0213418Y0083891D01*
X0213205Y0084490D02*
X0214069Y0084490D01*
X0214069Y0085088D02*
X0212607Y0085088D01*
X0212008Y0085687D02*
X0214069Y0085687D01*
X0214069Y0086285D02*
X0211410Y0086285D01*
X0210811Y0086884D02*
X0214069Y0086884D01*
X0214069Y0075512D02*
X0155085Y0075512D01*
X0154837Y0074914D02*
X0214069Y0074914D01*
X0214069Y0074315D02*
X0154365Y0074315D01*
X0153767Y0073717D02*
X0214069Y0073717D01*
X0214069Y0073118D02*
X0152565Y0073118D01*
X0127572Y0076709D02*
X0050614Y0076709D01*
X0051212Y0077308D02*
X0127572Y0077308D01*
X0127572Y0077906D02*
X0051811Y0077906D01*
X0052409Y0078505D02*
X0127572Y0078505D01*
X0127572Y0079103D02*
X0053008Y0079103D01*
X0053418Y0079702D02*
X0127572Y0079702D01*
X0127572Y0080300D02*
X0053418Y0080300D01*
X0053418Y0080899D02*
X0127572Y0080899D01*
X0127572Y0081497D02*
X0053418Y0081497D01*
X0053418Y0082096D02*
X0127572Y0082096D01*
X0127572Y0082694D02*
X0053418Y0082694D01*
X0053418Y0083293D02*
X0127712Y0083293D01*
X0127959Y0083891D02*
X0053418Y0083891D01*
X0053205Y0084490D02*
X0128309Y0084490D01*
X0128907Y0085088D02*
X0052607Y0085088D01*
X0052008Y0085687D02*
X0129972Y0085687D01*
X0150372Y0086285D02*
X0051410Y0086285D01*
D13*
X0089915Y0078509D03*
X0094915Y0078509D03*
X0094915Y0073509D03*
X0089915Y0073509D03*
X0089915Y0068509D03*
X0094915Y0068509D03*
X0094915Y0063509D03*
X0089915Y0063509D03*
X0047415Y0031009D03*
X0047415Y0026009D03*
X0032415Y0026009D03*
X0032415Y0031009D03*
X0191915Y0031009D03*
X0201915Y0031009D03*
X0201915Y0036009D03*
X0191915Y0036009D03*
M02*
