G75*
%MOIN*%
%OFA0B0*%
%FSLAX25Y25*%
%IPPOS*%
%LPD*%
%AMOC8*
5,1,8,0,0,1.08239X$1,22.5*
%
%ADD10C,0.00000*%
%ADD11R,0.04700X0.21100*%
%ADD12R,0.05118X0.05906*%
%ADD13R,0.04300X0.16000*%
%ADD14R,0.05906X0.05118*%
%ADD15R,0.08583X0.06378*%
%ADD16R,0.15748X0.27559*%
%ADD17C,0.05200*%
%ADD18R,0.03937X0.04331*%
%ADD19R,0.06300X0.02100*%
%ADD20OC8,0.08500*%
%ADD21C,0.00600*%
%ADD22C,0.03569*%
%ADD23C,0.02000*%
%ADD24C,0.04000*%
%ADD25C,0.02200*%
D10*
X0012668Y0004395D02*
X0012668Y0089356D01*
X0216369Y0089356D01*
X0216369Y0004395D01*
X0012668Y0004395D01*
D11*
X0040533Y0028006D03*
X0040533Y0067206D03*
D12*
X0061604Y0083032D03*
X0069084Y0083032D03*
X0113000Y0068465D03*
X0120480Y0068465D03*
X0183752Y0077011D03*
X0191232Y0077011D03*
D13*
X0196972Y0061609D03*
X0196972Y0037009D03*
D14*
X0113127Y0052590D03*
X0113127Y0060070D03*
D15*
X0081385Y0052050D03*
X0081385Y0035436D03*
D16*
X0127137Y0034235D03*
X0166507Y0034235D03*
D17*
X0151272Y0077021D02*
X0151272Y0082221D01*
X0141272Y0082221D02*
X0141272Y0077021D01*
X0131272Y0077021D02*
X0131272Y0082221D01*
D18*
X0144225Y0065926D03*
X0150917Y0065926D03*
D19*
X0102904Y0066641D03*
X0102904Y0061641D03*
X0082004Y0061641D03*
X0082004Y0066641D03*
X0082004Y0071641D03*
X0082004Y0076641D03*
X0102904Y0076641D03*
X0102904Y0071641D03*
D20*
X0047668Y0081895D03*
X0207668Y0081895D03*
X0207668Y0011895D03*
X0047668Y0011895D03*
D21*
X0014968Y0012070D02*
X0214069Y0012070D01*
X0214069Y0012668D02*
X0014968Y0012668D01*
X0014968Y0013267D02*
X0214069Y0013267D01*
X0214069Y0013865D02*
X0014968Y0013865D01*
X0014968Y0014464D02*
X0214069Y0014464D01*
X0214069Y0015063D02*
X0014968Y0015063D01*
X0014968Y0015661D02*
X0214069Y0015661D01*
X0214069Y0016260D02*
X0014968Y0016260D01*
X0014968Y0016858D02*
X0214069Y0016858D01*
X0214069Y0017457D02*
X0014968Y0017457D01*
X0014968Y0018055D02*
X0214069Y0018055D01*
X0214069Y0018654D02*
X0014968Y0018654D01*
X0014968Y0019252D02*
X0118345Y0019252D01*
X0118641Y0018956D02*
X0117763Y0019835D01*
X0117763Y0046813D01*
X0116860Y0047317D01*
X0114139Y0048005D01*
X0112741Y0048077D01*
X0112709Y0048077D01*
X0112038Y0048067D01*
X0112014Y0048077D01*
X0087014Y0048077D01*
X0086298Y0047361D01*
X0076473Y0047361D01*
X0075594Y0048240D01*
X0075594Y0055860D01*
X0076473Y0056739D01*
X0077054Y0056739D01*
X0077054Y0060176D01*
X0077354Y0060899D01*
X0077354Y0063312D01*
X0078083Y0064041D01*
X0074621Y0064041D01*
X0071830Y0065197D01*
X0071830Y0065197D01*
X0069694Y0067333D01*
X0069694Y0067333D01*
X0069362Y0068134D01*
X0069135Y0068134D01*
X0065327Y0069372D01*
X0065327Y0069372D01*
X0062088Y0071725D01*
X0062088Y0071725D01*
X0062088Y0071725D01*
X0059735Y0074965D01*
X0059735Y0074965D01*
X0058620Y0078395D01*
X0052300Y0078395D01*
X0050050Y0076145D01*
X0045287Y0076145D01*
X0044383Y0077049D01*
X0044383Y0056035D01*
X0043505Y0055156D01*
X0037562Y0055156D01*
X0036683Y0056035D01*
X0036683Y0078377D01*
X0037129Y0078823D01*
X0037129Y0079953D01*
X0038164Y0082450D01*
X0038164Y0082450D01*
X0040075Y0084361D01*
X0040075Y0084361D01*
X0042572Y0085395D01*
X0043037Y0085395D01*
X0044697Y0087056D01*
X0014968Y0087056D01*
X0014968Y0006695D01*
X0214069Y0006695D01*
X0214069Y0087056D01*
X0210639Y0087056D01*
X0213418Y0084277D01*
X0213418Y0079514D01*
X0211168Y0077264D01*
X0211168Y0065403D01*
X0210027Y0062647D01*
X0210027Y0062647D01*
X0207917Y0060537D01*
X0207917Y0060537D01*
X0205160Y0059395D01*
X0200622Y0059395D01*
X0200622Y0052988D01*
X0199744Y0052109D01*
X0194201Y0052109D01*
X0193322Y0052988D01*
X0193322Y0059395D01*
X0191777Y0059395D01*
X0191666Y0059459D01*
X0178008Y0059459D01*
X0176964Y0059391D01*
X0174946Y0058850D01*
X0173137Y0057806D01*
X0171660Y0056329D01*
X0170616Y0054520D01*
X0170075Y0052502D01*
X0170007Y0051458D01*
X0170007Y0049515D01*
X0175002Y0049515D01*
X0175881Y0048636D01*
X0175881Y0019835D01*
X0175002Y0018956D01*
X0158011Y0018956D01*
X0157133Y0019835D01*
X0157133Y0048636D01*
X0158011Y0049515D01*
X0163007Y0049515D01*
X0163007Y0053433D01*
X0164029Y0057248D01*
X0164029Y0057248D01*
X0166004Y0060669D01*
X0166004Y0060669D01*
X0167910Y0062575D01*
X0167231Y0062966D01*
X0167231Y0062966D01*
X0167231Y0062966D01*
X0163964Y0066234D01*
X0163964Y0066234D01*
X0161653Y0070236D01*
X0161653Y0070236D01*
X0160776Y0073511D01*
X0153512Y0073511D01*
X0152088Y0072921D01*
X0150457Y0072921D01*
X0148950Y0073545D01*
X0147796Y0074698D01*
X0147172Y0076205D01*
X0147172Y0083036D01*
X0147796Y0084543D01*
X0148950Y0085696D01*
X0150457Y0086321D01*
X0152088Y0086321D01*
X0153595Y0085696D01*
X0154748Y0084543D01*
X0155372Y0083036D01*
X0155372Y0080511D01*
X0164653Y0080511D01*
X0165940Y0079978D01*
X0166407Y0079511D01*
X0179693Y0079511D01*
X0179693Y0080585D01*
X0180571Y0081463D01*
X0186932Y0081463D01*
X0187811Y0080585D01*
X0187811Y0073437D01*
X0186932Y0072558D01*
X0180571Y0072558D01*
X0179693Y0073437D01*
X0179693Y0074511D01*
X0167848Y0074511D01*
X0168260Y0072973D01*
X0169637Y0070587D01*
X0171585Y0068640D01*
X0173970Y0067263D01*
X0176631Y0066550D01*
X0178008Y0066459D01*
X0193322Y0066459D01*
X0193322Y0070230D01*
X0194201Y0071109D01*
X0199744Y0071109D01*
X0200622Y0070230D01*
X0200622Y0066395D01*
X0203668Y0066395D01*
X0203766Y0066405D01*
X0203946Y0066480D01*
X0204084Y0066617D01*
X0204159Y0066798D01*
X0204168Y0066895D01*
X0204168Y0077264D01*
X0201918Y0079514D01*
X0201918Y0084277D01*
X0204697Y0087056D01*
X0065213Y0087056D01*
X0065663Y0086606D01*
X0065663Y0079597D01*
X0066112Y0078214D01*
X0067149Y0076786D01*
X0068577Y0075749D01*
X0069080Y0075586D01*
X0069492Y0076579D01*
X0069492Y0076579D01*
X0071256Y0078343D01*
X0071256Y0078343D01*
X0073560Y0079297D01*
X0082659Y0079297D01*
X0082844Y0079191D01*
X0085775Y0079191D01*
X0086654Y0078312D01*
X0086654Y0074969D01*
X0085775Y0074091D01*
X0082642Y0074091D01*
X0082521Y0074041D01*
X0081487Y0074041D01*
X0081366Y0074091D01*
X0078233Y0074091D01*
X0078226Y0074097D01*
X0074807Y0074097D01*
X0074598Y0074077D01*
X0074213Y0073917D01*
X0074009Y0073713D01*
X0074105Y0073617D01*
X0074638Y0072331D01*
X0074638Y0070938D01*
X0074306Y0070139D01*
X0074801Y0069644D01*
X0075664Y0069287D01*
X0076131Y0069241D01*
X0082521Y0069241D01*
X0082642Y0069191D01*
X0085775Y0069191D01*
X0086654Y0068312D01*
X0086654Y0064969D01*
X0085825Y0064141D01*
X0086654Y0063312D01*
X0086654Y0059969D01*
X0085775Y0059091D01*
X0085715Y0059091D01*
X0085715Y0056739D01*
X0086298Y0056739D01*
X0087177Y0055860D01*
X0087177Y0055077D01*
X0108675Y0055077D01*
X0108675Y0055770D01*
X0109234Y0056330D01*
X0108675Y0056890D01*
X0108675Y0059038D01*
X0105698Y0059091D01*
X0099133Y0059091D01*
X0098254Y0059969D01*
X0098254Y0063312D01*
X0099083Y0064141D01*
X0098254Y0064969D01*
X0098254Y0068312D01*
X0099133Y0069191D01*
X0106675Y0069191D01*
X0106725Y0069141D01*
X0108941Y0069141D01*
X0108941Y0072039D01*
X0109820Y0072917D01*
X0116180Y0072917D01*
X0117059Y0072039D01*
X0117059Y0064890D01*
X0116298Y0064129D01*
X0116701Y0064129D01*
X0117580Y0063250D01*
X0117580Y0056890D01*
X0117020Y0056330D01*
X0117580Y0055770D01*
X0117580Y0054450D01*
X0119502Y0053964D01*
X0119502Y0053964D01*
X0123583Y0051685D01*
X0123583Y0051685D01*
X0125816Y0049515D01*
X0135632Y0049515D01*
X0136511Y0048636D01*
X0136511Y0019835D01*
X0135632Y0018956D01*
X0118641Y0018956D01*
X0117763Y0019851D02*
X0014968Y0019851D01*
X0014968Y0020449D02*
X0117763Y0020449D01*
X0117763Y0021048D02*
X0014968Y0021048D01*
X0014968Y0021646D02*
X0117763Y0021646D01*
X0117763Y0022245D02*
X0014968Y0022245D01*
X0014968Y0022843D02*
X0117763Y0022843D01*
X0117763Y0023442D02*
X0014968Y0023442D01*
X0014968Y0024040D02*
X0117763Y0024040D01*
X0117763Y0024639D02*
X0014968Y0024639D01*
X0014968Y0025237D02*
X0117763Y0025237D01*
X0117763Y0025836D02*
X0014968Y0025836D01*
X0014968Y0026434D02*
X0117763Y0026434D01*
X0117763Y0027033D02*
X0014968Y0027033D01*
X0014968Y0027631D02*
X0117763Y0027631D01*
X0117763Y0028230D02*
X0014968Y0028230D01*
X0014968Y0028828D02*
X0117763Y0028828D01*
X0117763Y0029427D02*
X0014968Y0029427D01*
X0014968Y0030025D02*
X0117763Y0030025D01*
X0117763Y0030624D02*
X0014968Y0030624D01*
X0014968Y0031222D02*
X0117763Y0031222D01*
X0117763Y0031821D02*
X0014968Y0031821D01*
X0014968Y0032419D02*
X0117763Y0032419D01*
X0117763Y0033018D02*
X0014968Y0033018D01*
X0014968Y0033616D02*
X0117763Y0033616D01*
X0117763Y0034215D02*
X0014968Y0034215D01*
X0014968Y0034813D02*
X0117763Y0034813D01*
X0117763Y0035412D02*
X0014968Y0035412D01*
X0014968Y0036010D02*
X0117763Y0036010D01*
X0117763Y0036609D02*
X0014968Y0036609D01*
X0014968Y0037207D02*
X0117763Y0037207D01*
X0117763Y0037806D02*
X0014968Y0037806D01*
X0014968Y0038404D02*
X0117763Y0038404D01*
X0117763Y0039003D02*
X0014968Y0039003D01*
X0014968Y0039601D02*
X0117763Y0039601D01*
X0117763Y0040200D02*
X0014968Y0040200D01*
X0014968Y0040798D02*
X0117763Y0040798D01*
X0117763Y0041397D02*
X0014968Y0041397D01*
X0014968Y0041996D02*
X0117763Y0041996D01*
X0117763Y0042594D02*
X0014968Y0042594D01*
X0014968Y0043193D02*
X0117763Y0043193D01*
X0117763Y0043791D02*
X0014968Y0043791D01*
X0014968Y0044390D02*
X0117763Y0044390D01*
X0117763Y0044988D02*
X0014968Y0044988D01*
X0014968Y0045587D02*
X0117763Y0045587D01*
X0117763Y0046185D02*
X0014968Y0046185D01*
X0014968Y0046784D02*
X0117763Y0046784D01*
X0116603Y0047382D02*
X0086319Y0047382D01*
X0086918Y0047981D02*
X0114235Y0047981D01*
X0121643Y0052769D02*
X0163007Y0052769D01*
X0163007Y0053367D02*
X0120571Y0053367D01*
X0119496Y0053966D02*
X0163150Y0053966D01*
X0163310Y0054564D02*
X0117580Y0054564D01*
X0117580Y0055163D02*
X0163470Y0055163D01*
X0163631Y0055761D02*
X0117580Y0055761D01*
X0117050Y0056360D02*
X0163791Y0056360D01*
X0163951Y0056958D02*
X0117580Y0056958D01*
X0117580Y0057557D02*
X0164207Y0057557D01*
X0164553Y0058155D02*
X0117580Y0058155D01*
X0117580Y0058754D02*
X0164898Y0058754D01*
X0165244Y0059352D02*
X0117580Y0059352D01*
X0117580Y0059951D02*
X0165589Y0059951D01*
X0165935Y0060549D02*
X0117580Y0060549D01*
X0117580Y0061148D02*
X0166483Y0061148D01*
X0167081Y0061746D02*
X0117580Y0061746D01*
X0117580Y0062345D02*
X0167680Y0062345D01*
X0167271Y0062943D02*
X0146932Y0062943D01*
X0146649Y0062661D02*
X0147293Y0063305D01*
X0147293Y0068547D01*
X0146649Y0069191D01*
X0143372Y0069191D01*
X0143372Y0073888D01*
X0144409Y0074925D01*
X0144972Y0076285D01*
X0144972Y0082957D01*
X0144409Y0084316D01*
X0143368Y0085357D01*
X0142008Y0085921D01*
X0140536Y0085921D01*
X0139176Y0085357D01*
X0138136Y0084316D01*
X0137572Y0082957D01*
X0137572Y0076285D01*
X0138136Y0074925D01*
X0139172Y0073888D01*
X0139172Y0068158D01*
X0129788Y0068158D01*
X0129584Y0068178D01*
X0129208Y0068334D01*
X0128919Y0068622D01*
X0128763Y0068999D01*
X0128743Y0069203D01*
X0128743Y0072231D01*
X0127506Y0075218D01*
X0125220Y0077504D01*
X0122234Y0078741D01*
X0106560Y0078741D01*
X0106510Y0078791D01*
X0099298Y0078791D01*
X0098654Y0078146D01*
X0098654Y0075135D01*
X0099298Y0074491D01*
X0106510Y0074491D01*
X0106560Y0074541D01*
X0120618Y0074541D01*
X0121384Y0074465D01*
X0122799Y0073879D01*
X0123882Y0072796D01*
X0124468Y0071381D01*
X0124543Y0070615D01*
X0124543Y0068160D01*
X0125342Y0066232D01*
X0126817Y0064757D01*
X0126817Y0064757D01*
X0128745Y0063958D01*
X0141156Y0063958D01*
X0141156Y0063305D01*
X0141800Y0062661D01*
X0146649Y0062661D01*
X0147293Y0063542D02*
X0166656Y0063542D01*
X0166057Y0064140D02*
X0147293Y0064140D01*
X0147293Y0064739D02*
X0165459Y0064739D01*
X0164860Y0065337D02*
X0147293Y0065337D01*
X0147293Y0065936D02*
X0164262Y0065936D01*
X0163790Y0066534D02*
X0147293Y0066534D01*
X0147293Y0067133D02*
X0163445Y0067133D01*
X0163099Y0067732D02*
X0147293Y0067732D01*
X0147293Y0068330D02*
X0162754Y0068330D01*
X0162408Y0068929D02*
X0146911Y0068929D01*
X0143372Y0069527D02*
X0162062Y0069527D01*
X0161717Y0070126D02*
X0143372Y0070126D01*
X0143372Y0070724D02*
X0161522Y0070724D01*
X0161362Y0071323D02*
X0143372Y0071323D01*
X0143372Y0071921D02*
X0161202Y0071921D01*
X0161041Y0072520D02*
X0143372Y0072520D01*
X0143372Y0073118D02*
X0149980Y0073118D01*
X0148778Y0073717D02*
X0143372Y0073717D01*
X0143799Y0074315D02*
X0148179Y0074315D01*
X0147707Y0074914D02*
X0144398Y0074914D01*
X0144652Y0075512D02*
X0147459Y0075512D01*
X0147211Y0076111D02*
X0144900Y0076111D01*
X0144972Y0076709D02*
X0147172Y0076709D01*
X0147172Y0077308D02*
X0144972Y0077308D01*
X0144972Y0077906D02*
X0147172Y0077906D01*
X0147172Y0078505D02*
X0144972Y0078505D01*
X0144972Y0079103D02*
X0147172Y0079103D01*
X0147172Y0079702D02*
X0144972Y0079702D01*
X0144972Y0080300D02*
X0147172Y0080300D01*
X0147172Y0080899D02*
X0144972Y0080899D01*
X0144972Y0081497D02*
X0147172Y0081497D01*
X0147172Y0082096D02*
X0144972Y0082096D01*
X0144972Y0082694D02*
X0147172Y0082694D01*
X0147279Y0083293D02*
X0144833Y0083293D01*
X0144585Y0083891D02*
X0147526Y0083891D01*
X0147774Y0084490D02*
X0144236Y0084490D01*
X0143637Y0085088D02*
X0148342Y0085088D01*
X0148940Y0085687D02*
X0142573Y0085687D01*
X0139972Y0085687D02*
X0132573Y0085687D01*
X0132008Y0085921D02*
X0130536Y0085921D01*
X0129176Y0085357D01*
X0128136Y0084316D01*
X0127572Y0082957D01*
X0127572Y0076285D01*
X0128136Y0074925D01*
X0129176Y0073884D01*
X0130536Y0073321D01*
X0132008Y0073321D01*
X0133368Y0073884D01*
X0134409Y0074925D01*
X0134972Y0076285D01*
X0134972Y0082957D01*
X0134409Y0084316D01*
X0133368Y0085357D01*
X0132008Y0085921D01*
X0133637Y0085088D02*
X0138907Y0085088D01*
X0138309Y0084490D02*
X0134236Y0084490D01*
X0134585Y0083891D02*
X0137959Y0083891D01*
X0137712Y0083293D02*
X0134833Y0083293D01*
X0134972Y0082694D02*
X0137572Y0082694D01*
X0137572Y0082096D02*
X0134972Y0082096D01*
X0134972Y0081497D02*
X0137572Y0081497D01*
X0137572Y0080899D02*
X0134972Y0080899D01*
X0134972Y0080300D02*
X0137572Y0080300D01*
X0137572Y0079702D02*
X0134972Y0079702D01*
X0134972Y0079103D02*
X0137572Y0079103D01*
X0137572Y0078505D02*
X0134972Y0078505D01*
X0134972Y0077906D02*
X0137572Y0077906D01*
X0137572Y0077308D02*
X0134972Y0077308D01*
X0134972Y0076709D02*
X0137572Y0076709D01*
X0137644Y0076111D02*
X0134900Y0076111D01*
X0134652Y0075512D02*
X0137892Y0075512D01*
X0138147Y0074914D02*
X0134398Y0074914D01*
X0133799Y0074315D02*
X0138745Y0074315D01*
X0139172Y0073717D02*
X0132964Y0073717D01*
X0129580Y0073717D02*
X0128128Y0073717D01*
X0127880Y0074315D02*
X0128745Y0074315D01*
X0128147Y0074914D02*
X0127632Y0074914D01*
X0127506Y0075218D02*
X0127506Y0075218D01*
X0127212Y0075512D02*
X0127892Y0075512D01*
X0127644Y0076111D02*
X0126613Y0076111D01*
X0126015Y0076709D02*
X0127572Y0076709D01*
X0127572Y0077308D02*
X0125416Y0077308D01*
X0125220Y0077504D02*
X0125220Y0077504D01*
X0124249Y0077906D02*
X0127572Y0077906D01*
X0127572Y0078505D02*
X0122804Y0078505D01*
X0127572Y0079103D02*
X0085863Y0079103D01*
X0086461Y0078505D02*
X0099012Y0078505D01*
X0098654Y0077906D02*
X0086654Y0077906D01*
X0086654Y0077308D02*
X0098654Y0077308D01*
X0098654Y0076709D02*
X0086654Y0076709D01*
X0086654Y0076111D02*
X0098654Y0076111D01*
X0098654Y0075512D02*
X0086654Y0075512D01*
X0086598Y0074914D02*
X0098875Y0074914D01*
X0108941Y0071921D02*
X0074638Y0071921D01*
X0074638Y0071323D02*
X0108941Y0071323D01*
X0108941Y0070724D02*
X0074549Y0070724D01*
X0074320Y0070126D02*
X0108941Y0070126D01*
X0108941Y0069527D02*
X0075084Y0069527D01*
X0074559Y0072520D02*
X0109422Y0072520D01*
X0116578Y0072520D02*
X0123996Y0072520D01*
X0124244Y0071921D02*
X0117059Y0071921D01*
X0117059Y0071323D02*
X0124474Y0071323D01*
X0124533Y0070724D02*
X0117059Y0070724D01*
X0117059Y0070126D02*
X0124543Y0070126D01*
X0124543Y0069527D02*
X0117059Y0069527D01*
X0117059Y0068929D02*
X0124543Y0068929D01*
X0124543Y0068330D02*
X0117059Y0068330D01*
X0117059Y0067732D02*
X0124721Y0067732D01*
X0124543Y0068160D02*
X0124543Y0068160D01*
X0124968Y0067133D02*
X0117059Y0067133D01*
X0117059Y0066534D02*
X0125216Y0066534D01*
X0125638Y0065936D02*
X0117059Y0065936D01*
X0117059Y0065337D02*
X0126236Y0065337D01*
X0126860Y0064739D02*
X0116908Y0064739D01*
X0116309Y0064140D02*
X0128305Y0064140D01*
X0129218Y0068330D02*
X0139172Y0068330D01*
X0139172Y0068929D02*
X0128793Y0068929D01*
X0128743Y0069527D02*
X0139172Y0069527D01*
X0139172Y0070126D02*
X0128743Y0070126D01*
X0128743Y0070724D02*
X0139172Y0070724D01*
X0139172Y0071323D02*
X0128743Y0071323D01*
X0128743Y0071921D02*
X0139172Y0071921D01*
X0139172Y0072520D02*
X0128624Y0072520D01*
X0128376Y0073118D02*
X0139172Y0073118D01*
X0152565Y0073118D02*
X0160881Y0073118D01*
X0167900Y0074315D02*
X0179693Y0074315D01*
X0179693Y0073717D02*
X0168061Y0073717D01*
X0168221Y0073118D02*
X0180011Y0073118D01*
X0187492Y0073118D02*
X0204168Y0073118D01*
X0204168Y0072520D02*
X0168522Y0072520D01*
X0168867Y0071921D02*
X0204168Y0071921D01*
X0204168Y0071323D02*
X0169213Y0071323D01*
X0169558Y0070724D02*
X0193816Y0070724D01*
X0193322Y0070126D02*
X0170099Y0070126D01*
X0170698Y0069527D02*
X0193322Y0069527D01*
X0193322Y0068929D02*
X0171296Y0068929D01*
X0172122Y0068330D02*
X0193322Y0068330D01*
X0193322Y0067732D02*
X0173158Y0067732D01*
X0174454Y0067133D02*
X0193322Y0067133D01*
X0193322Y0066534D02*
X0176863Y0066534D01*
X0176820Y0059352D02*
X0193322Y0059352D01*
X0193322Y0058754D02*
X0174779Y0058754D01*
X0173742Y0058155D02*
X0193322Y0058155D01*
X0193322Y0057557D02*
X0172888Y0057557D01*
X0172290Y0056958D02*
X0193322Y0056958D01*
X0193322Y0056360D02*
X0171691Y0056360D01*
X0171332Y0055761D02*
X0193322Y0055761D01*
X0193322Y0055163D02*
X0170987Y0055163D01*
X0170641Y0054564D02*
X0193322Y0054564D01*
X0193322Y0053966D02*
X0170467Y0053966D01*
X0170307Y0053367D02*
X0193322Y0053367D01*
X0193541Y0052769D02*
X0170147Y0052769D01*
X0170053Y0052170D02*
X0194140Y0052170D01*
X0199805Y0052170D02*
X0214069Y0052170D01*
X0214069Y0051572D02*
X0170014Y0051572D01*
X0170007Y0050973D02*
X0214069Y0050973D01*
X0214069Y0050375D02*
X0170007Y0050375D01*
X0170007Y0049776D02*
X0214069Y0049776D01*
X0214069Y0049178D02*
X0175339Y0049178D01*
X0175881Y0048579D02*
X0214069Y0048579D01*
X0214069Y0047981D02*
X0175881Y0047981D01*
X0175881Y0047382D02*
X0214069Y0047382D01*
X0214069Y0046784D02*
X0175881Y0046784D01*
X0175881Y0046185D02*
X0214069Y0046185D01*
X0214069Y0045587D02*
X0175881Y0045587D01*
X0175881Y0044988D02*
X0214069Y0044988D01*
X0214069Y0044390D02*
X0175881Y0044390D01*
X0175881Y0043791D02*
X0214069Y0043791D01*
X0214069Y0043193D02*
X0175881Y0043193D01*
X0175881Y0042594D02*
X0214069Y0042594D01*
X0214069Y0041996D02*
X0175881Y0041996D01*
X0175881Y0041397D02*
X0214069Y0041397D01*
X0214069Y0040798D02*
X0175881Y0040798D01*
X0175881Y0040200D02*
X0214069Y0040200D01*
X0214069Y0039601D02*
X0175881Y0039601D01*
X0175881Y0039003D02*
X0214069Y0039003D01*
X0214069Y0038404D02*
X0175881Y0038404D01*
X0175881Y0037806D02*
X0214069Y0037806D01*
X0214069Y0037207D02*
X0175881Y0037207D01*
X0175881Y0036609D02*
X0214069Y0036609D01*
X0214069Y0036010D02*
X0175881Y0036010D01*
X0175881Y0035412D02*
X0214069Y0035412D01*
X0214069Y0034813D02*
X0175881Y0034813D01*
X0175881Y0034215D02*
X0214069Y0034215D01*
X0214069Y0033616D02*
X0175881Y0033616D01*
X0175881Y0033018D02*
X0214069Y0033018D01*
X0214069Y0032419D02*
X0175881Y0032419D01*
X0175881Y0031821D02*
X0214069Y0031821D01*
X0214069Y0031222D02*
X0175881Y0031222D01*
X0175881Y0030624D02*
X0214069Y0030624D01*
X0214069Y0030025D02*
X0175881Y0030025D01*
X0175881Y0029427D02*
X0214069Y0029427D01*
X0214069Y0028828D02*
X0175881Y0028828D01*
X0175881Y0028230D02*
X0214069Y0028230D01*
X0214069Y0027631D02*
X0175881Y0027631D01*
X0175881Y0027033D02*
X0214069Y0027033D01*
X0214069Y0026434D02*
X0175881Y0026434D01*
X0175881Y0025836D02*
X0214069Y0025836D01*
X0214069Y0025237D02*
X0175881Y0025237D01*
X0175881Y0024639D02*
X0214069Y0024639D01*
X0214069Y0024040D02*
X0175881Y0024040D01*
X0175881Y0023442D02*
X0214069Y0023442D01*
X0214069Y0022843D02*
X0175881Y0022843D01*
X0175881Y0022245D02*
X0214069Y0022245D01*
X0214069Y0021646D02*
X0175881Y0021646D01*
X0175881Y0021048D02*
X0214069Y0021048D01*
X0214069Y0020449D02*
X0175881Y0020449D01*
X0175881Y0019851D02*
X0214069Y0019851D01*
X0214069Y0019252D02*
X0175298Y0019252D01*
X0157715Y0019252D02*
X0135928Y0019252D01*
X0136511Y0019851D02*
X0157133Y0019851D01*
X0157133Y0020449D02*
X0136511Y0020449D01*
X0136511Y0021048D02*
X0157133Y0021048D01*
X0157133Y0021646D02*
X0136511Y0021646D01*
X0136511Y0022245D02*
X0157133Y0022245D01*
X0157133Y0022843D02*
X0136511Y0022843D01*
X0136511Y0023442D02*
X0157133Y0023442D01*
X0157133Y0024040D02*
X0136511Y0024040D01*
X0136511Y0024639D02*
X0157133Y0024639D01*
X0157133Y0025237D02*
X0136511Y0025237D01*
X0136511Y0025836D02*
X0157133Y0025836D01*
X0157133Y0026434D02*
X0136511Y0026434D01*
X0136511Y0027033D02*
X0157133Y0027033D01*
X0157133Y0027631D02*
X0136511Y0027631D01*
X0136511Y0028230D02*
X0157133Y0028230D01*
X0157133Y0028828D02*
X0136511Y0028828D01*
X0136511Y0029427D02*
X0157133Y0029427D01*
X0157133Y0030025D02*
X0136511Y0030025D01*
X0136511Y0030624D02*
X0157133Y0030624D01*
X0157133Y0031222D02*
X0136511Y0031222D01*
X0136511Y0031821D02*
X0157133Y0031821D01*
X0157133Y0032419D02*
X0136511Y0032419D01*
X0136511Y0033018D02*
X0157133Y0033018D01*
X0157133Y0033616D02*
X0136511Y0033616D01*
X0136511Y0034215D02*
X0157133Y0034215D01*
X0157133Y0034813D02*
X0136511Y0034813D01*
X0136511Y0035412D02*
X0157133Y0035412D01*
X0157133Y0036010D02*
X0136511Y0036010D01*
X0136511Y0036609D02*
X0157133Y0036609D01*
X0157133Y0037207D02*
X0136511Y0037207D01*
X0136511Y0037806D02*
X0157133Y0037806D01*
X0157133Y0038404D02*
X0136511Y0038404D01*
X0136511Y0039003D02*
X0157133Y0039003D01*
X0157133Y0039601D02*
X0136511Y0039601D01*
X0136511Y0040200D02*
X0157133Y0040200D01*
X0157133Y0040798D02*
X0136511Y0040798D01*
X0136511Y0041397D02*
X0157133Y0041397D01*
X0157133Y0041996D02*
X0136511Y0041996D01*
X0136511Y0042594D02*
X0157133Y0042594D01*
X0157133Y0043193D02*
X0136511Y0043193D01*
X0136511Y0043791D02*
X0157133Y0043791D01*
X0157133Y0044390D02*
X0136511Y0044390D01*
X0136511Y0044988D02*
X0157133Y0044988D01*
X0157133Y0045587D02*
X0136511Y0045587D01*
X0136511Y0046185D02*
X0157133Y0046185D01*
X0157133Y0046784D02*
X0136511Y0046784D01*
X0136511Y0047382D02*
X0157133Y0047382D01*
X0157133Y0047981D02*
X0136511Y0047981D01*
X0136511Y0048579D02*
X0157133Y0048579D01*
X0157674Y0049178D02*
X0135969Y0049178D01*
X0125547Y0049776D02*
X0163007Y0049776D01*
X0163007Y0050375D02*
X0124931Y0050375D01*
X0124316Y0050973D02*
X0163007Y0050973D01*
X0163007Y0051572D02*
X0123700Y0051572D01*
X0122715Y0052170D02*
X0163007Y0052170D01*
X0141518Y0062943D02*
X0117580Y0062943D01*
X0117289Y0063542D02*
X0141156Y0063542D01*
X0123560Y0073118D02*
X0074311Y0073118D01*
X0074013Y0073717D02*
X0122961Y0073717D01*
X0121746Y0074315D02*
X0086000Y0074315D01*
X0086037Y0068929D02*
X0098870Y0068929D01*
X0098272Y0068330D02*
X0086636Y0068330D01*
X0086654Y0067732D02*
X0098254Y0067732D01*
X0098254Y0067133D02*
X0086654Y0067133D01*
X0086654Y0066534D02*
X0098254Y0066534D01*
X0098254Y0065936D02*
X0086654Y0065936D01*
X0086654Y0065337D02*
X0098254Y0065337D01*
X0098484Y0064739D02*
X0086423Y0064739D01*
X0085825Y0064140D02*
X0099082Y0064140D01*
X0098484Y0063542D02*
X0086424Y0063542D01*
X0086654Y0062943D02*
X0098254Y0062943D01*
X0098254Y0062345D02*
X0086654Y0062345D01*
X0086654Y0061746D02*
X0098254Y0061746D01*
X0098254Y0061148D02*
X0086654Y0061148D01*
X0086654Y0060549D02*
X0098254Y0060549D01*
X0098272Y0059951D02*
X0086635Y0059951D01*
X0086037Y0059352D02*
X0098871Y0059352D01*
X0108675Y0058754D02*
X0085715Y0058754D01*
X0085715Y0058155D02*
X0108675Y0058155D01*
X0108675Y0057557D02*
X0085715Y0057557D01*
X0085715Y0056958D02*
X0108675Y0056958D01*
X0109204Y0056360D02*
X0086677Y0056360D01*
X0087177Y0055761D02*
X0108675Y0055761D01*
X0108675Y0055163D02*
X0087177Y0055163D01*
X0077054Y0056958D02*
X0044383Y0056958D01*
X0044383Y0056360D02*
X0076094Y0056360D01*
X0075594Y0055761D02*
X0044110Y0055761D01*
X0043511Y0055163D02*
X0075594Y0055163D01*
X0075594Y0054564D02*
X0014968Y0054564D01*
X0014968Y0053966D02*
X0075594Y0053966D01*
X0075594Y0053367D02*
X0014968Y0053367D01*
X0014968Y0052769D02*
X0075594Y0052769D01*
X0075594Y0052170D02*
X0014968Y0052170D01*
X0014968Y0051572D02*
X0075594Y0051572D01*
X0075594Y0050973D02*
X0014968Y0050973D01*
X0014968Y0050375D02*
X0075594Y0050375D01*
X0075594Y0049776D02*
X0014968Y0049776D01*
X0014968Y0049178D02*
X0075594Y0049178D01*
X0075594Y0048579D02*
X0014968Y0048579D01*
X0014968Y0047981D02*
X0075853Y0047981D01*
X0076452Y0047382D02*
X0014968Y0047382D01*
X0014968Y0055163D02*
X0037555Y0055163D01*
X0036957Y0055761D02*
X0014968Y0055761D01*
X0014968Y0056360D02*
X0036683Y0056360D01*
X0036683Y0056958D02*
X0014968Y0056958D01*
X0014968Y0057557D02*
X0036683Y0057557D01*
X0036683Y0058155D02*
X0014968Y0058155D01*
X0014968Y0058754D02*
X0036683Y0058754D01*
X0036683Y0059352D02*
X0014968Y0059352D01*
X0014968Y0059951D02*
X0036683Y0059951D01*
X0036683Y0060549D02*
X0014968Y0060549D01*
X0014968Y0061148D02*
X0036683Y0061148D01*
X0036683Y0061746D02*
X0014968Y0061746D01*
X0014968Y0062345D02*
X0036683Y0062345D01*
X0036683Y0062943D02*
X0014968Y0062943D01*
X0014968Y0063542D02*
X0036683Y0063542D01*
X0036683Y0064140D02*
X0014968Y0064140D01*
X0014968Y0064739D02*
X0036683Y0064739D01*
X0036683Y0065337D02*
X0014968Y0065337D01*
X0014968Y0065936D02*
X0036683Y0065936D01*
X0036683Y0066534D02*
X0014968Y0066534D01*
X0014968Y0067133D02*
X0036683Y0067133D01*
X0036683Y0067732D02*
X0014968Y0067732D01*
X0014968Y0068330D02*
X0036683Y0068330D01*
X0036683Y0068929D02*
X0014968Y0068929D01*
X0014968Y0069527D02*
X0036683Y0069527D01*
X0036683Y0070126D02*
X0014968Y0070126D01*
X0014968Y0070724D02*
X0036683Y0070724D01*
X0036683Y0071323D02*
X0014968Y0071323D01*
X0014968Y0071921D02*
X0036683Y0071921D01*
X0036683Y0072520D02*
X0014968Y0072520D01*
X0014968Y0073118D02*
X0036683Y0073118D01*
X0036683Y0073717D02*
X0014968Y0073717D01*
X0014968Y0074315D02*
X0036683Y0074315D01*
X0036683Y0074914D02*
X0014968Y0074914D01*
X0014968Y0075512D02*
X0036683Y0075512D01*
X0036683Y0076111D02*
X0014968Y0076111D01*
X0014968Y0076709D02*
X0036683Y0076709D01*
X0036683Y0077308D02*
X0014968Y0077308D01*
X0014968Y0077906D02*
X0036683Y0077906D01*
X0036811Y0078505D02*
X0014968Y0078505D01*
X0014968Y0079103D02*
X0037129Y0079103D01*
X0037129Y0079702D02*
X0014968Y0079702D01*
X0014968Y0080300D02*
X0037273Y0080300D01*
X0037521Y0080899D02*
X0014968Y0080899D01*
X0014968Y0081497D02*
X0037769Y0081497D01*
X0038017Y0082096D02*
X0014968Y0082096D01*
X0014968Y0082694D02*
X0038408Y0082694D01*
X0039007Y0083293D02*
X0014968Y0083293D01*
X0014968Y0083891D02*
X0039605Y0083891D01*
X0040386Y0084490D02*
X0014968Y0084490D01*
X0014968Y0085088D02*
X0041831Y0085088D01*
X0043328Y0085687D02*
X0014968Y0085687D01*
X0014968Y0086285D02*
X0043927Y0086285D01*
X0044525Y0086884D02*
X0014968Y0086884D01*
X0044383Y0076709D02*
X0044723Y0076709D01*
X0044383Y0076111D02*
X0059362Y0076111D01*
X0059168Y0076709D02*
X0050614Y0076709D01*
X0051212Y0077308D02*
X0058973Y0077308D01*
X0058779Y0077906D02*
X0051811Y0077906D01*
X0044383Y0075512D02*
X0059557Y0075512D01*
X0059772Y0074914D02*
X0044383Y0074914D01*
X0044383Y0074315D02*
X0060206Y0074315D01*
X0060641Y0073717D02*
X0044383Y0073717D01*
X0044383Y0073118D02*
X0061076Y0073118D01*
X0061511Y0072520D02*
X0044383Y0072520D01*
X0044383Y0071921D02*
X0061946Y0071921D01*
X0062642Y0071323D02*
X0044383Y0071323D01*
X0044383Y0070724D02*
X0063466Y0070724D01*
X0064290Y0070126D02*
X0044383Y0070126D01*
X0044383Y0069527D02*
X0065114Y0069527D01*
X0066692Y0068929D02*
X0044383Y0068929D01*
X0044383Y0068330D02*
X0068534Y0068330D01*
X0069528Y0067732D02*
X0044383Y0067732D01*
X0044383Y0067133D02*
X0069894Y0067133D01*
X0070492Y0066534D02*
X0044383Y0066534D01*
X0044383Y0065936D02*
X0071091Y0065936D01*
X0071689Y0065337D02*
X0044383Y0065337D01*
X0044383Y0064739D02*
X0072935Y0064739D01*
X0074380Y0064140D02*
X0044383Y0064140D01*
X0044383Y0063542D02*
X0077584Y0063542D01*
X0077354Y0062943D02*
X0044383Y0062943D01*
X0044383Y0062345D02*
X0077354Y0062345D01*
X0077354Y0061746D02*
X0044383Y0061746D01*
X0044383Y0061148D02*
X0077354Y0061148D01*
X0077209Y0060549D02*
X0044383Y0060549D01*
X0044383Y0059951D02*
X0077054Y0059951D01*
X0077054Y0059352D02*
X0044383Y0059352D01*
X0044383Y0058754D02*
X0077054Y0058754D01*
X0077054Y0058155D02*
X0044383Y0058155D01*
X0044383Y0057557D02*
X0077054Y0057557D01*
X0069298Y0076111D02*
X0068079Y0076111D01*
X0067256Y0076709D02*
X0069622Y0076709D01*
X0070221Y0077308D02*
X0066771Y0077308D01*
X0066336Y0077906D02*
X0070819Y0077906D01*
X0071647Y0078505D02*
X0066018Y0078505D01*
X0065823Y0079103D02*
X0073092Y0079103D01*
X0065663Y0079702D02*
X0127572Y0079702D01*
X0127572Y0080300D02*
X0065663Y0080300D01*
X0065663Y0080899D02*
X0127572Y0080899D01*
X0127572Y0081497D02*
X0065663Y0081497D01*
X0065663Y0082096D02*
X0127572Y0082096D01*
X0127572Y0082694D02*
X0065663Y0082694D01*
X0065663Y0083293D02*
X0127712Y0083293D01*
X0127959Y0083891D02*
X0065663Y0083891D01*
X0065663Y0084490D02*
X0128309Y0084490D01*
X0128907Y0085088D02*
X0065663Y0085088D01*
X0065663Y0085687D02*
X0129972Y0085687D01*
X0150372Y0086285D02*
X0065663Y0086285D01*
X0065385Y0086884D02*
X0204525Y0086884D01*
X0203927Y0086285D02*
X0152173Y0086285D01*
X0153604Y0085687D02*
X0203328Y0085687D01*
X0202730Y0085088D02*
X0154203Y0085088D01*
X0154770Y0084490D02*
X0202131Y0084490D01*
X0201918Y0083891D02*
X0155018Y0083891D01*
X0155266Y0083293D02*
X0201918Y0083293D01*
X0201918Y0082694D02*
X0155372Y0082694D01*
X0155372Y0082096D02*
X0201918Y0082096D01*
X0201918Y0081497D02*
X0155372Y0081497D01*
X0155372Y0080899D02*
X0180007Y0080899D01*
X0179693Y0080300D02*
X0165161Y0080300D01*
X0166216Y0079702D02*
X0179693Y0079702D01*
X0187497Y0080899D02*
X0201918Y0080899D01*
X0201918Y0080300D02*
X0187811Y0080300D01*
X0187811Y0079702D02*
X0201918Y0079702D01*
X0202329Y0079103D02*
X0187811Y0079103D01*
X0187811Y0078505D02*
X0202927Y0078505D01*
X0203526Y0077906D02*
X0187811Y0077906D01*
X0187811Y0077308D02*
X0204124Y0077308D01*
X0204168Y0076709D02*
X0187811Y0076709D01*
X0187811Y0076111D02*
X0204168Y0076111D01*
X0204168Y0075512D02*
X0187811Y0075512D01*
X0187811Y0074914D02*
X0204168Y0074914D01*
X0204168Y0074315D02*
X0187811Y0074315D01*
X0187811Y0073717D02*
X0204168Y0073717D01*
X0204168Y0070724D02*
X0200129Y0070724D01*
X0200622Y0070126D02*
X0204168Y0070126D01*
X0204168Y0069527D02*
X0200622Y0069527D01*
X0200622Y0068929D02*
X0204168Y0068929D01*
X0204168Y0068330D02*
X0200622Y0068330D01*
X0200622Y0067732D02*
X0204168Y0067732D01*
X0204168Y0067133D02*
X0200622Y0067133D01*
X0200622Y0066534D02*
X0204001Y0066534D01*
X0210397Y0063542D02*
X0214069Y0063542D01*
X0214069Y0064140D02*
X0210645Y0064140D01*
X0210893Y0064739D02*
X0214069Y0064739D01*
X0214069Y0065337D02*
X0211141Y0065337D01*
X0211168Y0065936D02*
X0214069Y0065936D01*
X0214069Y0066534D02*
X0211168Y0066534D01*
X0211168Y0067133D02*
X0214069Y0067133D01*
X0214069Y0067732D02*
X0211168Y0067732D01*
X0211168Y0068330D02*
X0214069Y0068330D01*
X0214069Y0068929D02*
X0211168Y0068929D01*
X0211168Y0069527D02*
X0214069Y0069527D01*
X0214069Y0070126D02*
X0211168Y0070126D01*
X0211168Y0070724D02*
X0214069Y0070724D01*
X0214069Y0071323D02*
X0211168Y0071323D01*
X0211168Y0071921D02*
X0214069Y0071921D01*
X0214069Y0072520D02*
X0211168Y0072520D01*
X0211168Y0073118D02*
X0214069Y0073118D01*
X0214069Y0073717D02*
X0211168Y0073717D01*
X0211168Y0074315D02*
X0214069Y0074315D01*
X0214069Y0074914D02*
X0211168Y0074914D01*
X0211168Y0075512D02*
X0214069Y0075512D01*
X0214069Y0076111D02*
X0211168Y0076111D01*
X0211168Y0076709D02*
X0214069Y0076709D01*
X0214069Y0077308D02*
X0211212Y0077308D01*
X0211811Y0077906D02*
X0214069Y0077906D01*
X0214069Y0078505D02*
X0212409Y0078505D01*
X0213008Y0079103D02*
X0214069Y0079103D01*
X0214069Y0079702D02*
X0213418Y0079702D01*
X0213418Y0080300D02*
X0214069Y0080300D01*
X0214069Y0080899D02*
X0213418Y0080899D01*
X0213418Y0081497D02*
X0214069Y0081497D01*
X0214069Y0082096D02*
X0213418Y0082096D01*
X0213418Y0082694D02*
X0214069Y0082694D01*
X0214069Y0083293D02*
X0213418Y0083293D01*
X0213418Y0083891D02*
X0214069Y0083891D01*
X0214069Y0084490D02*
X0213205Y0084490D01*
X0212607Y0085088D02*
X0214069Y0085088D01*
X0214069Y0085687D02*
X0212008Y0085687D01*
X0211410Y0086285D02*
X0214069Y0086285D01*
X0214069Y0086884D02*
X0210811Y0086884D01*
X0210149Y0062943D02*
X0214069Y0062943D01*
X0214069Y0062345D02*
X0209725Y0062345D01*
X0209126Y0061746D02*
X0214069Y0061746D01*
X0214069Y0061148D02*
X0208528Y0061148D01*
X0207929Y0060549D02*
X0214069Y0060549D01*
X0214069Y0059951D02*
X0206501Y0059951D01*
X0200622Y0059352D02*
X0214069Y0059352D01*
X0214069Y0058754D02*
X0200622Y0058754D01*
X0200622Y0058155D02*
X0214069Y0058155D01*
X0214069Y0057557D02*
X0200622Y0057557D01*
X0200622Y0056958D02*
X0214069Y0056958D01*
X0214069Y0056360D02*
X0200622Y0056360D01*
X0200622Y0055761D02*
X0214069Y0055761D01*
X0214069Y0055163D02*
X0200622Y0055163D01*
X0200622Y0054564D02*
X0214069Y0054564D01*
X0214069Y0053966D02*
X0200622Y0053966D01*
X0200622Y0053367D02*
X0214069Y0053367D01*
X0214069Y0052769D02*
X0200403Y0052769D01*
X0214069Y0011471D02*
X0014968Y0011471D01*
X0014968Y0010873D02*
X0214069Y0010873D01*
X0214069Y0010274D02*
X0014968Y0010274D01*
X0014968Y0009676D02*
X0214069Y0009676D01*
X0214069Y0009077D02*
X0014968Y0009077D01*
X0014968Y0008479D02*
X0214069Y0008479D01*
X0214069Y0007880D02*
X0014968Y0007880D01*
X0014968Y0007282D02*
X0214069Y0007282D01*
D22*
X0201915Y0031009D03*
X0191915Y0031009D03*
X0191915Y0036009D03*
X0201915Y0036009D03*
X0094915Y0063509D03*
X0089915Y0063509D03*
X0089915Y0068509D03*
X0094915Y0068509D03*
X0094915Y0073509D03*
X0089915Y0073509D03*
X0089915Y0078509D03*
X0094915Y0078509D03*
X0047415Y0031009D03*
X0047415Y0026009D03*
X0032415Y0026009D03*
X0032415Y0031009D03*
D23*
X0080993Y0052050D02*
X0081385Y0052050D01*
X0081594Y0052050D01*
X0081385Y0052050D02*
X0081385Y0053986D01*
X0081385Y0061022D01*
X0081386Y0061022D02*
X0081388Y0061070D01*
X0081394Y0061119D01*
X0081403Y0061166D01*
X0081416Y0061213D01*
X0081433Y0061258D01*
X0081453Y0061303D01*
X0081477Y0061345D01*
X0081504Y0061385D01*
X0081534Y0061423D01*
X0081567Y0061459D01*
X0081603Y0061492D01*
X0081641Y0061522D01*
X0081681Y0061549D01*
X0081723Y0061573D01*
X0081768Y0061593D01*
X0081813Y0061610D01*
X0081860Y0061623D01*
X0081907Y0061632D01*
X0081956Y0061638D01*
X0082004Y0061640D01*
X0082072Y0061638D01*
X0082140Y0061632D01*
X0082207Y0061623D01*
X0082273Y0061610D01*
X0082339Y0061593D01*
X0082404Y0061572D01*
X0082467Y0061548D01*
X0082529Y0061520D01*
X0082590Y0061489D01*
X0082648Y0061454D01*
X0082705Y0061417D01*
X0082759Y0061376D01*
X0082811Y0061332D01*
X0082860Y0061285D01*
X0082907Y0061236D01*
X0082951Y0061184D01*
X0082992Y0061130D01*
X0083029Y0061073D01*
X0083064Y0061015D01*
X0083095Y0060954D01*
X0083123Y0060892D01*
X0083147Y0060829D01*
X0083168Y0060764D01*
X0083185Y0060698D01*
X0083198Y0060632D01*
X0083207Y0060565D01*
X0083213Y0060497D01*
X0083215Y0060429D01*
X0083215Y0053671D01*
X0083213Y0053591D01*
X0083207Y0053512D01*
X0083197Y0053433D01*
X0083184Y0053355D01*
X0083166Y0053277D01*
X0083145Y0053200D01*
X0083120Y0053125D01*
X0083092Y0053051D01*
X0083059Y0052978D01*
X0083024Y0052907D01*
X0082984Y0052838D01*
X0082942Y0052770D01*
X0082896Y0052705D01*
X0082847Y0052643D01*
X0082795Y0052582D01*
X0082740Y0052525D01*
X0082683Y0052470D01*
X0082622Y0052418D01*
X0082560Y0052369D01*
X0082495Y0052323D01*
X0082427Y0052281D01*
X0082358Y0052241D01*
X0082287Y0052206D01*
X0082214Y0052173D01*
X0082140Y0052145D01*
X0082065Y0052120D01*
X0081988Y0052099D01*
X0081910Y0052081D01*
X0081832Y0052068D01*
X0081753Y0052058D01*
X0081674Y0052052D01*
X0081594Y0052050D01*
X0080993Y0052050D02*
X0080918Y0052052D01*
X0080843Y0052058D01*
X0080768Y0052068D01*
X0080694Y0052081D01*
X0080621Y0052099D01*
X0080549Y0052120D01*
X0080478Y0052146D01*
X0080408Y0052174D01*
X0080340Y0052207D01*
X0080274Y0052243D01*
X0080210Y0052282D01*
X0080148Y0052325D01*
X0080088Y0052370D01*
X0080031Y0052419D01*
X0079976Y0052471D01*
X0079924Y0052526D01*
X0079875Y0052583D01*
X0079830Y0052643D01*
X0079787Y0052705D01*
X0079748Y0052769D01*
X0079712Y0052835D01*
X0079679Y0052903D01*
X0079651Y0052973D01*
X0079625Y0053044D01*
X0079604Y0053116D01*
X0079586Y0053189D01*
X0079573Y0053263D01*
X0079563Y0053338D01*
X0079557Y0053413D01*
X0079555Y0053488D01*
X0079554Y0053488D02*
X0079554Y0059191D01*
X0079555Y0059191D02*
X0079557Y0059287D01*
X0079563Y0059383D01*
X0079572Y0059479D01*
X0079585Y0059574D01*
X0079602Y0059669D01*
X0079623Y0059763D01*
X0079647Y0059856D01*
X0079675Y0059948D01*
X0079706Y0060039D01*
X0079741Y0060128D01*
X0079780Y0060216D01*
X0079822Y0060303D01*
X0079867Y0060388D01*
X0079916Y0060471D01*
X0079968Y0060552D01*
X0080023Y0060630D01*
X0080081Y0060707D01*
X0080142Y0060781D01*
X0080206Y0060853D01*
X0080272Y0060923D01*
X0080342Y0060989D01*
X0080414Y0061053D01*
X0080488Y0061114D01*
X0080565Y0061172D01*
X0080643Y0061227D01*
X0080724Y0061279D01*
X0080807Y0061328D01*
X0080892Y0061373D01*
X0080979Y0061415D01*
X0081067Y0061454D01*
X0081156Y0061489D01*
X0081247Y0061520D01*
X0081339Y0061548D01*
X0081432Y0061572D01*
X0081526Y0061593D01*
X0081621Y0061610D01*
X0081716Y0061623D01*
X0081812Y0061632D01*
X0081908Y0061638D01*
X0082004Y0061640D01*
X0102904Y0061641D02*
X0112414Y0061472D01*
X0112413Y0061472D02*
X0112437Y0061447D01*
X0112463Y0061425D01*
X0112491Y0061406D01*
X0112522Y0061390D01*
X0112554Y0061378D01*
X0112587Y0061370D01*
X0112621Y0061365D01*
X0112655Y0061364D01*
X0112689Y0061367D01*
X0112723Y0061374D01*
X0112755Y0061384D01*
X0112786Y0061398D01*
X0112816Y0061416D01*
X0112843Y0061436D01*
X0111570Y0066641D02*
X0102904Y0066641D01*
X0111570Y0066641D02*
X0111647Y0066652D01*
X0111724Y0066667D01*
X0111799Y0066685D01*
X0111874Y0066708D01*
X0111948Y0066733D01*
X0112020Y0066762D01*
X0112091Y0066795D01*
X0112161Y0066831D01*
X0112228Y0066870D01*
X0112294Y0066912D01*
X0112357Y0066957D01*
X0112418Y0067006D01*
X0112477Y0067057D01*
X0112534Y0067111D01*
X0112587Y0067167D01*
X0112638Y0067226D01*
X0112686Y0067288D01*
X0112732Y0067351D01*
X0112774Y0067417D01*
X0112813Y0067485D01*
X0112848Y0067554D01*
X0112881Y0067625D01*
X0112909Y0067697D01*
X0112935Y0067771D01*
X0112957Y0067846D01*
X0112975Y0067922D01*
X0112990Y0067998D01*
X0113001Y0068076D01*
X0113008Y0068153D01*
X0113012Y0068231D01*
X0113011Y0068309D01*
X0113008Y0068387D01*
X0113000Y0068465D01*
X0120618Y0076640D02*
X0120771Y0076638D01*
X0120923Y0076632D01*
X0121075Y0076623D01*
X0121228Y0076609D01*
X0121379Y0076592D01*
X0121530Y0076571D01*
X0121681Y0076545D01*
X0121831Y0076517D01*
X0121980Y0076484D01*
X0122128Y0076448D01*
X0122275Y0076408D01*
X0122422Y0076364D01*
X0122567Y0076316D01*
X0122711Y0076265D01*
X0122853Y0076210D01*
X0122994Y0076152D01*
X0123133Y0076090D01*
X0123271Y0076024D01*
X0123408Y0075955D01*
X0123542Y0075883D01*
X0123674Y0075807D01*
X0123805Y0075728D01*
X0123934Y0075646D01*
X0124060Y0075560D01*
X0124184Y0075471D01*
X0124306Y0075379D01*
X0124425Y0075284D01*
X0124543Y0075187D01*
X0124657Y0075086D01*
X0124769Y0074982D01*
X0124878Y0074875D01*
X0124985Y0074766D01*
X0125089Y0074654D01*
X0125190Y0074540D01*
X0125287Y0074422D01*
X0125382Y0074303D01*
X0125474Y0074181D01*
X0125563Y0074057D01*
X0125649Y0073931D01*
X0125731Y0073802D01*
X0125810Y0073671D01*
X0125886Y0073539D01*
X0125958Y0073405D01*
X0126027Y0073268D01*
X0126093Y0073130D01*
X0126155Y0072991D01*
X0126213Y0072850D01*
X0126268Y0072708D01*
X0126319Y0072564D01*
X0126367Y0072419D01*
X0126411Y0072272D01*
X0126451Y0072125D01*
X0126487Y0071977D01*
X0126520Y0071828D01*
X0126548Y0071678D01*
X0126574Y0071527D01*
X0126595Y0071376D01*
X0126612Y0071225D01*
X0126626Y0071072D01*
X0126635Y0070920D01*
X0126641Y0070768D01*
X0126643Y0070615D01*
X0126643Y0069203D01*
X0126645Y0069093D01*
X0126651Y0068984D01*
X0126660Y0068874D01*
X0126674Y0068765D01*
X0126691Y0068657D01*
X0126712Y0068549D01*
X0126736Y0068442D01*
X0126765Y0068336D01*
X0126797Y0068231D01*
X0126833Y0068127D01*
X0126872Y0068025D01*
X0126915Y0067924D01*
X0126961Y0067824D01*
X0127011Y0067727D01*
X0127064Y0067631D01*
X0127121Y0067536D01*
X0127181Y0067444D01*
X0127244Y0067354D01*
X0127310Y0067267D01*
X0127379Y0067181D01*
X0127451Y0067099D01*
X0127526Y0067018D01*
X0127603Y0066941D01*
X0127684Y0066866D01*
X0127766Y0066794D01*
X0127852Y0066725D01*
X0127939Y0066659D01*
X0128029Y0066596D01*
X0128121Y0066536D01*
X0128216Y0066479D01*
X0128312Y0066426D01*
X0128409Y0066376D01*
X0128509Y0066330D01*
X0128610Y0066287D01*
X0128712Y0066248D01*
X0128816Y0066212D01*
X0128921Y0066180D01*
X0129027Y0066151D01*
X0129134Y0066127D01*
X0129242Y0066106D01*
X0129350Y0066089D01*
X0129459Y0066075D01*
X0129569Y0066066D01*
X0129678Y0066060D01*
X0129788Y0066058D01*
X0141724Y0066058D01*
X0144092Y0066058D01*
X0144113Y0066056D01*
X0144133Y0066052D01*
X0144152Y0066044D01*
X0144170Y0066033D01*
X0144185Y0066019D01*
X0144199Y0066004D01*
X0144210Y0065986D01*
X0144218Y0065967D01*
X0144222Y0065947D01*
X0144224Y0065926D01*
X0141724Y0066058D02*
X0141682Y0066060D01*
X0141641Y0066066D01*
X0141600Y0066075D01*
X0141561Y0066089D01*
X0141523Y0066105D01*
X0141486Y0066126D01*
X0141452Y0066149D01*
X0141419Y0066176D01*
X0141390Y0066205D01*
X0141363Y0066238D01*
X0141340Y0066272D01*
X0141319Y0066309D01*
X0141303Y0066347D01*
X0141289Y0066386D01*
X0141280Y0066427D01*
X0141274Y0066468D01*
X0141272Y0066510D01*
X0141272Y0079621D01*
X0151272Y0079621D02*
X0151274Y0079521D01*
X0151280Y0079421D01*
X0151289Y0079322D01*
X0151303Y0079223D01*
X0151320Y0079124D01*
X0151341Y0079026D01*
X0151365Y0078929D01*
X0151394Y0078834D01*
X0151426Y0078739D01*
X0151461Y0078645D01*
X0151500Y0078553D01*
X0151543Y0078463D01*
X0151589Y0078374D01*
X0151639Y0078287D01*
X0151691Y0078202D01*
X0151747Y0078119D01*
X0151806Y0078039D01*
X0151868Y0077960D01*
X0151933Y0077884D01*
X0152001Y0077811D01*
X0152072Y0077740D01*
X0152145Y0077672D01*
X0152221Y0077607D01*
X0152300Y0077545D01*
X0152380Y0077486D01*
X0152463Y0077430D01*
X0152548Y0077378D01*
X0152635Y0077328D01*
X0152724Y0077282D01*
X0152814Y0077239D01*
X0152906Y0077200D01*
X0153000Y0077165D01*
X0153095Y0077133D01*
X0153190Y0077104D01*
X0153287Y0077080D01*
X0153385Y0077059D01*
X0153484Y0077042D01*
X0153583Y0077028D01*
X0153682Y0077019D01*
X0153782Y0077013D01*
X0153882Y0077011D01*
X0163957Y0077011D02*
X0183752Y0077011D01*
X0195622Y0062959D02*
X0195693Y0062957D01*
X0195763Y0062952D01*
X0195833Y0062942D01*
X0195903Y0062929D01*
X0195971Y0062913D01*
X0196039Y0062893D01*
X0196106Y0062869D01*
X0196171Y0062842D01*
X0196235Y0062812D01*
X0196297Y0062778D01*
X0196357Y0062741D01*
X0196416Y0062701D01*
X0196472Y0062658D01*
X0196525Y0062612D01*
X0196577Y0062564D01*
X0196625Y0062512D01*
X0196671Y0062459D01*
X0196714Y0062403D01*
X0196754Y0062344D01*
X0196791Y0062284D01*
X0196825Y0062222D01*
X0196855Y0062158D01*
X0196882Y0062093D01*
X0196906Y0062026D01*
X0196926Y0061958D01*
X0196942Y0061890D01*
X0196955Y0061820D01*
X0196965Y0061750D01*
X0196970Y0061680D01*
X0196972Y0061609D01*
X0120618Y0076641D02*
X0102904Y0076641D01*
D24*
X0071138Y0071635D02*
X0070917Y0071638D01*
X0070696Y0071646D01*
X0070476Y0071659D01*
X0070256Y0071678D01*
X0070036Y0071702D01*
X0069817Y0071731D01*
X0069599Y0071765D01*
X0069382Y0071805D01*
X0069166Y0071850D01*
X0068951Y0071901D01*
X0068737Y0071956D01*
X0068524Y0072017D01*
X0068314Y0072082D01*
X0068104Y0072153D01*
X0067897Y0072229D01*
X0067691Y0072310D01*
X0067488Y0072396D01*
X0067286Y0072486D01*
X0067087Y0072582D01*
X0066890Y0072682D01*
X0066696Y0072787D01*
X0066504Y0072897D01*
X0066315Y0073011D01*
X0066129Y0073130D01*
X0065946Y0073253D01*
X0065766Y0073381D01*
X0065589Y0073513D01*
X0065415Y0073649D01*
X0065244Y0073789D01*
X0065077Y0073934D01*
X0064914Y0074082D01*
X0064754Y0074234D01*
X0064597Y0074391D01*
X0064445Y0074551D01*
X0064297Y0074714D01*
X0064152Y0074881D01*
X0064012Y0075052D01*
X0063876Y0075226D01*
X0063744Y0075403D01*
X0063616Y0075583D01*
X0063493Y0075766D01*
X0063374Y0075952D01*
X0063260Y0076141D01*
X0063150Y0076333D01*
X0063045Y0076527D01*
X0062945Y0076724D01*
X0062849Y0076923D01*
X0062759Y0077125D01*
X0062673Y0077328D01*
X0062592Y0077534D01*
X0062516Y0077741D01*
X0062445Y0077951D01*
X0062380Y0078161D01*
X0062319Y0078374D01*
X0062264Y0078588D01*
X0062213Y0078803D01*
X0062168Y0079019D01*
X0062128Y0079236D01*
X0062094Y0079454D01*
X0062065Y0079673D01*
X0062041Y0079893D01*
X0062022Y0080113D01*
X0062009Y0080333D01*
X0062001Y0080554D01*
X0061998Y0080775D01*
X0061997Y0080775D02*
X0061604Y0083032D01*
X0061614Y0082972D01*
X0061621Y0082912D01*
X0061624Y0082852D01*
X0061623Y0082792D01*
X0061618Y0082732D01*
X0061610Y0082672D01*
X0061598Y0082613D01*
X0061582Y0082554D01*
X0061563Y0082497D01*
X0061540Y0082441D01*
X0061513Y0082387D01*
X0061483Y0082335D01*
X0061450Y0082284D01*
X0061414Y0082236D01*
X0061375Y0082190D01*
X0061333Y0082146D01*
X0061289Y0082106D01*
X0061242Y0082068D01*
X0061192Y0082033D01*
X0061141Y0082001D01*
X0061088Y0081973D01*
X0061033Y0081948D01*
X0060976Y0081926D01*
X0060919Y0081909D01*
X0060860Y0081894D01*
X0060860Y0081895D02*
X0047668Y0081895D01*
X0043923Y0081895D01*
X0043923Y0081896D02*
X0043811Y0081894D01*
X0043698Y0081888D01*
X0043586Y0081879D01*
X0043474Y0081865D01*
X0043363Y0081848D01*
X0043253Y0081827D01*
X0043143Y0081802D01*
X0043034Y0081774D01*
X0042927Y0081742D01*
X0042820Y0081706D01*
X0042715Y0081666D01*
X0042611Y0081623D01*
X0042508Y0081577D01*
X0042408Y0081527D01*
X0042309Y0081473D01*
X0042211Y0081416D01*
X0042116Y0081356D01*
X0042023Y0081293D01*
X0041933Y0081227D01*
X0041844Y0081157D01*
X0041758Y0081085D01*
X0041675Y0081009D01*
X0041594Y0080931D01*
X0041516Y0080850D01*
X0041440Y0080767D01*
X0041368Y0080681D01*
X0041298Y0080592D01*
X0041232Y0080502D01*
X0041169Y0080409D01*
X0041109Y0080314D01*
X0041052Y0080216D01*
X0040998Y0080117D01*
X0040948Y0080017D01*
X0040902Y0079914D01*
X0040859Y0079810D01*
X0040819Y0079705D01*
X0040783Y0079598D01*
X0040751Y0079491D01*
X0040723Y0079382D01*
X0040698Y0079272D01*
X0040677Y0079162D01*
X0040660Y0079051D01*
X0040646Y0078939D01*
X0040637Y0078827D01*
X0040631Y0078714D01*
X0040629Y0078602D01*
X0040629Y0067302D01*
X0040627Y0067283D01*
X0040622Y0067265D01*
X0040613Y0067249D01*
X0040601Y0067234D01*
X0040586Y0067222D01*
X0040570Y0067213D01*
X0040552Y0067208D01*
X0040533Y0067206D01*
X0082599Y0051577D02*
X0112684Y0051577D01*
X0082599Y0051576D02*
X0082519Y0051605D01*
X0082439Y0051637D01*
X0082361Y0051673D01*
X0082285Y0051712D01*
X0082211Y0051755D01*
X0082139Y0051800D01*
X0082069Y0051849D01*
X0082001Y0051902D01*
X0081935Y0051957D01*
X0081872Y0052015D01*
X0081812Y0052076D01*
X0081754Y0052139D01*
X0081700Y0052205D01*
X0081648Y0052274D01*
X0081600Y0052344D01*
X0081555Y0052417D01*
X0081513Y0052491D01*
X0081474Y0052568D01*
X0081439Y0052646D01*
X0081408Y0052726D01*
X0081380Y0052807D01*
X0081355Y0052889D01*
X0081335Y0052972D01*
X0081318Y0053056D01*
X0081305Y0053140D01*
X0081296Y0053226D01*
X0081291Y0053311D01*
X0081289Y0053397D01*
X0081291Y0053482D01*
X0081297Y0053568D01*
X0081307Y0053653D01*
X0081321Y0053737D01*
X0081339Y0053821D01*
X0081360Y0053904D01*
X0081385Y0053986D01*
X0112684Y0051577D02*
X0113028Y0051577D01*
X0113373Y0051570D01*
X0113717Y0051554D01*
X0114060Y0051530D01*
X0114403Y0051497D01*
X0114745Y0051456D01*
X0115086Y0051407D01*
X0115425Y0051350D01*
X0115764Y0051285D01*
X0116100Y0051211D01*
X0116435Y0051129D01*
X0116767Y0051040D01*
X0117097Y0050942D01*
X0117425Y0050836D01*
X0117750Y0050723D01*
X0118072Y0050601D01*
X0118392Y0050472D01*
X0118708Y0050335D01*
X0119020Y0050191D01*
X0119329Y0050039D01*
X0119635Y0049879D01*
X0119936Y0049713D01*
X0120233Y0049539D01*
X0120526Y0049358D01*
X0120815Y0049170D01*
X0121098Y0048974D01*
X0121377Y0048773D01*
X0121652Y0048564D01*
X0121920Y0048349D01*
X0122184Y0048128D01*
X0122442Y0047900D01*
X0122695Y0047666D01*
X0122942Y0047426D01*
X0123183Y0047180D01*
X0123418Y0046928D01*
X0123647Y0046671D01*
X0123870Y0046408D01*
X0124086Y0046140D01*
X0124296Y0045867D01*
X0124499Y0045589D01*
X0124695Y0045306D01*
X0124884Y0045018D01*
X0125067Y0044726D01*
X0125242Y0044430D01*
X0125410Y0044129D01*
X0125571Y0043824D01*
X0125724Y0043516D01*
X0125870Y0043204D01*
X0126008Y0042889D01*
X0126139Y0042570D01*
X0126261Y0042248D01*
X0126376Y0041923D01*
X0126484Y0041596D01*
X0126583Y0041266D01*
X0126674Y0040934D01*
X0126757Y0040600D01*
X0126832Y0040264D01*
X0126899Y0039926D01*
X0126958Y0039587D01*
X0127008Y0039246D01*
X0127050Y0038904D01*
X0127084Y0038562D01*
X0127110Y0038218D01*
X0127127Y0037874D01*
X0127137Y0037530D01*
X0127137Y0034235D01*
X0166507Y0034235D02*
X0166507Y0051458D01*
X0166510Y0051736D01*
X0166520Y0052014D01*
X0166537Y0052291D01*
X0166561Y0052568D01*
X0166591Y0052844D01*
X0166628Y0053120D01*
X0166671Y0053394D01*
X0166721Y0053668D01*
X0166778Y0053940D01*
X0166841Y0054210D01*
X0166911Y0054479D01*
X0166987Y0054747D01*
X0167070Y0055012D01*
X0167159Y0055275D01*
X0167254Y0055536D01*
X0167356Y0055795D01*
X0167464Y0056051D01*
X0167578Y0056305D01*
X0167698Y0056555D01*
X0167824Y0056803D01*
X0167956Y0057047D01*
X0168094Y0057289D01*
X0168238Y0057526D01*
X0168388Y0057761D01*
X0168543Y0057991D01*
X0168703Y0058218D01*
X0168870Y0058441D01*
X0169041Y0058660D01*
X0169218Y0058874D01*
X0169399Y0059085D01*
X0169586Y0059290D01*
X0169778Y0059492D01*
X0169974Y0059688D01*
X0170176Y0059880D01*
X0170381Y0060067D01*
X0170592Y0060248D01*
X0170806Y0060425D01*
X0171025Y0060596D01*
X0171248Y0060763D01*
X0171475Y0060923D01*
X0171705Y0061078D01*
X0171940Y0061228D01*
X0172177Y0061372D01*
X0172419Y0061510D01*
X0172663Y0061642D01*
X0172911Y0061768D01*
X0173161Y0061888D01*
X0173415Y0062002D01*
X0173671Y0062110D01*
X0173930Y0062212D01*
X0174191Y0062307D01*
X0174454Y0062396D01*
X0174719Y0062479D01*
X0174987Y0062555D01*
X0175256Y0062625D01*
X0175526Y0062688D01*
X0175798Y0062745D01*
X0176072Y0062795D01*
X0176346Y0062838D01*
X0176622Y0062875D01*
X0176898Y0062905D01*
X0177175Y0062929D01*
X0177452Y0062946D01*
X0177730Y0062956D01*
X0178008Y0062959D01*
X0192668Y0062959D01*
X0195622Y0062959D01*
X0192732Y0062895D02*
X0192718Y0062897D01*
X0192704Y0062901D01*
X0192692Y0062909D01*
X0192682Y0062919D01*
X0192674Y0062931D01*
X0192670Y0062945D01*
X0192668Y0062959D01*
X0192732Y0062895D02*
X0203668Y0062895D01*
X0203794Y0062897D01*
X0203919Y0062903D01*
X0204044Y0062913D01*
X0204169Y0062927D01*
X0204294Y0062944D01*
X0204418Y0062966D01*
X0204541Y0062991D01*
X0204663Y0063021D01*
X0204784Y0063054D01*
X0204904Y0063091D01*
X0205023Y0063131D01*
X0205140Y0063176D01*
X0205257Y0063224D01*
X0205371Y0063276D01*
X0205484Y0063331D01*
X0205595Y0063390D01*
X0205704Y0063452D01*
X0205811Y0063518D01*
X0205916Y0063587D01*
X0206019Y0063659D01*
X0206120Y0063734D01*
X0206218Y0063813D01*
X0206313Y0063895D01*
X0206406Y0063979D01*
X0206496Y0064067D01*
X0206584Y0064157D01*
X0206668Y0064250D01*
X0206750Y0064345D01*
X0206829Y0064443D01*
X0206904Y0064544D01*
X0206976Y0064647D01*
X0207045Y0064752D01*
X0207111Y0064859D01*
X0207173Y0064968D01*
X0207232Y0065079D01*
X0207287Y0065192D01*
X0207339Y0065306D01*
X0207387Y0065423D01*
X0207432Y0065540D01*
X0207472Y0065659D01*
X0207509Y0065779D01*
X0207542Y0065900D01*
X0207572Y0066022D01*
X0207597Y0066145D01*
X0207619Y0066269D01*
X0207636Y0066394D01*
X0207650Y0066519D01*
X0207660Y0066644D01*
X0207666Y0066769D01*
X0207668Y0066895D01*
X0207668Y0081895D01*
X0178008Y0062960D02*
X0177668Y0062964D01*
X0177329Y0062976D01*
X0176990Y0062997D01*
X0176652Y0063026D01*
X0176314Y0063062D01*
X0175978Y0063107D01*
X0175642Y0063161D01*
X0175308Y0063222D01*
X0174976Y0063291D01*
X0174645Y0063368D01*
X0174317Y0063454D01*
X0173990Y0063547D01*
X0173666Y0063648D01*
X0173344Y0063757D01*
X0173025Y0063873D01*
X0172709Y0063997D01*
X0172397Y0064129D01*
X0172087Y0064269D01*
X0171781Y0064415D01*
X0171478Y0064569D01*
X0171179Y0064731D01*
X0170885Y0064899D01*
X0170594Y0065075D01*
X0170308Y0065258D01*
X0170026Y0065447D01*
X0169749Y0065644D01*
X0169477Y0065846D01*
X0169209Y0066056D01*
X0168947Y0066272D01*
X0168690Y0066494D01*
X0168439Y0066722D01*
X0168193Y0066956D01*
X0167953Y0067196D01*
X0167719Y0067442D01*
X0167491Y0067693D01*
X0167269Y0067950D01*
X0167053Y0068212D01*
X0166843Y0068480D01*
X0166641Y0068752D01*
X0166444Y0069029D01*
X0166255Y0069311D01*
X0166072Y0069597D01*
X0165896Y0069888D01*
X0165728Y0070182D01*
X0165566Y0070481D01*
X0165412Y0070784D01*
X0165266Y0071090D01*
X0165126Y0071400D01*
X0164994Y0071712D01*
X0164870Y0072028D01*
X0164754Y0072347D01*
X0164645Y0072669D01*
X0164544Y0072993D01*
X0164451Y0073320D01*
X0164365Y0073648D01*
X0164288Y0073979D01*
X0164219Y0074311D01*
X0164158Y0074645D01*
X0164104Y0074981D01*
X0164059Y0075317D01*
X0164023Y0075655D01*
X0163994Y0075993D01*
X0163973Y0076332D01*
X0163961Y0076671D01*
X0163957Y0077011D01*
X0153882Y0077011D01*
X0153782Y0077013D01*
X0153682Y0077019D01*
X0153583Y0077028D01*
X0153484Y0077042D01*
X0153385Y0077059D01*
X0153287Y0077080D01*
X0153190Y0077104D01*
X0153095Y0077133D01*
X0153000Y0077165D01*
X0152906Y0077200D01*
X0152814Y0077239D01*
X0152724Y0077282D01*
X0152635Y0077328D01*
X0152548Y0077378D01*
X0152463Y0077430D01*
X0152380Y0077486D01*
X0152300Y0077545D01*
X0152221Y0077607D01*
X0152145Y0077672D01*
X0152072Y0077740D01*
X0152001Y0077811D01*
X0151933Y0077884D01*
X0151868Y0077960D01*
X0151806Y0078039D01*
X0151747Y0078119D01*
X0151691Y0078202D01*
X0151639Y0078287D01*
X0151589Y0078374D01*
X0151543Y0078463D01*
X0151500Y0078553D01*
X0151461Y0078645D01*
X0151426Y0078739D01*
X0151394Y0078834D01*
X0151365Y0078929D01*
X0151341Y0079026D01*
X0151320Y0079124D01*
X0151303Y0079223D01*
X0151289Y0079322D01*
X0151280Y0079421D01*
X0151274Y0079521D01*
X0151272Y0079621D01*
D25*
X0081947Y0076697D02*
X0074807Y0076697D01*
X0081947Y0076698D02*
X0081960Y0076697D01*
X0081972Y0076692D01*
X0081983Y0076686D01*
X0081992Y0076677D01*
X0081998Y0076666D01*
X0082003Y0076654D01*
X0082004Y0076641D01*
X0074807Y0076698D02*
X0074687Y0076696D01*
X0074567Y0076690D01*
X0074447Y0076680D01*
X0074328Y0076667D01*
X0074209Y0076649D01*
X0074091Y0076627D01*
X0073974Y0076602D01*
X0073857Y0076573D01*
X0073742Y0076540D01*
X0073627Y0076503D01*
X0073514Y0076463D01*
X0073403Y0076419D01*
X0073292Y0076371D01*
X0073184Y0076320D01*
X0073077Y0076265D01*
X0072972Y0076206D01*
X0072869Y0076145D01*
X0072768Y0076079D01*
X0072669Y0076011D01*
X0072573Y0075940D01*
X0072479Y0075865D01*
X0072387Y0075787D01*
X0072298Y0075707D01*
X0072212Y0075623D01*
X0072128Y0075537D01*
X0072048Y0075448D01*
X0071970Y0075356D01*
X0071895Y0075262D01*
X0071824Y0075166D01*
X0071756Y0075067D01*
X0071690Y0074966D01*
X0071629Y0074863D01*
X0071570Y0074758D01*
X0071515Y0074651D01*
X0071464Y0074543D01*
X0071416Y0074432D01*
X0071372Y0074321D01*
X0071332Y0074208D01*
X0071295Y0074093D01*
X0071262Y0073978D01*
X0071233Y0073861D01*
X0071208Y0073744D01*
X0071186Y0073626D01*
X0071168Y0073507D01*
X0071155Y0073388D01*
X0071145Y0073268D01*
X0071139Y0073148D01*
X0071137Y0073028D01*
X0071138Y0073028D02*
X0071138Y0071634D01*
X0071137Y0071634D02*
X0071139Y0071494D01*
X0071145Y0071354D01*
X0071155Y0071214D01*
X0071168Y0071075D01*
X0071186Y0070936D01*
X0071208Y0070797D01*
X0071233Y0070660D01*
X0071262Y0070523D01*
X0071295Y0070387D01*
X0071332Y0070251D01*
X0071373Y0070117D01*
X0071417Y0069985D01*
X0071465Y0069853D01*
X0071517Y0069723D01*
X0071573Y0069594D01*
X0071632Y0069467D01*
X0071694Y0069342D01*
X0071760Y0069218D01*
X0071830Y0069097D01*
X0071902Y0068977D01*
X0071979Y0068859D01*
X0072058Y0068744D01*
X0072141Y0068631D01*
X0072227Y0068520D01*
X0072315Y0068412D01*
X0072407Y0068306D01*
X0072502Y0068203D01*
X0072600Y0068103D01*
X0072700Y0068005D01*
X0072803Y0067910D01*
X0072909Y0067818D01*
X0073017Y0067730D01*
X0073128Y0067644D01*
X0073241Y0067561D01*
X0073356Y0067482D01*
X0073474Y0067405D01*
X0073594Y0067333D01*
X0073715Y0067263D01*
X0073839Y0067197D01*
X0073964Y0067135D01*
X0074091Y0067076D01*
X0074220Y0067020D01*
X0074350Y0066968D01*
X0074482Y0066920D01*
X0074614Y0066876D01*
X0074748Y0066835D01*
X0074884Y0066798D01*
X0075020Y0066765D01*
X0075157Y0066736D01*
X0075294Y0066711D01*
X0075433Y0066689D01*
X0075572Y0066671D01*
X0075711Y0066658D01*
X0075851Y0066648D01*
X0075991Y0066642D01*
X0076131Y0066640D01*
X0076131Y0066641D02*
X0082004Y0066641D01*
M02*
