M48
;GenerationSoftware,Autodesk,EAGLE,9.2.2*%
;CreationDate,2018-12-07T14:44:05Z*%
FMAT,2
ICI,OFF
METRIC,TZ,000.000
T3C0.500
T2C0.800
T1C0.813
%
G90
M71
T1
X29972Y11938
X29972Y17018
X27432Y14478
X49657Y25527
X44577Y25527
X47117Y22987
T2
X22860Y25400
X22860Y7620
X63500Y25400
X63500Y7620
T3
X34861Y23270
X33591Y23270
X33591Y22000
X34861Y22000
X34861Y20730
X33591Y20730
X34861Y24540
X33591Y24540
X16446Y11205
X16446Y12475
X20256Y12475
X20256Y11205
X59499Y12475
X59499Y13745
X62039Y13745
X62039Y12475
X30029Y24005
M30