M48
;GenerationSoftware,Autodesk,EAGLE,9.4.0*%
;CreationDate,2019-05-08T10:29:43Z*%
FMAT,2
ICI,OFF
METRIC,TZ,000.000
T12C0.500
T11C0.800
T10C0.813
T9C0.914
T8C1.000
T7C1.016
T6C1.100
T5C1.300
T4C1.321
T3C2.000
T2C3.300
T1C5.300
%
G90
M71
T1
X0Y59000
X0Y46500
X0Y21000
X0Y33500
T2
X11339Y68977
X93333Y68995
X11339Y10967
X93333Y10965
T3
X5461Y24765
X15621Y24765
X15621Y34925
X5461Y34925
X15621Y45085
X15621Y55245
X5461Y45085
X5461Y55245
X19050Y59750
X19050Y45750
X19050Y34250
X19050Y20250
T4
X11176Y56642
X11176Y49022
X11176Y31242
X11176Y23622
T5
X17263Y6306
X78704Y70159
X83784Y70159
X22343Y6306
X33053Y74648
X38253Y74648
X22953Y74648
X17753Y74648
X43798Y15570
T6
X26093Y61905
X26093Y43595
X26093Y36405
X26093Y18095
T7
X63222Y3113
X59417Y20611
X60682Y3113
X58142Y5653
X58142Y3113
X55602Y3113
X60682Y5653
X63222Y5653
X55602Y5653
X104750Y23190
X57855Y51329
X57855Y53869
X57855Y56409
X68826Y28202
X71366Y28202
X73906Y28202
X76446Y28202
X78986Y28202
X81526Y28202
X59417Y23151
X68529Y35550
X65989Y35550
X100228Y23190
X104750Y16688
X57865Y33554
X57865Y31014
X100228Y16688
X57865Y28474
T8
X43798Y8070
T9
X104635Y46641
X102095Y46641
X104635Y44101
X102095Y44101
X104635Y49181
X102095Y51721
X102095Y49181
X104635Y51721
X102095Y54261
X104635Y54261
T10
X35306Y22270
X52299Y18085
X55329Y15631
X52789Y15631
X49487Y45175
X49487Y42635
X89154Y4445
X86614Y4445
X94234Y4445
X86995Y30734
X97155Y30734
X97155Y34036
X86995Y34036
X40386Y22270
X91694Y4445
X40386Y32430
X50794Y39588
X48254Y39588
X35306Y32430
X40386Y47670
X35306Y47670
X40386Y57830
X35306Y57830
X86956Y37338
X97116Y37338
X52299Y20625
T11
X61400Y43124
X61341Y46863
X28351Y61905
X51943Y46990
X55185Y21825
X55181Y31030
X54860Y53261
X80899Y46228
X97155Y46355
X78918Y50865
X52070Y73660
X52070Y76200
X92710Y58420
X92710Y60960
X92710Y73660
X92710Y76200
X52070Y58420
X52070Y60960
X40450Y50840
X40450Y52750
X40450Y54660
X40450Y25340
X40450Y27250
X40450Y29160
X42545Y28321
X42545Y26289
X42545Y53721
X42545Y51816
X87413Y46246
X90457Y46260
X61334Y50623
X54759Y49348
X61442Y38468
X55225Y36413
X23835Y61905
X28351Y43595
X23835Y43595
X28351Y36405
X23835Y36405
X28351Y18095
X23835Y18095
T12
X26093Y20000
X27843Y20000
X29593Y20000
X22593Y34500
X26093Y34500
X27843Y34500
X29593Y34500
X22593Y32750
X24343Y32750
X26093Y32750
X27843Y32750
X29593Y32750
X22593Y31000
X24343Y31000
X26093Y31000
X27843Y31000
X29593Y31000
X24343Y34500
X24343Y20000
X85051Y26750
X22593Y20000
X29593Y21750
X84155Y27394
X27843Y21750
X22593Y49000
X24343Y49000
X26093Y49000
X27843Y49000
X29593Y49000
X22593Y47250
X24343Y47250
X26093Y47250
X27843Y47250
X29593Y47250
X22593Y45500
X24343Y45500
X26093Y45500
X27843Y45500
X29593Y45500
X22593Y60000
X94156Y24397
X27843Y60000
X29593Y60000
X22593Y58250
X24343Y58250
X26093Y58250
X27843Y58250
X29593Y58250
X22593Y56500
X24343Y56500
X26093Y56500
X27843Y56500
X29593Y56500
X24343Y60000
X26093Y21750
X59498Y45903
X24343Y21750
X22593Y21750
X62892Y66660
X96315Y20714
X29593Y23500
X27843Y23500
X26093Y23500
X24343Y23500
X22593Y23500
X90429Y26528
X92736Y15405
X87195Y16701
X87830Y20330
X54046Y33631
X55694Y27292
X71958Y34110
X71986Y36935
X66850Y51720
X57363Y70326
X76219Y59429
X72686Y59235
X88695Y32398
X41100Y8517
X68883Y24905
X87425Y53734
X96669Y54405
X67023Y48651
X78187Y43731
X78486Y35035
X32736Y63239
X32706Y42288
X32693Y20825
X32572Y37663
X49386Y20656
X51311Y13398
X82087Y33930
X51520Y49022
X62571Y49496
X58600Y40086
X62997Y45562
X80821Y37986
X79740Y44582
X64062Y16701
X89712Y27449
X71314Y45566
X70661Y39129
X46925Y60634
X74886Y50168
X53756Y46347
X90567Y48831
X46532Y71066
X49449Y72925
X69342Y14732
X69179Y16876
X99441Y28575
X96261Y28442
X91399Y15068
X79574Y9978
X64150Y38554
X64004Y18620
X52036Y31014
X74149Y22721
X69274Y19483
X61390Y19531
X84891Y22777
X77971Y22721
X76474Y31198
X73639Y40509
X77890Y13287
X64998Y8253
X85082Y20672
X84650Y29342
X77374Y32483
X75395Y42114
X73034Y10275
X49356Y68970
X42702Y35789
X46914Y35504
X42546Y44100
X63901Y9015
X85170Y18758
X81792Y31489
X78832Y31706
X19685Y61640
X19685Y43860
X46514Y44647
X42694Y60902
X76980Y38738
X73463Y34160
X73578Y38596
X18415Y43860
X18415Y61640
X17425Y60925
X17050Y59750
X17050Y58425
X17050Y57075
X17050Y55750
X17425Y54575
X18425Y53850
X19675Y53850
X20675Y54575
X21050Y55750
X21050Y57075
X21050Y58425
X21050Y59750
X20675Y60925
X17425Y44575
X17050Y45750
X17050Y47075
X17050Y48425
X17050Y49750
X17425Y50925
X18425Y51650
X19675Y51650
X20675Y50925
X21050Y49750
X21050Y48400
X21050Y47075
X21050Y45750
X20675Y44575
X19685Y36140
X19685Y18360
X46953Y19225
X53848Y24105
X61527Y21016
X63391Y10251
X75254Y24615
X18415Y18360
X18415Y36140
X17425Y35425
X17050Y34250
X17050Y32925
X17050Y31575
X17050Y30250
X17425Y29075
X18425Y28350
X19675Y28350
X20675Y29075
X21050Y30250
X21050Y31575
X21050Y32925
X21050Y34250
X20675Y35425
X17425Y19075
X17050Y20250
X17050Y21575
X17050Y22925
X17050Y24250
X17425Y25425
X18425Y26150
X19675Y26150
X20675Y25425
X21050Y24250
X21050Y22900
X21050Y21575
X21050Y20250
X20675Y19075
X84515Y25422
X63050Y40463
X72042Y38827
X85472Y39328
X88048Y39320
X68375Y25921
X41063Y18644
X76271Y17110
X61568Y36523
X26093Y60000
M30