G04 EAGLE Gerber RS-274X export*
G75*
%MOMM*%
%FSLAX34Y34*%
%LPD*%
%IN*%
%IPPOS*%
%AMOC8*
5,1,8,0,0,1.08239X$1,22.5*%
G01*
%ADD10C,0.254000*%


D10*
X-63500Y144780D02*
X-58420Y144780D01*
X-47351Y144297D01*
X-36367Y142851D01*
X-25550Y140453D01*
X-14983Y137121D01*
X-4748Y132881D01*
X5080Y127765D01*
X14424Y121812D01*
X23214Y115068D01*
X31383Y107583D01*
X38868Y99414D01*
X45612Y90624D01*
X51565Y81280D01*
X56681Y71453D01*
X60921Y61217D01*
X64253Y50650D01*
X66651Y39833D01*
X68097Y28849D01*
X68580Y17780D01*
X962660Y17780D01*
X962660Y27940D01*
X963105Y38123D01*
X964435Y48229D01*
X966641Y58180D01*
X969706Y67902D01*
X973607Y77319D01*
X978314Y86360D01*
X983790Y94957D01*
X989995Y103043D01*
X996882Y110558D01*
X1004397Y117445D01*
X1012483Y123650D01*
X1021080Y129126D01*
X1030121Y133833D01*
X1039538Y137734D01*
X1049260Y140799D01*
X1059211Y143005D01*
X1069317Y144335D01*
X1079500Y144780D01*
X1079500Y655320D01*
X1069317Y655765D01*
X1059211Y657095D01*
X1049260Y659301D01*
X1039538Y662366D01*
X1030121Y666267D01*
X1021080Y670974D01*
X1012483Y676450D01*
X1004397Y682655D01*
X996882Y689542D01*
X989995Y697057D01*
X983790Y705143D01*
X978314Y713740D01*
X973607Y722781D01*
X969706Y732198D01*
X966641Y741920D01*
X964435Y751871D01*
X963105Y761977D01*
X962660Y772160D01*
X962660Y782320D01*
X68580Y782320D01*
X68097Y771251D01*
X66651Y760267D01*
X64253Y749450D01*
X60921Y738883D01*
X56681Y728647D01*
X51565Y718820D01*
X45612Y709476D01*
X38868Y700686D01*
X31383Y692517D01*
X23214Y685032D01*
X14424Y678288D01*
X5080Y672335D01*
X-4747Y667219D01*
X-14983Y662979D01*
X-25550Y659647D01*
X-36367Y657249D01*
X-47351Y655803D01*
X-58420Y655320D01*
X-63500Y655320D01*
X-63500Y144780D01*
X180500Y302500D02*
X180538Y301628D01*
X180652Y300764D01*
X180841Y299912D01*
X181103Y299080D01*
X181437Y298274D01*
X181840Y297500D01*
X182308Y296764D01*
X182840Y296072D01*
X183429Y295429D01*
X184072Y294840D01*
X184764Y294308D01*
X185500Y293840D01*
X186274Y293437D01*
X187080Y293103D01*
X187912Y292841D01*
X188764Y292652D01*
X189628Y292538D01*
X190500Y292500D01*
X191372Y292538D01*
X192236Y292652D01*
X193088Y292841D01*
X193920Y293103D01*
X194726Y293437D01*
X195500Y293840D01*
X196236Y294308D01*
X196928Y294840D01*
X197571Y295429D01*
X198160Y296072D01*
X198692Y296764D01*
X199160Y297500D01*
X199563Y298274D01*
X199897Y299080D01*
X200159Y299912D01*
X200348Y300764D01*
X200462Y301628D01*
X200500Y302500D01*
X200500Y342500D01*
X200462Y343372D01*
X200348Y344236D01*
X200159Y345088D01*
X199897Y345920D01*
X199563Y346726D01*
X199160Y347500D01*
X198692Y348236D01*
X198160Y348928D01*
X197571Y349571D01*
X196928Y350160D01*
X196236Y350692D01*
X195500Y351160D01*
X194726Y351563D01*
X193920Y351897D01*
X193088Y352159D01*
X192236Y352348D01*
X191372Y352462D01*
X190500Y352500D01*
X189628Y352462D01*
X188764Y352348D01*
X187912Y352159D01*
X187080Y351897D01*
X186274Y351563D01*
X185500Y351160D01*
X184764Y350692D01*
X184072Y350160D01*
X183429Y349571D01*
X182840Y348928D01*
X182308Y348236D01*
X181840Y347500D01*
X181437Y346726D01*
X181103Y345920D01*
X180841Y345088D01*
X180652Y344236D01*
X180538Y343372D01*
X180500Y342500D01*
X180500Y302500D01*
X180500Y202500D02*
X180538Y201628D01*
X180652Y200764D01*
X180841Y199912D01*
X181103Y199080D01*
X181437Y198274D01*
X181840Y197500D01*
X182308Y196764D01*
X182840Y196072D01*
X183429Y195429D01*
X184072Y194840D01*
X184764Y194308D01*
X185500Y193840D01*
X186274Y193437D01*
X187080Y193103D01*
X187912Y192841D01*
X188764Y192652D01*
X189628Y192538D01*
X190500Y192500D01*
X191372Y192538D01*
X192236Y192652D01*
X193088Y192841D01*
X193920Y193103D01*
X194726Y193437D01*
X195500Y193840D01*
X196236Y194308D01*
X196928Y194840D01*
X197571Y195429D01*
X198160Y196072D01*
X198692Y196764D01*
X199160Y197500D01*
X199563Y198274D01*
X199897Y199080D01*
X200159Y199912D01*
X200348Y200764D01*
X200462Y201628D01*
X200500Y202500D01*
X200500Y242500D01*
X200462Y243372D01*
X200348Y244236D01*
X200159Y245088D01*
X199897Y245920D01*
X199563Y246726D01*
X199160Y247500D01*
X198692Y248236D01*
X198160Y248928D01*
X197571Y249571D01*
X196928Y250160D01*
X196236Y250692D01*
X195500Y251160D01*
X194726Y251563D01*
X193920Y251897D01*
X193088Y252159D01*
X192236Y252348D01*
X191372Y252462D01*
X190500Y252500D01*
X189628Y252462D01*
X188764Y252348D01*
X187912Y252159D01*
X187080Y251897D01*
X186274Y251563D01*
X185500Y251160D01*
X184764Y250692D01*
X184072Y250160D01*
X183429Y249571D01*
X182840Y248928D01*
X182308Y248236D01*
X181840Y247500D01*
X181437Y246726D01*
X181103Y245920D01*
X180841Y245088D01*
X180652Y244236D01*
X180538Y243372D01*
X180500Y242500D01*
X180500Y202500D01*
X180500Y557500D02*
X180538Y556628D01*
X180652Y555764D01*
X180841Y554912D01*
X181103Y554080D01*
X181437Y553274D01*
X181840Y552500D01*
X182308Y551764D01*
X182840Y551072D01*
X183429Y550429D01*
X184072Y549840D01*
X184764Y549308D01*
X185500Y548840D01*
X186274Y548437D01*
X187080Y548103D01*
X187912Y547841D01*
X188764Y547652D01*
X189628Y547538D01*
X190500Y547500D01*
X191372Y547538D01*
X192236Y547652D01*
X193088Y547841D01*
X193920Y548103D01*
X194726Y548437D01*
X195500Y548840D01*
X196236Y549308D01*
X196928Y549840D01*
X197571Y550429D01*
X198160Y551072D01*
X198692Y551764D01*
X199160Y552500D01*
X199563Y553274D01*
X199897Y554080D01*
X200159Y554912D01*
X200348Y555764D01*
X200462Y556628D01*
X200500Y557500D01*
X200500Y597500D01*
X200462Y598372D01*
X200348Y599236D01*
X200159Y600088D01*
X199897Y600920D01*
X199563Y601726D01*
X199160Y602500D01*
X198692Y603236D01*
X198160Y603928D01*
X197571Y604571D01*
X196928Y605160D01*
X196236Y605692D01*
X195500Y606160D01*
X194726Y606563D01*
X193920Y606897D01*
X193088Y607159D01*
X192236Y607348D01*
X191372Y607462D01*
X190500Y607500D01*
X189628Y607462D01*
X188764Y607348D01*
X187912Y607159D01*
X187080Y606897D01*
X186274Y606563D01*
X185500Y606160D01*
X184764Y605692D01*
X184072Y605160D01*
X183429Y604571D01*
X182840Y603928D01*
X182308Y603236D01*
X181840Y602500D01*
X181437Y601726D01*
X181103Y600920D01*
X180841Y600088D01*
X180652Y599236D01*
X180538Y598372D01*
X180500Y597500D01*
X180500Y557500D01*
X180500Y457500D02*
X180538Y456628D01*
X180652Y455764D01*
X180841Y454912D01*
X181103Y454080D01*
X181437Y453274D01*
X181840Y452500D01*
X182308Y451764D01*
X182840Y451072D01*
X183429Y450429D01*
X184072Y449840D01*
X184764Y449308D01*
X185500Y448840D01*
X186274Y448437D01*
X187080Y448103D01*
X187912Y447841D01*
X188764Y447652D01*
X189628Y447538D01*
X190500Y447500D01*
X191372Y447538D01*
X192236Y447652D01*
X193088Y447841D01*
X193920Y448103D01*
X194726Y448437D01*
X195500Y448840D01*
X196236Y449308D01*
X196928Y449840D01*
X197571Y450429D01*
X198160Y451072D01*
X198692Y451764D01*
X199160Y452500D01*
X199563Y453274D01*
X199897Y454080D01*
X200159Y454912D01*
X200348Y455764D01*
X200462Y456628D01*
X200500Y457500D01*
X200500Y497500D01*
X200462Y498372D01*
X200348Y499236D01*
X200159Y500088D01*
X199897Y500920D01*
X199563Y501726D01*
X199160Y502500D01*
X198692Y503236D01*
X198160Y503928D01*
X197571Y504571D01*
X196928Y505160D01*
X196236Y505692D01*
X195500Y506160D01*
X194726Y506563D01*
X193920Y506897D01*
X193088Y507159D01*
X192236Y507348D01*
X191372Y507462D01*
X190500Y507500D01*
X189628Y507462D01*
X188764Y507348D01*
X187912Y507159D01*
X187080Y506897D01*
X186274Y506563D01*
X185500Y506160D01*
X184764Y505692D01*
X184072Y505160D01*
X183429Y504571D01*
X182840Y503928D01*
X182308Y503236D01*
X181840Y502500D01*
X181437Y501726D01*
X181103Y500920D01*
X180841Y500088D01*
X180652Y499236D01*
X180538Y498372D01*
X180500Y497500D01*
X180500Y457500D01*
X437704Y85699D02*
X437146Y85636D01*
X436599Y85511D01*
X436069Y85325D01*
X435563Y85082D01*
X435087Y84783D01*
X434648Y84433D01*
X434251Y84036D01*
X433901Y83597D01*
X433602Y83121D01*
X433358Y82615D01*
X433173Y82085D01*
X433048Y81538D01*
X432985Y80979D01*
X432985Y80418D01*
X433048Y79860D01*
X433173Y79312D01*
X433358Y78782D01*
X433602Y78276D01*
X433901Y77801D01*
X434251Y77362D01*
X434648Y76965D01*
X435087Y76614D01*
X435563Y76316D01*
X436069Y76072D01*
X436599Y75887D01*
X437146Y75762D01*
X437704Y75699D01*
X438266Y75699D01*
X438824Y75762D01*
X439371Y75887D01*
X439901Y76072D01*
X440407Y76316D01*
X440883Y76614D01*
X441322Y76965D01*
X441719Y77362D01*
X442069Y77801D01*
X442368Y78276D01*
X442612Y78782D01*
X442797Y79312D01*
X442922Y79860D01*
X442985Y80418D01*
X442985Y80979D01*
X442922Y81538D01*
X442797Y82085D01*
X442612Y82615D01*
X442368Y83121D01*
X442069Y83597D01*
X441719Y84036D01*
X441322Y84433D01*
X440883Y84783D01*
X440407Y85082D01*
X439901Y85325D01*
X439371Y85511D01*
X438824Y85636D01*
X438266Y85699D01*
X437704Y85699D01*
X437666Y162199D02*
X437030Y162136D01*
X436404Y162012D01*
X435793Y161826D01*
X435203Y161582D01*
X434639Y161281D01*
X434108Y160926D01*
X433615Y160521D01*
X433163Y160069D01*
X432758Y159575D01*
X432403Y159044D01*
X432102Y158481D01*
X431858Y157891D01*
X431672Y157280D01*
X431548Y156654D01*
X431485Y156018D01*
X431485Y155379D01*
X431548Y154744D01*
X431672Y154117D01*
X431858Y153506D01*
X432102Y152916D01*
X432403Y152353D01*
X432758Y151822D01*
X433163Y151328D01*
X433615Y150877D01*
X434108Y150472D01*
X434639Y150117D01*
X435203Y149816D01*
X435793Y149571D01*
X436404Y149386D01*
X437030Y149261D01*
X437666Y149199D01*
X438304Y149199D01*
X438940Y149261D01*
X439566Y149386D01*
X440177Y149571D01*
X440767Y149816D01*
X441331Y150117D01*
X441862Y150472D01*
X442355Y150877D01*
X442807Y151328D01*
X443212Y151822D01*
X443567Y152353D01*
X443868Y152916D01*
X444112Y153506D01*
X444298Y154117D01*
X444422Y154744D01*
X444485Y155379D01*
X444485Y156018D01*
X444422Y156654D01*
X444298Y157280D01*
X444112Y157891D01*
X443868Y158481D01*
X443567Y159044D01*
X443212Y159575D01*
X442807Y160069D01*
X442355Y160521D01*
X441862Y160926D01*
X441331Y161281D01*
X440767Y161582D01*
X440177Y161826D01*
X439566Y162012D01*
X438940Y162136D01*
X438304Y162199D01*
X437666Y162199D01*
M02*
