G04 EAGLE Gerber RS-274X export*
G75*
%MOMM*%
%FSLAX34Y34*%
%LPD*%
%INSilkscreen Bottom*%
%IPPOS*%
%AMOC8*
5,1,8,0,0,1.08239X$1,22.5*%
G01*
%ADD10C,0.279400*%
%ADD11C,0.152400*%
%ADD12C,0.304800*%
%ADD13C,0.762000*%
%ADD14C,0.203200*%
%ADD15R,14.732000X14.478000*%
%ADD16C,0.127000*%
%ADD17C,0.228600*%
%ADD18C,0.101600*%
%ADD19C,0.076200*%
%ADD20R,0.006300X0.006400*%
%ADD21R,0.012700X0.006300*%
%ADD22R,0.019100X0.006400*%
%ADD23R,0.025400X0.006300*%
%ADD24R,0.057200X0.006300*%
%ADD25R,0.025400X0.006400*%
%ADD26R,0.088900X0.006400*%
%ADD27R,0.038100X0.006300*%
%ADD28R,0.107900X0.006300*%
%ADD29R,0.044500X0.006400*%
%ADD30R,0.127000X0.006400*%
%ADD31R,0.050800X0.006300*%
%ADD32R,0.139700X0.006300*%
%ADD33R,0.006300X0.006300*%
%ADD34R,0.050800X0.006400*%
%ADD35R,0.152400X0.006400*%
%ADD36R,0.063500X0.006300*%
%ADD37R,0.171500X0.006300*%
%ADD38R,0.069800X0.006400*%
%ADD39R,0.184100X0.006400*%
%ADD40R,0.012700X0.006400*%
%ADD41R,0.082500X0.006300*%
%ADD42R,0.196800X0.006300*%
%ADD43R,0.019000X0.006300*%
%ADD44R,0.082600X0.006300*%
%ADD45R,0.209600X0.006400*%
%ADD46R,0.019000X0.006400*%
%ADD47R,0.114300X0.006400*%
%ADD48R,0.304800X0.006300*%
%ADD49R,0.069800X0.006300*%
%ADD50R,0.031800X0.006300*%
%ADD51R,0.031700X0.006300*%
%ADD52R,0.146000X0.006300*%
%ADD53R,0.152400X0.006300*%
%ADD54R,0.006400X0.006300*%
%ADD55R,0.311100X0.006400*%
%ADD56R,0.082600X0.006400*%
%ADD57R,0.038100X0.006400*%
%ADD58R,0.044400X0.006400*%
%ADD59R,0.165100X0.006400*%
%ADD60R,0.209500X0.006400*%
%ADD61R,0.311200X0.006300*%
%ADD62R,0.165100X0.006300*%
%ADD63R,0.088900X0.006300*%
%ADD64R,0.044500X0.006300*%
%ADD65R,0.247600X0.006300*%
%ADD66R,0.266700X0.006300*%
%ADD67R,0.317500X0.006400*%
%ADD68R,0.254000X0.006400*%
%ADD69R,0.101600X0.006400*%
%ADD70R,0.057100X0.006400*%
%ADD71R,0.298500X0.006400*%
%ADD72R,0.031800X0.006400*%
%ADD73R,0.336600X0.006300*%
%ADD74R,0.120700X0.006300*%
%ADD75R,0.260400X0.006300*%
%ADD76R,0.323900X0.006300*%
%ADD77R,0.095200X0.006300*%
%ADD78R,0.698500X0.006400*%
%ADD79R,0.228600X0.006400*%
%ADD80R,0.279400X0.006400*%
%ADD81R,0.355600X0.006400*%
%ADD82R,0.177800X0.006400*%
%ADD83R,0.704800X0.006300*%
%ADD84R,0.241300X0.006300*%
%ADD85R,0.298500X0.006300*%
%ADD86R,0.406400X0.006300*%
%ADD87R,0.184200X0.006300*%
%ADD88R,0.723900X0.006400*%
%ADD89R,0.717500X0.006400*%
%ADD90R,0.190500X0.006400*%
%ADD91R,0.736600X0.006300*%
%ADD92R,0.019100X0.006300*%
%ADD93R,0.723900X0.006300*%
%ADD94R,0.203200X0.006300*%
%ADD95R,0.762000X0.006400*%
%ADD96R,0.063500X0.006400*%
%ADD97R,0.215900X0.006400*%
%ADD98R,1.168400X0.006300*%
%ADD99R,0.222300X0.006300*%
%ADD100R,1.162100X0.006400*%
%ADD101R,0.222200X0.006400*%
%ADD102R,1.155700X0.006300*%
%ADD103R,0.196900X0.006300*%
%ADD104R,0.228600X0.006300*%
%ADD105R,1.136600X0.006400*%
%ADD106R,0.203200X0.006400*%
%ADD107R,1.124000X0.006300*%
%ADD108R,0.209600X0.006300*%
%ADD109R,0.044400X0.006300*%
%ADD110R,0.717600X0.006300*%
%ADD111R,0.235000X0.006300*%
%ADD112R,1.117600X0.006400*%
%ADD113R,0.711200X0.006400*%
%ADD114R,0.241300X0.006400*%
%ADD115R,1.104900X0.006300*%
%ADD116R,0.215900X0.006300*%
%ADD117R,0.190500X0.006300*%
%ADD118R,0.114300X0.006300*%
%ADD119R,1.016000X0.006300*%
%ADD120R,1.079500X0.006400*%
%ADD121R,0.260300X0.006400*%
%ADD122R,0.901700X0.006400*%
%ADD123R,1.054100X0.006300*%
%ADD124R,0.292100X0.006300*%
%ADD125R,0.273100X0.006300*%
%ADD126R,0.895300X0.006300*%
%ADD127R,1.009700X0.006400*%
%ADD128R,0.235000X0.006400*%
%ADD129R,0.323900X0.006400*%
%ADD130R,0.285800X0.006400*%
%ADD131R,0.895400X0.006400*%
%ADD132R,0.965200X0.006300*%
%ADD133R,0.615900X0.006300*%
%ADD134R,0.882700X0.006300*%
%ADD135R,0.641400X0.006400*%
%ADD136R,0.628700X0.006400*%
%ADD137R,0.336600X0.006400*%
%ADD138R,0.882600X0.006400*%
%ADD139R,0.577800X0.006300*%
%ADD140R,0.666700X0.006300*%
%ADD141R,0.400000X0.006300*%
%ADD142R,0.076200X0.006300*%
%ADD143R,0.698500X0.006300*%
%ADD144R,0.158800X0.006300*%
%ADD145R,0.495300X0.006400*%
%ADD146R,1.104900X0.006400*%
%ADD147R,0.774700X0.006400*%
%ADD148R,0.489000X0.006300*%
%ADD149R,1.098500X0.006300*%
%ADD150R,0.743000X0.006300*%
%ADD151R,0.501700X0.006400*%
%ADD152R,1.085900X0.006400*%
%ADD153R,0.743000X0.006400*%
%ADD154R,0.057100X0.006300*%
%ADD155R,0.533400X0.006300*%
%ADD156R,1.066800X0.006300*%
%ADD157R,0.825500X0.006300*%
%ADD158R,0.558800X0.006400*%
%ADD159R,1.054100X0.006400*%
%ADD160R,0.812800X0.006400*%
%ADD161R,0.622300X0.006300*%
%ADD162R,1.041400X0.006300*%
%ADD163R,0.812800X0.006300*%
%ADD164R,0.793800X0.006400*%
%ADD165R,0.806400X0.006400*%
%ADD166R,0.806400X0.006300*%
%ADD167R,0.952500X0.006300*%
%ADD168R,0.800100X0.006300*%
%ADD169R,0.819200X0.006400*%
%ADD170R,0.952500X0.006400*%
%ADD171R,0.800100X0.006400*%
%ADD172R,0.692200X0.006300*%
%ADD173R,0.831900X0.006400*%
%ADD174R,0.685800X0.006400*%
%ADD175R,0.463500X0.006400*%
%ADD176R,0.311200X0.006400*%
%ADD177R,0.838200X0.006300*%
%ADD178R,0.679400X0.006300*%
%ADD179R,0.946200X0.006400*%
%ADD180R,0.679400X0.006400*%
%ADD181R,0.273100X0.006400*%
%ADD182R,0.254000X0.006300*%
%ADD183R,0.704800X0.006400*%
%ADD184R,0.133400X0.006400*%
%ADD185R,0.958900X0.006400*%
%ADD186R,0.742900X0.006400*%
%ADD187R,0.076200X0.006400*%
%ADD188R,0.107900X0.006400*%
%ADD189R,0.958800X0.006300*%
%ADD190R,0.755600X0.006300*%
%ADD191R,0.108000X0.006300*%
%ADD192R,0.146100X0.006400*%
%ADD193R,0.787400X0.006300*%
%ADD194R,0.260300X0.006300*%
%ADD195R,0.171400X0.006400*%
%ADD196R,0.711200X0.006300*%
%ADD197R,0.819100X0.006300*%
%ADD198R,0.444500X0.006400*%
%ADD199R,0.831800X0.006400*%
%ADD200R,0.184100X0.006300*%
%ADD201R,0.400100X0.006300*%
%ADD202R,0.850900X0.006300*%
%ADD203R,0.177800X0.006300*%
%ADD204R,0.393700X0.006400*%
%ADD205R,0.400000X0.006400*%
%ADD206R,0.406400X0.006400*%
%ADD207R,0.381000X0.006300*%
%ADD208R,0.374700X0.006300*%
%ADD209R,0.393700X0.006300*%
%ADD210R,0.158700X0.006400*%
%ADD211R,0.374700X0.006400*%
%ADD212R,0.361900X0.006400*%
%ADD213R,0.368300X0.006400*%
%ADD214R,0.374600X0.006300*%
%ADD215R,0.361900X0.006300*%
%ADD216R,0.362000X0.006300*%
%ADD217R,0.171400X0.006300*%
%ADD218R,0.431800X0.006400*%
%ADD219R,0.362000X0.006400*%
%ADD220R,0.171500X0.006400*%
%ADD221R,0.368300X0.006300*%
%ADD222R,0.419100X0.006300*%
%ADD223R,0.355600X0.006300*%
%ADD224R,0.412800X0.006400*%
%ADD225R,0.381000X0.006400*%
%ADD226R,0.006400X0.006400*%
%ADD227R,0.158800X0.006400*%
%ADD228R,0.349200X0.006400*%
%ADD229R,0.209500X0.006300*%
%ADD230R,0.349300X0.006400*%
%ADD231R,0.158700X0.006300*%
%ADD232R,0.349200X0.006300*%
%ADD233R,0.196800X0.006400*%
%ADD234R,0.342900X0.006300*%
%ADD235R,0.342900X0.006400*%
%ADD236R,0.260400X0.006400*%
%ADD237R,0.146100X0.006300*%
%ADD238R,0.139700X0.006400*%
%ADD239R,0.120600X0.006400*%
%ADD240R,0.266700X0.006400*%
%ADD241R,0.133400X0.006300*%
%ADD242R,0.127000X0.006300*%
%ADD243R,0.336500X0.006300*%
%ADD244R,0.387300X0.006300*%
%ADD245R,0.330200X0.006400*%
%ADD246R,0.330200X0.006300*%
%ADD247R,0.069900X0.006300*%
%ADD248R,0.273000X0.006300*%
%ADD249R,0.069900X0.006400*%
%ADD250R,0.273000X0.006400*%
%ADD251R,0.425400X0.006400*%
%ADD252R,0.438100X0.006300*%
%ADD253R,0.057200X0.006400*%
%ADD254R,0.457200X0.006300*%
%ADD255R,0.279400X0.006300*%
%ADD256R,0.476200X0.006300*%
%ADD257R,0.336500X0.006400*%
%ADD258R,0.482600X0.006400*%
%ADD259R,0.508000X0.006300*%
%ADD260R,0.133300X0.006300*%
%ADD261R,0.285700X0.006300*%
%ADD262R,0.031700X0.006400*%
%ADD263R,0.692100X0.006400*%
%ADD264R,0.285700X0.006400*%
%ADD265R,0.692100X0.006300*%
%ADD266R,0.292100X0.006400*%
%ADD267R,0.679500X0.006300*%
%ADD268R,0.673100X0.006400*%
%ADD269R,0.673100X0.006300*%
%ADD270R,0.298400X0.006400*%
%ADD271R,0.660400X0.006300*%
%ADD272R,0.660400X0.006400*%
%ADD273R,0.304800X0.006400*%
%ADD274R,0.311100X0.006300*%
%ADD275R,0.095300X0.006300*%
%ADD276R,0.647700X0.006300*%
%ADD277R,0.323800X0.006300*%
%ADD278R,0.647700X0.006400*%
%ADD279R,0.101600X0.006300*%
%ADD280R,0.641300X0.006300*%
%ADD281R,0.108000X0.006400*%
%ADD282R,0.635000X0.006400*%
%ADD283R,0.628700X0.006300*%
%ADD284R,0.387300X0.006400*%
%ADD285R,0.622300X0.006400*%
%ADD286R,0.387400X0.006300*%
%ADD287R,0.616000X0.006400*%
%ADD288R,0.412700X0.006300*%
%ADD289R,0.616000X0.006300*%
%ADD290R,0.609600X0.006400*%
%ADD291R,0.374600X0.006400*%
%ADD292R,0.609600X0.006300*%
%ADD293R,0.400100X0.006400*%
%ADD294R,0.635000X0.006300*%
%ADD295R,0.774700X0.006300*%
%ADD296R,0.781100X0.006400*%
%ADD297R,0.577900X0.006400*%
%ADD298R,0.781100X0.006300*%
%ADD299R,0.781000X0.006400*%
%ADD300R,0.590500X0.006400*%
%ADD301R,0.641400X0.006300*%
%ADD302R,0.596900X0.006300*%
%ADD303R,0.787400X0.006400*%
%ADD304R,0.120600X0.006300*%
%ADD305R,0.793800X0.006300*%
%ADD306R,0.793700X0.006400*%
%ADD307R,0.730200X0.006300*%
%ADD308R,0.666800X0.006400*%
%ADD309R,0.730300X0.006400*%
%ADD310R,0.768300X0.006300*%
%ADD311R,0.146000X0.006400*%
%ADD312R,0.819100X0.006400*%
%ADD313R,0.781000X0.006300*%
%ADD314R,0.838200X0.006400*%
%ADD315R,0.793700X0.006300*%
%ADD316R,0.844600X0.006300*%
%ADD317R,0.857200X0.006400*%
%ADD318R,0.762000X0.006300*%
%ADD319R,0.863600X0.006300*%
%ADD320R,0.863600X0.006400*%
%ADD321R,0.869900X0.006300*%
%ADD322R,0.825500X0.006400*%
%ADD323R,0.749300X0.006400*%
%ADD324R,0.870000X0.006400*%
%ADD325R,0.831900X0.006300*%
%ADD326R,0.876300X0.006300*%
%ADD327R,0.736600X0.006400*%
%ADD328R,0.869900X0.006400*%
%ADD329R,0.844600X0.006400*%
%ADD330R,0.850900X0.006400*%
%ADD331R,0.857300X0.006300*%
%ADD332R,0.889000X0.006400*%
%ADD333R,0.844500X0.006400*%
%ADD334R,0.901700X0.006300*%
%ADD335R,0.920700X0.006400*%
%ADD336R,0.692200X0.006400*%
%ADD337R,0.927100X0.006300*%
%ADD338R,0.685800X0.006300*%
%ADD339R,0.412700X0.006400*%
%ADD340R,0.679500X0.006400*%
%ADD341R,0.425500X0.006300*%
%ADD342R,0.958900X0.006300*%
%ADD343R,0.438100X0.006400*%
%ADD344R,0.971500X0.006400*%
%ADD345R,0.450900X0.006300*%
%ADD346R,0.984300X0.006300*%
%ADD347R,0.742900X0.006300*%
%ADD348R,0.469900X0.006400*%
%ADD349R,0.996900X0.006400*%
%ADD350R,1.492200X0.006300*%
%ADD351R,0.654100X0.006300*%
%ADD352R,1.505000X0.006400*%
%ADD353R,0.654000X0.006400*%
%ADD354R,1.524000X0.006300*%
%ADD355R,0.654000X0.006300*%
%ADD356R,1.530300X0.006400*%
%ADD357R,1.543100X0.006300*%
%ADD358R,1.555700X0.006400*%
%ADD359R,1.574800X0.006300*%
%ADD360R,1.587500X0.006400*%
%ADD361R,1.600200X0.006300*%
%ADD362R,1.612900X0.006400*%
%ADD363R,0.654100X0.006400*%
%ADD364R,1.631900X0.006300*%
%ADD365R,1.638300X0.006400*%
%ADD366R,0.628600X0.006400*%
%ADD367R,1.651000X0.006300*%
%ADD368R,1.663700X0.006400*%
%ADD369R,1.682800X0.006300*%
%ADD370R,1.701800X0.006400*%
%ADD371R,1.720900X0.006300*%
%ADD372R,0.603200X0.006300*%
%ADD373R,1.739900X0.006400*%
%ADD374R,0.603200X0.006400*%
%ADD375R,1.752600X0.006300*%
%ADD376R,1.778000X0.006400*%
%ADD377R,0.596900X0.006400*%
%ADD378R,0.590600X0.006400*%
%ADD379R,1.809700X0.006300*%
%ADD380R,0.584200X0.006300*%
%ADD381R,2.419300X0.006400*%
%ADD382R,2.425700X0.006300*%
%ADD383R,0.571500X0.006300*%
%ADD384R,2.425700X0.006400*%
%ADD385R,0.565100X0.006400*%
%ADD386R,2.438400X0.006300*%
%ADD387R,0.565100X0.006300*%
%ADD388R,2.438400X0.006400*%
%ADD389R,2.444800X0.006300*%
%ADD390R,0.552400X0.006300*%
%ADD391R,2.444800X0.006400*%
%ADD392R,0.546100X0.006400*%
%ADD393R,2.457400X0.006300*%
%ADD394R,0.546100X0.006300*%
%ADD395R,2.457400X0.006400*%
%ADD396R,0.539800X0.006400*%
%ADD397R,2.463800X0.006400*%
%ADD398R,0.533400X0.006400*%
%ADD399R,2.470200X0.006300*%
%ADD400R,0.527100X0.006300*%
%ADD401R,2.476500X0.006400*%
%ADD402R,0.520700X0.006400*%
%ADD403R,2.482800X0.006300*%
%ADD404R,0.520700X0.006300*%
%ADD405R,2.482800X0.006400*%
%ADD406R,2.495600X0.006300*%
%ADD407R,2.495600X0.006400*%
%ADD408R,2.508200X0.006300*%
%ADD409R,2.514600X0.006400*%
%ADD410R,2.514600X0.006300*%
%ADD411R,2.527300X0.006400*%
%ADD412R,2.533700X0.006300*%
%ADD413R,2.546400X0.006400*%
%ADD414R,2.559000X0.006300*%
%ADD415R,2.565400X0.006400*%
%ADD416R,0.539700X0.006400*%
%ADD417R,2.571700X0.006300*%
%ADD418R,0.539700X0.006300*%
%ADD419R,2.584500X0.006400*%
%ADD420R,2.590800X0.006300*%
%ADD421R,0.552500X0.006300*%
%ADD422R,2.609800X0.006400*%
%ADD423R,2.622500X0.006300*%
%ADD424R,2.641600X0.006400*%
%ADD425R,0.584200X0.006400*%
%ADD426R,3.232200X0.006300*%
%ADD427R,3.232200X0.006400*%
%ADD428R,0.457200X0.006400*%
%ADD429R,0.514400X0.006300*%
%ADD430R,3.232100X0.006300*%
%ADD431R,3.867100X0.006400*%
%ADD432R,3.879800X0.006300*%
%ADD433R,3.892500X0.006400*%
%ADD434R,3.911600X0.006300*%
%ADD435R,3.918000X0.006400*%
%ADD436R,3.930700X0.006300*%
%ADD437R,3.937000X0.006400*%
%ADD438R,3.949700X0.006300*%
%ADD439R,3.962400X0.006400*%
%ADD440R,3.968700X0.006300*%
%ADD441R,3.975100X0.006400*%
%ADD442R,3.981400X0.006300*%
%ADD443R,4.000500X0.006400*%
%ADD444R,4.006900X0.006300*%
%ADD445R,4.013200X0.006400*%
%ADD446R,4.013200X0.006300*%
%ADD447R,4.019600X0.006400*%
%ADD448R,4.032200X0.006300*%
%ADD449R,4.038600X0.006400*%
%ADD450R,4.044900X0.006300*%
%ADD451R,4.044900X0.006400*%
%ADD452R,0.939800X0.006300*%
%ADD453R,3.111500X0.006300*%
%ADD454R,3.111500X0.006400*%
%ADD455R,0.946200X0.006300*%
%ADD456R,3.105100X0.006300*%
%ADD457R,0.958800X0.006400*%
%ADD458R,0.514400X0.006400*%
%ADD459R,0.527000X0.006300*%
%ADD460R,0.527000X0.006400*%
%ADD461R,3.105200X0.006400*%
%ADD462R,3.098800X0.006300*%
%ADD463R,3.105100X0.006400*%
%ADD464R,3.092400X0.006400*%
%ADD465R,3.092500X0.006300*%
%ADD466R,0.552500X0.006400*%
%ADD467R,2.457500X0.006400*%
%ADD468R,0.558800X0.006300*%
%ADD469R,0.082500X0.006400*%
%ADD470R,0.565200X0.006400*%
%ADD471R,2.381200X0.006400*%
%ADD472R,2.330500X0.006300*%
%ADD473R,0.133300X0.006400*%
%ADD474R,0.247600X0.006400*%
%ADD475R,2.279700X0.006400*%
%ADD476R,2.228900X0.006300*%
%ADD477R,2.089200X0.006400*%
%ADD478R,0.323800X0.006400*%
%ADD479R,0.234900X0.006300*%
%ADD480R,1.778000X0.006300*%
%ADD481R,1.701800X0.006300*%
%ADD482R,1.625600X0.006300*%
%ADD483R,1.593800X0.006400*%
%ADD484R,1.562100X0.006300*%
%ADD485R,1.536700X0.006400*%
%ADD486R,1.511300X0.006300*%
%ADD487R,1.492300X0.006400*%
%ADD488R,0.247700X0.006400*%
%ADD489R,0.920700X0.006300*%
%ADD490R,1.466900X0.006300*%
%ADD491R,1.003300X0.006400*%
%ADD492R,1.441400X0.006400*%
%ADD493R,1.073100X0.006300*%
%ADD494R,1.422400X0.006300*%
%ADD495R,1.098500X0.006400*%
%ADD496R,1.409700X0.006400*%
%ADD497R,1.123900X0.006300*%
%ADD498R,1.390700X0.006300*%
%ADD499R,1.143000X0.006400*%
%ADD500R,1.371600X0.006400*%
%ADD501R,0.234900X0.006400*%
%ADD502R,1.346200X0.006300*%
%ADD503R,1.174700X0.006400*%
%ADD504R,1.327200X0.006400*%
%ADD505R,1.187400X0.006300*%
%ADD506R,1.314400X0.006300*%
%ADD507R,1.200100X0.006400*%
%ADD508R,1.295400X0.006400*%
%ADD509R,1.206500X0.006300*%
%ADD510R,1.276300X0.006300*%
%ADD511R,1.219200X0.006400*%
%ADD512R,1.263600X0.006400*%
%ADD513R,1.225500X0.006300*%
%ADD514R,1.244600X0.006300*%
%ADD515R,1.231900X0.006400*%
%ADD516R,1.238200X0.006300*%
%ADD517R,1.238300X0.006400*%
%ADD518R,1.187500X0.006400*%
%ADD519R,0.387400X0.006400*%
%ADD520R,1.251000X0.006400*%
%ADD521R,1.149400X0.006400*%
%ADD522R,1.257300X0.006300*%
%ADD523R,1.136700X0.006300*%
%ADD524R,0.095200X0.006400*%
%ADD525R,1.257300X0.006400*%
%ADD526R,1.123900X0.006400*%
%ADD527R,1.263700X0.006300*%
%ADD528R,1.143000X0.006300*%
%ADD529R,0.095300X0.006400*%
%ADD530R,1.270000X0.006400*%
%ADD531R,0.419100X0.006400*%
%ADD532R,1.270000X0.006300*%
%ADD533R,1.301700X0.006300*%
%ADD534R,0.184200X0.006400*%
%ADD535R,1.276300X0.006400*%
%ADD536R,0.285800X0.006300*%
%ADD537R,1.282700X0.006300*%
%ADD538R,1.251000X0.006300*%
%ADD539R,1.282700X0.006400*%
%ADD540R,1.225600X0.006400*%
%ADD541R,0.908100X0.006400*%
%ADD542R,1.181100X0.006400*%
%ADD543R,1.162000X0.006300*%
%ADD544R,1.130300X0.006400*%
%ADD545R,1.111300X0.006300*%
%ADD546R,0.247700X0.006300*%
%ADD547R,1.060400X0.006300*%
%ADD548R,1.041400X0.006400*%
%ADD549R,1.022300X0.006300*%
%ADD550R,0.806500X0.006300*%
%ADD551R,0.806500X0.006400*%
%ADD552R,0.939800X0.006400*%
%ADD553R,0.920800X0.006300*%
%ADD554R,0.222300X0.006400*%
%ADD555R,0.717600X0.006400*%
%ADD556R,0.908000X0.006300*%
%ADD557R,0.222200X0.006300*%
%ADD558R,0.298400X0.006300*%
%ADD559R,0.889000X0.006300*%
%ADD560R,0.476300X0.006400*%
%ADD561R,0.495300X0.006300*%
%ADD562R,0.450900X0.006400*%
%ADD563R,0.831800X0.006300*%
%ADD564R,0.539800X0.006300*%
%ADD565R,0.590600X0.006300*%
%ADD566R,0.755700X0.006300*%
%ADD567R,0.349300X0.006300*%
%ADD568R,0.603300X0.006400*%
%ADD569R,0.514300X0.006400*%
%ADD570R,0.717500X0.006300*%
%ADD571R,0.908100X0.006300*%
%ADD572R,0.514300X0.006300*%
%ADD573R,1.066800X0.006400*%
%ADD574R,1.117600X0.006300*%
%ADD575R,0.571500X0.006400*%
%ADD576R,0.488900X0.006300*%
%ADD577R,0.552400X0.006400*%
%ADD578R,0.704900X0.006400*%
%ADD579R,1.162000X0.006400*%
%ADD580R,0.463500X0.006300*%
%ADD581R,1.149300X0.006400*%
%ADD582R,0.450800X0.006400*%
%ADD583R,1.111300X0.006400*%
%ADD584R,1.098600X0.006300*%
%ADD585R,1.028700X0.006400*%
%ADD586R,0.704900X0.006300*%
%ADD587R,0.997000X0.006400*%
%ADD588R,0.984200X0.006300*%
%ADD589R,0.965200X0.006400*%
%ADD590R,0.933400X0.006300*%
%ADD591R,0.920800X0.006400*%
%ADD592R,0.914400X0.006300*%
%ADD593R,0.730300X0.006300*%
%ADD594R,0.882700X0.006400*%
%ADD595R,0.857300X0.006400*%
%ADD596R,0.768300X0.006400*%
%ADD597R,0.749300X0.006300*%
%ADD598R,0.590500X0.006300*%
%ADD599R,0.476300X0.006300*%
%ADD600R,0.489000X0.006400*%
%ADD601R,0.317500X0.006300*%
%ADD602R,0.482600X0.006300*%
%ADD603R,0.476200X0.006400*%
%ADD604R,0.527100X0.006400*%
%ADD605R,0.431800X0.006300*%
%ADD606R,0.425400X0.006300*%
%ADD607R,0.438200X0.006400*%
%ADD608R,0.444500X0.006300*%
%ADD609R,0.997000X0.006300*%
%ADD610R,0.469900X0.006300*%
%ADD611R,1.212800X0.006300*%
%ADD612R,0.641300X0.006400*%
%ADD613R,0.501600X0.006400*%
%ADD614R,0.628600X0.006300*%
%ADD615R,1.276400X0.006400*%
%ADD616R,1.295400X0.006300*%
%ADD617R,1.314500X0.006400*%
%ADD618R,1.339800X0.006300*%
%ADD619R,1.358900X0.006400*%
%ADD620R,1.365200X0.006300*%
%ADD621R,1.289100X0.006400*%
%ADD622R,1.200100X0.006300*%
%ADD623R,0.508000X0.006400*%
%ADD624R,1.098600X0.006400*%
%ADD625R,0.501600X0.006300*%
%ADD626R,1.073200X0.006300*%
%ADD627R,1.047800X0.006400*%
%ADD628R,1.028700X0.006300*%
%ADD629R,1.009600X0.006400*%
%ADD630R,0.844500X0.006300*%
%ADD631R,0.730200X0.006400*%
%ADD632R,0.463600X0.006300*%
%ADD633R,0.463600X0.006400*%
%ADD634R,0.577800X0.006400*%
%ADD635R,0.120700X0.006400*%
%ADD636R,1.314500X0.006300*%
%ADD637R,1.352600X0.006400*%
%ADD638R,1.517700X0.006300*%
%ADD639R,0.438200X0.006300*%
%ADD640R,1.524000X0.006400*%
%ADD641R,1.047700X0.006400*%
%ADD642R,0.425500X0.006400*%
%ADD643R,0.006400X0.006400*%
%ADD644R,0.412800X0.006300*%
%ADD645R,0.450800X0.006300*%
%ADD646R,1.060500X0.006400*%


D10*
X388096Y249645D02*
X388096Y244645D01*
X385597Y242145D01*
X375597Y242145D01*
X373098Y244645D01*
X373098Y249645D01*
X375597Y252144D01*
X385597Y252144D01*
X388096Y249645D01*
X383097Y258517D02*
X368098Y258517D01*
X383097Y258517D02*
X383097Y266016D01*
X380597Y268516D01*
X375597Y268516D01*
X373098Y266016D01*
X373098Y258517D01*
X373098Y277388D02*
X373098Y282388D01*
X373098Y277388D02*
X375597Y274888D01*
X380597Y274888D01*
X383097Y277388D01*
X383097Y282388D01*
X380597Y284888D01*
X378097Y284888D01*
X378097Y274888D01*
X373098Y291260D02*
X383097Y291260D01*
X383097Y298759D01*
X380597Y301259D01*
X373098Y301259D01*
X388096Y307631D02*
X388096Y317631D01*
X388096Y307631D02*
X373098Y307631D01*
X373098Y317631D01*
X380597Y312631D02*
X380597Y307631D01*
X383097Y324003D02*
X373098Y324003D01*
X383097Y324003D02*
X383097Y331502D01*
X380597Y334002D01*
X373098Y334002D01*
X373098Y342874D02*
X373098Y347874D01*
X373098Y342874D02*
X375597Y340375D01*
X380597Y340375D01*
X383097Y342874D01*
X383097Y347874D01*
X380597Y350374D01*
X378097Y350374D01*
X378097Y340375D01*
X373098Y356746D02*
X383097Y356746D01*
X378097Y356746D02*
X383097Y361746D01*
X383097Y364246D01*
X368098Y375389D02*
X368098Y377889D01*
X370598Y380388D01*
X383097Y380388D01*
X383097Y372889D01*
X380597Y370389D01*
X375597Y370389D01*
X373098Y372889D01*
X373098Y380388D01*
X375597Y386761D02*
X383097Y386761D01*
X375597Y386761D02*
X373098Y389260D01*
X373098Y396760D01*
X370598Y396760D02*
X383097Y396760D01*
X370598Y396760D02*
X368098Y394260D01*
X368098Y391760D01*
X373098Y403132D02*
X388096Y403132D01*
X383097Y408132D01*
X388096Y413131D01*
X373098Y413131D01*
X373098Y422004D02*
X373098Y427003D01*
X375597Y429503D01*
X380597Y429503D01*
X383097Y427003D01*
X383097Y422004D01*
X380597Y419504D01*
X375597Y419504D01*
X373098Y422004D01*
X373098Y435875D02*
X383097Y435875D01*
X383097Y443375D01*
X380597Y445875D01*
X373098Y445875D01*
X383097Y452247D02*
X383097Y454747D01*
X373098Y454747D01*
X373098Y452247D02*
X373098Y457247D01*
X388096Y454747D02*
X390596Y454747D01*
X385597Y465661D02*
X375597Y465661D01*
X373098Y468161D01*
X383097Y468161D02*
X383097Y463161D01*
X373098Y476575D02*
X373098Y481575D01*
X375597Y484075D01*
X380597Y484075D01*
X383097Y481575D01*
X383097Y476575D01*
X380597Y474076D01*
X375597Y474076D01*
X373098Y476575D01*
X373098Y490447D02*
X383097Y490447D01*
X378097Y490447D02*
X383097Y495447D01*
X383097Y497947D01*
X375597Y504090D02*
X373098Y504090D01*
X375597Y504090D02*
X375597Y506590D01*
X373098Y506590D01*
X373098Y504090D01*
X373098Y514776D02*
X373098Y519775D01*
X375597Y522275D01*
X380597Y522275D01*
X383097Y519775D01*
X383097Y514776D01*
X380597Y512276D01*
X375597Y512276D01*
X373098Y514776D01*
X373098Y528648D02*
X383097Y528648D01*
X383097Y533647D02*
X378097Y528648D01*
X383097Y533647D02*
X383097Y536147D01*
X368098Y547290D02*
X368098Y549790D01*
X370598Y552290D01*
X383097Y552290D01*
X383097Y544790D01*
X380597Y542291D01*
X375597Y542291D01*
X373098Y544790D01*
X373098Y552290D01*
D11*
X731443Y66751D02*
X734324Y66751D01*
X735764Y65310D01*
X735764Y59548D01*
X734324Y58108D01*
X731443Y58108D01*
X730002Y59548D01*
X730002Y65310D01*
X731443Y66751D01*
X726409Y63870D02*
X726409Y55226D01*
X726409Y63870D02*
X722087Y63870D01*
X720647Y62429D01*
X720647Y59548D01*
X722087Y58108D01*
X726409Y58108D01*
X715613Y58108D02*
X712732Y58108D01*
X715613Y58108D02*
X717054Y59548D01*
X717054Y62429D01*
X715613Y63870D01*
X712732Y63870D01*
X711292Y62429D01*
X711292Y60989D01*
X717054Y60989D01*
X707699Y58108D02*
X707699Y63870D01*
X703377Y63870D01*
X701936Y62429D01*
X701936Y58108D01*
X752915Y51511D02*
X752915Y42868D01*
X752915Y47189D02*
X747153Y47189D01*
X747153Y42868D02*
X747153Y51511D01*
X742120Y48630D02*
X739239Y48630D01*
X737798Y47189D01*
X737798Y42868D01*
X742120Y42868D01*
X743560Y44308D01*
X742120Y45749D01*
X737798Y45749D01*
X734205Y42868D02*
X734205Y48630D01*
X734205Y45749D02*
X731324Y48630D01*
X729883Y48630D01*
X720647Y51511D02*
X720647Y42868D01*
X724968Y42868D01*
X726409Y44308D01*
X726409Y47189D01*
X724968Y48630D01*
X720647Y48630D01*
X717054Y48630D02*
X717054Y44308D01*
X715613Y42868D01*
X714173Y44308D01*
X712732Y42868D01*
X711292Y44308D01*
X711292Y48630D01*
X706258Y48630D02*
X703377Y48630D01*
X701936Y47189D01*
X701936Y42868D01*
X706258Y42868D01*
X707699Y44308D01*
X706258Y45749D01*
X701936Y45749D01*
X698343Y42868D02*
X698343Y48630D01*
X698343Y45749D02*
X695462Y48630D01*
X694022Y48630D01*
X689107Y42868D02*
X686226Y42868D01*
X689107Y42868D02*
X690548Y44308D01*
X690548Y47189D01*
X689107Y48630D01*
X686226Y48630D01*
X684785Y47189D01*
X684785Y45749D01*
X690548Y45749D01*
D12*
X897575Y649028D02*
X275309Y649028D01*
X273271Y615210D02*
X898077Y615210D01*
D13*
X674103Y688963D02*
X659698Y688963D01*
X674103Y688963D02*
X681306Y696166D01*
X681306Y710572D01*
X674103Y717775D01*
X659698Y717775D01*
X652495Y710572D01*
X652495Y703369D01*
X681306Y703369D01*
X634530Y688963D02*
X634530Y717775D01*
X627327Y717775D01*
X620125Y710572D01*
X620125Y688963D01*
X620125Y710572D02*
X612922Y717775D01*
X605719Y710572D01*
X605719Y688963D01*
X580552Y688963D02*
X566146Y688963D01*
X558943Y696166D01*
X558943Y710572D01*
X566146Y717775D01*
X580552Y717775D01*
X587754Y710572D01*
X587754Y696166D01*
X580552Y688963D01*
X540978Y688963D02*
X540978Y717775D01*
X519370Y717775D01*
X512167Y710572D01*
X512167Y688963D01*
X494202Y688963D02*
X494202Y732180D01*
X494202Y688963D02*
X472594Y688963D01*
X465391Y696166D01*
X465391Y724977D01*
X472594Y732180D01*
X494202Y732180D01*
X425818Y732180D02*
X418615Y724977D01*
X425818Y732180D02*
X440224Y732180D01*
X447426Y724977D01*
X447426Y696166D01*
X440224Y688963D01*
X425818Y688963D01*
X418615Y696166D01*
D10*
X895774Y671599D02*
X895774Y664100D01*
X893274Y661600D01*
X890774Y664100D01*
X888275Y661600D01*
X885775Y664100D01*
X885775Y671599D01*
X879403Y671599D02*
X876903Y671599D01*
X876903Y661600D01*
X879403Y661600D02*
X874403Y661600D01*
X876903Y676599D02*
X876903Y679099D01*
X868488Y671599D02*
X868488Y661600D01*
X868488Y666600D02*
X863489Y671599D01*
X860989Y671599D01*
X852345Y661600D02*
X847346Y661600D01*
X852345Y661600D02*
X854845Y664100D01*
X854845Y669100D01*
X852345Y671599D01*
X847346Y671599D01*
X844846Y669100D01*
X844846Y666600D01*
X854845Y666600D01*
X838474Y676599D02*
X835974Y676599D01*
X835974Y661600D01*
X838474Y661600D02*
X833474Y661600D01*
X825059Y661600D02*
X820060Y661600D01*
X825059Y661600D02*
X827559Y664100D01*
X827559Y669100D01*
X825059Y671599D01*
X820060Y671599D01*
X817560Y669100D01*
X817560Y666600D01*
X827559Y666600D01*
X811188Y661600D02*
X803688Y661600D01*
X801188Y664100D01*
X803688Y666600D01*
X808688Y666600D01*
X811188Y669100D01*
X808688Y671599D01*
X801188Y671599D01*
X794816Y661600D02*
X787317Y661600D01*
X784817Y664100D01*
X787317Y666600D01*
X792316Y666600D01*
X794816Y669100D01*
X792316Y671599D01*
X784817Y671599D01*
X759573Y661600D02*
X754574Y661600D01*
X759573Y661600D02*
X762073Y664100D01*
X762073Y669100D01*
X759573Y671599D01*
X754574Y671599D01*
X752074Y669100D01*
X752074Y666600D01*
X762073Y666600D01*
X745701Y661600D02*
X745701Y671599D01*
X738202Y671599D01*
X735702Y669100D01*
X735702Y661600D01*
X726830Y661600D02*
X721830Y661600D01*
X726830Y661600D02*
X729330Y664100D01*
X729330Y669100D01*
X726830Y671599D01*
X721830Y671599D01*
X719331Y669100D01*
X719331Y666600D01*
X729330Y666600D01*
X712958Y661600D02*
X712958Y671599D01*
X712958Y666600D02*
X707959Y671599D01*
X705459Y671599D01*
X694316Y656601D02*
X691816Y656601D01*
X689316Y659100D01*
X689316Y671599D01*
X696816Y671599D01*
X699315Y669100D01*
X699315Y664100D01*
X696816Y661600D01*
X689316Y661600D01*
X682944Y664100D02*
X682944Y671599D01*
X682944Y664100D02*
X680444Y661600D01*
X672945Y661600D01*
X672945Y659100D02*
X672945Y671599D01*
X672945Y659100D02*
X675444Y656601D01*
X677944Y656601D01*
X650201Y661600D02*
X650201Y671599D01*
X647701Y671599D01*
X645201Y669100D01*
X645201Y661600D01*
X645201Y669100D02*
X642701Y671599D01*
X640201Y669100D01*
X640201Y661600D01*
X631329Y661600D02*
X626330Y661600D01*
X623830Y664100D01*
X623830Y669100D01*
X626330Y671599D01*
X631329Y671599D01*
X633829Y669100D01*
X633829Y664100D01*
X631329Y661600D01*
X617458Y661600D02*
X617458Y671599D01*
X609958Y671599D01*
X607458Y669100D01*
X607458Y661600D01*
X601086Y671599D02*
X598586Y671599D01*
X598586Y661600D01*
X601086Y661600D02*
X596086Y661600D01*
X598586Y676599D02*
X598586Y679099D01*
X587672Y674099D02*
X587672Y664100D01*
X585172Y661600D01*
X585172Y671599D02*
X590172Y671599D01*
X576757Y661600D02*
X571758Y661600D01*
X569258Y664100D01*
X569258Y669100D01*
X571758Y671599D01*
X576757Y671599D01*
X579257Y669100D01*
X579257Y664100D01*
X576757Y661600D01*
X562886Y661600D02*
X562886Y671599D01*
X562886Y666600D02*
X557886Y671599D01*
X555386Y671599D01*
X549243Y671599D02*
X546743Y671599D01*
X546743Y661600D01*
X549243Y661600D02*
X544243Y661600D01*
X546743Y676599D02*
X546743Y679099D01*
X538328Y671599D02*
X538328Y661600D01*
X538328Y671599D02*
X530829Y671599D01*
X528329Y669100D01*
X528329Y661600D01*
X516957Y656601D02*
X514457Y656601D01*
X511958Y659100D01*
X511958Y671599D01*
X519457Y671599D01*
X521957Y669100D01*
X521957Y664100D01*
X519457Y661600D01*
X511958Y661600D01*
X489214Y661600D02*
X489214Y671599D01*
X481714Y671599D01*
X479214Y669100D01*
X479214Y661600D01*
X470342Y661600D02*
X465343Y661600D01*
X462843Y664100D01*
X462843Y669100D01*
X465343Y671599D01*
X470342Y671599D01*
X472842Y669100D01*
X472842Y664100D01*
X470342Y661600D01*
X446471Y661600D02*
X446471Y676599D01*
X446471Y661600D02*
X453971Y661600D01*
X456470Y664100D01*
X456470Y669100D01*
X453971Y671599D01*
X446471Y671599D01*
X437599Y661600D02*
X432600Y661600D01*
X437599Y661600D02*
X440099Y664100D01*
X440099Y669100D01*
X437599Y671599D01*
X432600Y671599D01*
X430100Y669100D01*
X430100Y666600D01*
X440099Y666600D01*
D14*
X892837Y640231D02*
X892837Y628283D01*
X896820Y640231D02*
X888854Y640231D01*
X881965Y628283D02*
X877982Y628283D01*
X881965Y628283D02*
X883956Y630274D01*
X883956Y634257D01*
X881965Y636248D01*
X877982Y636248D01*
X875991Y634257D01*
X875991Y632265D01*
X883956Y632265D01*
X869102Y636248D02*
X863128Y636248D01*
X869102Y636248D02*
X871093Y634257D01*
X871093Y630274D01*
X869102Y628283D01*
X863128Y628283D01*
X858230Y628283D02*
X858230Y640231D01*
X856238Y636248D02*
X858230Y634257D01*
X856238Y636248D02*
X852256Y636248D01*
X850264Y634257D01*
X850264Y628283D01*
X845366Y628283D02*
X845366Y636248D01*
X839392Y636248D01*
X837401Y634257D01*
X837401Y628283D01*
X830512Y628283D02*
X826529Y628283D01*
X824537Y630274D01*
X824537Y634257D01*
X826529Y636248D01*
X830512Y636248D01*
X832503Y634257D01*
X832503Y630274D01*
X830512Y628283D01*
X819640Y640231D02*
X817648Y640231D01*
X817648Y628283D01*
X815657Y628283D02*
X819640Y628283D01*
X809073Y628283D02*
X805090Y628283D01*
X803098Y630274D01*
X803098Y634257D01*
X805090Y636248D01*
X809073Y636248D01*
X811064Y634257D01*
X811064Y630274D01*
X809073Y628283D01*
X794218Y624300D02*
X792226Y624300D01*
X790235Y626291D01*
X790235Y636248D01*
X796209Y636248D01*
X798201Y634257D01*
X798201Y630274D01*
X796209Y628283D01*
X790235Y628283D01*
X785337Y630274D02*
X785337Y636248D01*
X785337Y630274D02*
X783346Y628283D01*
X777372Y628283D01*
X777372Y626291D02*
X777372Y636248D01*
X777372Y626291D02*
X779363Y624300D01*
X781354Y624300D01*
X757619Y630274D02*
X757619Y638240D01*
X757619Y630274D02*
X755628Y628283D01*
X755628Y636248D02*
X759610Y636248D01*
X751035Y640231D02*
X751035Y628283D01*
X751035Y634257D02*
X749044Y636248D01*
X745061Y636248D01*
X743069Y634257D01*
X743069Y628283D01*
X736180Y636248D02*
X732197Y636248D01*
X730206Y634257D01*
X730206Y628283D01*
X736180Y628283D01*
X738171Y630274D01*
X736180Y632265D01*
X730206Y632265D01*
X723317Y630274D02*
X723317Y638240D01*
X723317Y630274D02*
X721325Y628283D01*
X721325Y636248D02*
X725308Y636248D01*
X703869Y640231D02*
X703869Y628283D01*
X703869Y634257D02*
X701878Y636248D01*
X697895Y636248D01*
X695904Y634257D01*
X695904Y628283D01*
X689014Y628283D02*
X685032Y628283D01*
X689014Y628283D02*
X691006Y630274D01*
X691006Y634257D01*
X689014Y636248D01*
X685032Y636248D01*
X683040Y634257D01*
X683040Y632265D01*
X691006Y632265D01*
X678142Y640231D02*
X676151Y640231D01*
X676151Y628283D01*
X678142Y628283D02*
X674160Y628283D01*
X669567Y624300D02*
X669567Y636248D01*
X663593Y636248D01*
X661601Y634257D01*
X661601Y630274D01*
X663593Y628283D01*
X669567Y628283D01*
X656703Y628283D02*
X650729Y628283D01*
X648738Y630274D01*
X650729Y632265D01*
X654712Y632265D01*
X656703Y634257D01*
X654712Y636248D01*
X648738Y636248D01*
X630977Y636248D02*
X630977Y630274D01*
X628985Y628283D01*
X623011Y628283D01*
X623011Y636248D01*
X618113Y628283D02*
X612139Y628283D01*
X610148Y630274D01*
X612139Y632265D01*
X616122Y632265D01*
X618113Y634257D01*
X616122Y636248D01*
X610148Y636248D01*
X592387Y640231D02*
X590395Y640231D01*
X590395Y628283D01*
X588404Y628283D02*
X592387Y628283D01*
X583811Y636248D02*
X581820Y636248D01*
X581820Y628283D01*
X583811Y628283D02*
X579828Y628283D01*
X581820Y640231D02*
X581820Y642222D01*
X575235Y636248D02*
X571253Y628283D01*
X567270Y636248D01*
X560381Y628283D02*
X556398Y628283D01*
X560381Y628283D02*
X562372Y630274D01*
X562372Y634257D01*
X560381Y636248D01*
X556398Y636248D01*
X554407Y634257D01*
X554407Y632265D01*
X562372Y632265D01*
X536645Y630274D02*
X536645Y636248D01*
X536645Y630274D02*
X534654Y628283D01*
X532663Y630274D01*
X530671Y628283D01*
X528680Y630274D01*
X528680Y636248D01*
X523782Y636248D02*
X521791Y636248D01*
X521791Y628283D01*
X523782Y628283D02*
X519799Y628283D01*
X521791Y640231D02*
X521791Y642222D01*
X513215Y638240D02*
X513215Y630274D01*
X511224Y628283D01*
X511224Y636248D02*
X515206Y636248D01*
X506631Y640231D02*
X506631Y628283D01*
X506631Y634257D02*
X504639Y636248D01*
X500657Y636248D01*
X498665Y634257D01*
X498665Y628283D01*
X493767Y636248D02*
X491776Y636248D01*
X491776Y628283D01*
X493767Y628283D02*
X489785Y628283D01*
X491776Y640231D02*
X491776Y642222D01*
X485192Y636248D02*
X485192Y628283D01*
X485192Y636248D02*
X479218Y636248D01*
X477226Y634257D01*
X477226Y628283D01*
X457474Y628283D02*
X453491Y628283D01*
X457474Y628283D02*
X459465Y630274D01*
X459465Y634257D01*
X457474Y636248D01*
X453491Y636248D01*
X451499Y634257D01*
X451499Y632265D01*
X459465Y632265D01*
X444610Y636248D02*
X438636Y636248D01*
X444610Y636248D02*
X446602Y634257D01*
X446602Y630274D01*
X444610Y628283D01*
X438636Y628283D01*
X431747Y628283D02*
X427764Y628283D01*
X425773Y630274D01*
X425773Y634257D01*
X427764Y636248D01*
X431747Y636248D01*
X433738Y634257D01*
X433738Y630274D01*
X431747Y628283D01*
X420875Y640231D02*
X418883Y640231D01*
X418883Y628283D01*
X416892Y628283D02*
X420875Y628283D01*
X410308Y628283D02*
X406325Y628283D01*
X404334Y630274D01*
X404334Y634257D01*
X406325Y636248D01*
X410308Y636248D01*
X412299Y634257D01*
X412299Y630274D01*
X410308Y628283D01*
X395453Y624300D02*
X393462Y624300D01*
X391470Y626291D01*
X391470Y636248D01*
X397445Y636248D01*
X399436Y634257D01*
X399436Y630274D01*
X397445Y628283D01*
X391470Y628283D01*
X386572Y636248D02*
X384581Y636248D01*
X384581Y628283D01*
X386572Y628283D02*
X382590Y628283D01*
X384581Y640231D02*
X384581Y642222D01*
X376006Y636248D02*
X370031Y636248D01*
X376006Y636248D02*
X377997Y634257D01*
X377997Y630274D01*
X376006Y628283D01*
X370031Y628283D01*
X363142Y636248D02*
X359159Y636248D01*
X357168Y634257D01*
X357168Y628283D01*
X363142Y628283D01*
X365134Y630274D01*
X363142Y632265D01*
X357168Y632265D01*
X352270Y640231D02*
X350279Y640231D01*
X350279Y628283D01*
X352270Y628283D02*
X348287Y628283D01*
X330831Y640231D02*
X328840Y640231D01*
X328840Y628283D01*
X330831Y628283D02*
X326848Y628283D01*
X322256Y636248D02*
X320264Y636248D01*
X320264Y628283D01*
X318273Y628283D02*
X322256Y628283D01*
X320264Y640231D02*
X320264Y642222D01*
X313680Y636248D02*
X313680Y628283D01*
X313680Y636248D02*
X311689Y636248D01*
X309697Y634257D01*
X309697Y628283D01*
X309697Y634257D02*
X307706Y636248D01*
X305715Y634257D01*
X305715Y628283D01*
X300817Y636248D02*
X298825Y636248D01*
X298825Y628283D01*
X296834Y628283D02*
X300817Y628283D01*
X298825Y640231D02*
X298825Y642222D01*
X290250Y638240D02*
X290250Y630274D01*
X288258Y628283D01*
X288258Y636248D02*
X292241Y636248D01*
X283665Y628283D02*
X277691Y628283D01*
X275700Y630274D01*
X277691Y632265D01*
X281674Y632265D01*
X283665Y634257D01*
X281674Y636248D01*
X275700Y636248D01*
D11*
X273362Y130863D02*
X273362Y121379D01*
X268620Y121379D01*
X267039Y122959D01*
X267039Y129282D01*
X268620Y130863D01*
X273362Y130863D01*
X261653Y121379D02*
X258491Y121379D01*
X261653Y121379D02*
X263233Y122959D01*
X263233Y126121D01*
X261653Y127702D01*
X258491Y127702D01*
X256911Y126121D01*
X256911Y124540D01*
X263233Y124540D01*
X253105Y121379D02*
X248363Y121379D01*
X246782Y122959D01*
X248363Y124540D01*
X251524Y124540D01*
X253105Y126121D01*
X251524Y127702D01*
X246782Y127702D01*
X242976Y127702D02*
X241395Y127702D01*
X241395Y121379D01*
X239815Y121379D02*
X242976Y121379D01*
X241395Y130863D02*
X241395Y132444D01*
X233062Y118217D02*
X231482Y118217D01*
X229901Y119798D01*
X229901Y127702D01*
X234643Y127702D01*
X236224Y126121D01*
X236224Y122959D01*
X234643Y121379D01*
X229901Y121379D01*
X226095Y121379D02*
X226095Y127702D01*
X221353Y127702D01*
X219772Y126121D01*
X219772Y121379D01*
X214386Y121379D02*
X211224Y121379D01*
X214386Y121379D02*
X215966Y122959D01*
X215966Y126121D01*
X214386Y127702D01*
X211224Y127702D01*
X209644Y126121D01*
X209644Y124540D01*
X215966Y124540D01*
X199515Y121379D02*
X199515Y130863D01*
X199515Y121379D02*
X204257Y121379D01*
X205838Y122959D01*
X205838Y126121D01*
X204257Y127702D01*
X199515Y127702D01*
X185580Y127702D02*
X184000Y127702D01*
X184000Y121379D01*
X185580Y121379D02*
X182419Y121379D01*
X184000Y130863D02*
X184000Y132444D01*
X178828Y127702D02*
X178828Y121379D01*
X178828Y127702D02*
X174086Y127702D01*
X172505Y126121D01*
X172505Y121379D01*
X267454Y114363D02*
X267454Y104879D01*
X261131Y104879D02*
X267454Y114363D01*
X261131Y114363D02*
X261131Y104879D01*
X255744Y104879D02*
X252583Y104879D01*
X251002Y106459D01*
X251002Y109621D01*
X252583Y111202D01*
X255744Y111202D01*
X257325Y109621D01*
X257325Y106459D01*
X255744Y104879D01*
X247196Y104879D02*
X247196Y111202D01*
X244035Y111202D02*
X247196Y108040D01*
X244035Y111202D02*
X242454Y111202D01*
X237175Y112782D02*
X237175Y106459D01*
X235594Y104879D01*
X235594Y111202D02*
X238756Y111202D01*
X232003Y114363D02*
X232003Y104879D01*
X232003Y109621D02*
X230423Y111202D01*
X227261Y111202D01*
X225681Y109621D01*
X225681Y104879D01*
X211746Y104879D02*
X211746Y114363D01*
X208585Y108040D02*
X211746Y104879D01*
X208585Y108040D02*
X205423Y104879D01*
X205423Y114363D01*
X200037Y111202D02*
X196875Y111202D01*
X195295Y109621D01*
X195295Y104879D01*
X200037Y104879D01*
X201617Y106459D01*
X200037Y108040D01*
X195295Y108040D01*
X191489Y114363D02*
X189908Y114363D01*
X189908Y104879D01*
X191489Y104879D02*
X188327Y104879D01*
X183156Y104879D02*
X179994Y104879D01*
X183156Y104879D02*
X184736Y106459D01*
X184736Y109621D01*
X183156Y111202D01*
X179994Y111202D01*
X178414Y109621D01*
X178414Y108040D01*
X184736Y108040D01*
X174608Y104879D02*
X169866Y104879D01*
X168285Y106459D01*
X169866Y108040D01*
X173027Y108040D01*
X174608Y109621D01*
X173027Y111202D01*
X168285Y111202D01*
X286867Y97863D02*
X286867Y88379D01*
X282125Y88379D01*
X280544Y89959D01*
X280544Y93121D01*
X282125Y94702D01*
X286867Y94702D01*
X276738Y94702D02*
X276738Y89959D01*
X275158Y88379D01*
X270415Y88379D01*
X270415Y86798D02*
X270415Y94702D01*
X270415Y86798D02*
X271996Y85217D01*
X273577Y85217D01*
X256481Y88379D02*
X256481Y97863D01*
X256481Y88379D02*
X251739Y88379D01*
X250158Y89959D01*
X250158Y96282D01*
X251739Y97863D01*
X256481Y97863D01*
X244772Y94702D02*
X241610Y94702D01*
X240029Y93121D01*
X240029Y88379D01*
X244772Y88379D01*
X246352Y89959D01*
X244772Y91540D01*
X240029Y91540D01*
X236224Y88379D02*
X236224Y94702D01*
X231482Y94702D01*
X229901Y93121D01*
X229901Y88379D01*
X226095Y94702D02*
X224514Y94702D01*
X224514Y88379D01*
X222934Y88379D02*
X226095Y88379D01*
X224514Y97863D02*
X224514Y99444D01*
X217762Y88379D02*
X214600Y88379D01*
X217762Y88379D02*
X219342Y89959D01*
X219342Y93121D01*
X217762Y94702D01*
X214600Y94702D01*
X213020Y93121D01*
X213020Y91540D01*
X219342Y91540D01*
X209214Y97863D02*
X207633Y97863D01*
X207633Y88379D01*
X209214Y88379D02*
X206052Y88379D01*
X192333Y88379D02*
X192333Y97863D01*
X187591Y97863D01*
X186010Y96282D01*
X186010Y94702D01*
X187591Y93121D01*
X186010Y91540D01*
X186010Y89959D01*
X187591Y88379D01*
X192333Y88379D01*
X192333Y93121D02*
X187591Y93121D01*
X180623Y94702D02*
X177462Y94702D01*
X175881Y93121D01*
X175881Y88379D01*
X180623Y88379D01*
X182204Y89959D01*
X180623Y91540D01*
X175881Y91540D01*
X170495Y89959D02*
X170495Y96282D01*
X170495Y89959D02*
X168914Y88379D01*
X168914Y94702D02*
X172075Y94702D01*
X163742Y88379D02*
X160581Y88379D01*
X163742Y88379D02*
X165323Y89959D01*
X165323Y93121D01*
X163742Y94702D01*
X160581Y94702D01*
X159000Y93121D01*
X159000Y91540D01*
X165323Y91540D01*
X155194Y88379D02*
X150452Y88379D01*
X148872Y89959D01*
X150452Y91540D01*
X153614Y91540D01*
X155194Y93121D01*
X153614Y94702D01*
X148872Y94702D01*
D14*
X1058057Y243074D02*
X1070005Y243074D01*
X1058057Y243074D02*
X1058057Y251039D01*
X1058057Y257928D02*
X1058057Y261911D01*
X1058057Y257928D02*
X1060048Y255937D01*
X1064031Y255937D01*
X1066022Y257928D01*
X1066022Y261911D01*
X1064031Y263903D01*
X1062040Y263903D01*
X1062040Y255937D01*
X1066022Y270792D02*
X1066022Y274775D01*
X1064031Y276766D01*
X1058057Y276766D01*
X1058057Y270792D01*
X1060048Y268800D01*
X1062040Y270792D01*
X1062040Y276766D01*
X1058057Y289629D02*
X1070005Y289629D01*
X1058057Y289629D02*
X1058057Y283655D01*
X1060048Y281664D01*
X1064031Y281664D01*
X1066022Y283655D01*
X1066022Y289629D01*
X1068014Y309382D02*
X1058057Y309382D01*
X1068014Y309382D02*
X1070005Y311373D01*
X1064031Y311373D02*
X1064031Y307391D01*
X1066022Y315966D02*
X1058057Y315966D01*
X1062040Y315966D02*
X1066022Y319949D01*
X1066022Y321940D01*
X1058057Y328677D02*
X1058057Y332660D01*
X1058057Y328677D02*
X1060048Y326686D01*
X1064031Y326686D01*
X1066022Y328677D01*
X1066022Y332660D01*
X1064031Y334651D01*
X1062040Y334651D01*
X1062040Y326686D01*
X1058057Y341540D02*
X1058057Y345523D01*
X1058057Y341540D02*
X1060048Y339549D01*
X1064031Y339549D01*
X1066022Y341540D01*
X1066022Y345523D01*
X1064031Y347514D01*
X1062040Y347514D01*
X1062040Y339549D01*
X1058057Y365276D02*
X1070005Y365276D01*
X1070005Y371250D01*
X1068014Y373241D01*
X1064031Y373241D01*
X1062040Y371250D01*
X1062040Y365276D01*
X1070005Y384113D02*
X1068014Y386105D01*
X1070005Y384113D02*
X1070005Y380130D01*
X1068014Y378139D01*
X1060048Y378139D01*
X1058057Y380130D01*
X1058057Y384113D01*
X1060048Y386105D01*
X1058057Y391002D02*
X1070005Y391002D01*
X1070005Y396977D01*
X1068014Y398968D01*
X1066022Y398968D01*
X1064031Y396977D01*
X1062040Y398968D01*
X1060048Y398968D01*
X1058057Y396977D01*
X1058057Y391002D01*
X1064031Y391002D02*
X1064031Y396977D01*
X1064031Y416729D02*
X1064031Y424695D01*
X1058057Y442456D02*
X1070005Y442456D01*
X1070005Y448430D01*
X1068014Y450421D01*
X1064031Y450421D01*
X1062040Y448430D01*
X1062040Y442456D01*
X1062040Y446439D02*
X1058057Y450421D01*
X1058057Y457311D02*
X1058057Y461293D01*
X1060048Y463285D01*
X1064031Y463285D01*
X1066022Y461293D01*
X1066022Y457311D01*
X1064031Y455319D01*
X1060048Y455319D01*
X1058057Y457311D01*
X1058057Y468183D02*
X1070005Y468183D01*
X1064031Y468183D02*
X1064031Y476148D01*
X1070005Y476148D02*
X1058057Y476148D01*
X1070005Y487020D02*
X1068014Y489012D01*
X1070005Y487020D02*
X1070005Y483037D01*
X1068014Y481046D01*
X1066022Y481046D01*
X1064031Y483037D01*
X1064031Y487020D01*
X1062040Y489012D01*
X1060048Y489012D01*
X1058057Y487020D01*
X1058057Y483037D01*
X1060048Y481046D01*
X1066022Y508764D02*
X1066022Y514738D01*
X1066022Y508764D02*
X1064031Y506773D01*
X1060048Y506773D01*
X1058057Y508764D01*
X1058057Y514738D01*
X1058057Y521628D02*
X1058057Y525610D01*
X1060048Y527602D01*
X1064031Y527602D01*
X1066022Y525610D01*
X1066022Y521628D01*
X1064031Y519636D01*
X1060048Y519636D01*
X1058057Y521628D01*
X1058057Y532500D02*
X1066022Y532500D01*
X1066022Y534491D01*
X1064031Y536482D01*
X1058057Y536482D01*
X1064031Y536482D02*
X1066022Y538474D01*
X1064031Y540465D01*
X1058057Y540465D01*
X1054074Y545363D02*
X1066022Y545363D01*
X1066022Y551337D01*
X1064031Y553328D01*
X1060048Y553328D01*
X1058057Y551337D01*
X1058057Y545363D01*
X1058057Y560218D02*
X1058057Y564200D01*
X1060048Y566192D01*
X1064031Y566192D01*
X1066022Y564200D01*
X1066022Y560218D01*
X1064031Y558226D01*
X1060048Y558226D01*
X1058057Y560218D01*
X1058057Y571090D02*
X1066022Y571090D01*
X1066022Y577064D01*
X1064031Y579055D01*
X1058057Y579055D01*
X1058057Y585944D02*
X1058057Y589927D01*
X1058057Y585944D02*
X1060048Y583953D01*
X1064031Y583953D01*
X1066022Y585944D01*
X1066022Y589927D01*
X1064031Y591919D01*
X1062040Y591919D01*
X1062040Y583953D01*
X1058057Y596816D02*
X1066022Y596816D01*
X1066022Y602791D01*
X1064031Y604782D01*
X1058057Y604782D01*
X1060048Y611671D02*
X1068014Y611671D01*
X1060048Y611671D02*
X1058057Y613663D01*
X1066022Y613663D02*
X1066022Y609680D01*
X1058057Y618255D02*
X1058057Y624230D01*
X1060048Y626221D01*
X1062040Y624230D01*
X1062040Y620247D01*
X1064031Y618255D01*
X1066022Y620247D01*
X1066022Y626221D01*
D15*
X888623Y448443D03*
D11*
X804106Y39795D02*
X809186Y28365D01*
X811726Y29889D01*
X817822Y25571D01*
X822394Y30397D01*
X818330Y36493D01*
X820870Y43351D02*
X828490Y44621D01*
X828490Y51225D01*
X820870Y52749D01*
X818076Y59099D02*
X822648Y65703D01*
X817822Y70275D01*
X811218Y65703D01*
X804868Y68243D02*
X803598Y76371D01*
X796740Y76371D01*
X795470Y68243D01*
X789120Y65703D02*
X782516Y70275D01*
X777690Y65703D01*
X782262Y59099D01*
X779468Y52749D02*
X771848Y51225D01*
X771848Y44621D01*
X779468Y43351D01*
X782008Y36493D02*
X777690Y30397D01*
X782516Y25571D01*
X788612Y29889D01*
X791152Y28365D01*
X795978Y39795D01*
X795978Y40049D02*
X795774Y40151D01*
X795573Y40258D01*
X795375Y40370D01*
X795179Y40486D01*
X794986Y40608D01*
X794796Y40733D01*
X794610Y40864D01*
X794426Y40999D01*
X794246Y41139D01*
X794070Y41283D01*
X793897Y41431D01*
X793727Y41583D01*
X793562Y41740D01*
X793400Y41900D01*
X793242Y42064D01*
X793089Y42233D01*
X792939Y42405D01*
X792794Y42580D01*
X792653Y42759D01*
X792516Y42941D01*
X792384Y43127D01*
X792257Y43316D01*
X792134Y43508D01*
X792016Y43703D01*
X791903Y43900D01*
X791795Y44101D01*
X791691Y44304D01*
X791593Y44509D01*
X791499Y44717D01*
X791411Y44927D01*
X791328Y45139D01*
X791250Y45353D01*
X791178Y45569D01*
X791110Y45787D01*
X791048Y46006D01*
X790992Y46226D01*
X790940Y46448D01*
X790895Y46672D01*
X790854Y46896D01*
X790820Y47121D01*
X790790Y47347D01*
X790767Y47573D01*
X790748Y47800D01*
X790736Y48028D01*
X790729Y48256D01*
X790727Y48483D01*
X790731Y48711D01*
X790741Y48939D01*
X790756Y49166D01*
X790777Y49393D01*
X790803Y49619D01*
X790835Y49845D01*
X790872Y50069D01*
X790915Y50293D01*
X790963Y50516D01*
X791017Y50737D01*
X791076Y50957D01*
X791141Y51176D01*
X791210Y51393D01*
X791285Y51608D01*
X791366Y51821D01*
X791451Y52032D01*
X791542Y52241D01*
X791638Y52448D01*
X791738Y52652D01*
X791844Y52854D01*
X791955Y53053D01*
X792070Y53249D01*
X792190Y53443D01*
X792315Y53633D01*
X792445Y53821D01*
X792579Y54005D01*
X792717Y54186D01*
X792860Y54363D01*
X793007Y54537D01*
X793159Y54707D01*
X793314Y54874D01*
X793474Y55036D01*
X793637Y55195D01*
X793805Y55349D01*
X793976Y55500D01*
X794150Y55646D01*
X794329Y55788D01*
X794510Y55926D01*
X794695Y56059D01*
X794883Y56187D01*
X795074Y56311D01*
X795269Y56430D01*
X795466Y56544D01*
X795665Y56654D01*
X795868Y56758D01*
X796073Y56858D01*
X796280Y56952D01*
X796489Y57042D01*
X796701Y57126D01*
X796915Y57205D01*
X797130Y57279D01*
X797347Y57348D01*
X797566Y57411D01*
X797787Y57469D01*
X798008Y57521D01*
X798231Y57568D01*
X798455Y57610D01*
X798680Y57646D01*
X798906Y57676D01*
X799132Y57701D01*
X799359Y57721D01*
X799587Y57735D01*
X799814Y57743D01*
X800042Y57746D01*
X800270Y57743D01*
X800497Y57735D01*
X800725Y57721D01*
X800952Y57701D01*
X801178Y57676D01*
X801404Y57646D01*
X801629Y57610D01*
X801853Y57568D01*
X802076Y57521D01*
X802297Y57469D01*
X802518Y57411D01*
X802737Y57348D01*
X802954Y57279D01*
X803169Y57205D01*
X803383Y57126D01*
X803595Y57042D01*
X803804Y56952D01*
X804011Y56858D01*
X804216Y56758D01*
X804419Y56654D01*
X804618Y56544D01*
X804815Y56430D01*
X805010Y56311D01*
X805201Y56187D01*
X805389Y56059D01*
X805574Y55926D01*
X805755Y55788D01*
X805934Y55646D01*
X806108Y55500D01*
X806279Y55349D01*
X806447Y55195D01*
X806610Y55036D01*
X806770Y54874D01*
X806925Y54707D01*
X807077Y54537D01*
X807224Y54363D01*
X807367Y54186D01*
X807505Y54005D01*
X807639Y53821D01*
X807769Y53633D01*
X807894Y53443D01*
X808014Y53249D01*
X808129Y53053D01*
X808240Y52854D01*
X808346Y52652D01*
X808446Y52448D01*
X808542Y52241D01*
X808633Y52032D01*
X808718Y51821D01*
X808799Y51608D01*
X808874Y51393D01*
X808943Y51176D01*
X809008Y50957D01*
X809067Y50737D01*
X809121Y50516D01*
X809169Y50293D01*
X809212Y50069D01*
X809249Y49845D01*
X809281Y49619D01*
X809307Y49393D01*
X809328Y49166D01*
X809343Y48939D01*
X809353Y48711D01*
X809357Y48483D01*
X809355Y48256D01*
X809348Y48028D01*
X809336Y47800D01*
X809317Y47573D01*
X809294Y47347D01*
X809264Y47121D01*
X809230Y46896D01*
X809189Y46672D01*
X809144Y46448D01*
X809092Y46226D01*
X809036Y46006D01*
X808974Y45787D01*
X808906Y45569D01*
X808834Y45353D01*
X808756Y45139D01*
X808673Y44927D01*
X808585Y44717D01*
X808491Y44509D01*
X808393Y44304D01*
X808289Y44101D01*
X808181Y43900D01*
X808068Y43703D01*
X807950Y43508D01*
X807827Y43316D01*
X807700Y43127D01*
X807568Y42941D01*
X807431Y42759D01*
X807290Y42580D01*
X807145Y42405D01*
X806995Y42233D01*
X806842Y42064D01*
X806684Y41900D01*
X806522Y41740D01*
X806357Y41583D01*
X806187Y41431D01*
X806014Y41283D01*
X805838Y41139D01*
X805658Y40999D01*
X805474Y40864D01*
X805288Y40733D01*
X805098Y40608D01*
X804905Y40486D01*
X804709Y40370D01*
X804511Y40258D01*
X804310Y40151D01*
X804106Y40049D01*
X818245Y36574D02*
X818507Y37022D01*
X818757Y37476D01*
X818997Y37936D01*
X819225Y38402D01*
X819441Y38873D01*
X819646Y39349D01*
X819839Y39830D01*
X820020Y40316D01*
X820190Y40806D01*
X820347Y41300D01*
X820492Y41798D01*
X820625Y42299D01*
X820745Y42803D01*
X820853Y43311D01*
X820711Y52750D02*
X820589Y53219D01*
X820456Y53685D01*
X820312Y54148D01*
X820158Y54607D01*
X819993Y55063D01*
X819818Y55515D01*
X819632Y55963D01*
X819437Y56406D01*
X819231Y56845D01*
X819015Y57279D01*
X818790Y57708D01*
X818554Y58132D01*
X818309Y58550D01*
X818055Y58963D01*
X811130Y65794D02*
X810693Y66050D01*
X810250Y66295D01*
X809801Y66530D01*
X809347Y66753D01*
X808888Y66966D01*
X808424Y67167D01*
X807955Y67358D01*
X807481Y67537D01*
X807004Y67705D01*
X806522Y67861D01*
X806037Y68006D01*
X805549Y68139D01*
X805057Y68260D01*
X795335Y68307D02*
X794860Y68192D01*
X794388Y68067D01*
X793919Y67931D01*
X793453Y67784D01*
X792991Y67627D01*
X792532Y67459D01*
X792077Y67281D01*
X791627Y67092D01*
X791181Y66892D01*
X790740Y66683D01*
X790303Y66464D01*
X789872Y66234D01*
X789446Y65995D01*
X789026Y65746D01*
X782291Y59058D02*
X782022Y58643D01*
X781763Y58220D01*
X781515Y57792D01*
X781277Y57358D01*
X781049Y56918D01*
X780832Y56473D01*
X780626Y56022D01*
X780430Y55567D01*
X780246Y55108D01*
X780073Y54644D01*
X779911Y54176D01*
X779760Y53704D01*
X779621Y53229D01*
X779493Y52750D01*
X779445Y43263D02*
X779539Y42786D01*
X779644Y42312D01*
X779761Y41840D01*
X779889Y41372D01*
X780028Y40906D01*
X780178Y40444D01*
X780339Y39985D01*
X780510Y39531D01*
X780693Y39080D01*
X780886Y38634D01*
X781089Y38193D01*
X781303Y37757D01*
X781527Y37326D01*
X781761Y36900D01*
X782006Y36480D01*
D14*
X606978Y133145D02*
X601978Y133145D01*
X606978Y133145D02*
X606978Y93145D01*
X601978Y93145D01*
X584978Y93145D02*
X546978Y93145D01*
X546978Y133145D02*
X584978Y133145D01*
X529978Y133145D02*
X524978Y133145D01*
X524978Y93145D01*
X529978Y93145D01*
D16*
X585028Y100445D02*
X585028Y125845D01*
D17*
X589191Y151037D02*
X589191Y152774D01*
X589191Y151037D02*
X585716Y147562D01*
X582242Y151037D01*
X582242Y152774D01*
X585716Y147562D02*
X585716Y142351D01*
X577497Y149299D02*
X574022Y152774D01*
X574022Y142351D01*
X570548Y142351D02*
X577497Y142351D01*
D16*
X622160Y124506D02*
X622162Y124623D01*
X622168Y124740D01*
X622178Y124856D01*
X622192Y124972D01*
X622209Y125088D01*
X622231Y125202D01*
X622257Y125316D01*
X622286Y125429D01*
X622320Y125542D01*
X622357Y125652D01*
X622397Y125762D01*
X622442Y125870D01*
X622490Y125976D01*
X622542Y126081D01*
X622597Y126184D01*
X622656Y126285D01*
X622718Y126384D01*
X622783Y126481D01*
X622852Y126576D01*
X622924Y126668D01*
X622999Y126757D01*
X623077Y126844D01*
X623158Y126929D01*
X623241Y127010D01*
X623328Y127089D01*
X623417Y127165D01*
X623508Y127237D01*
X623602Y127307D01*
X623698Y127373D01*
X623797Y127436D01*
X623897Y127496D01*
X624000Y127552D01*
X624104Y127604D01*
X624210Y127653D01*
X624318Y127699D01*
X624427Y127741D01*
X624538Y127779D01*
X624649Y127813D01*
X624762Y127843D01*
X624876Y127870D01*
X624991Y127892D01*
X625106Y127911D01*
X625222Y127926D01*
X625338Y127937D01*
X625455Y127944D01*
X625572Y127947D01*
X625689Y127946D01*
X625805Y127941D01*
X625922Y127932D01*
X626038Y127919D01*
X626154Y127902D01*
X626269Y127882D01*
X626383Y127857D01*
X626496Y127828D01*
X626609Y127796D01*
X626720Y127760D01*
X626830Y127720D01*
X626938Y127677D01*
X627045Y127629D01*
X627150Y127579D01*
X627254Y127524D01*
X627355Y127466D01*
X627455Y127405D01*
X627552Y127340D01*
X627647Y127273D01*
X627740Y127201D01*
X627830Y127127D01*
X627918Y127050D01*
X628003Y126970D01*
X628085Y126887D01*
X628165Y126801D01*
X628241Y126713D01*
X628315Y126622D01*
X628385Y126529D01*
X628452Y126433D01*
X628516Y126335D01*
X628576Y126235D01*
X628633Y126133D01*
X628687Y126029D01*
X628737Y125923D01*
X628783Y125816D01*
X628826Y125707D01*
X628864Y125597D01*
X628900Y125486D01*
X628931Y125373D01*
X628958Y125259D01*
X628982Y125145D01*
X629002Y125030D01*
X629018Y124914D01*
X629030Y124798D01*
X629038Y124681D01*
X629042Y124564D01*
X629042Y124448D01*
X629038Y124331D01*
X629030Y124214D01*
X629018Y124098D01*
X629002Y123982D01*
X628982Y123867D01*
X628958Y123753D01*
X628931Y123639D01*
X628900Y123526D01*
X628864Y123415D01*
X628826Y123305D01*
X628783Y123196D01*
X628737Y123089D01*
X628687Y122983D01*
X628633Y122879D01*
X628576Y122777D01*
X628516Y122677D01*
X628452Y122579D01*
X628385Y122483D01*
X628315Y122390D01*
X628241Y122299D01*
X628165Y122211D01*
X628085Y122125D01*
X628003Y122042D01*
X627918Y121962D01*
X627830Y121885D01*
X627740Y121811D01*
X627647Y121739D01*
X627552Y121672D01*
X627455Y121607D01*
X627355Y121546D01*
X627254Y121488D01*
X627150Y121433D01*
X627045Y121383D01*
X626938Y121335D01*
X626830Y121292D01*
X626720Y121252D01*
X626609Y121216D01*
X626496Y121184D01*
X626383Y121155D01*
X626269Y121130D01*
X626154Y121110D01*
X626038Y121093D01*
X625922Y121080D01*
X625805Y121071D01*
X625689Y121066D01*
X625572Y121065D01*
X625455Y121068D01*
X625338Y121075D01*
X625222Y121086D01*
X625106Y121101D01*
X624991Y121120D01*
X624876Y121142D01*
X624762Y121169D01*
X624649Y121199D01*
X624538Y121233D01*
X624427Y121271D01*
X624318Y121313D01*
X624210Y121359D01*
X624104Y121408D01*
X624000Y121460D01*
X623897Y121516D01*
X623797Y121576D01*
X623698Y121639D01*
X623602Y121705D01*
X623508Y121775D01*
X623417Y121847D01*
X623328Y121923D01*
X623241Y122002D01*
X623158Y122083D01*
X623077Y122168D01*
X622999Y122255D01*
X622924Y122344D01*
X622852Y122436D01*
X622783Y122531D01*
X622718Y122628D01*
X622656Y122727D01*
X622597Y122828D01*
X622542Y122931D01*
X622490Y123036D01*
X622442Y123142D01*
X622397Y123250D01*
X622357Y123360D01*
X622320Y123470D01*
X622286Y123583D01*
X622257Y123696D01*
X622231Y123810D01*
X622209Y123924D01*
X622192Y124040D01*
X622178Y124156D01*
X622168Y124272D01*
X622162Y124389D01*
X622160Y124506D01*
X635801Y129306D02*
X635801Y179306D01*
X667801Y179306D01*
X667801Y129306D01*
X635801Y129306D01*
D18*
X649847Y183687D02*
X661541Y183687D01*
X661541Y189534D01*
X659592Y191483D01*
X655694Y191483D01*
X653745Y189534D01*
X653745Y183687D01*
X661541Y201228D02*
X659592Y203177D01*
X661541Y201228D02*
X661541Y197330D01*
X659592Y195381D01*
X651796Y195381D01*
X649847Y197330D01*
X649847Y201228D01*
X651796Y203177D01*
X649847Y207075D02*
X661541Y207075D01*
X661541Y214871D01*
X655694Y210973D02*
X655694Y207075D01*
X659592Y218769D02*
X661541Y220718D01*
X661541Y224616D01*
X659592Y226565D01*
X657643Y226565D01*
X655694Y224616D01*
X653745Y226565D01*
X651796Y226565D01*
X649847Y224616D01*
X649847Y220718D01*
X651796Y218769D01*
X653745Y218769D01*
X655694Y220718D01*
X657643Y218769D01*
X659592Y218769D01*
X655694Y220718D02*
X655694Y224616D01*
X661541Y230463D02*
X661541Y238259D01*
X661541Y230463D02*
X655694Y230463D01*
X657643Y234361D01*
X657643Y236310D01*
X655694Y238259D01*
X651796Y238259D01*
X649847Y236310D01*
X649847Y232412D01*
X651796Y230463D01*
X649847Y242157D02*
X649847Y249953D01*
X649847Y242157D02*
X657643Y249953D01*
X659592Y249953D01*
X661541Y248004D01*
X661541Y244106D01*
X659592Y242157D01*
X659592Y253851D02*
X661541Y255800D01*
X661541Y259698D01*
X659592Y261647D01*
X657643Y261647D01*
X655694Y259698D01*
X655694Y257749D01*
X655694Y259698D02*
X653745Y261647D01*
X651796Y261647D01*
X649847Y259698D01*
X649847Y255800D01*
X651796Y253851D01*
D19*
X717364Y117192D02*
X718931Y115624D01*
X718931Y112489D01*
X717364Y110921D01*
X711093Y110921D01*
X709525Y112489D01*
X709525Y115624D01*
X711093Y117192D01*
X717364Y120277D02*
X718931Y121844D01*
X718931Y124980D01*
X717364Y126547D01*
X715796Y126547D01*
X714228Y124980D01*
X714228Y123412D01*
X714228Y124980D02*
X712661Y126547D01*
X711093Y126547D01*
X709525Y124980D01*
X709525Y121844D01*
X711093Y120277D01*
X717364Y129632D02*
X718931Y131199D01*
X718931Y134335D01*
X717364Y135902D01*
X715796Y135902D01*
X714228Y134335D01*
X714228Y132767D01*
X714228Y134335D02*
X712661Y135902D01*
X711093Y135902D01*
X709525Y134335D01*
X709525Y131199D01*
X711093Y129632D01*
X759012Y137296D02*
X759012Y146702D01*
X754309Y146702D01*
X752741Y145134D01*
X752741Y141999D01*
X754309Y140431D01*
X759012Y140431D01*
X755876Y140431D02*
X752741Y137296D01*
X749656Y137296D02*
X743386Y137296D01*
X749656Y137296D02*
X743386Y143566D01*
X743386Y145134D01*
X744953Y146702D01*
X748089Y146702D01*
X749656Y145134D01*
X740301Y137296D02*
X734031Y137296D01*
X740301Y137296D02*
X734031Y143566D01*
X734031Y145134D01*
X735598Y146702D01*
X738734Y146702D01*
X740301Y145134D01*
D16*
X362819Y115699D02*
X362842Y117544D01*
X362910Y119387D01*
X363023Y121229D01*
X363181Y123067D01*
X363384Y124900D01*
X363633Y126728D01*
X363926Y128550D01*
X364263Y130363D01*
X364645Y132168D01*
X365072Y133963D01*
X365542Y135747D01*
X366056Y137519D01*
X366613Y139277D01*
X367213Y141022D01*
X367856Y142751D01*
X368541Y144464D01*
X369268Y146159D01*
X370036Y147837D01*
X370845Y149494D01*
X371695Y151132D01*
X372584Y152748D01*
X373513Y154342D01*
X374481Y155913D01*
X375487Y157459D01*
X376530Y158980D01*
X377611Y160475D01*
X378728Y161943D01*
X379881Y163384D01*
X381069Y164795D01*
X382291Y166177D01*
X383546Y167529D01*
X384835Y168849D01*
X386155Y170138D01*
X387507Y171393D01*
X388889Y172615D01*
X390300Y173803D01*
X391741Y174956D01*
X393209Y176073D01*
X394704Y177154D01*
X396225Y178197D01*
X397771Y179203D01*
X399342Y180171D01*
X400936Y181100D01*
X402552Y181989D01*
X404190Y182839D01*
X405847Y183648D01*
X407525Y184416D01*
X409220Y185143D01*
X410933Y185828D01*
X412662Y186471D01*
X414407Y187071D01*
X416165Y187628D01*
X417937Y188142D01*
X419721Y188612D01*
X421516Y189039D01*
X423321Y189421D01*
X425134Y189758D01*
X426956Y190051D01*
X428784Y190300D01*
X430617Y190503D01*
X432455Y190661D01*
X434297Y190774D01*
X436140Y190842D01*
X437985Y190865D01*
X439830Y190842D01*
X441673Y190774D01*
X443515Y190661D01*
X445353Y190503D01*
X447186Y190300D01*
X449014Y190051D01*
X450836Y189758D01*
X452649Y189421D01*
X454454Y189039D01*
X456249Y188612D01*
X458033Y188142D01*
X459805Y187628D01*
X461563Y187071D01*
X463308Y186471D01*
X465037Y185828D01*
X466750Y185143D01*
X468445Y184416D01*
X470123Y183648D01*
X471780Y182839D01*
X473418Y181989D01*
X475034Y181100D01*
X476628Y180171D01*
X478199Y179203D01*
X479745Y178197D01*
X481266Y177154D01*
X482761Y176073D01*
X484229Y174956D01*
X485670Y173803D01*
X487081Y172615D01*
X488463Y171393D01*
X489815Y170138D01*
X491135Y168849D01*
X492424Y167529D01*
X493679Y166177D01*
X494901Y164795D01*
X496089Y163384D01*
X497242Y161943D01*
X498359Y160475D01*
X499440Y158980D01*
X500483Y157459D01*
X501489Y155913D01*
X502457Y154342D01*
X503386Y152748D01*
X504275Y151132D01*
X505125Y149494D01*
X505934Y147837D01*
X506702Y146159D01*
X507429Y144464D01*
X508114Y142751D01*
X508757Y141022D01*
X509357Y139277D01*
X509914Y137519D01*
X510428Y135747D01*
X510898Y133963D01*
X511325Y132168D01*
X511707Y130363D01*
X512044Y128550D01*
X512337Y126728D01*
X512586Y124900D01*
X512789Y123067D01*
X512947Y121229D01*
X513060Y119387D01*
X513128Y117544D01*
X513151Y115699D01*
X513128Y113854D01*
X513060Y112011D01*
X512947Y110169D01*
X512789Y108331D01*
X512586Y106498D01*
X512337Y104670D01*
X512044Y102848D01*
X511707Y101035D01*
X511325Y99230D01*
X510898Y97435D01*
X510428Y95651D01*
X509914Y93879D01*
X509357Y92121D01*
X508757Y90376D01*
X508114Y88647D01*
X507429Y86934D01*
X506702Y85239D01*
X505934Y83561D01*
X505125Y81904D01*
X504275Y80266D01*
X503386Y78650D01*
X502457Y77056D01*
X501489Y75485D01*
X500483Y73939D01*
X499440Y72418D01*
X498359Y70923D01*
X497242Y69455D01*
X496089Y68014D01*
X494901Y66603D01*
X493679Y65221D01*
X492424Y63869D01*
X491135Y62549D01*
X489815Y61260D01*
X488463Y60005D01*
X487081Y58783D01*
X485670Y57595D01*
X484229Y56442D01*
X482761Y55325D01*
X481266Y54244D01*
X479745Y53201D01*
X478199Y52195D01*
X476628Y51227D01*
X475034Y50298D01*
X473418Y49409D01*
X471780Y48559D01*
X470123Y47750D01*
X468445Y46982D01*
X466750Y46255D01*
X465037Y45570D01*
X463308Y44927D01*
X461563Y44327D01*
X459805Y43770D01*
X458033Y43256D01*
X456249Y42786D01*
X454454Y42359D01*
X452649Y41977D01*
X450836Y41640D01*
X449014Y41347D01*
X447186Y41098D01*
X445353Y40895D01*
X443515Y40737D01*
X441673Y40624D01*
X439830Y40556D01*
X437985Y40533D01*
X436140Y40556D01*
X434297Y40624D01*
X432455Y40737D01*
X430617Y40895D01*
X428784Y41098D01*
X426956Y41347D01*
X425134Y41640D01*
X423321Y41977D01*
X421516Y42359D01*
X419721Y42786D01*
X417937Y43256D01*
X416165Y43770D01*
X414407Y44327D01*
X412662Y44927D01*
X410933Y45570D01*
X409220Y46255D01*
X407525Y46982D01*
X405847Y47750D01*
X404190Y48559D01*
X402552Y49409D01*
X400936Y50298D01*
X399342Y51227D01*
X397771Y52195D01*
X396225Y53201D01*
X394704Y54244D01*
X393209Y55325D01*
X391741Y56442D01*
X390300Y57595D01*
X388889Y58783D01*
X387507Y60005D01*
X386155Y61260D01*
X384835Y62549D01*
X383546Y63869D01*
X382291Y65221D01*
X381069Y66603D01*
X379881Y68014D01*
X378728Y69455D01*
X377611Y70923D01*
X376530Y72418D01*
X375487Y73939D01*
X374481Y75485D01*
X373513Y77056D01*
X372584Y78650D01*
X371695Y80266D01*
X370845Y81904D01*
X370036Y83561D01*
X369268Y85239D01*
X368541Y86934D01*
X367856Y88647D01*
X367213Y90376D01*
X366613Y92121D01*
X366056Y93879D01*
X365542Y95651D01*
X365072Y97435D01*
X364645Y99230D01*
X364263Y101035D01*
X363926Y102848D01*
X363633Y104670D01*
X363384Y106498D01*
X363181Y108331D01*
X363023Y110169D01*
X362910Y112011D01*
X362842Y113854D01*
X362819Y115699D01*
X457985Y190699D02*
X509985Y190699D01*
X417985Y190699D02*
X365985Y190699D01*
X365985Y170699D01*
X373985Y155699D01*
X373985Y156699D01*
X417985Y175699D02*
X417985Y190699D01*
X417985Y175699D02*
X457985Y175699D01*
X457985Y190699D01*
X510985Y190699D02*
X510985Y171699D01*
X501985Y155699D01*
X477985Y170699D02*
X468985Y170699D01*
X472985Y166699D02*
X472985Y174699D01*
X472985Y65699D02*
X472985Y55699D01*
D18*
X467845Y120252D02*
X469794Y122201D01*
X473692Y122201D01*
X475641Y120252D01*
X475641Y112456D01*
X473692Y110507D01*
X469794Y110507D01*
X467845Y112456D01*
X463947Y110507D02*
X463947Y122201D01*
X458100Y122201D01*
X456151Y120252D01*
X456151Y116354D01*
X458100Y114405D01*
X463947Y114405D01*
X460049Y114405D02*
X456151Y110507D01*
X452253Y118303D02*
X448355Y122201D01*
X448355Y110507D01*
X452253Y110507D02*
X444457Y110507D01*
X440559Y110507D02*
X432763Y110507D01*
X440559Y110507D02*
X432763Y118303D01*
X432763Y120252D01*
X434712Y122201D01*
X438610Y122201D01*
X440559Y120252D01*
X428865Y110507D02*
X421069Y110507D01*
X428865Y110507D02*
X421069Y118303D01*
X421069Y120252D01*
X423018Y122201D01*
X426916Y122201D01*
X428865Y120252D01*
X417171Y120252D02*
X417171Y112456D01*
X417171Y120252D02*
X415222Y122201D01*
X411324Y122201D01*
X409375Y120252D01*
X409375Y112456D01*
X411324Y110507D01*
X415222Y110507D01*
X417171Y112456D01*
X409375Y120252D01*
D11*
X344446Y114551D02*
X341734Y117263D01*
X341734Y122686D01*
X344446Y125398D01*
X355292Y125398D01*
X358004Y122686D01*
X358004Y117263D01*
X355292Y114551D01*
X358004Y109026D02*
X341734Y109026D01*
X341734Y100891D01*
X344446Y98180D01*
X349869Y98180D01*
X352581Y100891D01*
X352581Y109026D01*
X352581Y103603D02*
X358004Y98180D01*
X347158Y92655D02*
X341734Y87232D01*
X358004Y87232D01*
X358004Y92655D02*
X358004Y81808D01*
X358004Y76283D02*
X358004Y65437D01*
X358004Y76283D02*
X347158Y65437D01*
X344446Y65437D01*
X341734Y68148D01*
X341734Y73572D01*
X344446Y76283D01*
X358004Y59912D02*
X358004Y49065D01*
X347158Y49065D02*
X358004Y59912D01*
X347158Y49065D02*
X344446Y49065D01*
X341734Y51777D01*
X341734Y57200D01*
X344446Y59912D01*
X344446Y43540D02*
X355292Y43540D01*
X344446Y43540D02*
X341734Y40829D01*
X341734Y35405D01*
X344446Y32694D01*
X355292Y32694D01*
X358004Y35405D01*
X358004Y40829D01*
X355292Y43540D01*
X344446Y32694D01*
D14*
X726279Y211860D02*
X726279Y239800D01*
X705959Y211860D02*
X705961Y211760D01*
X705967Y211661D01*
X705977Y211561D01*
X705990Y211463D01*
X706008Y211364D01*
X706029Y211267D01*
X706054Y211171D01*
X706083Y211075D01*
X706116Y210981D01*
X706152Y210888D01*
X706192Y210797D01*
X706236Y210707D01*
X706283Y210619D01*
X706333Y210533D01*
X706387Y210449D01*
X706444Y210367D01*
X706504Y210288D01*
X706568Y210210D01*
X706634Y210136D01*
X706703Y210064D01*
X706775Y209995D01*
X706849Y209929D01*
X706927Y209865D01*
X707006Y209805D01*
X707088Y209748D01*
X707172Y209694D01*
X707258Y209644D01*
X707346Y209597D01*
X707436Y209553D01*
X707527Y209513D01*
X707620Y209477D01*
X707714Y209444D01*
X707810Y209415D01*
X707906Y209390D01*
X708003Y209369D01*
X708102Y209351D01*
X708200Y209338D01*
X708300Y209328D01*
X708399Y209322D01*
X708499Y209320D01*
X705959Y239800D02*
X705961Y239900D01*
X705967Y239999D01*
X705977Y240099D01*
X705990Y240197D01*
X706008Y240296D01*
X706029Y240393D01*
X706054Y240489D01*
X706083Y240585D01*
X706116Y240679D01*
X706152Y240772D01*
X706192Y240863D01*
X706236Y240953D01*
X706283Y241041D01*
X706333Y241127D01*
X706387Y241211D01*
X706444Y241293D01*
X706504Y241372D01*
X706568Y241450D01*
X706634Y241524D01*
X706703Y241596D01*
X706775Y241665D01*
X706849Y241731D01*
X706927Y241795D01*
X707006Y241855D01*
X707088Y241912D01*
X707172Y241966D01*
X707258Y242016D01*
X707346Y242063D01*
X707436Y242107D01*
X707527Y242147D01*
X707620Y242183D01*
X707714Y242216D01*
X707810Y242245D01*
X707906Y242270D01*
X708003Y242291D01*
X708102Y242309D01*
X708200Y242322D01*
X708300Y242332D01*
X708399Y242338D01*
X708499Y242340D01*
X723739Y242340D02*
X723839Y242338D01*
X723938Y242332D01*
X724038Y242322D01*
X724136Y242309D01*
X724235Y242291D01*
X724332Y242270D01*
X724428Y242245D01*
X724524Y242216D01*
X724618Y242183D01*
X724711Y242147D01*
X724802Y242107D01*
X724892Y242063D01*
X724980Y242016D01*
X725066Y241966D01*
X725150Y241912D01*
X725232Y241855D01*
X725311Y241795D01*
X725389Y241731D01*
X725463Y241665D01*
X725535Y241596D01*
X725604Y241524D01*
X725670Y241450D01*
X725734Y241372D01*
X725794Y241293D01*
X725851Y241211D01*
X725905Y241127D01*
X725955Y241041D01*
X726002Y240953D01*
X726046Y240863D01*
X726086Y240772D01*
X726122Y240679D01*
X726155Y240585D01*
X726184Y240489D01*
X726209Y240393D01*
X726230Y240296D01*
X726248Y240197D01*
X726261Y240099D01*
X726271Y239999D01*
X726277Y239900D01*
X726279Y239800D01*
X726279Y211860D02*
X726277Y211760D01*
X726271Y211661D01*
X726261Y211561D01*
X726248Y211463D01*
X726230Y211364D01*
X726209Y211267D01*
X726184Y211171D01*
X726155Y211075D01*
X726122Y210981D01*
X726086Y210888D01*
X726046Y210797D01*
X726002Y210707D01*
X725955Y210619D01*
X725905Y210533D01*
X725851Y210449D01*
X725794Y210367D01*
X725734Y210288D01*
X725670Y210210D01*
X725604Y210136D01*
X725535Y210064D01*
X725463Y209995D01*
X725389Y209929D01*
X725311Y209865D01*
X725232Y209805D01*
X725150Y209748D01*
X725066Y209694D01*
X724980Y209644D01*
X724892Y209597D01*
X724802Y209553D01*
X724711Y209513D01*
X724618Y209477D01*
X724524Y209444D01*
X724428Y209415D01*
X724332Y209390D01*
X724235Y209369D01*
X724136Y209351D01*
X724038Y209338D01*
X723938Y209328D01*
X723839Y209322D01*
X723739Y209320D01*
X708499Y209320D01*
X708499Y242340D02*
X723739Y242340D01*
X705959Y239800D02*
X705959Y211860D01*
D16*
X701184Y213912D02*
X699277Y215819D01*
X701184Y213912D02*
X701184Y210099D01*
X699277Y208192D01*
X697371Y208192D01*
X695464Y210099D01*
X695464Y213912D01*
X693557Y215819D01*
X691651Y215819D01*
X689744Y213912D01*
X689744Y210099D01*
X691651Y208192D01*
X691651Y219886D02*
X689744Y221793D01*
X689744Y223700D01*
X691651Y225606D01*
X701184Y225606D01*
X701184Y223700D02*
X701184Y227513D01*
X689744Y231580D02*
X689744Y239207D01*
X689744Y231580D02*
X697371Y239207D01*
X699277Y239207D01*
X701184Y237300D01*
X701184Y233487D01*
X699277Y231580D01*
D18*
X500484Y327135D02*
X498535Y329084D01*
X500484Y327135D02*
X500484Y323237D01*
X498535Y321288D01*
X490739Y321288D01*
X488790Y323237D01*
X488790Y327135D01*
X490739Y329084D01*
X488790Y332982D02*
X488790Y340778D01*
X488790Y332982D02*
X496586Y340778D01*
X498535Y340778D01*
X500484Y338829D01*
X500484Y334931D01*
X498535Y332982D01*
X498535Y344676D02*
X490739Y344676D01*
X498535Y344676D02*
X500484Y346625D01*
X500484Y350523D01*
X498535Y352472D01*
X490739Y352472D01*
X488790Y350523D01*
X488790Y346625D01*
X490739Y344676D01*
X498535Y352472D01*
X533665Y426645D02*
X535614Y428594D01*
X539512Y428594D01*
X541461Y426645D01*
X541461Y418849D01*
X539512Y416900D01*
X535614Y416900D01*
X533665Y418849D01*
X529767Y416900D02*
X521971Y416900D01*
X529767Y416900D02*
X521971Y424696D01*
X521971Y426645D01*
X523920Y428594D01*
X527818Y428594D01*
X529767Y426645D01*
X518073Y424696D02*
X514175Y428594D01*
X514175Y416900D01*
X518073Y416900D02*
X510277Y416900D01*
D14*
X475992Y246993D02*
X462864Y246993D01*
X462864Y236905D01*
X462864Y215545D02*
X475992Y215545D01*
X462864Y215545D02*
X462864Y225633D01*
X476072Y227545D02*
X476072Y235133D01*
D11*
X470507Y251604D02*
X466101Y251604D01*
X470507Y251604D02*
X471609Y252706D01*
X471609Y254909D01*
X470507Y256011D01*
X466101Y256011D01*
X464999Y254909D01*
X464999Y252706D01*
X466101Y251604D01*
X467202Y253808D02*
X464999Y256011D01*
X469405Y259089D02*
X471609Y261292D01*
X464999Y261292D01*
X464999Y259089D02*
X464999Y263495D01*
D18*
X876680Y76196D02*
X878629Y74247D01*
X878629Y70349D01*
X876680Y68400D01*
X868884Y68400D01*
X866935Y70349D01*
X866935Y74247D01*
X868884Y76196D01*
X866935Y80094D02*
X866935Y87890D01*
X866935Y80094D02*
X874731Y87890D01*
X876680Y87890D01*
X878629Y85941D01*
X878629Y82043D01*
X876680Y80094D01*
X878629Y91788D02*
X878629Y99584D01*
X878629Y91788D02*
X872782Y91788D01*
X874731Y95686D01*
X874731Y97635D01*
X872782Y99584D01*
X868884Y99584D01*
X866935Y97635D01*
X866935Y93737D01*
X868884Y91788D01*
D20*
X298526Y36190D03*
D21*
X298558Y36254D03*
D22*
X298526Y36317D03*
D23*
X298557Y36381D03*
D24*
X296557Y36381D03*
D25*
X298557Y36444D03*
D26*
X296589Y36444D03*
D27*
X298558Y36508D03*
D28*
X296621Y36508D03*
D29*
X298526Y36571D03*
D30*
X296652Y36571D03*
D31*
X298494Y36635D03*
D32*
X296653Y36635D03*
D33*
X267538Y36635D03*
D34*
X298494Y36698D03*
D35*
X296716Y36698D03*
D20*
X267538Y36698D03*
D36*
X298494Y36762D03*
D37*
X296748Y36762D03*
D21*
X267570Y36762D03*
D38*
X298462Y36825D03*
D39*
X296748Y36825D03*
D40*
X267570Y36825D03*
D41*
X298399Y36889D03*
D42*
X296811Y36889D03*
D33*
X288620Y36889D03*
X286969Y36889D03*
D43*
X267601Y36889D03*
D44*
X266077Y36889D03*
D26*
X298367Y36952D03*
D45*
X296811Y36952D03*
D34*
X288588Y36952D03*
D46*
X287032Y36952D03*
D25*
X267569Y36952D03*
D47*
X266046Y36952D03*
D48*
X297287Y37016D03*
D49*
X288556Y37016D03*
D50*
X287032Y37016D03*
D51*
X267538Y37016D03*
D52*
X266077Y37016D03*
D53*
X262362Y37016D03*
D54*
X256679Y37016D03*
D55*
X297256Y37079D03*
D56*
X288556Y37079D03*
D57*
X287064Y37079D03*
D58*
X267474Y37079D03*
D59*
X266109Y37079D03*
D60*
X262331Y37079D03*
D40*
X256711Y37079D03*
D61*
X297192Y37143D03*
D62*
X293351Y37143D03*
D63*
X288525Y37143D03*
D64*
X287096Y37143D03*
D65*
X266458Y37143D03*
D66*
X262363Y37143D03*
D43*
X256679Y37143D03*
D67*
X297161Y37206D03*
D68*
X293414Y37206D03*
D69*
X288524Y37206D03*
D70*
X287096Y37206D03*
D68*
X266363Y37206D03*
D71*
X262331Y37206D03*
D72*
X257822Y37206D03*
D25*
X256711Y37206D03*
D73*
X297065Y37270D03*
D61*
X293509Y37270D03*
D74*
X288493Y37270D03*
D49*
X287159Y37270D03*
D75*
X266331Y37270D03*
D76*
X262331Y37270D03*
D77*
X257695Y37270D03*
D23*
X256711Y37270D03*
D78*
X295256Y37333D03*
D79*
X287953Y37333D03*
D80*
X266236Y37333D03*
D81*
X262362Y37333D03*
D82*
X257409Y37333D03*
D83*
X295160Y37397D03*
D84*
X288017Y37397D03*
D54*
X284746Y37397D03*
D85*
X266141Y37397D03*
D86*
X262553Y37397D03*
D87*
X257441Y37397D03*
D88*
X295065Y37460D03*
D68*
X288080Y37460D03*
D40*
X284715Y37460D03*
D89*
X263982Y37460D03*
D90*
X257473Y37460D03*
D91*
X294938Y37524D03*
D66*
X288144Y37524D03*
D92*
X284683Y37524D03*
X283540Y37524D03*
D93*
X263950Y37524D03*
D94*
X257536Y37524D03*
D95*
X294811Y37587D03*
D80*
X288270Y37587D03*
D25*
X284651Y37587D03*
D96*
X283508Y37587D03*
D40*
X273602Y37587D03*
D88*
X263887Y37587D03*
D97*
X257600Y37587D03*
D98*
X292715Y37651D03*
D50*
X284619Y37651D03*
D63*
X283508Y37651D03*
D43*
X273570Y37651D03*
D93*
X263823Y37651D03*
D99*
X257632Y37651D03*
D100*
X292684Y37714D03*
D70*
X284556Y37714D03*
D47*
X283508Y37714D03*
D25*
X273538Y37714D03*
D88*
X263760Y37714D03*
D101*
X257695Y37714D03*
D102*
X292652Y37778D03*
D103*
X283794Y37778D03*
D50*
X273570Y37778D03*
D93*
X263696Y37778D03*
D104*
X257727Y37778D03*
D105*
X292620Y37841D03*
D106*
X283762Y37841D03*
D57*
X273539Y37841D03*
D88*
X263633Y37841D03*
D79*
X257790Y37841D03*
D107*
X292620Y37905D03*
D108*
X283730Y37905D03*
D43*
X280428Y37905D03*
D24*
X274840Y37905D03*
D109*
X273570Y37905D03*
D110*
X263537Y37905D03*
D111*
X257822Y37905D03*
D112*
X292588Y37968D03*
D97*
X283699Y37968D03*
D30*
X280269Y37968D03*
D26*
X274872Y37968D03*
D58*
X273570Y37968D03*
D113*
X263442Y37968D03*
D114*
X257918Y37968D03*
D115*
X292589Y38032D03*
D116*
X283635Y38032D03*
D117*
X280143Y38032D03*
D118*
X274872Y38032D03*
D36*
X273666Y38032D03*
D119*
X261791Y38032D03*
D120*
X292525Y38095D03*
D101*
X283603Y38095D03*
D121*
X280238Y38095D03*
D114*
X274491Y38095D03*
D40*
X266617Y38095D03*
X266046Y38095D03*
D122*
X261283Y38095D03*
D123*
X292462Y38159D03*
D104*
X283508Y38159D03*
D124*
X280270Y38159D03*
D125*
X274650Y38159D03*
D126*
X261315Y38159D03*
D127*
X292303Y38222D03*
D128*
X283476Y38222D03*
D129*
X280238Y38222D03*
D130*
X274713Y38222D03*
D20*
X268681Y38222D03*
D131*
X261378Y38222D03*
D132*
X292207Y38286D03*
D133*
X281508Y38286D03*
D85*
X274777Y38286D03*
D21*
X268649Y38286D03*
D134*
X261442Y38286D03*
D135*
X293509Y38349D03*
D68*
X288715Y38349D03*
D136*
X281381Y38349D03*
D137*
X274967Y38349D03*
D46*
X268617Y38349D03*
D25*
X266998Y38349D03*
D138*
X261505Y38349D03*
D139*
X293509Y38413D03*
D94*
X288588Y38413D03*
D140*
X281127Y38413D03*
D141*
X275348Y38413D03*
D23*
X268585Y38413D03*
D142*
X266934Y38413D03*
D143*
X262617Y38413D03*
D144*
X258076Y38413D03*
D145*
X293287Y38476D03*
D59*
X288525Y38476D03*
D146*
X278873Y38476D03*
D72*
X268490Y38476D03*
D147*
X263506Y38476D03*
D69*
X258044Y38476D03*
D33*
X299796Y38540D03*
D148*
X293255Y38540D03*
D74*
X288493Y38540D03*
D149*
X278841Y38540D03*
D64*
X268427Y38540D03*
D150*
X263791Y38540D03*
D40*
X299764Y38603D03*
D151*
X293319Y38603D03*
D29*
X288493Y38603D03*
D152*
X278841Y38603D03*
D34*
X268331Y38603D03*
D153*
X263918Y38603D03*
D21*
X299701Y38667D03*
D154*
X298018Y38667D03*
D155*
X293414Y38667D03*
D156*
X278809Y38667D03*
D157*
X264458Y38667D03*
D22*
X299669Y38730D03*
D56*
X297954Y38730D03*
D158*
X293477Y38730D03*
D159*
X278809Y38730D03*
D160*
X264458Y38730D03*
D23*
X299637Y38794D03*
D28*
X297891Y38794D03*
D161*
X293732Y38794D03*
D162*
X278809Y38794D03*
D163*
X264458Y38794D03*
D72*
X299605Y38857D03*
D164*
X294525Y38857D03*
D127*
X278714Y38857D03*
D165*
X264426Y38857D03*
D27*
X299574Y38921D03*
D166*
X294525Y38921D03*
D167*
X278492Y38921D03*
D168*
X264395Y38921D03*
D29*
X299542Y38984D03*
D169*
X294525Y38984D03*
D170*
X278555Y38984D03*
D171*
X264331Y38984D03*
D31*
X299446Y39048D03*
D157*
X294494Y39048D03*
D172*
X280047Y39048D03*
D94*
X274872Y39048D03*
D168*
X264331Y39048D03*
D96*
X299383Y39111D03*
D173*
X294462Y39111D03*
D174*
X280269Y39111D03*
D35*
X274808Y39111D03*
D175*
X265887Y39111D03*
D176*
X261886Y39111D03*
D41*
X299288Y39175D03*
D177*
X294430Y39175D03*
D178*
X280428Y39175D03*
D118*
X274745Y39175D03*
D94*
X267188Y39175D03*
D87*
X264934Y39175D03*
D124*
X261791Y39175D03*
D179*
X294906Y39238D03*
D180*
X280555Y39238D03*
D56*
X274713Y39238D03*
D82*
X267188Y39238D03*
D35*
X265029Y39238D03*
D181*
X261696Y39238D03*
D167*
X294875Y39302D03*
D172*
X280555Y39302D03*
D64*
X274777Y39302D03*
D62*
X267189Y39302D03*
D32*
X265093Y39302D03*
D182*
X261600Y39302D03*
D170*
X294811Y39365D03*
D183*
X280555Y39365D03*
D184*
X267220Y39365D03*
D30*
X265156Y39365D03*
D68*
X261600Y39365D03*
D167*
X294748Y39429D03*
D93*
X280524Y39429D03*
D28*
X267284Y39429D03*
D118*
X265220Y39429D03*
D182*
X261600Y39429D03*
D185*
X294716Y39492D03*
D186*
X280492Y39492D03*
D187*
X267315Y39492D03*
D188*
X265252Y39492D03*
D68*
X261600Y39492D03*
D189*
X294652Y39556D03*
D190*
X280428Y39556D03*
D191*
X265315Y39556D03*
D182*
X261600Y39556D03*
D185*
X294589Y39619D03*
D147*
X280397Y39619D03*
D192*
X265633Y39619D03*
D121*
X261569Y39619D03*
D167*
X294494Y39683D03*
D193*
X280333Y39683D03*
D62*
X265728Y39683D03*
D194*
X261569Y39683D03*
D170*
X294430Y39746D03*
D165*
X280301Y39746D03*
D195*
X265823Y39746D03*
D121*
X261569Y39746D03*
D116*
X298050Y39810D03*
D196*
X293223Y39810D03*
D54*
X285635Y39810D03*
D197*
X280238Y39810D03*
D37*
X265887Y39810D03*
D194*
X261569Y39810D03*
D82*
X298113Y39873D03*
D45*
X295668Y39873D03*
D198*
X291827Y39873D03*
D22*
X285572Y39873D03*
D199*
X280174Y39873D03*
D82*
X265982Y39873D03*
D121*
X261569Y39873D03*
D32*
X298177Y39937D03*
D200*
X295732Y39937D03*
D201*
X291541Y39937D03*
D23*
X285540Y39937D03*
D202*
X280143Y39937D03*
D203*
X266045Y39937D03*
D194*
X261569Y39937D03*
D26*
X298240Y40000D03*
D195*
X295795Y40000D03*
D204*
X291446Y40000D03*
D72*
X285508Y40000D03*
D205*
X282460Y40000D03*
D206*
X277793Y40000D03*
D82*
X266109Y40000D03*
D121*
X261569Y40000D03*
D50*
X298208Y40064D03*
D62*
X295891Y40064D03*
D207*
X291382Y40064D03*
D27*
X285413Y40064D03*
D208*
X282651Y40064D03*
D209*
X277603Y40064D03*
D203*
X266109Y40064D03*
D194*
X261569Y40064D03*
D210*
X295986Y40127D03*
D211*
X291287Y40127D03*
D58*
X285381Y40127D03*
D212*
X282778Y40127D03*
D213*
X277412Y40127D03*
D82*
X266172Y40127D03*
D121*
X261569Y40127D03*
D62*
X296081Y40191D03*
D214*
X291223Y40191D03*
D31*
X285286Y40191D03*
D215*
X282905Y40191D03*
D216*
X277253Y40191D03*
D217*
X266204Y40191D03*
D194*
X261569Y40191D03*
D59*
X296208Y40254D03*
D211*
X291160Y40254D03*
D218*
X283317Y40254D03*
D219*
X277126Y40254D03*
D220*
X266268Y40254D03*
D121*
X261569Y40254D03*
D217*
X296303Y40318D03*
D221*
X291128Y40318D03*
D222*
X283381Y40318D03*
D223*
X276967Y40318D03*
D62*
X266300Y40318D03*
D194*
X261569Y40318D03*
D59*
X296399Y40381D03*
D212*
X291033Y40381D03*
D224*
X283349Y40381D03*
D81*
X276840Y40381D03*
D59*
X266363Y40381D03*
D121*
X261569Y40381D03*
D62*
X296462Y40445D03*
D216*
X290969Y40445D03*
D141*
X283349Y40445D03*
D223*
X276777Y40445D03*
D62*
X266427Y40445D03*
D194*
X261569Y40445D03*
D59*
X296526Y40508D03*
D212*
X290906Y40508D03*
D225*
X283317Y40508D03*
D81*
X276650Y40508D03*
D226*
X267982Y40508D03*
D227*
X266458Y40508D03*
D121*
X261569Y40508D03*
D62*
X296589Y40572D03*
D223*
X290874Y40572D03*
D221*
X283254Y40572D03*
D223*
X276523Y40572D03*
D92*
X267919Y40572D03*
D62*
X266554Y40572D03*
D194*
X261569Y40572D03*
D59*
X296653Y40635D03*
D81*
X290810Y40635D03*
D228*
X283222Y40635D03*
D81*
X276459Y40635D03*
D72*
X267855Y40635D03*
D82*
X266680Y40635D03*
D121*
X261569Y40635D03*
D144*
X296684Y40699D03*
D223*
X290747Y40699D03*
D36*
X284270Y40699D03*
D94*
X282492Y40699D03*
D223*
X276332Y40699D03*
D229*
X266903Y40699D03*
D194*
X261569Y40699D03*
D59*
X296716Y40762D03*
D230*
X290652Y40762D03*
D90*
X282492Y40762D03*
D219*
X276237Y40762D03*
D20*
X270205Y40762D03*
D106*
X266934Y40762D03*
D121*
X261569Y40762D03*
D231*
X296748Y40826D03*
D232*
X290588Y40826D03*
D103*
X282524Y40826D03*
D223*
X276142Y40826D03*
D21*
X270173Y40826D03*
D42*
X266966Y40826D03*
D194*
X261569Y40826D03*
D35*
X296779Y40889D03*
D230*
X290525Y40889D03*
D233*
X282587Y40889D03*
D81*
X276015Y40889D03*
D46*
X270141Y40889D03*
D39*
X266903Y40889D03*
D68*
X261600Y40889D03*
D53*
X296779Y40953D03*
D234*
X290493Y40953D03*
D42*
X282587Y40953D03*
D223*
X275951Y40953D03*
D23*
X270109Y40953D03*
D62*
X266935Y40953D03*
D75*
X261632Y40953D03*
D35*
X296843Y41016D03*
D235*
X290430Y41016D03*
D90*
X282619Y41016D03*
D219*
X275856Y41016D03*
D25*
X270109Y41016D03*
D35*
X266934Y41016D03*
D236*
X261632Y41016D03*
D237*
X296875Y41080D03*
D234*
X290366Y41080D03*
D200*
X282651Y41080D03*
D215*
X275793Y41080D03*
D50*
X270141Y41080D03*
D32*
X266935Y41080D03*
D75*
X261632Y41080D03*
D238*
X296907Y41143D03*
D235*
X290303Y41143D03*
D39*
X282651Y41143D03*
D213*
X275698Y41143D03*
D57*
X270110Y41143D03*
D239*
X266966Y41143D03*
D236*
X261632Y41143D03*
D21*
X299002Y41207D03*
D32*
X296907Y41207D03*
D234*
X290239Y41207D03*
D203*
X282682Y41207D03*
D214*
X275602Y41207D03*
D27*
X270110Y41207D03*
D142*
X266934Y41207D03*
D66*
X261664Y41207D03*
D25*
X298938Y41270D03*
D184*
X296938Y41270D03*
D235*
X290176Y41270D03*
D82*
X282682Y41270D03*
D213*
X275507Y41270D03*
D29*
X270078Y41270D03*
D57*
X266998Y41270D03*
D240*
X261664Y41270D03*
D50*
X298843Y41334D03*
D241*
X296938Y41334D03*
D234*
X290112Y41334D03*
D217*
X282714Y41334D03*
D208*
X275412Y41334D03*
D64*
X270078Y41334D03*
D66*
X261664Y41334D03*
D29*
X298780Y41397D03*
D184*
X296938Y41397D03*
D137*
X290080Y41397D03*
D220*
X282778Y41397D03*
D225*
X275380Y41397D03*
D34*
X270109Y41397D03*
D240*
X261664Y41397D03*
D36*
X298621Y41461D03*
D242*
X296970Y41461D03*
D243*
X290017Y41461D03*
D62*
X282810Y41461D03*
D244*
X275285Y41461D03*
D154*
X270078Y41461D03*
D66*
X261664Y41461D03*
D68*
X297605Y41524D03*
D245*
X289985Y41524D03*
D20*
X284429Y41524D03*
D59*
X282810Y41524D03*
D204*
X275190Y41524D03*
D70*
X270078Y41524D03*
D181*
X261696Y41524D03*
D111*
X297573Y41588D03*
D73*
X289953Y41588D03*
D21*
X284334Y41588D03*
D37*
X282905Y41588D03*
D209*
X275126Y41588D03*
D154*
X270078Y41588D03*
D66*
X261728Y41588D03*
D101*
X297573Y41651D03*
D245*
X289921Y41651D03*
D25*
X284206Y41651D03*
D82*
X283063Y41651D03*
D204*
X275063Y41651D03*
D96*
X270110Y41651D03*
D240*
X261728Y41651D03*
D108*
X297573Y41715D03*
D246*
X289858Y41715D03*
D103*
X283286Y41715D03*
D141*
X274967Y41715D03*
D247*
X270078Y41715D03*
D248*
X261759Y41715D03*
D90*
X297542Y41778D03*
D137*
X289826Y41778D03*
D82*
X283254Y41778D03*
D206*
X274935Y41778D03*
D249*
X270078Y41778D03*
D250*
X261759Y41778D03*
D217*
X297573Y41842D03*
D246*
X289794Y41842D03*
D231*
X283286Y41842D03*
D222*
X274809Y41842D03*
D142*
X270109Y41842D03*
D248*
X261759Y41842D03*
D35*
X297541Y41905D03*
D245*
X289731Y41905D03*
D238*
X283254Y41905D03*
D251*
X274713Y41905D03*
D187*
X270109Y41905D03*
D80*
X261791Y41905D03*
D191*
X297573Y41969D03*
D73*
X289699Y41969D03*
D74*
X283286Y41969D03*
D252*
X274650Y41969D03*
D44*
X270141Y41969D03*
D125*
X261823Y41969D03*
D70*
X297637Y42032D03*
D245*
X289667Y42032D03*
D253*
X283222Y42032D03*
D198*
X274555Y42032D03*
D56*
X270141Y42032D03*
D181*
X261823Y42032D03*
D246*
X289604Y42096D03*
D254*
X274491Y42096D03*
D77*
X270141Y42096D03*
D255*
X261854Y42096D03*
D245*
X289604Y42159D03*
D20*
X284683Y42159D03*
D175*
X274396Y42159D03*
D69*
X270173Y42159D03*
D80*
X261854Y42159D03*
D246*
X289540Y42223D03*
D43*
X284619Y42223D03*
D256*
X274332Y42223D03*
D28*
X270205Y42223D03*
D255*
X261918Y42223D03*
D257*
X289509Y42286D03*
D25*
X284587Y42286D03*
D258*
X274237Y42286D03*
D47*
X270237Y42286D03*
D80*
X261918Y42286D03*
D246*
X289477Y42350D03*
D51*
X284556Y42350D03*
D259*
X274110Y42350D03*
D260*
X270332Y42350D03*
D261*
X261950Y42350D03*
D137*
X289445Y42413D03*
D262*
X284556Y42413D03*
D263*
X273126Y42413D03*
D264*
X261950Y42413D03*
D243*
X289382Y42477D03*
D27*
X284524Y42477D03*
D265*
X273126Y42477D03*
D124*
X261982Y42477D03*
D257*
X289382Y42540D03*
D34*
X284524Y42540D03*
D174*
X273094Y42540D03*
D266*
X261982Y42540D03*
D73*
X289318Y42604D03*
D31*
X284524Y42604D03*
D267*
X273126Y42604D03*
D124*
X262045Y42604D03*
D235*
X289287Y42667D03*
D253*
X284492Y42667D03*
D268*
X273094Y42667D03*
D71*
X262077Y42667D03*
D234*
X289223Y42731D03*
D36*
X284524Y42731D03*
D269*
X273094Y42731D03*
D85*
X262077Y42731D03*
D235*
X289223Y42794D03*
D38*
X284492Y42794D03*
D268*
X273094Y42794D03*
D270*
X262140Y42794D03*
D234*
X289160Y42858D03*
D142*
X284524Y42858D03*
D271*
X273094Y42858D03*
D48*
X262172Y42858D03*
D230*
X289128Y42921D03*
D187*
X284524Y42921D03*
D272*
X273094Y42921D03*
D273*
X262172Y42921D03*
D232*
X289064Y42985D03*
D41*
X284556Y42985D03*
D271*
X273094Y42985D03*
D274*
X262204Y42985D03*
D81*
X289032Y43048D03*
D26*
X284524Y43048D03*
D272*
X273094Y43048D03*
D67*
X262236Y43048D03*
D223*
X288969Y43112D03*
D275*
X284556Y43112D03*
D276*
X273094Y43112D03*
D277*
X262267Y43112D03*
D219*
X288937Y43175D03*
D69*
X284587Y43175D03*
D278*
X273094Y43175D03*
D245*
X262299Y43175D03*
D221*
X288906Y43239D03*
D279*
X284587Y43239D03*
D280*
X273126Y43239D03*
D246*
X262362Y43239D03*
D213*
X288842Y43302D03*
D281*
X284619Y43302D03*
D282*
X273157Y43302D03*
D137*
X262394Y43302D03*
D214*
X288810Y43366D03*
D118*
X284651Y43366D03*
D283*
X273126Y43366D03*
D234*
X262426Y43366D03*
D284*
X288747Y43429D03*
D30*
X284714Y43429D03*
D285*
X273158Y43429D03*
D235*
X262490Y43429D03*
D286*
X288683Y43493D03*
D241*
X284746Y43493D03*
D161*
X273158Y43493D03*
D232*
X262521Y43493D03*
D206*
X288588Y43556D03*
D35*
X284841Y43556D03*
D287*
X273189Y43556D03*
D212*
X262585Y43556D03*
D288*
X288493Y43620D03*
D37*
X284937Y43620D03*
D289*
X273189Y43620D03*
D221*
X262617Y43620D03*
D278*
X287318Y43683D03*
D290*
X273221Y43683D03*
D291*
X262648Y43683D03*
D276*
X287318Y43747D03*
D49*
X277126Y43747D03*
D292*
X273221Y43747D03*
D207*
X262680Y43747D03*
D21*
X259188Y43747D03*
D278*
X287318Y43810D03*
D95*
X274046Y43810D03*
D293*
X262712Y43810D03*
D57*
X259315Y43810D03*
D109*
X296430Y43874D03*
D294*
X287318Y43874D03*
D295*
X274174Y43874D03*
D222*
X262744Y43874D03*
D24*
X259473Y43874D03*
D69*
X296208Y43937D03*
D282*
X287318Y43937D03*
D296*
X274269Y43937D03*
D297*
X262077Y43937D03*
D191*
X296049Y44001D03*
D294*
X287318Y44001D03*
D298*
X274396Y44001D03*
D139*
X262140Y44001D03*
D47*
X295954Y44064D03*
D282*
X287318Y44064D03*
D299*
X274459Y44064D03*
D300*
X262204Y44064D03*
D74*
X295859Y44128D03*
D301*
X287286Y44128D03*
D193*
X274554Y44128D03*
D302*
X262299Y44128D03*
D239*
X295795Y44191D03*
D272*
X287191Y44191D03*
D303*
X274618Y44191D03*
D290*
X262362Y44191D03*
D304*
X295668Y44255D03*
D269*
X287064Y44255D03*
D305*
X274713Y44255D03*
D292*
X262426Y44255D03*
D30*
X295573Y44318D03*
D263*
X286969Y44318D03*
D306*
X274777Y44318D03*
D287*
X262521Y44318D03*
D242*
X295509Y44382D03*
D83*
X286905Y44382D03*
D305*
X274840Y44382D03*
D283*
X262585Y44382D03*
D184*
X295414Y44445D03*
D89*
X286842Y44445D03*
D303*
X274935Y44445D03*
D282*
X262680Y44445D03*
D260*
X295351Y44509D03*
D307*
X286778Y44509D03*
D193*
X274999Y44509D03*
D301*
X262775Y44509D03*
D238*
X295319Y44572D03*
D186*
X286715Y44572D03*
D303*
X275062Y44572D03*
D308*
X262902Y44572D03*
D32*
X295256Y44636D03*
D190*
X286651Y44636D03*
D193*
X275126Y44636D03*
D143*
X263125Y44636D03*
D192*
X295224Y44699D03*
D95*
X286619Y44699D03*
D303*
X275189Y44699D03*
D309*
X263347Y44699D03*
D32*
X295192Y44763D03*
D310*
X286588Y44763D03*
D193*
X275253Y44763D03*
D295*
X263633Y44763D03*
D311*
X295160Y44826D03*
D147*
X286556Y44826D03*
D303*
X275316Y44826D03*
D312*
X263855Y44826D03*
D53*
X295128Y44890D03*
D313*
X286524Y44890D03*
D298*
X275412Y44890D03*
D157*
X263950Y44890D03*
D192*
X295097Y44953D03*
D303*
X286492Y44953D03*
D299*
X275475Y44953D03*
D314*
X264077Y44953D03*
D53*
X295065Y45017D03*
D315*
X286461Y45017D03*
D298*
X275539Y45017D03*
D316*
X264172Y45017D03*
D35*
X295065Y45080D03*
D165*
X286397Y45080D03*
D147*
X275571Y45080D03*
D317*
X264299Y45080D03*
D144*
X295033Y45144D03*
D166*
X286397Y45144D03*
D318*
X275634Y45144D03*
D319*
X264394Y45144D03*
D227*
X295033Y45207D03*
D160*
X286365Y45207D03*
D95*
X275697Y45207D03*
D320*
X264521Y45207D03*
D62*
X295002Y45271D03*
D197*
X286334Y45271D03*
D190*
X275729Y45271D03*
D321*
X264617Y45271D03*
D220*
X294970Y45334D03*
D322*
X286302Y45334D03*
D323*
X275825Y45334D03*
D324*
X264680Y45334D03*
D37*
X294970Y45398D03*
D325*
X286334Y45398D03*
D150*
X275856Y45398D03*
D326*
X264776Y45398D03*
D39*
X294970Y45461D03*
D314*
X286302Y45461D03*
D327*
X275951Y45461D03*
D328*
X264871Y45461D03*
D200*
X294970Y45525D03*
D316*
X286270Y45525D03*
D307*
X275983Y45525D03*
D321*
X264998Y45525D03*
D80*
X294493Y45588D03*
D329*
X286270Y45588D03*
D88*
X276079Y45588D03*
D320*
X265093Y45588D03*
D48*
X294366Y45652D03*
D202*
X286239Y45652D03*
D110*
X276110Y45652D03*
D319*
X265220Y45652D03*
D245*
X294303Y45715D03*
D330*
X286239Y45715D03*
D89*
X276174Y45715D03*
D320*
X265283Y45715D03*
D234*
X294240Y45779D03*
D319*
X286302Y45779D03*
D196*
X276205Y45779D03*
D331*
X265379Y45779D03*
D213*
X294176Y45842D03*
D332*
X286365Y45842D03*
D183*
X276237Y45842D03*
D333*
X265506Y45842D03*
D207*
X294112Y45906D03*
D334*
X286429Y45906D03*
D265*
X276301Y45906D03*
D177*
X265601Y45906D03*
D204*
X294113Y45969D03*
D335*
X286461Y45969D03*
D336*
X276364Y45969D03*
D322*
X265728Y45969D03*
D86*
X294112Y46033D03*
D337*
X286493Y46033D03*
D338*
X276396Y46033D03*
D163*
X265855Y46033D03*
D339*
X294081Y46096D03*
D179*
X286524Y46096D03*
D340*
X276428Y46096D03*
D303*
X265982Y46096D03*
D341*
X294081Y46160D03*
D342*
X286588Y46160D03*
D269*
X276460Y46160D03*
D295*
X266109Y46160D03*
D343*
X294081Y46223D03*
D344*
X286588Y46223D03*
D308*
X276491Y46223D03*
D95*
X266236Y46223D03*
D345*
X294081Y46287D03*
D346*
X286588Y46287D03*
D271*
X276523Y46287D03*
D347*
X266395Y46287D03*
D348*
X294113Y46350D03*
D349*
X286588Y46350D03*
D272*
X276523Y46350D03*
D327*
X266490Y46350D03*
D350*
X289064Y46414D03*
D351*
X276555Y46414D03*
D93*
X266554Y46414D03*
D352*
X289064Y46477D03*
D353*
X276618Y46477D03*
D89*
X266649Y46477D03*
D354*
X289096Y46541D03*
D355*
X276618Y46541D03*
D83*
X266712Y46541D03*
D356*
X289128Y46604D03*
D278*
X276650Y46604D03*
D78*
X266808Y46604D03*
D357*
X289128Y46668D03*
D276*
X276650Y46668D03*
D265*
X266903Y46668D03*
D358*
X289128Y46731D03*
D135*
X276618Y46731D03*
D180*
X266966Y46731D03*
D359*
X289159Y46795D03*
D294*
X276650Y46795D03*
D269*
X267062Y46795D03*
D360*
X289160Y46858D03*
D282*
X276650Y46858D03*
D308*
X267093Y46858D03*
D361*
X289159Y46922D03*
D294*
X276650Y46922D03*
D271*
X267188Y46922D03*
D362*
X289160Y46985D03*
D285*
X276650Y46985D03*
D363*
X267284Y46985D03*
D364*
X289128Y47049D03*
D161*
X276650Y47049D03*
D301*
X267347Y47049D03*
D365*
X289096Y47112D03*
D285*
X276650Y47112D03*
D366*
X267474Y47112D03*
D367*
X289096Y47176D03*
D161*
X276650Y47176D03*
X267506Y47176D03*
D368*
X289096Y47239D03*
D290*
X276650Y47239D03*
D285*
X267570Y47239D03*
D369*
X289064Y47303D03*
D292*
X276650Y47303D03*
D289*
X267601Y47303D03*
D370*
X289032Y47366D03*
D290*
X276650Y47366D03*
X267696Y47366D03*
D371*
X289001Y47430D03*
D372*
X276618Y47430D03*
X267728Y47430D03*
D373*
X288969Y47493D03*
D374*
X276618Y47493D03*
D300*
X267792Y47493D03*
D375*
X288905Y47557D03*
D302*
X276587Y47557D03*
X267824Y47557D03*
D376*
X288842Y47620D03*
D377*
X276587Y47620D03*
D378*
X267855Y47620D03*
D379*
X288747Y47684D03*
D302*
X276587Y47684D03*
D380*
X267887Y47684D03*
D381*
X285699Y47747D03*
D297*
X267919Y47747D03*
D382*
X285731Y47811D03*
D383*
X268014Y47811D03*
D384*
X285731Y47874D03*
D385*
X268046Y47874D03*
D386*
X285730Y47938D03*
D387*
X268046Y47938D03*
D388*
X285730Y48001D03*
D158*
X268077Y48001D03*
D389*
X285762Y48065D03*
D390*
X268109Y48065D03*
D391*
X285762Y48128D03*
D392*
X268141Y48128D03*
D393*
X285762Y48192D03*
D394*
X268205Y48192D03*
D395*
X285762Y48255D03*
D396*
X268236Y48255D03*
D393*
X285762Y48319D03*
D155*
X268268Y48319D03*
D397*
X285794Y48382D03*
D398*
X268268Y48382D03*
D399*
X285762Y48446D03*
D400*
X268300Y48446D03*
D401*
X285794Y48509D03*
D402*
X268332Y48509D03*
D403*
X285762Y48573D03*
D404*
X268395Y48573D03*
D405*
X285762Y48636D03*
D402*
X268395Y48636D03*
D406*
X285762Y48700D03*
D404*
X268459Y48700D03*
D407*
X285762Y48763D03*
D402*
X268459Y48763D03*
D408*
X285762Y48827D03*
D404*
X268522Y48827D03*
D409*
X285730Y48890D03*
D402*
X268586Y48890D03*
D410*
X285730Y48954D03*
D404*
X268586Y48954D03*
D411*
X285731Y49017D03*
D402*
X268649Y49017D03*
D412*
X285699Y49081D03*
D400*
X268681Y49081D03*
D413*
X285635Y49144D03*
D398*
X268712Y49144D03*
D414*
X285635Y49208D03*
D155*
X268776Y49208D03*
D415*
X285603Y49271D03*
D416*
X268808Y49271D03*
D417*
X285572Y49335D03*
D418*
X268808Y49335D03*
D419*
X285572Y49398D03*
D392*
X268903Y49398D03*
D420*
X285540Y49462D03*
D421*
X268935Y49462D03*
D422*
X285508Y49525D03*
D158*
X269030Y49525D03*
D423*
X285445Y49589D03*
D383*
X269094Y49589D03*
D111*
X262648Y49589D03*
D424*
X285349Y49652D03*
D425*
X269157Y49652D03*
D129*
X262712Y49652D03*
D426*
X282460Y49716D03*
D209*
X262807Y49716D03*
D427*
X282460Y49779D03*
D428*
X262934Y49779D03*
D426*
X282460Y49843D03*
D429*
X263029Y49843D03*
D427*
X282460Y49906D03*
D385*
X263093Y49906D03*
D430*
X282524Y49970D03*
D372*
X263156Y49970D03*
D431*
X279349Y50033D03*
D432*
X279285Y50097D03*
D433*
X279222Y50160D03*
D434*
X279190Y50224D03*
D435*
X279158Y50287D03*
D436*
X279095Y50351D03*
D437*
X279063Y50414D03*
D438*
X279000Y50478D03*
D439*
X278999Y50541D03*
D440*
X278968Y50605D03*
D441*
X278936Y50668D03*
D442*
X278904Y50732D03*
D443*
X278873Y50795D03*
D444*
X278841Y50859D03*
D445*
X278809Y50922D03*
D446*
X278809Y50986D03*
D447*
X278777Y51049D03*
D448*
X278777Y51113D03*
D449*
X278745Y51176D03*
D450*
X278714Y51240D03*
D451*
X278714Y51303D03*
D452*
X294303Y51367D03*
D453*
X273983Y51367D03*
D179*
X294271Y51430D03*
D454*
X273920Y51430D03*
D455*
X294271Y51494D03*
D456*
X273888Y51494D03*
D179*
X294271Y51557D03*
D454*
X273856Y51557D03*
D455*
X294271Y51621D03*
D453*
X273793Y51621D03*
D457*
X294271Y51684D03*
D454*
X273793Y51684D03*
D189*
X294271Y51748D03*
D453*
X273729Y51748D03*
D457*
X294271Y51811D03*
D454*
X273666Y51811D03*
D222*
X296970Y51875D03*
D429*
X291985Y51875D03*
D453*
X273666Y51875D03*
D225*
X297160Y51938D03*
D458*
X291985Y51938D03*
D454*
X273602Y51938D03*
D215*
X297256Y52002D03*
D429*
X291985Y52002D03*
D453*
X273602Y52002D03*
D235*
X297351Y52065D03*
D402*
X291954Y52065D03*
D454*
X273539Y52065D03*
D73*
X297446Y52129D03*
D459*
X291985Y52129D03*
D456*
X273507Y52129D03*
D129*
X297510Y52192D03*
D460*
X291985Y52192D03*
D461*
X273443Y52192D03*
D61*
X297573Y52256D03*
D155*
X291953Y52256D03*
D462*
X273411Y52256D03*
D273*
X297605Y52319D03*
D398*
X291953Y52319D03*
D463*
X273380Y52319D03*
D124*
X297669Y52383D03*
D394*
X291954Y52383D03*
D462*
X273348Y52383D03*
D130*
X297700Y52446D03*
D392*
X291954Y52446D03*
D464*
X273316Y52446D03*
D255*
X297732Y52510D03*
D421*
X291922Y52510D03*
D465*
X273253Y52510D03*
D240*
X297796Y52573D03*
D466*
X291922Y52573D03*
D467*
X276301Y52573D03*
D206*
X259822Y52573D03*
D50*
X300621Y52637D03*
D75*
X297827Y52637D03*
D468*
X291890Y52637D03*
D382*
X276396Y52637D03*
D209*
X259696Y52637D03*
D469*
X300685Y52700D03*
D68*
X297859Y52700D03*
D470*
X291858Y52700D03*
D471*
X276491Y52700D03*
D225*
X259632Y52700D03*
D118*
X300717Y52764D03*
D182*
X297922Y52764D03*
D139*
X291858Y52764D03*
D472*
X276555Y52764D03*
D221*
X259505Y52764D03*
D473*
X300685Y52827D03*
D474*
X297954Y52827D03*
D300*
X291795Y52827D03*
D475*
X276555Y52827D03*
D230*
X259410Y52827D03*
D53*
X300716Y52891D03*
D84*
X297986Y52891D03*
D302*
X291763Y52891D03*
D476*
X276555Y52891D03*
D246*
X259314Y52891D03*
D59*
X300717Y52954D03*
D114*
X297986Y52954D03*
D374*
X291731Y52954D03*
D477*
X276110Y52954D03*
D478*
X259219Y52954D03*
D200*
X300685Y53018D03*
D479*
X298018Y53018D03*
D133*
X291668Y53018D03*
D480*
X274745Y53018D03*
D274*
X259156Y53018D03*
D90*
X300717Y53081D03*
D79*
X298049Y53081D03*
D366*
X291604Y53081D03*
D373*
X274809Y53081D03*
D270*
X259092Y53081D03*
D94*
X300716Y53145D03*
D104*
X298049Y53145D03*
D294*
X291572Y53145D03*
D481*
X274808Y53145D03*
D124*
X258997Y53145D03*
D106*
X300716Y53208D03*
D101*
X298081Y53208D03*
D278*
X291509Y53208D03*
D368*
X274809Y53208D03*
D80*
X258933Y53208D03*
D27*
X301606Y53272D03*
D260*
X300304Y53272D03*
D116*
X298113Y53272D03*
D271*
X291445Y53272D03*
D482*
X274745Y53272D03*
D125*
X258902Y53272D03*
D226*
X301764Y53335D03*
D30*
X300272Y53335D03*
D97*
X298113Y53335D03*
D174*
X291318Y53335D03*
D483*
X274713Y53335D03*
D250*
X258838Y53335D03*
D242*
X300272Y53399D03*
D116*
X298113Y53399D03*
D196*
X291191Y53399D03*
D484*
X274745Y53399D03*
D66*
X258807Y53399D03*
D473*
X300304Y53462D03*
D60*
X298145Y53462D03*
D323*
X291001Y53462D03*
D485*
X274745Y53462D03*
D121*
X258775Y53462D03*
D32*
X300336Y53526D03*
D229*
X298145Y53526D03*
D197*
X290652Y53526D03*
D486*
X274745Y53526D03*
D75*
X258711Y53526D03*
D238*
X300336Y53589D03*
D60*
X298145Y53589D03*
D320*
X290429Y53589D03*
D487*
X274777Y53589D03*
D281*
X262140Y53589D03*
D488*
X258648Y53589D03*
D52*
X300367Y53653D03*
D229*
X298145Y53653D03*
D489*
X290144Y53653D03*
D490*
X274777Y53653D03*
D217*
X262140Y53653D03*
D84*
X258616Y53653D03*
D311*
X300367Y53716D03*
D60*
X298145Y53716D03*
D491*
X289731Y53716D03*
D492*
X274840Y53716D03*
D45*
X262140Y53716D03*
D128*
X258584Y53716D03*
D52*
X300367Y53780D03*
D94*
X298176Y53780D03*
D493*
X289382Y53780D03*
D494*
X274872Y53780D03*
D84*
X262236Y53780D03*
X258553Y53780D03*
D35*
X300399Y53843D03*
D106*
X298176Y53843D03*
D495*
X289255Y53843D03*
D496*
X274872Y53843D03*
D121*
X262204Y53843D03*
D114*
X258553Y53843D03*
D53*
X300399Y53907D03*
D94*
X298176Y53907D03*
D497*
X289128Y53907D03*
D498*
X274904Y53907D03*
D255*
X262235Y53907D03*
D479*
X258521Y53907D03*
D35*
X300335Y53970D03*
D106*
X298176Y53970D03*
D499*
X289032Y53970D03*
D500*
X274935Y53970D03*
D270*
X262267Y53970D03*
D501*
X258521Y53970D03*
D53*
X300335Y54034D03*
D94*
X298176Y54034D03*
D102*
X288969Y54034D03*
D502*
X274935Y54034D03*
D61*
X262267Y54034D03*
D479*
X258521Y54034D03*
D35*
X300335Y54097D03*
D233*
X298208Y54097D03*
D503*
X288874Y54097D03*
D504*
X274967Y54097D03*
D245*
X262299Y54097D03*
D79*
X258489Y54097D03*
D237*
X300304Y54161D03*
D42*
X298208Y54161D03*
D505*
X288810Y54161D03*
D506*
X274967Y54161D03*
D243*
X262331Y54161D03*
D111*
X258457Y54161D03*
D192*
X300304Y54224D03*
D90*
X298177Y54224D03*
D507*
X288747Y54224D03*
D508*
X274999Y54224D03*
D230*
X262331Y54224D03*
D128*
X258457Y54224D03*
D32*
X300272Y54288D03*
D117*
X298177Y54288D03*
D509*
X288715Y54288D03*
D510*
X275031Y54288D03*
D223*
X262362Y54288D03*
D111*
X258457Y54288D03*
D238*
X300209Y54351D03*
D90*
X298177Y54351D03*
D511*
X288651Y54351D03*
D512*
X275094Y54351D03*
D212*
X262331Y54351D03*
D128*
X258457Y54351D03*
D260*
X300177Y54415D03*
D117*
X298177Y54415D03*
D513*
X288620Y54415D03*
D514*
X275126Y54415D03*
D221*
X262363Y54415D03*
D111*
X258457Y54415D03*
D239*
X300113Y54478D03*
D90*
X298177Y54478D03*
D515*
X288588Y54478D03*
D511*
X275189Y54478D03*
D225*
X262362Y54478D03*
D79*
X258425Y54478D03*
D118*
X300082Y54542D03*
D117*
X298177Y54542D03*
D516*
X288556Y54542D03*
D509*
X275253Y54542D03*
D286*
X262394Y54542D03*
D479*
X258394Y54542D03*
D47*
X300018Y54605D03*
D90*
X298177Y54605D03*
D517*
X288493Y54605D03*
D518*
X275285Y54605D03*
D519*
X262394Y54605D03*
D501*
X258394Y54605D03*
D191*
X299986Y54669D03*
D117*
X298177Y54669D03*
D514*
X288461Y54669D03*
D98*
X275316Y54669D03*
D141*
X262394Y54669D03*
D479*
X258394Y54669D03*
D69*
X299954Y54732D03*
D90*
X298177Y54732D03*
D520*
X288429Y54732D03*
D521*
X275348Y54732D03*
D205*
X262394Y54732D03*
D501*
X258394Y54732D03*
D279*
X299891Y54796D03*
D117*
X298177Y54796D03*
D522*
X288398Y54796D03*
D523*
X275412Y54796D03*
D86*
X262426Y54796D03*
D479*
X258394Y54796D03*
D524*
X299859Y54859D03*
D90*
X298177Y54859D03*
D525*
X288398Y54859D03*
D526*
X275412Y54859D03*
D40*
X267443Y54859D03*
D206*
X262426Y54859D03*
D501*
X258394Y54859D03*
D275*
X299796Y54923D03*
D117*
X298177Y54923D03*
D527*
X288366Y54923D03*
D528*
X275316Y54923D03*
D24*
X267855Y54923D03*
D288*
X262458Y54923D03*
D479*
X258394Y54923D03*
D529*
X299796Y54986D03*
D90*
X298177Y54986D03*
D530*
X288334Y54986D03*
D504*
X274332Y54986D03*
D531*
X262490Y54986D03*
D501*
X258394Y54986D03*
D77*
X299732Y55050D03*
D87*
X298208Y55050D03*
D532*
X288270Y55050D03*
D533*
X274396Y55050D03*
D341*
X262458Y55050D03*
D84*
X258426Y55050D03*
D69*
X299700Y55113D03*
D534*
X298208Y55113D03*
D535*
X288239Y55113D03*
X274523Y55113D03*
D128*
X263410Y55113D03*
D82*
X261219Y55113D03*
D114*
X258426Y55113D03*
D536*
X298716Y55177D03*
D537*
X288207Y55177D03*
D538*
X274586Y55177D03*
D108*
X263537Y55177D03*
D52*
X261124Y55177D03*
D84*
X258426Y55177D03*
D130*
X298716Y55240D03*
D539*
X288207Y55240D03*
D540*
X274713Y55240D03*
D40*
X266617Y55240D03*
D106*
X263632Y55240D03*
D473*
X261061Y55240D03*
D114*
X258426Y55240D03*
D536*
X298716Y55304D03*
D452*
X289921Y55304D03*
D277*
X283349Y55304D03*
D509*
X274809Y55304D03*
D51*
X266776Y55304D03*
D42*
X263664Y55304D03*
D304*
X260997Y55304D03*
D65*
X258457Y55304D03*
D80*
X298684Y55367D03*
D541*
X290017Y55367D03*
D80*
X283063Y55367D03*
D542*
X274872Y55367D03*
D29*
X266903Y55367D03*
D39*
X263728Y55367D03*
D47*
X260966Y55367D03*
D114*
X258489Y55367D03*
D255*
X298684Y55431D03*
D134*
X290144Y55431D03*
D125*
X283032Y55431D03*
D543*
X274967Y55431D03*
D154*
X267030Y55431D03*
D87*
X263791Y55431D03*
D279*
X260965Y55431D03*
D84*
X258489Y55431D03*
D80*
X298684Y55494D03*
D324*
X290207Y55494D03*
D240*
X282937Y55494D03*
D544*
X275063Y55494D03*
D249*
X267157Y55494D03*
D82*
X263823Y55494D03*
D529*
X260934Y55494D03*
D488*
X258521Y55494D03*
D255*
X298684Y55558D03*
D331*
X290271Y55558D03*
D66*
X282873Y55558D03*
D545*
X275158Y55558D03*
D247*
X267284Y55558D03*
D37*
X263855Y55558D03*
D41*
X260934Y55558D03*
D546*
X258521Y55558D03*
D80*
X298684Y55621D03*
D330*
X290303Y55621D03*
D68*
X282809Y55621D03*
D120*
X275253Y55621D03*
D469*
X267411Y55621D03*
D195*
X263918Y55621D03*
D187*
X260902Y55621D03*
D68*
X258552Y55621D03*
D255*
X298684Y55685D03*
D177*
X290302Y55685D03*
D182*
X282746Y55685D03*
D547*
X275348Y55685D03*
D279*
X267569Y55685D03*
D62*
X263950Y55685D03*
D36*
X260902Y55685D03*
D65*
X258584Y55685D03*
D80*
X298684Y55748D03*
D199*
X290334Y55748D03*
D474*
X282714Y55748D03*
D548*
X275443Y55748D03*
D47*
X267697Y55748D03*
D59*
X263950Y55748D03*
D253*
X260870Y55748D03*
D68*
X258616Y55748D03*
D255*
X298684Y55812D03*
D157*
X290366Y55812D03*
D546*
X282651Y55812D03*
D549*
X275539Y55812D03*
D242*
X267823Y55812D03*
D231*
X263982Y55812D03*
D31*
X260902Y55812D03*
D182*
X258616Y55812D03*
D130*
X298716Y55875D03*
D312*
X290398Y55875D03*
D114*
X282619Y55875D03*
D349*
X275666Y55875D03*
D238*
X267951Y55875D03*
D210*
X263982Y55875D03*
D57*
X260902Y55875D03*
D121*
X258648Y55875D03*
D536*
X298716Y55939D03*
D550*
X290398Y55939D03*
D111*
X282587Y55939D03*
D132*
X275761Y55939D03*
D53*
X268077Y55939D03*
D231*
X263982Y55939D03*
D51*
X260934Y55939D03*
D182*
X258679Y55939D03*
D130*
X298716Y56002D03*
D551*
X290398Y56002D03*
D501*
X282524Y56002D03*
D552*
X275888Y56002D03*
D195*
X268236Y56002D03*
D210*
X263982Y56002D03*
D25*
X260965Y56002D03*
D236*
X258711Y56002D03*
D124*
X298748Y56066D03*
D168*
X290430Y56066D03*
D479*
X282524Y56066D03*
D553*
X275983Y56066D03*
D117*
X268332Y56066D03*
D62*
X264014Y56066D03*
D21*
X260966Y56066D03*
D194*
X258775Y56066D03*
D266*
X298748Y56129D03*
D171*
X290430Y56129D03*
D79*
X282492Y56129D03*
D131*
X276110Y56129D03*
D45*
X268490Y56129D03*
D59*
X264014Y56129D03*
D240*
X258807Y56129D03*
D48*
X298811Y56193D03*
D315*
X290398Y56193D03*
D104*
X282492Y56193D03*
D319*
X276205Y56193D03*
D104*
X268649Y56193D03*
D62*
X264014Y56193D03*
D66*
X258870Y56193D03*
D67*
X298875Y56256D03*
D303*
X290429Y56256D03*
D101*
X282460Y56256D03*
D314*
X276332Y56256D03*
D474*
X268744Y56256D03*
D59*
X264014Y56256D03*
D181*
X258902Y56256D03*
D277*
X298970Y56320D03*
D193*
X290429Y56320D03*
D104*
X282428Y56320D03*
D166*
X276491Y56320D03*
D75*
X268871Y56320D03*
D62*
X264014Y56320D03*
D125*
X258902Y56320D03*
D257*
X299034Y56383D03*
D296*
X290398Y56383D03*
D554*
X282397Y56383D03*
D147*
X276650Y56383D03*
D266*
X269030Y56383D03*
D59*
X264014Y56383D03*
D250*
X258965Y56383D03*
D232*
X299097Y56447D03*
D550*
X290271Y56447D03*
D99*
X282397Y56447D03*
D150*
X276745Y56447D03*
D274*
X269189Y56447D03*
D37*
X263982Y56447D03*
D255*
X258997Y56447D03*
D81*
X299129Y56510D03*
D312*
X290144Y56510D03*
D554*
X282397Y56510D03*
D555*
X276872Y56510D03*
D257*
X269316Y56510D03*
D59*
X263950Y56510D03*
D130*
X259092Y56510D03*
D215*
X299161Y56574D03*
D556*
X289699Y56574D03*
D116*
X282365Y56574D03*
D338*
X277031Y56574D03*
D223*
X269474Y56574D03*
D217*
X263918Y56574D03*
D124*
X259124Y56574D03*
D81*
X299192Y56637D03*
D122*
X289668Y56637D03*
D101*
X282333Y56637D03*
D272*
X277158Y56637D03*
D519*
X269633Y56637D03*
D82*
X263886Y56637D03*
D266*
X259188Y56637D03*
D216*
X299224Y56701D03*
D334*
X289668Y56701D03*
D557*
X282333Y56701D03*
D283*
X277317Y56701D03*
D141*
X269760Y56701D03*
D203*
X263886Y56701D03*
D558*
X259219Y56701D03*
D213*
X299256Y56764D03*
D131*
X289699Y56764D03*
D101*
X282333Y56764D03*
D300*
X277444Y56764D03*
D251*
X269887Y56764D03*
D39*
X263855Y56764D03*
D71*
X259283Y56764D03*
D215*
X299288Y56828D03*
D559*
X289667Y56828D03*
D557*
X282333Y56828D03*
D468*
X277602Y56828D03*
D345*
X270078Y56828D03*
D117*
X263823Y56828D03*
D274*
X259410Y56828D03*
D213*
X299320Y56891D03*
D138*
X289699Y56891D03*
D101*
X282333Y56891D03*
D398*
X277729Y56891D03*
D560*
X270205Y56891D03*
D90*
X263823Y56891D03*
D478*
X259473Y56891D03*
D221*
X299383Y56955D03*
D319*
X289731Y56955D03*
D557*
X282333Y56955D03*
D259*
X277856Y56955D03*
D561*
X270364Y56955D03*
D117*
X263760Y56955D03*
D73*
X259600Y56955D03*
D213*
X299383Y57018D03*
D330*
X289731Y57018D03*
D101*
X282333Y57018D03*
D562*
X278079Y57018D03*
D402*
X270491Y57018D03*
D106*
X263696Y57018D03*
D230*
X259664Y57018D03*
D221*
X299447Y57082D03*
D563*
X289826Y57082D03*
D557*
X282333Y57082D03*
D201*
X278333Y57082D03*
D564*
X270649Y57082D03*
D229*
X263601Y57082D03*
D215*
X259791Y57082D03*
D213*
X299447Y57145D03*
D160*
X289858Y57145D03*
D79*
X282301Y57145D03*
D230*
X278587Y57145D03*
D470*
X270776Y57145D03*
D68*
X263378Y57145D03*
D20*
X261950Y57145D03*
D225*
X259949Y57145D03*
D221*
X299510Y57209D03*
D168*
X289922Y57209D03*
D104*
X282301Y57209D03*
D48*
X278809Y57209D03*
D565*
X270903Y57209D03*
D355*
X261378Y57209D03*
D212*
X299542Y57272D03*
D299*
X289953Y57272D03*
D79*
X282301Y57272D03*
D240*
X279000Y57272D03*
D136*
X271094Y57272D03*
D135*
X261378Y57272D03*
D33*
X302463Y57336D03*
D216*
X299605Y57336D03*
D566*
X290017Y57336D03*
D104*
X282301Y57336D03*
D557*
X279158Y57336D03*
D355*
X271284Y57336D03*
D294*
X261410Y57336D03*
D33*
X256362Y57336D03*
D187*
X302304Y57399D03*
D81*
X299637Y57399D03*
D153*
X290080Y57399D03*
D79*
X282301Y57399D03*
D82*
X279380Y57399D03*
D174*
X271443Y57399D03*
D285*
X261410Y57399D03*
D40*
X256394Y57399D03*
D191*
X302272Y57463D03*
D567*
X299669Y57463D03*
D93*
X290112Y57463D03*
D104*
X282301Y57463D03*
D74*
X279603Y57463D03*
D196*
X271570Y57463D03*
D133*
X261442Y57463D03*
D43*
X256425Y57463D03*
D20*
X304114Y57526D03*
D473*
X302336Y57526D03*
D228*
X299732Y57526D03*
D88*
X290112Y57526D03*
D79*
X282301Y57526D03*
D70*
X279857Y57526D03*
D153*
X271792Y57526D03*
D568*
X261442Y57526D03*
D25*
X256457Y57526D03*
D21*
X304146Y57590D03*
D231*
X302336Y57590D03*
D234*
X299764Y57590D03*
D110*
X290080Y57590D03*
D104*
X282301Y57590D03*
D298*
X271983Y57590D03*
D302*
X261474Y57590D03*
D27*
X256521Y57590D03*
D40*
X304146Y57653D03*
D569*
X300685Y57653D03*
D89*
X290017Y57653D03*
D79*
X282301Y57653D03*
D160*
X272141Y57653D03*
D425*
X261473Y57653D03*
D58*
X256552Y57653D03*
D21*
X304209Y57717D03*
D404*
X300780Y57717D03*
D93*
X289985Y57717D03*
D479*
X282270Y57717D03*
D316*
X272300Y57717D03*
D383*
X261474Y57717D03*
D31*
X256584Y57717D03*
D40*
X304209Y57780D03*
D402*
X300844Y57780D03*
D555*
X289953Y57780D03*
D501*
X282270Y57780D03*
D324*
X272427Y57780D03*
D158*
X261473Y57780D03*
D96*
X256648Y57780D03*
D23*
X304209Y57844D03*
D404*
X300907Y57844D03*
D570*
X289890Y57844D03*
D479*
X282270Y57844D03*
D571*
X272618Y57844D03*
D394*
X261537Y57844D03*
D36*
X256648Y57844D03*
D72*
X304177Y57907D03*
D402*
X300971Y57907D03*
D113*
X289858Y57907D03*
D501*
X282270Y57907D03*
D457*
X272935Y57907D03*
D398*
X261537Y57907D03*
D38*
X256679Y57907D03*
D27*
X304146Y57971D03*
D572*
X301066Y57971D03*
D110*
X289826Y57971D03*
D479*
X282270Y57971D03*
D119*
X273221Y57971D03*
D404*
X261537Y57971D03*
D247*
X256743Y57971D03*
D57*
X304146Y58034D03*
D458*
X301129Y58034D03*
D89*
X289763Y58034D03*
D501*
X282270Y58034D03*
D573*
X273475Y58034D03*
D458*
X261505Y58034D03*
D187*
X256774Y58034D03*
D64*
X304114Y58098D03*
D572*
X301193Y58098D03*
D196*
X289731Y58098D03*
D479*
X282270Y58098D03*
D574*
X273729Y58098D03*
D259*
X261473Y58098D03*
D44*
X256806Y58098D03*
D575*
X301542Y58161D03*
D113*
X289731Y58161D03*
D501*
X282270Y58161D03*
D499*
X273856Y58161D03*
D151*
X261442Y58161D03*
D26*
X256838Y58161D03*
D387*
X301574Y58225D03*
D196*
X289667Y58225D03*
D479*
X282270Y58225D03*
D102*
X273920Y58225D03*
D576*
X261442Y58225D03*
D275*
X256870Y58225D03*
D577*
X301637Y58288D03*
D578*
X289636Y58288D03*
D114*
X282238Y58288D03*
D579*
X273951Y58288D03*
D258*
X261410Y58288D03*
D69*
X256901Y58288D03*
D277*
X302780Y58352D03*
D103*
X299923Y58352D03*
D143*
X289604Y58352D03*
D84*
X282238Y58352D03*
D543*
X273951Y58352D03*
D256*
X261378Y58352D03*
D191*
X256933Y58352D03*
D55*
X302844Y58415D03*
D39*
X299923Y58415D03*
D183*
X289572Y58415D03*
D114*
X282238Y58415D03*
D579*
X273951Y58415D03*
D348*
X261347Y58415D03*
D281*
X256933Y58415D03*
D558*
X302907Y58479D03*
D200*
X299923Y58479D03*
D143*
X289541Y58479D03*
D111*
X282206Y58479D03*
D102*
X273920Y58479D03*
D580*
X261315Y58479D03*
D118*
X256965Y58479D03*
D266*
X302939Y58542D03*
D82*
X299891Y58542D03*
D263*
X289509Y58542D03*
D114*
X282175Y58542D03*
D581*
X273888Y58542D03*
D582*
X261251Y58542D03*
D47*
X257029Y58542D03*
D125*
X302971Y58606D03*
D37*
X299923Y58606D03*
D265*
X289509Y58606D03*
D84*
X282175Y58606D03*
D528*
X273856Y58606D03*
D61*
X261759Y58606D03*
D77*
X259473Y58606D03*
D304*
X257060Y58606D03*
D236*
X303034Y58669D03*
D59*
X299955Y58669D03*
D174*
X289477Y58669D03*
D114*
X282175Y58669D03*
D544*
X273793Y58669D03*
D80*
X261791Y58669D03*
D524*
X259473Y58669D03*
D239*
X257060Y58669D03*
D84*
X303066Y58733D03*
D62*
X299955Y58733D03*
D178*
X289445Y58733D03*
D546*
X282143Y58733D03*
D107*
X273697Y58733D03*
D111*
X261759Y58733D03*
D77*
X259473Y58733D03*
D242*
X257092Y58733D03*
D79*
X303129Y58796D03*
D59*
X299955Y58796D03*
D268*
X289414Y58796D03*
D488*
X282143Y58796D03*
D583*
X273634Y58796D03*
D35*
X261918Y58796D03*
D524*
X259473Y58796D03*
D473*
X257124Y58796D03*
D108*
X303161Y58860D03*
D217*
X299986Y58860D03*
D140*
X289382Y58860D03*
D84*
X282111Y58860D03*
D584*
X273570Y58860D03*
D142*
X261981Y58860D03*
D63*
X259442Y58860D03*
D260*
X257124Y58860D03*
D82*
X303193Y58923D03*
D59*
X300018Y58923D03*
D272*
X289350Y58923D03*
D474*
X282079Y58923D03*
D152*
X273507Y58923D03*
D26*
X259442Y58923D03*
D238*
X257156Y58923D03*
D237*
X303225Y58987D03*
D37*
X300050Y58987D03*
D276*
X289350Y58987D03*
D54*
X283984Y58987D03*
D65*
X282079Y58987D03*
D156*
X273411Y58987D03*
D63*
X259442Y58987D03*
D32*
X257156Y58987D03*
D47*
X303257Y59050D03*
D534*
X300113Y59050D03*
D278*
X289350Y59050D03*
D25*
X284079Y59050D03*
D474*
X282079Y59050D03*
D159*
X273285Y59050D03*
D26*
X259442Y59050D03*
D311*
X257187Y59050D03*
D247*
X303225Y59114D03*
D103*
X300177Y59114D03*
D276*
X289287Y59114D03*
D27*
X284143Y59114D03*
D182*
X282047Y59114D03*
D162*
X273221Y59114D03*
D63*
X259442Y59114D03*
D52*
X257187Y59114D03*
D45*
X300240Y59177D03*
D268*
X289096Y59177D03*
D96*
X284270Y59177D03*
D68*
X282047Y59177D03*
D585*
X273094Y59177D03*
D469*
X259410Y59177D03*
D35*
X257219Y59177D03*
D104*
X300335Y59241D03*
D586*
X288874Y59241D03*
D63*
X284397Y59241D03*
D546*
X282016Y59241D03*
D119*
X273030Y59241D03*
D63*
X259378Y59241D03*
D53*
X257219Y59241D03*
D128*
X300367Y59304D03*
D199*
X288175Y59304D03*
D68*
X281984Y59304D03*
D587*
X272935Y59304D03*
D26*
X259378Y59304D03*
D210*
X257251Y59304D03*
D546*
X300431Y59368D03*
D563*
X288175Y59368D03*
D182*
X281984Y59368D03*
D588*
X272808Y59368D03*
D63*
X259378Y59368D03*
D231*
X257251Y59368D03*
D59*
X300907Y59431D03*
D56*
X299605Y59431D03*
D169*
X288175Y59431D03*
D68*
X281984Y59431D03*
D253*
X279285Y59431D03*
D589*
X272713Y59431D03*
D524*
X259346Y59431D03*
D227*
X257314Y59431D03*
D217*
X301002Y59495D03*
D44*
X299605Y59495D03*
D166*
X288175Y59495D03*
D75*
X281952Y59495D03*
D275*
X279222Y59495D03*
D342*
X272618Y59495D03*
D77*
X259346Y59495D03*
D144*
X257314Y59495D03*
D195*
X301002Y59558D03*
D26*
X299574Y59558D03*
D164*
X288175Y59558D03*
D68*
X281920Y59558D03*
D47*
X279190Y59558D03*
D552*
X272522Y59558D03*
D26*
X259315Y59558D03*
D59*
X257346Y59558D03*
D37*
X301066Y59622D03*
D77*
X299605Y59622D03*
D305*
X288175Y59622D03*
D194*
X281889Y59622D03*
D241*
X279158Y59622D03*
D590*
X272427Y59622D03*
D275*
X259283Y59622D03*
D62*
X257346Y59622D03*
D195*
X301129Y59685D03*
D524*
X299605Y59685D03*
D299*
X288175Y59685D03*
D121*
X281889Y59685D03*
D192*
X279095Y59685D03*
D591*
X272300Y59685D03*
D529*
X259283Y59685D03*
D220*
X257378Y59685D03*
D37*
X301193Y59749D03*
D279*
X299637Y59749D03*
D318*
X288207Y59749D03*
D66*
X281857Y59749D03*
D144*
X279031Y59749D03*
D592*
X272205Y59749D03*
D279*
X259251Y59749D03*
D37*
X257378Y59749D03*
D82*
X301224Y59812D03*
D281*
X299605Y59812D03*
D186*
X288239Y59812D03*
D240*
X281794Y59812D03*
D82*
X278999Y59812D03*
D122*
X272078Y59812D03*
D281*
X259219Y59812D03*
D220*
X257378Y59812D03*
D217*
X301256Y59876D03*
D118*
X299637Y59876D03*
D593*
X288239Y59876D03*
D66*
X281794Y59876D03*
D42*
X278904Y59876D03*
D559*
X271951Y59876D03*
D279*
X259187Y59876D03*
D203*
X257409Y59876D03*
D220*
X301320Y59939D03*
D239*
X299605Y59939D03*
D555*
X288302Y59939D03*
D240*
X281794Y59939D03*
D97*
X278809Y59939D03*
D594*
X271856Y59939D03*
D188*
X259156Y59939D03*
D82*
X257409Y59939D03*
D37*
X301320Y60003D03*
D304*
X299605Y60003D03*
D83*
X288302Y60003D03*
D125*
X281762Y60003D03*
D99*
X278714Y60003D03*
D321*
X271729Y60003D03*
D118*
X259124Y60003D03*
D87*
X257441Y60003D03*
D59*
X301352Y60066D03*
D30*
X299637Y60066D03*
D174*
X288334Y60066D03*
D181*
X281762Y60066D03*
D488*
X278587Y60066D03*
D595*
X271602Y60066D03*
D47*
X259061Y60066D03*
D534*
X257441Y60066D03*
D217*
X301383Y60130D03*
D241*
X299605Y60130D03*
D140*
X288366Y60130D03*
D248*
X281698Y60130D03*
D66*
X278492Y60130D03*
D177*
X271443Y60130D03*
D61*
X258076Y60130D03*
D59*
X301415Y60193D03*
D184*
X299605Y60193D03*
D363*
X288366Y60193D03*
D250*
X281698Y60193D03*
D130*
X278396Y60193D03*
D322*
X271316Y60193D03*
D176*
X258076Y60193D03*
D62*
X301479Y60257D03*
D32*
X299637Y60257D03*
D294*
X288397Y60257D03*
D255*
X281666Y60257D03*
D48*
X278301Y60257D03*
D166*
X271157Y60257D03*
D48*
X258044Y60257D03*
D59*
X301479Y60320D03*
D238*
X299637Y60320D03*
D285*
X288398Y60320D03*
D264*
X281635Y60320D03*
D478*
X278142Y60320D03*
D164*
X271030Y60320D03*
D273*
X258044Y60320D03*
D62*
X301542Y60384D03*
D52*
X299605Y60384D03*
D133*
X288366Y60384D03*
D255*
X281603Y60384D03*
D234*
X278047Y60384D03*
D193*
X270871Y60384D03*
D85*
X258013Y60384D03*
D59*
X301606Y60447D03*
D311*
X299605Y60447D03*
D287*
X288302Y60447D03*
D130*
X281571Y60447D03*
D213*
X277920Y60447D03*
D596*
X270713Y60447D03*
D501*
X262331Y60447D03*
D71*
X258013Y60447D03*
D62*
X301669Y60511D03*
D52*
X299605Y60511D03*
D292*
X288270Y60511D03*
D536*
X281571Y60511D03*
D207*
X277793Y60511D03*
D597*
X270554Y60511D03*
D65*
X262140Y60511D03*
D124*
X257981Y60511D03*
D40*
X303574Y60574D03*
D39*
X301828Y60574D03*
D35*
X299637Y60574D03*
D568*
X288239Y60574D03*
D264*
X281508Y60574D03*
D293*
X277698Y60574D03*
D327*
X270363Y60574D03*
D236*
X261886Y60574D03*
D266*
X257981Y60574D03*
D75*
X302272Y60638D03*
D53*
X299637Y60638D03*
D372*
X288175Y60638D03*
D261*
X281508Y60638D03*
D288*
X277571Y60638D03*
D93*
X270173Y60638D03*
D255*
X261664Y60638D03*
D124*
X257981Y60638D03*
D488*
X302336Y60701D03*
D35*
X299637Y60701D03*
D377*
X288144Y60701D03*
D266*
X281476Y60701D03*
D218*
X277412Y60701D03*
D113*
X269982Y60701D03*
D264*
X261442Y60701D03*
D130*
X257949Y60701D03*
D479*
X302336Y60765D03*
D53*
X299637Y60765D03*
D302*
X288080Y60765D03*
D558*
X281444Y60765D03*
D345*
X277317Y60765D03*
D83*
X269760Y60765D03*
D558*
X261251Y60765D03*
D536*
X257949Y60765D03*
D554*
X302336Y60828D03*
D35*
X299637Y60828D03*
D378*
X288048Y60828D03*
D71*
X281381Y60828D03*
D175*
X277190Y60828D03*
D174*
X269538Y60828D03*
D273*
X261029Y60828D03*
D80*
X257917Y60828D03*
D229*
X302336Y60892D03*
D32*
X299637Y60892D03*
D598*
X287985Y60892D03*
D48*
X281349Y60892D03*
D599*
X277063Y60892D03*
D269*
X269284Y60892D03*
D380*
X259441Y60892D03*
D90*
X302368Y60955D03*
D238*
X299637Y60955D03*
D425*
X287953Y60955D03*
D176*
X281317Y60955D03*
D600*
X276872Y60955D03*
D363*
X269062Y60955D03*
D470*
X259346Y60955D03*
D203*
X302367Y61019D03*
D32*
X299637Y61019D03*
D139*
X287921Y61019D03*
D601*
X281286Y61019D03*
D572*
X276682Y61019D03*
D280*
X268808Y61019D03*
D421*
X259283Y61019D03*
D227*
X302399Y61082D03*
D184*
X299605Y61082D03*
D575*
X287890Y61082D03*
D67*
X281222Y61082D03*
D398*
X276459Y61082D03*
D290*
X268522Y61082D03*
D392*
X259188Y61082D03*
D53*
X302431Y61146D03*
D241*
X299605Y61146D03*
D387*
X287858Y61146D03*
D277*
X281190Y61146D03*
D394*
X276269Y61146D03*
D565*
X268236Y61146D03*
D418*
X259156Y61146D03*
D30*
X302431Y61209D03*
D239*
X299605Y61209D03*
D158*
X287826Y61209D03*
D245*
X281158Y61209D03*
D575*
X276079Y61209D03*
D470*
X267982Y61209D03*
D460*
X259092Y61209D03*
D279*
X302431Y61273D03*
D304*
X299605Y61273D03*
D27*
X293605Y61273D03*
D390*
X287794Y61273D03*
D54*
X283222Y61273D03*
D243*
X281127Y61273D03*
D139*
X275856Y61273D03*
D564*
X267728Y61273D03*
D259*
X258997Y61273D03*
D70*
X302463Y61336D03*
D281*
X299605Y61336D03*
D56*
X293382Y61336D03*
D466*
X287731Y61336D03*
D25*
X283254Y61336D03*
D137*
X281063Y61336D03*
D300*
X275666Y61336D03*
D145*
X267316Y61336D03*
X258934Y61336D03*
D279*
X299637Y61400D03*
D63*
X293287Y61400D03*
D394*
X287699Y61400D03*
D27*
X283318Y61400D03*
D234*
X281032Y61400D03*
D302*
X275444Y61400D03*
D252*
X266776Y61400D03*
D602*
X258870Y61400D03*
D529*
X299669Y61463D03*
D188*
X293192Y61463D03*
D396*
X287667Y61463D03*
D70*
X283413Y61463D03*
D230*
X281000Y61463D03*
D374*
X275221Y61463D03*
D213*
X266236Y61463D03*
D603*
X258838Y61463D03*
D279*
X299700Y61527D03*
D118*
X293097Y61527D03*
D155*
X287635Y61527D03*
D49*
X283476Y61527D03*
D223*
X280904Y61527D03*
D161*
X274999Y61527D03*
D234*
X265792Y61527D03*
D580*
X258775Y61527D03*
D26*
X299764Y61590D03*
D184*
X293001Y61590D03*
D604*
X287604Y61590D03*
D26*
X283572Y61590D03*
D213*
X280841Y61590D03*
D278*
X274682Y61590D03*
D240*
X265093Y61590D03*
D582*
X258711Y61590D03*
D41*
X299796Y61654D03*
D32*
X292906Y61654D03*
D400*
X287604Y61654D03*
D28*
X283667Y61654D03*
D207*
X280777Y61654D03*
D267*
X274396Y61654D03*
D229*
X264617Y61654D03*
D605*
X258616Y61654D03*
D469*
X299923Y61717D03*
D238*
X292843Y61717D03*
D402*
X287572Y61717D03*
D30*
X283762Y61717D03*
D519*
X280682Y61717D03*
D113*
X274046Y61717D03*
D220*
X264236Y61717D03*
D251*
X258584Y61717D03*
D142*
X300018Y61781D03*
D53*
X292779Y61781D03*
D429*
X287540Y61781D03*
D237*
X283921Y61781D03*
D201*
X280619Y61781D03*
D313*
X273570Y61781D03*
D260*
X263855Y61781D03*
D288*
X258521Y61781D03*
D469*
X300177Y61844D03*
D210*
X292684Y61844D03*
D336*
X286651Y61844D03*
D339*
X280492Y61844D03*
D173*
X273126Y61844D03*
D469*
X263474Y61844D03*
D206*
X258489Y61844D03*
D142*
X300272Y61908D03*
D144*
X292620Y61908D03*
D338*
X286619Y61908D03*
D606*
X280428Y61908D03*
D559*
X272713Y61908D03*
D44*
X263283Y61908D03*
D209*
X258426Y61908D03*
D72*
X300367Y61971D03*
D59*
X292589Y61971D03*
D180*
X286651Y61971D03*
D607*
X280301Y61971D03*
D179*
X272300Y61971D03*
D38*
X263029Y61971D03*
D284*
X258394Y61971D03*
D62*
X292525Y62035D03*
D178*
X286651Y62035D03*
D608*
X280206Y62035D03*
D609*
X271919Y62035D03*
D36*
X262807Y62035D03*
D214*
X258330Y62035D03*
D195*
X292493Y62098D03*
D308*
X286651Y62098D03*
D175*
X280111Y62098D03*
D548*
X271570Y62098D03*
D34*
X262553Y62098D03*
D212*
X258267Y62098D03*
D37*
X292430Y62162D03*
D271*
X286683Y62162D03*
D610*
X280016Y62162D03*
D115*
X271126Y62162D03*
D50*
X262267Y62162D03*
D216*
X258203Y62162D03*
D195*
X292366Y62225D03*
D363*
X286715Y62225D03*
D258*
X279888Y62225D03*
D100*
X270713Y62225D03*
D81*
X258171Y62225D03*
D217*
X292366Y62289D03*
D276*
X286683Y62289D03*
D561*
X279762Y62289D03*
D611*
X270395Y62289D03*
D567*
X258140Y62289D03*
D220*
X292303Y62352D03*
D612*
X286715Y62352D03*
D613*
X279666Y62352D03*
D517*
X270078Y62352D03*
D137*
X258076Y62352D03*
D203*
X292271Y62416D03*
D614*
X286778Y62416D03*
D572*
X279603Y62416D03*
D522*
X269856Y62416D03*
D246*
X258044Y62416D03*
D195*
X292239Y62479D03*
D287*
X286778Y62479D03*
D569*
X279476Y62479D03*
D615*
X269633Y62479D03*
D67*
X257981Y62479D03*
D37*
X292176Y62543D03*
D292*
X286810Y62543D03*
D404*
X279381Y62543D03*
D616*
X269411Y62543D03*
D61*
X257949Y62543D03*
D82*
X292144Y62606D03*
D568*
X286842Y62606D03*
D460*
X279285Y62606D03*
D617*
X269189Y62606D03*
D71*
X257886Y62606D03*
D200*
X292049Y62670D03*
D565*
X286905Y62670D03*
D155*
X279190Y62670D03*
D618*
X268998Y62670D03*
D124*
X257854Y62670D03*
D90*
X292017Y62733D03*
D425*
X286937Y62733D03*
D398*
X279063Y62733D03*
D619*
X268776Y62733D03*
D130*
X257822Y62733D03*
D117*
X291954Y62797D03*
D383*
X287001Y62797D03*
D418*
X278968Y62797D03*
D620*
X268617Y62797D03*
D125*
X257759Y62797D03*
D106*
X291890Y62860D03*
D158*
X287064Y62860D03*
D398*
X278809Y62860D03*
D621*
X268935Y62860D03*
D240*
X257727Y62860D03*
D104*
X291763Y62924D03*
D468*
X287191Y62924D03*
D400*
X278714Y62924D03*
D522*
X268967Y62924D03*
D182*
X257663Y62924D03*
D199*
X288683Y62987D03*
D402*
X278555Y62987D03*
D540*
X268998Y62987D03*
D563*
X288683Y63051D03*
D404*
X278428Y63051D03*
D622*
X269062Y63051D03*
D84*
X257537Y63051D03*
D199*
X288683Y63114D03*
D402*
X278301Y63114D03*
D579*
X269125Y63114D03*
D501*
X257505Y63114D03*
D325*
X288620Y63178D03*
D429*
X278142Y63178D03*
D497*
X269189Y63178D03*
D557*
X257441Y63178D03*
D173*
X288620Y63241D03*
D623*
X278047Y63241D03*
D624*
X269252Y63241D03*
D97*
X257410Y63241D03*
D325*
X288620Y63305D03*
D625*
X277888Y63305D03*
D626*
X269252Y63305D03*
D229*
X257378Y63305D03*
D173*
X288620Y63368D03*
D145*
X277793Y63368D03*
D627*
X269252Y63368D03*
D106*
X257346Y63368D03*
D325*
X288620Y63432D03*
D561*
X277666Y63432D03*
D628*
X269284Y63432D03*
D42*
X257314Y63432D03*
D314*
X288588Y63495D03*
D145*
X277539Y63495D03*
D629*
X269252Y63495D03*
D39*
X257251Y63495D03*
D177*
X288588Y63559D03*
D148*
X277380Y63559D03*
D588*
X269252Y63559D03*
D87*
X257187Y63559D03*
D333*
X288620Y63622D03*
D258*
X277285Y63622D03*
D457*
X269252Y63622D03*
D82*
X257155Y63622D03*
D630*
X288620Y63686D03*
D602*
X277158Y63686D03*
D455*
X269252Y63686D03*
D37*
X257124Y63686D03*
D330*
X288588Y63749D03*
D560*
X277063Y63749D03*
D591*
X269252Y63749D03*
D59*
X257092Y63749D03*
D202*
X288588Y63813D03*
D599*
X276936Y63813D03*
D556*
X269252Y63813D03*
D62*
X257029Y63813D03*
D595*
X288620Y63876D03*
D560*
X276809Y63876D03*
D332*
X269220Y63876D03*
D210*
X256997Y63876D03*
D44*
X292493Y63940D03*
D190*
X288048Y63940D03*
D610*
X276650Y63940D03*
D319*
X269220Y63940D03*
D53*
X256965Y63940D03*
D38*
X292620Y64003D03*
D631*
X287921Y64003D03*
D175*
X276555Y64003D03*
D333*
X269189Y64003D03*
D311*
X256933Y64003D03*
D154*
X292684Y64067D03*
D49*
X291096Y64067D03*
D383*
X287128Y64067D03*
D580*
X276428Y64067D03*
D325*
X269189Y64067D03*
D32*
X256902Y64067D03*
D57*
X292779Y64130D03*
X291128Y64130D03*
D158*
X287064Y64130D03*
D175*
X276301Y64130D03*
D160*
X269157Y64130D03*
D473*
X256870Y64130D03*
D50*
X292874Y64194D03*
D54*
X291096Y64194D03*
D468*
X287000Y64194D03*
D632*
X276237Y64194D03*
D305*
X269125Y64194D03*
D241*
X256806Y64194D03*
D22*
X292938Y64257D03*
D466*
X286969Y64257D03*
D633*
X276110Y64257D03*
D147*
X269157Y64257D03*
D30*
X256774Y64257D03*
D21*
X296589Y64321D03*
X293287Y65083D03*
D394*
X287001Y64321D03*
D632*
X275983Y64321D03*
D190*
X269125Y64321D03*
D74*
X256743Y64321D03*
D22*
X296621Y64384D03*
D577*
X287032Y64384D03*
D633*
X275856Y64384D03*
D327*
X269093Y64384D03*
D47*
X256711Y64384D03*
D50*
X296684Y64448D03*
D387*
X287096Y64448D03*
D254*
X275761Y64448D03*
D93*
X269094Y64448D03*
D191*
X256679Y64448D03*
D29*
X296748Y64511D03*
D634*
X287159Y64511D03*
D428*
X275634Y64511D03*
D578*
X269062Y64511D03*
D69*
X256647Y64511D03*
D24*
X296811Y64575D03*
D598*
X287223Y64575D03*
D254*
X275507Y64575D03*
D338*
X269030Y64575D03*
D279*
X256584Y64575D03*
D70*
X296875Y64638D03*
D374*
X287286Y64638D03*
D562*
X275412Y64638D03*
D180*
X268998Y64638D03*
D524*
X256552Y64638D03*
D36*
X296907Y64702D03*
D161*
X287382Y64702D03*
D345*
X275285Y64702D03*
D271*
X268966Y64702D03*
D63*
X256521Y64702D03*
D187*
X296970Y64765D03*
D612*
X287477Y64765D03*
D562*
X275158Y64765D03*
D612*
X268935Y64765D03*
D469*
X256489Y64765D03*
D41*
X297002Y64829D03*
D271*
X287572Y64829D03*
D23*
X283063Y64829D03*
D608*
X275063Y64829D03*
D161*
X268903Y64829D03*
D44*
X256425Y64829D03*
D26*
X297034Y64892D03*
D263*
X287731Y64892D03*
D253*
X283222Y64892D03*
D198*
X274936Y64892D03*
D290*
X268903Y64892D03*
D187*
X256393Y64892D03*
D279*
X297097Y64956D03*
D62*
X293478Y64956D03*
D307*
X287921Y64956D03*
D63*
X283381Y64956D03*
D608*
X274872Y64956D03*
D565*
X268871Y64956D03*
D247*
X256362Y64956D03*
D188*
X297129Y65019D03*
D120*
X289668Y65019D03*
D635*
X283540Y65019D03*
D198*
X274745Y65019D03*
D297*
X268808Y65019D03*
D96*
X256330Y65019D03*
D304*
X297192Y65083D03*
D522*
X289223Y65083D03*
D608*
X274618Y65083D03*
D468*
X268776Y65083D03*
D36*
X256267Y65083D03*
D30*
X297224Y65146D03*
D539*
X289350Y65146D03*
D343*
X274523Y65146D03*
D577*
X268744Y65146D03*
D96*
X256267Y65146D03*
D32*
X297288Y65210D03*
D636*
X289509Y65210D03*
D252*
X274396Y65210D03*
D418*
X268681Y65210D03*
D154*
X256235Y65210D03*
D35*
X297287Y65273D03*
D637*
X289699Y65273D03*
D218*
X274300Y65273D03*
D402*
X268649Y65273D03*
D34*
X256203Y65273D03*
D638*
X290525Y65337D03*
D639*
X274205Y65337D03*
D429*
X268617Y65337D03*
D31*
X256139Y65337D03*
D640*
X290620Y65400D03*
D607*
X274078Y65400D03*
D151*
X268554Y65400D03*
D29*
X256108Y65400D03*
D234*
X296589Y65464D03*
D528*
X288778Y65464D03*
D605*
X273983Y65464D03*
D602*
X268522Y65464D03*
D27*
X256076Y65464D03*
D80*
X296970Y65527D03*
D641*
X288366Y65527D03*
D343*
X273888Y65527D03*
D603*
X268490Y65527D03*
D72*
X256044Y65527D03*
D182*
X297224Y65591D03*
D588*
X288175Y65591D03*
D605*
X273792Y65591D03*
D254*
X268458Y65591D03*
D51*
X255981Y65591D03*
D79*
X297414Y65654D03*
D38*
X292493Y65654D03*
D578*
X286842Y65654D03*
D218*
X273665Y65654D03*
D198*
X268395Y65654D03*
D25*
X255949Y65654D03*
D104*
X297478Y65718D03*
D83*
X286905Y65718D03*
D605*
X273538Y65718D03*
D639*
X268363Y65718D03*
D43*
X255917Y65718D03*
D114*
X297478Y65781D03*
D113*
X287000Y65781D03*
D607*
X273443Y65781D03*
D642*
X268300Y65781D03*
D40*
X255886Y65781D03*
D182*
X297541Y65845D03*
D196*
X287064Y65845D03*
D605*
X273348Y65845D03*
D86*
X268268Y65845D03*
D33*
X255854Y65845D03*
D240*
X297542Y65908D03*
D183*
X287159Y65908D03*
D218*
X273221Y65908D03*
D204*
X268205Y65908D03*
D643*
G36*
X255835Y65905D02*
X255787Y65863D01*
X255745Y65911D01*
X255793Y65953D01*
X255835Y65905D01*
G37*
D248*
X297573Y65972D03*
D41*
X293192Y65972D03*
D586*
X287223Y65972D03*
D605*
X273094Y65972D03*
D244*
X268173Y65972D03*
D80*
X297605Y66035D03*
D69*
X293160Y66035D03*
D113*
X287381Y66035D03*
D218*
X273030Y66035D03*
D291*
X268109Y66035D03*
D124*
X297605Y66099D03*
D242*
X293160Y66099D03*
D196*
X287508Y66099D03*
D639*
X272935Y66099D03*
D223*
X268077Y66099D03*
D55*
X297637Y66162D03*
D35*
X293160Y66162D03*
D78*
X287699Y66162D03*
D607*
X272808Y66162D03*
D230*
X268046Y66162D03*
D76*
X297637Y66226D03*
D144*
X293128Y66226D03*
D265*
X287858Y66226D03*
D605*
X272713Y66226D03*
D73*
X267982Y66226D03*
D257*
X297637Y66289D03*
D195*
X293128Y66289D03*
D78*
X287953Y66289D03*
D343*
X272618Y66289D03*
D129*
X267919Y66289D03*
D567*
X297637Y66353D03*
D342*
X289255Y66353D03*
D605*
X272522Y66353D03*
D274*
X267919Y66353D03*
D235*
X297732Y66416D03*
D457*
X289318Y66416D03*
D607*
X272427Y66416D03*
D270*
X267855Y66416D03*
D246*
X297859Y66480D03*
D189*
X289318Y66480D03*
D639*
X272300Y66480D03*
D124*
X267824Y66480D03*
D55*
X298018Y66543D03*
D185*
X289382Y66543D03*
D343*
X272237Y66543D03*
D80*
X267760Y66543D03*
D124*
X298177Y66607D03*
D132*
X289413Y66607D03*
D252*
X272110Y66607D03*
D248*
X267728Y66607D03*
D181*
X298399Y66670D03*
D589*
X289413Y66670D03*
D343*
X271983Y66670D03*
D121*
X267665Y66670D03*
D84*
X298558Y66734D03*
D132*
X289477Y66734D03*
D639*
X271919Y66734D03*
D182*
X267633Y66734D03*
D101*
X298716Y66797D03*
D589*
X289540Y66797D03*
D198*
X271824Y66797D03*
D114*
X267570Y66797D03*
D94*
X298875Y66861D03*
D132*
X289540Y66861D03*
D608*
X271697Y66861D03*
D479*
X267538Y66861D03*
D39*
X299034Y66924D03*
D589*
X289604Y66924D03*
D198*
X271634Y66924D03*
D101*
X267474Y66924D03*
D62*
X299193Y66988D03*
D132*
X289667Y66988D03*
D608*
X271507Y66988D03*
D116*
X267443Y66988D03*
D311*
X299351Y67051D03*
D457*
X289699Y67051D03*
D198*
X271443Y67051D03*
D106*
X267379Y67051D03*
D241*
X299478Y67115D03*
D342*
X289763Y67115D03*
D608*
X271316Y67115D03*
D42*
X267347Y67115D03*
D281*
X299605Y67178D03*
D589*
X289794Y67178D03*
D562*
X271221Y67178D03*
D90*
X267316Y67178D03*
D77*
X299732Y67242D03*
D189*
X289826Y67242D03*
D608*
X271126Y67242D03*
D203*
X267252Y67242D03*
D56*
X299859Y67305D03*
D185*
X289890Y67305D03*
D198*
X271062Y67305D03*
D195*
X267220Y67305D03*
D49*
X299986Y67369D03*
D86*
X292715Y67369D03*
D418*
X287858Y67369D03*
D605*
X270998Y67369D03*
D37*
X267157Y67369D03*
D253*
X300113Y67432D03*
D293*
X292811Y67432D03*
D398*
X287889Y67432D03*
D531*
X270999Y67432D03*
D227*
X267093Y67432D03*
D109*
X300240Y67496D03*
D141*
X292874Y67496D03*
D459*
X287921Y67496D03*
D86*
X270935Y67496D03*
D53*
X267061Y67496D03*
D72*
X300367Y67559D03*
D206*
X292906Y67559D03*
D402*
X287953Y67559D03*
D204*
X270935Y67559D03*
D311*
X266966Y67559D03*
D23*
X300462Y67623D03*
D86*
X292969Y67623D03*
D404*
X287953Y67623D03*
D286*
X270903Y67623D03*
D32*
X266935Y67623D03*
D20*
X300558Y67686D03*
D339*
X293065Y67686D03*
D569*
X287985Y67686D03*
D211*
X270840Y67686D03*
D473*
X266903Y67686D03*
D644*
X293128Y67750D03*
D625*
X288048Y67750D03*
D215*
X270840Y67750D03*
D241*
X266839Y67750D03*
D531*
X293224Y67813D03*
D145*
X288080Y67813D03*
D228*
X270776Y67813D03*
D635*
X266776Y67813D03*
D222*
X293287Y67877D03*
D576*
X288112Y67877D03*
D234*
X270745Y67877D03*
D118*
X266744Y67877D03*
D251*
X293382Y67940D03*
D258*
X288143Y67940D03*
D257*
X270713Y67940D03*
D281*
X266712Y67940D03*
D252*
X293446Y68004D03*
D610*
X288207Y68004D03*
D601*
X270681Y68004D03*
D28*
X266649Y68004D03*
D582*
X293509Y68067D03*
D175*
X288239Y68067D03*
D176*
X270649Y68067D03*
D69*
X266617Y68067D03*
D92*
X297510Y68131D03*
D602*
X293604Y68131D03*
D645*
X288302Y68131D03*
D48*
X270617Y68131D03*
D77*
X266585Y68131D03*
D25*
X297351Y68194D03*
D460*
X293763Y68194D03*
D343*
X288366Y68194D03*
D71*
X270586Y68194D03*
D529*
X266522Y68194D03*
D283*
X294208Y68258D03*
D605*
X288397Y68258D03*
D536*
X270522Y68258D03*
D44*
X266458Y68258D03*
D285*
X294113Y68321D03*
D343*
X288366Y68321D03*
D80*
X270490Y68321D03*
D187*
X266426Y68321D03*
D289*
X294017Y68385D03*
D608*
X288334Y68385D03*
D125*
X270459Y68385D03*
D41*
X266395Y68385D03*
D374*
X293890Y68448D03*
D582*
X288302Y68448D03*
D240*
X270427Y68448D03*
D38*
X266331Y68448D03*
D372*
X293763Y68512D03*
D580*
X288239Y68512D03*
D75*
X270395Y68512D03*
D247*
X266268Y68512D03*
D378*
X293636Y68575D03*
D348*
X288207Y68575D03*
D488*
X270332Y68575D03*
D38*
X266204Y68575D03*
D139*
X293509Y68639D03*
D602*
X288143Y68639D03*
D84*
X270300Y68639D03*
D36*
X266173Y68639D03*
D646*
X290906Y68702D03*
D128*
X270268Y68702D03*
D96*
X266109Y68702D03*
D207*
X294176Y68766D03*
D232*
X290207Y68766D03*
D255*
X286810Y68766D03*
D104*
X270236Y68766D03*
D36*
X266046Y68766D03*
D257*
X294208Y68829D03*
D71*
X290398Y68829D03*
D264*
X286715Y68829D03*
D97*
X270173Y68829D03*
D253*
X265950Y68829D03*
D124*
X294240Y68893D03*
D255*
X290429Y68893D03*
D274*
X286588Y68893D03*
D108*
X270141Y68893D03*
D31*
X265918Y68893D03*
D90*
X294240Y68956D03*
D240*
X290493Y68956D03*
D245*
X286429Y68956D03*
D106*
X270109Y68956D03*
D34*
X265855Y68956D03*
D182*
X290493Y69020D03*
D234*
X286302Y69020D03*
D94*
X270046Y69020D03*
D31*
X265791Y69020D03*
D501*
X290525Y69083D03*
D81*
X286175Y69083D03*
D90*
X269983Y69083D03*
D34*
X265728Y69083D03*
D116*
X290557Y69147D03*
D208*
X286080Y69147D03*
D200*
X269951Y69147D03*
D109*
X265696Y69147D03*
D233*
X290588Y69210D03*
D213*
X286048Y69210D03*
D534*
X269887Y69210D03*
D34*
X265601Y69210D03*
D200*
X290652Y69274D03*
D216*
X286016Y69274D03*
D203*
X269855Y69274D03*
D31*
X265537Y69274D03*
D227*
X290715Y69337D03*
D81*
X285984Y69337D03*
D82*
X269792Y69337D03*
D34*
X265474Y69337D03*
D32*
X290747Y69401D03*
D223*
X285984Y69401D03*
D62*
X269729Y69401D03*
D109*
X265442Y69401D03*
D635*
X290779Y69464D03*
D235*
X285985Y69464D03*
D210*
X269697Y69464D03*
D29*
X265379Y69464D03*
D142*
X290810Y69528D03*
D243*
X285953Y69528D03*
D144*
X269633Y69528D03*
D109*
X265315Y69528D03*
D34*
X290874Y69591D03*
D245*
X285921Y69591D03*
D35*
X269601Y69591D03*
D29*
X265252Y69591D03*
D76*
X285953Y69655D03*
D53*
X269538Y69655D03*
D109*
X265188Y69655D03*
D67*
X285921Y69718D03*
D238*
X269475Y69718D03*
D29*
X265125Y69718D03*
D61*
X285889Y69782D03*
D260*
X269443Y69782D03*
D109*
X265061Y69782D03*
D270*
X285889Y69845D03*
D184*
X269379Y69845D03*
D29*
X264998Y69845D03*
D558*
X285889Y69909D03*
D242*
X269347Y69909D03*
D31*
X264966Y69909D03*
D266*
X285858Y69972D03*
D30*
X269284Y69972D03*
D34*
X264902Y69972D03*
D261*
X285826Y70036D03*
D304*
X269252Y70036D03*
D31*
X264839Y70036D03*
D80*
X285794Y70099D03*
D47*
X269221Y70099D03*
D34*
X264775Y70099D03*
D255*
X285794Y70163D03*
D191*
X269125Y70163D03*
D31*
X264712Y70163D03*
D80*
X285730Y70226D03*
D69*
X269093Y70226D03*
D253*
X264680Y70226D03*
D124*
X285604Y70290D03*
D279*
X269030Y70290D03*
D154*
X264617Y70290D03*
D55*
X285445Y70353D03*
D524*
X268998Y70353D03*
D34*
X264585Y70353D03*
D243*
X285318Y70417D03*
D275*
X268935Y70417D03*
D31*
X264521Y70417D03*
D230*
X285191Y70480D03*
D524*
X268871Y70480D03*
D29*
X264490Y70480D03*
M02*
