G04 EAGLE Gerber RS-274X export*
G75*
%MOMM*%
%FSLAX34Y34*%
%LPD*%
%INSolderpaste Top*%
%IPPOS*%
%AMOC8*
5,1,8,0,0,1.08239X$1,22.5*%
G01*
%ADD10R,0.400000X1.200000*%
%ADD11R,1.498600X2.006600*%
%ADD12R,3.810000X2.006600*%
%ADD13R,1.500000X1.300000*%
%ADD14R,2.000000X1.200000*%
%ADD15R,1.000000X1.100000*%
%ADD16R,1.524000X0.635000*%
%ADD17R,1.100000X1.000000*%
%ADD18R,2.000000X1.450000*%
%ADD19R,1.500000X0.800000*%
%ADD20R,2.400000X2.400000*%
%ADD21R,1.500000X1.500000*%
%ADD22R,0.600000X2.200000*%
%ADD23R,1.800000X2.200000*%
%ADD24R,1.340000X1.800000*%
%ADD25R,1.270000X2.540000*%
%ADD26R,0.762000X2.870200*%


D10*
X504550Y250933D03*
X511050Y250933D03*
X517550Y250933D03*
X524050Y250933D03*
X524050Y294067D03*
X517550Y294067D03*
X511050Y294067D03*
X504550Y294067D03*
D11*
X957606Y526816D03*
X934746Y526816D03*
X911886Y526816D03*
D12*
X935000Y463824D03*
D13*
X482100Y303564D03*
X482100Y322564D03*
X481800Y242000D03*
X481800Y223000D03*
D10*
X504550Y505933D03*
X511050Y505933D03*
X517550Y505933D03*
X524050Y505933D03*
X524050Y549067D03*
X517550Y549067D03*
X511050Y549067D03*
X504550Y549067D03*
D13*
X483956Y559031D03*
X483956Y578031D03*
X481567Y499733D03*
X481567Y480733D03*
D14*
X669540Y246700D03*
X669540Y226700D03*
X669540Y206700D03*
X669540Y186700D03*
X669540Y166700D03*
X669540Y146700D03*
X669540Y126700D03*
X669540Y106700D03*
X831540Y106700D03*
X831540Y126700D03*
X831540Y146700D03*
X831540Y166700D03*
X831540Y186700D03*
X831540Y206700D03*
X831540Y226700D03*
X831540Y246700D03*
D15*
X627302Y143487D03*
X644302Y143487D03*
X644228Y121306D03*
X627228Y121306D03*
X883302Y166997D03*
X900302Y166997D03*
D13*
X866803Y272225D03*
X866803Y253225D03*
D15*
X874914Y187531D03*
X891914Y187531D03*
X644149Y227105D03*
X627149Y227105D03*
D16*
X641610Y468210D03*
X695510Y442810D03*
X641610Y480910D03*
X641610Y455510D03*
X641610Y442810D03*
X695510Y455510D03*
X695510Y430110D03*
X695510Y417410D03*
X641610Y417410D03*
X695510Y392010D03*
X641610Y430110D03*
X641610Y404710D03*
X695510Y404710D03*
X641610Y392010D03*
X695510Y468210D03*
X695510Y480910D03*
D15*
X725743Y429145D03*
X742743Y429145D03*
D17*
X752772Y412433D03*
X752772Y395433D03*
D18*
X452705Y29904D03*
X452705Y167404D03*
X369705Y29904D03*
X369705Y167404D03*
D19*
X426705Y130704D03*
X426705Y119704D03*
X426705Y108704D03*
X426705Y97704D03*
X426705Y86704D03*
X426705Y75704D03*
X426705Y64704D03*
X426705Y53704D03*
D11*
X867606Y526874D03*
X844746Y526874D03*
X821886Y526874D03*
D12*
X845000Y463882D03*
D20*
X448270Y550500D03*
X448270Y594500D03*
X448270Y504500D03*
X448270Y460500D03*
X448270Y295500D03*
X448270Y339500D03*
X448270Y249500D03*
X448270Y205500D03*
D13*
X477233Y537000D03*
X477233Y518000D03*
X477000Y282000D03*
X477000Y263000D03*
X735478Y481911D03*
X735478Y500911D03*
D15*
X1043314Y567624D03*
X1026314Y567624D03*
D21*
X1031561Y644697D03*
X1031561Y614777D03*
D22*
X565588Y453626D03*
X565588Y401626D03*
X578288Y453626D03*
X552888Y453626D03*
X540188Y453626D03*
X578288Y401626D03*
X552888Y401626D03*
X540188Y401626D03*
D23*
X424680Y722225D03*
X475680Y722225D03*
D13*
X552450Y569620D03*
X552450Y588620D03*
X520700Y320700D03*
X520700Y339700D03*
D24*
X830910Y431800D03*
X802310Y431800D03*
D25*
X327056Y422878D03*
X301656Y422878D03*
X301727Y200419D03*
X327127Y200419D03*
D17*
X928860Y373380D03*
X911860Y373380D03*
X912640Y340360D03*
X929640Y340360D03*
X930130Y307340D03*
X913130Y307340D03*
D26*
X744419Y576223D03*
X744419Y615847D03*
X868329Y576853D03*
X868329Y616477D03*
X984386Y578815D03*
X984386Y618439D03*
D13*
X869950Y229210D03*
X869950Y210210D03*
D25*
X301956Y632387D03*
X327356Y632387D03*
X301478Y377017D03*
X326878Y377017D03*
M02*
